G04 #@! TF.GenerationSoftware,KiCad,Pcbnew,(5.1.4)-1*
G04 #@! TF.CreationDate,2020-03-07T09:14:15+01:00*
G04 #@! TF.ProjectId,Encoder,456e636f-6465-4722-9e6b-696361645f70,rev?*
G04 #@! TF.SameCoordinates,Original*
G04 #@! TF.FileFunction,Soldermask,Top*
G04 #@! TF.FilePolarity,Negative*
%FSLAX46Y46*%
G04 Gerber Fmt 4.6, Leading zero omitted, Abs format (unit mm)*
G04 Created by KiCad (PCBNEW (5.1.4)-1) date 2020-03-07 09:14:15*
%MOMM*%
%LPD*%
G04 APERTURE LIST*
%ADD10C,0.100000*%
G04 APERTURE END LIST*
D10*
G36*
X160667008Y-97883582D02*
G01*
X161067564Y-98049498D01*
X161067566Y-98049499D01*
X161428057Y-98290371D01*
X161734630Y-98596944D01*
X161975502Y-98957435D01*
X161975503Y-98957437D01*
X162141419Y-99357993D01*
X162226001Y-99783219D01*
X162226001Y-100216781D01*
X162141419Y-100642007D01*
X161975503Y-101042563D01*
X161975502Y-101042565D01*
X161734630Y-101403056D01*
X161428057Y-101709629D01*
X161067566Y-101950501D01*
X161067565Y-101950502D01*
X161067564Y-101950502D01*
X160667008Y-102116418D01*
X160241782Y-102201000D01*
X159808220Y-102201000D01*
X159382994Y-102116418D01*
X158982438Y-101950502D01*
X158982437Y-101950502D01*
X158982436Y-101950501D01*
X158621945Y-101709629D01*
X158315372Y-101403056D01*
X158074500Y-101042565D01*
X158074499Y-101042563D01*
X157908583Y-100642007D01*
X157824001Y-100216781D01*
X157824001Y-99783219D01*
X157908583Y-99357993D01*
X158074499Y-98957437D01*
X158074500Y-98957435D01*
X158315372Y-98596944D01*
X158621945Y-98290371D01*
X158982436Y-98049499D01*
X158982438Y-98049498D01*
X159382994Y-97883582D01*
X159808220Y-97799000D01*
X160241782Y-97799000D01*
X160667008Y-97883582D01*
X160667008Y-97883582D01*
G37*
G36*
X155050443Y-90545519D02*
G01*
X155116627Y-90552037D01*
X155286466Y-90603557D01*
X155442991Y-90687222D01*
X155478729Y-90716552D01*
X155580186Y-90799814D01*
X155663448Y-90901271D01*
X155692778Y-90937009D01*
X155776443Y-91093534D01*
X155827963Y-91263373D01*
X155845359Y-91440000D01*
X155827963Y-91616627D01*
X155776443Y-91786466D01*
X155692778Y-91942991D01*
X155663448Y-91978729D01*
X155580186Y-92080186D01*
X155478729Y-92163448D01*
X155442991Y-92192778D01*
X155286466Y-92276443D01*
X155116627Y-92327963D01*
X155050443Y-92334481D01*
X154984260Y-92341000D01*
X154895740Y-92341000D01*
X154829557Y-92334481D01*
X154763373Y-92327963D01*
X154593534Y-92276443D01*
X154437009Y-92192778D01*
X154401271Y-92163448D01*
X154299814Y-92080186D01*
X154216552Y-91978729D01*
X154187222Y-91942991D01*
X154103557Y-91786466D01*
X154052037Y-91616627D01*
X154034641Y-91440000D01*
X154052037Y-91263373D01*
X154103557Y-91093534D01*
X154187222Y-90937009D01*
X154216552Y-90901271D01*
X154299814Y-90799814D01*
X154401271Y-90716552D01*
X154437009Y-90687222D01*
X154593534Y-90603557D01*
X154763373Y-90552037D01*
X154829558Y-90545518D01*
X154895740Y-90539000D01*
X154984260Y-90539000D01*
X155050443Y-90545519D01*
X155050443Y-90545519D01*
G37*
G36*
X157590443Y-90545519D02*
G01*
X157656627Y-90552037D01*
X157826466Y-90603557D01*
X157982991Y-90687222D01*
X158018729Y-90716552D01*
X158120186Y-90799814D01*
X158203448Y-90901271D01*
X158232778Y-90937009D01*
X158316443Y-91093534D01*
X158367963Y-91263373D01*
X158385359Y-91440000D01*
X158367963Y-91616627D01*
X158316443Y-91786466D01*
X158232778Y-91942991D01*
X158203448Y-91978729D01*
X158120186Y-92080186D01*
X158018729Y-92163448D01*
X157982991Y-92192778D01*
X157826466Y-92276443D01*
X157656627Y-92327963D01*
X157590443Y-92334481D01*
X157524260Y-92341000D01*
X157435740Y-92341000D01*
X157369557Y-92334481D01*
X157303373Y-92327963D01*
X157133534Y-92276443D01*
X156977009Y-92192778D01*
X156941271Y-92163448D01*
X156839814Y-92080186D01*
X156756552Y-91978729D01*
X156727222Y-91942991D01*
X156643557Y-91786466D01*
X156592037Y-91616627D01*
X156574641Y-91440000D01*
X156592037Y-91263373D01*
X156643557Y-91093534D01*
X156727222Y-90937009D01*
X156756552Y-90901271D01*
X156839814Y-90799814D01*
X156941271Y-90716552D01*
X156977009Y-90687222D01*
X157133534Y-90603557D01*
X157303373Y-90552037D01*
X157369558Y-90545518D01*
X157435740Y-90539000D01*
X157524260Y-90539000D01*
X157590443Y-90545519D01*
X157590443Y-90545519D01*
G37*
G36*
X160130443Y-90545519D02*
G01*
X160196627Y-90552037D01*
X160366466Y-90603557D01*
X160522991Y-90687222D01*
X160558729Y-90716552D01*
X160660186Y-90799814D01*
X160743448Y-90901271D01*
X160772778Y-90937009D01*
X160856443Y-91093534D01*
X160907963Y-91263373D01*
X160925359Y-91440000D01*
X160907963Y-91616627D01*
X160856443Y-91786466D01*
X160772778Y-91942991D01*
X160743448Y-91978729D01*
X160660186Y-92080186D01*
X160558729Y-92163448D01*
X160522991Y-92192778D01*
X160366466Y-92276443D01*
X160196627Y-92327963D01*
X160130443Y-92334481D01*
X160064260Y-92341000D01*
X159975740Y-92341000D01*
X159909557Y-92334481D01*
X159843373Y-92327963D01*
X159673534Y-92276443D01*
X159517009Y-92192778D01*
X159481271Y-92163448D01*
X159379814Y-92080186D01*
X159296552Y-91978729D01*
X159267222Y-91942991D01*
X159183557Y-91786466D01*
X159132037Y-91616627D01*
X159114641Y-91440000D01*
X159132037Y-91263373D01*
X159183557Y-91093534D01*
X159267222Y-90937009D01*
X159296552Y-90901271D01*
X159379814Y-90799814D01*
X159481271Y-90716552D01*
X159517009Y-90687222D01*
X159673534Y-90603557D01*
X159843373Y-90552037D01*
X159909558Y-90545518D01*
X159975740Y-90539000D01*
X160064260Y-90539000D01*
X160130443Y-90545519D01*
X160130443Y-90545519D01*
G37*
G36*
X162670443Y-90545519D02*
G01*
X162736627Y-90552037D01*
X162906466Y-90603557D01*
X163062991Y-90687222D01*
X163098729Y-90716552D01*
X163200186Y-90799814D01*
X163283448Y-90901271D01*
X163312778Y-90937009D01*
X163396443Y-91093534D01*
X163447963Y-91263373D01*
X163465359Y-91440000D01*
X163447963Y-91616627D01*
X163396443Y-91786466D01*
X163312778Y-91942991D01*
X163283448Y-91978729D01*
X163200186Y-92080186D01*
X163098729Y-92163448D01*
X163062991Y-92192778D01*
X162906466Y-92276443D01*
X162736627Y-92327963D01*
X162670443Y-92334481D01*
X162604260Y-92341000D01*
X162515740Y-92341000D01*
X162449557Y-92334481D01*
X162383373Y-92327963D01*
X162213534Y-92276443D01*
X162057009Y-92192778D01*
X162021271Y-92163448D01*
X161919814Y-92080186D01*
X161836552Y-91978729D01*
X161807222Y-91942991D01*
X161723557Y-91786466D01*
X161672037Y-91616627D01*
X161654641Y-91440000D01*
X161672037Y-91263373D01*
X161723557Y-91093534D01*
X161807222Y-90937009D01*
X161836552Y-90901271D01*
X161919814Y-90799814D01*
X162021271Y-90716552D01*
X162057009Y-90687222D01*
X162213534Y-90603557D01*
X162383373Y-90552037D01*
X162449558Y-90545518D01*
X162515740Y-90539000D01*
X162604260Y-90539000D01*
X162670443Y-90545519D01*
X162670443Y-90545519D01*
G37*
G36*
X166001000Y-92341000D02*
G01*
X164199000Y-92341000D01*
X164199000Y-90539000D01*
X166001000Y-90539000D01*
X166001000Y-92341000D01*
X166001000Y-92341000D01*
G37*
G36*
X170065000Y-88785000D02*
G01*
X168263000Y-88785000D01*
X168263000Y-86983000D01*
X170065000Y-86983000D01*
X170065000Y-88785000D01*
X170065000Y-88785000D01*
G37*
G36*
X148700442Y-84195518D02*
G01*
X148766627Y-84202037D01*
X148936466Y-84253557D01*
X149092991Y-84337222D01*
X149128729Y-84366552D01*
X149230186Y-84449814D01*
X149313448Y-84551271D01*
X149342778Y-84587009D01*
X149426443Y-84743534D01*
X149477963Y-84913373D01*
X149495359Y-85090000D01*
X149477963Y-85266627D01*
X149426443Y-85436466D01*
X149342778Y-85592991D01*
X149313448Y-85628729D01*
X149230186Y-85730186D01*
X149128729Y-85813448D01*
X149092991Y-85842778D01*
X148936466Y-85926443D01*
X148766627Y-85977963D01*
X148700442Y-85984482D01*
X148634260Y-85991000D01*
X148545740Y-85991000D01*
X148479558Y-85984482D01*
X148413373Y-85977963D01*
X148243534Y-85926443D01*
X148087009Y-85842778D01*
X148051271Y-85813448D01*
X147949814Y-85730186D01*
X147866552Y-85628729D01*
X147837222Y-85592991D01*
X147753557Y-85436466D01*
X147702037Y-85266627D01*
X147684641Y-85090000D01*
X147702037Y-84913373D01*
X147753557Y-84743534D01*
X147837222Y-84587009D01*
X147866552Y-84551271D01*
X147949814Y-84449814D01*
X148051271Y-84366552D01*
X148087009Y-84337222D01*
X148243534Y-84253557D01*
X148413373Y-84202037D01*
X148479558Y-84195518D01*
X148545740Y-84189000D01*
X148634260Y-84189000D01*
X148700442Y-84195518D01*
X148700442Y-84195518D01*
G37*
G36*
X148700443Y-81655519D02*
G01*
X148766627Y-81662037D01*
X148936466Y-81713557D01*
X149092991Y-81797222D01*
X149128729Y-81826552D01*
X149230186Y-81909814D01*
X149313448Y-82011271D01*
X149342778Y-82047009D01*
X149426443Y-82203534D01*
X149477963Y-82373373D01*
X149495359Y-82550000D01*
X149477963Y-82726627D01*
X149426443Y-82896466D01*
X149342778Y-83052991D01*
X149313448Y-83088729D01*
X149230186Y-83190186D01*
X149128729Y-83273448D01*
X149092991Y-83302778D01*
X148936466Y-83386443D01*
X148766627Y-83437963D01*
X148700443Y-83444481D01*
X148634260Y-83451000D01*
X148545740Y-83451000D01*
X148479557Y-83444481D01*
X148413373Y-83437963D01*
X148243534Y-83386443D01*
X148087009Y-83302778D01*
X148051271Y-83273448D01*
X147949814Y-83190186D01*
X147866552Y-83088729D01*
X147837222Y-83052991D01*
X147753557Y-82896466D01*
X147702037Y-82726627D01*
X147684641Y-82550000D01*
X147702037Y-82373373D01*
X147753557Y-82203534D01*
X147837222Y-82047009D01*
X147866552Y-82011271D01*
X147949814Y-81909814D01*
X148051271Y-81826552D01*
X148087009Y-81797222D01*
X148243534Y-81713557D01*
X148413373Y-81662037D01*
X148479557Y-81655519D01*
X148545740Y-81649000D01*
X148634260Y-81649000D01*
X148700443Y-81655519D01*
X148700443Y-81655519D01*
G37*
G36*
X163746000Y-82236000D02*
G01*
X162194000Y-82236000D01*
X162194000Y-77784000D01*
X163746000Y-77784000D01*
X163746000Y-82236000D01*
X163746000Y-82236000D01*
G37*
G36*
X157846000Y-82236000D02*
G01*
X156294000Y-82236000D01*
X156294000Y-77784000D01*
X157846000Y-77784000D01*
X157846000Y-82236000D01*
X157846000Y-82236000D01*
G37*
G36*
X140642007Y-77883582D02*
G01*
X141042563Y-78049498D01*
X141042565Y-78049499D01*
X141403056Y-78290371D01*
X141709629Y-78596944D01*
X141860006Y-78822000D01*
X141950502Y-78957437D01*
X142116418Y-79357993D01*
X142201000Y-79783219D01*
X142201000Y-80216781D01*
X142116418Y-80642007D01*
X142010397Y-80897963D01*
X141950501Y-81042565D01*
X141709629Y-81403056D01*
X141403056Y-81709629D01*
X141042565Y-81950501D01*
X141042564Y-81950502D01*
X141042563Y-81950502D01*
X140642007Y-82116418D01*
X140216781Y-82201000D01*
X139783219Y-82201000D01*
X139357993Y-82116418D01*
X138957437Y-81950502D01*
X138957436Y-81950502D01*
X138957435Y-81950501D01*
X138596944Y-81709629D01*
X138290371Y-81403056D01*
X138049499Y-81042565D01*
X137989603Y-80897963D01*
X137883582Y-80642007D01*
X137799000Y-80216781D01*
X137799000Y-79783219D01*
X137883582Y-79357993D01*
X138049498Y-78957437D01*
X138139994Y-78822000D01*
X138290371Y-78596944D01*
X138596944Y-78290371D01*
X138957435Y-78049499D01*
X138957437Y-78049498D01*
X139357993Y-77883582D01*
X139783219Y-77799000D01*
X140216781Y-77799000D01*
X140642007Y-77883582D01*
X140642007Y-77883582D01*
G37*
G36*
X180642007Y-77883582D02*
G01*
X181042563Y-78049498D01*
X181042565Y-78049499D01*
X181403056Y-78290371D01*
X181709629Y-78596944D01*
X181860006Y-78822000D01*
X181950502Y-78957437D01*
X182116418Y-79357993D01*
X182201000Y-79783219D01*
X182201000Y-80216781D01*
X182116418Y-80642007D01*
X182010397Y-80897963D01*
X181950501Y-81042565D01*
X181709629Y-81403056D01*
X181403056Y-81709629D01*
X181042565Y-81950501D01*
X181042564Y-81950502D01*
X181042563Y-81950502D01*
X180642007Y-82116418D01*
X180216781Y-82201000D01*
X179783219Y-82201000D01*
X179357993Y-82116418D01*
X178957437Y-81950502D01*
X178957436Y-81950502D01*
X178957435Y-81950501D01*
X178596944Y-81709629D01*
X178290371Y-81403056D01*
X178049499Y-81042565D01*
X177989603Y-80897963D01*
X177883582Y-80642007D01*
X177799000Y-80216781D01*
X177799000Y-79783219D01*
X177883582Y-79357993D01*
X178049498Y-78957437D01*
X178139994Y-78822000D01*
X178290371Y-78596944D01*
X178596944Y-78290371D01*
X178957435Y-78049499D01*
X178957437Y-78049498D01*
X179357993Y-77883582D01*
X179783219Y-77799000D01*
X180216781Y-77799000D01*
X180642007Y-77883582D01*
X180642007Y-77883582D01*
G37*
G36*
X161571000Y-81861000D02*
G01*
X158469000Y-81861000D01*
X158469000Y-78159000D01*
X161571000Y-78159000D01*
X161571000Y-81861000D01*
X161571000Y-81861000D01*
G37*
G36*
X168601000Y-81426000D02*
G01*
X167299000Y-81426000D01*
X167299000Y-80574000D01*
X168601000Y-80574000D01*
X168601000Y-81426000D01*
X168601000Y-81426000D01*
G37*
G36*
X166701000Y-81426000D02*
G01*
X165399000Y-81426000D01*
X165399000Y-80574000D01*
X166701000Y-80574000D01*
X166701000Y-81426000D01*
X166701000Y-81426000D01*
G37*
G36*
X148700443Y-79115519D02*
G01*
X148766627Y-79122037D01*
X148936466Y-79173557D01*
X149092991Y-79257222D01*
X149128729Y-79286552D01*
X149230186Y-79369814D01*
X149313448Y-79471271D01*
X149342778Y-79507009D01*
X149426443Y-79663534D01*
X149477963Y-79833373D01*
X149495359Y-80010000D01*
X149477963Y-80186627D01*
X149426443Y-80356466D01*
X149342778Y-80512991D01*
X149313448Y-80548729D01*
X149230186Y-80650186D01*
X149128729Y-80733448D01*
X149092991Y-80762778D01*
X148936466Y-80846443D01*
X148766627Y-80897963D01*
X148700442Y-80904482D01*
X148634260Y-80911000D01*
X148545740Y-80911000D01*
X148479558Y-80904482D01*
X148413373Y-80897963D01*
X148243534Y-80846443D01*
X148087009Y-80762778D01*
X148051271Y-80733448D01*
X147949814Y-80650186D01*
X147866552Y-80548729D01*
X147837222Y-80512991D01*
X147753557Y-80356466D01*
X147702037Y-80186627D01*
X147684641Y-80010000D01*
X147702037Y-79833373D01*
X147753557Y-79663534D01*
X147837222Y-79507009D01*
X147866552Y-79471271D01*
X147949814Y-79369814D01*
X148051271Y-79286552D01*
X148087009Y-79257222D01*
X148243534Y-79173557D01*
X148413373Y-79122037D01*
X148479557Y-79115519D01*
X148545740Y-79109000D01*
X148634260Y-79109000D01*
X148700443Y-79115519D01*
X148700443Y-79115519D01*
G37*
G36*
X166701000Y-79674000D02*
G01*
X165399000Y-79674000D01*
X165399000Y-78822000D01*
X166701000Y-78822000D01*
X166701000Y-79674000D01*
X166701000Y-79674000D01*
G37*
G36*
X168601000Y-79674000D02*
G01*
X167299000Y-79674000D01*
X167299000Y-78822000D01*
X168601000Y-78822000D01*
X168601000Y-79674000D01*
X168601000Y-79674000D01*
G37*
G36*
X148700443Y-76575519D02*
G01*
X148766627Y-76582037D01*
X148936466Y-76633557D01*
X149092991Y-76717222D01*
X149128729Y-76746552D01*
X149230186Y-76829814D01*
X149313448Y-76931271D01*
X149342778Y-76967009D01*
X149426443Y-77123534D01*
X149477963Y-77293373D01*
X149495359Y-77470000D01*
X149477963Y-77646627D01*
X149426443Y-77816466D01*
X149342778Y-77972991D01*
X149313448Y-78008729D01*
X149230186Y-78110186D01*
X149128729Y-78193448D01*
X149092991Y-78222778D01*
X148936466Y-78306443D01*
X148766627Y-78357963D01*
X148700443Y-78364481D01*
X148634260Y-78371000D01*
X148545740Y-78371000D01*
X148479557Y-78364481D01*
X148413373Y-78357963D01*
X148243534Y-78306443D01*
X148087009Y-78222778D01*
X148051271Y-78193448D01*
X147949814Y-78110186D01*
X147866552Y-78008729D01*
X147837222Y-77972991D01*
X147753557Y-77816466D01*
X147702037Y-77646627D01*
X147684641Y-77470000D01*
X147702037Y-77293373D01*
X147753557Y-77123534D01*
X147837222Y-76967009D01*
X147866552Y-76931271D01*
X147949814Y-76829814D01*
X148051271Y-76746552D01*
X148087009Y-76717222D01*
X148243534Y-76633557D01*
X148413373Y-76582037D01*
X148479557Y-76575519D01*
X148545740Y-76569000D01*
X148634260Y-76569000D01*
X148700443Y-76575519D01*
X148700443Y-76575519D01*
G37*
G36*
X149491000Y-75831000D02*
G01*
X147689000Y-75831000D01*
X147689000Y-74029000D01*
X149491000Y-74029000D01*
X149491000Y-75831000D01*
X149491000Y-75831000D01*
G37*
G36*
X160642007Y-57883582D02*
G01*
X161042563Y-58049498D01*
X161042565Y-58049499D01*
X161403056Y-58290371D01*
X161709629Y-58596944D01*
X161950501Y-58957435D01*
X161950502Y-58957437D01*
X162116418Y-59357993D01*
X162201000Y-59783219D01*
X162201000Y-60216781D01*
X162116418Y-60642007D01*
X161950502Y-61042563D01*
X161950501Y-61042565D01*
X161709629Y-61403056D01*
X161403056Y-61709629D01*
X161042565Y-61950501D01*
X161042564Y-61950502D01*
X161042563Y-61950502D01*
X160642007Y-62116418D01*
X160216781Y-62201000D01*
X159783219Y-62201000D01*
X159357993Y-62116418D01*
X158957437Y-61950502D01*
X158957436Y-61950502D01*
X158957435Y-61950501D01*
X158596944Y-61709629D01*
X158290371Y-61403056D01*
X158049499Y-61042565D01*
X158049498Y-61042563D01*
X157883582Y-60642007D01*
X157799000Y-60216781D01*
X157799000Y-59783219D01*
X157883582Y-59357993D01*
X158049498Y-58957437D01*
X158049499Y-58957435D01*
X158290371Y-58596944D01*
X158596944Y-58290371D01*
X158957435Y-58049499D01*
X158957437Y-58049498D01*
X159357993Y-57883582D01*
X159783219Y-57799000D01*
X160216781Y-57799000D01*
X160642007Y-57883582D01*
X160642007Y-57883582D01*
G37*
M02*
