G04 #@! TF.GenerationSoftware,KiCad,Pcbnew,(5.1.4)-1*
G04 #@! TF.CreationDate,2020-03-07T09:14:15+01:00*
G04 #@! TF.ProjectId,Encoder,456e636f-6465-4722-9e6b-696361645f70,rev?*
G04 #@! TF.SameCoordinates,Original*
G04 #@! TF.FileFunction,Copper,L2,Bot*
G04 #@! TF.FilePolarity,Positive*
%FSLAX46Y46*%
G04 Gerber Fmt 4.6, Leading zero omitted, Abs format (unit mm)*
G04 Created by KiCad (PCBNEW (5.1.4)-1) date 2020-03-07 09:14:15*
%MOMM*%
%LPD*%
G04 APERTURE LIST*
%ADD10R,1.700000X1.700000*%
%ADD11O,1.700000X1.700000*%
%ADD12C,0.800000*%
%ADD13C,0.254000*%
G04 APERTURE END LIST*
D10*
X148590000Y-74930000D03*
D11*
X148590000Y-77470000D03*
X148590000Y-80010000D03*
X148590000Y-82550000D03*
X148590000Y-85090000D03*
X154940000Y-91440000D03*
X157480000Y-91440000D03*
X160020000Y-91440000D03*
X162560000Y-91440000D03*
D10*
X165100000Y-91440000D03*
X169164000Y-87884000D03*
D12*
X169671996Y-79248004D03*
X169443986Y-81000000D03*
D13*
G36*
X162441048Y-55527441D02*
G01*
X164377680Y-55798745D01*
X166286635Y-56223056D01*
X168155845Y-56797693D01*
X169973490Y-57519023D01*
X171728079Y-58382484D01*
X173408520Y-59382618D01*
X175004188Y-60513102D01*
X176504995Y-61766789D01*
X177901451Y-63135752D01*
X179184729Y-64611336D01*
X180346715Y-66184212D01*
X181380063Y-67844435D01*
X182278239Y-69581511D01*
X183035564Y-71384455D01*
X183647252Y-73241870D01*
X184109433Y-75142011D01*
X184419188Y-77072867D01*
X184574556Y-79022228D01*
X184574556Y-80977772D01*
X184419188Y-82927133D01*
X184109433Y-84857989D01*
X183647252Y-86758130D01*
X183035564Y-88615545D01*
X182278239Y-90418489D01*
X181380063Y-92155565D01*
X180346715Y-93815788D01*
X179184729Y-95388664D01*
X177901451Y-96864248D01*
X176504995Y-98233211D01*
X175004188Y-99486898D01*
X173408520Y-100617382D01*
X171728079Y-101617516D01*
X169973490Y-102480977D01*
X168155845Y-103202307D01*
X166286635Y-103776944D01*
X164377680Y-104201255D01*
X162441048Y-104472559D01*
X160488983Y-104589138D01*
X158533826Y-104550258D01*
X156587938Y-104356163D01*
X154663623Y-104008080D01*
X152773046Y-103508211D01*
X150928161Y-102859715D01*
X149140630Y-102066693D01*
X147421756Y-101134157D01*
X145782405Y-100068005D01*
X145370325Y-99750718D01*
X157494001Y-99750718D01*
X157494001Y-100249282D01*
X157591266Y-100738265D01*
X157782058Y-101198878D01*
X158059045Y-101613418D01*
X158411583Y-101965956D01*
X158826123Y-102242943D01*
X159286736Y-102433735D01*
X159775719Y-102531000D01*
X160274283Y-102531000D01*
X160763266Y-102433735D01*
X161223879Y-102242943D01*
X161638419Y-101965956D01*
X161990957Y-101613418D01*
X162267944Y-101198878D01*
X162458736Y-100738265D01*
X162556001Y-100249282D01*
X162556001Y-99750718D01*
X162458736Y-99261735D01*
X162267944Y-98801122D01*
X161990957Y-98386582D01*
X161638419Y-98034044D01*
X161223879Y-97757057D01*
X160763266Y-97566265D01*
X160274283Y-97469000D01*
X159775719Y-97469000D01*
X159286736Y-97566265D01*
X158826123Y-97757057D01*
X158411583Y-98034044D01*
X158059045Y-98386582D01*
X157782058Y-98801122D01*
X157591266Y-99261735D01*
X157494001Y-99750718D01*
X145370325Y-99750718D01*
X144232943Y-98874977D01*
X142783165Y-97562615D01*
X141442238Y-96139216D01*
X140218638Y-94613780D01*
X139120103Y-92995951D01*
X138419803Y-91764214D01*
X153704836Y-91764214D01*
X153791820Y-91998953D01*
X153922928Y-92212212D01*
X154093122Y-92395795D01*
X154295861Y-92542647D01*
X154523354Y-92647125D01*
X154615787Y-92675158D01*
X154813000Y-92603338D01*
X154813000Y-91567000D01*
X155067000Y-91567000D01*
X155067000Y-92603338D01*
X155264213Y-92675158D01*
X155356646Y-92647125D01*
X155584139Y-92542647D01*
X155786878Y-92395795D01*
X155957072Y-92212212D01*
X156088180Y-91998953D01*
X156175164Y-91764214D01*
X156103925Y-91567000D01*
X155067000Y-91567000D01*
X154813000Y-91567000D01*
X153776075Y-91567000D01*
X153704836Y-91764214D01*
X138419803Y-91764214D01*
X138235472Y-91440000D01*
X156243044Y-91440000D01*
X156266812Y-91681318D01*
X156337202Y-91913363D01*
X156451509Y-92127216D01*
X156605340Y-92314660D01*
X156792784Y-92468491D01*
X157006637Y-92582798D01*
X157238682Y-92653188D01*
X157419528Y-92671000D01*
X157540472Y-92671000D01*
X157721318Y-92653188D01*
X157953363Y-92582798D01*
X158167216Y-92468491D01*
X158354660Y-92314660D01*
X158508491Y-92127216D01*
X158622798Y-91913363D01*
X158693188Y-91681318D01*
X158716956Y-91440000D01*
X158783044Y-91440000D01*
X158806812Y-91681318D01*
X158877202Y-91913363D01*
X158991509Y-92127216D01*
X159145340Y-92314660D01*
X159332784Y-92468491D01*
X159546637Y-92582798D01*
X159778682Y-92653188D01*
X159959528Y-92671000D01*
X160080472Y-92671000D01*
X160261318Y-92653188D01*
X160493363Y-92582798D01*
X160707216Y-92468491D01*
X160894660Y-92314660D01*
X161048491Y-92127216D01*
X161162798Y-91913363D01*
X161233188Y-91681318D01*
X161256956Y-91440000D01*
X161323044Y-91440000D01*
X161346812Y-91681318D01*
X161417202Y-91913363D01*
X161531509Y-92127216D01*
X161685340Y-92314660D01*
X161872784Y-92468491D01*
X162086637Y-92582798D01*
X162318682Y-92653188D01*
X162499528Y-92671000D01*
X162620472Y-92671000D01*
X162801318Y-92653188D01*
X163033363Y-92582798D01*
X163247216Y-92468491D01*
X163434660Y-92314660D01*
X163588491Y-92127216D01*
X163702798Y-91913363D01*
X163773188Y-91681318D01*
X163796956Y-91440000D01*
X163773188Y-91198682D01*
X163702798Y-90966637D01*
X163588491Y-90752784D01*
X163454898Y-90590000D01*
X163867157Y-90590000D01*
X163867157Y-92290000D01*
X163874513Y-92364689D01*
X163896299Y-92436508D01*
X163931678Y-92502696D01*
X163979289Y-92560711D01*
X164037304Y-92608322D01*
X164103492Y-92643701D01*
X164175311Y-92665487D01*
X164250000Y-92672843D01*
X165950000Y-92672843D01*
X166024689Y-92665487D01*
X166096508Y-92643701D01*
X166162696Y-92608322D01*
X166220711Y-92560711D01*
X166268322Y-92502696D01*
X166303701Y-92436508D01*
X166325487Y-92364689D01*
X166332843Y-92290000D01*
X166332843Y-90590000D01*
X166325487Y-90515311D01*
X166303701Y-90443492D01*
X166268322Y-90377304D01*
X166220711Y-90319289D01*
X166162696Y-90271678D01*
X166096508Y-90236299D01*
X166024689Y-90214513D01*
X165950000Y-90207157D01*
X164250000Y-90207157D01*
X164175311Y-90214513D01*
X164103492Y-90236299D01*
X164037304Y-90271678D01*
X163979289Y-90319289D01*
X163931678Y-90377304D01*
X163896299Y-90443492D01*
X163874513Y-90515311D01*
X163867157Y-90590000D01*
X163454898Y-90590000D01*
X163434660Y-90565340D01*
X163247216Y-90411509D01*
X163033363Y-90297202D01*
X162801318Y-90226812D01*
X162620472Y-90209000D01*
X162499528Y-90209000D01*
X162318682Y-90226812D01*
X162086637Y-90297202D01*
X161872784Y-90411509D01*
X161685340Y-90565340D01*
X161531509Y-90752784D01*
X161417202Y-90966637D01*
X161346812Y-91198682D01*
X161323044Y-91440000D01*
X161256956Y-91440000D01*
X161233188Y-91198682D01*
X161162798Y-90966637D01*
X161048491Y-90752784D01*
X160894660Y-90565340D01*
X160707216Y-90411509D01*
X160493363Y-90297202D01*
X160261318Y-90226812D01*
X160080472Y-90209000D01*
X159959528Y-90209000D01*
X159778682Y-90226812D01*
X159546637Y-90297202D01*
X159332784Y-90411509D01*
X159145340Y-90565340D01*
X158991509Y-90752784D01*
X158877202Y-90966637D01*
X158806812Y-91198682D01*
X158783044Y-91440000D01*
X158716956Y-91440000D01*
X158693188Y-91198682D01*
X158622798Y-90966637D01*
X158508491Y-90752784D01*
X158354660Y-90565340D01*
X158167216Y-90411509D01*
X157953363Y-90297202D01*
X157721318Y-90226812D01*
X157540472Y-90209000D01*
X157419528Y-90209000D01*
X157238682Y-90226812D01*
X157006637Y-90297202D01*
X156792784Y-90411509D01*
X156605340Y-90565340D01*
X156451509Y-90752784D01*
X156337202Y-90966637D01*
X156266812Y-91198682D01*
X156243044Y-91440000D01*
X138235472Y-91440000D01*
X138153577Y-91295958D01*
X138069320Y-91115786D01*
X153704836Y-91115786D01*
X153776075Y-91313000D01*
X154813000Y-91313000D01*
X154813000Y-90276662D01*
X155067000Y-90276662D01*
X155067000Y-91313000D01*
X156103925Y-91313000D01*
X156175164Y-91115786D01*
X156088180Y-90881047D01*
X155957072Y-90667788D01*
X155786878Y-90484205D01*
X155584139Y-90337353D01*
X155356646Y-90232875D01*
X155264213Y-90204842D01*
X155067000Y-90276662D01*
X154813000Y-90276662D01*
X154615787Y-90204842D01*
X154523354Y-90232875D01*
X154295861Y-90337353D01*
X154093122Y-90484205D01*
X153922928Y-90667788D01*
X153791820Y-90881047D01*
X153704836Y-91115786D01*
X138069320Y-91115786D01*
X137325172Y-89524547D01*
X136640124Y-87692920D01*
X136451812Y-87034000D01*
X167931157Y-87034000D01*
X167931157Y-88734000D01*
X167938513Y-88808689D01*
X167960299Y-88880508D01*
X167995678Y-88946696D01*
X168043289Y-89004711D01*
X168101304Y-89052322D01*
X168167492Y-89087701D01*
X168239311Y-89109487D01*
X168314000Y-89116843D01*
X170014000Y-89116843D01*
X170088689Y-89109487D01*
X170160508Y-89087701D01*
X170226696Y-89052322D01*
X170284711Y-89004711D01*
X170332322Y-88946696D01*
X170367701Y-88880508D01*
X170389487Y-88808689D01*
X170396843Y-88734000D01*
X170396843Y-87034000D01*
X170389487Y-86959311D01*
X170367701Y-86887492D01*
X170332322Y-86821304D01*
X170284711Y-86763289D01*
X170226696Y-86715678D01*
X170160508Y-86680299D01*
X170088689Y-86658513D01*
X170014000Y-86651157D01*
X168314000Y-86651157D01*
X168239311Y-86658513D01*
X168167492Y-86680299D01*
X168101304Y-86715678D01*
X168043289Y-86763289D01*
X167995678Y-86821304D01*
X167960299Y-86887492D01*
X167938513Y-86959311D01*
X167931157Y-87034000D01*
X136451812Y-87034000D01*
X136102764Y-85812655D01*
X136022480Y-85414213D01*
X147354842Y-85414213D01*
X147382875Y-85506646D01*
X147487353Y-85734139D01*
X147634205Y-85936878D01*
X147817788Y-86107072D01*
X148031047Y-86238180D01*
X148265786Y-86325164D01*
X148463000Y-86253925D01*
X148463000Y-85217000D01*
X148717000Y-85217000D01*
X148717000Y-86253925D01*
X148914214Y-86325164D01*
X149148953Y-86238180D01*
X149362212Y-86107072D01*
X149545795Y-85936878D01*
X149692647Y-85734139D01*
X149797125Y-85506646D01*
X149825158Y-85414213D01*
X149753338Y-85217000D01*
X148717000Y-85217000D01*
X148463000Y-85217000D01*
X147426662Y-85217000D01*
X147354842Y-85414213D01*
X136022480Y-85414213D01*
X135891824Y-84765787D01*
X147354842Y-84765787D01*
X147426662Y-84963000D01*
X148463000Y-84963000D01*
X148463000Y-83926075D01*
X148717000Y-83926075D01*
X148717000Y-84963000D01*
X149753338Y-84963000D01*
X149825158Y-84765787D01*
X149797125Y-84673354D01*
X149692647Y-84445861D01*
X149545795Y-84243122D01*
X149362212Y-84072928D01*
X149148953Y-83941820D01*
X148914214Y-83854836D01*
X148717000Y-83926075D01*
X148463000Y-83926075D01*
X148265786Y-83854836D01*
X148031047Y-83941820D01*
X147817788Y-84072928D01*
X147634205Y-84243122D01*
X147487353Y-84445861D01*
X147382875Y-84673354D01*
X147354842Y-84765787D01*
X135891824Y-84765787D01*
X135716491Y-83895641D01*
X135555189Y-82550000D01*
X147353044Y-82550000D01*
X147376812Y-82791318D01*
X147447202Y-83023363D01*
X147561509Y-83237216D01*
X147715340Y-83424660D01*
X147902784Y-83578491D01*
X148116637Y-83692798D01*
X148348682Y-83763188D01*
X148529528Y-83781000D01*
X148650472Y-83781000D01*
X148831318Y-83763188D01*
X149063363Y-83692798D01*
X149277216Y-83578491D01*
X149464660Y-83424660D01*
X149618491Y-83237216D01*
X149732798Y-83023363D01*
X149803188Y-82791318D01*
X149826956Y-82550000D01*
X149803188Y-82308682D01*
X149732798Y-82076637D01*
X149618491Y-81862784D01*
X149464660Y-81675340D01*
X149277216Y-81521509D01*
X149063363Y-81407202D01*
X148831318Y-81336812D01*
X148650472Y-81319000D01*
X148529528Y-81319000D01*
X148348682Y-81336812D01*
X148116637Y-81407202D01*
X147902784Y-81521509D01*
X147715340Y-81675340D01*
X147561509Y-81862784D01*
X147447202Y-82076637D01*
X147376812Y-82308682D01*
X147353044Y-82550000D01*
X135555189Y-82550000D01*
X135483746Y-81953997D01*
X135406000Y-80000000D01*
X135415918Y-79750718D01*
X137469000Y-79750718D01*
X137469000Y-80249282D01*
X137566265Y-80738265D01*
X137757057Y-81198878D01*
X138034044Y-81613418D01*
X138386582Y-81965956D01*
X138801122Y-82242943D01*
X139261735Y-82433735D01*
X139750718Y-82531000D01*
X140249282Y-82531000D01*
X140738265Y-82433735D01*
X141198878Y-82242943D01*
X141613418Y-81965956D01*
X141965956Y-81613418D01*
X142242943Y-81198878D01*
X142433735Y-80738265D01*
X142531000Y-80249282D01*
X142531000Y-80010000D01*
X147353044Y-80010000D01*
X147376812Y-80251318D01*
X147447202Y-80483363D01*
X147561509Y-80697216D01*
X147715340Y-80884660D01*
X147902784Y-81038491D01*
X148116637Y-81152798D01*
X148348682Y-81223188D01*
X148529528Y-81241000D01*
X148650472Y-81241000D01*
X148831318Y-81223188D01*
X149063363Y-81152798D01*
X149277216Y-81038491D01*
X149464660Y-80884660D01*
X149618491Y-80697216D01*
X149732798Y-80483363D01*
X149803188Y-80251318D01*
X149826956Y-80010000D01*
X149803188Y-79768682D01*
X149797739Y-79750718D01*
X177469000Y-79750718D01*
X177469000Y-80249282D01*
X177566265Y-80738265D01*
X177757057Y-81198878D01*
X178034044Y-81613418D01*
X178386582Y-81965956D01*
X178801122Y-82242943D01*
X179261735Y-82433735D01*
X179750718Y-82531000D01*
X180249282Y-82531000D01*
X180738265Y-82433735D01*
X181198878Y-82242943D01*
X181613418Y-81965956D01*
X181965956Y-81613418D01*
X182242943Y-81198878D01*
X182433735Y-80738265D01*
X182531000Y-80249282D01*
X182531000Y-79750718D01*
X182433735Y-79261735D01*
X182242943Y-78801122D01*
X181965956Y-78386582D01*
X181613418Y-78034044D01*
X181198878Y-77757057D01*
X180738265Y-77566265D01*
X180249282Y-77469000D01*
X179750718Y-77469000D01*
X179261735Y-77566265D01*
X178801122Y-77757057D01*
X178386582Y-78034044D01*
X178034044Y-78386582D01*
X177757057Y-78801122D01*
X177566265Y-79261735D01*
X177469000Y-79750718D01*
X149797739Y-79750718D01*
X149732798Y-79536637D01*
X149618491Y-79322784D01*
X149464660Y-79135340D01*
X149277216Y-78981509D01*
X149063363Y-78867202D01*
X148831318Y-78796812D01*
X148650472Y-78779000D01*
X148529528Y-78779000D01*
X148348682Y-78796812D01*
X148116637Y-78867202D01*
X147902784Y-78981509D01*
X147715340Y-79135340D01*
X147561509Y-79322784D01*
X147447202Y-79536637D01*
X147376812Y-79768682D01*
X147353044Y-80010000D01*
X142531000Y-80010000D01*
X142531000Y-79750718D01*
X142433735Y-79261735D01*
X142242943Y-78801122D01*
X141965956Y-78386582D01*
X141613418Y-78034044D01*
X141198878Y-77757057D01*
X140738265Y-77566265D01*
X140254310Y-77470000D01*
X147353044Y-77470000D01*
X147376812Y-77711318D01*
X147447202Y-77943363D01*
X147561509Y-78157216D01*
X147715340Y-78344660D01*
X147902784Y-78498491D01*
X148116637Y-78612798D01*
X148348682Y-78683188D01*
X148529528Y-78701000D01*
X148650472Y-78701000D01*
X148831318Y-78683188D01*
X149063363Y-78612798D01*
X149277216Y-78498491D01*
X149464660Y-78344660D01*
X149618491Y-78157216D01*
X149732798Y-77943363D01*
X149803188Y-77711318D01*
X149826956Y-77470000D01*
X149803188Y-77228682D01*
X149732798Y-76996637D01*
X149618491Y-76782784D01*
X149464660Y-76595340D01*
X149277216Y-76441509D01*
X149063363Y-76327202D01*
X148831318Y-76256812D01*
X148650472Y-76239000D01*
X148529528Y-76239000D01*
X148348682Y-76256812D01*
X148116637Y-76327202D01*
X147902784Y-76441509D01*
X147715340Y-76595340D01*
X147561509Y-76782784D01*
X147447202Y-76996637D01*
X147376812Y-77228682D01*
X147353044Y-77470000D01*
X140254310Y-77470000D01*
X140249282Y-77469000D01*
X139750718Y-77469000D01*
X139261735Y-77566265D01*
X138801122Y-77757057D01*
X138386582Y-78034044D01*
X138034044Y-78386582D01*
X137757057Y-78801122D01*
X137566265Y-79261735D01*
X137469000Y-79750718D01*
X135415918Y-79750718D01*
X135483746Y-78046003D01*
X135716491Y-76104359D01*
X136102764Y-74187345D01*
X136133442Y-74080000D01*
X147357157Y-74080000D01*
X147357157Y-75780000D01*
X147364513Y-75854689D01*
X147386299Y-75926508D01*
X147421678Y-75992696D01*
X147469289Y-76050711D01*
X147527304Y-76098322D01*
X147593492Y-76133701D01*
X147665311Y-76155487D01*
X147740000Y-76162843D01*
X149440000Y-76162843D01*
X149514689Y-76155487D01*
X149586508Y-76133701D01*
X149652696Y-76098322D01*
X149710711Y-76050711D01*
X149758322Y-75992696D01*
X149793701Y-75926508D01*
X149815487Y-75854689D01*
X149822843Y-75780000D01*
X149822843Y-74080000D01*
X149815487Y-74005311D01*
X149793701Y-73933492D01*
X149758322Y-73867304D01*
X149710711Y-73809289D01*
X149652696Y-73761678D01*
X149586508Y-73726299D01*
X149514689Y-73704513D01*
X149440000Y-73697157D01*
X147740000Y-73697157D01*
X147665311Y-73704513D01*
X147593492Y-73726299D01*
X147527304Y-73761678D01*
X147469289Y-73809289D01*
X147421678Y-73867304D01*
X147386299Y-73933492D01*
X147364513Y-74005311D01*
X147357157Y-74080000D01*
X136133442Y-74080000D01*
X136640124Y-72307080D01*
X137325172Y-70475453D01*
X138153577Y-68704042D01*
X139120103Y-67004049D01*
X140218638Y-65386220D01*
X141442238Y-63860784D01*
X142783165Y-62437385D01*
X144232943Y-61125023D01*
X145782405Y-59931995D01*
X146061142Y-59750718D01*
X157469000Y-59750718D01*
X157469000Y-60249282D01*
X157566265Y-60738265D01*
X157757057Y-61198878D01*
X158034044Y-61613418D01*
X158386582Y-61965956D01*
X158801122Y-62242943D01*
X159261735Y-62433735D01*
X159750718Y-62531000D01*
X160249282Y-62531000D01*
X160738265Y-62433735D01*
X161198878Y-62242943D01*
X161613418Y-61965956D01*
X161965956Y-61613418D01*
X162242943Y-61198878D01*
X162433735Y-60738265D01*
X162531000Y-60249282D01*
X162531000Y-59750718D01*
X162433735Y-59261735D01*
X162242943Y-58801122D01*
X161965956Y-58386582D01*
X161613418Y-58034044D01*
X161198878Y-57757057D01*
X160738265Y-57566265D01*
X160249282Y-57469000D01*
X159750718Y-57469000D01*
X159261735Y-57566265D01*
X158801122Y-57757057D01*
X158386582Y-58034044D01*
X158034044Y-58386582D01*
X157757057Y-58801122D01*
X157566265Y-59261735D01*
X157469000Y-59750718D01*
X146061142Y-59750718D01*
X147421756Y-58865843D01*
X149140630Y-57933307D01*
X150928161Y-57140285D01*
X152773046Y-56491789D01*
X154663623Y-55991920D01*
X156587938Y-55643837D01*
X158533826Y-55449742D01*
X160488983Y-55410862D01*
X162441048Y-55527441D01*
X162441048Y-55527441D01*
G37*
X162441048Y-55527441D02*
X164377680Y-55798745D01*
X166286635Y-56223056D01*
X168155845Y-56797693D01*
X169973490Y-57519023D01*
X171728079Y-58382484D01*
X173408520Y-59382618D01*
X175004188Y-60513102D01*
X176504995Y-61766789D01*
X177901451Y-63135752D01*
X179184729Y-64611336D01*
X180346715Y-66184212D01*
X181380063Y-67844435D01*
X182278239Y-69581511D01*
X183035564Y-71384455D01*
X183647252Y-73241870D01*
X184109433Y-75142011D01*
X184419188Y-77072867D01*
X184574556Y-79022228D01*
X184574556Y-80977772D01*
X184419188Y-82927133D01*
X184109433Y-84857989D01*
X183647252Y-86758130D01*
X183035564Y-88615545D01*
X182278239Y-90418489D01*
X181380063Y-92155565D01*
X180346715Y-93815788D01*
X179184729Y-95388664D01*
X177901451Y-96864248D01*
X176504995Y-98233211D01*
X175004188Y-99486898D01*
X173408520Y-100617382D01*
X171728079Y-101617516D01*
X169973490Y-102480977D01*
X168155845Y-103202307D01*
X166286635Y-103776944D01*
X164377680Y-104201255D01*
X162441048Y-104472559D01*
X160488983Y-104589138D01*
X158533826Y-104550258D01*
X156587938Y-104356163D01*
X154663623Y-104008080D01*
X152773046Y-103508211D01*
X150928161Y-102859715D01*
X149140630Y-102066693D01*
X147421756Y-101134157D01*
X145782405Y-100068005D01*
X145370325Y-99750718D01*
X157494001Y-99750718D01*
X157494001Y-100249282D01*
X157591266Y-100738265D01*
X157782058Y-101198878D01*
X158059045Y-101613418D01*
X158411583Y-101965956D01*
X158826123Y-102242943D01*
X159286736Y-102433735D01*
X159775719Y-102531000D01*
X160274283Y-102531000D01*
X160763266Y-102433735D01*
X161223879Y-102242943D01*
X161638419Y-101965956D01*
X161990957Y-101613418D01*
X162267944Y-101198878D01*
X162458736Y-100738265D01*
X162556001Y-100249282D01*
X162556001Y-99750718D01*
X162458736Y-99261735D01*
X162267944Y-98801122D01*
X161990957Y-98386582D01*
X161638419Y-98034044D01*
X161223879Y-97757057D01*
X160763266Y-97566265D01*
X160274283Y-97469000D01*
X159775719Y-97469000D01*
X159286736Y-97566265D01*
X158826123Y-97757057D01*
X158411583Y-98034044D01*
X158059045Y-98386582D01*
X157782058Y-98801122D01*
X157591266Y-99261735D01*
X157494001Y-99750718D01*
X145370325Y-99750718D01*
X144232943Y-98874977D01*
X142783165Y-97562615D01*
X141442238Y-96139216D01*
X140218638Y-94613780D01*
X139120103Y-92995951D01*
X138419803Y-91764214D01*
X153704836Y-91764214D01*
X153791820Y-91998953D01*
X153922928Y-92212212D01*
X154093122Y-92395795D01*
X154295861Y-92542647D01*
X154523354Y-92647125D01*
X154615787Y-92675158D01*
X154813000Y-92603338D01*
X154813000Y-91567000D01*
X155067000Y-91567000D01*
X155067000Y-92603338D01*
X155264213Y-92675158D01*
X155356646Y-92647125D01*
X155584139Y-92542647D01*
X155786878Y-92395795D01*
X155957072Y-92212212D01*
X156088180Y-91998953D01*
X156175164Y-91764214D01*
X156103925Y-91567000D01*
X155067000Y-91567000D01*
X154813000Y-91567000D01*
X153776075Y-91567000D01*
X153704836Y-91764214D01*
X138419803Y-91764214D01*
X138235472Y-91440000D01*
X156243044Y-91440000D01*
X156266812Y-91681318D01*
X156337202Y-91913363D01*
X156451509Y-92127216D01*
X156605340Y-92314660D01*
X156792784Y-92468491D01*
X157006637Y-92582798D01*
X157238682Y-92653188D01*
X157419528Y-92671000D01*
X157540472Y-92671000D01*
X157721318Y-92653188D01*
X157953363Y-92582798D01*
X158167216Y-92468491D01*
X158354660Y-92314660D01*
X158508491Y-92127216D01*
X158622798Y-91913363D01*
X158693188Y-91681318D01*
X158716956Y-91440000D01*
X158783044Y-91440000D01*
X158806812Y-91681318D01*
X158877202Y-91913363D01*
X158991509Y-92127216D01*
X159145340Y-92314660D01*
X159332784Y-92468491D01*
X159546637Y-92582798D01*
X159778682Y-92653188D01*
X159959528Y-92671000D01*
X160080472Y-92671000D01*
X160261318Y-92653188D01*
X160493363Y-92582798D01*
X160707216Y-92468491D01*
X160894660Y-92314660D01*
X161048491Y-92127216D01*
X161162798Y-91913363D01*
X161233188Y-91681318D01*
X161256956Y-91440000D01*
X161323044Y-91440000D01*
X161346812Y-91681318D01*
X161417202Y-91913363D01*
X161531509Y-92127216D01*
X161685340Y-92314660D01*
X161872784Y-92468491D01*
X162086637Y-92582798D01*
X162318682Y-92653188D01*
X162499528Y-92671000D01*
X162620472Y-92671000D01*
X162801318Y-92653188D01*
X163033363Y-92582798D01*
X163247216Y-92468491D01*
X163434660Y-92314660D01*
X163588491Y-92127216D01*
X163702798Y-91913363D01*
X163773188Y-91681318D01*
X163796956Y-91440000D01*
X163773188Y-91198682D01*
X163702798Y-90966637D01*
X163588491Y-90752784D01*
X163454898Y-90590000D01*
X163867157Y-90590000D01*
X163867157Y-92290000D01*
X163874513Y-92364689D01*
X163896299Y-92436508D01*
X163931678Y-92502696D01*
X163979289Y-92560711D01*
X164037304Y-92608322D01*
X164103492Y-92643701D01*
X164175311Y-92665487D01*
X164250000Y-92672843D01*
X165950000Y-92672843D01*
X166024689Y-92665487D01*
X166096508Y-92643701D01*
X166162696Y-92608322D01*
X166220711Y-92560711D01*
X166268322Y-92502696D01*
X166303701Y-92436508D01*
X166325487Y-92364689D01*
X166332843Y-92290000D01*
X166332843Y-90590000D01*
X166325487Y-90515311D01*
X166303701Y-90443492D01*
X166268322Y-90377304D01*
X166220711Y-90319289D01*
X166162696Y-90271678D01*
X166096508Y-90236299D01*
X166024689Y-90214513D01*
X165950000Y-90207157D01*
X164250000Y-90207157D01*
X164175311Y-90214513D01*
X164103492Y-90236299D01*
X164037304Y-90271678D01*
X163979289Y-90319289D01*
X163931678Y-90377304D01*
X163896299Y-90443492D01*
X163874513Y-90515311D01*
X163867157Y-90590000D01*
X163454898Y-90590000D01*
X163434660Y-90565340D01*
X163247216Y-90411509D01*
X163033363Y-90297202D01*
X162801318Y-90226812D01*
X162620472Y-90209000D01*
X162499528Y-90209000D01*
X162318682Y-90226812D01*
X162086637Y-90297202D01*
X161872784Y-90411509D01*
X161685340Y-90565340D01*
X161531509Y-90752784D01*
X161417202Y-90966637D01*
X161346812Y-91198682D01*
X161323044Y-91440000D01*
X161256956Y-91440000D01*
X161233188Y-91198682D01*
X161162798Y-90966637D01*
X161048491Y-90752784D01*
X160894660Y-90565340D01*
X160707216Y-90411509D01*
X160493363Y-90297202D01*
X160261318Y-90226812D01*
X160080472Y-90209000D01*
X159959528Y-90209000D01*
X159778682Y-90226812D01*
X159546637Y-90297202D01*
X159332784Y-90411509D01*
X159145340Y-90565340D01*
X158991509Y-90752784D01*
X158877202Y-90966637D01*
X158806812Y-91198682D01*
X158783044Y-91440000D01*
X158716956Y-91440000D01*
X158693188Y-91198682D01*
X158622798Y-90966637D01*
X158508491Y-90752784D01*
X158354660Y-90565340D01*
X158167216Y-90411509D01*
X157953363Y-90297202D01*
X157721318Y-90226812D01*
X157540472Y-90209000D01*
X157419528Y-90209000D01*
X157238682Y-90226812D01*
X157006637Y-90297202D01*
X156792784Y-90411509D01*
X156605340Y-90565340D01*
X156451509Y-90752784D01*
X156337202Y-90966637D01*
X156266812Y-91198682D01*
X156243044Y-91440000D01*
X138235472Y-91440000D01*
X138153577Y-91295958D01*
X138069320Y-91115786D01*
X153704836Y-91115786D01*
X153776075Y-91313000D01*
X154813000Y-91313000D01*
X154813000Y-90276662D01*
X155067000Y-90276662D01*
X155067000Y-91313000D01*
X156103925Y-91313000D01*
X156175164Y-91115786D01*
X156088180Y-90881047D01*
X155957072Y-90667788D01*
X155786878Y-90484205D01*
X155584139Y-90337353D01*
X155356646Y-90232875D01*
X155264213Y-90204842D01*
X155067000Y-90276662D01*
X154813000Y-90276662D01*
X154615787Y-90204842D01*
X154523354Y-90232875D01*
X154295861Y-90337353D01*
X154093122Y-90484205D01*
X153922928Y-90667788D01*
X153791820Y-90881047D01*
X153704836Y-91115786D01*
X138069320Y-91115786D01*
X137325172Y-89524547D01*
X136640124Y-87692920D01*
X136451812Y-87034000D01*
X167931157Y-87034000D01*
X167931157Y-88734000D01*
X167938513Y-88808689D01*
X167960299Y-88880508D01*
X167995678Y-88946696D01*
X168043289Y-89004711D01*
X168101304Y-89052322D01*
X168167492Y-89087701D01*
X168239311Y-89109487D01*
X168314000Y-89116843D01*
X170014000Y-89116843D01*
X170088689Y-89109487D01*
X170160508Y-89087701D01*
X170226696Y-89052322D01*
X170284711Y-89004711D01*
X170332322Y-88946696D01*
X170367701Y-88880508D01*
X170389487Y-88808689D01*
X170396843Y-88734000D01*
X170396843Y-87034000D01*
X170389487Y-86959311D01*
X170367701Y-86887492D01*
X170332322Y-86821304D01*
X170284711Y-86763289D01*
X170226696Y-86715678D01*
X170160508Y-86680299D01*
X170088689Y-86658513D01*
X170014000Y-86651157D01*
X168314000Y-86651157D01*
X168239311Y-86658513D01*
X168167492Y-86680299D01*
X168101304Y-86715678D01*
X168043289Y-86763289D01*
X167995678Y-86821304D01*
X167960299Y-86887492D01*
X167938513Y-86959311D01*
X167931157Y-87034000D01*
X136451812Y-87034000D01*
X136102764Y-85812655D01*
X136022480Y-85414213D01*
X147354842Y-85414213D01*
X147382875Y-85506646D01*
X147487353Y-85734139D01*
X147634205Y-85936878D01*
X147817788Y-86107072D01*
X148031047Y-86238180D01*
X148265786Y-86325164D01*
X148463000Y-86253925D01*
X148463000Y-85217000D01*
X148717000Y-85217000D01*
X148717000Y-86253925D01*
X148914214Y-86325164D01*
X149148953Y-86238180D01*
X149362212Y-86107072D01*
X149545795Y-85936878D01*
X149692647Y-85734139D01*
X149797125Y-85506646D01*
X149825158Y-85414213D01*
X149753338Y-85217000D01*
X148717000Y-85217000D01*
X148463000Y-85217000D01*
X147426662Y-85217000D01*
X147354842Y-85414213D01*
X136022480Y-85414213D01*
X135891824Y-84765787D01*
X147354842Y-84765787D01*
X147426662Y-84963000D01*
X148463000Y-84963000D01*
X148463000Y-83926075D01*
X148717000Y-83926075D01*
X148717000Y-84963000D01*
X149753338Y-84963000D01*
X149825158Y-84765787D01*
X149797125Y-84673354D01*
X149692647Y-84445861D01*
X149545795Y-84243122D01*
X149362212Y-84072928D01*
X149148953Y-83941820D01*
X148914214Y-83854836D01*
X148717000Y-83926075D01*
X148463000Y-83926075D01*
X148265786Y-83854836D01*
X148031047Y-83941820D01*
X147817788Y-84072928D01*
X147634205Y-84243122D01*
X147487353Y-84445861D01*
X147382875Y-84673354D01*
X147354842Y-84765787D01*
X135891824Y-84765787D01*
X135716491Y-83895641D01*
X135555189Y-82550000D01*
X147353044Y-82550000D01*
X147376812Y-82791318D01*
X147447202Y-83023363D01*
X147561509Y-83237216D01*
X147715340Y-83424660D01*
X147902784Y-83578491D01*
X148116637Y-83692798D01*
X148348682Y-83763188D01*
X148529528Y-83781000D01*
X148650472Y-83781000D01*
X148831318Y-83763188D01*
X149063363Y-83692798D01*
X149277216Y-83578491D01*
X149464660Y-83424660D01*
X149618491Y-83237216D01*
X149732798Y-83023363D01*
X149803188Y-82791318D01*
X149826956Y-82550000D01*
X149803188Y-82308682D01*
X149732798Y-82076637D01*
X149618491Y-81862784D01*
X149464660Y-81675340D01*
X149277216Y-81521509D01*
X149063363Y-81407202D01*
X148831318Y-81336812D01*
X148650472Y-81319000D01*
X148529528Y-81319000D01*
X148348682Y-81336812D01*
X148116637Y-81407202D01*
X147902784Y-81521509D01*
X147715340Y-81675340D01*
X147561509Y-81862784D01*
X147447202Y-82076637D01*
X147376812Y-82308682D01*
X147353044Y-82550000D01*
X135555189Y-82550000D01*
X135483746Y-81953997D01*
X135406000Y-80000000D01*
X135415918Y-79750718D01*
X137469000Y-79750718D01*
X137469000Y-80249282D01*
X137566265Y-80738265D01*
X137757057Y-81198878D01*
X138034044Y-81613418D01*
X138386582Y-81965956D01*
X138801122Y-82242943D01*
X139261735Y-82433735D01*
X139750718Y-82531000D01*
X140249282Y-82531000D01*
X140738265Y-82433735D01*
X141198878Y-82242943D01*
X141613418Y-81965956D01*
X141965956Y-81613418D01*
X142242943Y-81198878D01*
X142433735Y-80738265D01*
X142531000Y-80249282D01*
X142531000Y-80010000D01*
X147353044Y-80010000D01*
X147376812Y-80251318D01*
X147447202Y-80483363D01*
X147561509Y-80697216D01*
X147715340Y-80884660D01*
X147902784Y-81038491D01*
X148116637Y-81152798D01*
X148348682Y-81223188D01*
X148529528Y-81241000D01*
X148650472Y-81241000D01*
X148831318Y-81223188D01*
X149063363Y-81152798D01*
X149277216Y-81038491D01*
X149464660Y-80884660D01*
X149618491Y-80697216D01*
X149732798Y-80483363D01*
X149803188Y-80251318D01*
X149826956Y-80010000D01*
X149803188Y-79768682D01*
X149797739Y-79750718D01*
X177469000Y-79750718D01*
X177469000Y-80249282D01*
X177566265Y-80738265D01*
X177757057Y-81198878D01*
X178034044Y-81613418D01*
X178386582Y-81965956D01*
X178801122Y-82242943D01*
X179261735Y-82433735D01*
X179750718Y-82531000D01*
X180249282Y-82531000D01*
X180738265Y-82433735D01*
X181198878Y-82242943D01*
X181613418Y-81965956D01*
X181965956Y-81613418D01*
X182242943Y-81198878D01*
X182433735Y-80738265D01*
X182531000Y-80249282D01*
X182531000Y-79750718D01*
X182433735Y-79261735D01*
X182242943Y-78801122D01*
X181965956Y-78386582D01*
X181613418Y-78034044D01*
X181198878Y-77757057D01*
X180738265Y-77566265D01*
X180249282Y-77469000D01*
X179750718Y-77469000D01*
X179261735Y-77566265D01*
X178801122Y-77757057D01*
X178386582Y-78034044D01*
X178034044Y-78386582D01*
X177757057Y-78801122D01*
X177566265Y-79261735D01*
X177469000Y-79750718D01*
X149797739Y-79750718D01*
X149732798Y-79536637D01*
X149618491Y-79322784D01*
X149464660Y-79135340D01*
X149277216Y-78981509D01*
X149063363Y-78867202D01*
X148831318Y-78796812D01*
X148650472Y-78779000D01*
X148529528Y-78779000D01*
X148348682Y-78796812D01*
X148116637Y-78867202D01*
X147902784Y-78981509D01*
X147715340Y-79135340D01*
X147561509Y-79322784D01*
X147447202Y-79536637D01*
X147376812Y-79768682D01*
X147353044Y-80010000D01*
X142531000Y-80010000D01*
X142531000Y-79750718D01*
X142433735Y-79261735D01*
X142242943Y-78801122D01*
X141965956Y-78386582D01*
X141613418Y-78034044D01*
X141198878Y-77757057D01*
X140738265Y-77566265D01*
X140254310Y-77470000D01*
X147353044Y-77470000D01*
X147376812Y-77711318D01*
X147447202Y-77943363D01*
X147561509Y-78157216D01*
X147715340Y-78344660D01*
X147902784Y-78498491D01*
X148116637Y-78612798D01*
X148348682Y-78683188D01*
X148529528Y-78701000D01*
X148650472Y-78701000D01*
X148831318Y-78683188D01*
X149063363Y-78612798D01*
X149277216Y-78498491D01*
X149464660Y-78344660D01*
X149618491Y-78157216D01*
X149732798Y-77943363D01*
X149803188Y-77711318D01*
X149826956Y-77470000D01*
X149803188Y-77228682D01*
X149732798Y-76996637D01*
X149618491Y-76782784D01*
X149464660Y-76595340D01*
X149277216Y-76441509D01*
X149063363Y-76327202D01*
X148831318Y-76256812D01*
X148650472Y-76239000D01*
X148529528Y-76239000D01*
X148348682Y-76256812D01*
X148116637Y-76327202D01*
X147902784Y-76441509D01*
X147715340Y-76595340D01*
X147561509Y-76782784D01*
X147447202Y-76996637D01*
X147376812Y-77228682D01*
X147353044Y-77470000D01*
X140254310Y-77470000D01*
X140249282Y-77469000D01*
X139750718Y-77469000D01*
X139261735Y-77566265D01*
X138801122Y-77757057D01*
X138386582Y-78034044D01*
X138034044Y-78386582D01*
X137757057Y-78801122D01*
X137566265Y-79261735D01*
X137469000Y-79750718D01*
X135415918Y-79750718D01*
X135483746Y-78046003D01*
X135716491Y-76104359D01*
X136102764Y-74187345D01*
X136133442Y-74080000D01*
X147357157Y-74080000D01*
X147357157Y-75780000D01*
X147364513Y-75854689D01*
X147386299Y-75926508D01*
X147421678Y-75992696D01*
X147469289Y-76050711D01*
X147527304Y-76098322D01*
X147593492Y-76133701D01*
X147665311Y-76155487D01*
X147740000Y-76162843D01*
X149440000Y-76162843D01*
X149514689Y-76155487D01*
X149586508Y-76133701D01*
X149652696Y-76098322D01*
X149710711Y-76050711D01*
X149758322Y-75992696D01*
X149793701Y-75926508D01*
X149815487Y-75854689D01*
X149822843Y-75780000D01*
X149822843Y-74080000D01*
X149815487Y-74005311D01*
X149793701Y-73933492D01*
X149758322Y-73867304D01*
X149710711Y-73809289D01*
X149652696Y-73761678D01*
X149586508Y-73726299D01*
X149514689Y-73704513D01*
X149440000Y-73697157D01*
X147740000Y-73697157D01*
X147665311Y-73704513D01*
X147593492Y-73726299D01*
X147527304Y-73761678D01*
X147469289Y-73809289D01*
X147421678Y-73867304D01*
X147386299Y-73933492D01*
X147364513Y-74005311D01*
X147357157Y-74080000D01*
X136133442Y-74080000D01*
X136640124Y-72307080D01*
X137325172Y-70475453D01*
X138153577Y-68704042D01*
X139120103Y-67004049D01*
X140218638Y-65386220D01*
X141442238Y-63860784D01*
X142783165Y-62437385D01*
X144232943Y-61125023D01*
X145782405Y-59931995D01*
X146061142Y-59750718D01*
X157469000Y-59750718D01*
X157469000Y-60249282D01*
X157566265Y-60738265D01*
X157757057Y-61198878D01*
X158034044Y-61613418D01*
X158386582Y-61965956D01*
X158801122Y-62242943D01*
X159261735Y-62433735D01*
X159750718Y-62531000D01*
X160249282Y-62531000D01*
X160738265Y-62433735D01*
X161198878Y-62242943D01*
X161613418Y-61965956D01*
X161965956Y-61613418D01*
X162242943Y-61198878D01*
X162433735Y-60738265D01*
X162531000Y-60249282D01*
X162531000Y-59750718D01*
X162433735Y-59261735D01*
X162242943Y-58801122D01*
X161965956Y-58386582D01*
X161613418Y-58034044D01*
X161198878Y-57757057D01*
X160738265Y-57566265D01*
X160249282Y-57469000D01*
X159750718Y-57469000D01*
X159261735Y-57566265D01*
X158801122Y-57757057D01*
X158386582Y-58034044D01*
X158034044Y-58386582D01*
X157757057Y-58801122D01*
X157566265Y-59261735D01*
X157469000Y-59750718D01*
X146061142Y-59750718D01*
X147421756Y-58865843D01*
X149140630Y-57933307D01*
X150928161Y-57140285D01*
X152773046Y-56491789D01*
X154663623Y-55991920D01*
X156587938Y-55643837D01*
X158533826Y-55449742D01*
X160488983Y-55410862D01*
X162441048Y-55527441D01*
M02*
