G04 #@! TF.GenerationSoftware,KiCad,Pcbnew,(5.1.4)-1*
G04 #@! TF.CreationDate,2020-03-07T09:14:15+01:00*
G04 #@! TF.ProjectId,Encoder,456e636f-6465-4722-9e6b-696361645f70,rev?*
G04 #@! TF.SameCoordinates,Original*
G04 #@! TF.FileFunction,Legend,Top*
G04 #@! TF.FilePolarity,Positive*
%FSLAX46Y46*%
G04 Gerber Fmt 4.6, Leading zero omitted, Abs format (unit mm)*
G04 Created by KiCad (PCBNEW (5.1.4)-1) date 2020-03-07 09:14:15*
%MOMM*%
%LPD*%
G04 APERTURE LIST*
%ADD10C,0.120000*%
%ADD11C,0.150000*%
G04 APERTURE END LIST*
D10*
X167350000Y-79848000D02*
X166650000Y-79848000D01*
X166650000Y-78648000D02*
X167350000Y-78648000D01*
X166650000Y-80400000D02*
X167350000Y-80400000D01*
X167350000Y-81600000D02*
X166650000Y-81600000D01*
D11*
X157695000Y-77510000D02*
X156345000Y-77510000D01*
X157695000Y-82635000D02*
X162345000Y-82635000D01*
X157695000Y-77385000D02*
X162345000Y-77385000D01*
X157695000Y-82635000D02*
X157695000Y-82410000D01*
X162345000Y-82635000D02*
X162345000Y-82410000D01*
X162345000Y-77385000D02*
X162345000Y-77610000D01*
X157695000Y-77385000D02*
X157695000Y-77510000D01*
X164293333Y-79605142D02*
X164245714Y-79652761D01*
X164102857Y-79700380D01*
X164007619Y-79700380D01*
X163864761Y-79652761D01*
X163769523Y-79557523D01*
X163721904Y-79462285D01*
X163674285Y-79271809D01*
X163674285Y-79128952D01*
X163721904Y-78938476D01*
X163769523Y-78843238D01*
X163864761Y-78748000D01*
X164007619Y-78700380D01*
X164102857Y-78700380D01*
X164245714Y-78748000D01*
X164293333Y-78795619D01*
X165245714Y-79700380D02*
X164674285Y-79700380D01*
X164960000Y-79700380D02*
X164960000Y-78700380D01*
X164864761Y-78843238D01*
X164769523Y-78938476D01*
X164674285Y-78986095D01*
X164293333Y-81357142D02*
X164245714Y-81404761D01*
X164102857Y-81452380D01*
X164007619Y-81452380D01*
X163864761Y-81404761D01*
X163769523Y-81309523D01*
X163721904Y-81214285D01*
X163674285Y-81023809D01*
X163674285Y-80880952D01*
X163721904Y-80690476D01*
X163769523Y-80595238D01*
X163864761Y-80500000D01*
X164007619Y-80452380D01*
X164102857Y-80452380D01*
X164245714Y-80500000D01*
X164293333Y-80547619D01*
X164674285Y-80547619D02*
X164721904Y-80500000D01*
X164817142Y-80452380D01*
X165055238Y-80452380D01*
X165150476Y-80500000D01*
X165198095Y-80547619D01*
X165245714Y-80642857D01*
X165245714Y-80738095D01*
X165198095Y-80880952D01*
X164626666Y-81452380D01*
X165245714Y-81452380D01*
X159238095Y-65222380D02*
X159238095Y-64222380D01*
X159238095Y-64698571D02*
X159809523Y-64698571D01*
X159809523Y-65222380D02*
X159809523Y-64222380D01*
X160809523Y-65222380D02*
X160238095Y-65222380D01*
X160523809Y-65222380D02*
X160523809Y-64222380D01*
X160428571Y-64365238D01*
X160333333Y-64460476D01*
X160238095Y-64508095D01*
X179238095Y-75152380D02*
X179238095Y-74152380D01*
X179238095Y-74628571D02*
X179809523Y-74628571D01*
X179809523Y-75152380D02*
X179809523Y-74152380D01*
X180238095Y-74247619D02*
X180285714Y-74200000D01*
X180380952Y-74152380D01*
X180619047Y-74152380D01*
X180714285Y-74200000D01*
X180761904Y-74247619D01*
X180809523Y-74342857D01*
X180809523Y-74438095D01*
X180761904Y-74580952D01*
X180190476Y-75152380D01*
X180809523Y-75152380D01*
X159258095Y-95702380D02*
X159258095Y-94702380D01*
X159258095Y-95178571D02*
X159829523Y-95178571D01*
X159829523Y-95702380D02*
X159829523Y-94702380D01*
X160210476Y-94702380D02*
X160829523Y-94702380D01*
X160496190Y-95083333D01*
X160639047Y-95083333D01*
X160734285Y-95130952D01*
X160781904Y-95178571D01*
X160829523Y-95273809D01*
X160829523Y-95511904D01*
X160781904Y-95607142D01*
X160734285Y-95654761D01*
X160639047Y-95702380D01*
X160353333Y-95702380D01*
X160258095Y-95654761D01*
X160210476Y-95607142D01*
X139238095Y-75152380D02*
X139238095Y-74152380D01*
X139238095Y-74628571D02*
X139809523Y-74628571D01*
X139809523Y-75152380D02*
X139809523Y-74152380D01*
X140714285Y-74485714D02*
X140714285Y-75152380D01*
X140476190Y-74104761D02*
X140238095Y-74819047D01*
X140857142Y-74819047D01*
X159258095Y-75912380D02*
X159258095Y-76721904D01*
X159305714Y-76817142D01*
X159353333Y-76864761D01*
X159448571Y-76912380D01*
X159639047Y-76912380D01*
X159734285Y-76864761D01*
X159781904Y-76817142D01*
X159829523Y-76721904D01*
X159829523Y-75912380D01*
X160829523Y-76912380D02*
X160258095Y-76912380D01*
X160543809Y-76912380D02*
X160543809Y-75912380D01*
X160448571Y-76055238D01*
X160353333Y-76150476D01*
X160258095Y-76198095D01*
M02*
