G04 #@! TF.GenerationSoftware,KiCad,Pcbnew,(5.1.4)-1*
G04 #@! TF.CreationDate,2020-03-07T09:14:15+01:00*
G04 #@! TF.ProjectId,Encoder,456e636f-6465-4722-9e6b-696361645f70,rev?*
G04 #@! TF.SameCoordinates,Original*
G04 #@! TF.FileFunction,Copper,L1,Top*
G04 #@! TF.FilePolarity,Positive*
%FSLAX46Y46*%
G04 Gerber Fmt 4.6, Leading zero omitted, Abs format (unit mm)*
G04 Created by KiCad (PCBNEW (5.1.4)-1) date 2020-03-07 09:14:15*
%MOMM*%
%LPD*%
G04 APERTURE LIST*
%ADD10R,1.200000X0.750000*%
%ADD11R,1.700000X1.700000*%
%ADD12O,1.700000X1.700000*%
%ADD13R,1.500000X1.800000*%
%ADD14R,1.450000X0.450000*%
%ADD15C,0.800000*%
%ADD16C,0.250000*%
%ADD17C,0.254000*%
G04 APERTURE END LIST*
D10*
X167950000Y-79248000D03*
X166050000Y-79248000D03*
X166050000Y-81000000D03*
X167950000Y-81000000D03*
D11*
X148590000Y-74930000D03*
D12*
X148590000Y-77470000D03*
X148590000Y-80010000D03*
X148590000Y-82550000D03*
X148590000Y-85090000D03*
X154940000Y-91440000D03*
X157480000Y-91440000D03*
X160020000Y-91440000D03*
X162560000Y-91440000D03*
D11*
X165100000Y-91440000D03*
X169164000Y-87884000D03*
D13*
X159270000Y-79110000D03*
D14*
X162970000Y-78060000D03*
X162970000Y-78710000D03*
X162970000Y-79360000D03*
X162970000Y-80010000D03*
X162970000Y-80660000D03*
X162970000Y-81310000D03*
X162970000Y-81960000D03*
X157070000Y-81960000D03*
X157070000Y-81310000D03*
X157070000Y-80660000D03*
X157070000Y-80010000D03*
X157070000Y-79360000D03*
X157070000Y-78710000D03*
X157070000Y-78060000D03*
D13*
X160770000Y-79110000D03*
X160770000Y-80910000D03*
X159270000Y-80910000D03*
D15*
X169671996Y-79248004D03*
X169443986Y-81000000D03*
D16*
X169671992Y-79248000D02*
X169671996Y-79248004D01*
X167950000Y-79248000D02*
X169671992Y-79248000D01*
X166934000Y-78232000D02*
X167950000Y-79248000D01*
X165257998Y-78232000D02*
X166934000Y-78232000D01*
X162970000Y-78710000D02*
X164779998Y-78710000D01*
X164779998Y-78710000D02*
X165257998Y-78232000D01*
X167950000Y-81000000D02*
X169443986Y-81000000D01*
X165802000Y-79248000D02*
X166050000Y-79000000D01*
X165608000Y-79248000D02*
X165802000Y-79248000D01*
X162970000Y-79360000D02*
X165496000Y-79360000D01*
X165496000Y-79360000D02*
X165608000Y-79248000D01*
X151130000Y-74930000D02*
X148590000Y-74930000D01*
X157070000Y-78060000D02*
X154260000Y-78060000D01*
X154260000Y-78060000D02*
X151130000Y-74930000D01*
X150622000Y-77470000D02*
X148590000Y-77470000D01*
X157070000Y-78710000D02*
X151862000Y-78710000D01*
X151862000Y-78710000D02*
X150622000Y-77470000D01*
X151130000Y-80010000D02*
X148590000Y-80010000D01*
X157070000Y-79360000D02*
X151780000Y-79360000D01*
X151780000Y-79360000D02*
X151130000Y-80010000D01*
X153657499Y-80010000D02*
X157070000Y-80010000D01*
X148590000Y-82550000D02*
X151117499Y-82550000D01*
X151117499Y-82550000D02*
X153657499Y-80010000D01*
X154940000Y-88900000D02*
X157480000Y-91440000D01*
X149225000Y-88900000D02*
X154940000Y-88900000D01*
X146050000Y-85725000D02*
X149225000Y-88900000D01*
X146050000Y-73660000D02*
X146050000Y-85725000D01*
X163875000Y-78060000D02*
X164465000Y-77470000D01*
X162970000Y-78060000D02*
X163875000Y-78060000D01*
X164465000Y-76200000D02*
X160655000Y-72390000D01*
X160655000Y-72390000D02*
X147320000Y-72390000D01*
X164465000Y-77470000D02*
X164465000Y-76200000D01*
X147320000Y-72390000D02*
X146050000Y-73660000D01*
X160020000Y-90170000D02*
X160020000Y-91440000D01*
X154273590Y-81310000D02*
X152400000Y-83183590D01*
X157070000Y-81310000D02*
X154273590Y-81310000D01*
X152400000Y-83183590D02*
X152400000Y-85725000D01*
X152400000Y-85725000D02*
X154305000Y-87630000D01*
X154305000Y-87630000D02*
X157480000Y-87630000D01*
X157480000Y-87630000D02*
X160020000Y-90170000D01*
X162560000Y-90805000D02*
X158115000Y-86360000D01*
X155530000Y-81960000D02*
X157070000Y-81960000D01*
X162560000Y-91440000D02*
X162560000Y-90805000D01*
X158115000Y-86360000D02*
X154940000Y-86360000D01*
X154940000Y-86360000D02*
X153670000Y-85090000D01*
X153670000Y-85090000D02*
X153670000Y-83820000D01*
X153670000Y-83820000D02*
X155530000Y-81960000D01*
X169164000Y-87249000D02*
X169164000Y-87884000D01*
X162970000Y-81960000D02*
X163875000Y-81960000D01*
X163875000Y-81960000D02*
X169164000Y-87249000D01*
D17*
G36*
X162441048Y-55527441D02*
G01*
X164377680Y-55798745D01*
X166286635Y-56223056D01*
X168155845Y-56797693D01*
X169973490Y-57519023D01*
X171728079Y-58382484D01*
X173408520Y-59382618D01*
X175004188Y-60513102D01*
X176504995Y-61766789D01*
X177901451Y-63135752D01*
X179184729Y-64611336D01*
X180346715Y-66184212D01*
X181380063Y-67844435D01*
X182278239Y-69581511D01*
X183035564Y-71384455D01*
X183647252Y-73241870D01*
X184109433Y-75142011D01*
X184419188Y-77072867D01*
X184574556Y-79022228D01*
X184574556Y-80977772D01*
X184419188Y-82927133D01*
X184109433Y-84857989D01*
X183647252Y-86758130D01*
X183035564Y-88615545D01*
X182278239Y-90418489D01*
X181380063Y-92155565D01*
X180346715Y-93815788D01*
X179184729Y-95388664D01*
X177901451Y-96864248D01*
X176504995Y-98233211D01*
X175004188Y-99486898D01*
X173408520Y-100617382D01*
X171728079Y-101617516D01*
X169973490Y-102480977D01*
X168155845Y-103202307D01*
X166286635Y-103776944D01*
X164377680Y-104201255D01*
X162441048Y-104472559D01*
X160488983Y-104589138D01*
X158533826Y-104550258D01*
X156587938Y-104356163D01*
X154663623Y-104008080D01*
X152773046Y-103508211D01*
X150928161Y-102859715D01*
X149140630Y-102066693D01*
X147421756Y-101134157D01*
X145782405Y-100068005D01*
X145370325Y-99750718D01*
X157494001Y-99750718D01*
X157494001Y-100249282D01*
X157591266Y-100738265D01*
X157782058Y-101198878D01*
X158059045Y-101613418D01*
X158411583Y-101965956D01*
X158826123Y-102242943D01*
X159286736Y-102433735D01*
X159775719Y-102531000D01*
X160274283Y-102531000D01*
X160763266Y-102433735D01*
X161223879Y-102242943D01*
X161638419Y-101965956D01*
X161990957Y-101613418D01*
X162267944Y-101198878D01*
X162458736Y-100738265D01*
X162556001Y-100249282D01*
X162556001Y-99750718D01*
X162458736Y-99261735D01*
X162267944Y-98801122D01*
X161990957Y-98386582D01*
X161638419Y-98034044D01*
X161223879Y-97757057D01*
X160763266Y-97566265D01*
X160274283Y-97469000D01*
X159775719Y-97469000D01*
X159286736Y-97566265D01*
X158826123Y-97757057D01*
X158411583Y-98034044D01*
X158059045Y-98386582D01*
X157782058Y-98801122D01*
X157591266Y-99261735D01*
X157494001Y-99750718D01*
X145370325Y-99750718D01*
X144232943Y-98874977D01*
X142783165Y-97562615D01*
X141442238Y-96139216D01*
X140218638Y-94613780D01*
X139120103Y-92995951D01*
X138235472Y-91440000D01*
X153703044Y-91440000D01*
X153726812Y-91681318D01*
X153797202Y-91913363D01*
X153911509Y-92127216D01*
X154065340Y-92314660D01*
X154252784Y-92468491D01*
X154466637Y-92582798D01*
X154698682Y-92653188D01*
X154879528Y-92671000D01*
X155000472Y-92671000D01*
X155181318Y-92653188D01*
X155413363Y-92582798D01*
X155627216Y-92468491D01*
X155814660Y-92314660D01*
X155968491Y-92127216D01*
X156082798Y-91913363D01*
X156153188Y-91681318D01*
X156176956Y-91440000D01*
X156153188Y-91198682D01*
X156082798Y-90966637D01*
X155968491Y-90752784D01*
X155814660Y-90565340D01*
X155627216Y-90411509D01*
X155413363Y-90297202D01*
X155181318Y-90226812D01*
X155000472Y-90209000D01*
X154879528Y-90209000D01*
X154698682Y-90226812D01*
X154466637Y-90297202D01*
X154252784Y-90411509D01*
X154065340Y-90565340D01*
X153911509Y-90752784D01*
X153797202Y-90966637D01*
X153726812Y-91198682D01*
X153703044Y-91440000D01*
X138235472Y-91440000D01*
X138153577Y-91295958D01*
X137325172Y-89524547D01*
X136640124Y-87692920D01*
X136102764Y-85812655D01*
X135716491Y-83895641D01*
X135483746Y-81953997D01*
X135406000Y-80000000D01*
X135415918Y-79750718D01*
X137469000Y-79750718D01*
X137469000Y-80249282D01*
X137566265Y-80738265D01*
X137757057Y-81198878D01*
X138034044Y-81613418D01*
X138386582Y-81965956D01*
X138801122Y-82242943D01*
X139261735Y-82433735D01*
X139750718Y-82531000D01*
X140249282Y-82531000D01*
X140738265Y-82433735D01*
X141198878Y-82242943D01*
X141613418Y-81965956D01*
X141965956Y-81613418D01*
X142242943Y-81198878D01*
X142433735Y-80738265D01*
X142531000Y-80249282D01*
X142531000Y-79750718D01*
X142433735Y-79261735D01*
X142242943Y-78801122D01*
X141965956Y-78386582D01*
X141613418Y-78034044D01*
X141198878Y-77757057D01*
X140738265Y-77566265D01*
X140249282Y-77469000D01*
X139750718Y-77469000D01*
X139261735Y-77566265D01*
X138801122Y-77757057D01*
X138386582Y-78034044D01*
X138034044Y-78386582D01*
X137757057Y-78801122D01*
X137566265Y-79261735D01*
X137469000Y-79750718D01*
X135415918Y-79750718D01*
X135483746Y-78046003D01*
X135716491Y-76104359D01*
X136102764Y-74187345D01*
X136253473Y-73660000D01*
X145541553Y-73660000D01*
X145544000Y-73684846D01*
X145544001Y-85700144D01*
X145541553Y-85725000D01*
X145551322Y-85824192D01*
X145580255Y-85919574D01*
X145589699Y-85937242D01*
X145627242Y-86007479D01*
X145690474Y-86084527D01*
X145709781Y-86100372D01*
X148849628Y-89240220D01*
X148865473Y-89259527D01*
X148942521Y-89322759D01*
X149030425Y-89369745D01*
X149125807Y-89398678D01*
X149200146Y-89406000D01*
X149200153Y-89406000D01*
X149224999Y-89408447D01*
X149249845Y-89406000D01*
X154730409Y-89406000D01*
X156326459Y-91002051D01*
X156266812Y-91198682D01*
X156243044Y-91440000D01*
X156266812Y-91681318D01*
X156337202Y-91913363D01*
X156451509Y-92127216D01*
X156605340Y-92314660D01*
X156792784Y-92468491D01*
X157006637Y-92582798D01*
X157238682Y-92653188D01*
X157419528Y-92671000D01*
X157540472Y-92671000D01*
X157721318Y-92653188D01*
X157953363Y-92582798D01*
X158167216Y-92468491D01*
X158354660Y-92314660D01*
X158508491Y-92127216D01*
X158622798Y-91913363D01*
X158693188Y-91681318D01*
X158716956Y-91440000D01*
X158693188Y-91198682D01*
X158622798Y-90966637D01*
X158508491Y-90752784D01*
X158354660Y-90565340D01*
X158167216Y-90411509D01*
X157953363Y-90297202D01*
X157721318Y-90226812D01*
X157540472Y-90209000D01*
X157419528Y-90209000D01*
X157238682Y-90226812D01*
X157042051Y-90286459D01*
X155315376Y-88559785D01*
X155299527Y-88540473D01*
X155222479Y-88477241D01*
X155134575Y-88430255D01*
X155039193Y-88401322D01*
X154964854Y-88394000D01*
X154964846Y-88394000D01*
X154940000Y-88391553D01*
X154915154Y-88394000D01*
X149434592Y-88394000D01*
X146556000Y-85515409D01*
X146556000Y-85090000D01*
X147353044Y-85090000D01*
X147376812Y-85331318D01*
X147447202Y-85563363D01*
X147561509Y-85777216D01*
X147715340Y-85964660D01*
X147902784Y-86118491D01*
X148116637Y-86232798D01*
X148348682Y-86303188D01*
X148529528Y-86321000D01*
X148650472Y-86321000D01*
X148831318Y-86303188D01*
X149063363Y-86232798D01*
X149277216Y-86118491D01*
X149464660Y-85964660D01*
X149618491Y-85777216D01*
X149732798Y-85563363D01*
X149803188Y-85331318D01*
X149826956Y-85090000D01*
X149803188Y-84848682D01*
X149732798Y-84616637D01*
X149618491Y-84402784D01*
X149464660Y-84215340D01*
X149277216Y-84061509D01*
X149063363Y-83947202D01*
X148831318Y-83876812D01*
X148650472Y-83859000D01*
X148529528Y-83859000D01*
X148348682Y-83876812D01*
X148116637Y-83947202D01*
X147902784Y-84061509D01*
X147715340Y-84215340D01*
X147561509Y-84402784D01*
X147447202Y-84616637D01*
X147376812Y-84848682D01*
X147353044Y-85090000D01*
X146556000Y-85090000D01*
X146556000Y-73869591D01*
X147529592Y-72896000D01*
X160445409Y-72896000D01*
X163959001Y-76409593D01*
X163959000Y-77260408D01*
X163760774Y-77458635D01*
X163695000Y-77452157D01*
X162245000Y-77452157D01*
X162170311Y-77459513D01*
X162098492Y-77481299D01*
X162032304Y-77516678D01*
X161974289Y-77564289D01*
X161926678Y-77622304D01*
X161891299Y-77688492D01*
X161869513Y-77760311D01*
X161862157Y-77835000D01*
X161862157Y-78041895D01*
X161838322Y-77997304D01*
X161790711Y-77939289D01*
X161732696Y-77891678D01*
X161666508Y-77856299D01*
X161594689Y-77834513D01*
X161520000Y-77827157D01*
X158520000Y-77827157D01*
X158445311Y-77834513D01*
X158373492Y-77856299D01*
X158307304Y-77891678D01*
X158249289Y-77939289D01*
X158201678Y-77997304D01*
X158177843Y-78041895D01*
X158177843Y-77835000D01*
X158170487Y-77760311D01*
X158148701Y-77688492D01*
X158113322Y-77622304D01*
X158065711Y-77564289D01*
X158007696Y-77516678D01*
X157941508Y-77481299D01*
X157869689Y-77459513D01*
X157795000Y-77452157D01*
X156345000Y-77452157D01*
X156270311Y-77459513D01*
X156198492Y-77481299D01*
X156132304Y-77516678D01*
X156086826Y-77554000D01*
X154469592Y-77554000D01*
X151505376Y-74589785D01*
X151489527Y-74570473D01*
X151412479Y-74507241D01*
X151324575Y-74460255D01*
X151229193Y-74431322D01*
X151154854Y-74424000D01*
X151154846Y-74424000D01*
X151130000Y-74421553D01*
X151105154Y-74424000D01*
X149822843Y-74424000D01*
X149822843Y-74080000D01*
X149815487Y-74005311D01*
X149793701Y-73933492D01*
X149758322Y-73867304D01*
X149710711Y-73809289D01*
X149652696Y-73761678D01*
X149586508Y-73726299D01*
X149514689Y-73704513D01*
X149440000Y-73697157D01*
X147740000Y-73697157D01*
X147665311Y-73704513D01*
X147593492Y-73726299D01*
X147527304Y-73761678D01*
X147469289Y-73809289D01*
X147421678Y-73867304D01*
X147386299Y-73933492D01*
X147364513Y-74005311D01*
X147357157Y-74080000D01*
X147357157Y-75780000D01*
X147364513Y-75854689D01*
X147386299Y-75926508D01*
X147421678Y-75992696D01*
X147469289Y-76050711D01*
X147527304Y-76098322D01*
X147593492Y-76133701D01*
X147665311Y-76155487D01*
X147740000Y-76162843D01*
X149440000Y-76162843D01*
X149514689Y-76155487D01*
X149586508Y-76133701D01*
X149652696Y-76098322D01*
X149710711Y-76050711D01*
X149758322Y-75992696D01*
X149793701Y-75926508D01*
X149815487Y-75854689D01*
X149822843Y-75780000D01*
X149822843Y-75436000D01*
X150920409Y-75436000D01*
X153688408Y-78204000D01*
X152071592Y-78204000D01*
X150997376Y-77129785D01*
X150981527Y-77110473D01*
X150904479Y-77047241D01*
X150816575Y-77000255D01*
X150721193Y-76971322D01*
X150646854Y-76964000D01*
X150646846Y-76964000D01*
X150622000Y-76961553D01*
X150597154Y-76964000D01*
X149715353Y-76964000D01*
X149618491Y-76782784D01*
X149464660Y-76595340D01*
X149277216Y-76441509D01*
X149063363Y-76327202D01*
X148831318Y-76256812D01*
X148650472Y-76239000D01*
X148529528Y-76239000D01*
X148348682Y-76256812D01*
X148116637Y-76327202D01*
X147902784Y-76441509D01*
X147715340Y-76595340D01*
X147561509Y-76782784D01*
X147447202Y-76996637D01*
X147376812Y-77228682D01*
X147353044Y-77470000D01*
X147376812Y-77711318D01*
X147447202Y-77943363D01*
X147561509Y-78157216D01*
X147715340Y-78344660D01*
X147902784Y-78498491D01*
X148116637Y-78612798D01*
X148348682Y-78683188D01*
X148529528Y-78701000D01*
X148650472Y-78701000D01*
X148831318Y-78683188D01*
X149063363Y-78612798D01*
X149277216Y-78498491D01*
X149464660Y-78344660D01*
X149618491Y-78157216D01*
X149715353Y-77976000D01*
X150412409Y-77976000D01*
X151429485Y-78993077D01*
X151420473Y-79000473D01*
X151404629Y-79019779D01*
X150920409Y-79504000D01*
X149715353Y-79504000D01*
X149618491Y-79322784D01*
X149464660Y-79135340D01*
X149277216Y-78981509D01*
X149063363Y-78867202D01*
X148831318Y-78796812D01*
X148650472Y-78779000D01*
X148529528Y-78779000D01*
X148348682Y-78796812D01*
X148116637Y-78867202D01*
X147902784Y-78981509D01*
X147715340Y-79135340D01*
X147561509Y-79322784D01*
X147447202Y-79536637D01*
X147376812Y-79768682D01*
X147353044Y-80010000D01*
X147376812Y-80251318D01*
X147447202Y-80483363D01*
X147561509Y-80697216D01*
X147715340Y-80884660D01*
X147902784Y-81038491D01*
X148116637Y-81152798D01*
X148348682Y-81223188D01*
X148529528Y-81241000D01*
X148650472Y-81241000D01*
X148831318Y-81223188D01*
X149063363Y-81152798D01*
X149277216Y-81038491D01*
X149464660Y-80884660D01*
X149618491Y-80697216D01*
X149715353Y-80516000D01*
X151105154Y-80516000D01*
X151130000Y-80518447D01*
X151154846Y-80516000D01*
X151154854Y-80516000D01*
X151229193Y-80508678D01*
X151324575Y-80479745D01*
X151412479Y-80432759D01*
X151489527Y-80369527D01*
X151505376Y-80350215D01*
X151989592Y-79866000D01*
X153085907Y-79866000D01*
X150907908Y-82044000D01*
X149715353Y-82044000D01*
X149618491Y-81862784D01*
X149464660Y-81675340D01*
X149277216Y-81521509D01*
X149063363Y-81407202D01*
X148831318Y-81336812D01*
X148650472Y-81319000D01*
X148529528Y-81319000D01*
X148348682Y-81336812D01*
X148116637Y-81407202D01*
X147902784Y-81521509D01*
X147715340Y-81675340D01*
X147561509Y-81862784D01*
X147447202Y-82076637D01*
X147376812Y-82308682D01*
X147353044Y-82550000D01*
X147376812Y-82791318D01*
X147447202Y-83023363D01*
X147561509Y-83237216D01*
X147715340Y-83424660D01*
X147902784Y-83578491D01*
X148116637Y-83692798D01*
X148348682Y-83763188D01*
X148529528Y-83781000D01*
X148650472Y-83781000D01*
X148831318Y-83763188D01*
X149063363Y-83692798D01*
X149277216Y-83578491D01*
X149464660Y-83424660D01*
X149618491Y-83237216D01*
X149715353Y-83056000D01*
X151092653Y-83056000D01*
X151117499Y-83058447D01*
X151142345Y-83056000D01*
X151142353Y-83056000D01*
X151216692Y-83048678D01*
X151312074Y-83019745D01*
X151399978Y-82972759D01*
X151477026Y-82909527D01*
X151492875Y-82890215D01*
X153867091Y-80516000D01*
X155962157Y-80516000D01*
X155962157Y-80804000D01*
X154298435Y-80804000D01*
X154273589Y-80801553D01*
X154248743Y-80804000D01*
X154248736Y-80804000D01*
X154184284Y-80810348D01*
X154174396Y-80811322D01*
X154152197Y-80818056D01*
X154079015Y-80840255D01*
X153991111Y-80887241D01*
X153914063Y-80950473D01*
X153898218Y-80969780D01*
X152059785Y-82808214D01*
X152040473Y-82824063D01*
X151977241Y-82901111D01*
X151930255Y-82989016D01*
X151901322Y-83084398D01*
X151894000Y-83158737D01*
X151894000Y-83158744D01*
X151891553Y-83183590D01*
X151894000Y-83208436D01*
X151894001Y-85700144D01*
X151891553Y-85725000D01*
X151901322Y-85824192D01*
X151930255Y-85919574D01*
X151939699Y-85937242D01*
X151977242Y-86007479D01*
X152040474Y-86084527D01*
X152059781Y-86100372D01*
X153929628Y-87970220D01*
X153945473Y-87989527D01*
X154022521Y-88052759D01*
X154110425Y-88099745D01*
X154205807Y-88128678D01*
X154305000Y-88138448D01*
X154329854Y-88136000D01*
X157270409Y-88136000D01*
X159471677Y-90337269D01*
X159332784Y-90411509D01*
X159145340Y-90565340D01*
X158991509Y-90752784D01*
X158877202Y-90966637D01*
X158806812Y-91198682D01*
X158783044Y-91440000D01*
X158806812Y-91681318D01*
X158877202Y-91913363D01*
X158991509Y-92127216D01*
X159145340Y-92314660D01*
X159332784Y-92468491D01*
X159546637Y-92582798D01*
X159778682Y-92653188D01*
X159959528Y-92671000D01*
X160080472Y-92671000D01*
X160261318Y-92653188D01*
X160493363Y-92582798D01*
X160707216Y-92468491D01*
X160894660Y-92314660D01*
X161048491Y-92127216D01*
X161162798Y-91913363D01*
X161233188Y-91681318D01*
X161256956Y-91440000D01*
X161233188Y-91198682D01*
X161162798Y-90966637D01*
X161048491Y-90752784D01*
X160894660Y-90565340D01*
X160707216Y-90411509D01*
X160526000Y-90314647D01*
X160526000Y-90194845D01*
X160528447Y-90169999D01*
X160526000Y-90145153D01*
X160526000Y-90145146D01*
X160518678Y-90070807D01*
X160489745Y-89975425D01*
X160442759Y-89887521D01*
X160379527Y-89810473D01*
X160360220Y-89794628D01*
X157855376Y-87289785D01*
X157839527Y-87270473D01*
X157762479Y-87207241D01*
X157674575Y-87160255D01*
X157579193Y-87131322D01*
X157504854Y-87124000D01*
X157504846Y-87124000D01*
X157480000Y-87121553D01*
X157455154Y-87124000D01*
X154514592Y-87124000D01*
X152906000Y-85515409D01*
X152906000Y-83393181D01*
X154483182Y-81816000D01*
X154958408Y-81816000D01*
X153329781Y-83444628D01*
X153310474Y-83460473D01*
X153247242Y-83537521D01*
X153244251Y-83543117D01*
X153200255Y-83625426D01*
X153171322Y-83720808D01*
X153161553Y-83820000D01*
X153164001Y-83844856D01*
X153164000Y-85065153D01*
X153161553Y-85090000D01*
X153164000Y-85114846D01*
X153164000Y-85114853D01*
X153171322Y-85189192D01*
X153200255Y-85284574D01*
X153247241Y-85372479D01*
X153310473Y-85449527D01*
X153329785Y-85465376D01*
X154564628Y-86700220D01*
X154580473Y-86719527D01*
X154657521Y-86782759D01*
X154729633Y-86821304D01*
X154745425Y-86829745D01*
X154840806Y-86858678D01*
X154850694Y-86859652D01*
X154915146Y-86866000D01*
X154915153Y-86866000D01*
X154939999Y-86868447D01*
X154964845Y-86866000D01*
X157905409Y-86866000D01*
X161649013Y-90609605D01*
X161531509Y-90752784D01*
X161417202Y-90966637D01*
X161346812Y-91198682D01*
X161323044Y-91440000D01*
X161346812Y-91681318D01*
X161417202Y-91913363D01*
X161531509Y-92127216D01*
X161685340Y-92314660D01*
X161872784Y-92468491D01*
X162086637Y-92582798D01*
X162318682Y-92653188D01*
X162499528Y-92671000D01*
X162620472Y-92671000D01*
X162801318Y-92653188D01*
X163033363Y-92582798D01*
X163247216Y-92468491D01*
X163434660Y-92314660D01*
X163454897Y-92290000D01*
X163820934Y-92290000D01*
X163829178Y-92373707D01*
X163853595Y-92454196D01*
X163893245Y-92528376D01*
X163946605Y-92593395D01*
X164011624Y-92646755D01*
X164085804Y-92686405D01*
X164166293Y-92710822D01*
X164250000Y-92719066D01*
X164970250Y-92717000D01*
X165077000Y-92610250D01*
X165077000Y-91463000D01*
X165123000Y-91463000D01*
X165123000Y-92610250D01*
X165229750Y-92717000D01*
X165950000Y-92719066D01*
X166033707Y-92710822D01*
X166114196Y-92686405D01*
X166188376Y-92646755D01*
X166253395Y-92593395D01*
X166306755Y-92528376D01*
X166346405Y-92454196D01*
X166370822Y-92373707D01*
X166379066Y-92290000D01*
X166377000Y-91569750D01*
X166270250Y-91463000D01*
X165123000Y-91463000D01*
X165077000Y-91463000D01*
X163929750Y-91463000D01*
X163823000Y-91569750D01*
X163820934Y-92290000D01*
X163454897Y-92290000D01*
X163588491Y-92127216D01*
X163702798Y-91913363D01*
X163773188Y-91681318D01*
X163796956Y-91440000D01*
X163773188Y-91198682D01*
X163702798Y-90966637D01*
X163588491Y-90752784D01*
X163454898Y-90590000D01*
X163820934Y-90590000D01*
X163823000Y-91310250D01*
X163929750Y-91417000D01*
X165077000Y-91417000D01*
X165077000Y-90269750D01*
X165123000Y-90269750D01*
X165123000Y-91417000D01*
X166270250Y-91417000D01*
X166377000Y-91310250D01*
X166379066Y-90590000D01*
X166370822Y-90506293D01*
X166346405Y-90425804D01*
X166306755Y-90351624D01*
X166253395Y-90286605D01*
X166188376Y-90233245D01*
X166114196Y-90193595D01*
X166033707Y-90169178D01*
X165950000Y-90160934D01*
X165229750Y-90163000D01*
X165123000Y-90269750D01*
X165077000Y-90269750D01*
X164970250Y-90163000D01*
X164250000Y-90160934D01*
X164166293Y-90169178D01*
X164085804Y-90193595D01*
X164011624Y-90233245D01*
X163946605Y-90286605D01*
X163893245Y-90351624D01*
X163853595Y-90425804D01*
X163829178Y-90506293D01*
X163820934Y-90590000D01*
X163454898Y-90590000D01*
X163434660Y-90565340D01*
X163247216Y-90411509D01*
X163033363Y-90297202D01*
X162801318Y-90226812D01*
X162686051Y-90215459D01*
X158490376Y-86019785D01*
X158474527Y-86000473D01*
X158397479Y-85937241D01*
X158309575Y-85890255D01*
X158214193Y-85861322D01*
X158139854Y-85854000D01*
X158139846Y-85854000D01*
X158115000Y-85851553D01*
X158090154Y-85854000D01*
X155149592Y-85854000D01*
X154176000Y-84880409D01*
X154176000Y-84029591D01*
X155739592Y-82466000D01*
X156086826Y-82466000D01*
X156132304Y-82503322D01*
X156198492Y-82538701D01*
X156270311Y-82560487D01*
X156345000Y-82567843D01*
X157795000Y-82567843D01*
X157869689Y-82560487D01*
X157941508Y-82538701D01*
X158007696Y-82503322D01*
X158065711Y-82455711D01*
X158113322Y-82397696D01*
X158148701Y-82331508D01*
X158170487Y-82259689D01*
X158177843Y-82185000D01*
X158177843Y-81978105D01*
X158201678Y-82022696D01*
X158249289Y-82080711D01*
X158307304Y-82128322D01*
X158373492Y-82163701D01*
X158445311Y-82185487D01*
X158520000Y-82192843D01*
X161520000Y-82192843D01*
X161594689Y-82185487D01*
X161666508Y-82163701D01*
X161732696Y-82128322D01*
X161790711Y-82080711D01*
X161838322Y-82022696D01*
X161862157Y-81978105D01*
X161862157Y-82185000D01*
X161869513Y-82259689D01*
X161891299Y-82331508D01*
X161926678Y-82397696D01*
X161974289Y-82455711D01*
X162032304Y-82503322D01*
X162098492Y-82538701D01*
X162170311Y-82560487D01*
X162245000Y-82567843D01*
X163695000Y-82567843D01*
X163760774Y-82561365D01*
X168006962Y-86807554D01*
X167995678Y-86821304D01*
X167960299Y-86887492D01*
X167938513Y-86959311D01*
X167931157Y-87034000D01*
X167931157Y-88734000D01*
X167938513Y-88808689D01*
X167960299Y-88880508D01*
X167995678Y-88946696D01*
X168043289Y-89004711D01*
X168101304Y-89052322D01*
X168167492Y-89087701D01*
X168239311Y-89109487D01*
X168314000Y-89116843D01*
X170014000Y-89116843D01*
X170088689Y-89109487D01*
X170160508Y-89087701D01*
X170226696Y-89052322D01*
X170284711Y-89004711D01*
X170332322Y-88946696D01*
X170367701Y-88880508D01*
X170389487Y-88808689D01*
X170396843Y-88734000D01*
X170396843Y-87034000D01*
X170389487Y-86959311D01*
X170367701Y-86887492D01*
X170332322Y-86821304D01*
X170284711Y-86763289D01*
X170226696Y-86715678D01*
X170160508Y-86680299D01*
X170088689Y-86658513D01*
X170014000Y-86651157D01*
X169281749Y-86651157D01*
X164250376Y-81619785D01*
X164234527Y-81600473D01*
X164157479Y-81537241D01*
X164077843Y-81494674D01*
X164077843Y-81375000D01*
X165020934Y-81375000D01*
X165029178Y-81458707D01*
X165053595Y-81539196D01*
X165093245Y-81613376D01*
X165146605Y-81678395D01*
X165211624Y-81731755D01*
X165285804Y-81771405D01*
X165366293Y-81795822D01*
X165450000Y-81804066D01*
X165920250Y-81802000D01*
X166027000Y-81695250D01*
X166027000Y-81023000D01*
X165129750Y-81023000D01*
X165023000Y-81129750D01*
X165020934Y-81375000D01*
X164077843Y-81375000D01*
X164077843Y-81085000D01*
X164070487Y-81010311D01*
X164062809Y-80985000D01*
X164070487Y-80959689D01*
X164077843Y-80885000D01*
X164077843Y-80625000D01*
X165020934Y-80625000D01*
X165023000Y-80870250D01*
X165129750Y-80977000D01*
X166027000Y-80977000D01*
X166027000Y-80304750D01*
X166073000Y-80304750D01*
X166073000Y-80977000D01*
X166093000Y-80977000D01*
X166093000Y-81023000D01*
X166073000Y-81023000D01*
X166073000Y-81695250D01*
X166179750Y-81802000D01*
X166650000Y-81804066D01*
X166733707Y-81795822D01*
X166814196Y-81771405D01*
X166888376Y-81731755D01*
X166953395Y-81678395D01*
X167006755Y-81613376D01*
X167026080Y-81577222D01*
X167031678Y-81587696D01*
X167079289Y-81645711D01*
X167137304Y-81693322D01*
X167203492Y-81728701D01*
X167275311Y-81750487D01*
X167350000Y-81757843D01*
X168550000Y-81757843D01*
X168624689Y-81750487D01*
X168696508Y-81728701D01*
X168762696Y-81693322D01*
X168820711Y-81645711D01*
X168868322Y-81587696D01*
X168888824Y-81549339D01*
X168946127Y-81606642D01*
X169074044Y-81692113D01*
X169216177Y-81750987D01*
X169367064Y-81781000D01*
X169520908Y-81781000D01*
X169671795Y-81750987D01*
X169813928Y-81692113D01*
X169941845Y-81606642D01*
X170050628Y-81497859D01*
X170136099Y-81369942D01*
X170194973Y-81227809D01*
X170224986Y-81076922D01*
X170224986Y-80923078D01*
X170194973Y-80772191D01*
X170136099Y-80630058D01*
X170050628Y-80502141D01*
X169941845Y-80393358D01*
X169813928Y-80307887D01*
X169671795Y-80249013D01*
X169520908Y-80219000D01*
X169367064Y-80219000D01*
X169216177Y-80249013D01*
X169074044Y-80307887D01*
X168946127Y-80393358D01*
X168888824Y-80450661D01*
X168868322Y-80412304D01*
X168820711Y-80354289D01*
X168762696Y-80306678D01*
X168696508Y-80271299D01*
X168624689Y-80249513D01*
X168550000Y-80242157D01*
X167350000Y-80242157D01*
X167275311Y-80249513D01*
X167203492Y-80271299D01*
X167137304Y-80306678D01*
X167079289Y-80354289D01*
X167031678Y-80412304D01*
X167026080Y-80422778D01*
X167006755Y-80386624D01*
X166953395Y-80321605D01*
X166888376Y-80268245D01*
X166814196Y-80228595D01*
X166733707Y-80204178D01*
X166650000Y-80195934D01*
X166179750Y-80198000D01*
X166073000Y-80304750D01*
X166027000Y-80304750D01*
X165920250Y-80198000D01*
X165450000Y-80195934D01*
X165366293Y-80204178D01*
X165285804Y-80228595D01*
X165211624Y-80268245D01*
X165146605Y-80321605D01*
X165093245Y-80386624D01*
X165053595Y-80460804D01*
X165029178Y-80541293D01*
X165020934Y-80625000D01*
X164077843Y-80625000D01*
X164077843Y-80435000D01*
X164076975Y-80426192D01*
X164091405Y-80399196D01*
X164115822Y-80318707D01*
X164124066Y-80235000D01*
X164122000Y-80139750D01*
X164015250Y-80033000D01*
X162993000Y-80033000D01*
X162993000Y-80052157D01*
X162947000Y-80052157D01*
X162947000Y-80033000D01*
X162927000Y-80033000D01*
X162927000Y-79987000D01*
X162947000Y-79987000D01*
X162947000Y-79967843D01*
X162993000Y-79967843D01*
X162993000Y-79987000D01*
X164015250Y-79987000D01*
X164122000Y-79880250D01*
X164122309Y-79866000D01*
X165156547Y-79866000D01*
X165179289Y-79893711D01*
X165237304Y-79941322D01*
X165303492Y-79976701D01*
X165375311Y-79998487D01*
X165450000Y-80005843D01*
X166650000Y-80005843D01*
X166724689Y-79998487D01*
X166796508Y-79976701D01*
X166862696Y-79941322D01*
X166920711Y-79893711D01*
X166968322Y-79835696D01*
X167000000Y-79776432D01*
X167031678Y-79835696D01*
X167079289Y-79893711D01*
X167137304Y-79941322D01*
X167203492Y-79976701D01*
X167275311Y-79998487D01*
X167350000Y-80005843D01*
X168550000Y-80005843D01*
X168624689Y-79998487D01*
X168696508Y-79976701D01*
X168762696Y-79941322D01*
X168820711Y-79893711D01*
X168868322Y-79835696D01*
X168903701Y-79769508D01*
X168908405Y-79754000D01*
X169073491Y-79754000D01*
X169174137Y-79854646D01*
X169302054Y-79940117D01*
X169444187Y-79998991D01*
X169595074Y-80029004D01*
X169748918Y-80029004D01*
X169899805Y-79998991D01*
X170041938Y-79940117D01*
X170169855Y-79854646D01*
X170273783Y-79750718D01*
X177469000Y-79750718D01*
X177469000Y-80249282D01*
X177566265Y-80738265D01*
X177757057Y-81198878D01*
X178034044Y-81613418D01*
X178386582Y-81965956D01*
X178801122Y-82242943D01*
X179261735Y-82433735D01*
X179750718Y-82531000D01*
X180249282Y-82531000D01*
X180738265Y-82433735D01*
X181198878Y-82242943D01*
X181613418Y-81965956D01*
X181965956Y-81613418D01*
X182242943Y-81198878D01*
X182433735Y-80738265D01*
X182531000Y-80249282D01*
X182531000Y-79750718D01*
X182433735Y-79261735D01*
X182242943Y-78801122D01*
X181965956Y-78386582D01*
X181613418Y-78034044D01*
X181198878Y-77757057D01*
X180738265Y-77566265D01*
X180249282Y-77469000D01*
X179750718Y-77469000D01*
X179261735Y-77566265D01*
X178801122Y-77757057D01*
X178386582Y-78034044D01*
X178034044Y-78386582D01*
X177757057Y-78801122D01*
X177566265Y-79261735D01*
X177469000Y-79750718D01*
X170273783Y-79750718D01*
X170278638Y-79745863D01*
X170364109Y-79617946D01*
X170422983Y-79475813D01*
X170452996Y-79324926D01*
X170452996Y-79171082D01*
X170422983Y-79020195D01*
X170364109Y-78878062D01*
X170278638Y-78750145D01*
X170169855Y-78641362D01*
X170041938Y-78555891D01*
X169899805Y-78497017D01*
X169748918Y-78467004D01*
X169595074Y-78467004D01*
X169444187Y-78497017D01*
X169302054Y-78555891D01*
X169174137Y-78641362D01*
X169073499Y-78742000D01*
X168908405Y-78742000D01*
X168903701Y-78726492D01*
X168868322Y-78660304D01*
X168820711Y-78602289D01*
X168762696Y-78554678D01*
X168696508Y-78519299D01*
X168624689Y-78497513D01*
X168550000Y-78490157D01*
X167907749Y-78490157D01*
X167309376Y-77891785D01*
X167293527Y-77872473D01*
X167216479Y-77809241D01*
X167128575Y-77762255D01*
X167033193Y-77733322D01*
X166958854Y-77726000D01*
X166958846Y-77726000D01*
X166934000Y-77723553D01*
X166909154Y-77726000D01*
X165282843Y-77726000D01*
X165257997Y-77723553D01*
X165233151Y-77726000D01*
X165233144Y-77726000D01*
X165158805Y-77733322D01*
X165063423Y-77762255D01*
X164975519Y-77809241D01*
X164898471Y-77872473D01*
X164882626Y-77891780D01*
X164570407Y-78204000D01*
X164446591Y-78204000D01*
X164805220Y-77845372D01*
X164824527Y-77829527D01*
X164887759Y-77752479D01*
X164934745Y-77664575D01*
X164963678Y-77569193D01*
X164971000Y-77494854D01*
X164971000Y-77494847D01*
X164973447Y-77470001D01*
X164971000Y-77445155D01*
X164971000Y-76224854D01*
X164973448Y-76200000D01*
X164963678Y-76100807D01*
X164934745Y-76005425D01*
X164927941Y-75992696D01*
X164887759Y-75917521D01*
X164824527Y-75840473D01*
X164805220Y-75824628D01*
X161030376Y-72049785D01*
X161014527Y-72030473D01*
X160937479Y-71967241D01*
X160849575Y-71920255D01*
X160754193Y-71891322D01*
X160679854Y-71884000D01*
X160679846Y-71884000D01*
X160655000Y-71881553D01*
X160630154Y-71884000D01*
X147344845Y-71884000D01*
X147319999Y-71881553D01*
X147295153Y-71884000D01*
X147295146Y-71884000D01*
X147230694Y-71890348D01*
X147220806Y-71891322D01*
X147125425Y-71920255D01*
X147037521Y-71967241D01*
X146960473Y-72030473D01*
X146944628Y-72049780D01*
X145709785Y-73284624D01*
X145690473Y-73300473D01*
X145627241Y-73377521D01*
X145580255Y-73465426D01*
X145551322Y-73560808D01*
X145544000Y-73635147D01*
X145544000Y-73635154D01*
X145541553Y-73660000D01*
X136253473Y-73660000D01*
X136640124Y-72307080D01*
X137325172Y-70475453D01*
X138153577Y-68704042D01*
X139120103Y-67004049D01*
X140218638Y-65386220D01*
X141442238Y-63860784D01*
X142783165Y-62437385D01*
X144232943Y-61125023D01*
X145782405Y-59931995D01*
X146061142Y-59750718D01*
X157469000Y-59750718D01*
X157469000Y-60249282D01*
X157566265Y-60738265D01*
X157757057Y-61198878D01*
X158034044Y-61613418D01*
X158386582Y-61965956D01*
X158801122Y-62242943D01*
X159261735Y-62433735D01*
X159750718Y-62531000D01*
X160249282Y-62531000D01*
X160738265Y-62433735D01*
X161198878Y-62242943D01*
X161613418Y-61965956D01*
X161965956Y-61613418D01*
X162242943Y-61198878D01*
X162433735Y-60738265D01*
X162531000Y-60249282D01*
X162531000Y-59750718D01*
X162433735Y-59261735D01*
X162242943Y-58801122D01*
X161965956Y-58386582D01*
X161613418Y-58034044D01*
X161198878Y-57757057D01*
X160738265Y-57566265D01*
X160249282Y-57469000D01*
X159750718Y-57469000D01*
X159261735Y-57566265D01*
X158801122Y-57757057D01*
X158386582Y-58034044D01*
X158034044Y-58386582D01*
X157757057Y-58801122D01*
X157566265Y-59261735D01*
X157469000Y-59750718D01*
X146061142Y-59750718D01*
X147421756Y-58865843D01*
X149140630Y-57933307D01*
X150928161Y-57140285D01*
X152773046Y-56491789D01*
X154663623Y-55991920D01*
X156587938Y-55643837D01*
X158533826Y-55449742D01*
X160488983Y-55410862D01*
X162441048Y-55527441D01*
X162441048Y-55527441D01*
G37*
X162441048Y-55527441D02*
X164377680Y-55798745D01*
X166286635Y-56223056D01*
X168155845Y-56797693D01*
X169973490Y-57519023D01*
X171728079Y-58382484D01*
X173408520Y-59382618D01*
X175004188Y-60513102D01*
X176504995Y-61766789D01*
X177901451Y-63135752D01*
X179184729Y-64611336D01*
X180346715Y-66184212D01*
X181380063Y-67844435D01*
X182278239Y-69581511D01*
X183035564Y-71384455D01*
X183647252Y-73241870D01*
X184109433Y-75142011D01*
X184419188Y-77072867D01*
X184574556Y-79022228D01*
X184574556Y-80977772D01*
X184419188Y-82927133D01*
X184109433Y-84857989D01*
X183647252Y-86758130D01*
X183035564Y-88615545D01*
X182278239Y-90418489D01*
X181380063Y-92155565D01*
X180346715Y-93815788D01*
X179184729Y-95388664D01*
X177901451Y-96864248D01*
X176504995Y-98233211D01*
X175004188Y-99486898D01*
X173408520Y-100617382D01*
X171728079Y-101617516D01*
X169973490Y-102480977D01*
X168155845Y-103202307D01*
X166286635Y-103776944D01*
X164377680Y-104201255D01*
X162441048Y-104472559D01*
X160488983Y-104589138D01*
X158533826Y-104550258D01*
X156587938Y-104356163D01*
X154663623Y-104008080D01*
X152773046Y-103508211D01*
X150928161Y-102859715D01*
X149140630Y-102066693D01*
X147421756Y-101134157D01*
X145782405Y-100068005D01*
X145370325Y-99750718D01*
X157494001Y-99750718D01*
X157494001Y-100249282D01*
X157591266Y-100738265D01*
X157782058Y-101198878D01*
X158059045Y-101613418D01*
X158411583Y-101965956D01*
X158826123Y-102242943D01*
X159286736Y-102433735D01*
X159775719Y-102531000D01*
X160274283Y-102531000D01*
X160763266Y-102433735D01*
X161223879Y-102242943D01*
X161638419Y-101965956D01*
X161990957Y-101613418D01*
X162267944Y-101198878D01*
X162458736Y-100738265D01*
X162556001Y-100249282D01*
X162556001Y-99750718D01*
X162458736Y-99261735D01*
X162267944Y-98801122D01*
X161990957Y-98386582D01*
X161638419Y-98034044D01*
X161223879Y-97757057D01*
X160763266Y-97566265D01*
X160274283Y-97469000D01*
X159775719Y-97469000D01*
X159286736Y-97566265D01*
X158826123Y-97757057D01*
X158411583Y-98034044D01*
X158059045Y-98386582D01*
X157782058Y-98801122D01*
X157591266Y-99261735D01*
X157494001Y-99750718D01*
X145370325Y-99750718D01*
X144232943Y-98874977D01*
X142783165Y-97562615D01*
X141442238Y-96139216D01*
X140218638Y-94613780D01*
X139120103Y-92995951D01*
X138235472Y-91440000D01*
X153703044Y-91440000D01*
X153726812Y-91681318D01*
X153797202Y-91913363D01*
X153911509Y-92127216D01*
X154065340Y-92314660D01*
X154252784Y-92468491D01*
X154466637Y-92582798D01*
X154698682Y-92653188D01*
X154879528Y-92671000D01*
X155000472Y-92671000D01*
X155181318Y-92653188D01*
X155413363Y-92582798D01*
X155627216Y-92468491D01*
X155814660Y-92314660D01*
X155968491Y-92127216D01*
X156082798Y-91913363D01*
X156153188Y-91681318D01*
X156176956Y-91440000D01*
X156153188Y-91198682D01*
X156082798Y-90966637D01*
X155968491Y-90752784D01*
X155814660Y-90565340D01*
X155627216Y-90411509D01*
X155413363Y-90297202D01*
X155181318Y-90226812D01*
X155000472Y-90209000D01*
X154879528Y-90209000D01*
X154698682Y-90226812D01*
X154466637Y-90297202D01*
X154252784Y-90411509D01*
X154065340Y-90565340D01*
X153911509Y-90752784D01*
X153797202Y-90966637D01*
X153726812Y-91198682D01*
X153703044Y-91440000D01*
X138235472Y-91440000D01*
X138153577Y-91295958D01*
X137325172Y-89524547D01*
X136640124Y-87692920D01*
X136102764Y-85812655D01*
X135716491Y-83895641D01*
X135483746Y-81953997D01*
X135406000Y-80000000D01*
X135415918Y-79750718D01*
X137469000Y-79750718D01*
X137469000Y-80249282D01*
X137566265Y-80738265D01*
X137757057Y-81198878D01*
X138034044Y-81613418D01*
X138386582Y-81965956D01*
X138801122Y-82242943D01*
X139261735Y-82433735D01*
X139750718Y-82531000D01*
X140249282Y-82531000D01*
X140738265Y-82433735D01*
X141198878Y-82242943D01*
X141613418Y-81965956D01*
X141965956Y-81613418D01*
X142242943Y-81198878D01*
X142433735Y-80738265D01*
X142531000Y-80249282D01*
X142531000Y-79750718D01*
X142433735Y-79261735D01*
X142242943Y-78801122D01*
X141965956Y-78386582D01*
X141613418Y-78034044D01*
X141198878Y-77757057D01*
X140738265Y-77566265D01*
X140249282Y-77469000D01*
X139750718Y-77469000D01*
X139261735Y-77566265D01*
X138801122Y-77757057D01*
X138386582Y-78034044D01*
X138034044Y-78386582D01*
X137757057Y-78801122D01*
X137566265Y-79261735D01*
X137469000Y-79750718D01*
X135415918Y-79750718D01*
X135483746Y-78046003D01*
X135716491Y-76104359D01*
X136102764Y-74187345D01*
X136253473Y-73660000D01*
X145541553Y-73660000D01*
X145544000Y-73684846D01*
X145544001Y-85700144D01*
X145541553Y-85725000D01*
X145551322Y-85824192D01*
X145580255Y-85919574D01*
X145589699Y-85937242D01*
X145627242Y-86007479D01*
X145690474Y-86084527D01*
X145709781Y-86100372D01*
X148849628Y-89240220D01*
X148865473Y-89259527D01*
X148942521Y-89322759D01*
X149030425Y-89369745D01*
X149125807Y-89398678D01*
X149200146Y-89406000D01*
X149200153Y-89406000D01*
X149224999Y-89408447D01*
X149249845Y-89406000D01*
X154730409Y-89406000D01*
X156326459Y-91002051D01*
X156266812Y-91198682D01*
X156243044Y-91440000D01*
X156266812Y-91681318D01*
X156337202Y-91913363D01*
X156451509Y-92127216D01*
X156605340Y-92314660D01*
X156792784Y-92468491D01*
X157006637Y-92582798D01*
X157238682Y-92653188D01*
X157419528Y-92671000D01*
X157540472Y-92671000D01*
X157721318Y-92653188D01*
X157953363Y-92582798D01*
X158167216Y-92468491D01*
X158354660Y-92314660D01*
X158508491Y-92127216D01*
X158622798Y-91913363D01*
X158693188Y-91681318D01*
X158716956Y-91440000D01*
X158693188Y-91198682D01*
X158622798Y-90966637D01*
X158508491Y-90752784D01*
X158354660Y-90565340D01*
X158167216Y-90411509D01*
X157953363Y-90297202D01*
X157721318Y-90226812D01*
X157540472Y-90209000D01*
X157419528Y-90209000D01*
X157238682Y-90226812D01*
X157042051Y-90286459D01*
X155315376Y-88559785D01*
X155299527Y-88540473D01*
X155222479Y-88477241D01*
X155134575Y-88430255D01*
X155039193Y-88401322D01*
X154964854Y-88394000D01*
X154964846Y-88394000D01*
X154940000Y-88391553D01*
X154915154Y-88394000D01*
X149434592Y-88394000D01*
X146556000Y-85515409D01*
X146556000Y-85090000D01*
X147353044Y-85090000D01*
X147376812Y-85331318D01*
X147447202Y-85563363D01*
X147561509Y-85777216D01*
X147715340Y-85964660D01*
X147902784Y-86118491D01*
X148116637Y-86232798D01*
X148348682Y-86303188D01*
X148529528Y-86321000D01*
X148650472Y-86321000D01*
X148831318Y-86303188D01*
X149063363Y-86232798D01*
X149277216Y-86118491D01*
X149464660Y-85964660D01*
X149618491Y-85777216D01*
X149732798Y-85563363D01*
X149803188Y-85331318D01*
X149826956Y-85090000D01*
X149803188Y-84848682D01*
X149732798Y-84616637D01*
X149618491Y-84402784D01*
X149464660Y-84215340D01*
X149277216Y-84061509D01*
X149063363Y-83947202D01*
X148831318Y-83876812D01*
X148650472Y-83859000D01*
X148529528Y-83859000D01*
X148348682Y-83876812D01*
X148116637Y-83947202D01*
X147902784Y-84061509D01*
X147715340Y-84215340D01*
X147561509Y-84402784D01*
X147447202Y-84616637D01*
X147376812Y-84848682D01*
X147353044Y-85090000D01*
X146556000Y-85090000D01*
X146556000Y-73869591D01*
X147529592Y-72896000D01*
X160445409Y-72896000D01*
X163959001Y-76409593D01*
X163959000Y-77260408D01*
X163760774Y-77458635D01*
X163695000Y-77452157D01*
X162245000Y-77452157D01*
X162170311Y-77459513D01*
X162098492Y-77481299D01*
X162032304Y-77516678D01*
X161974289Y-77564289D01*
X161926678Y-77622304D01*
X161891299Y-77688492D01*
X161869513Y-77760311D01*
X161862157Y-77835000D01*
X161862157Y-78041895D01*
X161838322Y-77997304D01*
X161790711Y-77939289D01*
X161732696Y-77891678D01*
X161666508Y-77856299D01*
X161594689Y-77834513D01*
X161520000Y-77827157D01*
X158520000Y-77827157D01*
X158445311Y-77834513D01*
X158373492Y-77856299D01*
X158307304Y-77891678D01*
X158249289Y-77939289D01*
X158201678Y-77997304D01*
X158177843Y-78041895D01*
X158177843Y-77835000D01*
X158170487Y-77760311D01*
X158148701Y-77688492D01*
X158113322Y-77622304D01*
X158065711Y-77564289D01*
X158007696Y-77516678D01*
X157941508Y-77481299D01*
X157869689Y-77459513D01*
X157795000Y-77452157D01*
X156345000Y-77452157D01*
X156270311Y-77459513D01*
X156198492Y-77481299D01*
X156132304Y-77516678D01*
X156086826Y-77554000D01*
X154469592Y-77554000D01*
X151505376Y-74589785D01*
X151489527Y-74570473D01*
X151412479Y-74507241D01*
X151324575Y-74460255D01*
X151229193Y-74431322D01*
X151154854Y-74424000D01*
X151154846Y-74424000D01*
X151130000Y-74421553D01*
X151105154Y-74424000D01*
X149822843Y-74424000D01*
X149822843Y-74080000D01*
X149815487Y-74005311D01*
X149793701Y-73933492D01*
X149758322Y-73867304D01*
X149710711Y-73809289D01*
X149652696Y-73761678D01*
X149586508Y-73726299D01*
X149514689Y-73704513D01*
X149440000Y-73697157D01*
X147740000Y-73697157D01*
X147665311Y-73704513D01*
X147593492Y-73726299D01*
X147527304Y-73761678D01*
X147469289Y-73809289D01*
X147421678Y-73867304D01*
X147386299Y-73933492D01*
X147364513Y-74005311D01*
X147357157Y-74080000D01*
X147357157Y-75780000D01*
X147364513Y-75854689D01*
X147386299Y-75926508D01*
X147421678Y-75992696D01*
X147469289Y-76050711D01*
X147527304Y-76098322D01*
X147593492Y-76133701D01*
X147665311Y-76155487D01*
X147740000Y-76162843D01*
X149440000Y-76162843D01*
X149514689Y-76155487D01*
X149586508Y-76133701D01*
X149652696Y-76098322D01*
X149710711Y-76050711D01*
X149758322Y-75992696D01*
X149793701Y-75926508D01*
X149815487Y-75854689D01*
X149822843Y-75780000D01*
X149822843Y-75436000D01*
X150920409Y-75436000D01*
X153688408Y-78204000D01*
X152071592Y-78204000D01*
X150997376Y-77129785D01*
X150981527Y-77110473D01*
X150904479Y-77047241D01*
X150816575Y-77000255D01*
X150721193Y-76971322D01*
X150646854Y-76964000D01*
X150646846Y-76964000D01*
X150622000Y-76961553D01*
X150597154Y-76964000D01*
X149715353Y-76964000D01*
X149618491Y-76782784D01*
X149464660Y-76595340D01*
X149277216Y-76441509D01*
X149063363Y-76327202D01*
X148831318Y-76256812D01*
X148650472Y-76239000D01*
X148529528Y-76239000D01*
X148348682Y-76256812D01*
X148116637Y-76327202D01*
X147902784Y-76441509D01*
X147715340Y-76595340D01*
X147561509Y-76782784D01*
X147447202Y-76996637D01*
X147376812Y-77228682D01*
X147353044Y-77470000D01*
X147376812Y-77711318D01*
X147447202Y-77943363D01*
X147561509Y-78157216D01*
X147715340Y-78344660D01*
X147902784Y-78498491D01*
X148116637Y-78612798D01*
X148348682Y-78683188D01*
X148529528Y-78701000D01*
X148650472Y-78701000D01*
X148831318Y-78683188D01*
X149063363Y-78612798D01*
X149277216Y-78498491D01*
X149464660Y-78344660D01*
X149618491Y-78157216D01*
X149715353Y-77976000D01*
X150412409Y-77976000D01*
X151429485Y-78993077D01*
X151420473Y-79000473D01*
X151404629Y-79019779D01*
X150920409Y-79504000D01*
X149715353Y-79504000D01*
X149618491Y-79322784D01*
X149464660Y-79135340D01*
X149277216Y-78981509D01*
X149063363Y-78867202D01*
X148831318Y-78796812D01*
X148650472Y-78779000D01*
X148529528Y-78779000D01*
X148348682Y-78796812D01*
X148116637Y-78867202D01*
X147902784Y-78981509D01*
X147715340Y-79135340D01*
X147561509Y-79322784D01*
X147447202Y-79536637D01*
X147376812Y-79768682D01*
X147353044Y-80010000D01*
X147376812Y-80251318D01*
X147447202Y-80483363D01*
X147561509Y-80697216D01*
X147715340Y-80884660D01*
X147902784Y-81038491D01*
X148116637Y-81152798D01*
X148348682Y-81223188D01*
X148529528Y-81241000D01*
X148650472Y-81241000D01*
X148831318Y-81223188D01*
X149063363Y-81152798D01*
X149277216Y-81038491D01*
X149464660Y-80884660D01*
X149618491Y-80697216D01*
X149715353Y-80516000D01*
X151105154Y-80516000D01*
X151130000Y-80518447D01*
X151154846Y-80516000D01*
X151154854Y-80516000D01*
X151229193Y-80508678D01*
X151324575Y-80479745D01*
X151412479Y-80432759D01*
X151489527Y-80369527D01*
X151505376Y-80350215D01*
X151989592Y-79866000D01*
X153085907Y-79866000D01*
X150907908Y-82044000D01*
X149715353Y-82044000D01*
X149618491Y-81862784D01*
X149464660Y-81675340D01*
X149277216Y-81521509D01*
X149063363Y-81407202D01*
X148831318Y-81336812D01*
X148650472Y-81319000D01*
X148529528Y-81319000D01*
X148348682Y-81336812D01*
X148116637Y-81407202D01*
X147902784Y-81521509D01*
X147715340Y-81675340D01*
X147561509Y-81862784D01*
X147447202Y-82076637D01*
X147376812Y-82308682D01*
X147353044Y-82550000D01*
X147376812Y-82791318D01*
X147447202Y-83023363D01*
X147561509Y-83237216D01*
X147715340Y-83424660D01*
X147902784Y-83578491D01*
X148116637Y-83692798D01*
X148348682Y-83763188D01*
X148529528Y-83781000D01*
X148650472Y-83781000D01*
X148831318Y-83763188D01*
X149063363Y-83692798D01*
X149277216Y-83578491D01*
X149464660Y-83424660D01*
X149618491Y-83237216D01*
X149715353Y-83056000D01*
X151092653Y-83056000D01*
X151117499Y-83058447D01*
X151142345Y-83056000D01*
X151142353Y-83056000D01*
X151216692Y-83048678D01*
X151312074Y-83019745D01*
X151399978Y-82972759D01*
X151477026Y-82909527D01*
X151492875Y-82890215D01*
X153867091Y-80516000D01*
X155962157Y-80516000D01*
X155962157Y-80804000D01*
X154298435Y-80804000D01*
X154273589Y-80801553D01*
X154248743Y-80804000D01*
X154248736Y-80804000D01*
X154184284Y-80810348D01*
X154174396Y-80811322D01*
X154152197Y-80818056D01*
X154079015Y-80840255D01*
X153991111Y-80887241D01*
X153914063Y-80950473D01*
X153898218Y-80969780D01*
X152059785Y-82808214D01*
X152040473Y-82824063D01*
X151977241Y-82901111D01*
X151930255Y-82989016D01*
X151901322Y-83084398D01*
X151894000Y-83158737D01*
X151894000Y-83158744D01*
X151891553Y-83183590D01*
X151894000Y-83208436D01*
X151894001Y-85700144D01*
X151891553Y-85725000D01*
X151901322Y-85824192D01*
X151930255Y-85919574D01*
X151939699Y-85937242D01*
X151977242Y-86007479D01*
X152040474Y-86084527D01*
X152059781Y-86100372D01*
X153929628Y-87970220D01*
X153945473Y-87989527D01*
X154022521Y-88052759D01*
X154110425Y-88099745D01*
X154205807Y-88128678D01*
X154305000Y-88138448D01*
X154329854Y-88136000D01*
X157270409Y-88136000D01*
X159471677Y-90337269D01*
X159332784Y-90411509D01*
X159145340Y-90565340D01*
X158991509Y-90752784D01*
X158877202Y-90966637D01*
X158806812Y-91198682D01*
X158783044Y-91440000D01*
X158806812Y-91681318D01*
X158877202Y-91913363D01*
X158991509Y-92127216D01*
X159145340Y-92314660D01*
X159332784Y-92468491D01*
X159546637Y-92582798D01*
X159778682Y-92653188D01*
X159959528Y-92671000D01*
X160080472Y-92671000D01*
X160261318Y-92653188D01*
X160493363Y-92582798D01*
X160707216Y-92468491D01*
X160894660Y-92314660D01*
X161048491Y-92127216D01*
X161162798Y-91913363D01*
X161233188Y-91681318D01*
X161256956Y-91440000D01*
X161233188Y-91198682D01*
X161162798Y-90966637D01*
X161048491Y-90752784D01*
X160894660Y-90565340D01*
X160707216Y-90411509D01*
X160526000Y-90314647D01*
X160526000Y-90194845D01*
X160528447Y-90169999D01*
X160526000Y-90145153D01*
X160526000Y-90145146D01*
X160518678Y-90070807D01*
X160489745Y-89975425D01*
X160442759Y-89887521D01*
X160379527Y-89810473D01*
X160360220Y-89794628D01*
X157855376Y-87289785D01*
X157839527Y-87270473D01*
X157762479Y-87207241D01*
X157674575Y-87160255D01*
X157579193Y-87131322D01*
X157504854Y-87124000D01*
X157504846Y-87124000D01*
X157480000Y-87121553D01*
X157455154Y-87124000D01*
X154514592Y-87124000D01*
X152906000Y-85515409D01*
X152906000Y-83393181D01*
X154483182Y-81816000D01*
X154958408Y-81816000D01*
X153329781Y-83444628D01*
X153310474Y-83460473D01*
X153247242Y-83537521D01*
X153244251Y-83543117D01*
X153200255Y-83625426D01*
X153171322Y-83720808D01*
X153161553Y-83820000D01*
X153164001Y-83844856D01*
X153164000Y-85065153D01*
X153161553Y-85090000D01*
X153164000Y-85114846D01*
X153164000Y-85114853D01*
X153171322Y-85189192D01*
X153200255Y-85284574D01*
X153247241Y-85372479D01*
X153310473Y-85449527D01*
X153329785Y-85465376D01*
X154564628Y-86700220D01*
X154580473Y-86719527D01*
X154657521Y-86782759D01*
X154729633Y-86821304D01*
X154745425Y-86829745D01*
X154840806Y-86858678D01*
X154850694Y-86859652D01*
X154915146Y-86866000D01*
X154915153Y-86866000D01*
X154939999Y-86868447D01*
X154964845Y-86866000D01*
X157905409Y-86866000D01*
X161649013Y-90609605D01*
X161531509Y-90752784D01*
X161417202Y-90966637D01*
X161346812Y-91198682D01*
X161323044Y-91440000D01*
X161346812Y-91681318D01*
X161417202Y-91913363D01*
X161531509Y-92127216D01*
X161685340Y-92314660D01*
X161872784Y-92468491D01*
X162086637Y-92582798D01*
X162318682Y-92653188D01*
X162499528Y-92671000D01*
X162620472Y-92671000D01*
X162801318Y-92653188D01*
X163033363Y-92582798D01*
X163247216Y-92468491D01*
X163434660Y-92314660D01*
X163454897Y-92290000D01*
X163820934Y-92290000D01*
X163829178Y-92373707D01*
X163853595Y-92454196D01*
X163893245Y-92528376D01*
X163946605Y-92593395D01*
X164011624Y-92646755D01*
X164085804Y-92686405D01*
X164166293Y-92710822D01*
X164250000Y-92719066D01*
X164970250Y-92717000D01*
X165077000Y-92610250D01*
X165077000Y-91463000D01*
X165123000Y-91463000D01*
X165123000Y-92610250D01*
X165229750Y-92717000D01*
X165950000Y-92719066D01*
X166033707Y-92710822D01*
X166114196Y-92686405D01*
X166188376Y-92646755D01*
X166253395Y-92593395D01*
X166306755Y-92528376D01*
X166346405Y-92454196D01*
X166370822Y-92373707D01*
X166379066Y-92290000D01*
X166377000Y-91569750D01*
X166270250Y-91463000D01*
X165123000Y-91463000D01*
X165077000Y-91463000D01*
X163929750Y-91463000D01*
X163823000Y-91569750D01*
X163820934Y-92290000D01*
X163454897Y-92290000D01*
X163588491Y-92127216D01*
X163702798Y-91913363D01*
X163773188Y-91681318D01*
X163796956Y-91440000D01*
X163773188Y-91198682D01*
X163702798Y-90966637D01*
X163588491Y-90752784D01*
X163454898Y-90590000D01*
X163820934Y-90590000D01*
X163823000Y-91310250D01*
X163929750Y-91417000D01*
X165077000Y-91417000D01*
X165077000Y-90269750D01*
X165123000Y-90269750D01*
X165123000Y-91417000D01*
X166270250Y-91417000D01*
X166377000Y-91310250D01*
X166379066Y-90590000D01*
X166370822Y-90506293D01*
X166346405Y-90425804D01*
X166306755Y-90351624D01*
X166253395Y-90286605D01*
X166188376Y-90233245D01*
X166114196Y-90193595D01*
X166033707Y-90169178D01*
X165950000Y-90160934D01*
X165229750Y-90163000D01*
X165123000Y-90269750D01*
X165077000Y-90269750D01*
X164970250Y-90163000D01*
X164250000Y-90160934D01*
X164166293Y-90169178D01*
X164085804Y-90193595D01*
X164011624Y-90233245D01*
X163946605Y-90286605D01*
X163893245Y-90351624D01*
X163853595Y-90425804D01*
X163829178Y-90506293D01*
X163820934Y-90590000D01*
X163454898Y-90590000D01*
X163434660Y-90565340D01*
X163247216Y-90411509D01*
X163033363Y-90297202D01*
X162801318Y-90226812D01*
X162686051Y-90215459D01*
X158490376Y-86019785D01*
X158474527Y-86000473D01*
X158397479Y-85937241D01*
X158309575Y-85890255D01*
X158214193Y-85861322D01*
X158139854Y-85854000D01*
X158139846Y-85854000D01*
X158115000Y-85851553D01*
X158090154Y-85854000D01*
X155149592Y-85854000D01*
X154176000Y-84880409D01*
X154176000Y-84029591D01*
X155739592Y-82466000D01*
X156086826Y-82466000D01*
X156132304Y-82503322D01*
X156198492Y-82538701D01*
X156270311Y-82560487D01*
X156345000Y-82567843D01*
X157795000Y-82567843D01*
X157869689Y-82560487D01*
X157941508Y-82538701D01*
X158007696Y-82503322D01*
X158065711Y-82455711D01*
X158113322Y-82397696D01*
X158148701Y-82331508D01*
X158170487Y-82259689D01*
X158177843Y-82185000D01*
X158177843Y-81978105D01*
X158201678Y-82022696D01*
X158249289Y-82080711D01*
X158307304Y-82128322D01*
X158373492Y-82163701D01*
X158445311Y-82185487D01*
X158520000Y-82192843D01*
X161520000Y-82192843D01*
X161594689Y-82185487D01*
X161666508Y-82163701D01*
X161732696Y-82128322D01*
X161790711Y-82080711D01*
X161838322Y-82022696D01*
X161862157Y-81978105D01*
X161862157Y-82185000D01*
X161869513Y-82259689D01*
X161891299Y-82331508D01*
X161926678Y-82397696D01*
X161974289Y-82455711D01*
X162032304Y-82503322D01*
X162098492Y-82538701D01*
X162170311Y-82560487D01*
X162245000Y-82567843D01*
X163695000Y-82567843D01*
X163760774Y-82561365D01*
X168006962Y-86807554D01*
X167995678Y-86821304D01*
X167960299Y-86887492D01*
X167938513Y-86959311D01*
X167931157Y-87034000D01*
X167931157Y-88734000D01*
X167938513Y-88808689D01*
X167960299Y-88880508D01*
X167995678Y-88946696D01*
X168043289Y-89004711D01*
X168101304Y-89052322D01*
X168167492Y-89087701D01*
X168239311Y-89109487D01*
X168314000Y-89116843D01*
X170014000Y-89116843D01*
X170088689Y-89109487D01*
X170160508Y-89087701D01*
X170226696Y-89052322D01*
X170284711Y-89004711D01*
X170332322Y-88946696D01*
X170367701Y-88880508D01*
X170389487Y-88808689D01*
X170396843Y-88734000D01*
X170396843Y-87034000D01*
X170389487Y-86959311D01*
X170367701Y-86887492D01*
X170332322Y-86821304D01*
X170284711Y-86763289D01*
X170226696Y-86715678D01*
X170160508Y-86680299D01*
X170088689Y-86658513D01*
X170014000Y-86651157D01*
X169281749Y-86651157D01*
X164250376Y-81619785D01*
X164234527Y-81600473D01*
X164157479Y-81537241D01*
X164077843Y-81494674D01*
X164077843Y-81375000D01*
X165020934Y-81375000D01*
X165029178Y-81458707D01*
X165053595Y-81539196D01*
X165093245Y-81613376D01*
X165146605Y-81678395D01*
X165211624Y-81731755D01*
X165285804Y-81771405D01*
X165366293Y-81795822D01*
X165450000Y-81804066D01*
X165920250Y-81802000D01*
X166027000Y-81695250D01*
X166027000Y-81023000D01*
X165129750Y-81023000D01*
X165023000Y-81129750D01*
X165020934Y-81375000D01*
X164077843Y-81375000D01*
X164077843Y-81085000D01*
X164070487Y-81010311D01*
X164062809Y-80985000D01*
X164070487Y-80959689D01*
X164077843Y-80885000D01*
X164077843Y-80625000D01*
X165020934Y-80625000D01*
X165023000Y-80870250D01*
X165129750Y-80977000D01*
X166027000Y-80977000D01*
X166027000Y-80304750D01*
X166073000Y-80304750D01*
X166073000Y-80977000D01*
X166093000Y-80977000D01*
X166093000Y-81023000D01*
X166073000Y-81023000D01*
X166073000Y-81695250D01*
X166179750Y-81802000D01*
X166650000Y-81804066D01*
X166733707Y-81795822D01*
X166814196Y-81771405D01*
X166888376Y-81731755D01*
X166953395Y-81678395D01*
X167006755Y-81613376D01*
X167026080Y-81577222D01*
X167031678Y-81587696D01*
X167079289Y-81645711D01*
X167137304Y-81693322D01*
X167203492Y-81728701D01*
X167275311Y-81750487D01*
X167350000Y-81757843D01*
X168550000Y-81757843D01*
X168624689Y-81750487D01*
X168696508Y-81728701D01*
X168762696Y-81693322D01*
X168820711Y-81645711D01*
X168868322Y-81587696D01*
X168888824Y-81549339D01*
X168946127Y-81606642D01*
X169074044Y-81692113D01*
X169216177Y-81750987D01*
X169367064Y-81781000D01*
X169520908Y-81781000D01*
X169671795Y-81750987D01*
X169813928Y-81692113D01*
X169941845Y-81606642D01*
X170050628Y-81497859D01*
X170136099Y-81369942D01*
X170194973Y-81227809D01*
X170224986Y-81076922D01*
X170224986Y-80923078D01*
X170194973Y-80772191D01*
X170136099Y-80630058D01*
X170050628Y-80502141D01*
X169941845Y-80393358D01*
X169813928Y-80307887D01*
X169671795Y-80249013D01*
X169520908Y-80219000D01*
X169367064Y-80219000D01*
X169216177Y-80249013D01*
X169074044Y-80307887D01*
X168946127Y-80393358D01*
X168888824Y-80450661D01*
X168868322Y-80412304D01*
X168820711Y-80354289D01*
X168762696Y-80306678D01*
X168696508Y-80271299D01*
X168624689Y-80249513D01*
X168550000Y-80242157D01*
X167350000Y-80242157D01*
X167275311Y-80249513D01*
X167203492Y-80271299D01*
X167137304Y-80306678D01*
X167079289Y-80354289D01*
X167031678Y-80412304D01*
X167026080Y-80422778D01*
X167006755Y-80386624D01*
X166953395Y-80321605D01*
X166888376Y-80268245D01*
X166814196Y-80228595D01*
X166733707Y-80204178D01*
X166650000Y-80195934D01*
X166179750Y-80198000D01*
X166073000Y-80304750D01*
X166027000Y-80304750D01*
X165920250Y-80198000D01*
X165450000Y-80195934D01*
X165366293Y-80204178D01*
X165285804Y-80228595D01*
X165211624Y-80268245D01*
X165146605Y-80321605D01*
X165093245Y-80386624D01*
X165053595Y-80460804D01*
X165029178Y-80541293D01*
X165020934Y-80625000D01*
X164077843Y-80625000D01*
X164077843Y-80435000D01*
X164076975Y-80426192D01*
X164091405Y-80399196D01*
X164115822Y-80318707D01*
X164124066Y-80235000D01*
X164122000Y-80139750D01*
X164015250Y-80033000D01*
X162993000Y-80033000D01*
X162993000Y-80052157D01*
X162947000Y-80052157D01*
X162947000Y-80033000D01*
X162927000Y-80033000D01*
X162927000Y-79987000D01*
X162947000Y-79987000D01*
X162947000Y-79967843D01*
X162993000Y-79967843D01*
X162993000Y-79987000D01*
X164015250Y-79987000D01*
X164122000Y-79880250D01*
X164122309Y-79866000D01*
X165156547Y-79866000D01*
X165179289Y-79893711D01*
X165237304Y-79941322D01*
X165303492Y-79976701D01*
X165375311Y-79998487D01*
X165450000Y-80005843D01*
X166650000Y-80005843D01*
X166724689Y-79998487D01*
X166796508Y-79976701D01*
X166862696Y-79941322D01*
X166920711Y-79893711D01*
X166968322Y-79835696D01*
X167000000Y-79776432D01*
X167031678Y-79835696D01*
X167079289Y-79893711D01*
X167137304Y-79941322D01*
X167203492Y-79976701D01*
X167275311Y-79998487D01*
X167350000Y-80005843D01*
X168550000Y-80005843D01*
X168624689Y-79998487D01*
X168696508Y-79976701D01*
X168762696Y-79941322D01*
X168820711Y-79893711D01*
X168868322Y-79835696D01*
X168903701Y-79769508D01*
X168908405Y-79754000D01*
X169073491Y-79754000D01*
X169174137Y-79854646D01*
X169302054Y-79940117D01*
X169444187Y-79998991D01*
X169595074Y-80029004D01*
X169748918Y-80029004D01*
X169899805Y-79998991D01*
X170041938Y-79940117D01*
X170169855Y-79854646D01*
X170273783Y-79750718D01*
X177469000Y-79750718D01*
X177469000Y-80249282D01*
X177566265Y-80738265D01*
X177757057Y-81198878D01*
X178034044Y-81613418D01*
X178386582Y-81965956D01*
X178801122Y-82242943D01*
X179261735Y-82433735D01*
X179750718Y-82531000D01*
X180249282Y-82531000D01*
X180738265Y-82433735D01*
X181198878Y-82242943D01*
X181613418Y-81965956D01*
X181965956Y-81613418D01*
X182242943Y-81198878D01*
X182433735Y-80738265D01*
X182531000Y-80249282D01*
X182531000Y-79750718D01*
X182433735Y-79261735D01*
X182242943Y-78801122D01*
X181965956Y-78386582D01*
X181613418Y-78034044D01*
X181198878Y-77757057D01*
X180738265Y-77566265D01*
X180249282Y-77469000D01*
X179750718Y-77469000D01*
X179261735Y-77566265D01*
X178801122Y-77757057D01*
X178386582Y-78034044D01*
X178034044Y-78386582D01*
X177757057Y-78801122D01*
X177566265Y-79261735D01*
X177469000Y-79750718D01*
X170273783Y-79750718D01*
X170278638Y-79745863D01*
X170364109Y-79617946D01*
X170422983Y-79475813D01*
X170452996Y-79324926D01*
X170452996Y-79171082D01*
X170422983Y-79020195D01*
X170364109Y-78878062D01*
X170278638Y-78750145D01*
X170169855Y-78641362D01*
X170041938Y-78555891D01*
X169899805Y-78497017D01*
X169748918Y-78467004D01*
X169595074Y-78467004D01*
X169444187Y-78497017D01*
X169302054Y-78555891D01*
X169174137Y-78641362D01*
X169073499Y-78742000D01*
X168908405Y-78742000D01*
X168903701Y-78726492D01*
X168868322Y-78660304D01*
X168820711Y-78602289D01*
X168762696Y-78554678D01*
X168696508Y-78519299D01*
X168624689Y-78497513D01*
X168550000Y-78490157D01*
X167907749Y-78490157D01*
X167309376Y-77891785D01*
X167293527Y-77872473D01*
X167216479Y-77809241D01*
X167128575Y-77762255D01*
X167033193Y-77733322D01*
X166958854Y-77726000D01*
X166958846Y-77726000D01*
X166934000Y-77723553D01*
X166909154Y-77726000D01*
X165282843Y-77726000D01*
X165257997Y-77723553D01*
X165233151Y-77726000D01*
X165233144Y-77726000D01*
X165158805Y-77733322D01*
X165063423Y-77762255D01*
X164975519Y-77809241D01*
X164898471Y-77872473D01*
X164882626Y-77891780D01*
X164570407Y-78204000D01*
X164446591Y-78204000D01*
X164805220Y-77845372D01*
X164824527Y-77829527D01*
X164887759Y-77752479D01*
X164934745Y-77664575D01*
X164963678Y-77569193D01*
X164971000Y-77494854D01*
X164971000Y-77494847D01*
X164973447Y-77470001D01*
X164971000Y-77445155D01*
X164971000Y-76224854D01*
X164973448Y-76200000D01*
X164963678Y-76100807D01*
X164934745Y-76005425D01*
X164927941Y-75992696D01*
X164887759Y-75917521D01*
X164824527Y-75840473D01*
X164805220Y-75824628D01*
X161030376Y-72049785D01*
X161014527Y-72030473D01*
X160937479Y-71967241D01*
X160849575Y-71920255D01*
X160754193Y-71891322D01*
X160679854Y-71884000D01*
X160679846Y-71884000D01*
X160655000Y-71881553D01*
X160630154Y-71884000D01*
X147344845Y-71884000D01*
X147319999Y-71881553D01*
X147295153Y-71884000D01*
X147295146Y-71884000D01*
X147230694Y-71890348D01*
X147220806Y-71891322D01*
X147125425Y-71920255D01*
X147037521Y-71967241D01*
X146960473Y-72030473D01*
X146944628Y-72049780D01*
X145709785Y-73284624D01*
X145690473Y-73300473D01*
X145627241Y-73377521D01*
X145580255Y-73465426D01*
X145551322Y-73560808D01*
X145544000Y-73635147D01*
X145544000Y-73635154D01*
X145541553Y-73660000D01*
X136253473Y-73660000D01*
X136640124Y-72307080D01*
X137325172Y-70475453D01*
X138153577Y-68704042D01*
X139120103Y-67004049D01*
X140218638Y-65386220D01*
X141442238Y-63860784D01*
X142783165Y-62437385D01*
X144232943Y-61125023D01*
X145782405Y-59931995D01*
X146061142Y-59750718D01*
X157469000Y-59750718D01*
X157469000Y-60249282D01*
X157566265Y-60738265D01*
X157757057Y-61198878D01*
X158034044Y-61613418D01*
X158386582Y-61965956D01*
X158801122Y-62242943D01*
X159261735Y-62433735D01*
X159750718Y-62531000D01*
X160249282Y-62531000D01*
X160738265Y-62433735D01*
X161198878Y-62242943D01*
X161613418Y-61965956D01*
X161965956Y-61613418D01*
X162242943Y-61198878D01*
X162433735Y-60738265D01*
X162531000Y-60249282D01*
X162531000Y-59750718D01*
X162433735Y-59261735D01*
X162242943Y-58801122D01*
X161965956Y-58386582D01*
X161613418Y-58034044D01*
X161198878Y-57757057D01*
X160738265Y-57566265D01*
X160249282Y-57469000D01*
X159750718Y-57469000D01*
X159261735Y-57566265D01*
X158801122Y-57757057D01*
X158386582Y-58034044D01*
X158034044Y-58386582D01*
X157757057Y-58801122D01*
X157566265Y-59261735D01*
X157469000Y-59750718D01*
X146061142Y-59750718D01*
X147421756Y-58865843D01*
X149140630Y-57933307D01*
X150928161Y-57140285D01*
X152773046Y-56491789D01*
X154663623Y-55991920D01*
X156587938Y-55643837D01*
X158533826Y-55449742D01*
X160488983Y-55410862D01*
X162441048Y-55527441D01*
M02*
