G04 #@! TF.GenerationSoftware,KiCad,Pcbnew,(5.1.4)-1*
G04 #@! TF.CreationDate,2020-02-27T02:57:38+01:00*
G04 #@! TF.ProjectId,stm32_board,73746d33-325f-4626-9f61-72642e6b6963,rev?*
G04 #@! TF.SameCoordinates,Original*
G04 #@! TF.FileFunction,Copper,L4,Bot*
G04 #@! TF.FilePolarity,Positive*
%FSLAX46Y46*%
G04 Gerber Fmt 4.6, Leading zero omitted, Abs format (unit mm)*
G04 Created by KiCad (PCBNEW (5.1.4)-1) date 2020-02-27 02:57:38*
%MOMM*%
%LPD*%
G04 APERTURE LIST*
%ADD10C,0.100000*%
%ADD11C,0.950000*%
%ADD12O,1.700000X1.700000*%
%ADD13R,1.700000X1.700000*%
%ADD14R,2.000000X2.000000*%
%ADD15O,2.000000X2.000000*%
%ADD16C,2.000000*%
%ADD17O,1.500000X2.500000*%
%ADD18R,1.500000X2.500000*%
%ADD19R,0.750000X1.200000*%
%ADD20C,1.200000*%
%ADD21C,0.800000*%
%ADD22C,0.600000*%
%ADD23C,1.600000*%
%ADD24C,0.300000*%
%ADD25C,0.250000*%
%ADD26C,1.200000*%
G04 APERTURE END LIST*
D10*
G36*
X91990779Y-118906144D02*
G01*
X92013834Y-118909563D01*
X92036443Y-118915227D01*
X92058387Y-118923079D01*
X92079457Y-118933044D01*
X92099448Y-118945026D01*
X92118168Y-118958910D01*
X92135438Y-118974562D01*
X92151090Y-118991832D01*
X92164974Y-119010552D01*
X92176956Y-119030543D01*
X92186921Y-119051613D01*
X92194773Y-119073557D01*
X92200437Y-119096166D01*
X92203856Y-119119221D01*
X92205000Y-119142500D01*
X92205000Y-119617500D01*
X92203856Y-119640779D01*
X92200437Y-119663834D01*
X92194773Y-119686443D01*
X92186921Y-119708387D01*
X92176956Y-119729457D01*
X92164974Y-119749448D01*
X92151090Y-119768168D01*
X92135438Y-119785438D01*
X92118168Y-119801090D01*
X92099448Y-119814974D01*
X92079457Y-119826956D01*
X92058387Y-119836921D01*
X92036443Y-119844773D01*
X92013834Y-119850437D01*
X91990779Y-119853856D01*
X91967500Y-119855000D01*
X91392500Y-119855000D01*
X91369221Y-119853856D01*
X91346166Y-119850437D01*
X91323557Y-119844773D01*
X91301613Y-119836921D01*
X91280543Y-119826956D01*
X91260552Y-119814974D01*
X91241832Y-119801090D01*
X91224562Y-119785438D01*
X91208910Y-119768168D01*
X91195026Y-119749448D01*
X91183044Y-119729457D01*
X91173079Y-119708387D01*
X91165227Y-119686443D01*
X91159563Y-119663834D01*
X91156144Y-119640779D01*
X91155000Y-119617500D01*
X91155000Y-119142500D01*
X91156144Y-119119221D01*
X91159563Y-119096166D01*
X91165227Y-119073557D01*
X91173079Y-119051613D01*
X91183044Y-119030543D01*
X91195026Y-119010552D01*
X91208910Y-118991832D01*
X91224562Y-118974562D01*
X91241832Y-118958910D01*
X91260552Y-118945026D01*
X91280543Y-118933044D01*
X91301613Y-118923079D01*
X91323557Y-118915227D01*
X91346166Y-118909563D01*
X91369221Y-118906144D01*
X91392500Y-118905000D01*
X91967500Y-118905000D01*
X91990779Y-118906144D01*
X91990779Y-118906144D01*
G37*
D11*
X91680000Y-119380000D03*
D10*
G36*
X90240779Y-118906144D02*
G01*
X90263834Y-118909563D01*
X90286443Y-118915227D01*
X90308387Y-118923079D01*
X90329457Y-118933044D01*
X90349448Y-118945026D01*
X90368168Y-118958910D01*
X90385438Y-118974562D01*
X90401090Y-118991832D01*
X90414974Y-119010552D01*
X90426956Y-119030543D01*
X90436921Y-119051613D01*
X90444773Y-119073557D01*
X90450437Y-119096166D01*
X90453856Y-119119221D01*
X90455000Y-119142500D01*
X90455000Y-119617500D01*
X90453856Y-119640779D01*
X90450437Y-119663834D01*
X90444773Y-119686443D01*
X90436921Y-119708387D01*
X90426956Y-119729457D01*
X90414974Y-119749448D01*
X90401090Y-119768168D01*
X90385438Y-119785438D01*
X90368168Y-119801090D01*
X90349448Y-119814974D01*
X90329457Y-119826956D01*
X90308387Y-119836921D01*
X90286443Y-119844773D01*
X90263834Y-119850437D01*
X90240779Y-119853856D01*
X90217500Y-119855000D01*
X89642500Y-119855000D01*
X89619221Y-119853856D01*
X89596166Y-119850437D01*
X89573557Y-119844773D01*
X89551613Y-119836921D01*
X89530543Y-119826956D01*
X89510552Y-119814974D01*
X89491832Y-119801090D01*
X89474562Y-119785438D01*
X89458910Y-119768168D01*
X89445026Y-119749448D01*
X89433044Y-119729457D01*
X89423079Y-119708387D01*
X89415227Y-119686443D01*
X89409563Y-119663834D01*
X89406144Y-119640779D01*
X89405000Y-119617500D01*
X89405000Y-119142500D01*
X89406144Y-119119221D01*
X89409563Y-119096166D01*
X89415227Y-119073557D01*
X89423079Y-119051613D01*
X89433044Y-119030543D01*
X89445026Y-119010552D01*
X89458910Y-118991832D01*
X89474562Y-118974562D01*
X89491832Y-118958910D01*
X89510552Y-118945026D01*
X89530543Y-118933044D01*
X89551613Y-118923079D01*
X89573557Y-118915227D01*
X89596166Y-118909563D01*
X89619221Y-118906144D01*
X89642500Y-118905000D01*
X90217500Y-118905000D01*
X90240779Y-118906144D01*
X90240779Y-118906144D01*
G37*
D11*
X89930000Y-119380000D03*
D10*
G36*
X91990779Y-120176144D02*
G01*
X92013834Y-120179563D01*
X92036443Y-120185227D01*
X92058387Y-120193079D01*
X92079457Y-120203044D01*
X92099448Y-120215026D01*
X92118168Y-120228910D01*
X92135438Y-120244562D01*
X92151090Y-120261832D01*
X92164974Y-120280552D01*
X92176956Y-120300543D01*
X92186921Y-120321613D01*
X92194773Y-120343557D01*
X92200437Y-120366166D01*
X92203856Y-120389221D01*
X92205000Y-120412500D01*
X92205000Y-120887500D01*
X92203856Y-120910779D01*
X92200437Y-120933834D01*
X92194773Y-120956443D01*
X92186921Y-120978387D01*
X92176956Y-120999457D01*
X92164974Y-121019448D01*
X92151090Y-121038168D01*
X92135438Y-121055438D01*
X92118168Y-121071090D01*
X92099448Y-121084974D01*
X92079457Y-121096956D01*
X92058387Y-121106921D01*
X92036443Y-121114773D01*
X92013834Y-121120437D01*
X91990779Y-121123856D01*
X91967500Y-121125000D01*
X91392500Y-121125000D01*
X91369221Y-121123856D01*
X91346166Y-121120437D01*
X91323557Y-121114773D01*
X91301613Y-121106921D01*
X91280543Y-121096956D01*
X91260552Y-121084974D01*
X91241832Y-121071090D01*
X91224562Y-121055438D01*
X91208910Y-121038168D01*
X91195026Y-121019448D01*
X91183044Y-120999457D01*
X91173079Y-120978387D01*
X91165227Y-120956443D01*
X91159563Y-120933834D01*
X91156144Y-120910779D01*
X91155000Y-120887500D01*
X91155000Y-120412500D01*
X91156144Y-120389221D01*
X91159563Y-120366166D01*
X91165227Y-120343557D01*
X91173079Y-120321613D01*
X91183044Y-120300543D01*
X91195026Y-120280552D01*
X91208910Y-120261832D01*
X91224562Y-120244562D01*
X91241832Y-120228910D01*
X91260552Y-120215026D01*
X91280543Y-120203044D01*
X91301613Y-120193079D01*
X91323557Y-120185227D01*
X91346166Y-120179563D01*
X91369221Y-120176144D01*
X91392500Y-120175000D01*
X91967500Y-120175000D01*
X91990779Y-120176144D01*
X91990779Y-120176144D01*
G37*
D11*
X91680000Y-120650000D03*
D10*
G36*
X90240779Y-120176144D02*
G01*
X90263834Y-120179563D01*
X90286443Y-120185227D01*
X90308387Y-120193079D01*
X90329457Y-120203044D01*
X90349448Y-120215026D01*
X90368168Y-120228910D01*
X90385438Y-120244562D01*
X90401090Y-120261832D01*
X90414974Y-120280552D01*
X90426956Y-120300543D01*
X90436921Y-120321613D01*
X90444773Y-120343557D01*
X90450437Y-120366166D01*
X90453856Y-120389221D01*
X90455000Y-120412500D01*
X90455000Y-120887500D01*
X90453856Y-120910779D01*
X90450437Y-120933834D01*
X90444773Y-120956443D01*
X90436921Y-120978387D01*
X90426956Y-120999457D01*
X90414974Y-121019448D01*
X90401090Y-121038168D01*
X90385438Y-121055438D01*
X90368168Y-121071090D01*
X90349448Y-121084974D01*
X90329457Y-121096956D01*
X90308387Y-121106921D01*
X90286443Y-121114773D01*
X90263834Y-121120437D01*
X90240779Y-121123856D01*
X90217500Y-121125000D01*
X89642500Y-121125000D01*
X89619221Y-121123856D01*
X89596166Y-121120437D01*
X89573557Y-121114773D01*
X89551613Y-121106921D01*
X89530543Y-121096956D01*
X89510552Y-121084974D01*
X89491832Y-121071090D01*
X89474562Y-121055438D01*
X89458910Y-121038168D01*
X89445026Y-121019448D01*
X89433044Y-120999457D01*
X89423079Y-120978387D01*
X89415227Y-120956443D01*
X89409563Y-120933834D01*
X89406144Y-120910779D01*
X89405000Y-120887500D01*
X89405000Y-120412500D01*
X89406144Y-120389221D01*
X89409563Y-120366166D01*
X89415227Y-120343557D01*
X89423079Y-120321613D01*
X89433044Y-120300543D01*
X89445026Y-120280552D01*
X89458910Y-120261832D01*
X89474562Y-120244562D01*
X89491832Y-120228910D01*
X89510552Y-120215026D01*
X89530543Y-120203044D01*
X89551613Y-120193079D01*
X89573557Y-120185227D01*
X89596166Y-120179563D01*
X89619221Y-120176144D01*
X89642500Y-120175000D01*
X90217500Y-120175000D01*
X90240779Y-120176144D01*
X90240779Y-120176144D01*
G37*
D11*
X89930000Y-120650000D03*
D10*
G36*
X86825779Y-120176144D02*
G01*
X86848834Y-120179563D01*
X86871443Y-120185227D01*
X86893387Y-120193079D01*
X86914457Y-120203044D01*
X86934448Y-120215026D01*
X86953168Y-120228910D01*
X86970438Y-120244562D01*
X86986090Y-120261832D01*
X86999974Y-120280552D01*
X87011956Y-120300543D01*
X87021921Y-120321613D01*
X87029773Y-120343557D01*
X87035437Y-120366166D01*
X87038856Y-120389221D01*
X87040000Y-120412500D01*
X87040000Y-120887500D01*
X87038856Y-120910779D01*
X87035437Y-120933834D01*
X87029773Y-120956443D01*
X87021921Y-120978387D01*
X87011956Y-120999457D01*
X86999974Y-121019448D01*
X86986090Y-121038168D01*
X86970438Y-121055438D01*
X86953168Y-121071090D01*
X86934448Y-121084974D01*
X86914457Y-121096956D01*
X86893387Y-121106921D01*
X86871443Y-121114773D01*
X86848834Y-121120437D01*
X86825779Y-121123856D01*
X86802500Y-121125000D01*
X86227500Y-121125000D01*
X86204221Y-121123856D01*
X86181166Y-121120437D01*
X86158557Y-121114773D01*
X86136613Y-121106921D01*
X86115543Y-121096956D01*
X86095552Y-121084974D01*
X86076832Y-121071090D01*
X86059562Y-121055438D01*
X86043910Y-121038168D01*
X86030026Y-121019448D01*
X86018044Y-120999457D01*
X86008079Y-120978387D01*
X86000227Y-120956443D01*
X85994563Y-120933834D01*
X85991144Y-120910779D01*
X85990000Y-120887500D01*
X85990000Y-120412500D01*
X85991144Y-120389221D01*
X85994563Y-120366166D01*
X86000227Y-120343557D01*
X86008079Y-120321613D01*
X86018044Y-120300543D01*
X86030026Y-120280552D01*
X86043910Y-120261832D01*
X86059562Y-120244562D01*
X86076832Y-120228910D01*
X86095552Y-120215026D01*
X86115543Y-120203044D01*
X86136613Y-120193079D01*
X86158557Y-120185227D01*
X86181166Y-120179563D01*
X86204221Y-120176144D01*
X86227500Y-120175000D01*
X86802500Y-120175000D01*
X86825779Y-120176144D01*
X86825779Y-120176144D01*
G37*
D11*
X86515000Y-120650000D03*
D10*
G36*
X88575779Y-120176144D02*
G01*
X88598834Y-120179563D01*
X88621443Y-120185227D01*
X88643387Y-120193079D01*
X88664457Y-120203044D01*
X88684448Y-120215026D01*
X88703168Y-120228910D01*
X88720438Y-120244562D01*
X88736090Y-120261832D01*
X88749974Y-120280552D01*
X88761956Y-120300543D01*
X88771921Y-120321613D01*
X88779773Y-120343557D01*
X88785437Y-120366166D01*
X88788856Y-120389221D01*
X88790000Y-120412500D01*
X88790000Y-120887500D01*
X88788856Y-120910779D01*
X88785437Y-120933834D01*
X88779773Y-120956443D01*
X88771921Y-120978387D01*
X88761956Y-120999457D01*
X88749974Y-121019448D01*
X88736090Y-121038168D01*
X88720438Y-121055438D01*
X88703168Y-121071090D01*
X88684448Y-121084974D01*
X88664457Y-121096956D01*
X88643387Y-121106921D01*
X88621443Y-121114773D01*
X88598834Y-121120437D01*
X88575779Y-121123856D01*
X88552500Y-121125000D01*
X87977500Y-121125000D01*
X87954221Y-121123856D01*
X87931166Y-121120437D01*
X87908557Y-121114773D01*
X87886613Y-121106921D01*
X87865543Y-121096956D01*
X87845552Y-121084974D01*
X87826832Y-121071090D01*
X87809562Y-121055438D01*
X87793910Y-121038168D01*
X87780026Y-121019448D01*
X87768044Y-120999457D01*
X87758079Y-120978387D01*
X87750227Y-120956443D01*
X87744563Y-120933834D01*
X87741144Y-120910779D01*
X87740000Y-120887500D01*
X87740000Y-120412500D01*
X87741144Y-120389221D01*
X87744563Y-120366166D01*
X87750227Y-120343557D01*
X87758079Y-120321613D01*
X87768044Y-120300543D01*
X87780026Y-120280552D01*
X87793910Y-120261832D01*
X87809562Y-120244562D01*
X87826832Y-120228910D01*
X87845552Y-120215026D01*
X87865543Y-120203044D01*
X87886613Y-120193079D01*
X87908557Y-120185227D01*
X87931166Y-120179563D01*
X87954221Y-120176144D01*
X87977500Y-120175000D01*
X88552500Y-120175000D01*
X88575779Y-120176144D01*
X88575779Y-120176144D01*
G37*
D11*
X88265000Y-120650000D03*
D10*
G36*
X88575779Y-118906144D02*
G01*
X88598834Y-118909563D01*
X88621443Y-118915227D01*
X88643387Y-118923079D01*
X88664457Y-118933044D01*
X88684448Y-118945026D01*
X88703168Y-118958910D01*
X88720438Y-118974562D01*
X88736090Y-118991832D01*
X88749974Y-119010552D01*
X88761956Y-119030543D01*
X88771921Y-119051613D01*
X88779773Y-119073557D01*
X88785437Y-119096166D01*
X88788856Y-119119221D01*
X88790000Y-119142500D01*
X88790000Y-119617500D01*
X88788856Y-119640779D01*
X88785437Y-119663834D01*
X88779773Y-119686443D01*
X88771921Y-119708387D01*
X88761956Y-119729457D01*
X88749974Y-119749448D01*
X88736090Y-119768168D01*
X88720438Y-119785438D01*
X88703168Y-119801090D01*
X88684448Y-119814974D01*
X88664457Y-119826956D01*
X88643387Y-119836921D01*
X88621443Y-119844773D01*
X88598834Y-119850437D01*
X88575779Y-119853856D01*
X88552500Y-119855000D01*
X87977500Y-119855000D01*
X87954221Y-119853856D01*
X87931166Y-119850437D01*
X87908557Y-119844773D01*
X87886613Y-119836921D01*
X87865543Y-119826956D01*
X87845552Y-119814974D01*
X87826832Y-119801090D01*
X87809562Y-119785438D01*
X87793910Y-119768168D01*
X87780026Y-119749448D01*
X87768044Y-119729457D01*
X87758079Y-119708387D01*
X87750227Y-119686443D01*
X87744563Y-119663834D01*
X87741144Y-119640779D01*
X87740000Y-119617500D01*
X87740000Y-119142500D01*
X87741144Y-119119221D01*
X87744563Y-119096166D01*
X87750227Y-119073557D01*
X87758079Y-119051613D01*
X87768044Y-119030543D01*
X87780026Y-119010552D01*
X87793910Y-118991832D01*
X87809562Y-118974562D01*
X87826832Y-118958910D01*
X87845552Y-118945026D01*
X87865543Y-118933044D01*
X87886613Y-118923079D01*
X87908557Y-118915227D01*
X87931166Y-118909563D01*
X87954221Y-118906144D01*
X87977500Y-118905000D01*
X88552500Y-118905000D01*
X88575779Y-118906144D01*
X88575779Y-118906144D01*
G37*
D11*
X88265000Y-119380000D03*
D10*
G36*
X86825779Y-118906144D02*
G01*
X86848834Y-118909563D01*
X86871443Y-118915227D01*
X86893387Y-118923079D01*
X86914457Y-118933044D01*
X86934448Y-118945026D01*
X86953168Y-118958910D01*
X86970438Y-118974562D01*
X86986090Y-118991832D01*
X86999974Y-119010552D01*
X87011956Y-119030543D01*
X87021921Y-119051613D01*
X87029773Y-119073557D01*
X87035437Y-119096166D01*
X87038856Y-119119221D01*
X87040000Y-119142500D01*
X87040000Y-119617500D01*
X87038856Y-119640779D01*
X87035437Y-119663834D01*
X87029773Y-119686443D01*
X87021921Y-119708387D01*
X87011956Y-119729457D01*
X86999974Y-119749448D01*
X86986090Y-119768168D01*
X86970438Y-119785438D01*
X86953168Y-119801090D01*
X86934448Y-119814974D01*
X86914457Y-119826956D01*
X86893387Y-119836921D01*
X86871443Y-119844773D01*
X86848834Y-119850437D01*
X86825779Y-119853856D01*
X86802500Y-119855000D01*
X86227500Y-119855000D01*
X86204221Y-119853856D01*
X86181166Y-119850437D01*
X86158557Y-119844773D01*
X86136613Y-119836921D01*
X86115543Y-119826956D01*
X86095552Y-119814974D01*
X86076832Y-119801090D01*
X86059562Y-119785438D01*
X86043910Y-119768168D01*
X86030026Y-119749448D01*
X86018044Y-119729457D01*
X86008079Y-119708387D01*
X86000227Y-119686443D01*
X85994563Y-119663834D01*
X85991144Y-119640779D01*
X85990000Y-119617500D01*
X85990000Y-119142500D01*
X85991144Y-119119221D01*
X85994563Y-119096166D01*
X86000227Y-119073557D01*
X86008079Y-119051613D01*
X86018044Y-119030543D01*
X86030026Y-119010552D01*
X86043910Y-118991832D01*
X86059562Y-118974562D01*
X86076832Y-118958910D01*
X86095552Y-118945026D01*
X86115543Y-118933044D01*
X86136613Y-118923079D01*
X86158557Y-118915227D01*
X86181166Y-118909563D01*
X86204221Y-118906144D01*
X86227500Y-118905000D01*
X86802500Y-118905000D01*
X86825779Y-118906144D01*
X86825779Y-118906144D01*
G37*
D11*
X86515000Y-119380000D03*
D12*
X53340000Y-114300000D03*
X55880000Y-114300000D03*
D13*
X58420000Y-114300000D03*
X58420000Y-116840000D03*
D12*
X55880000Y-116840000D03*
X53340000Y-116840000D03*
X53340000Y-119380000D03*
X55880000Y-119380000D03*
D13*
X58420000Y-119380000D03*
X58420000Y-124460000D03*
D12*
X55880000Y-124460000D03*
X53340000Y-124460000D03*
X53340000Y-127000000D03*
X55880000Y-127000000D03*
D13*
X58420000Y-127000000D03*
X58420000Y-129540000D03*
D12*
X55880000Y-129540000D03*
X53340000Y-129540000D03*
D13*
X58420000Y-134620000D03*
D12*
X55880000Y-134620000D03*
X53340000Y-134620000D03*
X67310000Y-114300000D03*
X69850000Y-114300000D03*
D13*
X72390000Y-114300000D03*
X72390000Y-116840000D03*
D12*
X69850000Y-116840000D03*
X67310000Y-116840000D03*
X67310000Y-119380000D03*
X69850000Y-119380000D03*
D13*
X72390000Y-119380000D03*
D12*
X121920000Y-114300000D03*
X121920000Y-111760000D03*
X121920000Y-109220000D03*
X121920000Y-106680000D03*
D13*
X121920000Y-104140000D03*
X93980000Y-105410000D03*
D12*
X91440000Y-105410000D03*
X88900000Y-105410000D03*
X86360000Y-105410000D03*
X83820000Y-105410000D03*
D14*
X143510000Y-127000000D03*
D15*
X146050000Y-127000000D03*
D13*
X119380000Y-135890000D03*
D12*
X119380000Y-133350000D03*
X119380000Y-130810000D03*
X119380000Y-128270000D03*
X119380000Y-125730000D03*
X119380000Y-123190000D03*
D13*
X121920000Y-135890000D03*
D12*
X121920000Y-133350000D03*
X121920000Y-130810000D03*
X121920000Y-128270000D03*
X121920000Y-125730000D03*
X121920000Y-123190000D03*
X121920000Y-120650000D03*
D16*
X142820000Y-109220000D03*
X147320000Y-109220000D03*
X142820000Y-115720000D03*
X147320000Y-115720000D03*
D17*
X129540000Y-129540000D03*
X132080000Y-129540000D03*
D18*
X134620000Y-129540000D03*
X134620000Y-140970000D03*
D17*
X132080000Y-140970000D03*
X129540000Y-140970000D03*
X129540000Y-118110000D03*
X132080000Y-118110000D03*
D18*
X134620000Y-118110000D03*
X134620000Y-106680000D03*
D17*
X132080000Y-106680000D03*
X129540000Y-106680000D03*
D13*
X69850000Y-140335000D03*
D12*
X69850000Y-142875000D03*
X69850000Y-145415000D03*
X69850000Y-147955000D03*
X82550000Y-147955000D03*
X82550000Y-145415000D03*
X82550000Y-142875000D03*
D13*
X82550000Y-140335000D03*
X107950000Y-140335000D03*
D12*
X107950000Y-142875000D03*
X107950000Y-145415000D03*
X107950000Y-147955000D03*
X95250000Y-147955000D03*
X95250000Y-145415000D03*
X95250000Y-142875000D03*
D13*
X95250000Y-140335000D03*
X60960000Y-139700000D03*
D12*
X58420000Y-139700000D03*
X55880000Y-139700000D03*
X53340000Y-139700000D03*
D19*
X129540000Y-122870000D03*
X129540000Y-120970000D03*
D13*
X75692000Y-125984000D03*
X72136000Y-128524000D03*
D20*
X73660000Y-142875000D03*
X60960000Y-142875000D03*
X86360000Y-142875000D03*
X99060000Y-142875000D03*
D21*
X148590000Y-119380000D03*
X148590000Y-121920000D03*
X148590000Y-124460000D03*
X74930000Y-128905000D03*
X101600000Y-114935000D03*
X88265000Y-118745000D03*
X91440000Y-118745000D03*
X77470000Y-116840000D03*
X99060000Y-134620000D03*
X102870000Y-118110000D03*
X101600000Y-119380000D03*
X100330000Y-136525000D03*
X74930000Y-130810000D03*
X102616000Y-130048000D03*
X129540000Y-123952000D03*
X87630000Y-113665000D03*
X141605000Y-121920000D03*
X83820014Y-121920000D03*
X99695000Y-114935000D03*
X85725000Y-119380000D03*
X85725000Y-120650000D03*
X89535000Y-118745000D03*
X77470000Y-120650000D03*
X99060000Y-132715000D03*
X92637885Y-120577885D03*
X141060010Y-118110000D03*
X74930000Y-132715000D03*
X98552000Y-130048000D03*
X78740000Y-121920000D03*
X78740000Y-125095000D03*
X93980000Y-130175000D03*
X94614994Y-118745000D03*
X92710018Y-121920000D03*
X86360000Y-127635000D03*
X86995000Y-125730006D03*
X64770000Y-124460000D03*
X86360000Y-133985000D03*
X64770000Y-127000000D03*
X86360000Y-135164990D03*
X64770000Y-129540000D03*
X87654527Y-135276337D03*
D20*
X78740000Y-142875000D03*
X66040000Y-142875000D03*
X91440000Y-142875000D03*
X104140000Y-142875000D03*
D21*
X87884000Y-129540000D03*
D22*
X60960000Y-144780000D02*
X64135000Y-147955000D01*
X60960000Y-142875000D02*
X60960000Y-144780000D01*
D23*
X64135000Y-147955000D02*
X69850000Y-147955000D01*
D22*
X73660000Y-146050000D02*
X75565000Y-147955000D01*
X73660000Y-142875000D02*
X73660000Y-146050000D01*
D23*
X69850000Y-147955000D02*
X75565000Y-147955000D01*
X75565000Y-147955000D02*
X82550000Y-147955000D01*
D22*
X86360000Y-146050000D02*
X88265000Y-147955000D01*
X86360000Y-142875000D02*
X86360000Y-146050000D01*
D23*
X82550000Y-147955000D02*
X88265000Y-147955000D01*
X88265000Y-147955000D02*
X95250000Y-147955000D01*
D22*
X99060000Y-146050000D02*
X100965000Y-147955000D01*
X99060000Y-142875000D02*
X99060000Y-146050000D01*
D23*
X95250000Y-147955000D02*
X100965000Y-147955000D01*
X100965000Y-147955000D02*
X107950000Y-147955000D01*
X67310000Y-119380000D02*
X67310000Y-116840000D01*
X67310000Y-116840000D02*
X67310000Y-114300000D01*
X53340000Y-113030000D02*
X53340000Y-114300000D01*
X54610000Y-111760000D02*
X53340000Y-113030000D01*
X67310000Y-114300000D02*
X64770000Y-111760000D01*
X64770000Y-111760000D02*
X54610000Y-111760000D01*
X132080000Y-146050000D02*
X132080000Y-140970000D01*
X107950000Y-147955000D02*
X130175000Y-147955000D01*
X130175000Y-147955000D02*
X132080000Y-146050000D01*
D24*
X88265000Y-120650000D02*
X88265000Y-118745000D01*
X91440000Y-119140000D02*
X91680000Y-119380000D01*
X91440000Y-118745000D02*
X91440000Y-119140000D01*
X89930000Y-120650000D02*
X88265000Y-120650000D01*
D23*
X53340000Y-114300000D02*
X53340000Y-139700000D01*
X132080000Y-140970000D02*
X132080000Y-129540000D01*
X132080000Y-129540000D02*
X132080000Y-118110000D01*
X132080000Y-118110000D02*
X132080000Y-106680000D01*
X60955000Y-147955000D02*
X64135000Y-147955000D01*
X53340000Y-139700000D02*
X53340000Y-140340000D01*
X53340000Y-140340000D02*
X60955000Y-147955000D01*
D24*
X129540000Y-122870000D02*
X129540000Y-123952000D01*
D25*
X87630000Y-109220000D02*
X83820000Y-105410000D01*
X87630000Y-113665000D02*
X87630000Y-109220000D01*
X84669999Y-104560001D02*
X83820000Y-105410000D01*
X88265000Y-100965000D02*
X84669999Y-104560001D01*
X147320000Y-109220000D02*
X139065000Y-100965000D01*
X139065000Y-100965000D02*
X88265000Y-100965000D01*
X136525000Y-101600000D02*
X121920000Y-101600000D01*
X141605000Y-121920000D02*
X140335000Y-120650000D01*
X84855013Y-122954999D02*
X84220013Y-122319999D01*
X84220013Y-122319999D02*
X83820014Y-121920000D01*
X100565001Y-122954999D02*
X84855013Y-122954999D01*
X121920000Y-101600000D02*
X100565001Y-122954999D01*
X140335000Y-105410000D02*
X136525000Y-101600000D01*
X140335000Y-120650000D02*
X140335000Y-105410000D01*
D24*
X86515000Y-119380000D02*
X85725000Y-119380000D01*
X86515000Y-120650000D02*
X85725000Y-120650000D01*
X89535000Y-118985000D02*
X89930000Y-119380000D01*
X89535000Y-118745000D02*
X89535000Y-118985000D01*
X92565770Y-120650000D02*
X92637885Y-120577885D01*
X91680000Y-120650000D02*
X92565770Y-120650000D01*
X129540000Y-120970000D02*
X129540000Y-118110000D01*
D23*
X55880000Y-130500002D02*
X55880000Y-139700000D01*
X55880000Y-114300000D02*
X55880000Y-130500002D01*
D25*
X75565000Y-121920000D02*
X78740000Y-121920000D01*
X64685000Y-121920000D02*
X75565000Y-121920000D01*
X58420000Y-116840000D02*
X59605000Y-116840000D01*
X59605000Y-116840000D02*
X64685000Y-121920000D01*
X78740000Y-125095000D02*
X76835000Y-123190000D01*
X59520000Y-119380000D02*
X58420000Y-119380000D01*
X63330000Y-123190000D02*
X59520000Y-119380000D01*
X76835000Y-123190000D02*
X63330000Y-123190000D01*
X93580001Y-130574999D02*
X93980000Y-130175000D01*
X59520000Y-134620000D02*
X61875011Y-136975011D01*
X58420000Y-134620000D02*
X59520000Y-134620000D01*
X89592989Y-136975011D02*
X91440000Y-135128000D01*
X91440000Y-135128000D02*
X91440000Y-132715000D01*
X61875011Y-136975011D02*
X89592989Y-136975011D01*
X91440000Y-132715000D02*
X93580001Y-130574999D01*
X91440000Y-105410000D02*
X94614994Y-108584994D01*
X94614994Y-118179315D02*
X94614994Y-118745000D01*
X94614994Y-108584994D02*
X94614994Y-118179315D01*
X93744999Y-120885019D02*
X93110017Y-121520001D01*
X93110017Y-121520001D02*
X92710018Y-121920000D01*
X93744999Y-112794999D02*
X93744999Y-120885019D01*
X86360000Y-105410000D02*
X93744999Y-112794999D01*
X120229999Y-127420001D02*
X121920000Y-125730000D01*
X119380000Y-128270000D02*
X120229999Y-127420001D01*
X117542919Y-127635000D02*
X86925685Y-127635000D01*
X119380000Y-128270000D02*
X118177919Y-128270000D01*
X118177919Y-128270000D02*
X117542919Y-127635000D01*
X86925685Y-127635000D02*
X86360000Y-127635000D01*
X86995006Y-125730000D02*
X86995000Y-125730006D01*
X119380000Y-125730000D02*
X86995006Y-125730000D01*
X74930000Y-134620000D02*
X64770000Y-124460000D01*
X86360000Y-133985000D02*
X85725000Y-134620000D01*
X85725000Y-134620000D02*
X74930000Y-134620000D01*
X64770000Y-127000000D02*
X72934990Y-135164990D01*
X72934990Y-135164990D02*
X85794315Y-135164990D01*
X85794315Y-135164990D02*
X86360000Y-135164990D01*
X87608664Y-135276337D02*
X87654527Y-135276337D01*
X86995001Y-135890000D02*
X87608664Y-135276337D01*
X71120000Y-135890000D02*
X86995001Y-135890000D01*
X64770000Y-129540000D02*
X71120000Y-135890000D01*
D26*
X81280000Y-140335000D02*
X78740000Y-142875000D01*
X82550000Y-140335000D02*
X81280000Y-140335000D01*
X68580000Y-140335000D02*
X66040000Y-142875000D01*
X69850000Y-140335000D02*
X68580000Y-140335000D01*
X71900000Y-140335000D02*
X82550000Y-140335000D01*
X69850000Y-140335000D02*
X71900000Y-140335000D01*
X89535000Y-140335000D02*
X82550000Y-140335000D01*
X91440000Y-138430000D02*
X89535000Y-140335000D01*
X127000000Y-138430000D02*
X91440000Y-138430000D01*
X129540000Y-129540000D02*
X129540000Y-135890000D01*
X129540000Y-135890000D02*
X127000000Y-138430000D01*
X93980000Y-140335000D02*
X91440000Y-142875000D01*
X95250000Y-140335000D02*
X93980000Y-140335000D01*
X106680000Y-140335000D02*
X104140000Y-142875000D01*
X107950000Y-140335000D02*
X106680000Y-140335000D01*
X97300000Y-140335000D02*
X107950000Y-140335000D01*
X95250000Y-140335000D02*
X97300000Y-140335000D01*
X128905000Y-140335000D02*
X129540000Y-140970000D01*
X107950000Y-140335000D02*
X128905000Y-140335000D01*
D25*
X86868000Y-128524000D02*
X77724000Y-128524000D01*
X87884000Y-129540000D02*
X86868000Y-128524000D01*
X77724000Y-128524000D02*
X76708000Y-127508000D01*
X73236000Y-128524000D02*
X72136000Y-128524000D01*
X74252000Y-127508000D02*
X73236000Y-128524000D01*
X76708000Y-127508000D02*
X74252000Y-127508000D01*
M02*
