G04 #@! TF.GenerationSoftware,KiCad,Pcbnew,(5.1.4)-1*
G04 #@! TF.CreationDate,2020-02-29T10:59:18+01:00*
G04 #@! TF.ProjectId,stm32_board,73746d33-325f-4626-9f61-72642e6b6963,rev?*
G04 #@! TF.SameCoordinates,Original*
G04 #@! TF.FileFunction,Paste,Bot*
G04 #@! TF.FilePolarity,Positive*
%FSLAX46Y46*%
G04 Gerber Fmt 4.6, Leading zero omitted, Abs format (unit mm)*
G04 Created by KiCad (PCBNEW (5.1.4)-1) date 2020-02-29 10:59:18*
%MOMM*%
%LPD*%
G04 APERTURE LIST*
%ADD10C,0.100000*%
%ADD11C,0.950000*%
%ADD12R,0.750000X1.200000*%
G04 APERTURE END LIST*
D10*
G36*
X91990779Y-118906144D02*
G01*
X92013834Y-118909563D01*
X92036443Y-118915227D01*
X92058387Y-118923079D01*
X92079457Y-118933044D01*
X92099448Y-118945026D01*
X92118168Y-118958910D01*
X92135438Y-118974562D01*
X92151090Y-118991832D01*
X92164974Y-119010552D01*
X92176956Y-119030543D01*
X92186921Y-119051613D01*
X92194773Y-119073557D01*
X92200437Y-119096166D01*
X92203856Y-119119221D01*
X92205000Y-119142500D01*
X92205000Y-119617500D01*
X92203856Y-119640779D01*
X92200437Y-119663834D01*
X92194773Y-119686443D01*
X92186921Y-119708387D01*
X92176956Y-119729457D01*
X92164974Y-119749448D01*
X92151090Y-119768168D01*
X92135438Y-119785438D01*
X92118168Y-119801090D01*
X92099448Y-119814974D01*
X92079457Y-119826956D01*
X92058387Y-119836921D01*
X92036443Y-119844773D01*
X92013834Y-119850437D01*
X91990779Y-119853856D01*
X91967500Y-119855000D01*
X91392500Y-119855000D01*
X91369221Y-119853856D01*
X91346166Y-119850437D01*
X91323557Y-119844773D01*
X91301613Y-119836921D01*
X91280543Y-119826956D01*
X91260552Y-119814974D01*
X91241832Y-119801090D01*
X91224562Y-119785438D01*
X91208910Y-119768168D01*
X91195026Y-119749448D01*
X91183044Y-119729457D01*
X91173079Y-119708387D01*
X91165227Y-119686443D01*
X91159563Y-119663834D01*
X91156144Y-119640779D01*
X91155000Y-119617500D01*
X91155000Y-119142500D01*
X91156144Y-119119221D01*
X91159563Y-119096166D01*
X91165227Y-119073557D01*
X91173079Y-119051613D01*
X91183044Y-119030543D01*
X91195026Y-119010552D01*
X91208910Y-118991832D01*
X91224562Y-118974562D01*
X91241832Y-118958910D01*
X91260552Y-118945026D01*
X91280543Y-118933044D01*
X91301613Y-118923079D01*
X91323557Y-118915227D01*
X91346166Y-118909563D01*
X91369221Y-118906144D01*
X91392500Y-118905000D01*
X91967500Y-118905000D01*
X91990779Y-118906144D01*
X91990779Y-118906144D01*
G37*
D11*
X91680000Y-119380000D03*
D10*
G36*
X90240779Y-118906144D02*
G01*
X90263834Y-118909563D01*
X90286443Y-118915227D01*
X90308387Y-118923079D01*
X90329457Y-118933044D01*
X90349448Y-118945026D01*
X90368168Y-118958910D01*
X90385438Y-118974562D01*
X90401090Y-118991832D01*
X90414974Y-119010552D01*
X90426956Y-119030543D01*
X90436921Y-119051613D01*
X90444773Y-119073557D01*
X90450437Y-119096166D01*
X90453856Y-119119221D01*
X90455000Y-119142500D01*
X90455000Y-119617500D01*
X90453856Y-119640779D01*
X90450437Y-119663834D01*
X90444773Y-119686443D01*
X90436921Y-119708387D01*
X90426956Y-119729457D01*
X90414974Y-119749448D01*
X90401090Y-119768168D01*
X90385438Y-119785438D01*
X90368168Y-119801090D01*
X90349448Y-119814974D01*
X90329457Y-119826956D01*
X90308387Y-119836921D01*
X90286443Y-119844773D01*
X90263834Y-119850437D01*
X90240779Y-119853856D01*
X90217500Y-119855000D01*
X89642500Y-119855000D01*
X89619221Y-119853856D01*
X89596166Y-119850437D01*
X89573557Y-119844773D01*
X89551613Y-119836921D01*
X89530543Y-119826956D01*
X89510552Y-119814974D01*
X89491832Y-119801090D01*
X89474562Y-119785438D01*
X89458910Y-119768168D01*
X89445026Y-119749448D01*
X89433044Y-119729457D01*
X89423079Y-119708387D01*
X89415227Y-119686443D01*
X89409563Y-119663834D01*
X89406144Y-119640779D01*
X89405000Y-119617500D01*
X89405000Y-119142500D01*
X89406144Y-119119221D01*
X89409563Y-119096166D01*
X89415227Y-119073557D01*
X89423079Y-119051613D01*
X89433044Y-119030543D01*
X89445026Y-119010552D01*
X89458910Y-118991832D01*
X89474562Y-118974562D01*
X89491832Y-118958910D01*
X89510552Y-118945026D01*
X89530543Y-118933044D01*
X89551613Y-118923079D01*
X89573557Y-118915227D01*
X89596166Y-118909563D01*
X89619221Y-118906144D01*
X89642500Y-118905000D01*
X90217500Y-118905000D01*
X90240779Y-118906144D01*
X90240779Y-118906144D01*
G37*
D11*
X89930000Y-119380000D03*
D10*
G36*
X91976779Y-120430144D02*
G01*
X91999834Y-120433563D01*
X92022443Y-120439227D01*
X92044387Y-120447079D01*
X92065457Y-120457044D01*
X92085448Y-120469026D01*
X92104168Y-120482910D01*
X92121438Y-120498562D01*
X92137090Y-120515832D01*
X92150974Y-120534552D01*
X92162956Y-120554543D01*
X92172921Y-120575613D01*
X92180773Y-120597557D01*
X92186437Y-120620166D01*
X92189856Y-120643221D01*
X92191000Y-120666500D01*
X92191000Y-121141500D01*
X92189856Y-121164779D01*
X92186437Y-121187834D01*
X92180773Y-121210443D01*
X92172921Y-121232387D01*
X92162956Y-121253457D01*
X92150974Y-121273448D01*
X92137090Y-121292168D01*
X92121438Y-121309438D01*
X92104168Y-121325090D01*
X92085448Y-121338974D01*
X92065457Y-121350956D01*
X92044387Y-121360921D01*
X92022443Y-121368773D01*
X91999834Y-121374437D01*
X91976779Y-121377856D01*
X91953500Y-121379000D01*
X91378500Y-121379000D01*
X91355221Y-121377856D01*
X91332166Y-121374437D01*
X91309557Y-121368773D01*
X91287613Y-121360921D01*
X91266543Y-121350956D01*
X91246552Y-121338974D01*
X91227832Y-121325090D01*
X91210562Y-121309438D01*
X91194910Y-121292168D01*
X91181026Y-121273448D01*
X91169044Y-121253457D01*
X91159079Y-121232387D01*
X91151227Y-121210443D01*
X91145563Y-121187834D01*
X91142144Y-121164779D01*
X91141000Y-121141500D01*
X91141000Y-120666500D01*
X91142144Y-120643221D01*
X91145563Y-120620166D01*
X91151227Y-120597557D01*
X91159079Y-120575613D01*
X91169044Y-120554543D01*
X91181026Y-120534552D01*
X91194910Y-120515832D01*
X91210562Y-120498562D01*
X91227832Y-120482910D01*
X91246552Y-120469026D01*
X91266543Y-120457044D01*
X91287613Y-120447079D01*
X91309557Y-120439227D01*
X91332166Y-120433563D01*
X91355221Y-120430144D01*
X91378500Y-120429000D01*
X91953500Y-120429000D01*
X91976779Y-120430144D01*
X91976779Y-120430144D01*
G37*
D11*
X91666000Y-120904000D03*
D10*
G36*
X90226779Y-120430144D02*
G01*
X90249834Y-120433563D01*
X90272443Y-120439227D01*
X90294387Y-120447079D01*
X90315457Y-120457044D01*
X90335448Y-120469026D01*
X90354168Y-120482910D01*
X90371438Y-120498562D01*
X90387090Y-120515832D01*
X90400974Y-120534552D01*
X90412956Y-120554543D01*
X90422921Y-120575613D01*
X90430773Y-120597557D01*
X90436437Y-120620166D01*
X90439856Y-120643221D01*
X90441000Y-120666500D01*
X90441000Y-121141500D01*
X90439856Y-121164779D01*
X90436437Y-121187834D01*
X90430773Y-121210443D01*
X90422921Y-121232387D01*
X90412956Y-121253457D01*
X90400974Y-121273448D01*
X90387090Y-121292168D01*
X90371438Y-121309438D01*
X90354168Y-121325090D01*
X90335448Y-121338974D01*
X90315457Y-121350956D01*
X90294387Y-121360921D01*
X90272443Y-121368773D01*
X90249834Y-121374437D01*
X90226779Y-121377856D01*
X90203500Y-121379000D01*
X89628500Y-121379000D01*
X89605221Y-121377856D01*
X89582166Y-121374437D01*
X89559557Y-121368773D01*
X89537613Y-121360921D01*
X89516543Y-121350956D01*
X89496552Y-121338974D01*
X89477832Y-121325090D01*
X89460562Y-121309438D01*
X89444910Y-121292168D01*
X89431026Y-121273448D01*
X89419044Y-121253457D01*
X89409079Y-121232387D01*
X89401227Y-121210443D01*
X89395563Y-121187834D01*
X89392144Y-121164779D01*
X89391000Y-121141500D01*
X89391000Y-120666500D01*
X89392144Y-120643221D01*
X89395563Y-120620166D01*
X89401227Y-120597557D01*
X89409079Y-120575613D01*
X89419044Y-120554543D01*
X89431026Y-120534552D01*
X89444910Y-120515832D01*
X89460562Y-120498562D01*
X89477832Y-120482910D01*
X89496552Y-120469026D01*
X89516543Y-120457044D01*
X89537613Y-120447079D01*
X89559557Y-120439227D01*
X89582166Y-120433563D01*
X89605221Y-120430144D01*
X89628500Y-120429000D01*
X90203500Y-120429000D01*
X90226779Y-120430144D01*
X90226779Y-120430144D01*
G37*
D11*
X89916000Y-120904000D03*
D10*
G36*
X86825779Y-120430144D02*
G01*
X86848834Y-120433563D01*
X86871443Y-120439227D01*
X86893387Y-120447079D01*
X86914457Y-120457044D01*
X86934448Y-120469026D01*
X86953168Y-120482910D01*
X86970438Y-120498562D01*
X86986090Y-120515832D01*
X86999974Y-120534552D01*
X87011956Y-120554543D01*
X87021921Y-120575613D01*
X87029773Y-120597557D01*
X87035437Y-120620166D01*
X87038856Y-120643221D01*
X87040000Y-120666500D01*
X87040000Y-121141500D01*
X87038856Y-121164779D01*
X87035437Y-121187834D01*
X87029773Y-121210443D01*
X87021921Y-121232387D01*
X87011956Y-121253457D01*
X86999974Y-121273448D01*
X86986090Y-121292168D01*
X86970438Y-121309438D01*
X86953168Y-121325090D01*
X86934448Y-121338974D01*
X86914457Y-121350956D01*
X86893387Y-121360921D01*
X86871443Y-121368773D01*
X86848834Y-121374437D01*
X86825779Y-121377856D01*
X86802500Y-121379000D01*
X86227500Y-121379000D01*
X86204221Y-121377856D01*
X86181166Y-121374437D01*
X86158557Y-121368773D01*
X86136613Y-121360921D01*
X86115543Y-121350956D01*
X86095552Y-121338974D01*
X86076832Y-121325090D01*
X86059562Y-121309438D01*
X86043910Y-121292168D01*
X86030026Y-121273448D01*
X86018044Y-121253457D01*
X86008079Y-121232387D01*
X86000227Y-121210443D01*
X85994563Y-121187834D01*
X85991144Y-121164779D01*
X85990000Y-121141500D01*
X85990000Y-120666500D01*
X85991144Y-120643221D01*
X85994563Y-120620166D01*
X86000227Y-120597557D01*
X86008079Y-120575613D01*
X86018044Y-120554543D01*
X86030026Y-120534552D01*
X86043910Y-120515832D01*
X86059562Y-120498562D01*
X86076832Y-120482910D01*
X86095552Y-120469026D01*
X86115543Y-120457044D01*
X86136613Y-120447079D01*
X86158557Y-120439227D01*
X86181166Y-120433563D01*
X86204221Y-120430144D01*
X86227500Y-120429000D01*
X86802500Y-120429000D01*
X86825779Y-120430144D01*
X86825779Y-120430144D01*
G37*
D11*
X86515000Y-120904000D03*
D10*
G36*
X88575779Y-120430144D02*
G01*
X88598834Y-120433563D01*
X88621443Y-120439227D01*
X88643387Y-120447079D01*
X88664457Y-120457044D01*
X88684448Y-120469026D01*
X88703168Y-120482910D01*
X88720438Y-120498562D01*
X88736090Y-120515832D01*
X88749974Y-120534552D01*
X88761956Y-120554543D01*
X88771921Y-120575613D01*
X88779773Y-120597557D01*
X88785437Y-120620166D01*
X88788856Y-120643221D01*
X88790000Y-120666500D01*
X88790000Y-121141500D01*
X88788856Y-121164779D01*
X88785437Y-121187834D01*
X88779773Y-121210443D01*
X88771921Y-121232387D01*
X88761956Y-121253457D01*
X88749974Y-121273448D01*
X88736090Y-121292168D01*
X88720438Y-121309438D01*
X88703168Y-121325090D01*
X88684448Y-121338974D01*
X88664457Y-121350956D01*
X88643387Y-121360921D01*
X88621443Y-121368773D01*
X88598834Y-121374437D01*
X88575779Y-121377856D01*
X88552500Y-121379000D01*
X87977500Y-121379000D01*
X87954221Y-121377856D01*
X87931166Y-121374437D01*
X87908557Y-121368773D01*
X87886613Y-121360921D01*
X87865543Y-121350956D01*
X87845552Y-121338974D01*
X87826832Y-121325090D01*
X87809562Y-121309438D01*
X87793910Y-121292168D01*
X87780026Y-121273448D01*
X87768044Y-121253457D01*
X87758079Y-121232387D01*
X87750227Y-121210443D01*
X87744563Y-121187834D01*
X87741144Y-121164779D01*
X87740000Y-121141500D01*
X87740000Y-120666500D01*
X87741144Y-120643221D01*
X87744563Y-120620166D01*
X87750227Y-120597557D01*
X87758079Y-120575613D01*
X87768044Y-120554543D01*
X87780026Y-120534552D01*
X87793910Y-120515832D01*
X87809562Y-120498562D01*
X87826832Y-120482910D01*
X87845552Y-120469026D01*
X87865543Y-120457044D01*
X87886613Y-120447079D01*
X87908557Y-120439227D01*
X87931166Y-120433563D01*
X87954221Y-120430144D01*
X87977500Y-120429000D01*
X88552500Y-120429000D01*
X88575779Y-120430144D01*
X88575779Y-120430144D01*
G37*
D11*
X88265000Y-120904000D03*
D10*
G36*
X88575779Y-118906144D02*
G01*
X88598834Y-118909563D01*
X88621443Y-118915227D01*
X88643387Y-118923079D01*
X88664457Y-118933044D01*
X88684448Y-118945026D01*
X88703168Y-118958910D01*
X88720438Y-118974562D01*
X88736090Y-118991832D01*
X88749974Y-119010552D01*
X88761956Y-119030543D01*
X88771921Y-119051613D01*
X88779773Y-119073557D01*
X88785437Y-119096166D01*
X88788856Y-119119221D01*
X88790000Y-119142500D01*
X88790000Y-119617500D01*
X88788856Y-119640779D01*
X88785437Y-119663834D01*
X88779773Y-119686443D01*
X88771921Y-119708387D01*
X88761956Y-119729457D01*
X88749974Y-119749448D01*
X88736090Y-119768168D01*
X88720438Y-119785438D01*
X88703168Y-119801090D01*
X88684448Y-119814974D01*
X88664457Y-119826956D01*
X88643387Y-119836921D01*
X88621443Y-119844773D01*
X88598834Y-119850437D01*
X88575779Y-119853856D01*
X88552500Y-119855000D01*
X87977500Y-119855000D01*
X87954221Y-119853856D01*
X87931166Y-119850437D01*
X87908557Y-119844773D01*
X87886613Y-119836921D01*
X87865543Y-119826956D01*
X87845552Y-119814974D01*
X87826832Y-119801090D01*
X87809562Y-119785438D01*
X87793910Y-119768168D01*
X87780026Y-119749448D01*
X87768044Y-119729457D01*
X87758079Y-119708387D01*
X87750227Y-119686443D01*
X87744563Y-119663834D01*
X87741144Y-119640779D01*
X87740000Y-119617500D01*
X87740000Y-119142500D01*
X87741144Y-119119221D01*
X87744563Y-119096166D01*
X87750227Y-119073557D01*
X87758079Y-119051613D01*
X87768044Y-119030543D01*
X87780026Y-119010552D01*
X87793910Y-118991832D01*
X87809562Y-118974562D01*
X87826832Y-118958910D01*
X87845552Y-118945026D01*
X87865543Y-118933044D01*
X87886613Y-118923079D01*
X87908557Y-118915227D01*
X87931166Y-118909563D01*
X87954221Y-118906144D01*
X87977500Y-118905000D01*
X88552500Y-118905000D01*
X88575779Y-118906144D01*
X88575779Y-118906144D01*
G37*
D11*
X88265000Y-119380000D03*
D10*
G36*
X86825779Y-118906144D02*
G01*
X86848834Y-118909563D01*
X86871443Y-118915227D01*
X86893387Y-118923079D01*
X86914457Y-118933044D01*
X86934448Y-118945026D01*
X86953168Y-118958910D01*
X86970438Y-118974562D01*
X86986090Y-118991832D01*
X86999974Y-119010552D01*
X87011956Y-119030543D01*
X87021921Y-119051613D01*
X87029773Y-119073557D01*
X87035437Y-119096166D01*
X87038856Y-119119221D01*
X87040000Y-119142500D01*
X87040000Y-119617500D01*
X87038856Y-119640779D01*
X87035437Y-119663834D01*
X87029773Y-119686443D01*
X87021921Y-119708387D01*
X87011956Y-119729457D01*
X86999974Y-119749448D01*
X86986090Y-119768168D01*
X86970438Y-119785438D01*
X86953168Y-119801090D01*
X86934448Y-119814974D01*
X86914457Y-119826956D01*
X86893387Y-119836921D01*
X86871443Y-119844773D01*
X86848834Y-119850437D01*
X86825779Y-119853856D01*
X86802500Y-119855000D01*
X86227500Y-119855000D01*
X86204221Y-119853856D01*
X86181166Y-119850437D01*
X86158557Y-119844773D01*
X86136613Y-119836921D01*
X86115543Y-119826956D01*
X86095552Y-119814974D01*
X86076832Y-119801090D01*
X86059562Y-119785438D01*
X86043910Y-119768168D01*
X86030026Y-119749448D01*
X86018044Y-119729457D01*
X86008079Y-119708387D01*
X86000227Y-119686443D01*
X85994563Y-119663834D01*
X85991144Y-119640779D01*
X85990000Y-119617500D01*
X85990000Y-119142500D01*
X85991144Y-119119221D01*
X85994563Y-119096166D01*
X86000227Y-119073557D01*
X86008079Y-119051613D01*
X86018044Y-119030543D01*
X86030026Y-119010552D01*
X86043910Y-118991832D01*
X86059562Y-118974562D01*
X86076832Y-118958910D01*
X86095552Y-118945026D01*
X86115543Y-118933044D01*
X86136613Y-118923079D01*
X86158557Y-118915227D01*
X86181166Y-118909563D01*
X86204221Y-118906144D01*
X86227500Y-118905000D01*
X86802500Y-118905000D01*
X86825779Y-118906144D01*
X86825779Y-118906144D01*
G37*
D11*
X86515000Y-119380000D03*
D12*
X129540000Y-122870000D03*
X129540000Y-120970000D03*
M02*
