G04 #@! TF.GenerationSoftware,KiCad,Pcbnew,(5.1.4)-1*
G04 #@! TF.CreationDate,2020-02-24T20:22:09+01:00*
G04 #@! TF.ProjectId,stm32_board,73746d33-325f-4626-9f61-72642e6b6963,rev?*
G04 #@! TF.SameCoordinates,Original*
G04 #@! TF.FileFunction,Legend,Top*
G04 #@! TF.FilePolarity,Positive*
%FSLAX46Y46*%
G04 Gerber Fmt 4.6, Leading zero omitted, Abs format (unit mm)*
G04 Created by KiCad (PCBNEW (5.1.4)-1) date 2020-02-24 20:22:09*
%MOMM*%
%LPD*%
G04 APERTURE LIST*
%ADD10C,0.150000*%
%ADD11C,0.120000*%
G04 APERTURE END LIST*
D10*
X143547619Y-107452380D02*
X143214285Y-106976190D01*
X142976190Y-107452380D02*
X142976190Y-106452380D01*
X143357142Y-106452380D01*
X143452380Y-106500000D01*
X143500000Y-106547619D01*
X143547619Y-106642857D01*
X143547619Y-106785714D01*
X143500000Y-106880952D01*
X143452380Y-106928571D01*
X143357142Y-106976190D01*
X142976190Y-106976190D01*
X143976190Y-106928571D02*
X144309523Y-106928571D01*
X144452380Y-107452380D02*
X143976190Y-107452380D01*
X143976190Y-106452380D01*
X144452380Y-106452380D01*
X144833333Y-107404761D02*
X144976190Y-107452380D01*
X145214285Y-107452380D01*
X145309523Y-107404761D01*
X145357142Y-107357142D01*
X145404761Y-107261904D01*
X145404761Y-107166666D01*
X145357142Y-107071428D01*
X145309523Y-107023809D01*
X145214285Y-106976190D01*
X145023809Y-106928571D01*
X144928571Y-106880952D01*
X144880952Y-106833333D01*
X144833333Y-106738095D01*
X144833333Y-106642857D01*
X144880952Y-106547619D01*
X144928571Y-106500000D01*
X145023809Y-106452380D01*
X145261904Y-106452380D01*
X145404761Y-106500000D01*
X145833333Y-106928571D02*
X146166666Y-106928571D01*
X146309523Y-107452380D02*
X145833333Y-107452380D01*
X145833333Y-106452380D01*
X146309523Y-106452380D01*
X146595238Y-106452380D02*
X147166666Y-106452380D01*
X146880952Y-107452380D02*
X146880952Y-106452380D01*
X111476190Y-147785714D02*
X110714285Y-148071428D01*
X111476190Y-148357142D01*
X113190476Y-148452380D02*
X112714285Y-148452380D01*
X112714285Y-147452380D01*
X113523809Y-148452380D02*
X113523809Y-147452380D01*
X114000000Y-148452380D02*
X114000000Y-147452380D01*
X114238095Y-147452380D01*
X114380952Y-147500000D01*
X114476190Y-147595238D01*
X114523809Y-147690476D01*
X114571428Y-147880952D01*
X114571428Y-148023809D01*
X114523809Y-148214285D01*
X114476190Y-148309523D01*
X114380952Y-148404761D01*
X114238095Y-148452380D01*
X114000000Y-148452380D01*
X114952380Y-148166666D02*
X115428571Y-148166666D01*
X114857142Y-148452380D02*
X115190476Y-147452380D01*
X115523809Y-148452380D01*
X116428571Y-148452380D02*
X116095238Y-147976190D01*
X115857142Y-148452380D02*
X115857142Y-147452380D01*
X116238095Y-147452380D01*
X116333333Y-147500000D01*
X116380952Y-147547619D01*
X116428571Y-147642857D01*
X116428571Y-147785714D01*
X116380952Y-147880952D01*
X116333333Y-147928571D01*
X116238095Y-147976190D01*
X115857142Y-147976190D01*
X117476190Y-147452380D02*
X118047619Y-147452380D01*
X117761904Y-148452380D02*
X117761904Y-147452380D01*
X118714285Y-147928571D02*
X118380952Y-147928571D01*
X118380952Y-148452380D02*
X118380952Y-147452380D01*
X118857142Y-147452380D01*
X120000000Y-148452380D02*
X120000000Y-147785714D01*
X120000000Y-147880952D02*
X120047619Y-147833333D01*
X120142857Y-147785714D01*
X120285714Y-147785714D01*
X120380952Y-147833333D01*
X120428571Y-147928571D01*
X120428571Y-148452380D01*
X120428571Y-147928571D02*
X120476190Y-147833333D01*
X120571428Y-147785714D01*
X120714285Y-147785714D01*
X120809523Y-147833333D01*
X120857142Y-147928571D01*
X120857142Y-148452380D01*
X121333333Y-148452380D02*
X121333333Y-147785714D01*
X121333333Y-147452380D02*
X121285714Y-147500000D01*
X121333333Y-147547619D01*
X121380952Y-147500000D01*
X121333333Y-147452380D01*
X121333333Y-147547619D01*
X121809523Y-147785714D02*
X121809523Y-148452380D01*
X121809523Y-147880952D02*
X121857142Y-147833333D01*
X121952380Y-147785714D01*
X122095238Y-147785714D01*
X122190476Y-147833333D01*
X122238095Y-147928571D01*
X122238095Y-148452380D01*
X122714285Y-148452380D02*
X122714285Y-147785714D01*
X122714285Y-147452380D02*
X122666666Y-147500000D01*
X122714285Y-147547619D01*
X122761904Y-147500000D01*
X122714285Y-147452380D01*
X122714285Y-147547619D01*
X123952380Y-148452380D02*
X123952380Y-147452380D01*
X124333333Y-147452380D01*
X124428571Y-147500000D01*
X124476190Y-147547619D01*
X124523809Y-147642857D01*
X124523809Y-147785714D01*
X124476190Y-147880952D01*
X124428571Y-147928571D01*
X124333333Y-147976190D01*
X123952380Y-147976190D01*
X125095238Y-148452380D02*
X125000000Y-148404761D01*
X124952380Y-148309523D01*
X124952380Y-147452380D01*
X125904761Y-147785714D02*
X125904761Y-148452380D01*
X125476190Y-147785714D02*
X125476190Y-148309523D01*
X125523809Y-148404761D01*
X125619047Y-148452380D01*
X125761904Y-148452380D01*
X125857142Y-148404761D01*
X125904761Y-148357142D01*
X126333333Y-148404761D02*
X126428571Y-148452380D01*
X126619047Y-148452380D01*
X126714285Y-148404761D01*
X126761904Y-148309523D01*
X126761904Y-148261904D01*
X126714285Y-148166666D01*
X126619047Y-148119047D01*
X126476190Y-148119047D01*
X126380952Y-148071428D01*
X126333333Y-147976190D01*
X126333333Y-147928571D01*
X126380952Y-147833333D01*
X126476190Y-147785714D01*
X126619047Y-147785714D01*
X126714285Y-147833333D01*
X128476190Y-148452380D02*
X127904761Y-148452380D01*
X128190476Y-148452380D02*
X128190476Y-147452380D01*
X128095238Y-147595238D01*
X128000000Y-147690476D01*
X127904761Y-147738095D01*
X128857142Y-147547619D02*
X128904761Y-147500000D01*
X129000000Y-147452380D01*
X129238095Y-147452380D01*
X129333333Y-147500000D01*
X129380952Y-147547619D01*
X129428571Y-147642857D01*
X129428571Y-147738095D01*
X129380952Y-147880952D01*
X128809523Y-148452380D01*
X129428571Y-148452380D01*
X129761904Y-147452380D02*
X130380952Y-147452380D01*
X130047619Y-147833333D01*
X130190476Y-147833333D01*
X130285714Y-147880952D01*
X130333333Y-147928571D01*
X130380952Y-148023809D01*
X130380952Y-148261904D01*
X130333333Y-148357142D01*
X130285714Y-148404761D01*
X130190476Y-148452380D01*
X129904761Y-148452380D01*
X129809523Y-148404761D01*
X129761904Y-148357142D01*
X131238095Y-147785714D02*
X131238095Y-148452380D01*
X131000000Y-147404761D02*
X130761904Y-148119047D01*
X131380952Y-148119047D01*
X111714285Y-143579761D02*
X111857142Y-143627380D01*
X112095238Y-143627380D01*
X112190476Y-143579761D01*
X112238095Y-143532142D01*
X112285714Y-143436904D01*
X112285714Y-143341666D01*
X112238095Y-143246428D01*
X112190476Y-143198809D01*
X112095238Y-143151190D01*
X111904761Y-143103571D01*
X111809523Y-143055952D01*
X111761904Y-143008333D01*
X111714285Y-142913095D01*
X111714285Y-142817857D01*
X111761904Y-142722619D01*
X111809523Y-142675000D01*
X111904761Y-142627380D01*
X112142857Y-142627380D01*
X112285714Y-142675000D01*
X112571428Y-142627380D02*
X113142857Y-142627380D01*
X112857142Y-143627380D02*
X112857142Y-142627380D01*
X113476190Y-143627380D02*
X113476190Y-142627380D01*
X113809523Y-143341666D01*
X114142857Y-142627380D01*
X114142857Y-143627380D01*
X114523809Y-142627380D02*
X115142857Y-142627380D01*
X114809523Y-143008333D01*
X114952380Y-143008333D01*
X115047619Y-143055952D01*
X115095238Y-143103571D01*
X115142857Y-143198809D01*
X115142857Y-143436904D01*
X115095238Y-143532142D01*
X115047619Y-143579761D01*
X114952380Y-143627380D01*
X114666666Y-143627380D01*
X114571428Y-143579761D01*
X114523809Y-143532142D01*
X115523809Y-142722619D02*
X115571428Y-142675000D01*
X115666666Y-142627380D01*
X115904761Y-142627380D01*
X116000000Y-142675000D01*
X116047619Y-142722619D01*
X116095238Y-142817857D01*
X116095238Y-142913095D01*
X116047619Y-143055952D01*
X115476190Y-143627380D01*
X116095238Y-143627380D01*
X117857142Y-143532142D02*
X117809523Y-143579761D01*
X117666666Y-143627380D01*
X117571428Y-143627380D01*
X117428571Y-143579761D01*
X117333333Y-143484523D01*
X117285714Y-143389285D01*
X117238095Y-143198809D01*
X117238095Y-143055952D01*
X117285714Y-142865476D01*
X117333333Y-142770238D01*
X117428571Y-142675000D01*
X117571428Y-142627380D01*
X117666666Y-142627380D01*
X117809523Y-142675000D01*
X117857142Y-142722619D01*
X118428571Y-143627380D02*
X118333333Y-143579761D01*
X118285714Y-143532142D01*
X118238095Y-143436904D01*
X118238095Y-143151190D01*
X118285714Y-143055952D01*
X118333333Y-143008333D01*
X118428571Y-142960714D01*
X118571428Y-142960714D01*
X118666666Y-143008333D01*
X118714285Y-143055952D01*
X118761904Y-143151190D01*
X118761904Y-143436904D01*
X118714285Y-143532142D01*
X118666666Y-143579761D01*
X118571428Y-143627380D01*
X118428571Y-143627380D01*
X119190476Y-142960714D02*
X119190476Y-143627380D01*
X119190476Y-143055952D02*
X119238095Y-143008333D01*
X119333333Y-142960714D01*
X119476190Y-142960714D01*
X119571428Y-143008333D01*
X119619047Y-143103571D01*
X119619047Y-143627380D01*
X119952380Y-142960714D02*
X120333333Y-142960714D01*
X120095238Y-142627380D02*
X120095238Y-143484523D01*
X120142857Y-143579761D01*
X120238095Y-143627380D01*
X120333333Y-143627380D01*
X120666666Y-143627380D02*
X120666666Y-142960714D01*
X120666666Y-143151190D02*
X120714285Y-143055952D01*
X120761904Y-143008333D01*
X120857142Y-142960714D01*
X120952380Y-142960714D01*
X121428571Y-143627380D02*
X121333333Y-143579761D01*
X121285714Y-143532142D01*
X121238095Y-143436904D01*
X121238095Y-143151190D01*
X121285714Y-143055952D01*
X121333333Y-143008333D01*
X121428571Y-142960714D01*
X121571428Y-142960714D01*
X121666666Y-143008333D01*
X121714285Y-143055952D01*
X121761904Y-143151190D01*
X121761904Y-143436904D01*
X121714285Y-143532142D01*
X121666666Y-143579761D01*
X121571428Y-143627380D01*
X121428571Y-143627380D01*
X122333333Y-143627380D02*
X122238095Y-143579761D01*
X122190476Y-143484523D01*
X122190476Y-142627380D01*
X122857142Y-143627380D02*
X122761904Y-143579761D01*
X122714285Y-143484523D01*
X122714285Y-142627380D01*
X123619047Y-143579761D02*
X123523809Y-143627380D01*
X123333333Y-143627380D01*
X123238095Y-143579761D01*
X123190476Y-143484523D01*
X123190476Y-143103571D01*
X123238095Y-143008333D01*
X123333333Y-142960714D01*
X123523809Y-142960714D01*
X123619047Y-143008333D01*
X123666666Y-143103571D01*
X123666666Y-143198809D01*
X123190476Y-143294047D01*
X124095238Y-143627380D02*
X124095238Y-142960714D01*
X124095238Y-143151190D02*
X124142857Y-143055952D01*
X124190476Y-143008333D01*
X124285714Y-142960714D01*
X124380952Y-142960714D01*
X111190476Y-144277380D02*
X111761904Y-144277380D01*
X111476190Y-145277380D02*
X111476190Y-144277380D01*
X112666666Y-145277380D02*
X112333333Y-144801190D01*
X112095238Y-145277380D02*
X112095238Y-144277380D01*
X112476190Y-144277380D01*
X112571428Y-144325000D01*
X112619047Y-144372619D01*
X112666666Y-144467857D01*
X112666666Y-144610714D01*
X112619047Y-144705952D01*
X112571428Y-144753571D01*
X112476190Y-144801190D01*
X112095238Y-144801190D01*
X113666666Y-145277380D02*
X113333333Y-144801190D01*
X113095238Y-145277380D02*
X113095238Y-144277380D01*
X113476190Y-144277380D01*
X113571428Y-144325000D01*
X113619047Y-144372619D01*
X113666666Y-144467857D01*
X113666666Y-144610714D01*
X113619047Y-144705952D01*
X113571428Y-144753571D01*
X113476190Y-144801190D01*
X113095238Y-144801190D01*
X114809523Y-144372619D02*
X114857142Y-144325000D01*
X114952380Y-144277380D01*
X115190476Y-144277380D01*
X115285714Y-144325000D01*
X115333333Y-144372619D01*
X115380952Y-144467857D01*
X115380952Y-144563095D01*
X115333333Y-144705952D01*
X114761904Y-145277380D01*
X115380952Y-145277380D01*
X116000000Y-144277380D02*
X116095238Y-144277380D01*
X116190476Y-144325000D01*
X116238095Y-144372619D01*
X116285714Y-144467857D01*
X116333333Y-144658333D01*
X116333333Y-144896428D01*
X116285714Y-145086904D01*
X116238095Y-145182142D01*
X116190476Y-145229761D01*
X116095238Y-145277380D01*
X116000000Y-145277380D01*
X115904761Y-145229761D01*
X115857142Y-145182142D01*
X115809523Y-145086904D01*
X115761904Y-144896428D01*
X115761904Y-144658333D01*
X115809523Y-144467857D01*
X115857142Y-144372619D01*
X115904761Y-144325000D01*
X116000000Y-144277380D01*
X116714285Y-144372619D02*
X116761904Y-144325000D01*
X116857142Y-144277380D01*
X117095238Y-144277380D01*
X117190476Y-144325000D01*
X117238095Y-144372619D01*
X117285714Y-144467857D01*
X117285714Y-144563095D01*
X117238095Y-144705952D01*
X116666666Y-145277380D01*
X117285714Y-145277380D01*
X117904761Y-144277380D02*
X118000000Y-144277380D01*
X118095238Y-144325000D01*
X118142857Y-144372619D01*
X118190476Y-144467857D01*
X118238095Y-144658333D01*
X118238095Y-144896428D01*
X118190476Y-145086904D01*
X118142857Y-145182142D01*
X118095238Y-145229761D01*
X118000000Y-145277380D01*
X117904761Y-145277380D01*
X117809523Y-145229761D01*
X117761904Y-145182142D01*
X117714285Y-145086904D01*
X117666666Y-144896428D01*
X117666666Y-144658333D01*
X117714285Y-144467857D01*
X117761904Y-144372619D01*
X117809523Y-144325000D01*
X117904761Y-144277380D01*
X120000000Y-145277380D02*
X119666666Y-144801190D01*
X119428571Y-145277380D02*
X119428571Y-144277380D01*
X119809523Y-144277380D01*
X119904761Y-144325000D01*
X119952380Y-144372619D01*
X120000000Y-144467857D01*
X120000000Y-144610714D01*
X119952380Y-144705952D01*
X119904761Y-144753571D01*
X119809523Y-144801190D01*
X119428571Y-144801190D01*
X120571428Y-145277380D02*
X120476190Y-145229761D01*
X120428571Y-145182142D01*
X120380952Y-145086904D01*
X120380952Y-144801190D01*
X120428571Y-144705952D01*
X120476190Y-144658333D01*
X120571428Y-144610714D01*
X120714285Y-144610714D01*
X120809523Y-144658333D01*
X120857142Y-144705952D01*
X120904761Y-144801190D01*
X120904761Y-145086904D01*
X120857142Y-145182142D01*
X120809523Y-145229761D01*
X120714285Y-145277380D01*
X120571428Y-145277380D01*
X121761904Y-144610714D02*
X121761904Y-145277380D01*
X121333333Y-144610714D02*
X121333333Y-145134523D01*
X121380952Y-145229761D01*
X121476190Y-145277380D01*
X121619047Y-145277380D01*
X121714285Y-145229761D01*
X121761904Y-145182142D01*
X122380952Y-145277380D02*
X122285714Y-145229761D01*
X122238095Y-145134523D01*
X122238095Y-144277380D01*
X123190476Y-145277380D02*
X123190476Y-144753571D01*
X123142857Y-144658333D01*
X123047619Y-144610714D01*
X122857142Y-144610714D01*
X122761904Y-144658333D01*
X123190476Y-145229761D02*
X123095238Y-145277380D01*
X122857142Y-145277380D01*
X122761904Y-145229761D01*
X122714285Y-145134523D01*
X122714285Y-145039285D01*
X122761904Y-144944047D01*
X122857142Y-144896428D01*
X123095238Y-144896428D01*
X123190476Y-144848809D01*
X123666666Y-144610714D02*
X123666666Y-145277380D01*
X123666666Y-144705952D02*
X123714285Y-144658333D01*
X123809523Y-144610714D01*
X123952380Y-144610714D01*
X124047619Y-144658333D01*
X124095238Y-144753571D01*
X124095238Y-145277380D01*
X124428571Y-144610714D02*
X124809523Y-144610714D01*
X124571428Y-144277380D02*
X124571428Y-145134523D01*
X124619047Y-145229761D01*
X124714285Y-145277380D01*
X124809523Y-145277380D01*
X108388571Y-99182138D02*
X107817142Y-99182138D01*
X108102857Y-99182138D02*
X108102857Y-98182138D01*
X108007619Y-98324996D01*
X107912380Y-98420234D01*
X107817142Y-98467853D01*
X108864761Y-99182138D02*
X109055238Y-99182138D01*
X109150476Y-99134519D01*
X109198095Y-99086900D01*
X109293333Y-98944043D01*
X109340952Y-98753567D01*
X109340952Y-98372615D01*
X109293333Y-98277377D01*
X109245714Y-98229758D01*
X109150476Y-98182138D01*
X108960000Y-98182138D01*
X108864761Y-98229758D01*
X108817142Y-98277377D01*
X108769523Y-98372615D01*
X108769523Y-98610710D01*
X108817142Y-98705948D01*
X108864761Y-98753567D01*
X108960000Y-98801186D01*
X109150476Y-98801186D01*
X109245714Y-98753567D01*
X109293333Y-98705948D01*
X109340952Y-98610710D01*
X109817142Y-99134519D02*
X109817142Y-99182138D01*
X109769523Y-99277377D01*
X109721904Y-99324996D01*
X110293333Y-99182138D02*
X110483809Y-99182138D01*
X110579047Y-99134519D01*
X110626666Y-99086900D01*
X110721904Y-98944043D01*
X110769523Y-98753567D01*
X110769523Y-98372615D01*
X110721904Y-98277377D01*
X110674285Y-98229758D01*
X110579047Y-98182138D01*
X110388571Y-98182138D01*
X110293333Y-98229758D01*
X110245714Y-98277377D01*
X110198095Y-98372615D01*
X110198095Y-98610710D01*
X110245714Y-98705948D01*
X110293333Y-98753567D01*
X110388571Y-98801186D01*
X110579047Y-98801186D01*
X110674285Y-98753567D01*
X110721904Y-98705948D01*
X110769523Y-98610710D01*
X111150476Y-98277377D02*
X111198095Y-98229758D01*
X111293333Y-98182138D01*
X111531428Y-98182138D01*
X111626666Y-98229758D01*
X111674285Y-98277377D01*
X111721904Y-98372615D01*
X111721904Y-98467853D01*
X111674285Y-98610710D01*
X111102857Y-99182138D01*
X111721904Y-99182138D01*
X112340952Y-98182138D02*
X112436190Y-98182138D01*
X112531428Y-98229758D01*
X112579047Y-98277377D01*
X112626666Y-98372615D01*
X112674285Y-98563091D01*
X112674285Y-98801186D01*
X112626666Y-98991662D01*
X112579047Y-99086900D01*
X112531428Y-99134519D01*
X112436190Y-99182138D01*
X112340952Y-99182138D01*
X112245714Y-99134519D01*
X112198095Y-99086900D01*
X112150476Y-98991662D01*
X112102857Y-98801186D01*
X112102857Y-98563091D01*
X112150476Y-98372615D01*
X112198095Y-98277377D01*
X112245714Y-98229758D01*
X112340952Y-98182138D01*
X113864761Y-99182138D02*
X113864761Y-98515472D01*
X113864761Y-98610710D02*
X113912380Y-98563091D01*
X114007619Y-98515472D01*
X114150476Y-98515472D01*
X114245714Y-98563091D01*
X114293333Y-98658329D01*
X114293333Y-99182138D01*
X114293333Y-98658329D02*
X114340952Y-98563091D01*
X114436190Y-98515472D01*
X114579047Y-98515472D01*
X114674285Y-98563091D01*
X114721904Y-98658329D01*
X114721904Y-99182138D01*
X115198095Y-99182138D02*
X115198095Y-98515472D01*
X115198095Y-98610710D02*
X115245714Y-98563091D01*
X115340952Y-98515472D01*
X115483809Y-98515472D01*
X115579047Y-98563091D01*
X115626666Y-98658329D01*
X115626666Y-99182138D01*
X115626666Y-98658329D02*
X115674285Y-98563091D01*
X115769523Y-98515472D01*
X115912380Y-98515472D01*
X116007619Y-98563091D01*
X116055238Y-98658329D01*
X116055238Y-99182138D01*
D11*
X121920000Y-99999758D02*
X102000000Y-99999758D01*
X121920000Y-105000000D02*
X121920000Y-99413337D01*
X102000000Y-105000000D02*
X102000000Y-99413337D01*
X102000000Y-99999758D02*
X103126504Y-99413337D01*
X102000000Y-99999758D02*
X103126504Y-100586179D01*
X121920000Y-99999758D02*
X120793496Y-99413337D01*
X121920000Y-99999758D02*
X120793496Y-100586179D01*
D10*
X140589047Y-127071428D02*
X141350952Y-127071428D01*
X140970000Y-127452380D02*
X140970000Y-126690476D01*
X148209047Y-127071428D02*
X148970952Y-127071428D01*
X95535714Y-115387380D02*
X94964285Y-115387380D01*
X95250000Y-115387380D02*
X95250000Y-114387380D01*
X95154761Y-114530238D01*
X95059523Y-114625476D01*
X94964285Y-114673095D01*
X72175714Y-121689761D02*
X72270952Y-121737380D01*
X72461428Y-121737380D01*
X72556666Y-121689761D01*
X72604285Y-121594523D01*
X72604285Y-121546904D01*
X72556666Y-121451666D01*
X72461428Y-121404047D01*
X72318571Y-121404047D01*
X72223333Y-121356428D01*
X72175714Y-121261190D01*
X72175714Y-121213571D01*
X72223333Y-121118333D01*
X72318571Y-121070714D01*
X72461428Y-121070714D01*
X72556666Y-121118333D01*
X69469047Y-121356428D02*
X70230952Y-121356428D01*
X69850000Y-121737380D02*
X69850000Y-120975476D01*
X58205714Y-112164761D02*
X58300952Y-112212380D01*
X58491428Y-112212380D01*
X58586666Y-112164761D01*
X58634285Y-112069523D01*
X58634285Y-112021904D01*
X58586666Y-111926666D01*
X58491428Y-111879047D01*
X58348571Y-111879047D01*
X58253333Y-111831428D01*
X58205714Y-111736190D01*
X58205714Y-111688571D01*
X58253333Y-111593333D01*
X58348571Y-111545714D01*
X58491428Y-111545714D01*
X58586666Y-111593333D01*
X55499047Y-111831428D02*
X56260952Y-111831428D01*
X55880000Y-112212380D02*
X55880000Y-111450476D01*
X52959047Y-111831428D02*
X53720952Y-111831428D01*
X66929047Y-121356428D02*
X67690952Y-121356428D01*
X116459047Y-135961428D02*
X117220952Y-135961428D01*
X116911428Y-125452619D02*
X116911428Y-125119285D01*
X116387619Y-125119285D02*
X117387619Y-125119285D01*
X117387619Y-125595476D01*
X117387619Y-125833571D02*
X117387619Y-126405000D01*
X116387619Y-126119285D02*
X117387619Y-126119285D01*
X116387619Y-126738333D02*
X117387619Y-126738333D01*
X117387619Y-126976428D01*
X117340000Y-127119285D01*
X117244761Y-127214523D01*
X117149523Y-127262142D01*
X116959047Y-127309761D01*
X116816190Y-127309761D01*
X116625714Y-127262142D01*
X116530476Y-127214523D01*
X116435238Y-127119285D01*
X116387619Y-126976428D01*
X116387619Y-126738333D01*
X116387619Y-127738333D02*
X117387619Y-127738333D01*
X116482857Y-129547857D02*
X116435238Y-129500238D01*
X116387619Y-129357380D01*
X116387619Y-129262142D01*
X116435238Y-129119285D01*
X116530476Y-129024047D01*
X116625714Y-128976428D01*
X116816190Y-128928809D01*
X116959047Y-128928809D01*
X117149523Y-128976428D01*
X117244761Y-129024047D01*
X117340000Y-129119285D01*
X117387619Y-129262142D01*
X117387619Y-129357380D01*
X117340000Y-129500238D01*
X117292380Y-129547857D01*
X116387619Y-130405000D02*
X116911428Y-130405000D01*
X117006666Y-130357380D01*
X117054285Y-130262142D01*
X117054285Y-130071666D01*
X117006666Y-129976428D01*
X116435238Y-130405000D02*
X116387619Y-130309761D01*
X116387619Y-130071666D01*
X116435238Y-129976428D01*
X116530476Y-129928809D01*
X116625714Y-129928809D01*
X116720952Y-129976428D01*
X116768571Y-130071666D01*
X116768571Y-130309761D01*
X116816190Y-130405000D01*
X116387619Y-130881190D02*
X117387619Y-130881190D01*
X117006666Y-130881190D02*
X117054285Y-130976428D01*
X117054285Y-131166904D01*
X117006666Y-131262142D01*
X116959047Y-131309761D01*
X116863809Y-131357380D01*
X116578095Y-131357380D01*
X116482857Y-131309761D01*
X116435238Y-131262142D01*
X116387619Y-131166904D01*
X116387619Y-130976428D01*
X116435238Y-130881190D01*
X116387619Y-131928809D02*
X116435238Y-131833571D01*
X116530476Y-131785952D01*
X117387619Y-131785952D01*
X116435238Y-132690714D02*
X116387619Y-132595476D01*
X116387619Y-132405000D01*
X116435238Y-132309761D01*
X116530476Y-132262142D01*
X116911428Y-132262142D01*
X117006666Y-132309761D01*
X117054285Y-132405000D01*
X117054285Y-132595476D01*
X117006666Y-132690714D01*
X116911428Y-132738333D01*
X116816190Y-132738333D01*
X116720952Y-132262142D01*
X125166428Y-122905000D02*
X125118809Y-123047857D01*
X125071190Y-123095476D01*
X124975952Y-123143095D01*
X124833095Y-123143095D01*
X124737857Y-123095476D01*
X124690238Y-123047857D01*
X124642619Y-122952619D01*
X124642619Y-122571666D01*
X125642619Y-122571666D01*
X125642619Y-122905000D01*
X125595000Y-123000238D01*
X125547380Y-123047857D01*
X125452142Y-123095476D01*
X125356904Y-123095476D01*
X125261666Y-123047857D01*
X125214047Y-123000238D01*
X125166428Y-122905000D01*
X125166428Y-122571666D01*
X124642619Y-123714523D02*
X124690238Y-123619285D01*
X124785476Y-123571666D01*
X125642619Y-123571666D01*
X125309285Y-124524047D02*
X124642619Y-124524047D01*
X125309285Y-124095476D02*
X124785476Y-124095476D01*
X124690238Y-124143095D01*
X124642619Y-124238333D01*
X124642619Y-124381190D01*
X124690238Y-124476428D01*
X124737857Y-124524047D01*
X124690238Y-125381190D02*
X124642619Y-125285952D01*
X124642619Y-125095476D01*
X124690238Y-125000238D01*
X124785476Y-124952619D01*
X125166428Y-124952619D01*
X125261666Y-125000238D01*
X125309285Y-125095476D01*
X125309285Y-125285952D01*
X125261666Y-125381190D01*
X125166428Y-125428809D01*
X125071190Y-125428809D01*
X124975952Y-124952619D01*
X125309285Y-125714523D02*
X125309285Y-126095476D01*
X125642619Y-125857380D02*
X124785476Y-125857380D01*
X124690238Y-125905000D01*
X124642619Y-126000238D01*
X124642619Y-126095476D01*
X124642619Y-126571666D02*
X124690238Y-126476428D01*
X124737857Y-126428809D01*
X124833095Y-126381190D01*
X125118809Y-126381190D01*
X125214047Y-126428809D01*
X125261666Y-126476428D01*
X125309285Y-126571666D01*
X125309285Y-126714523D01*
X125261666Y-126809761D01*
X125214047Y-126857380D01*
X125118809Y-126905000D01*
X124833095Y-126905000D01*
X124737857Y-126857380D01*
X124690238Y-126809761D01*
X124642619Y-126714523D01*
X124642619Y-126571666D01*
X124642619Y-127476428D02*
X124690238Y-127381190D01*
X124737857Y-127333571D01*
X124833095Y-127285952D01*
X125118809Y-127285952D01*
X125214047Y-127333571D01*
X125261666Y-127381190D01*
X125309285Y-127476428D01*
X125309285Y-127619285D01*
X125261666Y-127714523D01*
X125214047Y-127762142D01*
X125118809Y-127809761D01*
X124833095Y-127809761D01*
X124737857Y-127762142D01*
X124690238Y-127714523D01*
X124642619Y-127619285D01*
X124642619Y-127476428D01*
X125309285Y-128095476D02*
X125309285Y-128476428D01*
X125642619Y-128238333D02*
X124785476Y-128238333D01*
X124690238Y-128285952D01*
X124642619Y-128381190D01*
X124642619Y-128476428D01*
X124642619Y-128809761D02*
X125642619Y-128809761D01*
X124642619Y-129238333D02*
X125166428Y-129238333D01*
X125261666Y-129190714D01*
X125309285Y-129095476D01*
X125309285Y-128952619D01*
X125261666Y-128857380D01*
X125214047Y-128809761D01*
X124642619Y-130476428D02*
X125642619Y-130476428D01*
X124928333Y-130809761D01*
X125642619Y-131143095D01*
X124642619Y-131143095D01*
X124642619Y-131762142D02*
X124690238Y-131666904D01*
X124737857Y-131619285D01*
X124833095Y-131571666D01*
X125118809Y-131571666D01*
X125214047Y-131619285D01*
X125261666Y-131666904D01*
X125309285Y-131762142D01*
X125309285Y-131905000D01*
X125261666Y-132000238D01*
X125214047Y-132047857D01*
X125118809Y-132095476D01*
X124833095Y-132095476D01*
X124737857Y-132047857D01*
X124690238Y-132000238D01*
X124642619Y-131905000D01*
X124642619Y-131762142D01*
X124642619Y-132952619D02*
X125642619Y-132952619D01*
X124690238Y-132952619D02*
X124642619Y-132857380D01*
X124642619Y-132666904D01*
X124690238Y-132571666D01*
X124737857Y-132524047D01*
X124833095Y-132476428D01*
X125118809Y-132476428D01*
X125214047Y-132524047D01*
X125261666Y-132571666D01*
X125309285Y-132666904D01*
X125309285Y-132857380D01*
X125261666Y-132952619D01*
X125309285Y-133857380D02*
X124642619Y-133857380D01*
X125309285Y-133428809D02*
X124785476Y-133428809D01*
X124690238Y-133476428D01*
X124642619Y-133571666D01*
X124642619Y-133714523D01*
X124690238Y-133809761D01*
X124737857Y-133857380D01*
X124642619Y-134476428D02*
X124690238Y-134381190D01*
X124785476Y-134333571D01*
X125642619Y-134333571D01*
X124690238Y-135238333D02*
X124642619Y-135143095D01*
X124642619Y-134952619D01*
X124690238Y-134857380D01*
X124785476Y-134809761D01*
X125166428Y-134809761D01*
X125261666Y-134857380D01*
X125309285Y-134952619D01*
X125309285Y-135143095D01*
X125261666Y-135238333D01*
X125166428Y-135285952D01*
X125071190Y-135285952D01*
X124975952Y-134809761D01*
X124642619Y-102561190D02*
X125642619Y-102561190D01*
X124642619Y-103037380D02*
X125642619Y-103037380D01*
X124928333Y-103370714D01*
X125642619Y-103704047D01*
X124642619Y-103704047D01*
X125642619Y-104180238D02*
X124833095Y-104180238D01*
X124737857Y-104227857D01*
X124690238Y-104275476D01*
X124642619Y-104370714D01*
X124642619Y-104561190D01*
X124690238Y-104656428D01*
X124737857Y-104704047D01*
X124833095Y-104751666D01*
X125642619Y-104751666D01*
X124642619Y-105989761D02*
X125642619Y-105989761D01*
X124928333Y-106323095D01*
X125642619Y-106656428D01*
X124642619Y-106656428D01*
X124642619Y-107132619D02*
X125309285Y-107132619D01*
X125642619Y-107132619D02*
X125595000Y-107085000D01*
X125547380Y-107132619D01*
X125595000Y-107180238D01*
X125642619Y-107132619D01*
X125547380Y-107132619D01*
X125309285Y-107608809D02*
X124642619Y-107608809D01*
X125214047Y-107608809D02*
X125261666Y-107656428D01*
X125309285Y-107751666D01*
X125309285Y-107894523D01*
X125261666Y-107989761D01*
X125166428Y-108037380D01*
X124642619Y-108037380D01*
X124642619Y-108513571D02*
X125642619Y-108513571D01*
X124642619Y-108989761D02*
X125642619Y-108989761D01*
X124928333Y-109323095D01*
X125642619Y-109656428D01*
X124642619Y-109656428D01*
X125642619Y-110132619D02*
X124833095Y-110132619D01*
X124737857Y-110180238D01*
X124690238Y-110227857D01*
X124642619Y-110323095D01*
X124642619Y-110513571D01*
X124690238Y-110608809D01*
X124737857Y-110656428D01*
X124833095Y-110704047D01*
X125642619Y-110704047D01*
X124642619Y-111227857D02*
X124642619Y-111418333D01*
X124690238Y-111513571D01*
X124737857Y-111561190D01*
X124880714Y-111656428D01*
X125071190Y-111704047D01*
X125452142Y-111704047D01*
X125547380Y-111656428D01*
X125595000Y-111608809D01*
X125642619Y-111513571D01*
X125642619Y-111323095D01*
X125595000Y-111227857D01*
X125547380Y-111180238D01*
X125452142Y-111132619D01*
X125214047Y-111132619D01*
X125118809Y-111180238D01*
X125071190Y-111227857D01*
X125023571Y-111323095D01*
X125023571Y-111513571D01*
X125071190Y-111608809D01*
X125118809Y-111656428D01*
X125214047Y-111704047D01*
X125023571Y-112132619D02*
X125023571Y-112894523D01*
X125309285Y-113275476D02*
X124642619Y-113513571D01*
X125309285Y-113751666D01*
X125642619Y-114608809D02*
X125642619Y-114132619D01*
X125166428Y-114085000D01*
X125214047Y-114132619D01*
X125261666Y-114227857D01*
X125261666Y-114465952D01*
X125214047Y-114561190D01*
X125166428Y-114608809D01*
X125071190Y-114656428D01*
X124833095Y-114656428D01*
X124737857Y-114608809D01*
X124690238Y-114561190D01*
X124642619Y-114465952D01*
X124642619Y-114227857D01*
X124690238Y-114132619D01*
X124737857Y-114085000D01*
X96067619Y-103171904D02*
X97067619Y-103171904D01*
X97067619Y-103410000D01*
X97020000Y-103552857D01*
X96924761Y-103648095D01*
X96829523Y-103695714D01*
X96639047Y-103743333D01*
X96496190Y-103743333D01*
X96305714Y-103695714D01*
X96210476Y-103648095D01*
X96115238Y-103552857D01*
X96067619Y-103410000D01*
X96067619Y-103171904D01*
X96591428Y-104171904D02*
X96591428Y-104505238D01*
X96067619Y-104648095D02*
X96067619Y-104171904D01*
X97067619Y-104171904D01*
X97067619Y-104648095D01*
X96591428Y-105410000D02*
X96543809Y-105552857D01*
X96496190Y-105600476D01*
X96400952Y-105648095D01*
X96258095Y-105648095D01*
X96162857Y-105600476D01*
X96115238Y-105552857D01*
X96067619Y-105457619D01*
X96067619Y-105076666D01*
X97067619Y-105076666D01*
X97067619Y-105410000D01*
X97020000Y-105505238D01*
X96972380Y-105552857D01*
X96877142Y-105600476D01*
X96781904Y-105600476D01*
X96686666Y-105552857D01*
X96639047Y-105505238D01*
X96591428Y-105410000D01*
X96591428Y-105076666D01*
X97067619Y-106076666D02*
X96258095Y-106076666D01*
X96162857Y-106124285D01*
X96115238Y-106171904D01*
X96067619Y-106267142D01*
X96067619Y-106457619D01*
X96115238Y-106552857D01*
X96162857Y-106600476D01*
X96258095Y-106648095D01*
X97067619Y-106648095D01*
X97020000Y-107648095D02*
X97067619Y-107552857D01*
X97067619Y-107410000D01*
X97020000Y-107267142D01*
X96924761Y-107171904D01*
X96829523Y-107124285D01*
X96639047Y-107076666D01*
X96496190Y-107076666D01*
X96305714Y-107124285D01*
X96210476Y-107171904D01*
X96115238Y-107267142D01*
X96067619Y-107410000D01*
X96067619Y-107505238D01*
X96115238Y-107648095D01*
X96162857Y-107695714D01*
X96496190Y-107695714D01*
X96496190Y-107505238D01*
X64841428Y-113149523D02*
X64793809Y-113292380D01*
X64746190Y-113340000D01*
X64650952Y-113387619D01*
X64508095Y-113387619D01*
X64412857Y-113340000D01*
X64365238Y-113292380D01*
X64317619Y-113197142D01*
X64317619Y-112816190D01*
X65317619Y-112816190D01*
X65317619Y-113149523D01*
X65270000Y-113244761D01*
X65222380Y-113292380D01*
X65127142Y-113340000D01*
X65031904Y-113340000D01*
X64936666Y-113292380D01*
X64889047Y-113244761D01*
X64841428Y-113149523D01*
X64841428Y-112816190D01*
X65317619Y-113816190D02*
X64508095Y-113816190D01*
X64412857Y-113863809D01*
X64365238Y-113911428D01*
X64317619Y-114006666D01*
X64317619Y-114197142D01*
X64365238Y-114292380D01*
X64412857Y-114340000D01*
X64508095Y-114387619D01*
X65317619Y-114387619D01*
X65317619Y-114720952D02*
X65317619Y-115292380D01*
X64317619Y-115006666D02*
X65317619Y-115006666D01*
X65317619Y-115482857D02*
X65317619Y-116054285D01*
X64317619Y-115768571D02*
X65317619Y-115768571D01*
X65317619Y-116578095D02*
X65317619Y-116768571D01*
X65270000Y-116863809D01*
X65174761Y-116959047D01*
X64984285Y-117006666D01*
X64650952Y-117006666D01*
X64460476Y-116959047D01*
X64365238Y-116863809D01*
X64317619Y-116768571D01*
X64317619Y-116578095D01*
X64365238Y-116482857D01*
X64460476Y-116387619D01*
X64650952Y-116340000D01*
X64984285Y-116340000D01*
X65174761Y-116387619D01*
X65270000Y-116482857D01*
X65317619Y-116578095D01*
X64317619Y-117435238D02*
X65317619Y-117435238D01*
X64317619Y-118006666D01*
X65317619Y-118006666D01*
X64317619Y-119006666D02*
X64317619Y-118435238D01*
X64317619Y-118720952D02*
X65317619Y-118720952D01*
X65174761Y-118625714D01*
X65079523Y-118530476D01*
X65031904Y-118435238D01*
X65222380Y-119387619D02*
X65270000Y-119435238D01*
X65317619Y-119530476D01*
X65317619Y-119768571D01*
X65270000Y-119863809D01*
X65222380Y-119911428D01*
X65127142Y-119959047D01*
X65031904Y-119959047D01*
X64889047Y-119911428D01*
X64317619Y-119340000D01*
X64317619Y-119959047D01*
X65317619Y-120292380D02*
X65317619Y-120911428D01*
X64936666Y-120578095D01*
X64936666Y-120720952D01*
X64889047Y-120816190D01*
X64841428Y-120863809D01*
X64746190Y-120911428D01*
X64508095Y-120911428D01*
X64412857Y-120863809D01*
X64365238Y-120816190D01*
X64317619Y-120720952D01*
X64317619Y-120435238D01*
X64365238Y-120340000D01*
X64412857Y-120292380D01*
X63333333Y-138438095D02*
X63333333Y-138914285D01*
X63047619Y-138342857D02*
X64047619Y-138676190D01*
X63047619Y-139009523D01*
X64095238Y-140057142D02*
X62809523Y-139200000D01*
X63571428Y-140723809D02*
X63523809Y-140866666D01*
X63476190Y-140914285D01*
X63380952Y-140961904D01*
X63238095Y-140961904D01*
X63142857Y-140914285D01*
X63095238Y-140866666D01*
X63047619Y-140771428D01*
X63047619Y-140390476D01*
X64047619Y-140390476D01*
X64047619Y-140723809D01*
X64000000Y-140819047D01*
X63952380Y-140866666D01*
X63857142Y-140914285D01*
X63761904Y-140914285D01*
X63666666Y-140866666D01*
X63619047Y-140819047D01*
X63571428Y-140723809D01*
X63571428Y-140390476D01*
X60507619Y-133858095D02*
X60983809Y-133524761D01*
X60507619Y-133286666D02*
X61507619Y-133286666D01*
X61507619Y-133667619D01*
X61460000Y-133762857D01*
X61412380Y-133810476D01*
X61317142Y-133858095D01*
X61174285Y-133858095D01*
X61079047Y-133810476D01*
X61031428Y-133762857D01*
X60983809Y-133667619D01*
X60983809Y-133286666D01*
X60507619Y-134286666D02*
X61507619Y-134286666D01*
X61507619Y-134667619D01*
X61460000Y-134762857D01*
X61412380Y-134810476D01*
X61317142Y-134858095D01*
X61174285Y-134858095D01*
X61079047Y-134810476D01*
X61031428Y-134762857D01*
X60983809Y-134667619D01*
X60983809Y-134286666D01*
X60507619Y-135286666D02*
X61507619Y-135286666D01*
X60793333Y-135620000D01*
X61507619Y-135953333D01*
X60507619Y-135953333D01*
X66270238Y-123380952D02*
X66222619Y-123523809D01*
X66222619Y-123761904D01*
X66270238Y-123857142D01*
X66317857Y-123904761D01*
X66413095Y-123952380D01*
X66508333Y-123952380D01*
X66603571Y-123904761D01*
X66651190Y-123857142D01*
X66698809Y-123761904D01*
X66746428Y-123571428D01*
X66794047Y-123476190D01*
X66841666Y-123428571D01*
X66936904Y-123380952D01*
X67032142Y-123380952D01*
X67127380Y-123428571D01*
X67175000Y-123476190D01*
X67222619Y-123571428D01*
X67222619Y-123809523D01*
X67175000Y-123952380D01*
X66746428Y-124380952D02*
X66746428Y-124714285D01*
X66222619Y-124857142D02*
X66222619Y-124380952D01*
X67222619Y-124380952D01*
X67222619Y-124857142D01*
X66222619Y-125857142D02*
X66698809Y-125523809D01*
X66222619Y-125285714D02*
X67222619Y-125285714D01*
X67222619Y-125666666D01*
X67175000Y-125761904D01*
X67127380Y-125809523D01*
X67032142Y-125857142D01*
X66889285Y-125857142D01*
X66794047Y-125809523D01*
X66746428Y-125761904D01*
X66698809Y-125666666D01*
X66698809Y-125285714D01*
X67222619Y-126142857D02*
X66222619Y-126476190D01*
X67222619Y-126809523D01*
X67222619Y-127333333D02*
X67222619Y-127523809D01*
X67175000Y-127619047D01*
X67079761Y-127714285D01*
X66889285Y-127761904D01*
X66555952Y-127761904D01*
X66365476Y-127714285D01*
X66270238Y-127619047D01*
X66222619Y-127523809D01*
X66222619Y-127333333D01*
X66270238Y-127238095D01*
X66365476Y-127142857D01*
X66555952Y-127095238D01*
X66889285Y-127095238D01*
X67079761Y-127142857D01*
X67175000Y-127238095D01*
X67222619Y-127333333D01*
X66222619Y-128714285D02*
X66222619Y-128142857D01*
X66222619Y-128428571D02*
X67222619Y-128428571D01*
X67079761Y-128333333D01*
X66984523Y-128238095D01*
X66936904Y-128142857D01*
X67127380Y-129095238D02*
X67175000Y-129142857D01*
X67222619Y-129238095D01*
X67222619Y-129476190D01*
X67175000Y-129571428D01*
X67127380Y-129619047D01*
X67032142Y-129666666D01*
X66936904Y-129666666D01*
X66794047Y-129619047D01*
X66222619Y-129047619D01*
X66222619Y-129666666D01*
X67222619Y-130000000D02*
X67222619Y-130619047D01*
X66841666Y-130285714D01*
X66841666Y-130428571D01*
X66794047Y-130523809D01*
X66746428Y-130571428D01*
X66651190Y-130619047D01*
X66413095Y-130619047D01*
X66317857Y-130571428D01*
X66270238Y-130523809D01*
X66222619Y-130428571D01*
X66222619Y-130142857D01*
X66270238Y-130047619D01*
X66317857Y-130000000D01*
X60507619Y-114459047D02*
X60983809Y-114125714D01*
X60507619Y-113887619D02*
X61507619Y-113887619D01*
X61507619Y-114268571D01*
X61460000Y-114363809D01*
X61412380Y-114411428D01*
X61317142Y-114459047D01*
X61174285Y-114459047D01*
X61079047Y-114411428D01*
X61031428Y-114363809D01*
X60983809Y-114268571D01*
X60983809Y-113887619D01*
X60602857Y-115459047D02*
X60555238Y-115411428D01*
X60507619Y-115268571D01*
X60507619Y-115173333D01*
X60555238Y-115030476D01*
X60650476Y-114935238D01*
X60745714Y-114887619D01*
X60936190Y-114840000D01*
X61079047Y-114840000D01*
X61269523Y-114887619D01*
X61364761Y-114935238D01*
X61460000Y-115030476D01*
X61507619Y-115173333D01*
X61507619Y-115268571D01*
X61460000Y-115411428D01*
X61412380Y-115459047D01*
X60507619Y-115887619D02*
X61507619Y-115887619D01*
X60507619Y-116363809D02*
X61507619Y-116363809D01*
X60507619Y-116935238D01*
X61507619Y-116935238D01*
X60507619Y-117935238D02*
X60507619Y-117363809D01*
X60507619Y-117649523D02*
X61507619Y-117649523D01*
X61364761Y-117554285D01*
X61269523Y-117459047D01*
X61221904Y-117363809D01*
X61412380Y-118316190D02*
X61460000Y-118363809D01*
X61507619Y-118459047D01*
X61507619Y-118697142D01*
X61460000Y-118792380D01*
X61412380Y-118840000D01*
X61317142Y-118887619D01*
X61221904Y-118887619D01*
X61079047Y-118840000D01*
X60507619Y-118268571D01*
X60507619Y-118887619D01*
X61507619Y-119220952D02*
X61507619Y-119840000D01*
X61126666Y-119506666D01*
X61126666Y-119649523D01*
X61079047Y-119744761D01*
X61031428Y-119792380D01*
X60936190Y-119840000D01*
X60698095Y-119840000D01*
X60602857Y-119792380D01*
X60555238Y-119744761D01*
X60507619Y-119649523D01*
X60507619Y-119363809D01*
X60555238Y-119268571D01*
X60602857Y-119220952D01*
D11*
X124460000Y-138430000D02*
X124460000Y-118110000D01*
X81280000Y-138430000D02*
X124460000Y-138430000D01*
X81280000Y-118110000D02*
X81280000Y-138430000D01*
X124460000Y-118110000D02*
X81280000Y-118110000D01*
X124460000Y-116840000D02*
X124460000Y-101600000D01*
X99060000Y-116840000D02*
X124460000Y-116840000D01*
X99060000Y-101600000D02*
X99060000Y-116840000D01*
X124460000Y-101600000D02*
X99060000Y-101600000D01*
D10*
X43902380Y-128619047D02*
X43902380Y-129095238D01*
X44378571Y-129142857D01*
X44330952Y-129095238D01*
X44283333Y-129000000D01*
X44283333Y-128761904D01*
X44330952Y-128666666D01*
X44378571Y-128619047D01*
X44473809Y-128571428D01*
X44711904Y-128571428D01*
X44807142Y-128619047D01*
X44854761Y-128666666D01*
X44902380Y-128761904D01*
X44902380Y-129000000D01*
X44854761Y-129095238D01*
X44807142Y-129142857D01*
X43902380Y-127952380D02*
X43902380Y-127857142D01*
X43950000Y-127761904D01*
X43997619Y-127714285D01*
X44092857Y-127666666D01*
X44283333Y-127619047D01*
X44521428Y-127619047D01*
X44711904Y-127666666D01*
X44807142Y-127714285D01*
X44854761Y-127761904D01*
X44902380Y-127857142D01*
X44902380Y-127952380D01*
X44854761Y-128047619D01*
X44807142Y-128095238D01*
X44711904Y-128142857D01*
X44521428Y-128190476D01*
X44283333Y-128190476D01*
X44092857Y-128142857D01*
X43997619Y-128095238D01*
X43950000Y-128047619D01*
X43902380Y-127952380D01*
X44854761Y-127142857D02*
X44902380Y-127142857D01*
X44997619Y-127190476D01*
X45045238Y-127238095D01*
X43902380Y-126523809D02*
X43902380Y-126428571D01*
X43950000Y-126333333D01*
X43997619Y-126285714D01*
X44092857Y-126238095D01*
X44283333Y-126190476D01*
X44521428Y-126190476D01*
X44711904Y-126238095D01*
X44807142Y-126285714D01*
X44854761Y-126333333D01*
X44902380Y-126428571D01*
X44902380Y-126523809D01*
X44854761Y-126619047D01*
X44807142Y-126666666D01*
X44711904Y-126714285D01*
X44521428Y-126761904D01*
X44283333Y-126761904D01*
X44092857Y-126714285D01*
X43997619Y-126666666D01*
X43950000Y-126619047D01*
X43902380Y-126523809D01*
X43902380Y-125571428D02*
X43902380Y-125476190D01*
X43950000Y-125380952D01*
X43997619Y-125333333D01*
X44092857Y-125285714D01*
X44283333Y-125238095D01*
X44521428Y-125238095D01*
X44711904Y-125285714D01*
X44807142Y-125333333D01*
X44854761Y-125380952D01*
X44902380Y-125476190D01*
X44902380Y-125571428D01*
X44854761Y-125666666D01*
X44807142Y-125714285D01*
X44711904Y-125761904D01*
X44521428Y-125809523D01*
X44283333Y-125809523D01*
X44092857Y-125761904D01*
X43997619Y-125714285D01*
X43950000Y-125666666D01*
X43902380Y-125571428D01*
X43902380Y-124619047D02*
X43902380Y-124523809D01*
X43950000Y-124428571D01*
X43997619Y-124380952D01*
X44092857Y-124333333D01*
X44283333Y-124285714D01*
X44521428Y-124285714D01*
X44711904Y-124333333D01*
X44807142Y-124380952D01*
X44854761Y-124428571D01*
X44902380Y-124523809D01*
X44902380Y-124619047D01*
X44854761Y-124714285D01*
X44807142Y-124761904D01*
X44711904Y-124809523D01*
X44521428Y-124857142D01*
X44283333Y-124857142D01*
X44092857Y-124809523D01*
X43997619Y-124761904D01*
X43950000Y-124714285D01*
X43902380Y-124619047D01*
X44902380Y-123095238D02*
X44235714Y-123095238D01*
X44330952Y-123095238D02*
X44283333Y-123047619D01*
X44235714Y-122952380D01*
X44235714Y-122809523D01*
X44283333Y-122714285D01*
X44378571Y-122666666D01*
X44902380Y-122666666D01*
X44378571Y-122666666D02*
X44283333Y-122619047D01*
X44235714Y-122523809D01*
X44235714Y-122380952D01*
X44283333Y-122285714D01*
X44378571Y-122238095D01*
X44902380Y-122238095D01*
X44902380Y-121761904D02*
X44235714Y-121761904D01*
X44330952Y-121761904D02*
X44283333Y-121714285D01*
X44235714Y-121619047D01*
X44235714Y-121476190D01*
X44283333Y-121380952D01*
X44378571Y-121333333D01*
X44902380Y-121333333D01*
X44378571Y-121333333D02*
X44283333Y-121285714D01*
X44235714Y-121190476D01*
X44235714Y-121047619D01*
X44283333Y-120952380D01*
X44378571Y-120904761D01*
X44902380Y-120904761D01*
D11*
X45720000Y-150000000D02*
X45720000Y-100000000D01*
X50000000Y-150000000D02*
X45133579Y-150000000D01*
X50000000Y-100000000D02*
X45133579Y-100000000D01*
X45720000Y-100000000D02*
X46306421Y-101126504D01*
X45720000Y-100000000D02*
X45133579Y-101126504D01*
X45720000Y-150000000D02*
X46306421Y-148873496D01*
X45720000Y-150000000D02*
X45133579Y-148873496D01*
D10*
X95952380Y-159202379D02*
X95380952Y-159202379D01*
X95666666Y-159202379D02*
X95666666Y-158202379D01*
X95571428Y-158345237D01*
X95476190Y-158440475D01*
X95380952Y-158488094D01*
X96571428Y-158202379D02*
X96666666Y-158202379D01*
X96761904Y-158249999D01*
X96809523Y-158297618D01*
X96857142Y-158392856D01*
X96904761Y-158583332D01*
X96904761Y-158821427D01*
X96857142Y-159011903D01*
X96809523Y-159107141D01*
X96761904Y-159154760D01*
X96666666Y-159202379D01*
X96571428Y-159202379D01*
X96476190Y-159154760D01*
X96428571Y-159107141D01*
X96380952Y-159011903D01*
X96333333Y-158821427D01*
X96333333Y-158583332D01*
X96380952Y-158392856D01*
X96428571Y-158297618D01*
X96476190Y-158249999D01*
X96571428Y-158202379D01*
X97523809Y-158202379D02*
X97619047Y-158202379D01*
X97714285Y-158249999D01*
X97761904Y-158297618D01*
X97809523Y-158392856D01*
X97857142Y-158583332D01*
X97857142Y-158821427D01*
X97809523Y-159011903D01*
X97761904Y-159107141D01*
X97714285Y-159154760D01*
X97619047Y-159202379D01*
X97523809Y-159202379D01*
X97428571Y-159154760D01*
X97380952Y-159107141D01*
X97333333Y-159011903D01*
X97285714Y-158821427D01*
X97285714Y-158583332D01*
X97333333Y-158392856D01*
X97380952Y-158297618D01*
X97428571Y-158249999D01*
X97523809Y-158202379D01*
X98333333Y-159154760D02*
X98333333Y-159202379D01*
X98285714Y-159297618D01*
X98238095Y-159345237D01*
X98952380Y-158202379D02*
X99047619Y-158202379D01*
X99142857Y-158249999D01*
X99190476Y-158297618D01*
X99238095Y-158392856D01*
X99285714Y-158583332D01*
X99285714Y-158821427D01*
X99238095Y-159011903D01*
X99190476Y-159107141D01*
X99142857Y-159154760D01*
X99047619Y-159202379D01*
X98952380Y-159202379D01*
X98857142Y-159154760D01*
X98809523Y-159107141D01*
X98761904Y-159011903D01*
X98714285Y-158821427D01*
X98714285Y-158583332D01*
X98761904Y-158392856D01*
X98809523Y-158297618D01*
X98857142Y-158249999D01*
X98952380Y-158202379D01*
X99904761Y-158202379D02*
X100000000Y-158202379D01*
X100095238Y-158249999D01*
X100142857Y-158297618D01*
X100190476Y-158392856D01*
X100238095Y-158583332D01*
X100238095Y-158821427D01*
X100190476Y-159011903D01*
X100142857Y-159107141D01*
X100095238Y-159154760D01*
X100000000Y-159202379D01*
X99904761Y-159202379D01*
X99809523Y-159154760D01*
X99761904Y-159107141D01*
X99714285Y-159011903D01*
X99666666Y-158821427D01*
X99666666Y-158583332D01*
X99714285Y-158392856D01*
X99761904Y-158297618D01*
X99809523Y-158249999D01*
X99904761Y-158202379D01*
X100857142Y-158202379D02*
X100952380Y-158202379D01*
X101047619Y-158249999D01*
X101095238Y-158297618D01*
X101142857Y-158392856D01*
X101190476Y-158583332D01*
X101190476Y-158821427D01*
X101142857Y-159011903D01*
X101095238Y-159107141D01*
X101047619Y-159154760D01*
X100952380Y-159202379D01*
X100857142Y-159202379D01*
X100761904Y-159154760D01*
X100714285Y-159107141D01*
X100666666Y-159011903D01*
X100619047Y-158821427D01*
X100619047Y-158583332D01*
X100666666Y-158392856D01*
X100714285Y-158297618D01*
X100761904Y-158249999D01*
X100857142Y-158202379D01*
X102380952Y-159202379D02*
X102380952Y-158535713D01*
X102380952Y-158630951D02*
X102428571Y-158583332D01*
X102523809Y-158535713D01*
X102666666Y-158535713D01*
X102761904Y-158583332D01*
X102809523Y-158678570D01*
X102809523Y-159202379D01*
X102809523Y-158678570D02*
X102857142Y-158583332D01*
X102952380Y-158535713D01*
X103095238Y-158535713D01*
X103190476Y-158583332D01*
X103238095Y-158678570D01*
X103238095Y-159202379D01*
X103714285Y-159202379D02*
X103714285Y-158535713D01*
X103714285Y-158630951D02*
X103761904Y-158583332D01*
X103857142Y-158535713D01*
X104000000Y-158535713D01*
X104095238Y-158583332D01*
X104142857Y-158678570D01*
X104142857Y-159202379D01*
X104142857Y-158678570D02*
X104190476Y-158583332D01*
X104285714Y-158535713D01*
X104428571Y-158535713D01*
X104523809Y-158583332D01*
X104571428Y-158678570D01*
X104571428Y-159202379D01*
D11*
X50000000Y-157479999D02*
X150000000Y-157479999D01*
X50000000Y-150000000D02*
X50000000Y-158066420D01*
X150000000Y-150000000D02*
X150000000Y-158066420D01*
X150000000Y-157479999D02*
X148873496Y-158066420D01*
X150000000Y-157479999D02*
X148873496Y-156893578D01*
X50000000Y-157479999D02*
X51126504Y-158066420D01*
X50000000Y-157479999D02*
X51126504Y-156893578D01*
X81790000Y-130870000D02*
X81790000Y-131570000D01*
X81790000Y-131570000D02*
X82490000Y-131570000D01*
X81790000Y-118050000D02*
X81790000Y-117350000D01*
X81790000Y-117350000D02*
X82490000Y-117350000D01*
X96010000Y-130870000D02*
X96010000Y-131570000D01*
X96010000Y-131570000D02*
X95310000Y-131570000D01*
X96010000Y-118050000D02*
X96010000Y-117350000D01*
X96010000Y-117350000D02*
X95310000Y-117350000D01*
X95310000Y-117350000D02*
X95310000Y-115985000D01*
X147148733Y-118620000D02*
X147491267Y-118620000D01*
X147148733Y-117600000D02*
X147491267Y-117600000D01*
X146273733Y-122430000D02*
X146616267Y-122430000D01*
X146273733Y-121410000D02*
X146616267Y-121410000D01*
X77980000Y-131856267D02*
X77980000Y-131513733D01*
X76960000Y-131856267D02*
X76960000Y-131513733D01*
X77980000Y-119156267D02*
X77980000Y-118813733D01*
X76960000Y-119156267D02*
X76960000Y-118813733D01*
X98300000Y-133573733D02*
X98300000Y-133916267D01*
X97280000Y-133573733D02*
X97280000Y-133916267D01*
X77246267Y-129415000D02*
X76903733Y-129415000D01*
X77246267Y-128395000D02*
X76903733Y-128395000D01*
X97858733Y-137035000D02*
X98201267Y-137035000D01*
X97858733Y-136015000D02*
X98201267Y-136015000D01*
X100398733Y-115695000D02*
X100741267Y-115695000D01*
X100398733Y-116715000D02*
X100741267Y-116715000D01*
X100398733Y-117600000D02*
X100741267Y-117600000D01*
X100398733Y-118620000D02*
X100741267Y-118620000D01*
X61920000Y-109565000D02*
X61920000Y-106705000D01*
X60000000Y-109565000D02*
X61920000Y-109565000D01*
X60000000Y-106705000D02*
X60000000Y-109565000D01*
X62540000Y-106705000D02*
X62540000Y-109565000D01*
X62540000Y-109565000D02*
X64460000Y-109565000D01*
X64460000Y-109565000D02*
X64460000Y-106705000D01*
X65080000Y-106705000D02*
X65080000Y-109565000D01*
X65080000Y-109565000D02*
X67000000Y-109565000D01*
X67000000Y-109565000D02*
X67000000Y-106705000D01*
X69540000Y-109565000D02*
X69540000Y-106705000D01*
X67620000Y-109565000D02*
X69540000Y-109565000D01*
X67620000Y-106705000D02*
X67620000Y-109565000D01*
X70160000Y-106705000D02*
X70160000Y-109565000D01*
X70160000Y-109565000D02*
X72080000Y-109565000D01*
X72080000Y-109565000D02*
X72080000Y-106705000D01*
X74620000Y-109565000D02*
X74620000Y-106705000D01*
X72700000Y-109565000D02*
X74620000Y-109565000D01*
X72700000Y-106705000D02*
X72700000Y-109565000D01*
X77160000Y-109565000D02*
X77160000Y-106705000D01*
X75240000Y-109565000D02*
X77160000Y-109565000D01*
X75240000Y-106705000D02*
X75240000Y-109565000D01*
X77780000Y-106705000D02*
X77780000Y-109565000D01*
X77780000Y-109565000D02*
X79700000Y-109565000D01*
X79700000Y-109565000D02*
X79700000Y-106705000D01*
X59750000Y-112970000D02*
X59750000Y-114300000D01*
X58420000Y-112970000D02*
X59750000Y-112970000D01*
X57150000Y-112970000D02*
X57150000Y-115630000D01*
X57150000Y-115630000D02*
X52010000Y-115630000D01*
X57150000Y-112970000D02*
X52010000Y-112970000D01*
X52010000Y-112970000D02*
X52010000Y-115630000D01*
X52010000Y-115510000D02*
X52010000Y-118170000D01*
X57150000Y-115510000D02*
X52010000Y-115510000D01*
X57150000Y-118170000D02*
X52010000Y-118170000D01*
X57150000Y-115510000D02*
X57150000Y-118170000D01*
X58420000Y-115510000D02*
X59750000Y-115510000D01*
X59750000Y-115510000D02*
X59750000Y-116840000D01*
X59750000Y-118050000D02*
X59750000Y-119380000D01*
X58420000Y-118050000D02*
X59750000Y-118050000D01*
X57150000Y-118050000D02*
X57150000Y-120710000D01*
X57150000Y-120710000D02*
X52010000Y-120710000D01*
X57150000Y-118050000D02*
X52010000Y-118050000D01*
X52010000Y-118050000D02*
X52010000Y-120710000D01*
X52010000Y-123130000D02*
X52010000Y-125790000D01*
X57150000Y-123130000D02*
X52010000Y-123130000D01*
X57150000Y-125790000D02*
X52010000Y-125790000D01*
X57150000Y-123130000D02*
X57150000Y-125790000D01*
X58420000Y-123130000D02*
X59750000Y-123130000D01*
X59750000Y-123130000D02*
X59750000Y-124460000D01*
X59750000Y-125670000D02*
X59750000Y-127000000D01*
X58420000Y-125670000D02*
X59750000Y-125670000D01*
X57150000Y-125670000D02*
X57150000Y-128330000D01*
X57150000Y-128330000D02*
X52010000Y-128330000D01*
X57150000Y-125670000D02*
X52010000Y-125670000D01*
X52010000Y-125670000D02*
X52010000Y-128330000D01*
X52010000Y-128210000D02*
X52010000Y-130870000D01*
X57150000Y-128210000D02*
X52010000Y-128210000D01*
X57150000Y-130870000D02*
X52010000Y-130870000D01*
X57150000Y-128210000D02*
X57150000Y-130870000D01*
X58420000Y-128210000D02*
X59750000Y-128210000D01*
X59750000Y-128210000D02*
X59750000Y-129540000D01*
X52010000Y-133290000D02*
X52010000Y-135950000D01*
X57150000Y-133290000D02*
X52010000Y-133290000D01*
X57150000Y-135950000D02*
X52010000Y-135950000D01*
X57150000Y-133290000D02*
X57150000Y-135950000D01*
X58420000Y-133290000D02*
X59750000Y-133290000D01*
X59750000Y-133290000D02*
X59750000Y-134620000D01*
X73720000Y-112970000D02*
X73720000Y-114300000D01*
X72390000Y-112970000D02*
X73720000Y-112970000D01*
X71120000Y-112970000D02*
X71120000Y-115630000D01*
X71120000Y-115630000D02*
X65980000Y-115630000D01*
X71120000Y-112970000D02*
X65980000Y-112970000D01*
X65980000Y-112970000D02*
X65980000Y-115630000D01*
X65980000Y-115510000D02*
X65980000Y-118170000D01*
X71120000Y-115510000D02*
X65980000Y-115510000D01*
X71120000Y-118170000D02*
X65980000Y-118170000D01*
X71120000Y-115510000D02*
X71120000Y-118170000D01*
X72390000Y-115510000D02*
X73720000Y-115510000D01*
X73720000Y-115510000D02*
X73720000Y-116840000D01*
X73720000Y-118050000D02*
X73720000Y-119380000D01*
X72390000Y-118050000D02*
X73720000Y-118050000D01*
X71120000Y-118050000D02*
X71120000Y-120710000D01*
X71120000Y-120710000D02*
X65980000Y-120710000D01*
X71120000Y-118050000D02*
X65980000Y-118050000D01*
X65980000Y-118050000D02*
X65980000Y-120710000D01*
X120590000Y-102810000D02*
X121920000Y-102810000D01*
X120590000Y-104140000D02*
X120590000Y-102810000D01*
X120590000Y-105410000D02*
X123250000Y-105410000D01*
X123250000Y-105410000D02*
X123250000Y-115630000D01*
X120590000Y-105410000D02*
X120590000Y-115630000D01*
X120590000Y-115630000D02*
X123250000Y-115630000D01*
X82490000Y-104080000D02*
X82490000Y-106740000D01*
X92710000Y-104080000D02*
X82490000Y-104080000D01*
X92710000Y-106740000D02*
X82490000Y-106740000D01*
X92710000Y-104080000D02*
X92710000Y-106740000D01*
X93980000Y-104080000D02*
X95310000Y-104080000D01*
X95310000Y-104080000D02*
X95310000Y-105410000D01*
X147380000Y-128330000D02*
X147380000Y-125670000D01*
X144780000Y-128330000D02*
X147380000Y-128330000D01*
X144780000Y-125670000D02*
X147380000Y-125670000D01*
X144780000Y-128330000D02*
X144780000Y-125670000D01*
X143510000Y-128330000D02*
X142180000Y-128330000D01*
X142180000Y-128330000D02*
X142180000Y-127000000D01*
X120710000Y-121860000D02*
X118050000Y-121860000D01*
X120710000Y-134620000D02*
X120710000Y-121860000D01*
X118050000Y-134620000D02*
X118050000Y-121860000D01*
X120710000Y-134620000D02*
X118050000Y-134620000D01*
X120710000Y-135890000D02*
X120710000Y-137220000D01*
X120710000Y-137220000D02*
X119380000Y-137220000D01*
X123250000Y-119320000D02*
X120590000Y-119320000D01*
X123250000Y-134620000D02*
X123250000Y-119320000D01*
X120590000Y-134620000D02*
X120590000Y-119320000D01*
X123250000Y-134620000D02*
X120590000Y-134620000D01*
X123250000Y-135890000D02*
X123250000Y-137220000D01*
X123250000Y-137220000D02*
X121920000Y-137220000D01*
X62006267Y-124970000D02*
X61663733Y-124970000D01*
X62006267Y-123950000D02*
X61663733Y-123950000D01*
X62006267Y-126490000D02*
X61663733Y-126490000D01*
X62006267Y-127510000D02*
X61663733Y-127510000D01*
X62006267Y-130050000D02*
X61663733Y-130050000D01*
X62006267Y-129030000D02*
X61663733Y-129030000D01*
X67820000Y-139528733D02*
X67820000Y-139871267D01*
X66800000Y-139528733D02*
X66800000Y-139871267D01*
X64260000Y-139528733D02*
X64260000Y-139871267D01*
X65280000Y-139528733D02*
X65280000Y-139871267D01*
X78230000Y-139528733D02*
X78230000Y-139871267D01*
X79250000Y-139528733D02*
X79250000Y-139871267D01*
X75440000Y-139528733D02*
X75440000Y-139871267D01*
X74420000Y-139528733D02*
X74420000Y-139871267D01*
X103630000Y-139133733D02*
X103630000Y-139476267D01*
X104650000Y-139133733D02*
X104650000Y-139476267D01*
X100840000Y-139133733D02*
X100840000Y-139476267D01*
X99820000Y-139133733D02*
X99820000Y-139476267D01*
X90930000Y-139528733D02*
X90930000Y-139871267D01*
X91950000Y-139528733D02*
X91950000Y-139871267D01*
X88140000Y-139528733D02*
X88140000Y-139871267D01*
X87120000Y-139528733D02*
X87120000Y-139871267D01*
X143733733Y-117600000D02*
X144076267Y-117600000D01*
X143733733Y-118620000D02*
X144076267Y-118620000D01*
X143000000Y-122966267D02*
X143000000Y-122623733D01*
X144020000Y-122966267D02*
X144020000Y-122623733D01*
X146273733Y-124970000D02*
X146616267Y-124970000D01*
X146273733Y-123950000D02*
X146616267Y-123950000D01*
X60450000Y-103916267D02*
X60450000Y-103573733D01*
X61470000Y-103916267D02*
X61470000Y-103573733D01*
X62990000Y-103916267D02*
X62990000Y-103573733D01*
X64010000Y-103916267D02*
X64010000Y-103573733D01*
X65530000Y-103916267D02*
X65530000Y-103573733D01*
X66550000Y-103916267D02*
X66550000Y-103573733D01*
X69090000Y-103916267D02*
X69090000Y-103573733D01*
X68070000Y-103916267D02*
X68070000Y-103573733D01*
X70610000Y-103916267D02*
X70610000Y-103573733D01*
X71630000Y-103916267D02*
X71630000Y-103573733D01*
X74170000Y-103916267D02*
X74170000Y-103573733D01*
X73150000Y-103916267D02*
X73150000Y-103573733D01*
X76710000Y-103916267D02*
X76710000Y-103573733D01*
X75690000Y-103916267D02*
X75690000Y-103573733D01*
X79250000Y-103916267D02*
X79250000Y-103573733D01*
X78230000Y-103916267D02*
X78230000Y-103573733D01*
X100398733Y-121160000D02*
X100741267Y-121160000D01*
X100398733Y-120140000D02*
X100741267Y-120140000D01*
X141820000Y-110220000D02*
X141820000Y-114720000D01*
X145820000Y-108970000D02*
X144320000Y-108970000D01*
X148320000Y-114720000D02*
X148320000Y-110220000D01*
X144320000Y-115970000D02*
X145820000Y-115970000D01*
X138040000Y-127420000D02*
X138040000Y-135270000D01*
X138040000Y-135270000D02*
X126100000Y-135270000D01*
X126100000Y-135270000D02*
X126100000Y-127420000D01*
X126100000Y-127420000D02*
X138040000Y-127420000D01*
X138370000Y-129540000D02*
X138370000Y-127090000D01*
X138370000Y-127090000D02*
X136040000Y-127090000D01*
X138370000Y-138520000D02*
X136040000Y-138520000D01*
X138370000Y-140970000D02*
X138370000Y-138520000D01*
X126100000Y-138850000D02*
X138040000Y-138850000D01*
X126100000Y-146700000D02*
X126100000Y-138850000D01*
X138040000Y-146700000D02*
X126100000Y-146700000D01*
X138040000Y-138850000D02*
X138040000Y-146700000D01*
X138040000Y-115990000D02*
X138040000Y-123840000D01*
X138040000Y-123840000D02*
X126100000Y-123840000D01*
X126100000Y-123840000D02*
X126100000Y-115990000D01*
X126100000Y-115990000D02*
X138040000Y-115990000D01*
X138370000Y-118110000D02*
X138370000Y-115660000D01*
X138370000Y-115660000D02*
X136040000Y-115660000D01*
X138370000Y-104230000D02*
X136040000Y-104230000D01*
X138370000Y-106680000D02*
X138370000Y-104230000D01*
X126100000Y-104560000D02*
X138040000Y-104560000D01*
X126100000Y-112410000D02*
X126100000Y-104560000D01*
X138040000Y-112410000D02*
X126100000Y-112410000D01*
X138040000Y-104560000D02*
X138040000Y-112410000D01*
X68520000Y-149285000D02*
X71180000Y-149285000D01*
X68520000Y-141605000D02*
X68520000Y-149285000D01*
X71180000Y-141605000D02*
X71180000Y-149285000D01*
X68520000Y-141605000D02*
X71180000Y-141605000D01*
X68520000Y-140335000D02*
X68520000Y-139005000D01*
X68520000Y-139005000D02*
X69850000Y-139005000D01*
X81220000Y-139005000D02*
X82550000Y-139005000D01*
X81220000Y-140335000D02*
X81220000Y-139005000D01*
X81220000Y-141605000D02*
X83880000Y-141605000D01*
X83880000Y-141605000D02*
X83880000Y-149285000D01*
X81220000Y-141605000D02*
X81220000Y-149285000D01*
X81220000Y-149285000D02*
X83880000Y-149285000D01*
X106620000Y-149285000D02*
X109280000Y-149285000D01*
X106620000Y-141605000D02*
X106620000Y-149285000D01*
X109280000Y-141605000D02*
X109280000Y-149285000D01*
X106620000Y-141605000D02*
X109280000Y-141605000D01*
X106620000Y-140335000D02*
X106620000Y-139005000D01*
X106620000Y-139005000D02*
X107950000Y-139005000D01*
X93920000Y-139005000D02*
X95250000Y-139005000D01*
X93920000Y-140335000D02*
X93920000Y-139005000D01*
X93920000Y-141605000D02*
X96580000Y-141605000D01*
X96580000Y-141605000D02*
X96580000Y-149285000D01*
X93920000Y-141605000D02*
X93920000Y-149285000D01*
X93920000Y-149285000D02*
X96580000Y-149285000D01*
X52010000Y-138370000D02*
X52010000Y-141030000D01*
X59690000Y-138370000D02*
X52010000Y-138370000D01*
X59690000Y-141030000D02*
X52010000Y-141030000D01*
X59690000Y-138370000D02*
X59690000Y-141030000D01*
X60960000Y-138370000D02*
X62290000Y-138370000D01*
X62290000Y-138370000D02*
X62290000Y-139700000D01*
X65440000Y-148695000D02*
X61560000Y-148695000D01*
X60390000Y-145575000D02*
X61440000Y-145575000D01*
X60390000Y-146725000D02*
X60390000Y-145575000D01*
X65560000Y-145575000D02*
X65560000Y-144585000D01*
X66610000Y-145575000D02*
X65560000Y-145575000D01*
X66610000Y-146725000D02*
X66610000Y-145575000D01*
X79310000Y-146725000D02*
X79310000Y-145575000D01*
X79310000Y-145575000D02*
X78260000Y-145575000D01*
X78260000Y-145575000D02*
X78260000Y-144585000D01*
X73090000Y-146725000D02*
X73090000Y-145575000D01*
X73090000Y-145575000D02*
X74140000Y-145575000D01*
X78140000Y-148695000D02*
X74260000Y-148695000D01*
X104710000Y-146725000D02*
X104710000Y-145575000D01*
X104710000Y-145575000D02*
X103660000Y-145575000D01*
X103660000Y-145575000D02*
X103660000Y-144585000D01*
X98490000Y-146725000D02*
X98490000Y-145575000D01*
X98490000Y-145575000D02*
X99540000Y-145575000D01*
X103540000Y-148695000D02*
X99660000Y-148695000D01*
X90840000Y-148695000D02*
X86960000Y-148695000D01*
X85790000Y-145575000D02*
X86840000Y-145575000D01*
X85790000Y-146725000D02*
X85790000Y-145575000D01*
X90960000Y-145575000D02*
X90960000Y-144585000D01*
X92010000Y-145575000D02*
X90960000Y-145575000D01*
X92010000Y-146725000D02*
X92010000Y-145575000D01*
X140520000Y-140150000D02*
X143570000Y-140150000D01*
X149040000Y-140150000D02*
X145990000Y-140150000D01*
X149040000Y-132694437D02*
X149040000Y-140150000D01*
X140520000Y-132694437D02*
X140520000Y-140150000D01*
X141584437Y-131630000D02*
X143570000Y-131630000D01*
X147975563Y-131630000D02*
X145990000Y-131630000D01*
X147975563Y-131630000D02*
X149040000Y-132694437D01*
X141584437Y-131630000D02*
X140520000Y-132694437D01*
X146990000Y-130390000D02*
X146990000Y-131390000D01*
X147490000Y-130890000D02*
X146490000Y-130890000D01*
D10*
X97772380Y-125221904D02*
X98581904Y-125221904D01*
X98677142Y-125174285D01*
X98724761Y-125126666D01*
X98772380Y-125031428D01*
X98772380Y-124840952D01*
X98724761Y-124745714D01*
X98677142Y-124698095D01*
X98581904Y-124650476D01*
X97772380Y-124650476D01*
X97772380Y-123698095D02*
X97772380Y-124174285D01*
X98248571Y-124221904D01*
X98200952Y-124174285D01*
X98153333Y-124079047D01*
X98153333Y-123840952D01*
X98200952Y-123745714D01*
X98248571Y-123698095D01*
X98343809Y-123650476D01*
X98581904Y-123650476D01*
X98677142Y-123698095D01*
X98724761Y-123745714D01*
X98772380Y-123840952D01*
X98772380Y-124079047D01*
X98724761Y-124174285D01*
X98677142Y-124221904D01*
X146518333Y-119737142D02*
X146470714Y-119784761D01*
X146327857Y-119832380D01*
X146232619Y-119832380D01*
X146089761Y-119784761D01*
X145994523Y-119689523D01*
X145946904Y-119594285D01*
X145899285Y-119403809D01*
X145899285Y-119260952D01*
X145946904Y-119070476D01*
X145994523Y-118975238D01*
X146089761Y-118880000D01*
X146232619Y-118832380D01*
X146327857Y-118832380D01*
X146470714Y-118880000D01*
X146518333Y-118927619D01*
X147470714Y-119832380D02*
X146899285Y-119832380D01*
X147185000Y-119832380D02*
X147185000Y-118832380D01*
X147089761Y-118975238D01*
X146994523Y-119070476D01*
X146899285Y-119118095D01*
X146518333Y-121007142D02*
X146470714Y-121054761D01*
X146327857Y-121102380D01*
X146232619Y-121102380D01*
X146089761Y-121054761D01*
X145994523Y-120959523D01*
X145946904Y-120864285D01*
X145899285Y-120673809D01*
X145899285Y-120530952D01*
X145946904Y-120340476D01*
X145994523Y-120245238D01*
X146089761Y-120150000D01*
X146232619Y-120102380D01*
X146327857Y-120102380D01*
X146470714Y-120150000D01*
X146518333Y-120197619D01*
X146851666Y-120102380D02*
X147470714Y-120102380D01*
X147137380Y-120483333D01*
X147280238Y-120483333D01*
X147375476Y-120530952D01*
X147423095Y-120578571D01*
X147470714Y-120673809D01*
X147470714Y-120911904D01*
X147423095Y-121007142D01*
X147375476Y-121054761D01*
X147280238Y-121102380D01*
X146994523Y-121102380D01*
X146899285Y-121054761D01*
X146851666Y-121007142D01*
X77827142Y-134786666D02*
X77874761Y-134834285D01*
X77922380Y-134977142D01*
X77922380Y-135072380D01*
X77874761Y-135215238D01*
X77779523Y-135310476D01*
X77684285Y-135358095D01*
X77493809Y-135405714D01*
X77350952Y-135405714D01*
X77160476Y-135358095D01*
X77065238Y-135310476D01*
X76970000Y-135215238D01*
X76922380Y-135072380D01*
X76922380Y-134977142D01*
X76970000Y-134834285D01*
X77017619Y-134786666D01*
X76922380Y-133929523D02*
X76922380Y-134120000D01*
X76970000Y-134215238D01*
X77017619Y-134262857D01*
X77160476Y-134358095D01*
X77350952Y-134405714D01*
X77731904Y-134405714D01*
X77827142Y-134358095D01*
X77874761Y-134310476D01*
X77922380Y-134215238D01*
X77922380Y-134024761D01*
X77874761Y-133929523D01*
X77827142Y-133881904D01*
X77731904Y-133834285D01*
X77493809Y-133834285D01*
X77398571Y-133881904D01*
X77350952Y-133929523D01*
X77303333Y-134024761D01*
X77303333Y-134215238D01*
X77350952Y-134310476D01*
X77398571Y-134358095D01*
X77493809Y-134405714D01*
X77827142Y-116371666D02*
X77874761Y-116419285D01*
X77922380Y-116562142D01*
X77922380Y-116657380D01*
X77874761Y-116800238D01*
X77779523Y-116895476D01*
X77684285Y-116943095D01*
X77493809Y-116990714D01*
X77350952Y-116990714D01*
X77160476Y-116943095D01*
X77065238Y-116895476D01*
X76970000Y-116800238D01*
X76922380Y-116657380D01*
X76922380Y-116562142D01*
X76970000Y-116419285D01*
X77017619Y-116371666D01*
X77350952Y-115800238D02*
X77303333Y-115895476D01*
X77255714Y-115943095D01*
X77160476Y-115990714D01*
X77112857Y-115990714D01*
X77017619Y-115943095D01*
X76970000Y-115895476D01*
X76922380Y-115800238D01*
X76922380Y-115609761D01*
X76970000Y-115514523D01*
X77017619Y-115466904D01*
X77112857Y-115419285D01*
X77160476Y-115419285D01*
X77255714Y-115466904D01*
X77303333Y-115514523D01*
X77350952Y-115609761D01*
X77350952Y-115800238D01*
X77398571Y-115895476D01*
X77446190Y-115943095D01*
X77541428Y-115990714D01*
X77731904Y-115990714D01*
X77827142Y-115943095D01*
X77874761Y-115895476D01*
X77922380Y-115800238D01*
X77922380Y-115609761D01*
X77874761Y-115514523D01*
X77827142Y-115466904D01*
X77731904Y-115419285D01*
X77541428Y-115419285D01*
X77446190Y-115466904D01*
X77398571Y-115514523D01*
X77350952Y-115609761D01*
X100052142Y-133516666D02*
X100099761Y-133564285D01*
X100147380Y-133707142D01*
X100147380Y-133802380D01*
X100099761Y-133945238D01*
X100004523Y-134040476D01*
X99909285Y-134088095D01*
X99718809Y-134135714D01*
X99575952Y-134135714D01*
X99385476Y-134088095D01*
X99290238Y-134040476D01*
X99195000Y-133945238D01*
X99147380Y-133802380D01*
X99147380Y-133707142D01*
X99195000Y-133564285D01*
X99242619Y-133516666D01*
X100147380Y-133040476D02*
X100147380Y-132850000D01*
X100099761Y-132754761D01*
X100052142Y-132707142D01*
X99909285Y-132611904D01*
X99718809Y-132564285D01*
X99337857Y-132564285D01*
X99242619Y-132611904D01*
X99195000Y-132659523D01*
X99147380Y-132754761D01*
X99147380Y-132945238D01*
X99195000Y-133040476D01*
X99242619Y-133088095D01*
X99337857Y-133135714D01*
X99575952Y-133135714D01*
X99671190Y-133088095D01*
X99718809Y-133040476D01*
X99766428Y-132945238D01*
X99766428Y-132754761D01*
X99718809Y-132659523D01*
X99671190Y-132611904D01*
X99575952Y-132564285D01*
X73017142Y-129262142D02*
X72969523Y-129309761D01*
X72826666Y-129357380D01*
X72731428Y-129357380D01*
X72588571Y-129309761D01*
X72493333Y-129214523D01*
X72445714Y-129119285D01*
X72398095Y-128928809D01*
X72398095Y-128785952D01*
X72445714Y-128595476D01*
X72493333Y-128500238D01*
X72588571Y-128405000D01*
X72731428Y-128357380D01*
X72826666Y-128357380D01*
X72969523Y-128405000D01*
X73017142Y-128452619D01*
X73969523Y-129357380D02*
X73398095Y-129357380D01*
X73683809Y-129357380D02*
X73683809Y-128357380D01*
X73588571Y-128500238D01*
X73493333Y-128595476D01*
X73398095Y-128643095D01*
X74588571Y-128357380D02*
X74683809Y-128357380D01*
X74779047Y-128405000D01*
X74826666Y-128452619D01*
X74874285Y-128547857D01*
X74921904Y-128738333D01*
X74921904Y-128976428D01*
X74874285Y-129166904D01*
X74826666Y-129262142D01*
X74779047Y-129309761D01*
X74683809Y-129357380D01*
X74588571Y-129357380D01*
X74493333Y-129309761D01*
X74445714Y-129262142D01*
X74398095Y-129166904D01*
X74350476Y-128976428D01*
X74350476Y-128738333D01*
X74398095Y-128547857D01*
X74445714Y-128452619D01*
X74493333Y-128405000D01*
X74588571Y-128357380D01*
X93972142Y-136882142D02*
X93924523Y-136929761D01*
X93781666Y-136977380D01*
X93686428Y-136977380D01*
X93543571Y-136929761D01*
X93448333Y-136834523D01*
X93400714Y-136739285D01*
X93353095Y-136548809D01*
X93353095Y-136405952D01*
X93400714Y-136215476D01*
X93448333Y-136120238D01*
X93543571Y-136025000D01*
X93686428Y-135977380D01*
X93781666Y-135977380D01*
X93924523Y-136025000D01*
X93972142Y-136072619D01*
X94924523Y-136977380D02*
X94353095Y-136977380D01*
X94638809Y-136977380D02*
X94638809Y-135977380D01*
X94543571Y-136120238D01*
X94448333Y-136215476D01*
X94353095Y-136263095D01*
X95305476Y-136072619D02*
X95353095Y-136025000D01*
X95448333Y-135977380D01*
X95686428Y-135977380D01*
X95781666Y-136025000D01*
X95829285Y-136072619D01*
X95876904Y-136167857D01*
X95876904Y-136263095D01*
X95829285Y-136405952D01*
X95257857Y-136977380D01*
X95876904Y-136977380D01*
X102862142Y-116562142D02*
X102814523Y-116609761D01*
X102671666Y-116657380D01*
X102576428Y-116657380D01*
X102433571Y-116609761D01*
X102338333Y-116514523D01*
X102290714Y-116419285D01*
X102243095Y-116228809D01*
X102243095Y-116085952D01*
X102290714Y-115895476D01*
X102338333Y-115800238D01*
X102433571Y-115705000D01*
X102576428Y-115657380D01*
X102671666Y-115657380D01*
X102814523Y-115705000D01*
X102862142Y-115752619D01*
X103814523Y-116657380D02*
X103243095Y-116657380D01*
X103528809Y-116657380D02*
X103528809Y-115657380D01*
X103433571Y-115800238D01*
X103338333Y-115895476D01*
X103243095Y-115943095D01*
X104147857Y-115657380D02*
X104766904Y-115657380D01*
X104433571Y-116038333D01*
X104576428Y-116038333D01*
X104671666Y-116085952D01*
X104719285Y-116133571D01*
X104766904Y-116228809D01*
X104766904Y-116466904D01*
X104719285Y-116562142D01*
X104671666Y-116609761D01*
X104576428Y-116657380D01*
X104290714Y-116657380D01*
X104195476Y-116609761D01*
X104147857Y-116562142D01*
X102862142Y-118467142D02*
X102814523Y-118514761D01*
X102671666Y-118562380D01*
X102576428Y-118562380D01*
X102433571Y-118514761D01*
X102338333Y-118419523D01*
X102290714Y-118324285D01*
X102243095Y-118133809D01*
X102243095Y-117990952D01*
X102290714Y-117800476D01*
X102338333Y-117705238D01*
X102433571Y-117610000D01*
X102576428Y-117562380D01*
X102671666Y-117562380D01*
X102814523Y-117610000D01*
X102862142Y-117657619D01*
X103814523Y-118562380D02*
X103243095Y-118562380D01*
X103528809Y-118562380D02*
X103528809Y-117562380D01*
X103433571Y-117705238D01*
X103338333Y-117800476D01*
X103243095Y-117848095D01*
X104671666Y-117895714D02*
X104671666Y-118562380D01*
X104433571Y-117514761D02*
X104195476Y-118229047D01*
X104814523Y-118229047D01*
X61412380Y-111228095D02*
X60412380Y-111228095D01*
X60412380Y-110990000D01*
X60460000Y-110847142D01*
X60555238Y-110751904D01*
X60650476Y-110704285D01*
X60840952Y-110656666D01*
X60983809Y-110656666D01*
X61174285Y-110704285D01*
X61269523Y-110751904D01*
X61364761Y-110847142D01*
X61412380Y-110990000D01*
X61412380Y-111228095D01*
X61412380Y-109704285D02*
X61412380Y-110275714D01*
X61412380Y-109990000D02*
X60412380Y-109990000D01*
X60555238Y-110085238D01*
X60650476Y-110180476D01*
X60698095Y-110275714D01*
X63952380Y-111228095D02*
X62952380Y-111228095D01*
X62952380Y-110990000D01*
X63000000Y-110847142D01*
X63095238Y-110751904D01*
X63190476Y-110704285D01*
X63380952Y-110656666D01*
X63523809Y-110656666D01*
X63714285Y-110704285D01*
X63809523Y-110751904D01*
X63904761Y-110847142D01*
X63952380Y-110990000D01*
X63952380Y-111228095D01*
X63047619Y-110275714D02*
X63000000Y-110228095D01*
X62952380Y-110132857D01*
X62952380Y-109894761D01*
X63000000Y-109799523D01*
X63047619Y-109751904D01*
X63142857Y-109704285D01*
X63238095Y-109704285D01*
X63380952Y-109751904D01*
X63952380Y-110323333D01*
X63952380Y-109704285D01*
X66492380Y-111228095D02*
X65492380Y-111228095D01*
X65492380Y-110990000D01*
X65540000Y-110847142D01*
X65635238Y-110751904D01*
X65730476Y-110704285D01*
X65920952Y-110656666D01*
X66063809Y-110656666D01*
X66254285Y-110704285D01*
X66349523Y-110751904D01*
X66444761Y-110847142D01*
X66492380Y-110990000D01*
X66492380Y-111228095D01*
X65492380Y-110323333D02*
X65492380Y-109704285D01*
X65873333Y-110037619D01*
X65873333Y-109894761D01*
X65920952Y-109799523D01*
X65968571Y-109751904D01*
X66063809Y-109704285D01*
X66301904Y-109704285D01*
X66397142Y-109751904D01*
X66444761Y-109799523D01*
X66492380Y-109894761D01*
X66492380Y-110180476D01*
X66444761Y-110275714D01*
X66397142Y-110323333D01*
X69032380Y-111228095D02*
X68032380Y-111228095D01*
X68032380Y-110990000D01*
X68080000Y-110847142D01*
X68175238Y-110751904D01*
X68270476Y-110704285D01*
X68460952Y-110656666D01*
X68603809Y-110656666D01*
X68794285Y-110704285D01*
X68889523Y-110751904D01*
X68984761Y-110847142D01*
X69032380Y-110990000D01*
X69032380Y-111228095D01*
X68365714Y-109799523D02*
X69032380Y-109799523D01*
X67984761Y-110037619D02*
X68699047Y-110275714D01*
X68699047Y-109656666D01*
X71572380Y-111228095D02*
X70572380Y-111228095D01*
X70572380Y-110990000D01*
X70620000Y-110847142D01*
X70715238Y-110751904D01*
X70810476Y-110704285D01*
X71000952Y-110656666D01*
X71143809Y-110656666D01*
X71334285Y-110704285D01*
X71429523Y-110751904D01*
X71524761Y-110847142D01*
X71572380Y-110990000D01*
X71572380Y-111228095D01*
X70572380Y-109751904D02*
X70572380Y-110228095D01*
X71048571Y-110275714D01*
X71000952Y-110228095D01*
X70953333Y-110132857D01*
X70953333Y-109894761D01*
X71000952Y-109799523D01*
X71048571Y-109751904D01*
X71143809Y-109704285D01*
X71381904Y-109704285D01*
X71477142Y-109751904D01*
X71524761Y-109799523D01*
X71572380Y-109894761D01*
X71572380Y-110132857D01*
X71524761Y-110228095D01*
X71477142Y-110275714D01*
X74112380Y-111228095D02*
X73112380Y-111228095D01*
X73112380Y-110990000D01*
X73160000Y-110847142D01*
X73255238Y-110751904D01*
X73350476Y-110704285D01*
X73540952Y-110656666D01*
X73683809Y-110656666D01*
X73874285Y-110704285D01*
X73969523Y-110751904D01*
X74064761Y-110847142D01*
X74112380Y-110990000D01*
X74112380Y-111228095D01*
X73112380Y-109799523D02*
X73112380Y-109990000D01*
X73160000Y-110085238D01*
X73207619Y-110132857D01*
X73350476Y-110228095D01*
X73540952Y-110275714D01*
X73921904Y-110275714D01*
X74017142Y-110228095D01*
X74064761Y-110180476D01*
X74112380Y-110085238D01*
X74112380Y-109894761D01*
X74064761Y-109799523D01*
X74017142Y-109751904D01*
X73921904Y-109704285D01*
X73683809Y-109704285D01*
X73588571Y-109751904D01*
X73540952Y-109799523D01*
X73493333Y-109894761D01*
X73493333Y-110085238D01*
X73540952Y-110180476D01*
X73588571Y-110228095D01*
X73683809Y-110275714D01*
X76652380Y-111228095D02*
X75652380Y-111228095D01*
X75652380Y-110990000D01*
X75700000Y-110847142D01*
X75795238Y-110751904D01*
X75890476Y-110704285D01*
X76080952Y-110656666D01*
X76223809Y-110656666D01*
X76414285Y-110704285D01*
X76509523Y-110751904D01*
X76604761Y-110847142D01*
X76652380Y-110990000D01*
X76652380Y-111228095D01*
X75652380Y-110323333D02*
X75652380Y-109656666D01*
X76652380Y-110085238D01*
X79192380Y-111228095D02*
X78192380Y-111228095D01*
X78192380Y-110990000D01*
X78240000Y-110847142D01*
X78335238Y-110751904D01*
X78430476Y-110704285D01*
X78620952Y-110656666D01*
X78763809Y-110656666D01*
X78954285Y-110704285D01*
X79049523Y-110751904D01*
X79144761Y-110847142D01*
X79192380Y-110990000D01*
X79192380Y-111228095D01*
X78620952Y-110085238D02*
X78573333Y-110180476D01*
X78525714Y-110228095D01*
X78430476Y-110275714D01*
X78382857Y-110275714D01*
X78287619Y-110228095D01*
X78240000Y-110180476D01*
X78192380Y-110085238D01*
X78192380Y-109894761D01*
X78240000Y-109799523D01*
X78287619Y-109751904D01*
X78382857Y-109704285D01*
X78430476Y-109704285D01*
X78525714Y-109751904D01*
X78573333Y-109799523D01*
X78620952Y-109894761D01*
X78620952Y-110085238D01*
X78668571Y-110180476D01*
X78716190Y-110228095D01*
X78811428Y-110275714D01*
X79001904Y-110275714D01*
X79097142Y-110228095D01*
X79144761Y-110180476D01*
X79192380Y-110085238D01*
X79192380Y-109894761D01*
X79144761Y-109799523D01*
X79097142Y-109751904D01*
X79001904Y-109704285D01*
X78811428Y-109704285D01*
X78716190Y-109751904D01*
X78668571Y-109799523D01*
X78620952Y-109894761D01*
X145923095Y-99757380D02*
X145923095Y-98757380D01*
X145923095Y-99233571D02*
X146494523Y-99233571D01*
X146494523Y-99757380D02*
X146494523Y-98757380D01*
X147494523Y-99757380D02*
X146923095Y-99757380D01*
X147208809Y-99757380D02*
X147208809Y-98757380D01*
X147113571Y-98900238D01*
X147018333Y-98995476D01*
X146923095Y-99043095D01*
X52578095Y-99757380D02*
X52578095Y-98757380D01*
X52578095Y-99233571D02*
X53149523Y-99233571D01*
X53149523Y-99757380D02*
X53149523Y-98757380D01*
X53578095Y-98852619D02*
X53625714Y-98805000D01*
X53720952Y-98757380D01*
X53959047Y-98757380D01*
X54054285Y-98805000D01*
X54101904Y-98852619D01*
X54149523Y-98947857D01*
X54149523Y-99043095D01*
X54101904Y-99185952D01*
X53530476Y-99757380D01*
X54149523Y-99757380D01*
X145923095Y-142937380D02*
X145923095Y-141937380D01*
X145923095Y-142413571D02*
X146494523Y-142413571D01*
X146494523Y-142937380D02*
X146494523Y-141937380D01*
X146875476Y-141937380D02*
X147494523Y-141937380D01*
X147161190Y-142318333D01*
X147304047Y-142318333D01*
X147399285Y-142365952D01*
X147446904Y-142413571D01*
X147494523Y-142508809D01*
X147494523Y-142746904D01*
X147446904Y-142842142D01*
X147399285Y-142889761D01*
X147304047Y-142937380D01*
X147018333Y-142937380D01*
X146923095Y-142889761D01*
X146875476Y-142842142D01*
X101238095Y-101252380D02*
X101238095Y-100252380D01*
X101238095Y-100728571D02*
X101809523Y-100728571D01*
X101809523Y-101252380D02*
X101809523Y-100252380D01*
X102714285Y-100585714D02*
X102714285Y-101252380D01*
X102476190Y-100204761D02*
X102238095Y-100919047D01*
X102857142Y-100919047D01*
X52578095Y-142937380D02*
X52578095Y-141937380D01*
X52578095Y-142413571D02*
X53149523Y-142413571D01*
X53149523Y-142937380D02*
X53149523Y-141937380D01*
X54101904Y-141937380D02*
X53625714Y-141937380D01*
X53578095Y-142413571D01*
X53625714Y-142365952D01*
X53720952Y-142318333D01*
X53959047Y-142318333D01*
X54054285Y-142365952D01*
X54101904Y-142413571D01*
X54149523Y-142508809D01*
X54149523Y-142746904D01*
X54101904Y-142842142D01*
X54054285Y-142889761D01*
X53959047Y-142937380D01*
X53720952Y-142937380D01*
X53625714Y-142889761D01*
X53578095Y-142842142D01*
X50252380Y-114633333D02*
X50966666Y-114633333D01*
X51109523Y-114680952D01*
X51204761Y-114776190D01*
X51252380Y-114919047D01*
X51252380Y-115014285D01*
X51252380Y-113633333D02*
X51252380Y-114204761D01*
X51252380Y-113919047D02*
X50252380Y-113919047D01*
X50395238Y-114014285D01*
X50490476Y-114109523D01*
X50538095Y-114204761D01*
X50252380Y-117173333D02*
X50966666Y-117173333D01*
X51109523Y-117220952D01*
X51204761Y-117316190D01*
X51252380Y-117459047D01*
X51252380Y-117554285D01*
X50347619Y-116744761D02*
X50300000Y-116697142D01*
X50252380Y-116601904D01*
X50252380Y-116363809D01*
X50300000Y-116268571D01*
X50347619Y-116220952D01*
X50442857Y-116173333D01*
X50538095Y-116173333D01*
X50680952Y-116220952D01*
X51252380Y-116792380D01*
X51252380Y-116173333D01*
X50252380Y-119713333D02*
X50966666Y-119713333D01*
X51109523Y-119760952D01*
X51204761Y-119856190D01*
X51252380Y-119999047D01*
X51252380Y-120094285D01*
X50252380Y-119332380D02*
X50252380Y-118713333D01*
X50633333Y-119046666D01*
X50633333Y-118903809D01*
X50680952Y-118808571D01*
X50728571Y-118760952D01*
X50823809Y-118713333D01*
X51061904Y-118713333D01*
X51157142Y-118760952D01*
X51204761Y-118808571D01*
X51252380Y-118903809D01*
X51252380Y-119189523D01*
X51204761Y-119284761D01*
X51157142Y-119332380D01*
X50252380Y-124793333D02*
X50966666Y-124793333D01*
X51109523Y-124840952D01*
X51204761Y-124936190D01*
X51252380Y-125079047D01*
X51252380Y-125174285D01*
X50585714Y-123888571D02*
X51252380Y-123888571D01*
X50204761Y-124126666D02*
X50919047Y-124364761D01*
X50919047Y-123745714D01*
X50252380Y-127333333D02*
X50966666Y-127333333D01*
X51109523Y-127380952D01*
X51204761Y-127476190D01*
X51252380Y-127619047D01*
X51252380Y-127714285D01*
X50252380Y-126380952D02*
X50252380Y-126857142D01*
X50728571Y-126904761D01*
X50680952Y-126857142D01*
X50633333Y-126761904D01*
X50633333Y-126523809D01*
X50680952Y-126428571D01*
X50728571Y-126380952D01*
X50823809Y-126333333D01*
X51061904Y-126333333D01*
X51157142Y-126380952D01*
X51204761Y-126428571D01*
X51252380Y-126523809D01*
X51252380Y-126761904D01*
X51204761Y-126857142D01*
X51157142Y-126904761D01*
X50252380Y-129873333D02*
X50966666Y-129873333D01*
X51109523Y-129920952D01*
X51204761Y-130016190D01*
X51252380Y-130159047D01*
X51252380Y-130254285D01*
X50252380Y-128968571D02*
X50252380Y-129159047D01*
X50300000Y-129254285D01*
X50347619Y-129301904D01*
X50490476Y-129397142D01*
X50680952Y-129444761D01*
X51061904Y-129444761D01*
X51157142Y-129397142D01*
X51204761Y-129349523D01*
X51252380Y-129254285D01*
X51252380Y-129063809D01*
X51204761Y-128968571D01*
X51157142Y-128920952D01*
X51061904Y-128873333D01*
X50823809Y-128873333D01*
X50728571Y-128920952D01*
X50680952Y-128968571D01*
X50633333Y-129063809D01*
X50633333Y-129254285D01*
X50680952Y-129349523D01*
X50728571Y-129397142D01*
X50823809Y-129444761D01*
X50252380Y-135429523D02*
X50966666Y-135429523D01*
X51109523Y-135477142D01*
X51204761Y-135572380D01*
X51252380Y-135715238D01*
X51252380Y-135810476D01*
X51252380Y-134429523D02*
X51252380Y-135000952D01*
X51252380Y-134715238D02*
X50252380Y-134715238D01*
X50395238Y-134810476D01*
X50490476Y-134905714D01*
X50538095Y-135000952D01*
X50252380Y-133524761D02*
X50252380Y-134000952D01*
X50728571Y-134048571D01*
X50680952Y-134000952D01*
X50633333Y-133905714D01*
X50633333Y-133667619D01*
X50680952Y-133572380D01*
X50728571Y-133524761D01*
X50823809Y-133477142D01*
X51061904Y-133477142D01*
X51157142Y-133524761D01*
X51204761Y-133572380D01*
X51252380Y-133667619D01*
X51252380Y-133905714D01*
X51204761Y-134000952D01*
X51157142Y-134048571D01*
X74172380Y-115109523D02*
X74886666Y-115109523D01*
X75029523Y-115157142D01*
X75124761Y-115252380D01*
X75172380Y-115395238D01*
X75172380Y-115490476D01*
X75172380Y-114109523D02*
X75172380Y-114680952D01*
X75172380Y-114395238D02*
X74172380Y-114395238D01*
X74315238Y-114490476D01*
X74410476Y-114585714D01*
X74458095Y-114680952D01*
X74172380Y-113776190D02*
X74172380Y-113109523D01*
X75172380Y-113538095D01*
X74172380Y-117649523D02*
X74886666Y-117649523D01*
X75029523Y-117697142D01*
X75124761Y-117792380D01*
X75172380Y-117935238D01*
X75172380Y-118030476D01*
X75172380Y-116649523D02*
X75172380Y-117220952D01*
X75172380Y-116935238D02*
X74172380Y-116935238D01*
X74315238Y-117030476D01*
X74410476Y-117125714D01*
X74458095Y-117220952D01*
X74600952Y-116078095D02*
X74553333Y-116173333D01*
X74505714Y-116220952D01*
X74410476Y-116268571D01*
X74362857Y-116268571D01*
X74267619Y-116220952D01*
X74220000Y-116173333D01*
X74172380Y-116078095D01*
X74172380Y-115887619D01*
X74220000Y-115792380D01*
X74267619Y-115744761D01*
X74362857Y-115697142D01*
X74410476Y-115697142D01*
X74505714Y-115744761D01*
X74553333Y-115792380D01*
X74600952Y-115887619D01*
X74600952Y-116078095D01*
X74648571Y-116173333D01*
X74696190Y-116220952D01*
X74791428Y-116268571D01*
X74981904Y-116268571D01*
X75077142Y-116220952D01*
X75124761Y-116173333D01*
X75172380Y-116078095D01*
X75172380Y-115887619D01*
X75124761Y-115792380D01*
X75077142Y-115744761D01*
X74981904Y-115697142D01*
X74791428Y-115697142D01*
X74696190Y-115744761D01*
X74648571Y-115792380D01*
X74600952Y-115887619D01*
X74172380Y-120189523D02*
X74886666Y-120189523D01*
X75029523Y-120237142D01*
X75124761Y-120332380D01*
X75172380Y-120475238D01*
X75172380Y-120570476D01*
X75172380Y-119189523D02*
X75172380Y-119760952D01*
X75172380Y-119475238D02*
X74172380Y-119475238D01*
X74315238Y-119570476D01*
X74410476Y-119665714D01*
X74458095Y-119760952D01*
X75172380Y-118713333D02*
X75172380Y-118522857D01*
X75124761Y-118427619D01*
X75077142Y-118380000D01*
X74934285Y-118284761D01*
X74743809Y-118237142D01*
X74362857Y-118237142D01*
X74267619Y-118284761D01*
X74220000Y-118332380D01*
X74172380Y-118427619D01*
X74172380Y-118618095D01*
X74220000Y-118713333D01*
X74267619Y-118760952D01*
X74362857Y-118808571D01*
X74600952Y-118808571D01*
X74696190Y-118760952D01*
X74743809Y-118713333D01*
X74791428Y-118618095D01*
X74791428Y-118427619D01*
X74743809Y-118332380D01*
X74696190Y-118284761D01*
X74600952Y-118237142D01*
X121110476Y-101262380D02*
X121110476Y-101976666D01*
X121062857Y-102119523D01*
X120967619Y-102214761D01*
X120824761Y-102262380D01*
X120729523Y-102262380D01*
X121539047Y-101357619D02*
X121586666Y-101310000D01*
X121681904Y-101262380D01*
X121920000Y-101262380D01*
X122015238Y-101310000D01*
X122062857Y-101357619D01*
X122110476Y-101452857D01*
X122110476Y-101548095D01*
X122062857Y-101690952D01*
X121491428Y-102262380D01*
X122110476Y-102262380D01*
X122729523Y-101262380D02*
X122824761Y-101262380D01*
X122920000Y-101310000D01*
X122967619Y-101357619D01*
X123015238Y-101452857D01*
X123062857Y-101643333D01*
X123062857Y-101881428D01*
X123015238Y-102071904D01*
X122967619Y-102167142D01*
X122920000Y-102214761D01*
X122824761Y-102262380D01*
X122729523Y-102262380D01*
X122634285Y-102214761D01*
X122586666Y-102167142D01*
X122539047Y-102071904D01*
X122491428Y-101881428D01*
X122491428Y-101643333D01*
X122539047Y-101452857D01*
X122586666Y-101357619D01*
X122634285Y-101310000D01*
X122729523Y-101262380D01*
X93170476Y-102322380D02*
X93170476Y-103036666D01*
X93122857Y-103179523D01*
X93027619Y-103274761D01*
X92884761Y-103322380D01*
X92789523Y-103322380D01*
X93599047Y-102417619D02*
X93646666Y-102370000D01*
X93741904Y-102322380D01*
X93980000Y-102322380D01*
X94075238Y-102370000D01*
X94122857Y-102417619D01*
X94170476Y-102512857D01*
X94170476Y-102608095D01*
X94122857Y-102750952D01*
X93551428Y-103322380D01*
X94170476Y-103322380D01*
X95122857Y-103322380D02*
X94551428Y-103322380D01*
X94837142Y-103322380D02*
X94837142Y-102322380D01*
X94741904Y-102465238D01*
X94646666Y-102560476D01*
X94551428Y-102608095D01*
X148677380Y-129714523D02*
X149391666Y-129714523D01*
X149534523Y-129762142D01*
X149629761Y-129857380D01*
X149677380Y-130000238D01*
X149677380Y-130095476D01*
X148772619Y-129285952D02*
X148725000Y-129238333D01*
X148677380Y-129143095D01*
X148677380Y-128905000D01*
X148725000Y-128809761D01*
X148772619Y-128762142D01*
X148867857Y-128714523D01*
X148963095Y-128714523D01*
X149105952Y-128762142D01*
X149677380Y-129333571D01*
X149677380Y-128714523D01*
X148772619Y-128333571D02*
X148725000Y-128285952D01*
X148677380Y-128190714D01*
X148677380Y-127952619D01*
X148725000Y-127857380D01*
X148772619Y-127809761D01*
X148867857Y-127762142D01*
X148963095Y-127762142D01*
X149105952Y-127809761D01*
X149677380Y-128381190D01*
X149677380Y-127762142D01*
X118570476Y-137672380D02*
X118570476Y-138386666D01*
X118522857Y-138529523D01*
X118427619Y-138624761D01*
X118284761Y-138672380D01*
X118189523Y-138672380D01*
X118999047Y-137767619D02*
X119046666Y-137720000D01*
X119141904Y-137672380D01*
X119380000Y-137672380D01*
X119475238Y-137720000D01*
X119522857Y-137767619D01*
X119570476Y-137862857D01*
X119570476Y-137958095D01*
X119522857Y-138100952D01*
X118951428Y-138672380D01*
X119570476Y-138672380D01*
X119903809Y-137672380D02*
X120522857Y-137672380D01*
X120189523Y-138053333D01*
X120332380Y-138053333D01*
X120427619Y-138100952D01*
X120475238Y-138148571D01*
X120522857Y-138243809D01*
X120522857Y-138481904D01*
X120475238Y-138577142D01*
X120427619Y-138624761D01*
X120332380Y-138672380D01*
X120046666Y-138672380D01*
X119951428Y-138624761D01*
X119903809Y-138577142D01*
X121110476Y-137672380D02*
X121110476Y-138386666D01*
X121062857Y-138529523D01*
X120967619Y-138624761D01*
X120824761Y-138672380D01*
X120729523Y-138672380D01*
X121539047Y-137767619D02*
X121586666Y-137720000D01*
X121681904Y-137672380D01*
X121920000Y-137672380D01*
X122015238Y-137720000D01*
X122062857Y-137767619D01*
X122110476Y-137862857D01*
X122110476Y-137958095D01*
X122062857Y-138100952D01*
X121491428Y-138672380D01*
X122110476Y-138672380D01*
X122967619Y-138005714D02*
X122967619Y-138672380D01*
X122729523Y-137624761D02*
X122491428Y-138339047D01*
X123110476Y-138339047D01*
X64603333Y-124912380D02*
X64270000Y-124436190D01*
X64031904Y-124912380D02*
X64031904Y-123912380D01*
X64412857Y-123912380D01*
X64508095Y-123960000D01*
X64555714Y-124007619D01*
X64603333Y-124102857D01*
X64603333Y-124245714D01*
X64555714Y-124340952D01*
X64508095Y-124388571D01*
X64412857Y-124436190D01*
X64031904Y-124436190D01*
X65555714Y-124912380D02*
X64984285Y-124912380D01*
X65270000Y-124912380D02*
X65270000Y-123912380D01*
X65174761Y-124055238D01*
X65079523Y-124150476D01*
X64984285Y-124198095D01*
X64603333Y-127452380D02*
X64270000Y-126976190D01*
X64031904Y-127452380D02*
X64031904Y-126452380D01*
X64412857Y-126452380D01*
X64508095Y-126500000D01*
X64555714Y-126547619D01*
X64603333Y-126642857D01*
X64603333Y-126785714D01*
X64555714Y-126880952D01*
X64508095Y-126928571D01*
X64412857Y-126976190D01*
X64031904Y-126976190D01*
X64984285Y-126547619D02*
X65031904Y-126500000D01*
X65127142Y-126452380D01*
X65365238Y-126452380D01*
X65460476Y-126500000D01*
X65508095Y-126547619D01*
X65555714Y-126642857D01*
X65555714Y-126738095D01*
X65508095Y-126880952D01*
X64936666Y-127452380D01*
X65555714Y-127452380D01*
X64603333Y-129992380D02*
X64270000Y-129516190D01*
X64031904Y-129992380D02*
X64031904Y-128992380D01*
X64412857Y-128992380D01*
X64508095Y-129040000D01*
X64555714Y-129087619D01*
X64603333Y-129182857D01*
X64603333Y-129325714D01*
X64555714Y-129420952D01*
X64508095Y-129468571D01*
X64412857Y-129516190D01*
X64031904Y-129516190D01*
X64936666Y-128992380D02*
X65555714Y-128992380D01*
X65222380Y-129373333D01*
X65365238Y-129373333D01*
X65460476Y-129420952D01*
X65508095Y-129468571D01*
X65555714Y-129563809D01*
X65555714Y-129801904D01*
X65508095Y-129897142D01*
X65460476Y-129944761D01*
X65365238Y-129992380D01*
X65079523Y-129992380D01*
X64984285Y-129944761D01*
X64936666Y-129897142D01*
X67762380Y-137326666D02*
X67286190Y-137660000D01*
X67762380Y-137898095D02*
X66762380Y-137898095D01*
X66762380Y-137517142D01*
X66810000Y-137421904D01*
X66857619Y-137374285D01*
X66952857Y-137326666D01*
X67095714Y-137326666D01*
X67190952Y-137374285D01*
X67238571Y-137421904D01*
X67286190Y-137517142D01*
X67286190Y-137898095D01*
X67095714Y-136469523D02*
X67762380Y-136469523D01*
X66714761Y-136707619D02*
X67429047Y-136945714D01*
X67429047Y-136326666D01*
X65222380Y-137326666D02*
X64746190Y-137660000D01*
X65222380Y-137898095D02*
X64222380Y-137898095D01*
X64222380Y-137517142D01*
X64270000Y-137421904D01*
X64317619Y-137374285D01*
X64412857Y-137326666D01*
X64555714Y-137326666D01*
X64650952Y-137374285D01*
X64698571Y-137421904D01*
X64746190Y-137517142D01*
X64746190Y-137898095D01*
X64222380Y-136421904D02*
X64222380Y-136898095D01*
X64698571Y-136945714D01*
X64650952Y-136898095D01*
X64603333Y-136802857D01*
X64603333Y-136564761D01*
X64650952Y-136469523D01*
X64698571Y-136421904D01*
X64793809Y-136374285D01*
X65031904Y-136374285D01*
X65127142Y-136421904D01*
X65174761Y-136469523D01*
X65222380Y-136564761D01*
X65222380Y-136802857D01*
X65174761Y-136898095D01*
X65127142Y-136945714D01*
X79192380Y-137326666D02*
X78716190Y-137660000D01*
X79192380Y-137898095D02*
X78192380Y-137898095D01*
X78192380Y-137517142D01*
X78240000Y-137421904D01*
X78287619Y-137374285D01*
X78382857Y-137326666D01*
X78525714Y-137326666D01*
X78620952Y-137374285D01*
X78668571Y-137421904D01*
X78716190Y-137517142D01*
X78716190Y-137898095D01*
X78192380Y-136469523D02*
X78192380Y-136660000D01*
X78240000Y-136755238D01*
X78287619Y-136802857D01*
X78430476Y-136898095D01*
X78620952Y-136945714D01*
X79001904Y-136945714D01*
X79097142Y-136898095D01*
X79144761Y-136850476D01*
X79192380Y-136755238D01*
X79192380Y-136564761D01*
X79144761Y-136469523D01*
X79097142Y-136421904D01*
X79001904Y-136374285D01*
X78763809Y-136374285D01*
X78668571Y-136421904D01*
X78620952Y-136469523D01*
X78573333Y-136564761D01*
X78573333Y-136755238D01*
X78620952Y-136850476D01*
X78668571Y-136898095D01*
X78763809Y-136945714D01*
X75382380Y-137326666D02*
X74906190Y-137660000D01*
X75382380Y-137898095D02*
X74382380Y-137898095D01*
X74382380Y-137517142D01*
X74430000Y-137421904D01*
X74477619Y-137374285D01*
X74572857Y-137326666D01*
X74715714Y-137326666D01*
X74810952Y-137374285D01*
X74858571Y-137421904D01*
X74906190Y-137517142D01*
X74906190Y-137898095D01*
X74382380Y-136993333D02*
X74382380Y-136326666D01*
X75382380Y-136755238D01*
X104592380Y-136691666D02*
X104116190Y-137025000D01*
X104592380Y-137263095D02*
X103592380Y-137263095D01*
X103592380Y-136882142D01*
X103640000Y-136786904D01*
X103687619Y-136739285D01*
X103782857Y-136691666D01*
X103925714Y-136691666D01*
X104020952Y-136739285D01*
X104068571Y-136786904D01*
X104116190Y-136882142D01*
X104116190Y-137263095D01*
X104020952Y-136120238D02*
X103973333Y-136215476D01*
X103925714Y-136263095D01*
X103830476Y-136310714D01*
X103782857Y-136310714D01*
X103687619Y-136263095D01*
X103640000Y-136215476D01*
X103592380Y-136120238D01*
X103592380Y-135929761D01*
X103640000Y-135834523D01*
X103687619Y-135786904D01*
X103782857Y-135739285D01*
X103830476Y-135739285D01*
X103925714Y-135786904D01*
X103973333Y-135834523D01*
X104020952Y-135929761D01*
X104020952Y-136120238D01*
X104068571Y-136215476D01*
X104116190Y-136263095D01*
X104211428Y-136310714D01*
X104401904Y-136310714D01*
X104497142Y-136263095D01*
X104544761Y-136215476D01*
X104592380Y-136120238D01*
X104592380Y-135929761D01*
X104544761Y-135834523D01*
X104497142Y-135786904D01*
X104401904Y-135739285D01*
X104211428Y-135739285D01*
X104116190Y-135786904D01*
X104068571Y-135834523D01*
X104020952Y-135929761D01*
X101417380Y-136691666D02*
X100941190Y-137025000D01*
X101417380Y-137263095D02*
X100417380Y-137263095D01*
X100417380Y-136882142D01*
X100465000Y-136786904D01*
X100512619Y-136739285D01*
X100607857Y-136691666D01*
X100750714Y-136691666D01*
X100845952Y-136739285D01*
X100893571Y-136786904D01*
X100941190Y-136882142D01*
X100941190Y-137263095D01*
X101417380Y-136215476D02*
X101417380Y-136025000D01*
X101369761Y-135929761D01*
X101322142Y-135882142D01*
X101179285Y-135786904D01*
X100988809Y-135739285D01*
X100607857Y-135739285D01*
X100512619Y-135786904D01*
X100465000Y-135834523D01*
X100417380Y-135929761D01*
X100417380Y-136120238D01*
X100465000Y-136215476D01*
X100512619Y-136263095D01*
X100607857Y-136310714D01*
X100845952Y-136310714D01*
X100941190Y-136263095D01*
X100988809Y-136215476D01*
X101036428Y-136120238D01*
X101036428Y-135929761D01*
X100988809Y-135834523D01*
X100941190Y-135786904D01*
X100845952Y-135739285D01*
X91892380Y-137167857D02*
X91416190Y-137501190D01*
X91892380Y-137739285D02*
X90892380Y-137739285D01*
X90892380Y-137358333D01*
X90940000Y-137263095D01*
X90987619Y-137215476D01*
X91082857Y-137167857D01*
X91225714Y-137167857D01*
X91320952Y-137215476D01*
X91368571Y-137263095D01*
X91416190Y-137358333D01*
X91416190Y-137739285D01*
X91892380Y-136215476D02*
X91892380Y-136786904D01*
X91892380Y-136501190D02*
X90892380Y-136501190D01*
X91035238Y-136596428D01*
X91130476Y-136691666D01*
X91178095Y-136786904D01*
X90892380Y-135596428D02*
X90892380Y-135501190D01*
X90940000Y-135405952D01*
X90987619Y-135358333D01*
X91082857Y-135310714D01*
X91273333Y-135263095D01*
X91511428Y-135263095D01*
X91701904Y-135310714D01*
X91797142Y-135358333D01*
X91844761Y-135405952D01*
X91892380Y-135501190D01*
X91892380Y-135596428D01*
X91844761Y-135691666D01*
X91797142Y-135739285D01*
X91701904Y-135786904D01*
X91511428Y-135834523D01*
X91273333Y-135834523D01*
X91082857Y-135786904D01*
X90987619Y-135739285D01*
X90940000Y-135691666D01*
X90892380Y-135596428D01*
X88082380Y-137167857D02*
X87606190Y-137501190D01*
X88082380Y-137739285D02*
X87082380Y-137739285D01*
X87082380Y-137358333D01*
X87130000Y-137263095D01*
X87177619Y-137215476D01*
X87272857Y-137167857D01*
X87415714Y-137167857D01*
X87510952Y-137215476D01*
X87558571Y-137263095D01*
X87606190Y-137358333D01*
X87606190Y-137739285D01*
X88082380Y-136215476D02*
X88082380Y-136786904D01*
X88082380Y-136501190D02*
X87082380Y-136501190D01*
X87225238Y-136596428D01*
X87320476Y-136691666D01*
X87368095Y-136786904D01*
X88082380Y-135263095D02*
X88082380Y-135834523D01*
X88082380Y-135548809D02*
X87082380Y-135548809D01*
X87225238Y-135644047D01*
X87320476Y-135739285D01*
X87368095Y-135834523D01*
X139692142Y-118562380D02*
X139358809Y-118086190D01*
X139120714Y-118562380D02*
X139120714Y-117562380D01*
X139501666Y-117562380D01*
X139596904Y-117610000D01*
X139644523Y-117657619D01*
X139692142Y-117752857D01*
X139692142Y-117895714D01*
X139644523Y-117990952D01*
X139596904Y-118038571D01*
X139501666Y-118086190D01*
X139120714Y-118086190D01*
X140644523Y-118562380D02*
X140073095Y-118562380D01*
X140358809Y-118562380D02*
X140358809Y-117562380D01*
X140263571Y-117705238D01*
X140168333Y-117800476D01*
X140073095Y-117848095D01*
X141025476Y-117657619D02*
X141073095Y-117610000D01*
X141168333Y-117562380D01*
X141406428Y-117562380D01*
X141501666Y-117610000D01*
X141549285Y-117657619D01*
X141596904Y-117752857D01*
X141596904Y-117848095D01*
X141549285Y-117990952D01*
X140977857Y-118562380D01*
X141596904Y-118562380D01*
X142532380Y-123437857D02*
X142056190Y-123771190D01*
X142532380Y-124009285D02*
X141532380Y-124009285D01*
X141532380Y-123628333D01*
X141580000Y-123533095D01*
X141627619Y-123485476D01*
X141722857Y-123437857D01*
X141865714Y-123437857D01*
X141960952Y-123485476D01*
X142008571Y-123533095D01*
X142056190Y-123628333D01*
X142056190Y-124009285D01*
X142532380Y-122485476D02*
X142532380Y-123056904D01*
X142532380Y-122771190D02*
X141532380Y-122771190D01*
X141675238Y-122866428D01*
X141770476Y-122961666D01*
X141818095Y-123056904D01*
X141532380Y-122152142D02*
X141532380Y-121533095D01*
X141913333Y-121866428D01*
X141913333Y-121723571D01*
X141960952Y-121628333D01*
X142008571Y-121580714D01*
X142103809Y-121533095D01*
X142341904Y-121533095D01*
X142437142Y-121580714D01*
X142484761Y-121628333D01*
X142532380Y-121723571D01*
X142532380Y-122009285D01*
X142484761Y-122104523D01*
X142437142Y-122152142D01*
X145802142Y-123482380D02*
X145468809Y-123006190D01*
X145230714Y-123482380D02*
X145230714Y-122482380D01*
X145611666Y-122482380D01*
X145706904Y-122530000D01*
X145754523Y-122577619D01*
X145802142Y-122672857D01*
X145802142Y-122815714D01*
X145754523Y-122910952D01*
X145706904Y-122958571D01*
X145611666Y-123006190D01*
X145230714Y-123006190D01*
X146754523Y-123482380D02*
X146183095Y-123482380D01*
X146468809Y-123482380D02*
X146468809Y-122482380D01*
X146373571Y-122625238D01*
X146278333Y-122720476D01*
X146183095Y-122768095D01*
X147611666Y-122815714D02*
X147611666Y-123482380D01*
X147373571Y-122434761D02*
X147135476Y-123149047D01*
X147754523Y-123149047D01*
X59982380Y-104387857D02*
X59506190Y-104721190D01*
X59982380Y-104959285D02*
X58982380Y-104959285D01*
X58982380Y-104578333D01*
X59030000Y-104483095D01*
X59077619Y-104435476D01*
X59172857Y-104387857D01*
X59315714Y-104387857D01*
X59410952Y-104435476D01*
X59458571Y-104483095D01*
X59506190Y-104578333D01*
X59506190Y-104959285D01*
X59982380Y-103435476D02*
X59982380Y-104006904D01*
X59982380Y-103721190D02*
X58982380Y-103721190D01*
X59125238Y-103816428D01*
X59220476Y-103911666D01*
X59268095Y-104006904D01*
X58982380Y-102530714D02*
X58982380Y-103006904D01*
X59458571Y-103054523D01*
X59410952Y-103006904D01*
X59363333Y-102911666D01*
X59363333Y-102673571D01*
X59410952Y-102578333D01*
X59458571Y-102530714D01*
X59553809Y-102483095D01*
X59791904Y-102483095D01*
X59887142Y-102530714D01*
X59934761Y-102578333D01*
X59982380Y-102673571D01*
X59982380Y-102911666D01*
X59934761Y-103006904D01*
X59887142Y-103054523D01*
X62522380Y-104387857D02*
X62046190Y-104721190D01*
X62522380Y-104959285D02*
X61522380Y-104959285D01*
X61522380Y-104578333D01*
X61570000Y-104483095D01*
X61617619Y-104435476D01*
X61712857Y-104387857D01*
X61855714Y-104387857D01*
X61950952Y-104435476D01*
X61998571Y-104483095D01*
X62046190Y-104578333D01*
X62046190Y-104959285D01*
X62522380Y-103435476D02*
X62522380Y-104006904D01*
X62522380Y-103721190D02*
X61522380Y-103721190D01*
X61665238Y-103816428D01*
X61760476Y-103911666D01*
X61808095Y-104006904D01*
X61522380Y-102578333D02*
X61522380Y-102768809D01*
X61570000Y-102864047D01*
X61617619Y-102911666D01*
X61760476Y-103006904D01*
X61950952Y-103054523D01*
X62331904Y-103054523D01*
X62427142Y-103006904D01*
X62474761Y-102959285D01*
X62522380Y-102864047D01*
X62522380Y-102673571D01*
X62474761Y-102578333D01*
X62427142Y-102530714D01*
X62331904Y-102483095D01*
X62093809Y-102483095D01*
X61998571Y-102530714D01*
X61950952Y-102578333D01*
X61903333Y-102673571D01*
X61903333Y-102864047D01*
X61950952Y-102959285D01*
X61998571Y-103006904D01*
X62093809Y-103054523D01*
X65062380Y-104387857D02*
X64586190Y-104721190D01*
X65062380Y-104959285D02*
X64062380Y-104959285D01*
X64062380Y-104578333D01*
X64110000Y-104483095D01*
X64157619Y-104435476D01*
X64252857Y-104387857D01*
X64395714Y-104387857D01*
X64490952Y-104435476D01*
X64538571Y-104483095D01*
X64586190Y-104578333D01*
X64586190Y-104959285D01*
X65062380Y-103435476D02*
X65062380Y-104006904D01*
X65062380Y-103721190D02*
X64062380Y-103721190D01*
X64205238Y-103816428D01*
X64300476Y-103911666D01*
X64348095Y-104006904D01*
X64062380Y-103102142D02*
X64062380Y-102435476D01*
X65062380Y-102864047D01*
X67602380Y-104387857D02*
X67126190Y-104721190D01*
X67602380Y-104959285D02*
X66602380Y-104959285D01*
X66602380Y-104578333D01*
X66650000Y-104483095D01*
X66697619Y-104435476D01*
X66792857Y-104387857D01*
X66935714Y-104387857D01*
X67030952Y-104435476D01*
X67078571Y-104483095D01*
X67126190Y-104578333D01*
X67126190Y-104959285D01*
X67602380Y-103435476D02*
X67602380Y-104006904D01*
X67602380Y-103721190D02*
X66602380Y-103721190D01*
X66745238Y-103816428D01*
X66840476Y-103911666D01*
X66888095Y-104006904D01*
X67030952Y-102864047D02*
X66983333Y-102959285D01*
X66935714Y-103006904D01*
X66840476Y-103054523D01*
X66792857Y-103054523D01*
X66697619Y-103006904D01*
X66650000Y-102959285D01*
X66602380Y-102864047D01*
X66602380Y-102673571D01*
X66650000Y-102578333D01*
X66697619Y-102530714D01*
X66792857Y-102483095D01*
X66840476Y-102483095D01*
X66935714Y-102530714D01*
X66983333Y-102578333D01*
X67030952Y-102673571D01*
X67030952Y-102864047D01*
X67078571Y-102959285D01*
X67126190Y-103006904D01*
X67221428Y-103054523D01*
X67411904Y-103054523D01*
X67507142Y-103006904D01*
X67554761Y-102959285D01*
X67602380Y-102864047D01*
X67602380Y-102673571D01*
X67554761Y-102578333D01*
X67507142Y-102530714D01*
X67411904Y-102483095D01*
X67221428Y-102483095D01*
X67126190Y-102530714D01*
X67078571Y-102578333D01*
X67030952Y-102673571D01*
X70142380Y-104387857D02*
X69666190Y-104721190D01*
X70142380Y-104959285D02*
X69142380Y-104959285D01*
X69142380Y-104578333D01*
X69190000Y-104483095D01*
X69237619Y-104435476D01*
X69332857Y-104387857D01*
X69475714Y-104387857D01*
X69570952Y-104435476D01*
X69618571Y-104483095D01*
X69666190Y-104578333D01*
X69666190Y-104959285D01*
X70142380Y-103435476D02*
X70142380Y-104006904D01*
X70142380Y-103721190D02*
X69142380Y-103721190D01*
X69285238Y-103816428D01*
X69380476Y-103911666D01*
X69428095Y-104006904D01*
X70142380Y-102959285D02*
X70142380Y-102768809D01*
X70094761Y-102673571D01*
X70047142Y-102625952D01*
X69904285Y-102530714D01*
X69713809Y-102483095D01*
X69332857Y-102483095D01*
X69237619Y-102530714D01*
X69190000Y-102578333D01*
X69142380Y-102673571D01*
X69142380Y-102864047D01*
X69190000Y-102959285D01*
X69237619Y-103006904D01*
X69332857Y-103054523D01*
X69570952Y-103054523D01*
X69666190Y-103006904D01*
X69713809Y-102959285D01*
X69761428Y-102864047D01*
X69761428Y-102673571D01*
X69713809Y-102578333D01*
X69666190Y-102530714D01*
X69570952Y-102483095D01*
X72682380Y-104387857D02*
X72206190Y-104721190D01*
X72682380Y-104959285D02*
X71682380Y-104959285D01*
X71682380Y-104578333D01*
X71730000Y-104483095D01*
X71777619Y-104435476D01*
X71872857Y-104387857D01*
X72015714Y-104387857D01*
X72110952Y-104435476D01*
X72158571Y-104483095D01*
X72206190Y-104578333D01*
X72206190Y-104959285D01*
X71777619Y-104006904D02*
X71730000Y-103959285D01*
X71682380Y-103864047D01*
X71682380Y-103625952D01*
X71730000Y-103530714D01*
X71777619Y-103483095D01*
X71872857Y-103435476D01*
X71968095Y-103435476D01*
X72110952Y-103483095D01*
X72682380Y-104054523D01*
X72682380Y-103435476D01*
X71682380Y-102816428D02*
X71682380Y-102721190D01*
X71730000Y-102625952D01*
X71777619Y-102578333D01*
X71872857Y-102530714D01*
X72063333Y-102483095D01*
X72301428Y-102483095D01*
X72491904Y-102530714D01*
X72587142Y-102578333D01*
X72634761Y-102625952D01*
X72682380Y-102721190D01*
X72682380Y-102816428D01*
X72634761Y-102911666D01*
X72587142Y-102959285D01*
X72491904Y-103006904D01*
X72301428Y-103054523D01*
X72063333Y-103054523D01*
X71872857Y-103006904D01*
X71777619Y-102959285D01*
X71730000Y-102911666D01*
X71682380Y-102816428D01*
X75222380Y-104387857D02*
X74746190Y-104721190D01*
X75222380Y-104959285D02*
X74222380Y-104959285D01*
X74222380Y-104578333D01*
X74270000Y-104483095D01*
X74317619Y-104435476D01*
X74412857Y-104387857D01*
X74555714Y-104387857D01*
X74650952Y-104435476D01*
X74698571Y-104483095D01*
X74746190Y-104578333D01*
X74746190Y-104959285D01*
X74317619Y-104006904D02*
X74270000Y-103959285D01*
X74222380Y-103864047D01*
X74222380Y-103625952D01*
X74270000Y-103530714D01*
X74317619Y-103483095D01*
X74412857Y-103435476D01*
X74508095Y-103435476D01*
X74650952Y-103483095D01*
X75222380Y-104054523D01*
X75222380Y-103435476D01*
X75222380Y-102483095D02*
X75222380Y-103054523D01*
X75222380Y-102768809D02*
X74222380Y-102768809D01*
X74365238Y-102864047D01*
X74460476Y-102959285D01*
X74508095Y-103054523D01*
X77762380Y-104387857D02*
X77286190Y-104721190D01*
X77762380Y-104959285D02*
X76762380Y-104959285D01*
X76762380Y-104578333D01*
X76810000Y-104483095D01*
X76857619Y-104435476D01*
X76952857Y-104387857D01*
X77095714Y-104387857D01*
X77190952Y-104435476D01*
X77238571Y-104483095D01*
X77286190Y-104578333D01*
X77286190Y-104959285D01*
X76857619Y-104006904D02*
X76810000Y-103959285D01*
X76762380Y-103864047D01*
X76762380Y-103625952D01*
X76810000Y-103530714D01*
X76857619Y-103483095D01*
X76952857Y-103435476D01*
X77048095Y-103435476D01*
X77190952Y-103483095D01*
X77762380Y-104054523D01*
X77762380Y-103435476D01*
X76857619Y-103054523D02*
X76810000Y-103006904D01*
X76762380Y-102911666D01*
X76762380Y-102673571D01*
X76810000Y-102578333D01*
X76857619Y-102530714D01*
X76952857Y-102483095D01*
X77048095Y-102483095D01*
X77190952Y-102530714D01*
X77762380Y-103102142D01*
X77762380Y-102483095D01*
X103497142Y-121102380D02*
X103163809Y-120626190D01*
X102925714Y-121102380D02*
X102925714Y-120102380D01*
X103306666Y-120102380D01*
X103401904Y-120150000D01*
X103449523Y-120197619D01*
X103497142Y-120292857D01*
X103497142Y-120435714D01*
X103449523Y-120530952D01*
X103401904Y-120578571D01*
X103306666Y-120626190D01*
X102925714Y-120626190D01*
X103878095Y-120197619D02*
X103925714Y-120150000D01*
X104020952Y-120102380D01*
X104259047Y-120102380D01*
X104354285Y-120150000D01*
X104401904Y-120197619D01*
X104449523Y-120292857D01*
X104449523Y-120388095D01*
X104401904Y-120530952D01*
X103830476Y-121102380D01*
X104449523Y-121102380D01*
X104782857Y-120102380D02*
X105401904Y-120102380D01*
X105068571Y-120483333D01*
X105211428Y-120483333D01*
X105306666Y-120530952D01*
X105354285Y-120578571D01*
X105401904Y-120673809D01*
X105401904Y-120911904D01*
X105354285Y-121007142D01*
X105306666Y-121054761D01*
X105211428Y-121102380D01*
X104925714Y-121102380D01*
X104830476Y-121054761D01*
X104782857Y-121007142D01*
X142009761Y-107378333D02*
X142057380Y-107235476D01*
X142057380Y-106997380D01*
X142009761Y-106902142D01*
X141962142Y-106854523D01*
X141866904Y-106806904D01*
X141771666Y-106806904D01*
X141676428Y-106854523D01*
X141628809Y-106902142D01*
X141581190Y-106997380D01*
X141533571Y-107187857D01*
X141485952Y-107283095D01*
X141438333Y-107330714D01*
X141343095Y-107378333D01*
X141247857Y-107378333D01*
X141152619Y-107330714D01*
X141105000Y-107283095D01*
X141057380Y-107187857D01*
X141057380Y-106949761D01*
X141105000Y-106806904D01*
X141057380Y-106473571D02*
X142057380Y-106235476D01*
X141343095Y-106045000D01*
X142057380Y-105854523D01*
X141057380Y-105616428D01*
X142057380Y-104711666D02*
X142057380Y-105283095D01*
X142057380Y-104997380D02*
X141057380Y-104997380D01*
X141200238Y-105092619D01*
X141295476Y-105187857D01*
X141343095Y-105283095D01*
X135358095Y-135702380D02*
X135358095Y-136511904D01*
X135405714Y-136607142D01*
X135453333Y-136654761D01*
X135548571Y-136702380D01*
X135739047Y-136702380D01*
X135834285Y-136654761D01*
X135881904Y-136607142D01*
X135929523Y-136511904D01*
X135929523Y-135702380D01*
X136929523Y-136702380D02*
X136358095Y-136702380D01*
X136643809Y-136702380D02*
X136643809Y-135702380D01*
X136548571Y-135845238D01*
X136453333Y-135940476D01*
X136358095Y-135988095D01*
X135358095Y-147132380D02*
X135358095Y-147941904D01*
X135405714Y-148037142D01*
X135453333Y-148084761D01*
X135548571Y-148132380D01*
X135739047Y-148132380D01*
X135834285Y-148084761D01*
X135881904Y-148037142D01*
X135929523Y-147941904D01*
X135929523Y-147132380D01*
X136358095Y-147227619D02*
X136405714Y-147180000D01*
X136500952Y-147132380D01*
X136739047Y-147132380D01*
X136834285Y-147180000D01*
X136881904Y-147227619D01*
X136929523Y-147322857D01*
X136929523Y-147418095D01*
X136881904Y-147560952D01*
X136310476Y-148132380D01*
X136929523Y-148132380D01*
X135358095Y-124272380D02*
X135358095Y-125081904D01*
X135405714Y-125177142D01*
X135453333Y-125224761D01*
X135548571Y-125272380D01*
X135739047Y-125272380D01*
X135834285Y-125224761D01*
X135881904Y-125177142D01*
X135929523Y-125081904D01*
X135929523Y-124272380D01*
X136310476Y-124272380D02*
X136929523Y-124272380D01*
X136596190Y-124653333D01*
X136739047Y-124653333D01*
X136834285Y-124700952D01*
X136881904Y-124748571D01*
X136929523Y-124843809D01*
X136929523Y-125081904D01*
X136881904Y-125177142D01*
X136834285Y-125224761D01*
X136739047Y-125272380D01*
X136453333Y-125272380D01*
X136358095Y-125224761D01*
X136310476Y-125177142D01*
X135358095Y-112842380D02*
X135358095Y-113651904D01*
X135405714Y-113747142D01*
X135453333Y-113794761D01*
X135548571Y-113842380D01*
X135739047Y-113842380D01*
X135834285Y-113794761D01*
X135881904Y-113747142D01*
X135929523Y-113651904D01*
X135929523Y-112842380D01*
X136834285Y-113175714D02*
X136834285Y-113842380D01*
X136596190Y-112794761D02*
X136358095Y-113509047D01*
X136977142Y-113509047D01*
X69516666Y-137457380D02*
X69516666Y-138171666D01*
X69469047Y-138314523D01*
X69373809Y-138409761D01*
X69230952Y-138457380D01*
X69135714Y-138457380D01*
X70135714Y-137885952D02*
X70040476Y-137838333D01*
X69992857Y-137790714D01*
X69945238Y-137695476D01*
X69945238Y-137647857D01*
X69992857Y-137552619D01*
X70040476Y-137505000D01*
X70135714Y-137457380D01*
X70326190Y-137457380D01*
X70421428Y-137505000D01*
X70469047Y-137552619D01*
X70516666Y-137647857D01*
X70516666Y-137695476D01*
X70469047Y-137790714D01*
X70421428Y-137838333D01*
X70326190Y-137885952D01*
X70135714Y-137885952D01*
X70040476Y-137933571D01*
X69992857Y-137981190D01*
X69945238Y-138076428D01*
X69945238Y-138266904D01*
X69992857Y-138362142D01*
X70040476Y-138409761D01*
X70135714Y-138457380D01*
X70326190Y-138457380D01*
X70421428Y-138409761D01*
X70469047Y-138362142D01*
X70516666Y-138266904D01*
X70516666Y-138076428D01*
X70469047Y-137981190D01*
X70421428Y-137933571D01*
X70326190Y-137885952D01*
X81740476Y-137457380D02*
X81740476Y-138171666D01*
X81692857Y-138314523D01*
X81597619Y-138409761D01*
X81454761Y-138457380D01*
X81359523Y-138457380D01*
X82740476Y-138457380D02*
X82169047Y-138457380D01*
X82454761Y-138457380D02*
X82454761Y-137457380D01*
X82359523Y-137600238D01*
X82264285Y-137695476D01*
X82169047Y-137743095D01*
X83359523Y-137457380D02*
X83454761Y-137457380D01*
X83550000Y-137505000D01*
X83597619Y-137552619D01*
X83645238Y-137647857D01*
X83692857Y-137838333D01*
X83692857Y-138076428D01*
X83645238Y-138266904D01*
X83597619Y-138362142D01*
X83550000Y-138409761D01*
X83454761Y-138457380D01*
X83359523Y-138457380D01*
X83264285Y-138409761D01*
X83216666Y-138362142D01*
X83169047Y-138266904D01*
X83121428Y-138076428D01*
X83121428Y-137838333D01*
X83169047Y-137647857D01*
X83216666Y-137552619D01*
X83264285Y-137505000D01*
X83359523Y-137457380D01*
X107140476Y-137457380D02*
X107140476Y-138171666D01*
X107092857Y-138314523D01*
X106997619Y-138409761D01*
X106854761Y-138457380D01*
X106759523Y-138457380D01*
X108140476Y-138457380D02*
X107569047Y-138457380D01*
X107854761Y-138457380D02*
X107854761Y-137457380D01*
X107759523Y-137600238D01*
X107664285Y-137695476D01*
X107569047Y-137743095D01*
X108521428Y-137552619D02*
X108569047Y-137505000D01*
X108664285Y-137457380D01*
X108902380Y-137457380D01*
X108997619Y-137505000D01*
X109045238Y-137552619D01*
X109092857Y-137647857D01*
X109092857Y-137743095D01*
X109045238Y-137885952D01*
X108473809Y-138457380D01*
X109092857Y-138457380D01*
X94440476Y-137457380D02*
X94440476Y-138171666D01*
X94392857Y-138314523D01*
X94297619Y-138409761D01*
X94154761Y-138457380D01*
X94059523Y-138457380D01*
X95440476Y-138457380D02*
X94869047Y-138457380D01*
X95154761Y-138457380D02*
X95154761Y-137457380D01*
X95059523Y-137600238D01*
X94964285Y-137695476D01*
X94869047Y-137743095D01*
X96297619Y-137790714D02*
X96297619Y-138457380D01*
X96059523Y-137409761D02*
X95821428Y-138124047D01*
X96440476Y-138124047D01*
X50252380Y-140509523D02*
X50966666Y-140509523D01*
X51109523Y-140557142D01*
X51204761Y-140652380D01*
X51252380Y-140795238D01*
X51252380Y-140890476D01*
X51252380Y-139509523D02*
X51252380Y-140080952D01*
X51252380Y-139795238D02*
X50252380Y-139795238D01*
X50395238Y-139890476D01*
X50490476Y-139985714D01*
X50538095Y-140080952D01*
X50252380Y-138652380D02*
X50252380Y-138842857D01*
X50300000Y-138938095D01*
X50347619Y-138985714D01*
X50490476Y-139080952D01*
X50680952Y-139128571D01*
X51061904Y-139128571D01*
X51157142Y-139080952D01*
X51204761Y-139033333D01*
X51252380Y-138938095D01*
X51252380Y-138747619D01*
X51204761Y-138652380D01*
X51157142Y-138604761D01*
X51061904Y-138557142D01*
X50823809Y-138557142D01*
X50728571Y-138604761D01*
X50680952Y-138652380D01*
X50633333Y-138747619D01*
X50633333Y-138938095D01*
X50680952Y-139033333D01*
X50728571Y-139080952D01*
X50823809Y-139128571D01*
X59991666Y-142327380D02*
X59991666Y-143041666D01*
X59944047Y-143184523D01*
X59848809Y-143279761D01*
X59705952Y-143327380D01*
X59610714Y-143327380D01*
X60372619Y-142327380D02*
X61039285Y-142327380D01*
X60610714Y-143327380D01*
X72691666Y-142327380D02*
X72691666Y-143041666D01*
X72644047Y-143184523D01*
X72548809Y-143279761D01*
X72405952Y-143327380D01*
X72310714Y-143327380D01*
X73215476Y-143327380D02*
X73405952Y-143327380D01*
X73501190Y-143279761D01*
X73548809Y-143232142D01*
X73644047Y-143089285D01*
X73691666Y-142898809D01*
X73691666Y-142517857D01*
X73644047Y-142422619D01*
X73596428Y-142375000D01*
X73501190Y-142327380D01*
X73310714Y-142327380D01*
X73215476Y-142375000D01*
X73167857Y-142422619D01*
X73120238Y-142517857D01*
X73120238Y-142755952D01*
X73167857Y-142851190D01*
X73215476Y-142898809D01*
X73310714Y-142946428D01*
X73501190Y-142946428D01*
X73596428Y-142898809D01*
X73644047Y-142851190D01*
X73691666Y-142755952D01*
X98250476Y-142327380D02*
X98250476Y-143041666D01*
X98202857Y-143184523D01*
X98107619Y-143279761D01*
X97964761Y-143327380D01*
X97869523Y-143327380D01*
X99250476Y-143327380D02*
X98679047Y-143327380D01*
X98964761Y-143327380D02*
X98964761Y-142327380D01*
X98869523Y-142470238D01*
X98774285Y-142565476D01*
X98679047Y-142613095D01*
X100202857Y-143327380D02*
X99631428Y-143327380D01*
X99917142Y-143327380D02*
X99917142Y-142327380D01*
X99821904Y-142470238D01*
X99726666Y-142565476D01*
X99631428Y-142613095D01*
X85550476Y-142327380D02*
X85550476Y-143041666D01*
X85502857Y-143184523D01*
X85407619Y-143279761D01*
X85264761Y-143327380D01*
X85169523Y-143327380D01*
X86550476Y-143327380D02*
X85979047Y-143327380D01*
X86264761Y-143327380D02*
X86264761Y-142327380D01*
X86169523Y-142470238D01*
X86074285Y-142565476D01*
X85979047Y-142613095D01*
X86883809Y-142327380D02*
X87502857Y-142327380D01*
X87169523Y-142708333D01*
X87312380Y-142708333D01*
X87407619Y-142755952D01*
X87455238Y-142803571D01*
X87502857Y-142898809D01*
X87502857Y-143136904D01*
X87455238Y-143232142D01*
X87407619Y-143279761D01*
X87312380Y-143327380D01*
X87026666Y-143327380D01*
X86931428Y-143279761D01*
X86883809Y-143232142D01*
X140692142Y-130976666D02*
X140739761Y-131024285D01*
X140787380Y-131167142D01*
X140787380Y-131262380D01*
X140739761Y-131405238D01*
X140644523Y-131500476D01*
X140549285Y-131548095D01*
X140358809Y-131595714D01*
X140215952Y-131595714D01*
X140025476Y-131548095D01*
X139930238Y-131500476D01*
X139835000Y-131405238D01*
X139787380Y-131262380D01*
X139787380Y-131167142D01*
X139835000Y-131024285D01*
X139882619Y-130976666D01*
X139882619Y-130595714D02*
X139835000Y-130548095D01*
X139787380Y-130452857D01*
X139787380Y-130214761D01*
X139835000Y-130119523D01*
X139882619Y-130071904D01*
X139977857Y-130024285D01*
X140073095Y-130024285D01*
X140215952Y-130071904D01*
X140787380Y-130643333D01*
X140787380Y-130024285D01*
M02*
