G04 #@! TF.GenerationSoftware,KiCad,Pcbnew,(5.1.4)-1*
G04 #@! TF.CreationDate,2020-02-24T20:22:09+01:00*
G04 #@! TF.ProjectId,stm32_board,73746d33-325f-4626-9f61-72642e6b6963,rev?*
G04 #@! TF.SameCoordinates,Original*
G04 #@! TF.FileFunction,Soldermask,Bot*
G04 #@! TF.FilePolarity,Negative*
%FSLAX46Y46*%
G04 Gerber Fmt 4.6, Leading zero omitted, Abs format (unit mm)*
G04 Created by KiCad (PCBNEW (5.1.4)-1) date 2020-02-24 20:22:09*
%MOMM*%
%LPD*%
G04 APERTURE LIST*
%ADD10C,0.100000*%
G04 APERTURE END LIST*
D10*
G36*
X82660442Y-147060518D02*
G01*
X82726627Y-147067037D01*
X82896466Y-147118557D01*
X83052991Y-147202222D01*
X83088729Y-147231552D01*
X83190186Y-147314814D01*
X83273448Y-147416271D01*
X83302778Y-147452009D01*
X83386443Y-147608534D01*
X83437963Y-147778373D01*
X83455359Y-147955000D01*
X83437963Y-148131627D01*
X83386443Y-148301466D01*
X83302778Y-148457991D01*
X83273448Y-148493729D01*
X83190186Y-148595186D01*
X83088729Y-148678448D01*
X83052991Y-148707778D01*
X82896466Y-148791443D01*
X82726627Y-148842963D01*
X82660443Y-148849481D01*
X82594260Y-148856000D01*
X82505740Y-148856000D01*
X82439557Y-148849481D01*
X82373373Y-148842963D01*
X82203534Y-148791443D01*
X82047009Y-148707778D01*
X82011271Y-148678448D01*
X81909814Y-148595186D01*
X81826552Y-148493729D01*
X81797222Y-148457991D01*
X81713557Y-148301466D01*
X81662037Y-148131627D01*
X81644641Y-147955000D01*
X81662037Y-147778373D01*
X81713557Y-147608534D01*
X81797222Y-147452009D01*
X81826552Y-147416271D01*
X81909814Y-147314814D01*
X82011271Y-147231552D01*
X82047009Y-147202222D01*
X82203534Y-147118557D01*
X82373373Y-147067037D01*
X82439558Y-147060518D01*
X82505740Y-147054000D01*
X82594260Y-147054000D01*
X82660442Y-147060518D01*
X82660442Y-147060518D01*
G37*
G36*
X95360442Y-147060518D02*
G01*
X95426627Y-147067037D01*
X95596466Y-147118557D01*
X95752991Y-147202222D01*
X95788729Y-147231552D01*
X95890186Y-147314814D01*
X95973448Y-147416271D01*
X96002778Y-147452009D01*
X96086443Y-147608534D01*
X96137963Y-147778373D01*
X96155359Y-147955000D01*
X96137963Y-148131627D01*
X96086443Y-148301466D01*
X96002778Y-148457991D01*
X95973448Y-148493729D01*
X95890186Y-148595186D01*
X95788729Y-148678448D01*
X95752991Y-148707778D01*
X95596466Y-148791443D01*
X95426627Y-148842963D01*
X95360443Y-148849481D01*
X95294260Y-148856000D01*
X95205740Y-148856000D01*
X95139557Y-148849481D01*
X95073373Y-148842963D01*
X94903534Y-148791443D01*
X94747009Y-148707778D01*
X94711271Y-148678448D01*
X94609814Y-148595186D01*
X94526552Y-148493729D01*
X94497222Y-148457991D01*
X94413557Y-148301466D01*
X94362037Y-148131627D01*
X94344641Y-147955000D01*
X94362037Y-147778373D01*
X94413557Y-147608534D01*
X94497222Y-147452009D01*
X94526552Y-147416271D01*
X94609814Y-147314814D01*
X94711271Y-147231552D01*
X94747009Y-147202222D01*
X94903534Y-147118557D01*
X95073373Y-147067037D01*
X95139558Y-147060518D01*
X95205740Y-147054000D01*
X95294260Y-147054000D01*
X95360442Y-147060518D01*
X95360442Y-147060518D01*
G37*
G36*
X108060442Y-147060518D02*
G01*
X108126627Y-147067037D01*
X108296466Y-147118557D01*
X108452991Y-147202222D01*
X108488729Y-147231552D01*
X108590186Y-147314814D01*
X108673448Y-147416271D01*
X108702778Y-147452009D01*
X108786443Y-147608534D01*
X108837963Y-147778373D01*
X108855359Y-147955000D01*
X108837963Y-148131627D01*
X108786443Y-148301466D01*
X108702778Y-148457991D01*
X108673448Y-148493729D01*
X108590186Y-148595186D01*
X108488729Y-148678448D01*
X108452991Y-148707778D01*
X108296466Y-148791443D01*
X108126627Y-148842963D01*
X108060443Y-148849481D01*
X107994260Y-148856000D01*
X107905740Y-148856000D01*
X107839557Y-148849481D01*
X107773373Y-148842963D01*
X107603534Y-148791443D01*
X107447009Y-148707778D01*
X107411271Y-148678448D01*
X107309814Y-148595186D01*
X107226552Y-148493729D01*
X107197222Y-148457991D01*
X107113557Y-148301466D01*
X107062037Y-148131627D01*
X107044641Y-147955000D01*
X107062037Y-147778373D01*
X107113557Y-147608534D01*
X107197222Y-147452009D01*
X107226552Y-147416271D01*
X107309814Y-147314814D01*
X107411271Y-147231552D01*
X107447009Y-147202222D01*
X107603534Y-147118557D01*
X107773373Y-147067037D01*
X107839558Y-147060518D01*
X107905740Y-147054000D01*
X107994260Y-147054000D01*
X108060442Y-147060518D01*
X108060442Y-147060518D01*
G37*
G36*
X69960442Y-147060518D02*
G01*
X70026627Y-147067037D01*
X70196466Y-147118557D01*
X70352991Y-147202222D01*
X70388729Y-147231552D01*
X70490186Y-147314814D01*
X70573448Y-147416271D01*
X70602778Y-147452009D01*
X70686443Y-147608534D01*
X70737963Y-147778373D01*
X70755359Y-147955000D01*
X70737963Y-148131627D01*
X70686443Y-148301466D01*
X70602778Y-148457991D01*
X70573448Y-148493729D01*
X70490186Y-148595186D01*
X70388729Y-148678448D01*
X70352991Y-148707778D01*
X70196466Y-148791443D01*
X70026627Y-148842963D01*
X69960443Y-148849481D01*
X69894260Y-148856000D01*
X69805740Y-148856000D01*
X69739557Y-148849481D01*
X69673373Y-148842963D01*
X69503534Y-148791443D01*
X69347009Y-148707778D01*
X69311271Y-148678448D01*
X69209814Y-148595186D01*
X69126552Y-148493729D01*
X69097222Y-148457991D01*
X69013557Y-148301466D01*
X68962037Y-148131627D01*
X68944641Y-147955000D01*
X68962037Y-147778373D01*
X69013557Y-147608534D01*
X69097222Y-147452009D01*
X69126552Y-147416271D01*
X69209814Y-147314814D01*
X69311271Y-147231552D01*
X69347009Y-147202222D01*
X69503534Y-147118557D01*
X69673373Y-147067037D01*
X69739558Y-147060518D01*
X69805740Y-147054000D01*
X69894260Y-147054000D01*
X69960442Y-147060518D01*
X69960442Y-147060518D01*
G37*
G36*
X147060256Y-145076298D02*
G01*
X147166579Y-145097447D01*
X147467042Y-145221903D01*
X147737451Y-145402585D01*
X147967415Y-145632549D01*
X148148097Y-145902958D01*
X148272553Y-146203421D01*
X148336000Y-146522391D01*
X148336000Y-146847609D01*
X148272553Y-147166579D01*
X148148097Y-147467042D01*
X147967415Y-147737451D01*
X147737451Y-147967415D01*
X147467042Y-148148097D01*
X147166579Y-148272553D01*
X147060256Y-148293702D01*
X146847611Y-148336000D01*
X146522389Y-148336000D01*
X146309744Y-148293702D01*
X146203421Y-148272553D01*
X145902958Y-148148097D01*
X145632549Y-147967415D01*
X145402585Y-147737451D01*
X145221903Y-147467042D01*
X145097447Y-147166579D01*
X145034000Y-146847609D01*
X145034000Y-146522391D01*
X145097447Y-146203421D01*
X145221903Y-145902958D01*
X145402585Y-145632549D01*
X145632549Y-145402585D01*
X145902958Y-145221903D01*
X146203421Y-145097447D01*
X146309744Y-145076298D01*
X146522389Y-145034000D01*
X146847611Y-145034000D01*
X147060256Y-145076298D01*
X147060256Y-145076298D01*
G37*
G36*
X53715256Y-145076298D02*
G01*
X53821579Y-145097447D01*
X54122042Y-145221903D01*
X54392451Y-145402585D01*
X54622415Y-145632549D01*
X54803097Y-145902958D01*
X54927553Y-146203421D01*
X54991000Y-146522391D01*
X54991000Y-146847609D01*
X54927553Y-147166579D01*
X54803097Y-147467042D01*
X54622415Y-147737451D01*
X54392451Y-147967415D01*
X54122042Y-148148097D01*
X53821579Y-148272553D01*
X53715256Y-148293702D01*
X53502611Y-148336000D01*
X53177389Y-148336000D01*
X52964744Y-148293702D01*
X52858421Y-148272553D01*
X52557958Y-148148097D01*
X52287549Y-147967415D01*
X52057585Y-147737451D01*
X51876903Y-147467042D01*
X51752447Y-147166579D01*
X51689000Y-146847609D01*
X51689000Y-146522391D01*
X51752447Y-146203421D01*
X51876903Y-145902958D01*
X52057585Y-145632549D01*
X52287549Y-145402585D01*
X52557958Y-145221903D01*
X52858421Y-145097447D01*
X52964744Y-145076298D01*
X53177389Y-145034000D01*
X53502611Y-145034000D01*
X53715256Y-145076298D01*
X53715256Y-145076298D01*
G37*
G36*
X69960442Y-144520518D02*
G01*
X70026627Y-144527037D01*
X70196466Y-144578557D01*
X70352991Y-144662222D01*
X70388729Y-144691552D01*
X70490186Y-144774814D01*
X70573448Y-144876271D01*
X70602778Y-144912009D01*
X70686443Y-145068534D01*
X70737963Y-145238373D01*
X70755359Y-145415000D01*
X70737963Y-145591627D01*
X70686443Y-145761466D01*
X70602778Y-145917991D01*
X70573448Y-145953729D01*
X70490186Y-146055186D01*
X70388729Y-146138448D01*
X70352991Y-146167778D01*
X70196466Y-146251443D01*
X70026627Y-146302963D01*
X69960442Y-146309482D01*
X69894260Y-146316000D01*
X69805740Y-146316000D01*
X69739558Y-146309482D01*
X69673373Y-146302963D01*
X69503534Y-146251443D01*
X69347009Y-146167778D01*
X69311271Y-146138448D01*
X69209814Y-146055186D01*
X69126552Y-145953729D01*
X69097222Y-145917991D01*
X69013557Y-145761466D01*
X68962037Y-145591627D01*
X68944641Y-145415000D01*
X68962037Y-145238373D01*
X69013557Y-145068534D01*
X69097222Y-144912009D01*
X69126552Y-144876271D01*
X69209814Y-144774814D01*
X69311271Y-144691552D01*
X69347009Y-144662222D01*
X69503534Y-144578557D01*
X69673373Y-144527037D01*
X69739558Y-144520518D01*
X69805740Y-144514000D01*
X69894260Y-144514000D01*
X69960442Y-144520518D01*
X69960442Y-144520518D01*
G37*
G36*
X108060442Y-144520518D02*
G01*
X108126627Y-144527037D01*
X108296466Y-144578557D01*
X108452991Y-144662222D01*
X108488729Y-144691552D01*
X108590186Y-144774814D01*
X108673448Y-144876271D01*
X108702778Y-144912009D01*
X108786443Y-145068534D01*
X108837963Y-145238373D01*
X108855359Y-145415000D01*
X108837963Y-145591627D01*
X108786443Y-145761466D01*
X108702778Y-145917991D01*
X108673448Y-145953729D01*
X108590186Y-146055186D01*
X108488729Y-146138448D01*
X108452991Y-146167778D01*
X108296466Y-146251443D01*
X108126627Y-146302963D01*
X108060442Y-146309482D01*
X107994260Y-146316000D01*
X107905740Y-146316000D01*
X107839558Y-146309482D01*
X107773373Y-146302963D01*
X107603534Y-146251443D01*
X107447009Y-146167778D01*
X107411271Y-146138448D01*
X107309814Y-146055186D01*
X107226552Y-145953729D01*
X107197222Y-145917991D01*
X107113557Y-145761466D01*
X107062037Y-145591627D01*
X107044641Y-145415000D01*
X107062037Y-145238373D01*
X107113557Y-145068534D01*
X107197222Y-144912009D01*
X107226552Y-144876271D01*
X107309814Y-144774814D01*
X107411271Y-144691552D01*
X107447009Y-144662222D01*
X107603534Y-144578557D01*
X107773373Y-144527037D01*
X107839558Y-144520518D01*
X107905740Y-144514000D01*
X107994260Y-144514000D01*
X108060442Y-144520518D01*
X108060442Y-144520518D01*
G37*
G36*
X82660442Y-144520518D02*
G01*
X82726627Y-144527037D01*
X82896466Y-144578557D01*
X83052991Y-144662222D01*
X83088729Y-144691552D01*
X83190186Y-144774814D01*
X83273448Y-144876271D01*
X83302778Y-144912009D01*
X83386443Y-145068534D01*
X83437963Y-145238373D01*
X83455359Y-145415000D01*
X83437963Y-145591627D01*
X83386443Y-145761466D01*
X83302778Y-145917991D01*
X83273448Y-145953729D01*
X83190186Y-146055186D01*
X83088729Y-146138448D01*
X83052991Y-146167778D01*
X82896466Y-146251443D01*
X82726627Y-146302963D01*
X82660442Y-146309482D01*
X82594260Y-146316000D01*
X82505740Y-146316000D01*
X82439558Y-146309482D01*
X82373373Y-146302963D01*
X82203534Y-146251443D01*
X82047009Y-146167778D01*
X82011271Y-146138448D01*
X81909814Y-146055186D01*
X81826552Y-145953729D01*
X81797222Y-145917991D01*
X81713557Y-145761466D01*
X81662037Y-145591627D01*
X81644641Y-145415000D01*
X81662037Y-145238373D01*
X81713557Y-145068534D01*
X81797222Y-144912009D01*
X81826552Y-144876271D01*
X81909814Y-144774814D01*
X82011271Y-144691552D01*
X82047009Y-144662222D01*
X82203534Y-144578557D01*
X82373373Y-144527037D01*
X82439558Y-144520518D01*
X82505740Y-144514000D01*
X82594260Y-144514000D01*
X82660442Y-144520518D01*
X82660442Y-144520518D01*
G37*
G36*
X95360442Y-144520518D02*
G01*
X95426627Y-144527037D01*
X95596466Y-144578557D01*
X95752991Y-144662222D01*
X95788729Y-144691552D01*
X95890186Y-144774814D01*
X95973448Y-144876271D01*
X96002778Y-144912009D01*
X96086443Y-145068534D01*
X96137963Y-145238373D01*
X96155359Y-145415000D01*
X96137963Y-145591627D01*
X96086443Y-145761466D01*
X96002778Y-145917991D01*
X95973448Y-145953729D01*
X95890186Y-146055186D01*
X95788729Y-146138448D01*
X95752991Y-146167778D01*
X95596466Y-146251443D01*
X95426627Y-146302963D01*
X95360442Y-146309482D01*
X95294260Y-146316000D01*
X95205740Y-146316000D01*
X95139558Y-146309482D01*
X95073373Y-146302963D01*
X94903534Y-146251443D01*
X94747009Y-146167778D01*
X94711271Y-146138448D01*
X94609814Y-146055186D01*
X94526552Y-145953729D01*
X94497222Y-145917991D01*
X94413557Y-145761466D01*
X94362037Y-145591627D01*
X94344641Y-145415000D01*
X94362037Y-145238373D01*
X94413557Y-145068534D01*
X94497222Y-144912009D01*
X94526552Y-144876271D01*
X94609814Y-144774814D01*
X94711271Y-144691552D01*
X94747009Y-144662222D01*
X94903534Y-144578557D01*
X95073373Y-144527037D01*
X95139558Y-144520518D01*
X95205740Y-144514000D01*
X95294260Y-144514000D01*
X95360442Y-144520518D01*
X95360442Y-144520518D01*
G37*
G36*
X95360443Y-141980519D02*
G01*
X95426627Y-141987037D01*
X95596466Y-142038557D01*
X95752991Y-142122222D01*
X95773714Y-142139229D01*
X95890186Y-142234814D01*
X95973448Y-142336271D01*
X96002778Y-142372009D01*
X96086443Y-142528534D01*
X96137963Y-142698373D01*
X96155359Y-142875000D01*
X96137963Y-143051627D01*
X96086443Y-143221466D01*
X96002778Y-143377991D01*
X95973448Y-143413729D01*
X95890186Y-143515186D01*
X95788729Y-143598448D01*
X95752991Y-143627778D01*
X95596466Y-143711443D01*
X95426627Y-143762963D01*
X95360442Y-143769482D01*
X95294260Y-143776000D01*
X95205740Y-143776000D01*
X95139558Y-143769482D01*
X95073373Y-143762963D01*
X94903534Y-143711443D01*
X94747009Y-143627778D01*
X94711271Y-143598448D01*
X94609814Y-143515186D01*
X94526552Y-143413729D01*
X94497222Y-143377991D01*
X94413557Y-143221466D01*
X94362037Y-143051627D01*
X94344641Y-142875000D01*
X94362037Y-142698373D01*
X94413557Y-142528534D01*
X94497222Y-142372009D01*
X94526552Y-142336271D01*
X94609814Y-142234814D01*
X94726286Y-142139229D01*
X94747009Y-142122222D01*
X94903534Y-142038557D01*
X95073373Y-141987037D01*
X95139557Y-141980519D01*
X95205740Y-141974000D01*
X95294260Y-141974000D01*
X95360443Y-141980519D01*
X95360443Y-141980519D01*
G37*
G36*
X69960443Y-141980519D02*
G01*
X70026627Y-141987037D01*
X70196466Y-142038557D01*
X70352991Y-142122222D01*
X70373714Y-142139229D01*
X70490186Y-142234814D01*
X70573448Y-142336271D01*
X70602778Y-142372009D01*
X70686443Y-142528534D01*
X70737963Y-142698373D01*
X70755359Y-142875000D01*
X70737963Y-143051627D01*
X70686443Y-143221466D01*
X70602778Y-143377991D01*
X70573448Y-143413729D01*
X70490186Y-143515186D01*
X70388729Y-143598448D01*
X70352991Y-143627778D01*
X70196466Y-143711443D01*
X70026627Y-143762963D01*
X69960442Y-143769482D01*
X69894260Y-143776000D01*
X69805740Y-143776000D01*
X69739558Y-143769482D01*
X69673373Y-143762963D01*
X69503534Y-143711443D01*
X69347009Y-143627778D01*
X69311271Y-143598448D01*
X69209814Y-143515186D01*
X69126552Y-143413729D01*
X69097222Y-143377991D01*
X69013557Y-143221466D01*
X68962037Y-143051627D01*
X68944641Y-142875000D01*
X68962037Y-142698373D01*
X69013557Y-142528534D01*
X69097222Y-142372009D01*
X69126552Y-142336271D01*
X69209814Y-142234814D01*
X69326286Y-142139229D01*
X69347009Y-142122222D01*
X69503534Y-142038557D01*
X69673373Y-141987037D01*
X69739557Y-141980519D01*
X69805740Y-141974000D01*
X69894260Y-141974000D01*
X69960443Y-141980519D01*
X69960443Y-141980519D01*
G37*
G36*
X82660443Y-141980519D02*
G01*
X82726627Y-141987037D01*
X82896466Y-142038557D01*
X83052991Y-142122222D01*
X83073714Y-142139229D01*
X83190186Y-142234814D01*
X83273448Y-142336271D01*
X83302778Y-142372009D01*
X83386443Y-142528534D01*
X83437963Y-142698373D01*
X83455359Y-142875000D01*
X83437963Y-143051627D01*
X83386443Y-143221466D01*
X83302778Y-143377991D01*
X83273448Y-143413729D01*
X83190186Y-143515186D01*
X83088729Y-143598448D01*
X83052991Y-143627778D01*
X82896466Y-143711443D01*
X82726627Y-143762963D01*
X82660442Y-143769482D01*
X82594260Y-143776000D01*
X82505740Y-143776000D01*
X82439558Y-143769482D01*
X82373373Y-143762963D01*
X82203534Y-143711443D01*
X82047009Y-143627778D01*
X82011271Y-143598448D01*
X81909814Y-143515186D01*
X81826552Y-143413729D01*
X81797222Y-143377991D01*
X81713557Y-143221466D01*
X81662037Y-143051627D01*
X81644641Y-142875000D01*
X81662037Y-142698373D01*
X81713557Y-142528534D01*
X81797222Y-142372009D01*
X81826552Y-142336271D01*
X81909814Y-142234814D01*
X82026286Y-142139229D01*
X82047009Y-142122222D01*
X82203534Y-142038557D01*
X82373373Y-141987037D01*
X82439557Y-141980519D01*
X82505740Y-141974000D01*
X82594260Y-141974000D01*
X82660443Y-141980519D01*
X82660443Y-141980519D01*
G37*
G36*
X108060443Y-141980519D02*
G01*
X108126627Y-141987037D01*
X108296466Y-142038557D01*
X108452991Y-142122222D01*
X108473714Y-142139229D01*
X108590186Y-142234814D01*
X108673448Y-142336271D01*
X108702778Y-142372009D01*
X108786443Y-142528534D01*
X108837963Y-142698373D01*
X108855359Y-142875000D01*
X108837963Y-143051627D01*
X108786443Y-143221466D01*
X108702778Y-143377991D01*
X108673448Y-143413729D01*
X108590186Y-143515186D01*
X108488729Y-143598448D01*
X108452991Y-143627778D01*
X108296466Y-143711443D01*
X108126627Y-143762963D01*
X108060442Y-143769482D01*
X107994260Y-143776000D01*
X107905740Y-143776000D01*
X107839558Y-143769482D01*
X107773373Y-143762963D01*
X107603534Y-143711443D01*
X107447009Y-143627778D01*
X107411271Y-143598448D01*
X107309814Y-143515186D01*
X107226552Y-143413729D01*
X107197222Y-143377991D01*
X107113557Y-143221466D01*
X107062037Y-143051627D01*
X107044641Y-142875000D01*
X107062037Y-142698373D01*
X107113557Y-142528534D01*
X107197222Y-142372009D01*
X107226552Y-142336271D01*
X107309814Y-142234814D01*
X107426286Y-142139229D01*
X107447009Y-142122222D01*
X107603534Y-142038557D01*
X107773373Y-141987037D01*
X107839557Y-141980519D01*
X107905740Y-141974000D01*
X107994260Y-141974000D01*
X108060443Y-141980519D01*
X108060443Y-141980519D01*
G37*
G36*
X132237023Y-139680590D02*
G01*
X132337682Y-139711125D01*
X132388013Y-139726392D01*
X132527165Y-139800771D01*
X132649133Y-139900867D01*
X132749229Y-140022835D01*
X132823608Y-140161987D01*
X132823608Y-140161988D01*
X132869410Y-140312977D01*
X132881000Y-140430655D01*
X132881000Y-141509345D01*
X132869410Y-141627023D01*
X132838875Y-141727682D01*
X132823608Y-141778013D01*
X132749230Y-141917164D01*
X132749229Y-141917165D01*
X132649133Y-142039133D01*
X132547887Y-142122222D01*
X132527164Y-142139229D01*
X132388012Y-142213608D01*
X132337681Y-142228875D01*
X132237022Y-142259410D01*
X132080000Y-142274875D01*
X131922977Y-142259410D01*
X131822318Y-142228875D01*
X131771987Y-142213608D01*
X131632835Y-142139229D01*
X131612111Y-142122221D01*
X131510867Y-142039133D01*
X131410771Y-141917164D01*
X131336393Y-141778013D01*
X131336392Y-141778012D01*
X131321125Y-141727681D01*
X131290590Y-141627022D01*
X131279000Y-141509344D01*
X131279001Y-140430655D01*
X131290591Y-140312977D01*
X131336393Y-140161988D01*
X131336393Y-140161987D01*
X131410772Y-140022835D01*
X131510868Y-139900867D01*
X131632836Y-139800771D01*
X131771988Y-139726392D01*
X131822319Y-139711125D01*
X131922978Y-139680590D01*
X132080000Y-139665125D01*
X132237023Y-139680590D01*
X132237023Y-139680590D01*
G37*
G36*
X129697023Y-139680590D02*
G01*
X129797682Y-139711125D01*
X129848013Y-139726392D01*
X129987165Y-139800771D01*
X130109133Y-139900867D01*
X130209229Y-140022835D01*
X130283608Y-140161987D01*
X130283608Y-140161988D01*
X130329410Y-140312977D01*
X130341000Y-140430655D01*
X130341000Y-141509345D01*
X130329410Y-141627023D01*
X130298875Y-141727682D01*
X130283608Y-141778013D01*
X130209230Y-141917164D01*
X130209229Y-141917165D01*
X130109133Y-142039133D01*
X130007887Y-142122222D01*
X129987164Y-142139229D01*
X129848012Y-142213608D01*
X129797681Y-142228875D01*
X129697022Y-142259410D01*
X129540000Y-142274875D01*
X129382977Y-142259410D01*
X129282318Y-142228875D01*
X129231987Y-142213608D01*
X129092835Y-142139229D01*
X129072111Y-142122221D01*
X128970867Y-142039133D01*
X128870771Y-141917164D01*
X128796393Y-141778013D01*
X128796392Y-141778012D01*
X128781125Y-141727681D01*
X128750590Y-141627022D01*
X128739000Y-141509344D01*
X128739001Y-140430655D01*
X128750591Y-140312977D01*
X128796393Y-140161988D01*
X128796393Y-140161987D01*
X128870772Y-140022835D01*
X128970868Y-139900867D01*
X129092836Y-139800771D01*
X129231988Y-139726392D01*
X129282319Y-139711125D01*
X129382978Y-139680590D01*
X129540000Y-139665125D01*
X129697023Y-139680590D01*
X129697023Y-139680590D01*
G37*
G36*
X135421000Y-142271000D02*
G01*
X133819000Y-142271000D01*
X133819000Y-139669000D01*
X135421000Y-139669000D01*
X135421000Y-142271000D01*
X135421000Y-142271000D01*
G37*
G36*
X108851000Y-141236000D02*
G01*
X107049000Y-141236000D01*
X107049000Y-139434000D01*
X108851000Y-139434000D01*
X108851000Y-141236000D01*
X108851000Y-141236000D01*
G37*
G36*
X70751000Y-141236000D02*
G01*
X68949000Y-141236000D01*
X68949000Y-139434000D01*
X70751000Y-139434000D01*
X70751000Y-141236000D01*
X70751000Y-141236000D01*
G37*
G36*
X83451000Y-141236000D02*
G01*
X81649000Y-141236000D01*
X81649000Y-139434000D01*
X83451000Y-139434000D01*
X83451000Y-141236000D01*
X83451000Y-141236000D01*
G37*
G36*
X96151000Y-141236000D02*
G01*
X94349000Y-141236000D01*
X94349000Y-139434000D01*
X96151000Y-139434000D01*
X96151000Y-141236000D01*
X96151000Y-141236000D01*
G37*
G36*
X53450442Y-138805518D02*
G01*
X53516627Y-138812037D01*
X53686466Y-138863557D01*
X53842991Y-138947222D01*
X53878729Y-138976552D01*
X53980186Y-139059814D01*
X54063448Y-139161271D01*
X54092778Y-139197009D01*
X54176443Y-139353534D01*
X54227963Y-139523373D01*
X54245359Y-139700000D01*
X54227963Y-139876627D01*
X54176443Y-140046466D01*
X54092778Y-140202991D01*
X54063448Y-140238729D01*
X53980186Y-140340186D01*
X53878729Y-140423448D01*
X53842991Y-140452778D01*
X53686466Y-140536443D01*
X53516627Y-140587963D01*
X53450442Y-140594482D01*
X53384260Y-140601000D01*
X53295740Y-140601000D01*
X53229558Y-140594482D01*
X53163373Y-140587963D01*
X52993534Y-140536443D01*
X52837009Y-140452778D01*
X52801271Y-140423448D01*
X52699814Y-140340186D01*
X52616552Y-140238729D01*
X52587222Y-140202991D01*
X52503557Y-140046466D01*
X52452037Y-139876627D01*
X52434641Y-139700000D01*
X52452037Y-139523373D01*
X52503557Y-139353534D01*
X52587222Y-139197009D01*
X52616552Y-139161271D01*
X52699814Y-139059814D01*
X52801271Y-138976552D01*
X52837009Y-138947222D01*
X52993534Y-138863557D01*
X53163373Y-138812037D01*
X53229558Y-138805518D01*
X53295740Y-138799000D01*
X53384260Y-138799000D01*
X53450442Y-138805518D01*
X53450442Y-138805518D01*
G37*
G36*
X55990442Y-138805518D02*
G01*
X56056627Y-138812037D01*
X56226466Y-138863557D01*
X56382991Y-138947222D01*
X56418729Y-138976552D01*
X56520186Y-139059814D01*
X56603448Y-139161271D01*
X56632778Y-139197009D01*
X56716443Y-139353534D01*
X56767963Y-139523373D01*
X56785359Y-139700000D01*
X56767963Y-139876627D01*
X56716443Y-140046466D01*
X56632778Y-140202991D01*
X56603448Y-140238729D01*
X56520186Y-140340186D01*
X56418729Y-140423448D01*
X56382991Y-140452778D01*
X56226466Y-140536443D01*
X56056627Y-140587963D01*
X55990442Y-140594482D01*
X55924260Y-140601000D01*
X55835740Y-140601000D01*
X55769558Y-140594482D01*
X55703373Y-140587963D01*
X55533534Y-140536443D01*
X55377009Y-140452778D01*
X55341271Y-140423448D01*
X55239814Y-140340186D01*
X55156552Y-140238729D01*
X55127222Y-140202991D01*
X55043557Y-140046466D01*
X54992037Y-139876627D01*
X54974641Y-139700000D01*
X54992037Y-139523373D01*
X55043557Y-139353534D01*
X55127222Y-139197009D01*
X55156552Y-139161271D01*
X55239814Y-139059814D01*
X55341271Y-138976552D01*
X55377009Y-138947222D01*
X55533534Y-138863557D01*
X55703373Y-138812037D01*
X55769558Y-138805518D01*
X55835740Y-138799000D01*
X55924260Y-138799000D01*
X55990442Y-138805518D01*
X55990442Y-138805518D01*
G37*
G36*
X58530442Y-138805518D02*
G01*
X58596627Y-138812037D01*
X58766466Y-138863557D01*
X58922991Y-138947222D01*
X58958729Y-138976552D01*
X59060186Y-139059814D01*
X59143448Y-139161271D01*
X59172778Y-139197009D01*
X59256443Y-139353534D01*
X59307963Y-139523373D01*
X59325359Y-139700000D01*
X59307963Y-139876627D01*
X59256443Y-140046466D01*
X59172778Y-140202991D01*
X59143448Y-140238729D01*
X59060186Y-140340186D01*
X58958729Y-140423448D01*
X58922991Y-140452778D01*
X58766466Y-140536443D01*
X58596627Y-140587963D01*
X58530442Y-140594482D01*
X58464260Y-140601000D01*
X58375740Y-140601000D01*
X58309558Y-140594482D01*
X58243373Y-140587963D01*
X58073534Y-140536443D01*
X57917009Y-140452778D01*
X57881271Y-140423448D01*
X57779814Y-140340186D01*
X57696552Y-140238729D01*
X57667222Y-140202991D01*
X57583557Y-140046466D01*
X57532037Y-139876627D01*
X57514641Y-139700000D01*
X57532037Y-139523373D01*
X57583557Y-139353534D01*
X57667222Y-139197009D01*
X57696552Y-139161271D01*
X57779814Y-139059814D01*
X57881271Y-138976552D01*
X57917009Y-138947222D01*
X58073534Y-138863557D01*
X58243373Y-138812037D01*
X58309558Y-138805518D01*
X58375740Y-138799000D01*
X58464260Y-138799000D01*
X58530442Y-138805518D01*
X58530442Y-138805518D01*
G37*
G36*
X61861000Y-140601000D02*
G01*
X60059000Y-140601000D01*
X60059000Y-138799000D01*
X61861000Y-138799000D01*
X61861000Y-140601000D01*
X61861000Y-140601000D01*
G37*
G36*
X122821000Y-136791000D02*
G01*
X121019000Y-136791000D01*
X121019000Y-134989000D01*
X122821000Y-134989000D01*
X122821000Y-136791000D01*
X122821000Y-136791000D01*
G37*
G36*
X120281000Y-136791000D02*
G01*
X118479000Y-136791000D01*
X118479000Y-134989000D01*
X120281000Y-134989000D01*
X120281000Y-136791000D01*
X120281000Y-136791000D01*
G37*
G36*
X59321000Y-135521000D02*
G01*
X57519000Y-135521000D01*
X57519000Y-133719000D01*
X59321000Y-133719000D01*
X59321000Y-135521000D01*
X59321000Y-135521000D01*
G37*
G36*
X53450443Y-133725519D02*
G01*
X53516627Y-133732037D01*
X53686466Y-133783557D01*
X53842991Y-133867222D01*
X53878729Y-133896552D01*
X53980186Y-133979814D01*
X54063448Y-134081271D01*
X54092778Y-134117009D01*
X54176443Y-134273534D01*
X54227963Y-134443373D01*
X54245359Y-134620000D01*
X54227963Y-134796627D01*
X54176443Y-134966466D01*
X54092778Y-135122991D01*
X54063448Y-135158729D01*
X53980186Y-135260186D01*
X53878729Y-135343448D01*
X53842991Y-135372778D01*
X53686466Y-135456443D01*
X53516627Y-135507963D01*
X53450443Y-135514481D01*
X53384260Y-135521000D01*
X53295740Y-135521000D01*
X53229557Y-135514481D01*
X53163373Y-135507963D01*
X52993534Y-135456443D01*
X52837009Y-135372778D01*
X52801271Y-135343448D01*
X52699814Y-135260186D01*
X52616552Y-135158729D01*
X52587222Y-135122991D01*
X52503557Y-134966466D01*
X52452037Y-134796627D01*
X52434641Y-134620000D01*
X52452037Y-134443373D01*
X52503557Y-134273534D01*
X52587222Y-134117009D01*
X52616552Y-134081271D01*
X52699814Y-133979814D01*
X52801271Y-133896552D01*
X52837009Y-133867222D01*
X52993534Y-133783557D01*
X53163373Y-133732037D01*
X53229557Y-133725519D01*
X53295740Y-133719000D01*
X53384260Y-133719000D01*
X53450443Y-133725519D01*
X53450443Y-133725519D01*
G37*
G36*
X55990443Y-133725519D02*
G01*
X56056627Y-133732037D01*
X56226466Y-133783557D01*
X56382991Y-133867222D01*
X56418729Y-133896552D01*
X56520186Y-133979814D01*
X56603448Y-134081271D01*
X56632778Y-134117009D01*
X56716443Y-134273534D01*
X56767963Y-134443373D01*
X56785359Y-134620000D01*
X56767963Y-134796627D01*
X56716443Y-134966466D01*
X56632778Y-135122991D01*
X56603448Y-135158729D01*
X56520186Y-135260186D01*
X56418729Y-135343448D01*
X56382991Y-135372778D01*
X56226466Y-135456443D01*
X56056627Y-135507963D01*
X55990443Y-135514481D01*
X55924260Y-135521000D01*
X55835740Y-135521000D01*
X55769557Y-135514481D01*
X55703373Y-135507963D01*
X55533534Y-135456443D01*
X55377009Y-135372778D01*
X55341271Y-135343448D01*
X55239814Y-135260186D01*
X55156552Y-135158729D01*
X55127222Y-135122991D01*
X55043557Y-134966466D01*
X54992037Y-134796627D01*
X54974641Y-134620000D01*
X54992037Y-134443373D01*
X55043557Y-134273534D01*
X55127222Y-134117009D01*
X55156552Y-134081271D01*
X55239814Y-133979814D01*
X55341271Y-133896552D01*
X55377009Y-133867222D01*
X55533534Y-133783557D01*
X55703373Y-133732037D01*
X55769557Y-133725519D01*
X55835740Y-133719000D01*
X55924260Y-133719000D01*
X55990443Y-133725519D01*
X55990443Y-133725519D01*
G37*
G36*
X119490442Y-132455518D02*
G01*
X119556627Y-132462037D01*
X119726466Y-132513557D01*
X119882991Y-132597222D01*
X119918729Y-132626552D01*
X120020186Y-132709814D01*
X120103448Y-132811271D01*
X120132778Y-132847009D01*
X120216443Y-133003534D01*
X120267963Y-133173373D01*
X120285359Y-133350000D01*
X120267963Y-133526627D01*
X120216443Y-133696466D01*
X120132778Y-133852991D01*
X120103448Y-133888729D01*
X120020186Y-133990186D01*
X119918729Y-134073448D01*
X119882991Y-134102778D01*
X119726466Y-134186443D01*
X119556627Y-134237963D01*
X119490443Y-134244481D01*
X119424260Y-134251000D01*
X119335740Y-134251000D01*
X119269557Y-134244481D01*
X119203373Y-134237963D01*
X119033534Y-134186443D01*
X118877009Y-134102778D01*
X118841271Y-134073448D01*
X118739814Y-133990186D01*
X118656552Y-133888729D01*
X118627222Y-133852991D01*
X118543557Y-133696466D01*
X118492037Y-133526627D01*
X118474641Y-133350000D01*
X118492037Y-133173373D01*
X118543557Y-133003534D01*
X118627222Y-132847009D01*
X118656552Y-132811271D01*
X118739814Y-132709814D01*
X118841271Y-132626552D01*
X118877009Y-132597222D01*
X119033534Y-132513557D01*
X119203373Y-132462037D01*
X119269558Y-132455518D01*
X119335740Y-132449000D01*
X119424260Y-132449000D01*
X119490442Y-132455518D01*
X119490442Y-132455518D01*
G37*
G36*
X122030442Y-132455518D02*
G01*
X122096627Y-132462037D01*
X122266466Y-132513557D01*
X122422991Y-132597222D01*
X122458729Y-132626552D01*
X122560186Y-132709814D01*
X122643448Y-132811271D01*
X122672778Y-132847009D01*
X122756443Y-133003534D01*
X122807963Y-133173373D01*
X122825359Y-133350000D01*
X122807963Y-133526627D01*
X122756443Y-133696466D01*
X122672778Y-133852991D01*
X122643448Y-133888729D01*
X122560186Y-133990186D01*
X122458729Y-134073448D01*
X122422991Y-134102778D01*
X122266466Y-134186443D01*
X122096627Y-134237963D01*
X122030443Y-134244481D01*
X121964260Y-134251000D01*
X121875740Y-134251000D01*
X121809557Y-134244481D01*
X121743373Y-134237963D01*
X121573534Y-134186443D01*
X121417009Y-134102778D01*
X121381271Y-134073448D01*
X121279814Y-133990186D01*
X121196552Y-133888729D01*
X121167222Y-133852991D01*
X121083557Y-133696466D01*
X121032037Y-133526627D01*
X121014641Y-133350000D01*
X121032037Y-133173373D01*
X121083557Y-133003534D01*
X121167222Y-132847009D01*
X121196552Y-132811271D01*
X121279814Y-132709814D01*
X121381271Y-132626552D01*
X121417009Y-132597222D01*
X121573534Y-132513557D01*
X121743373Y-132462037D01*
X121809558Y-132455518D01*
X121875740Y-132449000D01*
X121964260Y-132449000D01*
X122030442Y-132455518D01*
X122030442Y-132455518D01*
G37*
G36*
X119490442Y-129915518D02*
G01*
X119556627Y-129922037D01*
X119726466Y-129973557D01*
X119882991Y-130057222D01*
X119909948Y-130079345D01*
X120020186Y-130169814D01*
X120103448Y-130271271D01*
X120132778Y-130307009D01*
X120216443Y-130463534D01*
X120267963Y-130633373D01*
X120285359Y-130810000D01*
X120267963Y-130986627D01*
X120216443Y-131156466D01*
X120132778Y-131312991D01*
X120103448Y-131348729D01*
X120020186Y-131450186D01*
X119918729Y-131533448D01*
X119882991Y-131562778D01*
X119726466Y-131646443D01*
X119556627Y-131697963D01*
X119490443Y-131704481D01*
X119424260Y-131711000D01*
X119335740Y-131711000D01*
X119269557Y-131704481D01*
X119203373Y-131697963D01*
X119033534Y-131646443D01*
X118877009Y-131562778D01*
X118841271Y-131533448D01*
X118739814Y-131450186D01*
X118656552Y-131348729D01*
X118627222Y-131312991D01*
X118543557Y-131156466D01*
X118492037Y-130986627D01*
X118474641Y-130810000D01*
X118492037Y-130633373D01*
X118543557Y-130463534D01*
X118627222Y-130307009D01*
X118656552Y-130271271D01*
X118739814Y-130169814D01*
X118850052Y-130079345D01*
X118877009Y-130057222D01*
X119033534Y-129973557D01*
X119203373Y-129922037D01*
X119269558Y-129915518D01*
X119335740Y-129909000D01*
X119424260Y-129909000D01*
X119490442Y-129915518D01*
X119490442Y-129915518D01*
G37*
G36*
X122030442Y-129915518D02*
G01*
X122096627Y-129922037D01*
X122266466Y-129973557D01*
X122422991Y-130057222D01*
X122449948Y-130079345D01*
X122560186Y-130169814D01*
X122643448Y-130271271D01*
X122672778Y-130307009D01*
X122756443Y-130463534D01*
X122807963Y-130633373D01*
X122825359Y-130810000D01*
X122807963Y-130986627D01*
X122756443Y-131156466D01*
X122672778Y-131312991D01*
X122643448Y-131348729D01*
X122560186Y-131450186D01*
X122458729Y-131533448D01*
X122422991Y-131562778D01*
X122266466Y-131646443D01*
X122096627Y-131697963D01*
X122030443Y-131704481D01*
X121964260Y-131711000D01*
X121875740Y-131711000D01*
X121809557Y-131704481D01*
X121743373Y-131697963D01*
X121573534Y-131646443D01*
X121417009Y-131562778D01*
X121381271Y-131533448D01*
X121279814Y-131450186D01*
X121196552Y-131348729D01*
X121167222Y-131312991D01*
X121083557Y-131156466D01*
X121032037Y-130986627D01*
X121014641Y-130810000D01*
X121032037Y-130633373D01*
X121083557Y-130463534D01*
X121167222Y-130307009D01*
X121196552Y-130271271D01*
X121279814Y-130169814D01*
X121390052Y-130079345D01*
X121417009Y-130057222D01*
X121573534Y-129973557D01*
X121743373Y-129922037D01*
X121809558Y-129915518D01*
X121875740Y-129909000D01*
X121964260Y-129909000D01*
X122030442Y-129915518D01*
X122030442Y-129915518D01*
G37*
G36*
X132237023Y-128250590D02*
G01*
X132337682Y-128281125D01*
X132388013Y-128296392D01*
X132527165Y-128370771D01*
X132649133Y-128470867D01*
X132749229Y-128592835D01*
X132823608Y-128731987D01*
X132823608Y-128731988D01*
X132869410Y-128882977D01*
X132881000Y-129000655D01*
X132881000Y-130079345D01*
X132869410Y-130197023D01*
X132840363Y-130292778D01*
X132823608Y-130348013D01*
X132780873Y-130427963D01*
X132749229Y-130487165D01*
X132649133Y-130609133D01*
X132527164Y-130709229D01*
X132388012Y-130783608D01*
X132337681Y-130798875D01*
X132237022Y-130829410D01*
X132080000Y-130844875D01*
X131922977Y-130829410D01*
X131822318Y-130798875D01*
X131771987Y-130783608D01*
X131632835Y-130709229D01*
X131510867Y-130609133D01*
X131410771Y-130487164D01*
X131351589Y-130376443D01*
X131336392Y-130348012D01*
X131319637Y-130292778D01*
X131290590Y-130197022D01*
X131279000Y-130079344D01*
X131279001Y-129000655D01*
X131290591Y-128882977D01*
X131336393Y-128731988D01*
X131336393Y-128731987D01*
X131410772Y-128592835D01*
X131510868Y-128470867D01*
X131632836Y-128370771D01*
X131771988Y-128296392D01*
X131822319Y-128281125D01*
X131922978Y-128250590D01*
X132080000Y-128235125D01*
X132237023Y-128250590D01*
X132237023Y-128250590D01*
G37*
G36*
X129697023Y-128250590D02*
G01*
X129797682Y-128281125D01*
X129848013Y-128296392D01*
X129987165Y-128370771D01*
X130109133Y-128470867D01*
X130209229Y-128592835D01*
X130283608Y-128731987D01*
X130283608Y-128731988D01*
X130329410Y-128882977D01*
X130341000Y-129000655D01*
X130341000Y-130079345D01*
X130329410Y-130197023D01*
X130300363Y-130292778D01*
X130283608Y-130348013D01*
X130240873Y-130427963D01*
X130209229Y-130487165D01*
X130109133Y-130609133D01*
X129987164Y-130709229D01*
X129848012Y-130783608D01*
X129797681Y-130798875D01*
X129697022Y-130829410D01*
X129540000Y-130844875D01*
X129382977Y-130829410D01*
X129282318Y-130798875D01*
X129231987Y-130783608D01*
X129092835Y-130709229D01*
X128970867Y-130609133D01*
X128870771Y-130487164D01*
X128811589Y-130376443D01*
X128796392Y-130348012D01*
X128779637Y-130292778D01*
X128750590Y-130197022D01*
X128739000Y-130079344D01*
X128739001Y-129000655D01*
X128750591Y-128882977D01*
X128796393Y-128731988D01*
X128796393Y-128731987D01*
X128870772Y-128592835D01*
X128970868Y-128470867D01*
X129092836Y-128370771D01*
X129231988Y-128296392D01*
X129282319Y-128281125D01*
X129382978Y-128250590D01*
X129540000Y-128235125D01*
X129697023Y-128250590D01*
X129697023Y-128250590D01*
G37*
G36*
X135421000Y-130841000D02*
G01*
X133819000Y-130841000D01*
X133819000Y-128239000D01*
X135421000Y-128239000D01*
X135421000Y-130841000D01*
X135421000Y-130841000D01*
G37*
G36*
X53450443Y-128645519D02*
G01*
X53516627Y-128652037D01*
X53686466Y-128703557D01*
X53842991Y-128787222D01*
X53878729Y-128816552D01*
X53980186Y-128899814D01*
X54062942Y-129000654D01*
X54092778Y-129037009D01*
X54176443Y-129193534D01*
X54227963Y-129363373D01*
X54245359Y-129540000D01*
X54227963Y-129716627D01*
X54176443Y-129886466D01*
X54092778Y-130042991D01*
X54063448Y-130078729D01*
X53980186Y-130180186D01*
X53878729Y-130263448D01*
X53842991Y-130292778D01*
X53686466Y-130376443D01*
X53516627Y-130427963D01*
X53450443Y-130434481D01*
X53384260Y-130441000D01*
X53295740Y-130441000D01*
X53229557Y-130434481D01*
X53163373Y-130427963D01*
X52993534Y-130376443D01*
X52837009Y-130292778D01*
X52801271Y-130263448D01*
X52699814Y-130180186D01*
X52616552Y-130078729D01*
X52587222Y-130042991D01*
X52503557Y-129886466D01*
X52452037Y-129716627D01*
X52434641Y-129540000D01*
X52452037Y-129363373D01*
X52503557Y-129193534D01*
X52587222Y-129037009D01*
X52617058Y-129000654D01*
X52699814Y-128899814D01*
X52801271Y-128816552D01*
X52837009Y-128787222D01*
X52993534Y-128703557D01*
X53163373Y-128652037D01*
X53229557Y-128645519D01*
X53295740Y-128639000D01*
X53384260Y-128639000D01*
X53450443Y-128645519D01*
X53450443Y-128645519D01*
G37*
G36*
X55990443Y-128645519D02*
G01*
X56056627Y-128652037D01*
X56226466Y-128703557D01*
X56382991Y-128787222D01*
X56418729Y-128816552D01*
X56520186Y-128899814D01*
X56602942Y-129000654D01*
X56632778Y-129037009D01*
X56716443Y-129193534D01*
X56767963Y-129363373D01*
X56785359Y-129540000D01*
X56767963Y-129716627D01*
X56716443Y-129886466D01*
X56632778Y-130042991D01*
X56603448Y-130078729D01*
X56520186Y-130180186D01*
X56418729Y-130263448D01*
X56382991Y-130292778D01*
X56226466Y-130376443D01*
X56056627Y-130427963D01*
X55990443Y-130434481D01*
X55924260Y-130441000D01*
X55835740Y-130441000D01*
X55769557Y-130434481D01*
X55703373Y-130427963D01*
X55533534Y-130376443D01*
X55377009Y-130292778D01*
X55341271Y-130263448D01*
X55239814Y-130180186D01*
X55156552Y-130078729D01*
X55127222Y-130042991D01*
X55043557Y-129886466D01*
X54992037Y-129716627D01*
X54974641Y-129540000D01*
X54992037Y-129363373D01*
X55043557Y-129193534D01*
X55127222Y-129037009D01*
X55157058Y-129000654D01*
X55239814Y-128899814D01*
X55341271Y-128816552D01*
X55377009Y-128787222D01*
X55533534Y-128703557D01*
X55703373Y-128652037D01*
X55769557Y-128645519D01*
X55835740Y-128639000D01*
X55924260Y-128639000D01*
X55990443Y-128645519D01*
X55990443Y-128645519D01*
G37*
G36*
X59321000Y-130441000D02*
G01*
X57519000Y-130441000D01*
X57519000Y-128639000D01*
X59321000Y-128639000D01*
X59321000Y-130441000D01*
X59321000Y-130441000D01*
G37*
G36*
X122030442Y-127375518D02*
G01*
X122096627Y-127382037D01*
X122266466Y-127433557D01*
X122422991Y-127517222D01*
X122458729Y-127546552D01*
X122560186Y-127629814D01*
X122643448Y-127731271D01*
X122672778Y-127767009D01*
X122756443Y-127923534D01*
X122807963Y-128093373D01*
X122825359Y-128270000D01*
X122807963Y-128446627D01*
X122756443Y-128616466D01*
X122672778Y-128772991D01*
X122643448Y-128808729D01*
X122560186Y-128910186D01*
X122458729Y-128993448D01*
X122422991Y-129022778D01*
X122266466Y-129106443D01*
X122096627Y-129157963D01*
X122030442Y-129164482D01*
X121964260Y-129171000D01*
X121875740Y-129171000D01*
X121809558Y-129164482D01*
X121743373Y-129157963D01*
X121573534Y-129106443D01*
X121417009Y-129022778D01*
X121381271Y-128993448D01*
X121279814Y-128910186D01*
X121196552Y-128808729D01*
X121167222Y-128772991D01*
X121083557Y-128616466D01*
X121032037Y-128446627D01*
X121014641Y-128270000D01*
X121032037Y-128093373D01*
X121083557Y-127923534D01*
X121167222Y-127767009D01*
X121196552Y-127731271D01*
X121279814Y-127629814D01*
X121381271Y-127546552D01*
X121417009Y-127517222D01*
X121573534Y-127433557D01*
X121743373Y-127382037D01*
X121809558Y-127375518D01*
X121875740Y-127369000D01*
X121964260Y-127369000D01*
X122030442Y-127375518D01*
X122030442Y-127375518D01*
G37*
G36*
X119490442Y-127375518D02*
G01*
X119556627Y-127382037D01*
X119726466Y-127433557D01*
X119882991Y-127517222D01*
X119918729Y-127546552D01*
X120020186Y-127629814D01*
X120103448Y-127731271D01*
X120132778Y-127767009D01*
X120216443Y-127923534D01*
X120267963Y-128093373D01*
X120285359Y-128270000D01*
X120267963Y-128446627D01*
X120216443Y-128616466D01*
X120132778Y-128772991D01*
X120103448Y-128808729D01*
X120020186Y-128910186D01*
X119918729Y-128993448D01*
X119882991Y-129022778D01*
X119726466Y-129106443D01*
X119556627Y-129157963D01*
X119490442Y-129164482D01*
X119424260Y-129171000D01*
X119335740Y-129171000D01*
X119269558Y-129164482D01*
X119203373Y-129157963D01*
X119033534Y-129106443D01*
X118877009Y-129022778D01*
X118841271Y-128993448D01*
X118739814Y-128910186D01*
X118656552Y-128808729D01*
X118627222Y-128772991D01*
X118543557Y-128616466D01*
X118492037Y-128446627D01*
X118474641Y-128270000D01*
X118492037Y-128093373D01*
X118543557Y-127923534D01*
X118627222Y-127767009D01*
X118656552Y-127731271D01*
X118739814Y-127629814D01*
X118841271Y-127546552D01*
X118877009Y-127517222D01*
X119033534Y-127433557D01*
X119203373Y-127382037D01*
X119269558Y-127375518D01*
X119335740Y-127369000D01*
X119424260Y-127369000D01*
X119490442Y-127375518D01*
X119490442Y-127375518D01*
G37*
G36*
X55990443Y-126105519D02*
G01*
X56056627Y-126112037D01*
X56226466Y-126163557D01*
X56382991Y-126247222D01*
X56418729Y-126276552D01*
X56520186Y-126359814D01*
X56603448Y-126461271D01*
X56632778Y-126497009D01*
X56716443Y-126653534D01*
X56767963Y-126823373D01*
X56785359Y-127000000D01*
X56767963Y-127176627D01*
X56716443Y-127346466D01*
X56632778Y-127502991D01*
X56603448Y-127538729D01*
X56520186Y-127640186D01*
X56418729Y-127723448D01*
X56382991Y-127752778D01*
X56226466Y-127836443D01*
X56056627Y-127887963D01*
X55990442Y-127894482D01*
X55924260Y-127901000D01*
X55835740Y-127901000D01*
X55769558Y-127894482D01*
X55703373Y-127887963D01*
X55533534Y-127836443D01*
X55377009Y-127752778D01*
X55341271Y-127723448D01*
X55239814Y-127640186D01*
X55156552Y-127538729D01*
X55127222Y-127502991D01*
X55043557Y-127346466D01*
X54992037Y-127176627D01*
X54974641Y-127000000D01*
X54992037Y-126823373D01*
X55043557Y-126653534D01*
X55127222Y-126497009D01*
X55156552Y-126461271D01*
X55239814Y-126359814D01*
X55341271Y-126276552D01*
X55377009Y-126247222D01*
X55533534Y-126163557D01*
X55703373Y-126112037D01*
X55769557Y-126105519D01*
X55835740Y-126099000D01*
X55924260Y-126099000D01*
X55990443Y-126105519D01*
X55990443Y-126105519D01*
G37*
G36*
X59321000Y-127901000D02*
G01*
X57519000Y-127901000D01*
X57519000Y-126099000D01*
X59321000Y-126099000D01*
X59321000Y-127901000D01*
X59321000Y-127901000D01*
G37*
G36*
X53450443Y-126105519D02*
G01*
X53516627Y-126112037D01*
X53686466Y-126163557D01*
X53842991Y-126247222D01*
X53878729Y-126276552D01*
X53980186Y-126359814D01*
X54063448Y-126461271D01*
X54092778Y-126497009D01*
X54176443Y-126653534D01*
X54227963Y-126823373D01*
X54245359Y-127000000D01*
X54227963Y-127176627D01*
X54176443Y-127346466D01*
X54092778Y-127502991D01*
X54063448Y-127538729D01*
X53980186Y-127640186D01*
X53878729Y-127723448D01*
X53842991Y-127752778D01*
X53686466Y-127836443D01*
X53516627Y-127887963D01*
X53450442Y-127894482D01*
X53384260Y-127901000D01*
X53295740Y-127901000D01*
X53229558Y-127894482D01*
X53163373Y-127887963D01*
X52993534Y-127836443D01*
X52837009Y-127752778D01*
X52801271Y-127723448D01*
X52699814Y-127640186D01*
X52616552Y-127538729D01*
X52587222Y-127502991D01*
X52503557Y-127346466D01*
X52452037Y-127176627D01*
X52434641Y-127000000D01*
X52452037Y-126823373D01*
X52503557Y-126653534D01*
X52587222Y-126497009D01*
X52616552Y-126461271D01*
X52699814Y-126359814D01*
X52801271Y-126276552D01*
X52837009Y-126247222D01*
X52993534Y-126163557D01*
X53163373Y-126112037D01*
X53229557Y-126105519D01*
X53295740Y-126099000D01*
X53384260Y-126099000D01*
X53450443Y-126105519D01*
X53450443Y-126105519D01*
G37*
G36*
X144411000Y-127901000D02*
G01*
X142609000Y-127901000D01*
X142609000Y-126099000D01*
X144411000Y-126099000D01*
X144411000Y-127901000D01*
X144411000Y-127901000D01*
G37*
G36*
X146160443Y-126105519D02*
G01*
X146226627Y-126112037D01*
X146396466Y-126163557D01*
X146552991Y-126247222D01*
X146588729Y-126276552D01*
X146690186Y-126359814D01*
X146773448Y-126461271D01*
X146802778Y-126497009D01*
X146886443Y-126653534D01*
X146937963Y-126823373D01*
X146955359Y-127000000D01*
X146937963Y-127176627D01*
X146886443Y-127346466D01*
X146802778Y-127502991D01*
X146773448Y-127538729D01*
X146690186Y-127640186D01*
X146588729Y-127723448D01*
X146552991Y-127752778D01*
X146396466Y-127836443D01*
X146226627Y-127887963D01*
X146160442Y-127894482D01*
X146094260Y-127901000D01*
X146005740Y-127901000D01*
X145939558Y-127894482D01*
X145873373Y-127887963D01*
X145703534Y-127836443D01*
X145547009Y-127752778D01*
X145511271Y-127723448D01*
X145409814Y-127640186D01*
X145326552Y-127538729D01*
X145297222Y-127502991D01*
X145213557Y-127346466D01*
X145162037Y-127176627D01*
X145144641Y-127000000D01*
X145162037Y-126823373D01*
X145213557Y-126653534D01*
X145297222Y-126497009D01*
X145326552Y-126461271D01*
X145409814Y-126359814D01*
X145511271Y-126276552D01*
X145547009Y-126247222D01*
X145703534Y-126163557D01*
X145873373Y-126112037D01*
X145939557Y-126105519D01*
X146005740Y-126099000D01*
X146094260Y-126099000D01*
X146160443Y-126105519D01*
X146160443Y-126105519D01*
G37*
G36*
X122030443Y-124835519D02*
G01*
X122096627Y-124842037D01*
X122266466Y-124893557D01*
X122422991Y-124977222D01*
X122458729Y-125006552D01*
X122560186Y-125089814D01*
X122643448Y-125191271D01*
X122672778Y-125227009D01*
X122756443Y-125383534D01*
X122807963Y-125553373D01*
X122825359Y-125730000D01*
X122807963Y-125906627D01*
X122756443Y-126076466D01*
X122672778Y-126232991D01*
X122643448Y-126268729D01*
X122560186Y-126370186D01*
X122458729Y-126453448D01*
X122422991Y-126482778D01*
X122266466Y-126566443D01*
X122096627Y-126617963D01*
X122030442Y-126624482D01*
X121964260Y-126631000D01*
X121875740Y-126631000D01*
X121809558Y-126624482D01*
X121743373Y-126617963D01*
X121573534Y-126566443D01*
X121417009Y-126482778D01*
X121381271Y-126453448D01*
X121279814Y-126370186D01*
X121196552Y-126268729D01*
X121167222Y-126232991D01*
X121083557Y-126076466D01*
X121032037Y-125906627D01*
X121014641Y-125730000D01*
X121032037Y-125553373D01*
X121083557Y-125383534D01*
X121167222Y-125227009D01*
X121196552Y-125191271D01*
X121279814Y-125089814D01*
X121381271Y-125006552D01*
X121417009Y-124977222D01*
X121573534Y-124893557D01*
X121743373Y-124842037D01*
X121809557Y-124835519D01*
X121875740Y-124829000D01*
X121964260Y-124829000D01*
X122030443Y-124835519D01*
X122030443Y-124835519D01*
G37*
G36*
X119490443Y-124835519D02*
G01*
X119556627Y-124842037D01*
X119726466Y-124893557D01*
X119882991Y-124977222D01*
X119918729Y-125006552D01*
X120020186Y-125089814D01*
X120103448Y-125191271D01*
X120132778Y-125227009D01*
X120216443Y-125383534D01*
X120267963Y-125553373D01*
X120285359Y-125730000D01*
X120267963Y-125906627D01*
X120216443Y-126076466D01*
X120132778Y-126232991D01*
X120103448Y-126268729D01*
X120020186Y-126370186D01*
X119918729Y-126453448D01*
X119882991Y-126482778D01*
X119726466Y-126566443D01*
X119556627Y-126617963D01*
X119490442Y-126624482D01*
X119424260Y-126631000D01*
X119335740Y-126631000D01*
X119269558Y-126624482D01*
X119203373Y-126617963D01*
X119033534Y-126566443D01*
X118877009Y-126482778D01*
X118841271Y-126453448D01*
X118739814Y-126370186D01*
X118656552Y-126268729D01*
X118627222Y-126232991D01*
X118543557Y-126076466D01*
X118492037Y-125906627D01*
X118474641Y-125730000D01*
X118492037Y-125553373D01*
X118543557Y-125383534D01*
X118627222Y-125227009D01*
X118656552Y-125191271D01*
X118739814Y-125089814D01*
X118841271Y-125006552D01*
X118877009Y-124977222D01*
X119033534Y-124893557D01*
X119203373Y-124842037D01*
X119269557Y-124835519D01*
X119335740Y-124829000D01*
X119424260Y-124829000D01*
X119490443Y-124835519D01*
X119490443Y-124835519D01*
G37*
G36*
X53450442Y-123565518D02*
G01*
X53516627Y-123572037D01*
X53686466Y-123623557D01*
X53842991Y-123707222D01*
X53878729Y-123736552D01*
X53980186Y-123819814D01*
X54063448Y-123921271D01*
X54092778Y-123957009D01*
X54176443Y-124113534D01*
X54227963Y-124283373D01*
X54245359Y-124460000D01*
X54227963Y-124636627D01*
X54176443Y-124806466D01*
X54092778Y-124962991D01*
X54063448Y-124998729D01*
X53980186Y-125100186D01*
X53878729Y-125183448D01*
X53842991Y-125212778D01*
X53686466Y-125296443D01*
X53516627Y-125347963D01*
X53450442Y-125354482D01*
X53384260Y-125361000D01*
X53295740Y-125361000D01*
X53229558Y-125354482D01*
X53163373Y-125347963D01*
X52993534Y-125296443D01*
X52837009Y-125212778D01*
X52801271Y-125183448D01*
X52699814Y-125100186D01*
X52616552Y-124998729D01*
X52587222Y-124962991D01*
X52503557Y-124806466D01*
X52452037Y-124636627D01*
X52434641Y-124460000D01*
X52452037Y-124283373D01*
X52503557Y-124113534D01*
X52587222Y-123957009D01*
X52616552Y-123921271D01*
X52699814Y-123819814D01*
X52801271Y-123736552D01*
X52837009Y-123707222D01*
X52993534Y-123623557D01*
X53163373Y-123572037D01*
X53229558Y-123565518D01*
X53295740Y-123559000D01*
X53384260Y-123559000D01*
X53450442Y-123565518D01*
X53450442Y-123565518D01*
G37*
G36*
X55990442Y-123565518D02*
G01*
X56056627Y-123572037D01*
X56226466Y-123623557D01*
X56382991Y-123707222D01*
X56418729Y-123736552D01*
X56520186Y-123819814D01*
X56603448Y-123921271D01*
X56632778Y-123957009D01*
X56716443Y-124113534D01*
X56767963Y-124283373D01*
X56785359Y-124460000D01*
X56767963Y-124636627D01*
X56716443Y-124806466D01*
X56632778Y-124962991D01*
X56603448Y-124998729D01*
X56520186Y-125100186D01*
X56418729Y-125183448D01*
X56382991Y-125212778D01*
X56226466Y-125296443D01*
X56056627Y-125347963D01*
X55990442Y-125354482D01*
X55924260Y-125361000D01*
X55835740Y-125361000D01*
X55769558Y-125354482D01*
X55703373Y-125347963D01*
X55533534Y-125296443D01*
X55377009Y-125212778D01*
X55341271Y-125183448D01*
X55239814Y-125100186D01*
X55156552Y-124998729D01*
X55127222Y-124962991D01*
X55043557Y-124806466D01*
X54992037Y-124636627D01*
X54974641Y-124460000D01*
X54992037Y-124283373D01*
X55043557Y-124113534D01*
X55127222Y-123957009D01*
X55156552Y-123921271D01*
X55239814Y-123819814D01*
X55341271Y-123736552D01*
X55377009Y-123707222D01*
X55533534Y-123623557D01*
X55703373Y-123572037D01*
X55769558Y-123565518D01*
X55835740Y-123559000D01*
X55924260Y-123559000D01*
X55990442Y-123565518D01*
X55990442Y-123565518D01*
G37*
G36*
X59321000Y-125361000D02*
G01*
X57519000Y-125361000D01*
X57519000Y-123559000D01*
X59321000Y-123559000D01*
X59321000Y-125361000D01*
X59321000Y-125361000D01*
G37*
G36*
X119490443Y-122295519D02*
G01*
X119556627Y-122302037D01*
X119726466Y-122353557D01*
X119882991Y-122437222D01*
X119918729Y-122466552D01*
X120020186Y-122549814D01*
X120103448Y-122651271D01*
X120132778Y-122687009D01*
X120216443Y-122843534D01*
X120267963Y-123013373D01*
X120285359Y-123190000D01*
X120267963Y-123366627D01*
X120216443Y-123536466D01*
X120132778Y-123692991D01*
X120103448Y-123728729D01*
X120020186Y-123830186D01*
X119918729Y-123913448D01*
X119882991Y-123942778D01*
X119726466Y-124026443D01*
X119556627Y-124077963D01*
X119490442Y-124084482D01*
X119424260Y-124091000D01*
X119335740Y-124091000D01*
X119269558Y-124084482D01*
X119203373Y-124077963D01*
X119033534Y-124026443D01*
X118877009Y-123942778D01*
X118841271Y-123913448D01*
X118739814Y-123830186D01*
X118656552Y-123728729D01*
X118627222Y-123692991D01*
X118543557Y-123536466D01*
X118492037Y-123366627D01*
X118474641Y-123190000D01*
X118492037Y-123013373D01*
X118543557Y-122843534D01*
X118627222Y-122687009D01*
X118656552Y-122651271D01*
X118739814Y-122549814D01*
X118841271Y-122466552D01*
X118877009Y-122437222D01*
X119033534Y-122353557D01*
X119203373Y-122302037D01*
X119269557Y-122295519D01*
X119335740Y-122289000D01*
X119424260Y-122289000D01*
X119490443Y-122295519D01*
X119490443Y-122295519D01*
G37*
G36*
X122030443Y-122295519D02*
G01*
X122096627Y-122302037D01*
X122266466Y-122353557D01*
X122422991Y-122437222D01*
X122458729Y-122466552D01*
X122560186Y-122549814D01*
X122643448Y-122651271D01*
X122672778Y-122687009D01*
X122756443Y-122843534D01*
X122807963Y-123013373D01*
X122825359Y-123190000D01*
X122807963Y-123366627D01*
X122756443Y-123536466D01*
X122672778Y-123692991D01*
X122643448Y-123728729D01*
X122560186Y-123830186D01*
X122458729Y-123913448D01*
X122422991Y-123942778D01*
X122266466Y-124026443D01*
X122096627Y-124077963D01*
X122030442Y-124084482D01*
X121964260Y-124091000D01*
X121875740Y-124091000D01*
X121809558Y-124084482D01*
X121743373Y-124077963D01*
X121573534Y-124026443D01*
X121417009Y-123942778D01*
X121381271Y-123913448D01*
X121279814Y-123830186D01*
X121196552Y-123728729D01*
X121167222Y-123692991D01*
X121083557Y-123536466D01*
X121032037Y-123366627D01*
X121014641Y-123190000D01*
X121032037Y-123013373D01*
X121083557Y-122843534D01*
X121167222Y-122687009D01*
X121196552Y-122651271D01*
X121279814Y-122549814D01*
X121381271Y-122466552D01*
X121417009Y-122437222D01*
X121573534Y-122353557D01*
X121743373Y-122302037D01*
X121809557Y-122295519D01*
X121875740Y-122289000D01*
X121964260Y-122289000D01*
X122030443Y-122295519D01*
X122030443Y-122295519D01*
G37*
G36*
X122030442Y-119755518D02*
G01*
X122096627Y-119762037D01*
X122266466Y-119813557D01*
X122422991Y-119897222D01*
X122448766Y-119918375D01*
X122560186Y-120009814D01*
X122629519Y-120094298D01*
X122672778Y-120147009D01*
X122756443Y-120303534D01*
X122807963Y-120473373D01*
X122825359Y-120650000D01*
X122807963Y-120826627D01*
X122756443Y-120996466D01*
X122672778Y-121152991D01*
X122657543Y-121171555D01*
X122560186Y-121290186D01*
X122458729Y-121373448D01*
X122422991Y-121402778D01*
X122266466Y-121486443D01*
X122096627Y-121537963D01*
X122030443Y-121544481D01*
X121964260Y-121551000D01*
X121875740Y-121551000D01*
X121809557Y-121544481D01*
X121743373Y-121537963D01*
X121573534Y-121486443D01*
X121417009Y-121402778D01*
X121381271Y-121373448D01*
X121279814Y-121290186D01*
X121182457Y-121171555D01*
X121167222Y-121152991D01*
X121083557Y-120996466D01*
X121032037Y-120826627D01*
X121014641Y-120650000D01*
X121032037Y-120473373D01*
X121083557Y-120303534D01*
X121167222Y-120147009D01*
X121210481Y-120094298D01*
X121279814Y-120009814D01*
X121391234Y-119918375D01*
X121417009Y-119897222D01*
X121573534Y-119813557D01*
X121743373Y-119762037D01*
X121809558Y-119755518D01*
X121875740Y-119749000D01*
X121964260Y-119749000D01*
X122030442Y-119755518D01*
X122030442Y-119755518D01*
G37*
G36*
X88679499Y-118858445D02*
G01*
X88716995Y-118869820D01*
X88751554Y-118888292D01*
X88781847Y-118913153D01*
X88806708Y-118943446D01*
X88825180Y-118978005D01*
X88836555Y-119015501D01*
X88841000Y-119060638D01*
X88841000Y-119699362D01*
X88836555Y-119744499D01*
X88825180Y-119781995D01*
X88806708Y-119816554D01*
X88781847Y-119846847D01*
X88751554Y-119871708D01*
X88716999Y-119890178D01*
X88699840Y-119895383D01*
X88677202Y-119904761D01*
X88656827Y-119918375D01*
X88639500Y-119935702D01*
X88625887Y-119956076D01*
X88616509Y-119978715D01*
X88611729Y-120002748D01*
X88611729Y-120027252D01*
X88616509Y-120051286D01*
X88625887Y-120073924D01*
X88639501Y-120094299D01*
X88656828Y-120111626D01*
X88677202Y-120125239D01*
X88699840Y-120134617D01*
X88716999Y-120139822D01*
X88751554Y-120158292D01*
X88781847Y-120183153D01*
X88806708Y-120213446D01*
X88825180Y-120248005D01*
X88836555Y-120285501D01*
X88841000Y-120330638D01*
X88841000Y-120969362D01*
X88836555Y-121014499D01*
X88825180Y-121051995D01*
X88806708Y-121086554D01*
X88781847Y-121116847D01*
X88751554Y-121141708D01*
X88716995Y-121160180D01*
X88679499Y-121171555D01*
X88634362Y-121176000D01*
X87895638Y-121176000D01*
X87850501Y-121171555D01*
X87813005Y-121160180D01*
X87778446Y-121141708D01*
X87748153Y-121116847D01*
X87723292Y-121086554D01*
X87704820Y-121051995D01*
X87693445Y-121014499D01*
X87689000Y-120969362D01*
X87689000Y-120330638D01*
X87693445Y-120285501D01*
X87704820Y-120248005D01*
X87723292Y-120213446D01*
X87748153Y-120183153D01*
X87778446Y-120158292D01*
X87813001Y-120139822D01*
X87830160Y-120134617D01*
X87852798Y-120125239D01*
X87873173Y-120111625D01*
X87890500Y-120094298D01*
X87904113Y-120073924D01*
X87913491Y-120051285D01*
X87918271Y-120027252D01*
X87918271Y-120002748D01*
X87913491Y-119978714D01*
X87904113Y-119956076D01*
X87890499Y-119935701D01*
X87873172Y-119918374D01*
X87852798Y-119904761D01*
X87830160Y-119895383D01*
X87813001Y-119890178D01*
X87778446Y-119871708D01*
X87748153Y-119846847D01*
X87723292Y-119816554D01*
X87704820Y-119781995D01*
X87693445Y-119744499D01*
X87689000Y-119699362D01*
X87689000Y-119060638D01*
X87693445Y-119015501D01*
X87704820Y-118978005D01*
X87723292Y-118943446D01*
X87748153Y-118913153D01*
X87778446Y-118888292D01*
X87813005Y-118869820D01*
X87850501Y-118858445D01*
X87895638Y-118854000D01*
X88634362Y-118854000D01*
X88679499Y-118858445D01*
X88679499Y-118858445D01*
G37*
G36*
X92094499Y-118858445D02*
G01*
X92131995Y-118869820D01*
X92166554Y-118888292D01*
X92196847Y-118913153D01*
X92221708Y-118943446D01*
X92240180Y-118978005D01*
X92251555Y-119015501D01*
X92256000Y-119060638D01*
X92256000Y-119699362D01*
X92251555Y-119744499D01*
X92240180Y-119781995D01*
X92221708Y-119816554D01*
X92196847Y-119846847D01*
X92166554Y-119871708D01*
X92131999Y-119890178D01*
X92114840Y-119895383D01*
X92092202Y-119904761D01*
X92071827Y-119918375D01*
X92054500Y-119935702D01*
X92040887Y-119956076D01*
X92031509Y-119978715D01*
X92026729Y-120002748D01*
X92026729Y-120027252D01*
X92031509Y-120051286D01*
X92040887Y-120073924D01*
X92054501Y-120094299D01*
X92071828Y-120111626D01*
X92092202Y-120125239D01*
X92114840Y-120134617D01*
X92131999Y-120139822D01*
X92166554Y-120158292D01*
X92196847Y-120183153D01*
X92221708Y-120213446D01*
X92240180Y-120248005D01*
X92251555Y-120285501D01*
X92256000Y-120330638D01*
X92256000Y-120969362D01*
X92251555Y-121014499D01*
X92240180Y-121051995D01*
X92221708Y-121086554D01*
X92196847Y-121116847D01*
X92166554Y-121141708D01*
X92131995Y-121160180D01*
X92094499Y-121171555D01*
X92049362Y-121176000D01*
X91310638Y-121176000D01*
X91265501Y-121171555D01*
X91228005Y-121160180D01*
X91193446Y-121141708D01*
X91163153Y-121116847D01*
X91138292Y-121086554D01*
X91119820Y-121051995D01*
X91108445Y-121014499D01*
X91104000Y-120969362D01*
X91104000Y-120330638D01*
X91108445Y-120285501D01*
X91119820Y-120248005D01*
X91138292Y-120213446D01*
X91163153Y-120183153D01*
X91193446Y-120158292D01*
X91228001Y-120139822D01*
X91245160Y-120134617D01*
X91267798Y-120125239D01*
X91288173Y-120111625D01*
X91305500Y-120094298D01*
X91319113Y-120073924D01*
X91328491Y-120051285D01*
X91333271Y-120027252D01*
X91333271Y-120002748D01*
X91328491Y-119978714D01*
X91319113Y-119956076D01*
X91305499Y-119935701D01*
X91288172Y-119918374D01*
X91267798Y-119904761D01*
X91245160Y-119895383D01*
X91228001Y-119890178D01*
X91193446Y-119871708D01*
X91163153Y-119846847D01*
X91138292Y-119816554D01*
X91119820Y-119781995D01*
X91108445Y-119744499D01*
X91104000Y-119699362D01*
X91104000Y-119060638D01*
X91108445Y-119015501D01*
X91119820Y-118978005D01*
X91138292Y-118943446D01*
X91163153Y-118913153D01*
X91193446Y-118888292D01*
X91228005Y-118869820D01*
X91265501Y-118858445D01*
X91310638Y-118854000D01*
X92049362Y-118854000D01*
X92094499Y-118858445D01*
X92094499Y-118858445D01*
G37*
G36*
X86929499Y-118858445D02*
G01*
X86966995Y-118869820D01*
X87001554Y-118888292D01*
X87031847Y-118913153D01*
X87056708Y-118943446D01*
X87075180Y-118978005D01*
X87086555Y-119015501D01*
X87091000Y-119060638D01*
X87091000Y-119699362D01*
X87086555Y-119744499D01*
X87075180Y-119781995D01*
X87056708Y-119816554D01*
X87031847Y-119846847D01*
X87001554Y-119871708D01*
X86966999Y-119890178D01*
X86949840Y-119895383D01*
X86927202Y-119904761D01*
X86906827Y-119918375D01*
X86889500Y-119935702D01*
X86875887Y-119956076D01*
X86866509Y-119978715D01*
X86861729Y-120002748D01*
X86861729Y-120027252D01*
X86866509Y-120051286D01*
X86875887Y-120073924D01*
X86889501Y-120094299D01*
X86906828Y-120111626D01*
X86927202Y-120125239D01*
X86949840Y-120134617D01*
X86966999Y-120139822D01*
X87001554Y-120158292D01*
X87031847Y-120183153D01*
X87056708Y-120213446D01*
X87075180Y-120248005D01*
X87086555Y-120285501D01*
X87091000Y-120330638D01*
X87091000Y-120969362D01*
X87086555Y-121014499D01*
X87075180Y-121051995D01*
X87056708Y-121086554D01*
X87031847Y-121116847D01*
X87001554Y-121141708D01*
X86966995Y-121160180D01*
X86929499Y-121171555D01*
X86884362Y-121176000D01*
X86145638Y-121176000D01*
X86100501Y-121171555D01*
X86063005Y-121160180D01*
X86028446Y-121141708D01*
X85998153Y-121116847D01*
X85973292Y-121086554D01*
X85954820Y-121051995D01*
X85943445Y-121014499D01*
X85939000Y-120969362D01*
X85939000Y-120330638D01*
X85943445Y-120285501D01*
X85954820Y-120248005D01*
X85973292Y-120213446D01*
X85998153Y-120183153D01*
X86028446Y-120158292D01*
X86063001Y-120139822D01*
X86080160Y-120134617D01*
X86102798Y-120125239D01*
X86123173Y-120111625D01*
X86140500Y-120094298D01*
X86154113Y-120073924D01*
X86163491Y-120051285D01*
X86168271Y-120027252D01*
X86168271Y-120002748D01*
X86163491Y-119978714D01*
X86154113Y-119956076D01*
X86140499Y-119935701D01*
X86123172Y-119918374D01*
X86102798Y-119904761D01*
X86080160Y-119895383D01*
X86063001Y-119890178D01*
X86028446Y-119871708D01*
X85998153Y-119846847D01*
X85973292Y-119816554D01*
X85954820Y-119781995D01*
X85943445Y-119744499D01*
X85939000Y-119699362D01*
X85939000Y-119060638D01*
X85943445Y-119015501D01*
X85954820Y-118978005D01*
X85973292Y-118943446D01*
X85998153Y-118913153D01*
X86028446Y-118888292D01*
X86063005Y-118869820D01*
X86100501Y-118858445D01*
X86145638Y-118854000D01*
X86884362Y-118854000D01*
X86929499Y-118858445D01*
X86929499Y-118858445D01*
G37*
G36*
X90344499Y-118858445D02*
G01*
X90381995Y-118869820D01*
X90416554Y-118888292D01*
X90446847Y-118913153D01*
X90471708Y-118943446D01*
X90490180Y-118978005D01*
X90501555Y-119015501D01*
X90506000Y-119060638D01*
X90506000Y-119699362D01*
X90501555Y-119744499D01*
X90490180Y-119781995D01*
X90471708Y-119816554D01*
X90446847Y-119846847D01*
X90416554Y-119871708D01*
X90381999Y-119890178D01*
X90364840Y-119895383D01*
X90342202Y-119904761D01*
X90321827Y-119918375D01*
X90304500Y-119935702D01*
X90290887Y-119956076D01*
X90281509Y-119978715D01*
X90276729Y-120002748D01*
X90276729Y-120027252D01*
X90281509Y-120051286D01*
X90290887Y-120073924D01*
X90304501Y-120094299D01*
X90321828Y-120111626D01*
X90342202Y-120125239D01*
X90364840Y-120134617D01*
X90381999Y-120139822D01*
X90416554Y-120158292D01*
X90446847Y-120183153D01*
X90471708Y-120213446D01*
X90490180Y-120248005D01*
X90501555Y-120285501D01*
X90506000Y-120330638D01*
X90506000Y-120969362D01*
X90501555Y-121014499D01*
X90490180Y-121051995D01*
X90471708Y-121086554D01*
X90446847Y-121116847D01*
X90416554Y-121141708D01*
X90381995Y-121160180D01*
X90344499Y-121171555D01*
X90299362Y-121176000D01*
X89560638Y-121176000D01*
X89515501Y-121171555D01*
X89478005Y-121160180D01*
X89443446Y-121141708D01*
X89413153Y-121116847D01*
X89388292Y-121086554D01*
X89369820Y-121051995D01*
X89358445Y-121014499D01*
X89354000Y-120969362D01*
X89354000Y-120330638D01*
X89358445Y-120285501D01*
X89369820Y-120248005D01*
X89388292Y-120213446D01*
X89413153Y-120183153D01*
X89443446Y-120158292D01*
X89478001Y-120139822D01*
X89495160Y-120134617D01*
X89517798Y-120125239D01*
X89538173Y-120111625D01*
X89555500Y-120094298D01*
X89569113Y-120073924D01*
X89578491Y-120051285D01*
X89583271Y-120027252D01*
X89583271Y-120002748D01*
X89578491Y-119978714D01*
X89569113Y-119956076D01*
X89555499Y-119935701D01*
X89538172Y-119918374D01*
X89517798Y-119904761D01*
X89495160Y-119895383D01*
X89478001Y-119890178D01*
X89443446Y-119871708D01*
X89413153Y-119846847D01*
X89388292Y-119816554D01*
X89369820Y-119781995D01*
X89358445Y-119744499D01*
X89354000Y-119699362D01*
X89354000Y-119060638D01*
X89358445Y-119015501D01*
X89369820Y-118978005D01*
X89388292Y-118943446D01*
X89413153Y-118913153D01*
X89443446Y-118888292D01*
X89478005Y-118869820D01*
X89515501Y-118858445D01*
X89560638Y-118854000D01*
X90299362Y-118854000D01*
X90344499Y-118858445D01*
X90344499Y-118858445D01*
G37*
G36*
X59321000Y-120281000D02*
G01*
X57519000Y-120281000D01*
X57519000Y-118479000D01*
X59321000Y-118479000D01*
X59321000Y-120281000D01*
X59321000Y-120281000D01*
G37*
G36*
X73291000Y-120281000D02*
G01*
X71489000Y-120281000D01*
X71489000Y-118479000D01*
X73291000Y-118479000D01*
X73291000Y-120281000D01*
X73291000Y-120281000D01*
G37*
G36*
X53450442Y-118485518D02*
G01*
X53516627Y-118492037D01*
X53686466Y-118543557D01*
X53842991Y-118627222D01*
X53869948Y-118649345D01*
X53980186Y-118739814D01*
X54063448Y-118841271D01*
X54092778Y-118877009D01*
X54176443Y-119033534D01*
X54227963Y-119203373D01*
X54245359Y-119380000D01*
X54227963Y-119556627D01*
X54176443Y-119726466D01*
X54092778Y-119882991D01*
X54073895Y-119906000D01*
X53980186Y-120020186D01*
X53878729Y-120103448D01*
X53842991Y-120132778D01*
X53686466Y-120216443D01*
X53516627Y-120267963D01*
X53450442Y-120274482D01*
X53384260Y-120281000D01*
X53295740Y-120281000D01*
X53229558Y-120274482D01*
X53163373Y-120267963D01*
X52993534Y-120216443D01*
X52837009Y-120132778D01*
X52801271Y-120103448D01*
X52699814Y-120020186D01*
X52606105Y-119906000D01*
X52587222Y-119882991D01*
X52503557Y-119726466D01*
X52452037Y-119556627D01*
X52434641Y-119380000D01*
X52452037Y-119203373D01*
X52503557Y-119033534D01*
X52587222Y-118877009D01*
X52616552Y-118841271D01*
X52699814Y-118739814D01*
X52810052Y-118649345D01*
X52837009Y-118627222D01*
X52993534Y-118543557D01*
X53163373Y-118492037D01*
X53229558Y-118485518D01*
X53295740Y-118479000D01*
X53384260Y-118479000D01*
X53450442Y-118485518D01*
X53450442Y-118485518D01*
G37*
G36*
X55990442Y-118485518D02*
G01*
X56056627Y-118492037D01*
X56226466Y-118543557D01*
X56382991Y-118627222D01*
X56409948Y-118649345D01*
X56520186Y-118739814D01*
X56603448Y-118841271D01*
X56632778Y-118877009D01*
X56716443Y-119033534D01*
X56767963Y-119203373D01*
X56785359Y-119380000D01*
X56767963Y-119556627D01*
X56716443Y-119726466D01*
X56632778Y-119882991D01*
X56613895Y-119906000D01*
X56520186Y-120020186D01*
X56418729Y-120103448D01*
X56382991Y-120132778D01*
X56226466Y-120216443D01*
X56056627Y-120267963D01*
X55990442Y-120274482D01*
X55924260Y-120281000D01*
X55835740Y-120281000D01*
X55769558Y-120274482D01*
X55703373Y-120267963D01*
X55533534Y-120216443D01*
X55377009Y-120132778D01*
X55341271Y-120103448D01*
X55239814Y-120020186D01*
X55146105Y-119906000D01*
X55127222Y-119882991D01*
X55043557Y-119726466D01*
X54992037Y-119556627D01*
X54974641Y-119380000D01*
X54992037Y-119203373D01*
X55043557Y-119033534D01*
X55127222Y-118877009D01*
X55156552Y-118841271D01*
X55239814Y-118739814D01*
X55350052Y-118649345D01*
X55377009Y-118627222D01*
X55533534Y-118543557D01*
X55703373Y-118492037D01*
X55769558Y-118485518D01*
X55835740Y-118479000D01*
X55924260Y-118479000D01*
X55990442Y-118485518D01*
X55990442Y-118485518D01*
G37*
G36*
X69960442Y-118485518D02*
G01*
X70026627Y-118492037D01*
X70196466Y-118543557D01*
X70352991Y-118627222D01*
X70379948Y-118649345D01*
X70490186Y-118739814D01*
X70573448Y-118841271D01*
X70602778Y-118877009D01*
X70686443Y-119033534D01*
X70737963Y-119203373D01*
X70755359Y-119380000D01*
X70737963Y-119556627D01*
X70686443Y-119726466D01*
X70602778Y-119882991D01*
X70583895Y-119906000D01*
X70490186Y-120020186D01*
X70388729Y-120103448D01*
X70352991Y-120132778D01*
X70196466Y-120216443D01*
X70026627Y-120267963D01*
X69960442Y-120274482D01*
X69894260Y-120281000D01*
X69805740Y-120281000D01*
X69739558Y-120274482D01*
X69673373Y-120267963D01*
X69503534Y-120216443D01*
X69347009Y-120132778D01*
X69311271Y-120103448D01*
X69209814Y-120020186D01*
X69116105Y-119906000D01*
X69097222Y-119882991D01*
X69013557Y-119726466D01*
X68962037Y-119556627D01*
X68944641Y-119380000D01*
X68962037Y-119203373D01*
X69013557Y-119033534D01*
X69097222Y-118877009D01*
X69126552Y-118841271D01*
X69209814Y-118739814D01*
X69320052Y-118649345D01*
X69347009Y-118627222D01*
X69503534Y-118543557D01*
X69673373Y-118492037D01*
X69739558Y-118485518D01*
X69805740Y-118479000D01*
X69894260Y-118479000D01*
X69960442Y-118485518D01*
X69960442Y-118485518D01*
G37*
G36*
X67420442Y-118485518D02*
G01*
X67486627Y-118492037D01*
X67656466Y-118543557D01*
X67812991Y-118627222D01*
X67839948Y-118649345D01*
X67950186Y-118739814D01*
X68033448Y-118841271D01*
X68062778Y-118877009D01*
X68146443Y-119033534D01*
X68197963Y-119203373D01*
X68215359Y-119380000D01*
X68197963Y-119556627D01*
X68146443Y-119726466D01*
X68062778Y-119882991D01*
X68043895Y-119906000D01*
X67950186Y-120020186D01*
X67848729Y-120103448D01*
X67812991Y-120132778D01*
X67656466Y-120216443D01*
X67486627Y-120267963D01*
X67420442Y-120274482D01*
X67354260Y-120281000D01*
X67265740Y-120281000D01*
X67199558Y-120274482D01*
X67133373Y-120267963D01*
X66963534Y-120216443D01*
X66807009Y-120132778D01*
X66771271Y-120103448D01*
X66669814Y-120020186D01*
X66576105Y-119906000D01*
X66557222Y-119882991D01*
X66473557Y-119726466D01*
X66422037Y-119556627D01*
X66404641Y-119380000D01*
X66422037Y-119203373D01*
X66473557Y-119033534D01*
X66557222Y-118877009D01*
X66586552Y-118841271D01*
X66669814Y-118739814D01*
X66780052Y-118649345D01*
X66807009Y-118627222D01*
X66963534Y-118543557D01*
X67133373Y-118492037D01*
X67199558Y-118485518D01*
X67265740Y-118479000D01*
X67354260Y-118479000D01*
X67420442Y-118485518D01*
X67420442Y-118485518D01*
G37*
G36*
X132237023Y-116820590D02*
G01*
X132337682Y-116851125D01*
X132388013Y-116866392D01*
X132527165Y-116940771D01*
X132649133Y-117040867D01*
X132749229Y-117162835D01*
X132823608Y-117301987D01*
X132823608Y-117301988D01*
X132869410Y-117452977D01*
X132881000Y-117570655D01*
X132881000Y-118649345D01*
X132869410Y-118767023D01*
X132843026Y-118854000D01*
X132823608Y-118918013D01*
X132795347Y-118970885D01*
X132749229Y-119057165D01*
X132649133Y-119179133D01*
X132527164Y-119279229D01*
X132388012Y-119353608D01*
X132337681Y-119368875D01*
X132237022Y-119399410D01*
X132080000Y-119414875D01*
X131922977Y-119399410D01*
X131822318Y-119368875D01*
X131771987Y-119353608D01*
X131632835Y-119279229D01*
X131510867Y-119179133D01*
X131410771Y-119057164D01*
X131398139Y-119033532D01*
X131336392Y-118918012D01*
X131318323Y-118858445D01*
X131290590Y-118767022D01*
X131279000Y-118649344D01*
X131279001Y-117570655D01*
X131290591Y-117452977D01*
X131336393Y-117301988D01*
X131336393Y-117301987D01*
X131410772Y-117162835D01*
X131510868Y-117040867D01*
X131632836Y-116940771D01*
X131771988Y-116866392D01*
X131822319Y-116851125D01*
X131922978Y-116820590D01*
X132080000Y-116805125D01*
X132237023Y-116820590D01*
X132237023Y-116820590D01*
G37*
G36*
X129697023Y-116820590D02*
G01*
X129797682Y-116851125D01*
X129848013Y-116866392D01*
X129987165Y-116940771D01*
X130109133Y-117040867D01*
X130209229Y-117162835D01*
X130283608Y-117301987D01*
X130283608Y-117301988D01*
X130329410Y-117452977D01*
X130341000Y-117570655D01*
X130341000Y-118649345D01*
X130329410Y-118767023D01*
X130303026Y-118854000D01*
X130283608Y-118918013D01*
X130255347Y-118970885D01*
X130209229Y-119057165D01*
X130109133Y-119179133D01*
X129987164Y-119279229D01*
X129848012Y-119353608D01*
X129797681Y-119368875D01*
X129697022Y-119399410D01*
X129540000Y-119414875D01*
X129382977Y-119399410D01*
X129282318Y-119368875D01*
X129231987Y-119353608D01*
X129092835Y-119279229D01*
X128970867Y-119179133D01*
X128870771Y-119057164D01*
X128858139Y-119033532D01*
X128796392Y-118918012D01*
X128778323Y-118858445D01*
X128750590Y-118767022D01*
X128739000Y-118649344D01*
X128739001Y-117570655D01*
X128750591Y-117452977D01*
X128796393Y-117301988D01*
X128796393Y-117301987D01*
X128870772Y-117162835D01*
X128970868Y-117040867D01*
X129092836Y-116940771D01*
X129231988Y-116866392D01*
X129282319Y-116851125D01*
X129382978Y-116820590D01*
X129540000Y-116805125D01*
X129697023Y-116820590D01*
X129697023Y-116820590D01*
G37*
G36*
X135421000Y-119411000D02*
G01*
X133819000Y-119411000D01*
X133819000Y-116809000D01*
X135421000Y-116809000D01*
X135421000Y-119411000D01*
X135421000Y-119411000D01*
G37*
G36*
X53450442Y-115945518D02*
G01*
X53516627Y-115952037D01*
X53686466Y-116003557D01*
X53842991Y-116087222D01*
X53878729Y-116116552D01*
X53980186Y-116199814D01*
X54063448Y-116301271D01*
X54092778Y-116337009D01*
X54176443Y-116493534D01*
X54227963Y-116663373D01*
X54245359Y-116840000D01*
X54227963Y-117016627D01*
X54176443Y-117186466D01*
X54092778Y-117342991D01*
X54063448Y-117378729D01*
X53980186Y-117480186D01*
X53878729Y-117563448D01*
X53842991Y-117592778D01*
X53686466Y-117676443D01*
X53516627Y-117727963D01*
X53450442Y-117734482D01*
X53384260Y-117741000D01*
X53295740Y-117741000D01*
X53229558Y-117734482D01*
X53163373Y-117727963D01*
X52993534Y-117676443D01*
X52837009Y-117592778D01*
X52801271Y-117563448D01*
X52699814Y-117480186D01*
X52616552Y-117378729D01*
X52587222Y-117342991D01*
X52503557Y-117186466D01*
X52452037Y-117016627D01*
X52434641Y-116840000D01*
X52452037Y-116663373D01*
X52503557Y-116493534D01*
X52587222Y-116337009D01*
X52616552Y-116301271D01*
X52699814Y-116199814D01*
X52801271Y-116116552D01*
X52837009Y-116087222D01*
X52993534Y-116003557D01*
X53163373Y-115952037D01*
X53229558Y-115945518D01*
X53295740Y-115939000D01*
X53384260Y-115939000D01*
X53450442Y-115945518D01*
X53450442Y-115945518D01*
G37*
G36*
X67420442Y-115945518D02*
G01*
X67486627Y-115952037D01*
X67656466Y-116003557D01*
X67812991Y-116087222D01*
X67848729Y-116116552D01*
X67950186Y-116199814D01*
X68033448Y-116301271D01*
X68062778Y-116337009D01*
X68146443Y-116493534D01*
X68197963Y-116663373D01*
X68215359Y-116840000D01*
X68197963Y-117016627D01*
X68146443Y-117186466D01*
X68062778Y-117342991D01*
X68033448Y-117378729D01*
X67950186Y-117480186D01*
X67848729Y-117563448D01*
X67812991Y-117592778D01*
X67656466Y-117676443D01*
X67486627Y-117727963D01*
X67420442Y-117734482D01*
X67354260Y-117741000D01*
X67265740Y-117741000D01*
X67199558Y-117734482D01*
X67133373Y-117727963D01*
X66963534Y-117676443D01*
X66807009Y-117592778D01*
X66771271Y-117563448D01*
X66669814Y-117480186D01*
X66586552Y-117378729D01*
X66557222Y-117342991D01*
X66473557Y-117186466D01*
X66422037Y-117016627D01*
X66404641Y-116840000D01*
X66422037Y-116663373D01*
X66473557Y-116493534D01*
X66557222Y-116337009D01*
X66586552Y-116301271D01*
X66669814Y-116199814D01*
X66771271Y-116116552D01*
X66807009Y-116087222D01*
X66963534Y-116003557D01*
X67133373Y-115952037D01*
X67199558Y-115945518D01*
X67265740Y-115939000D01*
X67354260Y-115939000D01*
X67420442Y-115945518D01*
X67420442Y-115945518D01*
G37*
G36*
X59321000Y-117741000D02*
G01*
X57519000Y-117741000D01*
X57519000Y-115939000D01*
X59321000Y-115939000D01*
X59321000Y-117741000D01*
X59321000Y-117741000D01*
G37*
G36*
X55990442Y-115945518D02*
G01*
X56056627Y-115952037D01*
X56226466Y-116003557D01*
X56382991Y-116087222D01*
X56418729Y-116116552D01*
X56520186Y-116199814D01*
X56603448Y-116301271D01*
X56632778Y-116337009D01*
X56716443Y-116493534D01*
X56767963Y-116663373D01*
X56785359Y-116840000D01*
X56767963Y-117016627D01*
X56716443Y-117186466D01*
X56632778Y-117342991D01*
X56603448Y-117378729D01*
X56520186Y-117480186D01*
X56418729Y-117563448D01*
X56382991Y-117592778D01*
X56226466Y-117676443D01*
X56056627Y-117727963D01*
X55990442Y-117734482D01*
X55924260Y-117741000D01*
X55835740Y-117741000D01*
X55769558Y-117734482D01*
X55703373Y-117727963D01*
X55533534Y-117676443D01*
X55377009Y-117592778D01*
X55341271Y-117563448D01*
X55239814Y-117480186D01*
X55156552Y-117378729D01*
X55127222Y-117342991D01*
X55043557Y-117186466D01*
X54992037Y-117016627D01*
X54974641Y-116840000D01*
X54992037Y-116663373D01*
X55043557Y-116493534D01*
X55127222Y-116337009D01*
X55156552Y-116301271D01*
X55239814Y-116199814D01*
X55341271Y-116116552D01*
X55377009Y-116087222D01*
X55533534Y-116003557D01*
X55703373Y-115952037D01*
X55769558Y-115945518D01*
X55835740Y-115939000D01*
X55924260Y-115939000D01*
X55990442Y-115945518D01*
X55990442Y-115945518D01*
G37*
G36*
X69960442Y-115945518D02*
G01*
X70026627Y-115952037D01*
X70196466Y-116003557D01*
X70352991Y-116087222D01*
X70388729Y-116116552D01*
X70490186Y-116199814D01*
X70573448Y-116301271D01*
X70602778Y-116337009D01*
X70686443Y-116493534D01*
X70737963Y-116663373D01*
X70755359Y-116840000D01*
X70737963Y-117016627D01*
X70686443Y-117186466D01*
X70602778Y-117342991D01*
X70573448Y-117378729D01*
X70490186Y-117480186D01*
X70388729Y-117563448D01*
X70352991Y-117592778D01*
X70196466Y-117676443D01*
X70026627Y-117727963D01*
X69960442Y-117734482D01*
X69894260Y-117741000D01*
X69805740Y-117741000D01*
X69739558Y-117734482D01*
X69673373Y-117727963D01*
X69503534Y-117676443D01*
X69347009Y-117592778D01*
X69311271Y-117563448D01*
X69209814Y-117480186D01*
X69126552Y-117378729D01*
X69097222Y-117342991D01*
X69013557Y-117186466D01*
X68962037Y-117016627D01*
X68944641Y-116840000D01*
X68962037Y-116663373D01*
X69013557Y-116493534D01*
X69097222Y-116337009D01*
X69126552Y-116301271D01*
X69209814Y-116199814D01*
X69311271Y-116116552D01*
X69347009Y-116087222D01*
X69503534Y-116003557D01*
X69673373Y-115952037D01*
X69739558Y-115945518D01*
X69805740Y-115939000D01*
X69894260Y-115939000D01*
X69960442Y-115945518D01*
X69960442Y-115945518D01*
G37*
G36*
X73291000Y-117741000D02*
G01*
X71489000Y-117741000D01*
X71489000Y-115939000D01*
X73291000Y-115939000D01*
X73291000Y-117741000D01*
X73291000Y-117741000D01*
G37*
G36*
X143126564Y-114709389D02*
G01*
X143317833Y-114788615D01*
X143317835Y-114788616D01*
X143489973Y-114903635D01*
X143636365Y-115050027D01*
X143751385Y-115222167D01*
X143830611Y-115413436D01*
X143871000Y-115616484D01*
X143871000Y-115823516D01*
X143830611Y-116026564D01*
X143758848Y-116199815D01*
X143751384Y-116217835D01*
X143636365Y-116389973D01*
X143489973Y-116536365D01*
X143317835Y-116651384D01*
X143317834Y-116651385D01*
X143317833Y-116651385D01*
X143126564Y-116730611D01*
X142923516Y-116771000D01*
X142716484Y-116771000D01*
X142513436Y-116730611D01*
X142322167Y-116651385D01*
X142322166Y-116651385D01*
X142322165Y-116651384D01*
X142150027Y-116536365D01*
X142003635Y-116389973D01*
X141888616Y-116217835D01*
X141881152Y-116199815D01*
X141809389Y-116026564D01*
X141769000Y-115823516D01*
X141769000Y-115616484D01*
X141809389Y-115413436D01*
X141888615Y-115222167D01*
X142003635Y-115050027D01*
X142150027Y-114903635D01*
X142322165Y-114788616D01*
X142322167Y-114788615D01*
X142513436Y-114709389D01*
X142716484Y-114669000D01*
X142923516Y-114669000D01*
X143126564Y-114709389D01*
X143126564Y-114709389D01*
G37*
G36*
X147626564Y-114709389D02*
G01*
X147817833Y-114788615D01*
X147817835Y-114788616D01*
X147989973Y-114903635D01*
X148136365Y-115050027D01*
X148251385Y-115222167D01*
X148330611Y-115413436D01*
X148371000Y-115616484D01*
X148371000Y-115823516D01*
X148330611Y-116026564D01*
X148258848Y-116199815D01*
X148251384Y-116217835D01*
X148136365Y-116389973D01*
X147989973Y-116536365D01*
X147817835Y-116651384D01*
X147817834Y-116651385D01*
X147817833Y-116651385D01*
X147626564Y-116730611D01*
X147423516Y-116771000D01*
X147216484Y-116771000D01*
X147013436Y-116730611D01*
X146822167Y-116651385D01*
X146822166Y-116651385D01*
X146822165Y-116651384D01*
X146650027Y-116536365D01*
X146503635Y-116389973D01*
X146388616Y-116217835D01*
X146381152Y-116199815D01*
X146309389Y-116026564D01*
X146269000Y-115823516D01*
X146269000Y-115616484D01*
X146309389Y-115413436D01*
X146388615Y-115222167D01*
X146503635Y-115050027D01*
X146650027Y-114903635D01*
X146822165Y-114788616D01*
X146822167Y-114788615D01*
X147013436Y-114709389D01*
X147216484Y-114669000D01*
X147423516Y-114669000D01*
X147626564Y-114709389D01*
X147626564Y-114709389D01*
G37*
G36*
X53450443Y-113405519D02*
G01*
X53516627Y-113412037D01*
X53686466Y-113463557D01*
X53842991Y-113547222D01*
X53878729Y-113576552D01*
X53980186Y-113659814D01*
X54063448Y-113761271D01*
X54092778Y-113797009D01*
X54176443Y-113953534D01*
X54227963Y-114123373D01*
X54245359Y-114300000D01*
X54227963Y-114476627D01*
X54176443Y-114646466D01*
X54092778Y-114802991D01*
X54063448Y-114838729D01*
X53980186Y-114940186D01*
X53878729Y-115023448D01*
X53842991Y-115052778D01*
X53686466Y-115136443D01*
X53516627Y-115187963D01*
X53450442Y-115194482D01*
X53384260Y-115201000D01*
X53295740Y-115201000D01*
X53229558Y-115194482D01*
X53163373Y-115187963D01*
X52993534Y-115136443D01*
X52837009Y-115052778D01*
X52801271Y-115023448D01*
X52699814Y-114940186D01*
X52616552Y-114838729D01*
X52587222Y-114802991D01*
X52503557Y-114646466D01*
X52452037Y-114476627D01*
X52434641Y-114300000D01*
X52452037Y-114123373D01*
X52503557Y-113953534D01*
X52587222Y-113797009D01*
X52616552Y-113761271D01*
X52699814Y-113659814D01*
X52801271Y-113576552D01*
X52837009Y-113547222D01*
X52993534Y-113463557D01*
X53163373Y-113412037D01*
X53229557Y-113405519D01*
X53295740Y-113399000D01*
X53384260Y-113399000D01*
X53450443Y-113405519D01*
X53450443Y-113405519D01*
G37*
G36*
X67420443Y-113405519D02*
G01*
X67486627Y-113412037D01*
X67656466Y-113463557D01*
X67812991Y-113547222D01*
X67848729Y-113576552D01*
X67950186Y-113659814D01*
X68033448Y-113761271D01*
X68062778Y-113797009D01*
X68146443Y-113953534D01*
X68197963Y-114123373D01*
X68215359Y-114300000D01*
X68197963Y-114476627D01*
X68146443Y-114646466D01*
X68062778Y-114802991D01*
X68033448Y-114838729D01*
X67950186Y-114940186D01*
X67848729Y-115023448D01*
X67812991Y-115052778D01*
X67656466Y-115136443D01*
X67486627Y-115187963D01*
X67420442Y-115194482D01*
X67354260Y-115201000D01*
X67265740Y-115201000D01*
X67199558Y-115194482D01*
X67133373Y-115187963D01*
X66963534Y-115136443D01*
X66807009Y-115052778D01*
X66771271Y-115023448D01*
X66669814Y-114940186D01*
X66586552Y-114838729D01*
X66557222Y-114802991D01*
X66473557Y-114646466D01*
X66422037Y-114476627D01*
X66404641Y-114300000D01*
X66422037Y-114123373D01*
X66473557Y-113953534D01*
X66557222Y-113797009D01*
X66586552Y-113761271D01*
X66669814Y-113659814D01*
X66771271Y-113576552D01*
X66807009Y-113547222D01*
X66963534Y-113463557D01*
X67133373Y-113412037D01*
X67199557Y-113405519D01*
X67265740Y-113399000D01*
X67354260Y-113399000D01*
X67420443Y-113405519D01*
X67420443Y-113405519D01*
G37*
G36*
X122030443Y-113405519D02*
G01*
X122096627Y-113412037D01*
X122266466Y-113463557D01*
X122422991Y-113547222D01*
X122458729Y-113576552D01*
X122560186Y-113659814D01*
X122643448Y-113761271D01*
X122672778Y-113797009D01*
X122756443Y-113953534D01*
X122807963Y-114123373D01*
X122825359Y-114300000D01*
X122807963Y-114476627D01*
X122756443Y-114646466D01*
X122672778Y-114802991D01*
X122643448Y-114838729D01*
X122560186Y-114940186D01*
X122458729Y-115023448D01*
X122422991Y-115052778D01*
X122266466Y-115136443D01*
X122096627Y-115187963D01*
X122030442Y-115194482D01*
X121964260Y-115201000D01*
X121875740Y-115201000D01*
X121809558Y-115194482D01*
X121743373Y-115187963D01*
X121573534Y-115136443D01*
X121417009Y-115052778D01*
X121381271Y-115023448D01*
X121279814Y-114940186D01*
X121196552Y-114838729D01*
X121167222Y-114802991D01*
X121083557Y-114646466D01*
X121032037Y-114476627D01*
X121014641Y-114300000D01*
X121032037Y-114123373D01*
X121083557Y-113953534D01*
X121167222Y-113797009D01*
X121196552Y-113761271D01*
X121279814Y-113659814D01*
X121381271Y-113576552D01*
X121417009Y-113547222D01*
X121573534Y-113463557D01*
X121743373Y-113412037D01*
X121809557Y-113405519D01*
X121875740Y-113399000D01*
X121964260Y-113399000D01*
X122030443Y-113405519D01*
X122030443Y-113405519D01*
G37*
G36*
X73291000Y-115201000D02*
G01*
X71489000Y-115201000D01*
X71489000Y-113399000D01*
X73291000Y-113399000D01*
X73291000Y-115201000D01*
X73291000Y-115201000D01*
G37*
G36*
X69960443Y-113405519D02*
G01*
X70026627Y-113412037D01*
X70196466Y-113463557D01*
X70352991Y-113547222D01*
X70388729Y-113576552D01*
X70490186Y-113659814D01*
X70573448Y-113761271D01*
X70602778Y-113797009D01*
X70686443Y-113953534D01*
X70737963Y-114123373D01*
X70755359Y-114300000D01*
X70737963Y-114476627D01*
X70686443Y-114646466D01*
X70602778Y-114802991D01*
X70573448Y-114838729D01*
X70490186Y-114940186D01*
X70388729Y-115023448D01*
X70352991Y-115052778D01*
X70196466Y-115136443D01*
X70026627Y-115187963D01*
X69960442Y-115194482D01*
X69894260Y-115201000D01*
X69805740Y-115201000D01*
X69739558Y-115194482D01*
X69673373Y-115187963D01*
X69503534Y-115136443D01*
X69347009Y-115052778D01*
X69311271Y-115023448D01*
X69209814Y-114940186D01*
X69126552Y-114838729D01*
X69097222Y-114802991D01*
X69013557Y-114646466D01*
X68962037Y-114476627D01*
X68944641Y-114300000D01*
X68962037Y-114123373D01*
X69013557Y-113953534D01*
X69097222Y-113797009D01*
X69126552Y-113761271D01*
X69209814Y-113659814D01*
X69311271Y-113576552D01*
X69347009Y-113547222D01*
X69503534Y-113463557D01*
X69673373Y-113412037D01*
X69739557Y-113405519D01*
X69805740Y-113399000D01*
X69894260Y-113399000D01*
X69960443Y-113405519D01*
X69960443Y-113405519D01*
G37*
G36*
X59321000Y-115201000D02*
G01*
X57519000Y-115201000D01*
X57519000Y-113399000D01*
X59321000Y-113399000D01*
X59321000Y-115201000D01*
X59321000Y-115201000D01*
G37*
G36*
X55990443Y-113405519D02*
G01*
X56056627Y-113412037D01*
X56226466Y-113463557D01*
X56382991Y-113547222D01*
X56418729Y-113576552D01*
X56520186Y-113659814D01*
X56603448Y-113761271D01*
X56632778Y-113797009D01*
X56716443Y-113953534D01*
X56767963Y-114123373D01*
X56785359Y-114300000D01*
X56767963Y-114476627D01*
X56716443Y-114646466D01*
X56632778Y-114802991D01*
X56603448Y-114838729D01*
X56520186Y-114940186D01*
X56418729Y-115023448D01*
X56382991Y-115052778D01*
X56226466Y-115136443D01*
X56056627Y-115187963D01*
X55990442Y-115194482D01*
X55924260Y-115201000D01*
X55835740Y-115201000D01*
X55769558Y-115194482D01*
X55703373Y-115187963D01*
X55533534Y-115136443D01*
X55377009Y-115052778D01*
X55341271Y-115023448D01*
X55239814Y-114940186D01*
X55156552Y-114838729D01*
X55127222Y-114802991D01*
X55043557Y-114646466D01*
X54992037Y-114476627D01*
X54974641Y-114300000D01*
X54992037Y-114123373D01*
X55043557Y-113953534D01*
X55127222Y-113797009D01*
X55156552Y-113761271D01*
X55239814Y-113659814D01*
X55341271Y-113576552D01*
X55377009Y-113547222D01*
X55533534Y-113463557D01*
X55703373Y-113412037D01*
X55769557Y-113405519D01*
X55835740Y-113399000D01*
X55924260Y-113399000D01*
X55990443Y-113405519D01*
X55990443Y-113405519D01*
G37*
G36*
X122030442Y-110865518D02*
G01*
X122096627Y-110872037D01*
X122266466Y-110923557D01*
X122422991Y-111007222D01*
X122458729Y-111036552D01*
X122560186Y-111119814D01*
X122643448Y-111221271D01*
X122672778Y-111257009D01*
X122756443Y-111413534D01*
X122807963Y-111583373D01*
X122825359Y-111760000D01*
X122807963Y-111936627D01*
X122756443Y-112106466D01*
X122672778Y-112262991D01*
X122643448Y-112298729D01*
X122560186Y-112400186D01*
X122458729Y-112483448D01*
X122422991Y-112512778D01*
X122266466Y-112596443D01*
X122096627Y-112647963D01*
X122030442Y-112654482D01*
X121964260Y-112661000D01*
X121875740Y-112661000D01*
X121809558Y-112654482D01*
X121743373Y-112647963D01*
X121573534Y-112596443D01*
X121417009Y-112512778D01*
X121381271Y-112483448D01*
X121279814Y-112400186D01*
X121196552Y-112298729D01*
X121167222Y-112262991D01*
X121083557Y-112106466D01*
X121032037Y-111936627D01*
X121014641Y-111760000D01*
X121032037Y-111583373D01*
X121083557Y-111413534D01*
X121167222Y-111257009D01*
X121196552Y-111221271D01*
X121279814Y-111119814D01*
X121381271Y-111036552D01*
X121417009Y-111007222D01*
X121573534Y-110923557D01*
X121743373Y-110872037D01*
X121809558Y-110865518D01*
X121875740Y-110859000D01*
X121964260Y-110859000D01*
X122030442Y-110865518D01*
X122030442Y-110865518D01*
G37*
G36*
X143126564Y-108209389D02*
G01*
X143317833Y-108288615D01*
X143317835Y-108288616D01*
X143382819Y-108332037D01*
X143489973Y-108403635D01*
X143636365Y-108550027D01*
X143751385Y-108722167D01*
X143830611Y-108913436D01*
X143871000Y-109116484D01*
X143871000Y-109323516D01*
X143830611Y-109526564D01*
X143814083Y-109566466D01*
X143751384Y-109717835D01*
X143636365Y-109889973D01*
X143489973Y-110036365D01*
X143317835Y-110151384D01*
X143317834Y-110151385D01*
X143317833Y-110151385D01*
X143126564Y-110230611D01*
X142923516Y-110271000D01*
X142716484Y-110271000D01*
X142513436Y-110230611D01*
X142322167Y-110151385D01*
X142322166Y-110151385D01*
X142322165Y-110151384D01*
X142150027Y-110036365D01*
X142003635Y-109889973D01*
X141888616Y-109717835D01*
X141825917Y-109566466D01*
X141809389Y-109526564D01*
X141769000Y-109323516D01*
X141769000Y-109116484D01*
X141809389Y-108913436D01*
X141888615Y-108722167D01*
X142003635Y-108550027D01*
X142150027Y-108403635D01*
X142257181Y-108332037D01*
X142322165Y-108288616D01*
X142322167Y-108288615D01*
X142513436Y-108209389D01*
X142716484Y-108169000D01*
X142923516Y-108169000D01*
X143126564Y-108209389D01*
X143126564Y-108209389D01*
G37*
G36*
X147626564Y-108209389D02*
G01*
X147817833Y-108288615D01*
X147817835Y-108288616D01*
X147882819Y-108332037D01*
X147989973Y-108403635D01*
X148136365Y-108550027D01*
X148251385Y-108722167D01*
X148330611Y-108913436D01*
X148371000Y-109116484D01*
X148371000Y-109323516D01*
X148330611Y-109526564D01*
X148314083Y-109566466D01*
X148251384Y-109717835D01*
X148136365Y-109889973D01*
X147989973Y-110036365D01*
X147817835Y-110151384D01*
X147817834Y-110151385D01*
X147817833Y-110151385D01*
X147626564Y-110230611D01*
X147423516Y-110271000D01*
X147216484Y-110271000D01*
X147013436Y-110230611D01*
X146822167Y-110151385D01*
X146822166Y-110151385D01*
X146822165Y-110151384D01*
X146650027Y-110036365D01*
X146503635Y-109889973D01*
X146388616Y-109717835D01*
X146325917Y-109566466D01*
X146309389Y-109526564D01*
X146269000Y-109323516D01*
X146269000Y-109116484D01*
X146309389Y-108913436D01*
X146388615Y-108722167D01*
X146503635Y-108550027D01*
X146650027Y-108403635D01*
X146757181Y-108332037D01*
X146822165Y-108288616D01*
X146822167Y-108288615D01*
X147013436Y-108209389D01*
X147216484Y-108169000D01*
X147423516Y-108169000D01*
X147626564Y-108209389D01*
X147626564Y-108209389D01*
G37*
G36*
X122030443Y-108325519D02*
G01*
X122096627Y-108332037D01*
X122266466Y-108383557D01*
X122422991Y-108467222D01*
X122458729Y-108496552D01*
X122560186Y-108579814D01*
X122643448Y-108681271D01*
X122672778Y-108717009D01*
X122756443Y-108873534D01*
X122807963Y-109043373D01*
X122825359Y-109220000D01*
X122807963Y-109396627D01*
X122756443Y-109566466D01*
X122672778Y-109722991D01*
X122643448Y-109758729D01*
X122560186Y-109860186D01*
X122458729Y-109943448D01*
X122422991Y-109972778D01*
X122266466Y-110056443D01*
X122096627Y-110107963D01*
X122030443Y-110114481D01*
X121964260Y-110121000D01*
X121875740Y-110121000D01*
X121809557Y-110114481D01*
X121743373Y-110107963D01*
X121573534Y-110056443D01*
X121417009Y-109972778D01*
X121381271Y-109943448D01*
X121279814Y-109860186D01*
X121196552Y-109758729D01*
X121167222Y-109722991D01*
X121083557Y-109566466D01*
X121032037Y-109396627D01*
X121014641Y-109220000D01*
X121032037Y-109043373D01*
X121083557Y-108873534D01*
X121167222Y-108717009D01*
X121196552Y-108681271D01*
X121279814Y-108579814D01*
X121381271Y-108496552D01*
X121417009Y-108467222D01*
X121573534Y-108383557D01*
X121743373Y-108332037D01*
X121809557Y-108325519D01*
X121875740Y-108319000D01*
X121964260Y-108319000D01*
X122030443Y-108325519D01*
X122030443Y-108325519D01*
G37*
G36*
X132237023Y-105390590D02*
G01*
X132337682Y-105421125D01*
X132388013Y-105436392D01*
X132527165Y-105510771D01*
X132649133Y-105610867D01*
X132749229Y-105732835D01*
X132823608Y-105871987D01*
X132823608Y-105871988D01*
X132869410Y-106022977D01*
X132881000Y-106140655D01*
X132881000Y-107219345D01*
X132869410Y-107337023D01*
X132840363Y-107432778D01*
X132823608Y-107488013D01*
X132780873Y-107567963D01*
X132749229Y-107627165D01*
X132649133Y-107749133D01*
X132527164Y-107849229D01*
X132388012Y-107923608D01*
X132337681Y-107938875D01*
X132237022Y-107969410D01*
X132080000Y-107984875D01*
X131922977Y-107969410D01*
X131822318Y-107938875D01*
X131771987Y-107923608D01*
X131632835Y-107849229D01*
X131510867Y-107749133D01*
X131410771Y-107627164D01*
X131351589Y-107516443D01*
X131336392Y-107488012D01*
X131319637Y-107432778D01*
X131290590Y-107337022D01*
X131279000Y-107219344D01*
X131279001Y-106140655D01*
X131290591Y-106022977D01*
X131336393Y-105871988D01*
X131336393Y-105871987D01*
X131410772Y-105732835D01*
X131510868Y-105610867D01*
X131632836Y-105510771D01*
X131771988Y-105436392D01*
X131822319Y-105421125D01*
X131922978Y-105390590D01*
X132080000Y-105375125D01*
X132237023Y-105390590D01*
X132237023Y-105390590D01*
G37*
G36*
X129697023Y-105390590D02*
G01*
X129797682Y-105421125D01*
X129848013Y-105436392D01*
X129987165Y-105510771D01*
X130109133Y-105610867D01*
X130209229Y-105732835D01*
X130283608Y-105871987D01*
X130283608Y-105871988D01*
X130329410Y-106022977D01*
X130341000Y-106140655D01*
X130341000Y-107219345D01*
X130329410Y-107337023D01*
X130300363Y-107432778D01*
X130283608Y-107488013D01*
X130240873Y-107567963D01*
X130209229Y-107627165D01*
X130109133Y-107749133D01*
X129987164Y-107849229D01*
X129848012Y-107923608D01*
X129797681Y-107938875D01*
X129697022Y-107969410D01*
X129540000Y-107984875D01*
X129382977Y-107969410D01*
X129282318Y-107938875D01*
X129231987Y-107923608D01*
X129092835Y-107849229D01*
X128970867Y-107749133D01*
X128870771Y-107627164D01*
X128811589Y-107516443D01*
X128796392Y-107488012D01*
X128779637Y-107432778D01*
X128750590Y-107337022D01*
X128739000Y-107219344D01*
X128739001Y-106140655D01*
X128750591Y-106022977D01*
X128796393Y-105871988D01*
X128796393Y-105871987D01*
X128870772Y-105732835D01*
X128970868Y-105610867D01*
X129092836Y-105510771D01*
X129231988Y-105436392D01*
X129282319Y-105421125D01*
X129382978Y-105390590D01*
X129540000Y-105375125D01*
X129697023Y-105390590D01*
X129697023Y-105390590D01*
G37*
G36*
X135421000Y-107981000D02*
G01*
X133819000Y-107981000D01*
X133819000Y-105379000D01*
X135421000Y-105379000D01*
X135421000Y-107981000D01*
X135421000Y-107981000D01*
G37*
G36*
X122030443Y-105785519D02*
G01*
X122096627Y-105792037D01*
X122266466Y-105843557D01*
X122422991Y-105927222D01*
X122458729Y-105956552D01*
X122560186Y-106039814D01*
X122642942Y-106140654D01*
X122672778Y-106177009D01*
X122756443Y-106333534D01*
X122807963Y-106503373D01*
X122825359Y-106680000D01*
X122807963Y-106856627D01*
X122756443Y-107026466D01*
X122672778Y-107182991D01*
X122643448Y-107218729D01*
X122560186Y-107320186D01*
X122458729Y-107403448D01*
X122422991Y-107432778D01*
X122266466Y-107516443D01*
X122096627Y-107567963D01*
X122030443Y-107574481D01*
X121964260Y-107581000D01*
X121875740Y-107581000D01*
X121809557Y-107574481D01*
X121743373Y-107567963D01*
X121573534Y-107516443D01*
X121417009Y-107432778D01*
X121381271Y-107403448D01*
X121279814Y-107320186D01*
X121196552Y-107218729D01*
X121167222Y-107182991D01*
X121083557Y-107026466D01*
X121032037Y-106856627D01*
X121014641Y-106680000D01*
X121032037Y-106503373D01*
X121083557Y-106333534D01*
X121167222Y-106177009D01*
X121197058Y-106140654D01*
X121279814Y-106039814D01*
X121381271Y-105956552D01*
X121417009Y-105927222D01*
X121573534Y-105843557D01*
X121743373Y-105792037D01*
X121809557Y-105785519D01*
X121875740Y-105779000D01*
X121964260Y-105779000D01*
X122030443Y-105785519D01*
X122030443Y-105785519D01*
G37*
G36*
X102375256Y-103391298D02*
G01*
X102481579Y-103412447D01*
X102782042Y-103536903D01*
X103052451Y-103717585D01*
X103282415Y-103947549D01*
X103463097Y-104217958D01*
X103587553Y-104518421D01*
X103598520Y-104573557D01*
X103641060Y-104787416D01*
X103651000Y-104837391D01*
X103651000Y-105162609D01*
X103587553Y-105481579D01*
X103463097Y-105782042D01*
X103282415Y-106052451D01*
X103052451Y-106282415D01*
X102782042Y-106463097D01*
X102481579Y-106587553D01*
X102375256Y-106608702D01*
X102162611Y-106651000D01*
X101837389Y-106651000D01*
X101624744Y-106608702D01*
X101518421Y-106587553D01*
X101217958Y-106463097D01*
X100947549Y-106282415D01*
X100717585Y-106052451D01*
X100536903Y-105782042D01*
X100412447Y-105481579D01*
X100349000Y-105162609D01*
X100349000Y-104837391D01*
X100358941Y-104787416D01*
X100401480Y-104573557D01*
X100412447Y-104518421D01*
X100536903Y-104217958D01*
X100717585Y-103947549D01*
X100947549Y-103717585D01*
X101217958Y-103536903D01*
X101518421Y-103412447D01*
X101624744Y-103391298D01*
X101837389Y-103349000D01*
X102162611Y-103349000D01*
X102375256Y-103391298D01*
X102375256Y-103391298D01*
G37*
G36*
X91550443Y-104515519D02*
G01*
X91616627Y-104522037D01*
X91786466Y-104573557D01*
X91942991Y-104657222D01*
X91978729Y-104686552D01*
X92080186Y-104769814D01*
X92135644Y-104837391D01*
X92192778Y-104907009D01*
X92276443Y-105063534D01*
X92327963Y-105233373D01*
X92345359Y-105410000D01*
X92327963Y-105586627D01*
X92276443Y-105756466D01*
X92192778Y-105912991D01*
X92163448Y-105948729D01*
X92080186Y-106050186D01*
X91978729Y-106133448D01*
X91942991Y-106162778D01*
X91786466Y-106246443D01*
X91616627Y-106297963D01*
X91550442Y-106304482D01*
X91484260Y-106311000D01*
X91395740Y-106311000D01*
X91329558Y-106304482D01*
X91263373Y-106297963D01*
X91093534Y-106246443D01*
X90937009Y-106162778D01*
X90901271Y-106133448D01*
X90799814Y-106050186D01*
X90716552Y-105948729D01*
X90687222Y-105912991D01*
X90603557Y-105756466D01*
X90552037Y-105586627D01*
X90534641Y-105410000D01*
X90552037Y-105233373D01*
X90603557Y-105063534D01*
X90687222Y-104907009D01*
X90744356Y-104837391D01*
X90799814Y-104769814D01*
X90901271Y-104686552D01*
X90937009Y-104657222D01*
X91093534Y-104573557D01*
X91263373Y-104522037D01*
X91329557Y-104515519D01*
X91395740Y-104509000D01*
X91484260Y-104509000D01*
X91550443Y-104515519D01*
X91550443Y-104515519D01*
G37*
G36*
X83930443Y-104515519D02*
G01*
X83996627Y-104522037D01*
X84166466Y-104573557D01*
X84322991Y-104657222D01*
X84358729Y-104686552D01*
X84460186Y-104769814D01*
X84515644Y-104837391D01*
X84572778Y-104907009D01*
X84656443Y-105063534D01*
X84707963Y-105233373D01*
X84725359Y-105410000D01*
X84707963Y-105586627D01*
X84656443Y-105756466D01*
X84572778Y-105912991D01*
X84543448Y-105948729D01*
X84460186Y-106050186D01*
X84358729Y-106133448D01*
X84322991Y-106162778D01*
X84166466Y-106246443D01*
X83996627Y-106297963D01*
X83930442Y-106304482D01*
X83864260Y-106311000D01*
X83775740Y-106311000D01*
X83709558Y-106304482D01*
X83643373Y-106297963D01*
X83473534Y-106246443D01*
X83317009Y-106162778D01*
X83281271Y-106133448D01*
X83179814Y-106050186D01*
X83096552Y-105948729D01*
X83067222Y-105912991D01*
X82983557Y-105756466D01*
X82932037Y-105586627D01*
X82914641Y-105410000D01*
X82932037Y-105233373D01*
X82983557Y-105063534D01*
X83067222Y-104907009D01*
X83124356Y-104837391D01*
X83179814Y-104769814D01*
X83281271Y-104686552D01*
X83317009Y-104657222D01*
X83473534Y-104573557D01*
X83643373Y-104522037D01*
X83709557Y-104515519D01*
X83775740Y-104509000D01*
X83864260Y-104509000D01*
X83930443Y-104515519D01*
X83930443Y-104515519D01*
G37*
G36*
X86470443Y-104515519D02*
G01*
X86536627Y-104522037D01*
X86706466Y-104573557D01*
X86862991Y-104657222D01*
X86898729Y-104686552D01*
X87000186Y-104769814D01*
X87055644Y-104837391D01*
X87112778Y-104907009D01*
X87196443Y-105063534D01*
X87247963Y-105233373D01*
X87265359Y-105410000D01*
X87247963Y-105586627D01*
X87196443Y-105756466D01*
X87112778Y-105912991D01*
X87083448Y-105948729D01*
X87000186Y-106050186D01*
X86898729Y-106133448D01*
X86862991Y-106162778D01*
X86706466Y-106246443D01*
X86536627Y-106297963D01*
X86470442Y-106304482D01*
X86404260Y-106311000D01*
X86315740Y-106311000D01*
X86249558Y-106304482D01*
X86183373Y-106297963D01*
X86013534Y-106246443D01*
X85857009Y-106162778D01*
X85821271Y-106133448D01*
X85719814Y-106050186D01*
X85636552Y-105948729D01*
X85607222Y-105912991D01*
X85523557Y-105756466D01*
X85472037Y-105586627D01*
X85454641Y-105410000D01*
X85472037Y-105233373D01*
X85523557Y-105063534D01*
X85607222Y-104907009D01*
X85664356Y-104837391D01*
X85719814Y-104769814D01*
X85821271Y-104686552D01*
X85857009Y-104657222D01*
X86013534Y-104573557D01*
X86183373Y-104522037D01*
X86249557Y-104515519D01*
X86315740Y-104509000D01*
X86404260Y-104509000D01*
X86470443Y-104515519D01*
X86470443Y-104515519D01*
G37*
G36*
X89010443Y-104515519D02*
G01*
X89076627Y-104522037D01*
X89246466Y-104573557D01*
X89402991Y-104657222D01*
X89438729Y-104686552D01*
X89540186Y-104769814D01*
X89595644Y-104837391D01*
X89652778Y-104907009D01*
X89736443Y-105063534D01*
X89787963Y-105233373D01*
X89805359Y-105410000D01*
X89787963Y-105586627D01*
X89736443Y-105756466D01*
X89652778Y-105912991D01*
X89623448Y-105948729D01*
X89540186Y-106050186D01*
X89438729Y-106133448D01*
X89402991Y-106162778D01*
X89246466Y-106246443D01*
X89076627Y-106297963D01*
X89010442Y-106304482D01*
X88944260Y-106311000D01*
X88855740Y-106311000D01*
X88789558Y-106304482D01*
X88723373Y-106297963D01*
X88553534Y-106246443D01*
X88397009Y-106162778D01*
X88361271Y-106133448D01*
X88259814Y-106050186D01*
X88176552Y-105948729D01*
X88147222Y-105912991D01*
X88063557Y-105756466D01*
X88012037Y-105586627D01*
X87994641Y-105410000D01*
X88012037Y-105233373D01*
X88063557Y-105063534D01*
X88147222Y-104907009D01*
X88204356Y-104837391D01*
X88259814Y-104769814D01*
X88361271Y-104686552D01*
X88397009Y-104657222D01*
X88553534Y-104573557D01*
X88723373Y-104522037D01*
X88789557Y-104515519D01*
X88855740Y-104509000D01*
X88944260Y-104509000D01*
X89010443Y-104515519D01*
X89010443Y-104515519D01*
G37*
G36*
X94881000Y-106311000D02*
G01*
X93079000Y-106311000D01*
X93079000Y-104509000D01*
X94881000Y-104509000D01*
X94881000Y-106311000D01*
X94881000Y-106311000D01*
G37*
G36*
X53715256Y-101896298D02*
G01*
X53821579Y-101917447D01*
X54122042Y-102041903D01*
X54392451Y-102222585D01*
X54622415Y-102452549D01*
X54622416Y-102452551D01*
X54803098Y-102722960D01*
X54927553Y-103023422D01*
X54991000Y-103342389D01*
X54991000Y-103667611D01*
X54981059Y-103717585D01*
X54927553Y-103986579D01*
X54803097Y-104287042D01*
X54622415Y-104557451D01*
X54392451Y-104787415D01*
X54122042Y-104968097D01*
X53821579Y-105092553D01*
X53715256Y-105113702D01*
X53502611Y-105156000D01*
X53177389Y-105156000D01*
X52964744Y-105113702D01*
X52858421Y-105092553D01*
X52557958Y-104968097D01*
X52287549Y-104787415D01*
X52057585Y-104557451D01*
X51876903Y-104287042D01*
X51752447Y-103986579D01*
X51698941Y-103717585D01*
X51689000Y-103667611D01*
X51689000Y-103342389D01*
X51752447Y-103023422D01*
X51876902Y-102722960D01*
X52057584Y-102452551D01*
X52057585Y-102452549D01*
X52287549Y-102222585D01*
X52557958Y-102041903D01*
X52858421Y-101917447D01*
X52964744Y-101896298D01*
X53177389Y-101854000D01*
X53502611Y-101854000D01*
X53715256Y-101896298D01*
X53715256Y-101896298D01*
G37*
G36*
X147060256Y-101896298D02*
G01*
X147166579Y-101917447D01*
X147467042Y-102041903D01*
X147737451Y-102222585D01*
X147967415Y-102452549D01*
X147967416Y-102452551D01*
X148148098Y-102722960D01*
X148272553Y-103023422D01*
X148336000Y-103342389D01*
X148336000Y-103667611D01*
X148326059Y-103717585D01*
X148272553Y-103986579D01*
X148148097Y-104287042D01*
X147967415Y-104557451D01*
X147737451Y-104787415D01*
X147467042Y-104968097D01*
X147166579Y-105092553D01*
X147060256Y-105113702D01*
X146847611Y-105156000D01*
X146522389Y-105156000D01*
X146309744Y-105113702D01*
X146203421Y-105092553D01*
X145902958Y-104968097D01*
X145632549Y-104787415D01*
X145402585Y-104557451D01*
X145221903Y-104287042D01*
X145097447Y-103986579D01*
X145043941Y-103717585D01*
X145034000Y-103667611D01*
X145034000Y-103342389D01*
X145097447Y-103023422D01*
X145221902Y-102722960D01*
X145402584Y-102452551D01*
X145402585Y-102452549D01*
X145632549Y-102222585D01*
X145902958Y-102041903D01*
X146203421Y-101917447D01*
X146309744Y-101896298D01*
X146522389Y-101854000D01*
X146847611Y-101854000D01*
X147060256Y-101896298D01*
X147060256Y-101896298D01*
G37*
G36*
X122821000Y-105041000D02*
G01*
X121019000Y-105041000D01*
X121019000Y-103239000D01*
X122821000Y-103239000D01*
X122821000Y-105041000D01*
X122821000Y-105041000D01*
G37*
M02*
