G04 #@! TF.GenerationSoftware,KiCad,Pcbnew,(5.1.4)-1*
G04 #@! TF.CreationDate,2020-02-27T02:57:38+01:00*
G04 #@! TF.ProjectId,stm32_board,73746d33-325f-4626-9f61-72642e6b6963,rev?*
G04 #@! TF.SameCoordinates,Original*
G04 #@! TF.FileFunction,Legend,Bot*
G04 #@! TF.FilePolarity,Positive*
%FSLAX46Y46*%
G04 Gerber Fmt 4.6, Leading zero omitted, Abs format (unit mm)*
G04 Created by KiCad (PCBNEW (5.1.4)-1) date 2020-02-27 02:57:38*
%MOMM*%
%LPD*%
G04 APERTURE LIST*
%ADD10C,0.120000*%
%ADD11C,0.150000*%
G04 APERTURE END LIST*
D10*
X90633733Y-118870000D02*
X90976267Y-118870000D01*
X90633733Y-119890000D02*
X90976267Y-119890000D01*
X90976267Y-120140000D02*
X90633733Y-120140000D01*
X90976267Y-121160000D02*
X90633733Y-121160000D01*
X87218733Y-121160000D02*
X87561267Y-121160000D01*
X87218733Y-120140000D02*
X87561267Y-120140000D01*
X87218733Y-118870000D02*
X87561267Y-118870000D01*
X87218733Y-119890000D02*
X87561267Y-119890000D01*
X130140000Y-122270000D02*
X130140000Y-121570000D01*
X128940000Y-121570000D02*
X128940000Y-122270000D01*
D11*
X93511666Y-119737142D02*
X93559285Y-119784761D01*
X93702142Y-119832380D01*
X93797380Y-119832380D01*
X93940238Y-119784761D01*
X94035476Y-119689523D01*
X94083095Y-119594285D01*
X94130714Y-119403809D01*
X94130714Y-119260952D01*
X94083095Y-119070476D01*
X94035476Y-118975238D01*
X93940238Y-118880000D01*
X93797380Y-118832380D01*
X93702142Y-118832380D01*
X93559285Y-118880000D01*
X93511666Y-118927619D01*
X92654523Y-119165714D02*
X92654523Y-119832380D01*
X92892619Y-118784761D02*
X93130714Y-119499047D01*
X92511666Y-119499047D01*
X93511666Y-121007142D02*
X93559285Y-121054761D01*
X93702142Y-121102380D01*
X93797380Y-121102380D01*
X93940238Y-121054761D01*
X94035476Y-120959523D01*
X94083095Y-120864285D01*
X94130714Y-120673809D01*
X94130714Y-120530952D01*
X94083095Y-120340476D01*
X94035476Y-120245238D01*
X93940238Y-120150000D01*
X93797380Y-120102380D01*
X93702142Y-120102380D01*
X93559285Y-120150000D01*
X93511666Y-120197619D01*
X92606904Y-120102380D02*
X93083095Y-120102380D01*
X93130714Y-120578571D01*
X93083095Y-120530952D01*
X92987857Y-120483333D01*
X92749761Y-120483333D01*
X92654523Y-120530952D01*
X92606904Y-120578571D01*
X92559285Y-120673809D01*
X92559285Y-120911904D01*
X92606904Y-121007142D01*
X92654523Y-121054761D01*
X92749761Y-121102380D01*
X92987857Y-121102380D01*
X93083095Y-121054761D01*
X93130714Y-121007142D01*
X84621666Y-121007142D02*
X84669285Y-121054761D01*
X84812142Y-121102380D01*
X84907380Y-121102380D01*
X85050238Y-121054761D01*
X85145476Y-120959523D01*
X85193095Y-120864285D01*
X85240714Y-120673809D01*
X85240714Y-120530952D01*
X85193095Y-120340476D01*
X85145476Y-120245238D01*
X85050238Y-120150000D01*
X84907380Y-120102380D01*
X84812142Y-120102380D01*
X84669285Y-120150000D01*
X84621666Y-120197619D01*
X84288333Y-120102380D02*
X83621666Y-120102380D01*
X84050238Y-121102380D01*
X85097857Y-119737142D02*
X85145476Y-119784761D01*
X85288333Y-119832380D01*
X85383571Y-119832380D01*
X85526428Y-119784761D01*
X85621666Y-119689523D01*
X85669285Y-119594285D01*
X85716904Y-119403809D01*
X85716904Y-119260952D01*
X85669285Y-119070476D01*
X85621666Y-118975238D01*
X85526428Y-118880000D01*
X85383571Y-118832380D01*
X85288333Y-118832380D01*
X85145476Y-118880000D01*
X85097857Y-118927619D01*
X84145476Y-119832380D02*
X84716904Y-119832380D01*
X84431190Y-119832380D02*
X84431190Y-118832380D01*
X84526428Y-118975238D01*
X84621666Y-119070476D01*
X84716904Y-119118095D01*
X83193095Y-119832380D02*
X83764523Y-119832380D01*
X83478809Y-119832380D02*
X83478809Y-118832380D01*
X83574047Y-118975238D01*
X83669285Y-119070476D01*
X83764523Y-119118095D01*
X128647142Y-121277142D02*
X128694761Y-121229523D01*
X128742380Y-121086666D01*
X128742380Y-120991428D01*
X128694761Y-120848571D01*
X128599523Y-120753333D01*
X128504285Y-120705714D01*
X128313809Y-120658095D01*
X128170952Y-120658095D01*
X127980476Y-120705714D01*
X127885238Y-120753333D01*
X127790000Y-120848571D01*
X127742380Y-120991428D01*
X127742380Y-121086666D01*
X127790000Y-121229523D01*
X127837619Y-121277142D01*
X128742380Y-122229523D02*
X128742380Y-121658095D01*
X128742380Y-121943809D02*
X127742380Y-121943809D01*
X127885238Y-121848571D01*
X127980476Y-121753333D01*
X128028095Y-121658095D01*
X127742380Y-122562857D02*
X127742380Y-123229523D01*
X128742380Y-122800952D01*
M02*
