M48
; DRILL file {KiCad (5.1.4)-1} date 27/02/2020 02:57:36
; FORMAT={-:-/ absolute / inch / decimal}
; #@! TF.CreationDate,2020-02-27T02:57:36+01:00
; #@! TF.GenerationSoftware,Kicad,Pcbnew,(5.1.4)-1
; #@! TF.FileFunction,Plated,1,4,PTH
FMAT,2
INCH
T1C0.0157
T2C0.0236
T3C0.0394
T4C0.0433
%
G90
G05
T1
X2.55Y-4.9
X2.55Y-5.0
X2.55Y-5.1
X2.95Y-5.075
X2.95Y-5.15
X2.95Y-5.225
X3.05Y-4.6
X3.05Y-4.75
X3.1Y-4.8
X3.1Y-4.925
X3.3Y-4.8
X3.375Y-4.7
X3.375Y-4.75
X3.4Y-5.025
X3.4Y-5.275
X3.4Y-5.3215
X3.425Y-4.95
X3.45Y-4.475
X3.451Y-5.3258
X3.46Y-5.1
X3.475Y-4.675
X3.525Y-4.675
X3.6Y-4.675
X3.6472Y-4.7472
X3.65Y-4.8
X3.7Y-5.125
X3.725Y-4.675
X3.88Y-5.12
X3.9Y-5.225
X3.9Y-5.3
X3.925Y-4.525
X3.95Y-5.375
X4.0Y-4.525
X4.0Y-4.7
X4.04Y-5.12
X4.05Y-4.65
X5.1Y-4.88
X5.5535Y-4.65
X5.575Y-4.8
X5.85Y-4.7
X5.85Y-4.8
X5.85Y-4.9
T2
X2.4Y-5.625
X2.6Y-5.625
X2.9Y-5.625
X3.1Y-5.625
X3.4Y-5.625
X3.6Y-5.625
X3.9Y-5.625
X4.1Y-5.625
T3
X2.1Y-5.5
X2.2Y-5.5
X2.3Y-5.5
X2.4Y-5.5
X2.1Y-5.1
X2.2Y-5.1
X2.3Y-5.1
X2.65Y-4.7
X2.75Y-4.7
X2.85Y-4.7
X4.8Y-4.75
X4.8Y-4.85
X4.8Y-4.95
X4.8Y-5.05
X4.8Y-5.15
X4.8Y-5.25
X4.8Y-5.35
X4.7Y-4.85
X4.7Y-4.95
X4.7Y-5.05
X4.7Y-5.15
X4.7Y-5.25
X4.7Y-5.35
X3.75Y-5.525
X3.75Y-5.625
X3.75Y-5.725
X3.75Y-5.825
X2.1Y-4.9
X2.2Y-4.9
X2.3Y-4.9
X5.1Y-5.55
X5.2Y-5.55
X5.3Y-5.55
X5.1Y-4.65
X5.2Y-4.65
X5.3Y-4.65
X2.1Y-4.7
X2.2Y-4.7
X2.3Y-4.7
X2.65Y-4.5
X2.75Y-4.5
X2.85Y-4.5
X5.1Y-5.1
X5.2Y-5.1
X5.3Y-5.1
X3.3Y-4.15
X3.4Y-4.15
X3.5Y-4.15
X3.6Y-4.15
X3.7Y-4.15
X4.25Y-5.525
X4.25Y-5.625
X4.25Y-5.725
X4.25Y-5.825
X4.8Y-4.1
X4.8Y-4.2
X4.8Y-4.3
X4.8Y-4.4
X4.8Y-4.5
X2.1Y-5.0
X2.2Y-5.0
X2.3Y-5.0
X3.25Y-5.525
X3.25Y-5.625
X3.25Y-5.725
X3.25Y-5.825
X2.84Y-5.06
X2.1Y-4.6
X2.2Y-4.6
X2.3Y-4.6
X2.1Y-5.3
X2.2Y-5.3
X2.3Y-5.3
X2.65Y-4.6
X2.75Y-4.6
X2.85Y-4.6
X5.1Y-4.2
X5.2Y-4.2
X5.3Y-4.2
X2.98Y-4.96
X5.65Y-5.0
X5.75Y-5.0
X2.1Y-4.5
X2.2Y-4.5
X2.3Y-4.5
X2.75Y-5.525
X2.75Y-5.625
X2.75Y-5.725
X2.75Y-5.825
T4
X5.6228Y-4.3
X5.6228Y-4.5559
X5.8Y-4.3
X5.8Y-4.5559
T0
M30
