G04 #@! TF.GenerationSoftware,KiCad,Pcbnew,(5.1.0)-1*
G04 #@! TF.CreationDate,2019-04-21T19:35:35+02:00*
G04 #@! TF.ProjectId,RM Board03,524d2042-6f61-4726-9430-332e6b696361,rev?*
G04 #@! TF.SameCoordinates,Original*
G04 #@! TF.FileFunction,Legend,Top*
G04 #@! TF.FilePolarity,Positive*
%FSLAX46Y46*%
G04 Gerber Fmt 4.6, Leading zero omitted, Abs format (unit mm)*
G04 Created by KiCad (PCBNEW (5.1.0)-1) date 2019-04-21 19:35:35*
%MOMM*%
%LPD*%
G04 APERTURE LIST*
%ADD10C,0.150000*%
%ADD11C,0.120000*%
G04 APERTURE END LIST*
D10*
X99314000Y-118872000D02*
X99314000Y-98806000D01*
X98806000Y-119634000D02*
X99314000Y-118872000D01*
X98806000Y-155702000D02*
X98806000Y-119634000D01*
X164846000Y-155702000D02*
X98806000Y-155702000D01*
X164846000Y-98806000D02*
X164846000Y-155702000D01*
X99314000Y-98806000D02*
X164846000Y-98806000D01*
X151130000Y-138938000D02*
X138430000Y-138938000D01*
X151130000Y-113538000D02*
X151130000Y-138938000D01*
X138430000Y-113538000D02*
X151130000Y-113538000D01*
X138430000Y-138938000D02*
X138430000Y-113538000D01*
D11*
X138370000Y-138998000D02*
X138370000Y-137668000D01*
X139700000Y-138998000D02*
X138370000Y-138998000D01*
X140970000Y-138998000D02*
X140970000Y-136338000D01*
X140970000Y-136338000D02*
X151190000Y-136338000D01*
X140970000Y-138998000D02*
X151190000Y-138998000D01*
X151190000Y-138998000D02*
X151190000Y-136338000D01*
X156102000Y-119185563D02*
X157166437Y-120250000D01*
X156102000Y-114494437D02*
X157166437Y-113430000D01*
X156102000Y-114494437D02*
X156102000Y-115780000D01*
X156102000Y-119185563D02*
X156102000Y-117900000D01*
X157166437Y-120250000D02*
X162922000Y-120250000D01*
X157166437Y-113430000D02*
X162922000Y-113430000D01*
X162922000Y-113430000D02*
X162922000Y-115780000D01*
X162922000Y-120250000D02*
X162922000Y-117900000D01*
X136966000Y-148142000D02*
X135636000Y-148142000D01*
X136966000Y-146812000D02*
X136966000Y-148142000D01*
X136966000Y-145542000D02*
X134306000Y-145542000D01*
X134306000Y-145542000D02*
X134306000Y-140402000D01*
X136966000Y-145542000D02*
X136966000Y-140402000D01*
X136966000Y-140402000D02*
X134306000Y-140402000D01*
X156270000Y-148142000D02*
X154940000Y-148142000D01*
X156270000Y-146812000D02*
X156270000Y-148142000D01*
X156270000Y-145542000D02*
X153610000Y-145542000D01*
X153610000Y-145542000D02*
X153610000Y-140402000D01*
X156270000Y-145542000D02*
X156270000Y-140402000D01*
X156270000Y-140402000D02*
X153610000Y-140402000D01*
X156102000Y-134933563D02*
X157166437Y-135998000D01*
X156102000Y-130242437D02*
X157166437Y-129178000D01*
X156102000Y-130242437D02*
X156102000Y-131528000D01*
X156102000Y-134933563D02*
X156102000Y-133648000D01*
X157166437Y-135998000D02*
X162922000Y-135998000D01*
X157166437Y-129178000D02*
X162922000Y-129178000D01*
X162922000Y-129178000D02*
X162922000Y-131528000D01*
X162922000Y-135998000D02*
X162922000Y-133648000D01*
X163382000Y-136846000D02*
X163382000Y-138176000D01*
X162052000Y-136846000D02*
X163382000Y-136846000D01*
X160782000Y-136846000D02*
X160782000Y-139506000D01*
X160782000Y-139506000D02*
X155642000Y-139506000D01*
X160782000Y-136846000D02*
X155642000Y-136846000D01*
X155642000Y-136846000D02*
X155642000Y-139506000D01*
X152086000Y-129226000D02*
X153416000Y-129226000D01*
X152086000Y-130556000D02*
X152086000Y-129226000D01*
X152086000Y-131826000D02*
X154746000Y-131826000D01*
X154746000Y-131826000D02*
X154746000Y-134426000D01*
X152086000Y-131826000D02*
X152086000Y-134426000D01*
X152086000Y-134426000D02*
X154746000Y-134426000D01*
X163382000Y-109922000D02*
X163382000Y-111252000D01*
X162052000Y-109922000D02*
X163382000Y-109922000D01*
X160782000Y-109922000D02*
X160782000Y-112582000D01*
X160782000Y-112582000D02*
X155642000Y-112582000D01*
X160782000Y-109922000D02*
X155642000Y-109922000D01*
X155642000Y-109922000D02*
X155642000Y-112582000D01*
X132442000Y-109114000D02*
X132442000Y-107464000D01*
X135042000Y-111714000D02*
X132442000Y-109114000D01*
X135042000Y-112514000D02*
X135042000Y-111714000D01*
X143342000Y-112514000D02*
X135042000Y-112514000D01*
X143342000Y-111714000D02*
X143342000Y-112514000D01*
X145942000Y-109114000D02*
X143342000Y-111714000D01*
X145942000Y-107464000D02*
X145942000Y-109114000D01*
X145942000Y-103864000D02*
X145942000Y-101564000D01*
X132442000Y-103864000D02*
X132442000Y-101564000D01*
X145942000Y-101614000D02*
G75*
G03X144492000Y-100064000I-1500000J50000D01*
G01*
X132442000Y-101614000D02*
G75*
G02X133892000Y-100064000I1500000J50000D01*
G01*
X134701339Y-100475329D02*
G75*
G03X143692000Y-100464000I4490661J3711329D01*
G01*
X144606615Y-100079840D02*
G75*
G03X143692000Y-100464000I-124615J-984160D01*
G01*
X133777385Y-100079840D02*
G75*
G02X134692000Y-100464000I124615J-984160D01*
G01*
X112582000Y-134814000D02*
X109922000Y-134814000D01*
X112582000Y-142494000D02*
X112582000Y-134814000D01*
X109922000Y-142494000D02*
X109922000Y-134814000D01*
X112582000Y-142494000D02*
X109922000Y-142494000D01*
X112582000Y-143764000D02*
X112582000Y-145094000D01*
X112582000Y-145094000D02*
X111252000Y-145094000D01*
D10*
X118252000Y-147574000D02*
X109982000Y-147574000D01*
X109982000Y-147574000D02*
X109982000Y-132334000D01*
X118252000Y-132334000D02*
X109982000Y-132334000D01*
X118252000Y-147574000D02*
X118252000Y-132334000D01*
D11*
X126178000Y-99762000D02*
X127508000Y-99762000D01*
X126178000Y-101092000D02*
X126178000Y-99762000D01*
X126178000Y-102362000D02*
X128838000Y-102362000D01*
X128838000Y-102362000D02*
X128838000Y-107502000D01*
X126178000Y-102362000D02*
X126178000Y-107502000D01*
X126178000Y-107502000D02*
X128838000Y-107502000D01*
X123130000Y-99762000D02*
X124460000Y-99762000D01*
X123130000Y-101092000D02*
X123130000Y-99762000D01*
X123130000Y-102362000D02*
X125790000Y-102362000D01*
X125790000Y-102362000D02*
X125790000Y-107502000D01*
X123130000Y-102362000D02*
X123130000Y-107502000D01*
X123130000Y-107502000D02*
X125790000Y-107502000D01*
X106366000Y-99762000D02*
X107696000Y-99762000D01*
X106366000Y-101092000D02*
X106366000Y-99762000D01*
X106366000Y-102362000D02*
X109026000Y-102362000D01*
X109026000Y-102362000D02*
X109026000Y-107502000D01*
X106366000Y-102362000D02*
X106366000Y-107502000D01*
X106366000Y-107502000D02*
X109026000Y-107502000D01*
X130870000Y-148142000D02*
X129540000Y-148142000D01*
X130870000Y-146812000D02*
X130870000Y-148142000D01*
X130870000Y-145542000D02*
X128210000Y-145542000D01*
X128210000Y-145542000D02*
X128210000Y-140402000D01*
X130870000Y-145542000D02*
X130870000Y-140402000D01*
X130870000Y-140402000D02*
X128210000Y-140402000D01*
X102422000Y-148142000D02*
X101092000Y-148142000D01*
X102422000Y-146812000D02*
X102422000Y-148142000D01*
X102422000Y-145542000D02*
X99762000Y-145542000D01*
X99762000Y-145542000D02*
X99762000Y-140402000D01*
X102422000Y-145542000D02*
X102422000Y-140402000D01*
X102422000Y-140402000D02*
X99762000Y-140402000D01*
X153222000Y-148142000D02*
X151892000Y-148142000D01*
X153222000Y-146812000D02*
X153222000Y-148142000D01*
X153222000Y-145542000D02*
X150562000Y-145542000D01*
X150562000Y-145542000D02*
X150562000Y-140402000D01*
X153222000Y-145542000D02*
X153222000Y-140402000D01*
X153222000Y-140402000D02*
X150562000Y-140402000D01*
X159318000Y-148142000D02*
X157988000Y-148142000D01*
X159318000Y-146812000D02*
X159318000Y-148142000D01*
X159318000Y-145542000D02*
X156658000Y-145542000D01*
X156658000Y-145542000D02*
X156658000Y-140402000D01*
X159318000Y-145542000D02*
X159318000Y-140402000D01*
X159318000Y-140402000D02*
X156658000Y-140402000D01*
X108518000Y-148142000D02*
X107188000Y-148142000D01*
X108518000Y-146812000D02*
X108518000Y-148142000D01*
X108518000Y-145542000D02*
X105858000Y-145542000D01*
X105858000Y-145542000D02*
X105858000Y-140402000D01*
X108518000Y-145542000D02*
X108518000Y-140402000D01*
X108518000Y-140402000D02*
X105858000Y-140402000D01*
X153610000Y-99762000D02*
X154940000Y-99762000D01*
X153610000Y-101092000D02*
X153610000Y-99762000D01*
X153610000Y-102362000D02*
X156270000Y-102362000D01*
X156270000Y-102362000D02*
X156270000Y-107502000D01*
X153610000Y-102362000D02*
X153610000Y-107502000D01*
X153610000Y-107502000D02*
X156270000Y-107502000D01*
X105470000Y-148142000D02*
X104140000Y-148142000D01*
X105470000Y-146812000D02*
X105470000Y-148142000D01*
X105470000Y-145542000D02*
X102810000Y-145542000D01*
X102810000Y-145542000D02*
X102810000Y-140402000D01*
X105470000Y-145542000D02*
X105470000Y-140402000D01*
X105470000Y-140402000D02*
X102810000Y-140402000D01*
X122241000Y-108779000D02*
X123571000Y-108779000D01*
X122241000Y-110109000D02*
X122241000Y-108779000D01*
X122241000Y-111379000D02*
X124901000Y-111379000D01*
X124901000Y-111379000D02*
X124901000Y-116519000D01*
X122241000Y-111379000D02*
X122241000Y-116519000D01*
X122241000Y-116519000D02*
X124901000Y-116519000D01*
X111827000Y-108779000D02*
X113157000Y-108779000D01*
X111827000Y-110109000D02*
X111827000Y-108779000D01*
X111827000Y-111379000D02*
X114487000Y-111379000D01*
X114487000Y-111379000D02*
X114487000Y-116519000D01*
X111827000Y-111379000D02*
X111827000Y-116519000D01*
X111827000Y-116519000D02*
X114487000Y-116519000D01*
X150562000Y-99762000D02*
X151892000Y-99762000D01*
X150562000Y-101092000D02*
X150562000Y-99762000D01*
X150562000Y-102362000D02*
X153222000Y-102362000D01*
X153222000Y-102362000D02*
X153222000Y-107502000D01*
X150562000Y-102362000D02*
X150562000Y-107502000D01*
X150562000Y-107502000D02*
X153222000Y-107502000D01*
X133918000Y-148142000D02*
X132588000Y-148142000D01*
X133918000Y-146812000D02*
X133918000Y-148142000D01*
X133918000Y-145542000D02*
X131258000Y-145542000D01*
X131258000Y-145542000D02*
X131258000Y-140402000D01*
X133918000Y-145542000D02*
X133918000Y-140402000D01*
X133918000Y-140402000D02*
X131258000Y-140402000D01*
X109414000Y-99762000D02*
X110744000Y-99762000D01*
X109414000Y-101092000D02*
X109414000Y-99762000D01*
X109414000Y-102362000D02*
X112074000Y-102362000D01*
X112074000Y-102362000D02*
X112074000Y-107502000D01*
X109414000Y-102362000D02*
X109414000Y-107502000D01*
X109414000Y-107502000D02*
X112074000Y-107502000D01*
X147514000Y-99762000D02*
X148844000Y-99762000D01*
X147514000Y-101092000D02*
X147514000Y-99762000D01*
X147514000Y-102362000D02*
X150174000Y-102362000D01*
X150174000Y-102362000D02*
X150174000Y-107502000D01*
X147514000Y-102362000D02*
X147514000Y-107502000D01*
X147514000Y-107502000D02*
X150174000Y-107502000D01*
X114875000Y-108779000D02*
X116205000Y-108779000D01*
X114875000Y-110109000D02*
X114875000Y-108779000D01*
X114875000Y-111379000D02*
X117535000Y-111379000D01*
X117535000Y-111379000D02*
X117535000Y-116519000D01*
X114875000Y-111379000D02*
X114875000Y-116519000D01*
X114875000Y-116519000D02*
X117535000Y-116519000D01*
X120082000Y-99762000D02*
X121412000Y-99762000D01*
X120082000Y-101092000D02*
X120082000Y-99762000D01*
X120082000Y-102362000D02*
X122742000Y-102362000D01*
X122742000Y-102362000D02*
X122742000Y-107502000D01*
X120082000Y-102362000D02*
X120082000Y-107502000D01*
X120082000Y-107502000D02*
X122742000Y-107502000D01*
X119193000Y-108779000D02*
X120523000Y-108779000D01*
X119193000Y-110109000D02*
X119193000Y-108779000D01*
X119193000Y-111379000D02*
X121853000Y-111379000D01*
X121853000Y-111379000D02*
X121853000Y-116519000D01*
X119193000Y-111379000D02*
X119193000Y-116519000D01*
X119193000Y-116519000D02*
X121853000Y-116519000D01*
X112462000Y-99762000D02*
X113792000Y-99762000D01*
X112462000Y-101092000D02*
X112462000Y-99762000D01*
X112462000Y-102362000D02*
X115122000Y-102362000D01*
X115122000Y-102362000D02*
X115122000Y-107502000D01*
X112462000Y-102362000D02*
X112462000Y-107502000D01*
X112462000Y-107502000D02*
X115122000Y-107502000D01*
X109026000Y-124266000D02*
X107696000Y-124266000D01*
X109026000Y-122936000D02*
X109026000Y-124266000D01*
X109026000Y-121666000D02*
X106366000Y-121666000D01*
X106366000Y-121666000D02*
X106366000Y-111446000D01*
X109026000Y-121666000D02*
X109026000Y-111446000D01*
X109026000Y-111446000D02*
X106366000Y-111446000D01*
X121726000Y-143570000D02*
X120396000Y-143570000D01*
X121726000Y-142240000D02*
X121726000Y-143570000D01*
X121726000Y-140970000D02*
X119066000Y-140970000D01*
X119066000Y-140970000D02*
X119066000Y-128210000D01*
X121726000Y-140970000D02*
X121726000Y-128210000D01*
X121726000Y-128210000D02*
X119066000Y-128210000D01*
X111089221Y-125986000D02*
X111414779Y-125986000D01*
X111089221Y-124966000D02*
X111414779Y-124966000D01*
X111089221Y-128526000D02*
X111414779Y-128526000D01*
X111089221Y-127506000D02*
X111414779Y-127506000D01*
X111089221Y-123446000D02*
X111414779Y-123446000D01*
X111089221Y-122426000D02*
X111414779Y-122426000D01*
X163948000Y-120816000D02*
X163948000Y-128666000D01*
X163948000Y-128666000D02*
X152008000Y-128666000D01*
X152008000Y-128666000D02*
X152008000Y-120816000D01*
X152008000Y-120816000D02*
X163948000Y-120816000D01*
X164278000Y-122936000D02*
X164278000Y-120486000D01*
X164278000Y-120486000D02*
X161948000Y-120486000D01*
X102930000Y-122742000D02*
X101600000Y-122742000D01*
X102930000Y-121412000D02*
X102930000Y-122742000D01*
X102930000Y-120142000D02*
X100270000Y-120142000D01*
X100270000Y-120142000D02*
X100270000Y-112462000D01*
X102930000Y-120142000D02*
X102930000Y-112462000D01*
X102930000Y-112462000D02*
X100270000Y-112462000D01*
X157226990Y-149192349D02*
X157226990Y-150522349D01*
X155896990Y-149192349D02*
X157226990Y-149192349D01*
X157226990Y-151792349D02*
X157226990Y-154392349D01*
X154626990Y-151792349D02*
X157226990Y-151792349D01*
X154626990Y-149192349D02*
X154626990Y-151792349D01*
X157226990Y-154392349D02*
X106306990Y-154392349D01*
X154626990Y-149192349D02*
X106306990Y-149192349D01*
X106306990Y-149192349D02*
X106306990Y-154392349D01*
X111089221Y-131066000D02*
X111414779Y-131066000D01*
X111089221Y-130046000D02*
X111414779Y-130046000D01*
X116493000Y-124516000D02*
X113808000Y-124516000D01*
X116493000Y-126436000D02*
X116493000Y-124516000D01*
X113808000Y-126436000D02*
X116493000Y-126436000D01*
X116493000Y-127056000D02*
X113808000Y-127056000D01*
X116493000Y-128976000D02*
X116493000Y-127056000D01*
X113808000Y-128976000D02*
X116493000Y-128976000D01*
X116493000Y-121976000D02*
X113808000Y-121976000D01*
X116493000Y-123896000D02*
X116493000Y-121976000D01*
X113808000Y-123896000D02*
X116493000Y-123896000D01*
X116493000Y-129596000D02*
X113808000Y-129596000D01*
X116493000Y-131516000D02*
X116493000Y-129596000D01*
X113808000Y-131516000D02*
X116493000Y-131516000D01*
X163382000Y-106366000D02*
X163382000Y-107696000D01*
X162052000Y-106366000D02*
X163382000Y-106366000D01*
X160782000Y-106366000D02*
X160782000Y-109026000D01*
X160782000Y-109026000D02*
X158182000Y-109026000D01*
X160782000Y-106366000D02*
X158182000Y-106366000D01*
X158182000Y-106366000D02*
X158182000Y-109026000D01*
X104346000Y-127870000D02*
X102846000Y-127870000D01*
X100346000Y-129120000D02*
X100346000Y-133620000D01*
X102846000Y-134870000D02*
X104346000Y-134870000D01*
X106846000Y-133620000D02*
X106846000Y-129120000D01*
X141586000Y-143812000D02*
X141586000Y-145312000D01*
X142836000Y-147812000D02*
X147336000Y-147812000D01*
X148586000Y-145312000D02*
X148586000Y-143812000D01*
X147336000Y-141312000D02*
X142836000Y-141312000D01*
X138855809Y-135515333D02*
X139236761Y-135515333D01*
X138779619Y-135743904D02*
X139046285Y-134943904D01*
X139312952Y-135743904D01*
X140036761Y-135667714D02*
X139998666Y-135705809D01*
X139884380Y-135743904D01*
X139808190Y-135743904D01*
X139693904Y-135705809D01*
X139617714Y-135629619D01*
X139579619Y-135553428D01*
X139541523Y-135401047D01*
X139541523Y-135286761D01*
X139579619Y-135134380D01*
X139617714Y-135058190D01*
X139693904Y-134982000D01*
X139808190Y-134943904D01*
X139884380Y-134943904D01*
X139998666Y-134982000D01*
X140036761Y-135020095D01*
X140836761Y-135667714D02*
X140798666Y-135705809D01*
X140684380Y-135743904D01*
X140608190Y-135743904D01*
X140493904Y-135705809D01*
X140417714Y-135629619D01*
X140379619Y-135553428D01*
X140341523Y-135401047D01*
X140341523Y-135286761D01*
X140379619Y-135134380D01*
X140417714Y-135058190D01*
X140493904Y-134982000D01*
X140608190Y-134943904D01*
X140684380Y-134943904D01*
X140798666Y-134982000D01*
X140836761Y-135020095D01*
X141179619Y-135743904D02*
X141179619Y-134943904D01*
X141446285Y-135515333D01*
X141712952Y-134943904D01*
X141712952Y-135743904D01*
X142093904Y-135324857D02*
X142360571Y-135324857D01*
X142474857Y-135743904D02*
X142093904Y-135743904D01*
X142093904Y-134943904D01*
X142474857Y-134943904D01*
X142703428Y-134943904D02*
X143160571Y-134943904D01*
X142932000Y-135743904D02*
X142932000Y-134943904D01*
X143427238Y-135324857D02*
X143693904Y-135324857D01*
X143808190Y-135743904D02*
X143427238Y-135743904D01*
X143427238Y-134943904D01*
X143808190Y-134943904D01*
X144608190Y-135743904D02*
X144341523Y-135362952D01*
X144151047Y-135743904D02*
X144151047Y-134943904D01*
X144455809Y-134943904D01*
X144532000Y-134982000D01*
X144570095Y-135020095D01*
X144608190Y-135096285D01*
X144608190Y-135210571D01*
X144570095Y-135286761D01*
X144532000Y-135324857D01*
X144455809Y-135362952D01*
X144151047Y-135362952D01*
X159619904Y-118135238D02*
X159619904Y-118592380D01*
X159619904Y-118363809D02*
X158819904Y-118363809D01*
X158934190Y-118440000D01*
X159010380Y-118516190D01*
X159048476Y-118592380D01*
X158819904Y-117640000D02*
X158819904Y-117563809D01*
X158858000Y-117487619D01*
X158896095Y-117449523D01*
X158972285Y-117411428D01*
X159124666Y-117373333D01*
X159315142Y-117373333D01*
X159467523Y-117411428D01*
X159543714Y-117449523D01*
X159581809Y-117487619D01*
X159619904Y-117563809D01*
X159619904Y-117640000D01*
X159581809Y-117716190D01*
X159543714Y-117754285D01*
X159467523Y-117792380D01*
X159315142Y-117830476D01*
X159124666Y-117830476D01*
X158972285Y-117792380D01*
X158896095Y-117754285D01*
X158858000Y-117716190D01*
X158819904Y-117640000D01*
X158819904Y-116878095D02*
X158819904Y-116801904D01*
X158858000Y-116725714D01*
X158896095Y-116687619D01*
X158972285Y-116649523D01*
X159124666Y-116611428D01*
X159315142Y-116611428D01*
X159467523Y-116649523D01*
X159543714Y-116687619D01*
X159581809Y-116725714D01*
X159619904Y-116801904D01*
X159619904Y-116878095D01*
X159581809Y-116954285D01*
X159543714Y-116992380D01*
X159467523Y-117030476D01*
X159315142Y-117068571D01*
X159124666Y-117068571D01*
X158972285Y-117030476D01*
X158896095Y-116992380D01*
X158858000Y-116954285D01*
X158819904Y-116878095D01*
X159086571Y-116268571D02*
X159886571Y-116268571D01*
X159505619Y-115887619D02*
X159581809Y-115849523D01*
X159619904Y-115773333D01*
X159505619Y-116268571D02*
X159581809Y-116230476D01*
X159619904Y-116154285D01*
X159619904Y-116001904D01*
X159581809Y-115925714D01*
X159505619Y-115887619D01*
X159086571Y-115887619D01*
X159200857Y-115163809D02*
X159200857Y-115430476D01*
X159619904Y-115430476D02*
X158819904Y-115430476D01*
X158819904Y-115049523D01*
X134702761Y-148913809D02*
X134817047Y-148951904D01*
X135007523Y-148951904D01*
X135083714Y-148913809D01*
X135121809Y-148875714D01*
X135159904Y-148799523D01*
X135159904Y-148723333D01*
X135121809Y-148647142D01*
X135083714Y-148609047D01*
X135007523Y-148570952D01*
X134855142Y-148532857D01*
X134778952Y-148494761D01*
X134740857Y-148456666D01*
X134702761Y-148380476D01*
X134702761Y-148304285D01*
X134740857Y-148228095D01*
X134778952Y-148190000D01*
X134855142Y-148151904D01*
X135045619Y-148151904D01*
X135159904Y-148190000D01*
X135655142Y-148151904D02*
X135731333Y-148151904D01*
X135807523Y-148190000D01*
X135845619Y-148228095D01*
X135883714Y-148304285D01*
X135921809Y-148456666D01*
X135921809Y-148647142D01*
X135883714Y-148799523D01*
X135845619Y-148875714D01*
X135807523Y-148913809D01*
X135731333Y-148951904D01*
X135655142Y-148951904D01*
X135578952Y-148913809D01*
X135540857Y-148875714D01*
X135502761Y-148799523D01*
X135464666Y-148647142D01*
X135464666Y-148456666D01*
X135502761Y-148304285D01*
X135540857Y-148228095D01*
X135578952Y-148190000D01*
X135655142Y-148151904D01*
X136607523Y-148418571D02*
X136607523Y-148951904D01*
X136417047Y-148113809D02*
X136226571Y-148685238D01*
X136721809Y-148685238D01*
X136950380Y-148951904D02*
X137369428Y-148418571D01*
X136950380Y-148418571D02*
X137369428Y-148951904D01*
X138017047Y-148418571D02*
X138017047Y-148951904D01*
X137826571Y-148113809D02*
X137636095Y-148685238D01*
X138131333Y-148685238D01*
X153949523Y-148913809D02*
X154063809Y-148951904D01*
X154254285Y-148951904D01*
X154330476Y-148913809D01*
X154368571Y-148875714D01*
X154406666Y-148799523D01*
X154406666Y-148723333D01*
X154368571Y-148647142D01*
X154330476Y-148609047D01*
X154254285Y-148570952D01*
X154101904Y-148532857D01*
X154025714Y-148494761D01*
X153987619Y-148456666D01*
X153949523Y-148380476D01*
X153949523Y-148304285D01*
X153987619Y-148228095D01*
X154025714Y-148190000D01*
X154101904Y-148151904D01*
X154292380Y-148151904D01*
X154406666Y-148190000D01*
X154901904Y-148151904D02*
X154978095Y-148151904D01*
X155054285Y-148190000D01*
X155092380Y-148228095D01*
X155130476Y-148304285D01*
X155168571Y-148456666D01*
X155168571Y-148647142D01*
X155130476Y-148799523D01*
X155092380Y-148875714D01*
X155054285Y-148913809D01*
X154978095Y-148951904D01*
X154901904Y-148951904D01*
X154825714Y-148913809D01*
X154787619Y-148875714D01*
X154749523Y-148799523D01*
X154711428Y-148647142D01*
X154711428Y-148456666D01*
X154749523Y-148304285D01*
X154787619Y-148228095D01*
X154825714Y-148190000D01*
X154901904Y-148151904D01*
X155473333Y-148228095D02*
X155511428Y-148190000D01*
X155587619Y-148151904D01*
X155778095Y-148151904D01*
X155854285Y-148190000D01*
X155892380Y-148228095D01*
X155930476Y-148304285D01*
X155930476Y-148380476D01*
X155892380Y-148494761D01*
X155435238Y-148951904D01*
X155930476Y-148951904D01*
X159873904Y-133629238D02*
X159873904Y-134086380D01*
X159873904Y-133857809D02*
X159073904Y-133857809D01*
X159188190Y-133934000D01*
X159264380Y-134010190D01*
X159302476Y-134086380D01*
X159073904Y-133134000D02*
X159073904Y-133057809D01*
X159112000Y-132981619D01*
X159150095Y-132943523D01*
X159226285Y-132905428D01*
X159378666Y-132867333D01*
X159569142Y-132867333D01*
X159721523Y-132905428D01*
X159797714Y-132943523D01*
X159835809Y-132981619D01*
X159873904Y-133057809D01*
X159873904Y-133134000D01*
X159835809Y-133210190D01*
X159797714Y-133248285D01*
X159721523Y-133286380D01*
X159569142Y-133324476D01*
X159378666Y-133324476D01*
X159226285Y-133286380D01*
X159150095Y-133248285D01*
X159112000Y-133210190D01*
X159073904Y-133134000D01*
X159073904Y-132372095D02*
X159073904Y-132295904D01*
X159112000Y-132219714D01*
X159150095Y-132181619D01*
X159226285Y-132143523D01*
X159378666Y-132105428D01*
X159569142Y-132105428D01*
X159721523Y-132143523D01*
X159797714Y-132181619D01*
X159835809Y-132219714D01*
X159873904Y-132295904D01*
X159873904Y-132372095D01*
X159835809Y-132448285D01*
X159797714Y-132486380D01*
X159721523Y-132524476D01*
X159569142Y-132562571D01*
X159378666Y-132562571D01*
X159226285Y-132524476D01*
X159150095Y-132486380D01*
X159112000Y-132448285D01*
X159073904Y-132372095D01*
X159340571Y-131762571D02*
X160140571Y-131762571D01*
X159759619Y-131381619D02*
X159835809Y-131343523D01*
X159873904Y-131267333D01*
X159759619Y-131762571D02*
X159835809Y-131724476D01*
X159873904Y-131648285D01*
X159873904Y-131495904D01*
X159835809Y-131419714D01*
X159759619Y-131381619D01*
X159340571Y-131381619D01*
X159454857Y-130657809D02*
X159454857Y-130924476D01*
X159873904Y-130924476D02*
X159073904Y-130924476D01*
X159073904Y-130543523D01*
X164141142Y-139261714D02*
X164141142Y-138652190D01*
X164445904Y-138956952D02*
X163836380Y-138956952D01*
X163645904Y-137890285D02*
X163645904Y-138271238D01*
X164026857Y-138309333D01*
X163988761Y-138271238D01*
X163950666Y-138195047D01*
X163950666Y-138004571D01*
X163988761Y-137928380D01*
X164026857Y-137890285D01*
X164103047Y-137852190D01*
X164293523Y-137852190D01*
X164369714Y-137890285D01*
X164407809Y-137928380D01*
X164445904Y-138004571D01*
X164445904Y-138195047D01*
X164407809Y-138271238D01*
X164369714Y-138309333D01*
X164445904Y-137509333D02*
X163645904Y-137509333D01*
X163645904Y-137204571D01*
X163684000Y-137128380D01*
X163722095Y-137090285D01*
X163798285Y-137052190D01*
X163912571Y-137052190D01*
X163988761Y-137090285D01*
X164026857Y-137128380D01*
X164064952Y-137204571D01*
X164064952Y-137509333D01*
X152406476Y-134689904D02*
X152406476Y-135261333D01*
X152368380Y-135375619D01*
X152292190Y-135451809D01*
X152177904Y-135489904D01*
X152101714Y-135489904D01*
X152787428Y-135489904D02*
X152787428Y-134689904D01*
X153092190Y-134689904D01*
X153168380Y-134728000D01*
X153206476Y-134766095D01*
X153244571Y-134842285D01*
X153244571Y-134956571D01*
X153206476Y-135032761D01*
X153168380Y-135070857D01*
X153092190Y-135108952D01*
X152787428Y-135108952D01*
X153968380Y-134689904D02*
X153587428Y-134689904D01*
X153549333Y-135070857D01*
X153587428Y-135032761D01*
X153663619Y-134994666D01*
X153854095Y-134994666D01*
X153930285Y-135032761D01*
X153968380Y-135070857D01*
X154006476Y-135147047D01*
X154006476Y-135337523D01*
X153968380Y-135413714D01*
X153930285Y-135451809D01*
X153854095Y-135489904D01*
X153663619Y-135489904D01*
X153587428Y-135451809D01*
X153549333Y-135413714D01*
X154235047Y-134689904D02*
X154501714Y-135489904D01*
X154768380Y-134689904D01*
X164141142Y-112280571D02*
X164141142Y-111671047D01*
X164445904Y-111975809D02*
X163836380Y-111975809D01*
X163645904Y-110909142D02*
X163645904Y-111290095D01*
X164026857Y-111328190D01*
X163988761Y-111290095D01*
X163950666Y-111213904D01*
X163950666Y-111023428D01*
X163988761Y-110947238D01*
X164026857Y-110909142D01*
X164103047Y-110871047D01*
X164293523Y-110871047D01*
X164369714Y-110909142D01*
X164407809Y-110947238D01*
X164445904Y-111023428D01*
X164445904Y-111213904D01*
X164407809Y-111290095D01*
X164369714Y-111328190D01*
X163645904Y-110642476D02*
X164445904Y-110375809D01*
X163645904Y-110109142D01*
X138601523Y-100018857D02*
X138715809Y-100056952D01*
X138753904Y-100095047D01*
X138792000Y-100171238D01*
X138792000Y-100285523D01*
X138753904Y-100361714D01*
X138715809Y-100399809D01*
X138639619Y-100437904D01*
X138334857Y-100437904D01*
X138334857Y-99637904D01*
X138601523Y-99637904D01*
X138677714Y-99676000D01*
X138715809Y-99714095D01*
X138753904Y-99790285D01*
X138753904Y-99866476D01*
X138715809Y-99942666D01*
X138677714Y-99980761D01*
X138601523Y-100018857D01*
X138334857Y-100018857D01*
X139096761Y-100209333D02*
X139477714Y-100209333D01*
X139020571Y-100437904D02*
X139287238Y-99637904D01*
X139553904Y-100437904D01*
X139706285Y-99637904D02*
X140163428Y-99637904D01*
X139934857Y-100437904D02*
X139934857Y-99637904D01*
X111004380Y-133546857D02*
X111118666Y-133584952D01*
X111156761Y-133623047D01*
X111194857Y-133699238D01*
X111194857Y-133813523D01*
X111156761Y-133889714D01*
X111118666Y-133927809D01*
X111042476Y-133965904D01*
X110737714Y-133965904D01*
X110737714Y-133165904D01*
X111004380Y-133165904D01*
X111080571Y-133204000D01*
X111118666Y-133242095D01*
X111156761Y-133318285D01*
X111156761Y-133394476D01*
X111118666Y-133470666D01*
X111080571Y-133508761D01*
X111004380Y-133546857D01*
X110737714Y-133546857D01*
X111423428Y-133165904D02*
X111880571Y-133165904D01*
X111652000Y-133965904D02*
X111652000Y-133165904D01*
X126708095Y-108527809D02*
X126822380Y-108565904D01*
X127012857Y-108565904D01*
X127089047Y-108527809D01*
X127127142Y-108489714D01*
X127165238Y-108413523D01*
X127165238Y-108337333D01*
X127127142Y-108261142D01*
X127089047Y-108223047D01*
X127012857Y-108184952D01*
X126860476Y-108146857D01*
X126784285Y-108108761D01*
X126746190Y-108070666D01*
X126708095Y-107994476D01*
X126708095Y-107918285D01*
X126746190Y-107842095D01*
X126784285Y-107804000D01*
X126860476Y-107765904D01*
X127050952Y-107765904D01*
X127165238Y-107804000D01*
X127927142Y-108565904D02*
X127470000Y-108565904D01*
X127698571Y-108565904D02*
X127698571Y-107765904D01*
X127622380Y-107880190D01*
X127546190Y-107956380D01*
X127470000Y-107994476D01*
X128650952Y-107765904D02*
X128270000Y-107765904D01*
X128231904Y-108146857D01*
X128270000Y-108108761D01*
X128346190Y-108070666D01*
X128536666Y-108070666D01*
X128612857Y-108108761D01*
X128650952Y-108146857D01*
X128689047Y-108223047D01*
X128689047Y-108413523D01*
X128650952Y-108489714D01*
X128612857Y-108527809D01*
X128536666Y-108565904D01*
X128346190Y-108565904D01*
X128270000Y-108527809D01*
X128231904Y-108489714D01*
X129031904Y-108565904D02*
X129031904Y-108032571D01*
X129031904Y-107765904D02*
X128993809Y-107804000D01*
X129031904Y-107842095D01*
X129070000Y-107804000D01*
X129031904Y-107765904D01*
X129031904Y-107842095D01*
X129793809Y-107765904D02*
X129412857Y-107765904D01*
X129374761Y-108146857D01*
X129412857Y-108108761D01*
X129489047Y-108070666D01*
X129679523Y-108070666D01*
X129755714Y-108108761D01*
X129793809Y-108146857D01*
X129831904Y-108223047D01*
X129831904Y-108413523D01*
X129793809Y-108489714D01*
X129755714Y-108527809D01*
X129679523Y-108565904D01*
X129489047Y-108565904D01*
X129412857Y-108527809D01*
X129374761Y-108489714D01*
X122764761Y-108527809D02*
X122879047Y-108565904D01*
X123069523Y-108565904D01*
X123145714Y-108527809D01*
X123183809Y-108489714D01*
X123221904Y-108413523D01*
X123221904Y-108337333D01*
X123183809Y-108261142D01*
X123145714Y-108223047D01*
X123069523Y-108184952D01*
X122917142Y-108146857D01*
X122840952Y-108108761D01*
X122802857Y-108070666D01*
X122764761Y-107994476D01*
X122764761Y-107918285D01*
X122802857Y-107842095D01*
X122840952Y-107804000D01*
X122917142Y-107765904D01*
X123107619Y-107765904D01*
X123221904Y-107804000D01*
X123983809Y-108565904D02*
X123526666Y-108565904D01*
X123755238Y-108565904D02*
X123755238Y-107765904D01*
X123679047Y-107880190D01*
X123602857Y-107956380D01*
X123526666Y-107994476D01*
X124669523Y-108032571D02*
X124669523Y-108565904D01*
X124479047Y-107727809D02*
X124288571Y-108299238D01*
X124783809Y-108299238D01*
X125012380Y-108565904D02*
X125431428Y-108032571D01*
X125012380Y-108032571D02*
X125431428Y-108565904D01*
X125660000Y-107765904D02*
X126155238Y-107765904D01*
X125888571Y-108070666D01*
X126002857Y-108070666D01*
X126079047Y-108108761D01*
X126117142Y-108146857D01*
X126155238Y-108223047D01*
X126155238Y-108413523D01*
X126117142Y-108489714D01*
X126079047Y-108527809D01*
X126002857Y-108565904D01*
X125774285Y-108565904D01*
X125698095Y-108527809D01*
X125660000Y-108489714D01*
X106959523Y-108781809D02*
X107073809Y-108819904D01*
X107264285Y-108819904D01*
X107340476Y-108781809D01*
X107378571Y-108743714D01*
X107416666Y-108667523D01*
X107416666Y-108591333D01*
X107378571Y-108515142D01*
X107340476Y-108477047D01*
X107264285Y-108438952D01*
X107111904Y-108400857D01*
X107035714Y-108362761D01*
X106997619Y-108324666D01*
X106959523Y-108248476D01*
X106959523Y-108172285D01*
X106997619Y-108096095D01*
X107035714Y-108058000D01*
X107111904Y-108019904D01*
X107302380Y-108019904D01*
X107416666Y-108058000D01*
X108178571Y-108819904D02*
X107721428Y-108819904D01*
X107950000Y-108819904D02*
X107950000Y-108019904D01*
X107873809Y-108134190D01*
X107797619Y-108210380D01*
X107721428Y-108248476D01*
X108673809Y-108019904D02*
X108750000Y-108019904D01*
X108826190Y-108058000D01*
X108864285Y-108096095D01*
X108902380Y-108172285D01*
X108940476Y-108324666D01*
X108940476Y-108515142D01*
X108902380Y-108667523D01*
X108864285Y-108743714D01*
X108826190Y-108781809D01*
X108750000Y-108819904D01*
X108673809Y-108819904D01*
X108597619Y-108781809D01*
X108559523Y-108743714D01*
X108521428Y-108667523D01*
X108483333Y-108515142D01*
X108483333Y-108324666D01*
X108521428Y-108172285D01*
X108559523Y-108096095D01*
X108597619Y-108058000D01*
X108673809Y-108019904D01*
X127082761Y-148913809D02*
X127197047Y-148951904D01*
X127387523Y-148951904D01*
X127463714Y-148913809D01*
X127501809Y-148875714D01*
X127539904Y-148799523D01*
X127539904Y-148723333D01*
X127501809Y-148647142D01*
X127463714Y-148609047D01*
X127387523Y-148570952D01*
X127235142Y-148532857D01*
X127158952Y-148494761D01*
X127120857Y-148456666D01*
X127082761Y-148380476D01*
X127082761Y-148304285D01*
X127120857Y-148228095D01*
X127158952Y-148190000D01*
X127235142Y-148151904D01*
X127425619Y-148151904D01*
X127539904Y-148190000D01*
X128035142Y-148151904D02*
X128111333Y-148151904D01*
X128187523Y-148190000D01*
X128225619Y-148228095D01*
X128263714Y-148304285D01*
X128301809Y-148456666D01*
X128301809Y-148647142D01*
X128263714Y-148799523D01*
X128225619Y-148875714D01*
X128187523Y-148913809D01*
X128111333Y-148951904D01*
X128035142Y-148951904D01*
X127958952Y-148913809D01*
X127920857Y-148875714D01*
X127882761Y-148799523D01*
X127844666Y-148647142D01*
X127844666Y-148456666D01*
X127882761Y-148304285D01*
X127920857Y-148228095D01*
X127958952Y-148190000D01*
X128035142Y-148151904D01*
X128987523Y-148151904D02*
X128835142Y-148151904D01*
X128758952Y-148190000D01*
X128720857Y-148228095D01*
X128644666Y-148342380D01*
X128606571Y-148494761D01*
X128606571Y-148799523D01*
X128644666Y-148875714D01*
X128682761Y-148913809D01*
X128758952Y-148951904D01*
X128911333Y-148951904D01*
X128987523Y-148913809D01*
X129025619Y-148875714D01*
X129063714Y-148799523D01*
X129063714Y-148609047D01*
X129025619Y-148532857D01*
X128987523Y-148494761D01*
X128911333Y-148456666D01*
X128758952Y-148456666D01*
X128682761Y-148494761D01*
X128644666Y-148532857D01*
X128606571Y-148609047D01*
X129330380Y-148951904D02*
X129749428Y-148418571D01*
X129330380Y-148418571D02*
X129749428Y-148951904D01*
X130397047Y-148151904D02*
X130244666Y-148151904D01*
X130168476Y-148190000D01*
X130130380Y-148228095D01*
X130054190Y-148342380D01*
X130016095Y-148494761D01*
X130016095Y-148799523D01*
X130054190Y-148875714D01*
X130092285Y-148913809D01*
X130168476Y-148951904D01*
X130320857Y-148951904D01*
X130397047Y-148913809D01*
X130435142Y-148875714D01*
X130473238Y-148799523D01*
X130473238Y-148609047D01*
X130435142Y-148532857D01*
X130397047Y-148494761D01*
X130320857Y-148456666D01*
X130168476Y-148456666D01*
X130092285Y-148494761D01*
X130054190Y-148532857D01*
X130016095Y-148609047D01*
X99396761Y-139769809D02*
X99511047Y-139807904D01*
X99701523Y-139807904D01*
X99777714Y-139769809D01*
X99815809Y-139731714D01*
X99853904Y-139655523D01*
X99853904Y-139579333D01*
X99815809Y-139503142D01*
X99777714Y-139465047D01*
X99701523Y-139426952D01*
X99549142Y-139388857D01*
X99472952Y-139350761D01*
X99434857Y-139312666D01*
X99396761Y-139236476D01*
X99396761Y-139160285D01*
X99434857Y-139084095D01*
X99472952Y-139046000D01*
X99549142Y-139007904D01*
X99739619Y-139007904D01*
X99853904Y-139046000D01*
X100349142Y-139007904D02*
X100425333Y-139007904D01*
X100501523Y-139046000D01*
X100539619Y-139084095D01*
X100577714Y-139160285D01*
X100615809Y-139312666D01*
X100615809Y-139503142D01*
X100577714Y-139655523D01*
X100539619Y-139731714D01*
X100501523Y-139769809D01*
X100425333Y-139807904D01*
X100349142Y-139807904D01*
X100272952Y-139769809D01*
X100234857Y-139731714D01*
X100196761Y-139655523D01*
X100158666Y-139503142D01*
X100158666Y-139312666D01*
X100196761Y-139160285D01*
X100234857Y-139084095D01*
X100272952Y-139046000D01*
X100349142Y-139007904D01*
X100996761Y-139807904D02*
X101149142Y-139807904D01*
X101225333Y-139769809D01*
X101263428Y-139731714D01*
X101339619Y-139617428D01*
X101377714Y-139465047D01*
X101377714Y-139160285D01*
X101339619Y-139084095D01*
X101301523Y-139046000D01*
X101225333Y-139007904D01*
X101072952Y-139007904D01*
X100996761Y-139046000D01*
X100958666Y-139084095D01*
X100920571Y-139160285D01*
X100920571Y-139350761D01*
X100958666Y-139426952D01*
X100996761Y-139465047D01*
X101072952Y-139503142D01*
X101225333Y-139503142D01*
X101301523Y-139465047D01*
X101339619Y-139426952D01*
X101377714Y-139350761D01*
X101644380Y-139807904D02*
X102063428Y-139274571D01*
X101644380Y-139274571D02*
X102063428Y-139807904D01*
X102330095Y-139084095D02*
X102368190Y-139046000D01*
X102444380Y-139007904D01*
X102634857Y-139007904D01*
X102711047Y-139046000D01*
X102749142Y-139084095D01*
X102787238Y-139160285D01*
X102787238Y-139236476D01*
X102749142Y-139350761D01*
X102292000Y-139807904D01*
X102787238Y-139807904D01*
X150901523Y-148913809D02*
X151015809Y-148951904D01*
X151206285Y-148951904D01*
X151282476Y-148913809D01*
X151320571Y-148875714D01*
X151358666Y-148799523D01*
X151358666Y-148723333D01*
X151320571Y-148647142D01*
X151282476Y-148609047D01*
X151206285Y-148570952D01*
X151053904Y-148532857D01*
X150977714Y-148494761D01*
X150939619Y-148456666D01*
X150901523Y-148380476D01*
X150901523Y-148304285D01*
X150939619Y-148228095D01*
X150977714Y-148190000D01*
X151053904Y-148151904D01*
X151244380Y-148151904D01*
X151358666Y-148190000D01*
X151853904Y-148151904D02*
X151930095Y-148151904D01*
X152006285Y-148190000D01*
X152044380Y-148228095D01*
X152082476Y-148304285D01*
X152120571Y-148456666D01*
X152120571Y-148647142D01*
X152082476Y-148799523D01*
X152044380Y-148875714D01*
X152006285Y-148913809D01*
X151930095Y-148951904D01*
X151853904Y-148951904D01*
X151777714Y-148913809D01*
X151739619Y-148875714D01*
X151701523Y-148799523D01*
X151663428Y-148647142D01*
X151663428Y-148456666D01*
X151701523Y-148304285D01*
X151739619Y-148228095D01*
X151777714Y-148190000D01*
X151853904Y-148151904D01*
X152387238Y-148151904D02*
X152882476Y-148151904D01*
X152615809Y-148456666D01*
X152730095Y-148456666D01*
X152806285Y-148494761D01*
X152844380Y-148532857D01*
X152882476Y-148609047D01*
X152882476Y-148799523D01*
X152844380Y-148875714D01*
X152806285Y-148913809D01*
X152730095Y-148951904D01*
X152501523Y-148951904D01*
X152425333Y-148913809D01*
X152387238Y-148875714D01*
X157251523Y-149167809D02*
X157365809Y-149205904D01*
X157556285Y-149205904D01*
X157632476Y-149167809D01*
X157670571Y-149129714D01*
X157708666Y-149053523D01*
X157708666Y-148977333D01*
X157670571Y-148901142D01*
X157632476Y-148863047D01*
X157556285Y-148824952D01*
X157403904Y-148786857D01*
X157327714Y-148748761D01*
X157289619Y-148710666D01*
X157251523Y-148634476D01*
X157251523Y-148558285D01*
X157289619Y-148482095D01*
X157327714Y-148444000D01*
X157403904Y-148405904D01*
X157594380Y-148405904D01*
X157708666Y-148444000D01*
X158203904Y-148405904D02*
X158280095Y-148405904D01*
X158356285Y-148444000D01*
X158394380Y-148482095D01*
X158432476Y-148558285D01*
X158470571Y-148710666D01*
X158470571Y-148901142D01*
X158432476Y-149053523D01*
X158394380Y-149129714D01*
X158356285Y-149167809D01*
X158280095Y-149205904D01*
X158203904Y-149205904D01*
X158127714Y-149167809D01*
X158089619Y-149129714D01*
X158051523Y-149053523D01*
X158013428Y-148901142D01*
X158013428Y-148710666D01*
X158051523Y-148558285D01*
X158089619Y-148482095D01*
X158127714Y-148444000D01*
X158203904Y-148405904D01*
X159232476Y-149205904D02*
X158775333Y-149205904D01*
X159003904Y-149205904D02*
X159003904Y-148405904D01*
X158927714Y-148520190D01*
X158851523Y-148596380D01*
X158775333Y-148634476D01*
X106197523Y-139769809D02*
X106311809Y-139807904D01*
X106502285Y-139807904D01*
X106578476Y-139769809D01*
X106616571Y-139731714D01*
X106654666Y-139655523D01*
X106654666Y-139579333D01*
X106616571Y-139503142D01*
X106578476Y-139465047D01*
X106502285Y-139426952D01*
X106349904Y-139388857D01*
X106273714Y-139350761D01*
X106235619Y-139312666D01*
X106197523Y-139236476D01*
X106197523Y-139160285D01*
X106235619Y-139084095D01*
X106273714Y-139046000D01*
X106349904Y-139007904D01*
X106540380Y-139007904D01*
X106654666Y-139046000D01*
X107149904Y-139007904D02*
X107226095Y-139007904D01*
X107302285Y-139046000D01*
X107340380Y-139084095D01*
X107378476Y-139160285D01*
X107416571Y-139312666D01*
X107416571Y-139503142D01*
X107378476Y-139655523D01*
X107340380Y-139731714D01*
X107302285Y-139769809D01*
X107226095Y-139807904D01*
X107149904Y-139807904D01*
X107073714Y-139769809D01*
X107035619Y-139731714D01*
X106997523Y-139655523D01*
X106959428Y-139503142D01*
X106959428Y-139312666D01*
X106997523Y-139160285D01*
X107035619Y-139084095D01*
X107073714Y-139046000D01*
X107149904Y-139007904D01*
X107683238Y-139007904D02*
X108216571Y-139007904D01*
X107873714Y-139807904D01*
X153949523Y-108781809D02*
X154063809Y-108819904D01*
X154254285Y-108819904D01*
X154330476Y-108781809D01*
X154368571Y-108743714D01*
X154406666Y-108667523D01*
X154406666Y-108591333D01*
X154368571Y-108515142D01*
X154330476Y-108477047D01*
X154254285Y-108438952D01*
X154101904Y-108400857D01*
X154025714Y-108362761D01*
X153987619Y-108324666D01*
X153949523Y-108248476D01*
X153949523Y-108172285D01*
X153987619Y-108096095D01*
X154025714Y-108058000D01*
X154101904Y-108019904D01*
X154292380Y-108019904D01*
X154406666Y-108058000D01*
X155168571Y-108819904D02*
X154711428Y-108819904D01*
X154940000Y-108819904D02*
X154940000Y-108019904D01*
X154863809Y-108134190D01*
X154787619Y-108210380D01*
X154711428Y-108248476D01*
X155625714Y-108362761D02*
X155549523Y-108324666D01*
X155511428Y-108286571D01*
X155473333Y-108210380D01*
X155473333Y-108172285D01*
X155511428Y-108096095D01*
X155549523Y-108058000D01*
X155625714Y-108019904D01*
X155778095Y-108019904D01*
X155854285Y-108058000D01*
X155892380Y-108096095D01*
X155930476Y-108172285D01*
X155930476Y-108210380D01*
X155892380Y-108286571D01*
X155854285Y-108324666D01*
X155778095Y-108362761D01*
X155625714Y-108362761D01*
X155549523Y-108400857D01*
X155511428Y-108438952D01*
X155473333Y-108515142D01*
X155473333Y-108667523D01*
X155511428Y-108743714D01*
X155549523Y-108781809D01*
X155625714Y-108819904D01*
X155778095Y-108819904D01*
X155854285Y-108781809D01*
X155892380Y-108743714D01*
X155930476Y-108667523D01*
X155930476Y-108515142D01*
X155892380Y-108438952D01*
X155854285Y-108400857D01*
X155778095Y-108362761D01*
X103149523Y-139769809D02*
X103263809Y-139807904D01*
X103454285Y-139807904D01*
X103530476Y-139769809D01*
X103568571Y-139731714D01*
X103606666Y-139655523D01*
X103606666Y-139579333D01*
X103568571Y-139503142D01*
X103530476Y-139465047D01*
X103454285Y-139426952D01*
X103301904Y-139388857D01*
X103225714Y-139350761D01*
X103187619Y-139312666D01*
X103149523Y-139236476D01*
X103149523Y-139160285D01*
X103187619Y-139084095D01*
X103225714Y-139046000D01*
X103301904Y-139007904D01*
X103492380Y-139007904D01*
X103606666Y-139046000D01*
X104101904Y-139007904D02*
X104178095Y-139007904D01*
X104254285Y-139046000D01*
X104292380Y-139084095D01*
X104330476Y-139160285D01*
X104368571Y-139312666D01*
X104368571Y-139503142D01*
X104330476Y-139655523D01*
X104292380Y-139731714D01*
X104254285Y-139769809D01*
X104178095Y-139807904D01*
X104101904Y-139807904D01*
X104025714Y-139769809D01*
X103987619Y-139731714D01*
X103949523Y-139655523D01*
X103911428Y-139503142D01*
X103911428Y-139312666D01*
X103949523Y-139160285D01*
X103987619Y-139084095D01*
X104025714Y-139046000D01*
X104101904Y-139007904D01*
X104825714Y-139350761D02*
X104749523Y-139312666D01*
X104711428Y-139274571D01*
X104673333Y-139198380D01*
X104673333Y-139160285D01*
X104711428Y-139084095D01*
X104749523Y-139046000D01*
X104825714Y-139007904D01*
X104978095Y-139007904D01*
X105054285Y-139046000D01*
X105092380Y-139084095D01*
X105130476Y-139160285D01*
X105130476Y-139198380D01*
X105092380Y-139274571D01*
X105054285Y-139312666D01*
X104978095Y-139350761D01*
X104825714Y-139350761D01*
X104749523Y-139388857D01*
X104711428Y-139426952D01*
X104673333Y-139503142D01*
X104673333Y-139655523D01*
X104711428Y-139731714D01*
X104749523Y-139769809D01*
X104825714Y-139807904D01*
X104978095Y-139807904D01*
X105054285Y-139769809D01*
X105092380Y-139731714D01*
X105130476Y-139655523D01*
X105130476Y-139503142D01*
X105092380Y-139426952D01*
X105054285Y-139388857D01*
X104978095Y-139350761D01*
X122390095Y-117925809D02*
X122504380Y-117963904D01*
X122694857Y-117963904D01*
X122771047Y-117925809D01*
X122809142Y-117887714D01*
X122847238Y-117811523D01*
X122847238Y-117735333D01*
X122809142Y-117659142D01*
X122771047Y-117621047D01*
X122694857Y-117582952D01*
X122542476Y-117544857D01*
X122466285Y-117506761D01*
X122428190Y-117468666D01*
X122390095Y-117392476D01*
X122390095Y-117316285D01*
X122428190Y-117240095D01*
X122466285Y-117202000D01*
X122542476Y-117163904D01*
X122732952Y-117163904D01*
X122847238Y-117202000D01*
X123152000Y-117240095D02*
X123190095Y-117202000D01*
X123266285Y-117163904D01*
X123456761Y-117163904D01*
X123532952Y-117202000D01*
X123571047Y-117240095D01*
X123609142Y-117316285D01*
X123609142Y-117392476D01*
X123571047Y-117506761D01*
X123113904Y-117963904D01*
X123609142Y-117963904D01*
X124371047Y-117963904D02*
X123913904Y-117963904D01*
X124142476Y-117963904D02*
X124142476Y-117163904D01*
X124066285Y-117278190D01*
X123990095Y-117354380D01*
X123913904Y-117392476D01*
X124713904Y-117963904D02*
X124713904Y-117430571D01*
X124713904Y-117163904D02*
X124675809Y-117202000D01*
X124713904Y-117240095D01*
X124752000Y-117202000D01*
X124713904Y-117163904D01*
X124713904Y-117240095D01*
X125437714Y-117430571D02*
X125437714Y-117963904D01*
X125247238Y-117125809D02*
X125056761Y-117697238D01*
X125552000Y-117697238D01*
X111468095Y-117925809D02*
X111582380Y-117963904D01*
X111772857Y-117963904D01*
X111849047Y-117925809D01*
X111887142Y-117887714D01*
X111925238Y-117811523D01*
X111925238Y-117735333D01*
X111887142Y-117659142D01*
X111849047Y-117621047D01*
X111772857Y-117582952D01*
X111620476Y-117544857D01*
X111544285Y-117506761D01*
X111506190Y-117468666D01*
X111468095Y-117392476D01*
X111468095Y-117316285D01*
X111506190Y-117240095D01*
X111544285Y-117202000D01*
X111620476Y-117163904D01*
X111810952Y-117163904D01*
X111925238Y-117202000D01*
X112230000Y-117240095D02*
X112268095Y-117202000D01*
X112344285Y-117163904D01*
X112534761Y-117163904D01*
X112610952Y-117202000D01*
X112649047Y-117240095D01*
X112687142Y-117316285D01*
X112687142Y-117392476D01*
X112649047Y-117506761D01*
X112191904Y-117963904D01*
X112687142Y-117963904D01*
X112991904Y-117240095D02*
X113030000Y-117202000D01*
X113106190Y-117163904D01*
X113296666Y-117163904D01*
X113372857Y-117202000D01*
X113410952Y-117240095D01*
X113449047Y-117316285D01*
X113449047Y-117392476D01*
X113410952Y-117506761D01*
X112953809Y-117963904D01*
X113449047Y-117963904D01*
X113791904Y-117963904D02*
X113791904Y-117430571D01*
X113791904Y-117163904D02*
X113753809Y-117202000D01*
X113791904Y-117240095D01*
X113830000Y-117202000D01*
X113791904Y-117163904D01*
X113791904Y-117240095D01*
X114591904Y-117963904D02*
X114134761Y-117963904D01*
X114363333Y-117963904D02*
X114363333Y-117163904D01*
X114287142Y-117278190D01*
X114210952Y-117354380D01*
X114134761Y-117392476D01*
X150901523Y-108781809D02*
X151015809Y-108819904D01*
X151206285Y-108819904D01*
X151282476Y-108781809D01*
X151320571Y-108743714D01*
X151358666Y-108667523D01*
X151358666Y-108591333D01*
X151320571Y-108515142D01*
X151282476Y-108477047D01*
X151206285Y-108438952D01*
X151053904Y-108400857D01*
X150977714Y-108362761D01*
X150939619Y-108324666D01*
X150901523Y-108248476D01*
X150901523Y-108172285D01*
X150939619Y-108096095D01*
X150977714Y-108058000D01*
X151053904Y-108019904D01*
X151244380Y-108019904D01*
X151358666Y-108058000D01*
X152120571Y-108819904D02*
X151663428Y-108819904D01*
X151892000Y-108819904D02*
X151892000Y-108019904D01*
X151815809Y-108134190D01*
X151739619Y-108210380D01*
X151663428Y-108248476D01*
X152387238Y-108019904D02*
X152920571Y-108019904D01*
X152577714Y-108819904D01*
X131026095Y-148913809D02*
X131140380Y-148951904D01*
X131330857Y-148951904D01*
X131407047Y-148913809D01*
X131445142Y-148875714D01*
X131483238Y-148799523D01*
X131483238Y-148723333D01*
X131445142Y-148647142D01*
X131407047Y-148609047D01*
X131330857Y-148570952D01*
X131178476Y-148532857D01*
X131102285Y-148494761D01*
X131064190Y-148456666D01*
X131026095Y-148380476D01*
X131026095Y-148304285D01*
X131064190Y-148228095D01*
X131102285Y-148190000D01*
X131178476Y-148151904D01*
X131368952Y-148151904D01*
X131483238Y-148190000D01*
X131978476Y-148151904D02*
X132054666Y-148151904D01*
X132130857Y-148190000D01*
X132168952Y-148228095D01*
X132207047Y-148304285D01*
X132245142Y-148456666D01*
X132245142Y-148647142D01*
X132207047Y-148799523D01*
X132168952Y-148875714D01*
X132130857Y-148913809D01*
X132054666Y-148951904D01*
X131978476Y-148951904D01*
X131902285Y-148913809D01*
X131864190Y-148875714D01*
X131826095Y-148799523D01*
X131788000Y-148647142D01*
X131788000Y-148456666D01*
X131826095Y-148304285D01*
X131864190Y-148228095D01*
X131902285Y-148190000D01*
X131978476Y-148151904D01*
X132968952Y-148151904D02*
X132588000Y-148151904D01*
X132549904Y-148532857D01*
X132588000Y-148494761D01*
X132664190Y-148456666D01*
X132854666Y-148456666D01*
X132930857Y-148494761D01*
X132968952Y-148532857D01*
X133007047Y-148609047D01*
X133007047Y-148799523D01*
X132968952Y-148875714D01*
X132930857Y-148913809D01*
X132854666Y-148951904D01*
X132664190Y-148951904D01*
X132588000Y-148913809D01*
X132549904Y-148875714D01*
X133349904Y-148951904D02*
X133349904Y-148418571D01*
X133349904Y-148151904D02*
X133311809Y-148190000D01*
X133349904Y-148228095D01*
X133388000Y-148190000D01*
X133349904Y-148151904D01*
X133349904Y-148228095D01*
X134111809Y-148151904D02*
X133730857Y-148151904D01*
X133692761Y-148532857D01*
X133730857Y-148494761D01*
X133807047Y-148456666D01*
X133997523Y-148456666D01*
X134073714Y-148494761D01*
X134111809Y-148532857D01*
X134149904Y-148609047D01*
X134149904Y-148799523D01*
X134111809Y-148875714D01*
X134073714Y-148913809D01*
X133997523Y-148951904D01*
X133807047Y-148951904D01*
X133730857Y-148913809D01*
X133692761Y-148875714D01*
X109753523Y-108781809D02*
X109867809Y-108819904D01*
X110058285Y-108819904D01*
X110134476Y-108781809D01*
X110172571Y-108743714D01*
X110210666Y-108667523D01*
X110210666Y-108591333D01*
X110172571Y-108515142D01*
X110134476Y-108477047D01*
X110058285Y-108438952D01*
X109905904Y-108400857D01*
X109829714Y-108362761D01*
X109791619Y-108324666D01*
X109753523Y-108248476D01*
X109753523Y-108172285D01*
X109791619Y-108096095D01*
X109829714Y-108058000D01*
X109905904Y-108019904D01*
X110096380Y-108019904D01*
X110210666Y-108058000D01*
X110972571Y-108819904D02*
X110515428Y-108819904D01*
X110744000Y-108819904D02*
X110744000Y-108019904D01*
X110667809Y-108134190D01*
X110591619Y-108210380D01*
X110515428Y-108248476D01*
X111734476Y-108819904D02*
X111277333Y-108819904D01*
X111505904Y-108819904D02*
X111505904Y-108019904D01*
X111429714Y-108134190D01*
X111353523Y-108210380D01*
X111277333Y-108248476D01*
X147853523Y-108781809D02*
X147967809Y-108819904D01*
X148158285Y-108819904D01*
X148234476Y-108781809D01*
X148272571Y-108743714D01*
X148310666Y-108667523D01*
X148310666Y-108591333D01*
X148272571Y-108515142D01*
X148234476Y-108477047D01*
X148158285Y-108438952D01*
X148005904Y-108400857D01*
X147929714Y-108362761D01*
X147891619Y-108324666D01*
X147853523Y-108248476D01*
X147853523Y-108172285D01*
X147891619Y-108096095D01*
X147929714Y-108058000D01*
X148005904Y-108019904D01*
X148196380Y-108019904D01*
X148310666Y-108058000D01*
X149072571Y-108819904D02*
X148615428Y-108819904D01*
X148844000Y-108819904D02*
X148844000Y-108019904D01*
X148767809Y-108134190D01*
X148691619Y-108210380D01*
X148615428Y-108248476D01*
X149758285Y-108019904D02*
X149605904Y-108019904D01*
X149529714Y-108058000D01*
X149491619Y-108096095D01*
X149415428Y-108210380D01*
X149377333Y-108362761D01*
X149377333Y-108667523D01*
X149415428Y-108743714D01*
X149453523Y-108781809D01*
X149529714Y-108819904D01*
X149682095Y-108819904D01*
X149758285Y-108781809D01*
X149796380Y-108743714D01*
X149834476Y-108667523D01*
X149834476Y-108477047D01*
X149796380Y-108400857D01*
X149758285Y-108362761D01*
X149682095Y-108324666D01*
X149529714Y-108324666D01*
X149453523Y-108362761D01*
X149415428Y-108400857D01*
X149377333Y-108477047D01*
X115024095Y-117925809D02*
X115138380Y-117963904D01*
X115328857Y-117963904D01*
X115405047Y-117925809D01*
X115443142Y-117887714D01*
X115481238Y-117811523D01*
X115481238Y-117735333D01*
X115443142Y-117659142D01*
X115405047Y-117621047D01*
X115328857Y-117582952D01*
X115176476Y-117544857D01*
X115100285Y-117506761D01*
X115062190Y-117468666D01*
X115024095Y-117392476D01*
X115024095Y-117316285D01*
X115062190Y-117240095D01*
X115100285Y-117202000D01*
X115176476Y-117163904D01*
X115366952Y-117163904D01*
X115481238Y-117202000D01*
X116243142Y-117963904D02*
X115786000Y-117963904D01*
X116014571Y-117963904D02*
X116014571Y-117163904D01*
X115938380Y-117278190D01*
X115862190Y-117354380D01*
X115786000Y-117392476D01*
X116624095Y-117963904D02*
X116776476Y-117963904D01*
X116852666Y-117925809D01*
X116890761Y-117887714D01*
X116966952Y-117773428D01*
X117005047Y-117621047D01*
X117005047Y-117316285D01*
X116966952Y-117240095D01*
X116928857Y-117202000D01*
X116852666Y-117163904D01*
X116700285Y-117163904D01*
X116624095Y-117202000D01*
X116586000Y-117240095D01*
X116547904Y-117316285D01*
X116547904Y-117506761D01*
X116586000Y-117582952D01*
X116624095Y-117621047D01*
X116700285Y-117659142D01*
X116852666Y-117659142D01*
X116928857Y-117621047D01*
X116966952Y-117582952D01*
X117005047Y-117506761D01*
X117347904Y-117963904D02*
X117347904Y-117430571D01*
X117347904Y-117163904D02*
X117309809Y-117202000D01*
X117347904Y-117240095D01*
X117386000Y-117202000D01*
X117347904Y-117163904D01*
X117347904Y-117240095D01*
X117652666Y-117163904D02*
X118147904Y-117163904D01*
X117881238Y-117468666D01*
X117995523Y-117468666D01*
X118071714Y-117506761D01*
X118109809Y-117544857D01*
X118147904Y-117621047D01*
X118147904Y-117811523D01*
X118109809Y-117887714D01*
X118071714Y-117925809D01*
X117995523Y-117963904D01*
X117766952Y-117963904D01*
X117690761Y-117925809D01*
X117652666Y-117887714D01*
X118700761Y-108527809D02*
X118815047Y-108565904D01*
X119005523Y-108565904D01*
X119081714Y-108527809D01*
X119119809Y-108489714D01*
X119157904Y-108413523D01*
X119157904Y-108337333D01*
X119119809Y-108261142D01*
X119081714Y-108223047D01*
X119005523Y-108184952D01*
X118853142Y-108146857D01*
X118776952Y-108108761D01*
X118738857Y-108070666D01*
X118700761Y-107994476D01*
X118700761Y-107918285D01*
X118738857Y-107842095D01*
X118776952Y-107804000D01*
X118853142Y-107765904D01*
X119043619Y-107765904D01*
X119157904Y-107804000D01*
X119919809Y-108565904D02*
X119462666Y-108565904D01*
X119691238Y-108565904D02*
X119691238Y-107765904D01*
X119615047Y-107880190D01*
X119538857Y-107956380D01*
X119462666Y-107994476D01*
X120186476Y-107765904D02*
X120681714Y-107765904D01*
X120415047Y-108070666D01*
X120529333Y-108070666D01*
X120605523Y-108108761D01*
X120643619Y-108146857D01*
X120681714Y-108223047D01*
X120681714Y-108413523D01*
X120643619Y-108489714D01*
X120605523Y-108527809D01*
X120529333Y-108565904D01*
X120300761Y-108565904D01*
X120224571Y-108527809D01*
X120186476Y-108489714D01*
X120948380Y-108565904D02*
X121367428Y-108032571D01*
X120948380Y-108032571D02*
X121367428Y-108565904D01*
X122053142Y-107765904D02*
X121672190Y-107765904D01*
X121634095Y-108146857D01*
X121672190Y-108108761D01*
X121748380Y-108070666D01*
X121938857Y-108070666D01*
X122015047Y-108108761D01*
X122053142Y-108146857D01*
X122091238Y-108223047D01*
X122091238Y-108413523D01*
X122053142Y-108489714D01*
X122015047Y-108527809D01*
X121938857Y-108565904D01*
X121748380Y-108565904D01*
X121672190Y-108527809D01*
X121634095Y-108489714D01*
X118834095Y-117925809D02*
X118948380Y-117963904D01*
X119138857Y-117963904D01*
X119215047Y-117925809D01*
X119253142Y-117887714D01*
X119291238Y-117811523D01*
X119291238Y-117735333D01*
X119253142Y-117659142D01*
X119215047Y-117621047D01*
X119138857Y-117582952D01*
X118986476Y-117544857D01*
X118910285Y-117506761D01*
X118872190Y-117468666D01*
X118834095Y-117392476D01*
X118834095Y-117316285D01*
X118872190Y-117240095D01*
X118910285Y-117202000D01*
X118986476Y-117163904D01*
X119176952Y-117163904D01*
X119291238Y-117202000D01*
X119596000Y-117240095D02*
X119634095Y-117202000D01*
X119710285Y-117163904D01*
X119900761Y-117163904D01*
X119976952Y-117202000D01*
X120015047Y-117240095D01*
X120053142Y-117316285D01*
X120053142Y-117392476D01*
X120015047Y-117506761D01*
X119557904Y-117963904D01*
X120053142Y-117963904D01*
X120548380Y-117163904D02*
X120624571Y-117163904D01*
X120700761Y-117202000D01*
X120738857Y-117240095D01*
X120776952Y-117316285D01*
X120815047Y-117468666D01*
X120815047Y-117659142D01*
X120776952Y-117811523D01*
X120738857Y-117887714D01*
X120700761Y-117925809D01*
X120624571Y-117963904D01*
X120548380Y-117963904D01*
X120472190Y-117925809D01*
X120434095Y-117887714D01*
X120396000Y-117811523D01*
X120357904Y-117659142D01*
X120357904Y-117468666D01*
X120396000Y-117316285D01*
X120434095Y-117240095D01*
X120472190Y-117202000D01*
X120548380Y-117163904D01*
X121157904Y-117963904D02*
X121157904Y-117430571D01*
X121157904Y-117163904D02*
X121119809Y-117202000D01*
X121157904Y-117240095D01*
X121196000Y-117202000D01*
X121157904Y-117163904D01*
X121157904Y-117240095D01*
X121881714Y-117163904D02*
X121729333Y-117163904D01*
X121653142Y-117202000D01*
X121615047Y-117240095D01*
X121538857Y-117354380D01*
X121500761Y-117506761D01*
X121500761Y-117811523D01*
X121538857Y-117887714D01*
X121576952Y-117925809D01*
X121653142Y-117963904D01*
X121805523Y-117963904D01*
X121881714Y-117925809D01*
X121919809Y-117887714D01*
X121957904Y-117811523D01*
X121957904Y-117621047D01*
X121919809Y-117544857D01*
X121881714Y-117506761D01*
X121805523Y-117468666D01*
X121653142Y-117468666D01*
X121576952Y-117506761D01*
X121538857Y-117544857D01*
X121500761Y-117621047D01*
X112801523Y-108527809D02*
X112915809Y-108565904D01*
X113106285Y-108565904D01*
X113182476Y-108527809D01*
X113220571Y-108489714D01*
X113258666Y-108413523D01*
X113258666Y-108337333D01*
X113220571Y-108261142D01*
X113182476Y-108223047D01*
X113106285Y-108184952D01*
X112953904Y-108146857D01*
X112877714Y-108108761D01*
X112839619Y-108070666D01*
X112801523Y-107994476D01*
X112801523Y-107918285D01*
X112839619Y-107842095D01*
X112877714Y-107804000D01*
X112953904Y-107765904D01*
X113144380Y-107765904D01*
X113258666Y-107804000D01*
X114020571Y-108565904D02*
X113563428Y-108565904D01*
X113792000Y-108565904D02*
X113792000Y-107765904D01*
X113715809Y-107880190D01*
X113639619Y-107956380D01*
X113563428Y-107994476D01*
X114325333Y-107842095D02*
X114363428Y-107804000D01*
X114439619Y-107765904D01*
X114630095Y-107765904D01*
X114706285Y-107804000D01*
X114744380Y-107842095D01*
X114782476Y-107918285D01*
X114782476Y-107994476D01*
X114744380Y-108108761D01*
X114287238Y-108565904D01*
X114782476Y-108565904D01*
X105334095Y-111067809D02*
X105448380Y-111105904D01*
X105638857Y-111105904D01*
X105715047Y-111067809D01*
X105753142Y-111029714D01*
X105791238Y-110953523D01*
X105791238Y-110877333D01*
X105753142Y-110801142D01*
X105715047Y-110763047D01*
X105638857Y-110724952D01*
X105486476Y-110686857D01*
X105410285Y-110648761D01*
X105372190Y-110610666D01*
X105334095Y-110534476D01*
X105334095Y-110458285D01*
X105372190Y-110382095D01*
X105410285Y-110344000D01*
X105486476Y-110305904D01*
X105676952Y-110305904D01*
X105791238Y-110344000D01*
X106019809Y-110305904D02*
X106476952Y-110305904D01*
X106248380Y-111105904D02*
X106248380Y-110305904D01*
X106743619Y-110801142D02*
X107353142Y-110801142D01*
X108115047Y-111105904D02*
X107734095Y-111105904D01*
X107734095Y-110305904D01*
X108381714Y-111105904D02*
X108381714Y-110305904D01*
X108762666Y-111105904D02*
X108762666Y-110305904D01*
X109219809Y-111105904D01*
X109219809Y-110305904D01*
X109600761Y-111105904D02*
X109600761Y-110305904D01*
X110057904Y-111105904D02*
X109715047Y-110648761D01*
X110057904Y-110305904D02*
X109600761Y-110763047D01*
X119615047Y-127196857D02*
X119348380Y-127196857D01*
X119348380Y-127615904D02*
X119348380Y-126815904D01*
X119729333Y-126815904D01*
X119919809Y-126815904D02*
X120376952Y-126815904D01*
X120148380Y-127615904D02*
X120148380Y-126815904D01*
X120643619Y-127615904D02*
X120643619Y-126815904D01*
X120834095Y-126815904D01*
X120948380Y-126854000D01*
X121024571Y-126930190D01*
X121062666Y-127006380D01*
X121100761Y-127158761D01*
X121100761Y-127273047D01*
X121062666Y-127425428D01*
X121024571Y-127501619D01*
X120948380Y-127577809D01*
X120834095Y-127615904D01*
X120643619Y-127615904D01*
X121443619Y-127615904D02*
X121443619Y-126815904D01*
X111118666Y-124567904D02*
X110852000Y-124186952D01*
X110661523Y-124567904D02*
X110661523Y-123767904D01*
X110966285Y-123767904D01*
X111042476Y-123806000D01*
X111080571Y-123844095D01*
X111118666Y-123920285D01*
X111118666Y-124034571D01*
X111080571Y-124110761D01*
X111042476Y-124148857D01*
X110966285Y-124186952D01*
X110661523Y-124186952D01*
X111385333Y-123767904D02*
X111880571Y-123767904D01*
X111613904Y-124072666D01*
X111728190Y-124072666D01*
X111804380Y-124110761D01*
X111842476Y-124148857D01*
X111880571Y-124225047D01*
X111880571Y-124415523D01*
X111842476Y-124491714D01*
X111804380Y-124529809D01*
X111728190Y-124567904D01*
X111499619Y-124567904D01*
X111423428Y-124529809D01*
X111385333Y-124491714D01*
X111118666Y-127107904D02*
X110852000Y-126726952D01*
X110661523Y-127107904D02*
X110661523Y-126307904D01*
X110966285Y-126307904D01*
X111042476Y-126346000D01*
X111080571Y-126384095D01*
X111118666Y-126460285D01*
X111118666Y-126574571D01*
X111080571Y-126650761D01*
X111042476Y-126688857D01*
X110966285Y-126726952D01*
X110661523Y-126726952D01*
X111804380Y-126574571D02*
X111804380Y-127107904D01*
X111613904Y-126269809D02*
X111423428Y-126841238D01*
X111918666Y-126841238D01*
X111118666Y-121867904D02*
X110852000Y-121486952D01*
X110661523Y-121867904D02*
X110661523Y-121067904D01*
X110966285Y-121067904D01*
X111042476Y-121106000D01*
X111080571Y-121144095D01*
X111118666Y-121220285D01*
X111118666Y-121334571D01*
X111080571Y-121410761D01*
X111042476Y-121448857D01*
X110966285Y-121486952D01*
X110661523Y-121486952D01*
X111842476Y-121067904D02*
X111461523Y-121067904D01*
X111423428Y-121448857D01*
X111461523Y-121410761D01*
X111537714Y-121372666D01*
X111728190Y-121372666D01*
X111804380Y-121410761D01*
X111842476Y-121448857D01*
X111880571Y-121525047D01*
X111880571Y-121715523D01*
X111842476Y-121791714D01*
X111804380Y-121829809D01*
X111728190Y-121867904D01*
X111537714Y-121867904D01*
X111461523Y-121829809D01*
X111423428Y-121791714D01*
X162629904Y-128282476D02*
X162629904Y-127825333D01*
X163429904Y-128053904D02*
X162629904Y-128053904D01*
X163429904Y-127101523D02*
X163048952Y-127368190D01*
X163429904Y-127558666D02*
X162629904Y-127558666D01*
X162629904Y-127253904D01*
X162668000Y-127177714D01*
X162706095Y-127139619D01*
X162782285Y-127101523D01*
X162896571Y-127101523D01*
X162972761Y-127139619D01*
X163010857Y-127177714D01*
X163048952Y-127253904D01*
X163048952Y-127558666D01*
X163201333Y-126796761D02*
X163201333Y-126415809D01*
X163429904Y-126872952D02*
X162629904Y-126606285D01*
X163429904Y-126339619D01*
X163353714Y-125615809D02*
X163391809Y-125653904D01*
X163429904Y-125768190D01*
X163429904Y-125844380D01*
X163391809Y-125958666D01*
X163315619Y-126034857D01*
X163239428Y-126072952D01*
X163087047Y-126111047D01*
X162972761Y-126111047D01*
X162820380Y-126072952D01*
X162744190Y-126034857D01*
X162668000Y-125958666D01*
X162629904Y-125844380D01*
X162629904Y-125768190D01*
X162668000Y-125653904D01*
X162706095Y-125615809D01*
X162629904Y-125120571D02*
X162629904Y-124968190D01*
X162668000Y-124892000D01*
X162744190Y-124815809D01*
X162896571Y-124777714D01*
X163163238Y-124777714D01*
X163315619Y-124815809D01*
X163391809Y-124892000D01*
X163429904Y-124968190D01*
X163429904Y-125120571D01*
X163391809Y-125196761D01*
X163315619Y-125272952D01*
X163163238Y-125311047D01*
X162896571Y-125311047D01*
X162744190Y-125272952D01*
X162668000Y-125196761D01*
X162629904Y-125120571D01*
X100006380Y-111575809D02*
X100120666Y-111613904D01*
X100311142Y-111613904D01*
X100387333Y-111575809D01*
X100425428Y-111537714D01*
X100463523Y-111461523D01*
X100463523Y-111385333D01*
X100425428Y-111309142D01*
X100387333Y-111271047D01*
X100311142Y-111232952D01*
X100158761Y-111194857D01*
X100082571Y-111156761D01*
X100044476Y-111118666D01*
X100006380Y-111042476D01*
X100006380Y-110966285D01*
X100044476Y-110890095D01*
X100082571Y-110852000D01*
X100158761Y-110813904D01*
X100349238Y-110813904D01*
X100463523Y-110852000D01*
X100806380Y-111194857D02*
X101073047Y-111194857D01*
X101187333Y-111613904D02*
X100806380Y-111613904D01*
X100806380Y-110813904D01*
X101187333Y-110813904D01*
X101987333Y-111613904D02*
X101720666Y-111232952D01*
X101530190Y-111613904D02*
X101530190Y-110813904D01*
X101834952Y-110813904D01*
X101911142Y-110852000D01*
X101949238Y-110890095D01*
X101987333Y-110966285D01*
X101987333Y-111080571D01*
X101949238Y-111156761D01*
X101911142Y-111194857D01*
X101834952Y-111232952D01*
X101530190Y-111232952D01*
X102330190Y-111613904D02*
X102330190Y-110813904D01*
X102673047Y-111385333D02*
X103054000Y-111385333D01*
X102596857Y-111613904D02*
X102863523Y-110813904D01*
X103130190Y-111613904D01*
X103777809Y-111613904D02*
X103396857Y-111613904D01*
X103396857Y-110813904D01*
X123355142Y-148443904D02*
X123088476Y-148062952D01*
X122898000Y-148443904D02*
X122898000Y-147643904D01*
X123202761Y-147643904D01*
X123278952Y-147682000D01*
X123317047Y-147720095D01*
X123355142Y-147796285D01*
X123355142Y-147910571D01*
X123317047Y-147986761D01*
X123278952Y-148024857D01*
X123202761Y-148062952D01*
X122898000Y-148062952D01*
X123698000Y-148443904D02*
X123698000Y-147643904D01*
X124002761Y-147643904D01*
X124078952Y-147682000D01*
X124117047Y-147720095D01*
X124155142Y-147796285D01*
X124155142Y-147910571D01*
X124117047Y-147986761D01*
X124078952Y-148024857D01*
X124002761Y-148062952D01*
X123698000Y-148062952D01*
X124498000Y-148443904D02*
X124498000Y-147643904D01*
X111118666Y-129647904D02*
X110852000Y-129266952D01*
X110661523Y-129647904D02*
X110661523Y-128847904D01*
X110966285Y-128847904D01*
X111042476Y-128886000D01*
X111080571Y-128924095D01*
X111118666Y-129000285D01*
X111118666Y-129114571D01*
X111080571Y-129190761D01*
X111042476Y-129228857D01*
X110966285Y-129266952D01*
X110661523Y-129266952D01*
X111575809Y-129190761D02*
X111499619Y-129152666D01*
X111461523Y-129114571D01*
X111423428Y-129038380D01*
X111423428Y-129000285D01*
X111461523Y-128924095D01*
X111499619Y-128886000D01*
X111575809Y-128847904D01*
X111728190Y-128847904D01*
X111804380Y-128886000D01*
X111842476Y-128924095D01*
X111880571Y-129000285D01*
X111880571Y-129038380D01*
X111842476Y-129114571D01*
X111804380Y-129152666D01*
X111728190Y-129190761D01*
X111575809Y-129190761D01*
X111499619Y-129228857D01*
X111461523Y-129266952D01*
X111423428Y-129343142D01*
X111423428Y-129495523D01*
X111461523Y-129571714D01*
X111499619Y-129609809D01*
X111575809Y-129647904D01*
X111728190Y-129647904D01*
X111804380Y-129609809D01*
X111842476Y-129571714D01*
X111880571Y-129495523D01*
X111880571Y-129343142D01*
X111842476Y-129266952D01*
X111804380Y-129228857D01*
X111728190Y-129190761D01*
D10*
D11*
X116757523Y-125837904D02*
X116757523Y-125037904D01*
X116948000Y-125037904D01*
X117062285Y-125076000D01*
X117138476Y-125152190D01*
X117176571Y-125228380D01*
X117214666Y-125380761D01*
X117214666Y-125495047D01*
X117176571Y-125647428D01*
X117138476Y-125723619D01*
X117062285Y-125799809D01*
X116948000Y-125837904D01*
X116757523Y-125837904D01*
X117519428Y-125114095D02*
X117557523Y-125076000D01*
X117633714Y-125037904D01*
X117824190Y-125037904D01*
X117900380Y-125076000D01*
X117938476Y-125114095D01*
X117976571Y-125190285D01*
X117976571Y-125266476D01*
X117938476Y-125380761D01*
X117481333Y-125837904D01*
X117976571Y-125837904D01*
X116757523Y-128377904D02*
X116757523Y-127577904D01*
X116948000Y-127577904D01*
X117062285Y-127616000D01*
X117138476Y-127692190D01*
X117176571Y-127768380D01*
X117214666Y-127920761D01*
X117214666Y-128035047D01*
X117176571Y-128187428D01*
X117138476Y-128263619D01*
X117062285Y-128339809D01*
X116948000Y-128377904D01*
X116757523Y-128377904D01*
X117481333Y-127577904D02*
X117976571Y-127577904D01*
X117709904Y-127882666D01*
X117824190Y-127882666D01*
X117900380Y-127920761D01*
X117938476Y-127958857D01*
X117976571Y-128035047D01*
X117976571Y-128225523D01*
X117938476Y-128301714D01*
X117900380Y-128339809D01*
X117824190Y-128377904D01*
X117595619Y-128377904D01*
X117519428Y-128339809D01*
X117481333Y-128301714D01*
X116757523Y-123297904D02*
X116757523Y-122497904D01*
X116948000Y-122497904D01*
X117062285Y-122536000D01*
X117138476Y-122612190D01*
X117176571Y-122688380D01*
X117214666Y-122840761D01*
X117214666Y-122955047D01*
X117176571Y-123107428D01*
X117138476Y-123183619D01*
X117062285Y-123259809D01*
X116948000Y-123297904D01*
X116757523Y-123297904D01*
X117976571Y-123297904D02*
X117519428Y-123297904D01*
X117748000Y-123297904D02*
X117748000Y-122497904D01*
X117671809Y-122612190D01*
X117595619Y-122688380D01*
X117519428Y-122726476D01*
X116757523Y-130917904D02*
X116757523Y-130117904D01*
X116948000Y-130117904D01*
X117062285Y-130156000D01*
X117138476Y-130232190D01*
X117176571Y-130308380D01*
X117214666Y-130460761D01*
X117214666Y-130575047D01*
X117176571Y-130727428D01*
X117138476Y-130803619D01*
X117062285Y-130879809D01*
X116948000Y-130917904D01*
X116757523Y-130917904D01*
X117900380Y-130384571D02*
X117900380Y-130917904D01*
X117709904Y-130079809D02*
X117519428Y-130651238D01*
X118014666Y-130651238D01*
X163645904Y-109010285D02*
X164445904Y-108743619D01*
X163645904Y-108476952D01*
X164026857Y-107943619D02*
X164064952Y-107829333D01*
X164103047Y-107791238D01*
X164179238Y-107753142D01*
X164293523Y-107753142D01*
X164369714Y-107791238D01*
X164407809Y-107829333D01*
X164445904Y-107905523D01*
X164445904Y-108210285D01*
X163645904Y-108210285D01*
X163645904Y-107943619D01*
X163684000Y-107867428D01*
X163722095Y-107829333D01*
X163798285Y-107791238D01*
X163874476Y-107791238D01*
X163950666Y-107829333D01*
X163988761Y-107867428D01*
X164026857Y-107943619D01*
X164026857Y-108210285D01*
X164217333Y-107448380D02*
X164217333Y-107067428D01*
X164445904Y-107524571D02*
X163645904Y-107257904D01*
X164445904Y-106991238D01*
X163645904Y-106838857D02*
X163645904Y-106381714D01*
X164445904Y-106610285D02*
X163645904Y-106610285D01*
X99955619Y-125799904D02*
X99955619Y-126447523D01*
X99993714Y-126523714D01*
X100031809Y-126561809D01*
X100108000Y-126599904D01*
X100260380Y-126599904D01*
X100336571Y-126561809D01*
X100374666Y-126523714D01*
X100412761Y-126447523D01*
X100412761Y-125799904D01*
X100755619Y-126561809D02*
X100869904Y-126599904D01*
X101060380Y-126599904D01*
X101136571Y-126561809D01*
X101174666Y-126523714D01*
X101212761Y-126447523D01*
X101212761Y-126371333D01*
X101174666Y-126295142D01*
X101136571Y-126257047D01*
X101060380Y-126218952D01*
X100908000Y-126180857D01*
X100831809Y-126142761D01*
X100793714Y-126104666D01*
X100755619Y-126028476D01*
X100755619Y-125952285D01*
X100793714Y-125876095D01*
X100831809Y-125838000D01*
X100908000Y-125799904D01*
X101098476Y-125799904D01*
X101212761Y-125838000D01*
X102012761Y-126599904D02*
X101746095Y-126218952D01*
X101555619Y-126599904D02*
X101555619Y-125799904D01*
X101860380Y-125799904D01*
X101936571Y-125838000D01*
X101974666Y-125876095D01*
X102012761Y-125952285D01*
X102012761Y-126066571D01*
X101974666Y-126142761D01*
X101936571Y-126180857D01*
X101860380Y-126218952D01*
X101555619Y-126218952D01*
X102165142Y-126676095D02*
X102774666Y-126676095D01*
X102927047Y-126561809D02*
X103041333Y-126599904D01*
X103231809Y-126599904D01*
X103308000Y-126561809D01*
X103346095Y-126523714D01*
X103384190Y-126447523D01*
X103384190Y-126371333D01*
X103346095Y-126295142D01*
X103308000Y-126257047D01*
X103231809Y-126218952D01*
X103079428Y-126180857D01*
X103003238Y-126142761D01*
X102965142Y-126104666D01*
X102927047Y-126028476D01*
X102927047Y-125952285D01*
X102965142Y-125876095D01*
X103003238Y-125838000D01*
X103079428Y-125799904D01*
X103269904Y-125799904D01*
X103384190Y-125838000D01*
X103650857Y-125799904D02*
X103841333Y-126599904D01*
X103993714Y-126028476D01*
X104146095Y-126599904D01*
X104336571Y-125799904D01*
X143199047Y-140569904D02*
X142932380Y-140188952D01*
X142741904Y-140569904D02*
X142741904Y-139769904D01*
X143046666Y-139769904D01*
X143122857Y-139808000D01*
X143160952Y-139846095D01*
X143199047Y-139922285D01*
X143199047Y-140036571D01*
X143160952Y-140112761D01*
X143122857Y-140150857D01*
X143046666Y-140188952D01*
X142741904Y-140188952D01*
X143503809Y-140531809D02*
X143618095Y-140569904D01*
X143808571Y-140569904D01*
X143884761Y-140531809D01*
X143922857Y-140493714D01*
X143960952Y-140417523D01*
X143960952Y-140341333D01*
X143922857Y-140265142D01*
X143884761Y-140227047D01*
X143808571Y-140188952D01*
X143656190Y-140150857D01*
X143580000Y-140112761D01*
X143541904Y-140074666D01*
X143503809Y-139998476D01*
X143503809Y-139922285D01*
X143541904Y-139846095D01*
X143580000Y-139808000D01*
X143656190Y-139769904D01*
X143846666Y-139769904D01*
X143960952Y-139808000D01*
X144189523Y-139769904D02*
X144646666Y-139769904D01*
X144418095Y-140569904D02*
X144418095Y-139769904D01*
X144722857Y-140646095D02*
X145332380Y-140646095D01*
X145484761Y-140531809D02*
X145599047Y-140569904D01*
X145789523Y-140569904D01*
X145865714Y-140531809D01*
X145903809Y-140493714D01*
X145941904Y-140417523D01*
X145941904Y-140341333D01*
X145903809Y-140265142D01*
X145865714Y-140227047D01*
X145789523Y-140188952D01*
X145637142Y-140150857D01*
X145560952Y-140112761D01*
X145522857Y-140074666D01*
X145484761Y-139998476D01*
X145484761Y-139922285D01*
X145522857Y-139846095D01*
X145560952Y-139808000D01*
X145637142Y-139769904D01*
X145827619Y-139769904D01*
X145941904Y-139808000D01*
X146208571Y-139769904D02*
X146399047Y-140569904D01*
X146551428Y-139998476D01*
X146703809Y-140569904D01*
X146894285Y-139769904D01*
M02*
