G04 #@! TF.GenerationSoftware,KiCad,Pcbnew,(5.1.0)-1*
G04 #@! TF.CreationDate,2019-04-21T19:35:09+02:00*
G04 #@! TF.ProjectId,RM Board03,524d2042-6f61-4726-9430-332e6b696361,rev?*
G04 #@! TF.SameCoordinates,Original*
G04 #@! TF.FileFunction,Paste,Top*
G04 #@! TF.FilePolarity,Positive*
%FSLAX46Y46*%
G04 Gerber Fmt 4.6, Leading zero omitted, Abs format (unit mm)*
G04 Created by KiCad (PCBNEW (5.1.0)-1) date 2019-04-21 19:35:09*
%MOMM*%
%LPD*%
G04 APERTURE LIST*
%ADD10C,0.150000*%
%ADD11C,1.600000*%
%ADD12C,0.875000*%
%ADD13C,0.975000*%
G04 APERTURE END LIST*
D10*
X99314000Y-118872000D02*
X99314000Y-98806000D01*
X98806000Y-119634000D02*
X99314000Y-118872000D01*
X98806000Y-155702000D02*
X98806000Y-119634000D01*
X164846000Y-155702000D02*
X98806000Y-155702000D01*
X164846000Y-98806000D02*
X164846000Y-155702000D01*
X99314000Y-98806000D02*
X164846000Y-98806000D01*
G36*
X163486504Y-116041204D02*
G01*
X163510773Y-116044804D01*
X163534571Y-116050765D01*
X163557671Y-116059030D01*
X163579849Y-116069520D01*
X163600893Y-116082133D01*
X163620598Y-116096747D01*
X163638777Y-116113223D01*
X163655253Y-116131402D01*
X163669867Y-116151107D01*
X163682480Y-116172151D01*
X163692970Y-116194329D01*
X163701235Y-116217429D01*
X163707196Y-116241227D01*
X163710796Y-116265496D01*
X163712000Y-116290000D01*
X163712000Y-117390000D01*
X163710796Y-117414504D01*
X163707196Y-117438773D01*
X163701235Y-117462571D01*
X163692970Y-117485671D01*
X163682480Y-117507849D01*
X163669867Y-117528893D01*
X163655253Y-117548598D01*
X163638777Y-117566777D01*
X163620598Y-117583253D01*
X163600893Y-117597867D01*
X163579849Y-117610480D01*
X163557671Y-117620970D01*
X163534571Y-117629235D01*
X163510773Y-117635196D01*
X163486504Y-117638796D01*
X163462000Y-117640000D01*
X160637000Y-117640000D01*
X160612496Y-117638796D01*
X160588227Y-117635196D01*
X160564429Y-117629235D01*
X160541329Y-117620970D01*
X160519151Y-117610480D01*
X160498107Y-117597867D01*
X160478402Y-117583253D01*
X160460223Y-117566777D01*
X160443747Y-117548598D01*
X160429133Y-117528893D01*
X160416520Y-117507849D01*
X160406030Y-117485671D01*
X160397765Y-117462571D01*
X160391804Y-117438773D01*
X160388204Y-117414504D01*
X160387000Y-117390000D01*
X160387000Y-116290000D01*
X160388204Y-116265496D01*
X160391804Y-116241227D01*
X160397765Y-116217429D01*
X160406030Y-116194329D01*
X160416520Y-116172151D01*
X160429133Y-116151107D01*
X160443747Y-116131402D01*
X160460223Y-116113223D01*
X160478402Y-116096747D01*
X160498107Y-116082133D01*
X160519151Y-116069520D01*
X160541329Y-116059030D01*
X160564429Y-116050765D01*
X160588227Y-116044804D01*
X160612496Y-116041204D01*
X160637000Y-116040000D01*
X163462000Y-116040000D01*
X163486504Y-116041204D01*
X163486504Y-116041204D01*
G37*
D11*
X162049500Y-116840000D03*
D10*
G36*
X158411504Y-116041204D02*
G01*
X158435773Y-116044804D01*
X158459571Y-116050765D01*
X158482671Y-116059030D01*
X158504849Y-116069520D01*
X158525893Y-116082133D01*
X158545598Y-116096747D01*
X158563777Y-116113223D01*
X158580253Y-116131402D01*
X158594867Y-116151107D01*
X158607480Y-116172151D01*
X158617970Y-116194329D01*
X158626235Y-116217429D01*
X158632196Y-116241227D01*
X158635796Y-116265496D01*
X158637000Y-116290000D01*
X158637000Y-117390000D01*
X158635796Y-117414504D01*
X158632196Y-117438773D01*
X158626235Y-117462571D01*
X158617970Y-117485671D01*
X158607480Y-117507849D01*
X158594867Y-117528893D01*
X158580253Y-117548598D01*
X158563777Y-117566777D01*
X158545598Y-117583253D01*
X158525893Y-117597867D01*
X158504849Y-117610480D01*
X158482671Y-117620970D01*
X158459571Y-117629235D01*
X158435773Y-117635196D01*
X158411504Y-117638796D01*
X158387000Y-117640000D01*
X155562000Y-117640000D01*
X155537496Y-117638796D01*
X155513227Y-117635196D01*
X155489429Y-117629235D01*
X155466329Y-117620970D01*
X155444151Y-117610480D01*
X155423107Y-117597867D01*
X155403402Y-117583253D01*
X155385223Y-117566777D01*
X155368747Y-117548598D01*
X155354133Y-117528893D01*
X155341520Y-117507849D01*
X155331030Y-117485671D01*
X155322765Y-117462571D01*
X155316804Y-117438773D01*
X155313204Y-117414504D01*
X155312000Y-117390000D01*
X155312000Y-116290000D01*
X155313204Y-116265496D01*
X155316804Y-116241227D01*
X155322765Y-116217429D01*
X155331030Y-116194329D01*
X155341520Y-116172151D01*
X155354133Y-116151107D01*
X155368747Y-116131402D01*
X155385223Y-116113223D01*
X155403402Y-116096747D01*
X155423107Y-116082133D01*
X155444151Y-116069520D01*
X155466329Y-116059030D01*
X155489429Y-116050765D01*
X155513227Y-116044804D01*
X155537496Y-116041204D01*
X155562000Y-116040000D01*
X158387000Y-116040000D01*
X158411504Y-116041204D01*
X158411504Y-116041204D01*
G37*
D11*
X156974500Y-116840000D03*
D10*
G36*
X163486504Y-131789204D02*
G01*
X163510773Y-131792804D01*
X163534571Y-131798765D01*
X163557671Y-131807030D01*
X163579849Y-131817520D01*
X163600893Y-131830133D01*
X163620598Y-131844747D01*
X163638777Y-131861223D01*
X163655253Y-131879402D01*
X163669867Y-131899107D01*
X163682480Y-131920151D01*
X163692970Y-131942329D01*
X163701235Y-131965429D01*
X163707196Y-131989227D01*
X163710796Y-132013496D01*
X163712000Y-132038000D01*
X163712000Y-133138000D01*
X163710796Y-133162504D01*
X163707196Y-133186773D01*
X163701235Y-133210571D01*
X163692970Y-133233671D01*
X163682480Y-133255849D01*
X163669867Y-133276893D01*
X163655253Y-133296598D01*
X163638777Y-133314777D01*
X163620598Y-133331253D01*
X163600893Y-133345867D01*
X163579849Y-133358480D01*
X163557671Y-133368970D01*
X163534571Y-133377235D01*
X163510773Y-133383196D01*
X163486504Y-133386796D01*
X163462000Y-133388000D01*
X160637000Y-133388000D01*
X160612496Y-133386796D01*
X160588227Y-133383196D01*
X160564429Y-133377235D01*
X160541329Y-133368970D01*
X160519151Y-133358480D01*
X160498107Y-133345867D01*
X160478402Y-133331253D01*
X160460223Y-133314777D01*
X160443747Y-133296598D01*
X160429133Y-133276893D01*
X160416520Y-133255849D01*
X160406030Y-133233671D01*
X160397765Y-133210571D01*
X160391804Y-133186773D01*
X160388204Y-133162504D01*
X160387000Y-133138000D01*
X160387000Y-132038000D01*
X160388204Y-132013496D01*
X160391804Y-131989227D01*
X160397765Y-131965429D01*
X160406030Y-131942329D01*
X160416520Y-131920151D01*
X160429133Y-131899107D01*
X160443747Y-131879402D01*
X160460223Y-131861223D01*
X160478402Y-131844747D01*
X160498107Y-131830133D01*
X160519151Y-131817520D01*
X160541329Y-131807030D01*
X160564429Y-131798765D01*
X160588227Y-131792804D01*
X160612496Y-131789204D01*
X160637000Y-131788000D01*
X163462000Y-131788000D01*
X163486504Y-131789204D01*
X163486504Y-131789204D01*
G37*
D11*
X162049500Y-132588000D03*
D10*
G36*
X158411504Y-131789204D02*
G01*
X158435773Y-131792804D01*
X158459571Y-131798765D01*
X158482671Y-131807030D01*
X158504849Y-131817520D01*
X158525893Y-131830133D01*
X158545598Y-131844747D01*
X158563777Y-131861223D01*
X158580253Y-131879402D01*
X158594867Y-131899107D01*
X158607480Y-131920151D01*
X158617970Y-131942329D01*
X158626235Y-131965429D01*
X158632196Y-131989227D01*
X158635796Y-132013496D01*
X158637000Y-132038000D01*
X158637000Y-133138000D01*
X158635796Y-133162504D01*
X158632196Y-133186773D01*
X158626235Y-133210571D01*
X158617970Y-133233671D01*
X158607480Y-133255849D01*
X158594867Y-133276893D01*
X158580253Y-133296598D01*
X158563777Y-133314777D01*
X158545598Y-133331253D01*
X158525893Y-133345867D01*
X158504849Y-133358480D01*
X158482671Y-133368970D01*
X158459571Y-133377235D01*
X158435773Y-133383196D01*
X158411504Y-133386796D01*
X158387000Y-133388000D01*
X155562000Y-133388000D01*
X155537496Y-133386796D01*
X155513227Y-133383196D01*
X155489429Y-133377235D01*
X155466329Y-133368970D01*
X155444151Y-133358480D01*
X155423107Y-133345867D01*
X155403402Y-133331253D01*
X155385223Y-133314777D01*
X155368747Y-133296598D01*
X155354133Y-133276893D01*
X155341520Y-133255849D01*
X155331030Y-133233671D01*
X155322765Y-133210571D01*
X155316804Y-133186773D01*
X155313204Y-133162504D01*
X155312000Y-133138000D01*
X155312000Y-132038000D01*
X155313204Y-132013496D01*
X155316804Y-131989227D01*
X155322765Y-131965429D01*
X155331030Y-131942329D01*
X155341520Y-131920151D01*
X155354133Y-131899107D01*
X155368747Y-131879402D01*
X155385223Y-131861223D01*
X155403402Y-131844747D01*
X155423107Y-131830133D01*
X155444151Y-131817520D01*
X155466329Y-131807030D01*
X155489429Y-131798765D01*
X155513227Y-131792804D01*
X155537496Y-131789204D01*
X155562000Y-131788000D01*
X158387000Y-131788000D01*
X158411504Y-131789204D01*
X158411504Y-131789204D01*
G37*
D11*
X156974500Y-132588000D03*
D10*
G36*
X112279691Y-125002053D02*
G01*
X112300926Y-125005203D01*
X112321750Y-125010419D01*
X112341962Y-125017651D01*
X112361368Y-125026830D01*
X112379781Y-125037866D01*
X112397024Y-125050654D01*
X112412930Y-125065070D01*
X112427346Y-125080976D01*
X112440134Y-125098219D01*
X112451170Y-125116632D01*
X112460349Y-125136038D01*
X112467581Y-125156250D01*
X112472797Y-125177074D01*
X112475947Y-125198309D01*
X112477000Y-125219750D01*
X112477000Y-125732250D01*
X112475947Y-125753691D01*
X112472797Y-125774926D01*
X112467581Y-125795750D01*
X112460349Y-125815962D01*
X112451170Y-125835368D01*
X112440134Y-125853781D01*
X112427346Y-125871024D01*
X112412930Y-125886930D01*
X112397024Y-125901346D01*
X112379781Y-125914134D01*
X112361368Y-125925170D01*
X112341962Y-125934349D01*
X112321750Y-125941581D01*
X112300926Y-125946797D01*
X112279691Y-125949947D01*
X112258250Y-125951000D01*
X111820750Y-125951000D01*
X111799309Y-125949947D01*
X111778074Y-125946797D01*
X111757250Y-125941581D01*
X111737038Y-125934349D01*
X111717632Y-125925170D01*
X111699219Y-125914134D01*
X111681976Y-125901346D01*
X111666070Y-125886930D01*
X111651654Y-125871024D01*
X111638866Y-125853781D01*
X111627830Y-125835368D01*
X111618651Y-125815962D01*
X111611419Y-125795750D01*
X111606203Y-125774926D01*
X111603053Y-125753691D01*
X111602000Y-125732250D01*
X111602000Y-125219750D01*
X111603053Y-125198309D01*
X111606203Y-125177074D01*
X111611419Y-125156250D01*
X111618651Y-125136038D01*
X111627830Y-125116632D01*
X111638866Y-125098219D01*
X111651654Y-125080976D01*
X111666070Y-125065070D01*
X111681976Y-125050654D01*
X111699219Y-125037866D01*
X111717632Y-125026830D01*
X111737038Y-125017651D01*
X111757250Y-125010419D01*
X111778074Y-125005203D01*
X111799309Y-125002053D01*
X111820750Y-125001000D01*
X112258250Y-125001000D01*
X112279691Y-125002053D01*
X112279691Y-125002053D01*
G37*
D12*
X112039500Y-125476000D03*
D10*
G36*
X110704691Y-125002053D02*
G01*
X110725926Y-125005203D01*
X110746750Y-125010419D01*
X110766962Y-125017651D01*
X110786368Y-125026830D01*
X110804781Y-125037866D01*
X110822024Y-125050654D01*
X110837930Y-125065070D01*
X110852346Y-125080976D01*
X110865134Y-125098219D01*
X110876170Y-125116632D01*
X110885349Y-125136038D01*
X110892581Y-125156250D01*
X110897797Y-125177074D01*
X110900947Y-125198309D01*
X110902000Y-125219750D01*
X110902000Y-125732250D01*
X110900947Y-125753691D01*
X110897797Y-125774926D01*
X110892581Y-125795750D01*
X110885349Y-125815962D01*
X110876170Y-125835368D01*
X110865134Y-125853781D01*
X110852346Y-125871024D01*
X110837930Y-125886930D01*
X110822024Y-125901346D01*
X110804781Y-125914134D01*
X110786368Y-125925170D01*
X110766962Y-125934349D01*
X110746750Y-125941581D01*
X110725926Y-125946797D01*
X110704691Y-125949947D01*
X110683250Y-125951000D01*
X110245750Y-125951000D01*
X110224309Y-125949947D01*
X110203074Y-125946797D01*
X110182250Y-125941581D01*
X110162038Y-125934349D01*
X110142632Y-125925170D01*
X110124219Y-125914134D01*
X110106976Y-125901346D01*
X110091070Y-125886930D01*
X110076654Y-125871024D01*
X110063866Y-125853781D01*
X110052830Y-125835368D01*
X110043651Y-125815962D01*
X110036419Y-125795750D01*
X110031203Y-125774926D01*
X110028053Y-125753691D01*
X110027000Y-125732250D01*
X110027000Y-125219750D01*
X110028053Y-125198309D01*
X110031203Y-125177074D01*
X110036419Y-125156250D01*
X110043651Y-125136038D01*
X110052830Y-125116632D01*
X110063866Y-125098219D01*
X110076654Y-125080976D01*
X110091070Y-125065070D01*
X110106976Y-125050654D01*
X110124219Y-125037866D01*
X110142632Y-125026830D01*
X110162038Y-125017651D01*
X110182250Y-125010419D01*
X110203074Y-125005203D01*
X110224309Y-125002053D01*
X110245750Y-125001000D01*
X110683250Y-125001000D01*
X110704691Y-125002053D01*
X110704691Y-125002053D01*
G37*
D12*
X110464500Y-125476000D03*
D10*
G36*
X112279691Y-127542053D02*
G01*
X112300926Y-127545203D01*
X112321750Y-127550419D01*
X112341962Y-127557651D01*
X112361368Y-127566830D01*
X112379781Y-127577866D01*
X112397024Y-127590654D01*
X112412930Y-127605070D01*
X112427346Y-127620976D01*
X112440134Y-127638219D01*
X112451170Y-127656632D01*
X112460349Y-127676038D01*
X112467581Y-127696250D01*
X112472797Y-127717074D01*
X112475947Y-127738309D01*
X112477000Y-127759750D01*
X112477000Y-128272250D01*
X112475947Y-128293691D01*
X112472797Y-128314926D01*
X112467581Y-128335750D01*
X112460349Y-128355962D01*
X112451170Y-128375368D01*
X112440134Y-128393781D01*
X112427346Y-128411024D01*
X112412930Y-128426930D01*
X112397024Y-128441346D01*
X112379781Y-128454134D01*
X112361368Y-128465170D01*
X112341962Y-128474349D01*
X112321750Y-128481581D01*
X112300926Y-128486797D01*
X112279691Y-128489947D01*
X112258250Y-128491000D01*
X111820750Y-128491000D01*
X111799309Y-128489947D01*
X111778074Y-128486797D01*
X111757250Y-128481581D01*
X111737038Y-128474349D01*
X111717632Y-128465170D01*
X111699219Y-128454134D01*
X111681976Y-128441346D01*
X111666070Y-128426930D01*
X111651654Y-128411024D01*
X111638866Y-128393781D01*
X111627830Y-128375368D01*
X111618651Y-128355962D01*
X111611419Y-128335750D01*
X111606203Y-128314926D01*
X111603053Y-128293691D01*
X111602000Y-128272250D01*
X111602000Y-127759750D01*
X111603053Y-127738309D01*
X111606203Y-127717074D01*
X111611419Y-127696250D01*
X111618651Y-127676038D01*
X111627830Y-127656632D01*
X111638866Y-127638219D01*
X111651654Y-127620976D01*
X111666070Y-127605070D01*
X111681976Y-127590654D01*
X111699219Y-127577866D01*
X111717632Y-127566830D01*
X111737038Y-127557651D01*
X111757250Y-127550419D01*
X111778074Y-127545203D01*
X111799309Y-127542053D01*
X111820750Y-127541000D01*
X112258250Y-127541000D01*
X112279691Y-127542053D01*
X112279691Y-127542053D01*
G37*
D12*
X112039500Y-128016000D03*
D10*
G36*
X110704691Y-127542053D02*
G01*
X110725926Y-127545203D01*
X110746750Y-127550419D01*
X110766962Y-127557651D01*
X110786368Y-127566830D01*
X110804781Y-127577866D01*
X110822024Y-127590654D01*
X110837930Y-127605070D01*
X110852346Y-127620976D01*
X110865134Y-127638219D01*
X110876170Y-127656632D01*
X110885349Y-127676038D01*
X110892581Y-127696250D01*
X110897797Y-127717074D01*
X110900947Y-127738309D01*
X110902000Y-127759750D01*
X110902000Y-128272250D01*
X110900947Y-128293691D01*
X110897797Y-128314926D01*
X110892581Y-128335750D01*
X110885349Y-128355962D01*
X110876170Y-128375368D01*
X110865134Y-128393781D01*
X110852346Y-128411024D01*
X110837930Y-128426930D01*
X110822024Y-128441346D01*
X110804781Y-128454134D01*
X110786368Y-128465170D01*
X110766962Y-128474349D01*
X110746750Y-128481581D01*
X110725926Y-128486797D01*
X110704691Y-128489947D01*
X110683250Y-128491000D01*
X110245750Y-128491000D01*
X110224309Y-128489947D01*
X110203074Y-128486797D01*
X110182250Y-128481581D01*
X110162038Y-128474349D01*
X110142632Y-128465170D01*
X110124219Y-128454134D01*
X110106976Y-128441346D01*
X110091070Y-128426930D01*
X110076654Y-128411024D01*
X110063866Y-128393781D01*
X110052830Y-128375368D01*
X110043651Y-128355962D01*
X110036419Y-128335750D01*
X110031203Y-128314926D01*
X110028053Y-128293691D01*
X110027000Y-128272250D01*
X110027000Y-127759750D01*
X110028053Y-127738309D01*
X110031203Y-127717074D01*
X110036419Y-127696250D01*
X110043651Y-127676038D01*
X110052830Y-127656632D01*
X110063866Y-127638219D01*
X110076654Y-127620976D01*
X110091070Y-127605070D01*
X110106976Y-127590654D01*
X110124219Y-127577866D01*
X110142632Y-127566830D01*
X110162038Y-127557651D01*
X110182250Y-127550419D01*
X110203074Y-127545203D01*
X110224309Y-127542053D01*
X110245750Y-127541000D01*
X110683250Y-127541000D01*
X110704691Y-127542053D01*
X110704691Y-127542053D01*
G37*
D12*
X110464500Y-128016000D03*
D10*
G36*
X112279691Y-122462053D02*
G01*
X112300926Y-122465203D01*
X112321750Y-122470419D01*
X112341962Y-122477651D01*
X112361368Y-122486830D01*
X112379781Y-122497866D01*
X112397024Y-122510654D01*
X112412930Y-122525070D01*
X112427346Y-122540976D01*
X112440134Y-122558219D01*
X112451170Y-122576632D01*
X112460349Y-122596038D01*
X112467581Y-122616250D01*
X112472797Y-122637074D01*
X112475947Y-122658309D01*
X112477000Y-122679750D01*
X112477000Y-123192250D01*
X112475947Y-123213691D01*
X112472797Y-123234926D01*
X112467581Y-123255750D01*
X112460349Y-123275962D01*
X112451170Y-123295368D01*
X112440134Y-123313781D01*
X112427346Y-123331024D01*
X112412930Y-123346930D01*
X112397024Y-123361346D01*
X112379781Y-123374134D01*
X112361368Y-123385170D01*
X112341962Y-123394349D01*
X112321750Y-123401581D01*
X112300926Y-123406797D01*
X112279691Y-123409947D01*
X112258250Y-123411000D01*
X111820750Y-123411000D01*
X111799309Y-123409947D01*
X111778074Y-123406797D01*
X111757250Y-123401581D01*
X111737038Y-123394349D01*
X111717632Y-123385170D01*
X111699219Y-123374134D01*
X111681976Y-123361346D01*
X111666070Y-123346930D01*
X111651654Y-123331024D01*
X111638866Y-123313781D01*
X111627830Y-123295368D01*
X111618651Y-123275962D01*
X111611419Y-123255750D01*
X111606203Y-123234926D01*
X111603053Y-123213691D01*
X111602000Y-123192250D01*
X111602000Y-122679750D01*
X111603053Y-122658309D01*
X111606203Y-122637074D01*
X111611419Y-122616250D01*
X111618651Y-122596038D01*
X111627830Y-122576632D01*
X111638866Y-122558219D01*
X111651654Y-122540976D01*
X111666070Y-122525070D01*
X111681976Y-122510654D01*
X111699219Y-122497866D01*
X111717632Y-122486830D01*
X111737038Y-122477651D01*
X111757250Y-122470419D01*
X111778074Y-122465203D01*
X111799309Y-122462053D01*
X111820750Y-122461000D01*
X112258250Y-122461000D01*
X112279691Y-122462053D01*
X112279691Y-122462053D01*
G37*
D12*
X112039500Y-122936000D03*
D10*
G36*
X110704691Y-122462053D02*
G01*
X110725926Y-122465203D01*
X110746750Y-122470419D01*
X110766962Y-122477651D01*
X110786368Y-122486830D01*
X110804781Y-122497866D01*
X110822024Y-122510654D01*
X110837930Y-122525070D01*
X110852346Y-122540976D01*
X110865134Y-122558219D01*
X110876170Y-122576632D01*
X110885349Y-122596038D01*
X110892581Y-122616250D01*
X110897797Y-122637074D01*
X110900947Y-122658309D01*
X110902000Y-122679750D01*
X110902000Y-123192250D01*
X110900947Y-123213691D01*
X110897797Y-123234926D01*
X110892581Y-123255750D01*
X110885349Y-123275962D01*
X110876170Y-123295368D01*
X110865134Y-123313781D01*
X110852346Y-123331024D01*
X110837930Y-123346930D01*
X110822024Y-123361346D01*
X110804781Y-123374134D01*
X110786368Y-123385170D01*
X110766962Y-123394349D01*
X110746750Y-123401581D01*
X110725926Y-123406797D01*
X110704691Y-123409947D01*
X110683250Y-123411000D01*
X110245750Y-123411000D01*
X110224309Y-123409947D01*
X110203074Y-123406797D01*
X110182250Y-123401581D01*
X110162038Y-123394349D01*
X110142632Y-123385170D01*
X110124219Y-123374134D01*
X110106976Y-123361346D01*
X110091070Y-123346930D01*
X110076654Y-123331024D01*
X110063866Y-123313781D01*
X110052830Y-123295368D01*
X110043651Y-123275962D01*
X110036419Y-123255750D01*
X110031203Y-123234926D01*
X110028053Y-123213691D01*
X110027000Y-123192250D01*
X110027000Y-122679750D01*
X110028053Y-122658309D01*
X110031203Y-122637074D01*
X110036419Y-122616250D01*
X110043651Y-122596038D01*
X110052830Y-122576632D01*
X110063866Y-122558219D01*
X110076654Y-122540976D01*
X110091070Y-122525070D01*
X110106976Y-122510654D01*
X110124219Y-122497866D01*
X110142632Y-122486830D01*
X110162038Y-122477651D01*
X110182250Y-122470419D01*
X110203074Y-122465203D01*
X110224309Y-122462053D01*
X110245750Y-122461000D01*
X110683250Y-122461000D01*
X110704691Y-122462053D01*
X110704691Y-122462053D01*
G37*
D12*
X110464500Y-122936000D03*
D10*
G36*
X112279691Y-130082053D02*
G01*
X112300926Y-130085203D01*
X112321750Y-130090419D01*
X112341962Y-130097651D01*
X112361368Y-130106830D01*
X112379781Y-130117866D01*
X112397024Y-130130654D01*
X112412930Y-130145070D01*
X112427346Y-130160976D01*
X112440134Y-130178219D01*
X112451170Y-130196632D01*
X112460349Y-130216038D01*
X112467581Y-130236250D01*
X112472797Y-130257074D01*
X112475947Y-130278309D01*
X112477000Y-130299750D01*
X112477000Y-130812250D01*
X112475947Y-130833691D01*
X112472797Y-130854926D01*
X112467581Y-130875750D01*
X112460349Y-130895962D01*
X112451170Y-130915368D01*
X112440134Y-130933781D01*
X112427346Y-130951024D01*
X112412930Y-130966930D01*
X112397024Y-130981346D01*
X112379781Y-130994134D01*
X112361368Y-131005170D01*
X112341962Y-131014349D01*
X112321750Y-131021581D01*
X112300926Y-131026797D01*
X112279691Y-131029947D01*
X112258250Y-131031000D01*
X111820750Y-131031000D01*
X111799309Y-131029947D01*
X111778074Y-131026797D01*
X111757250Y-131021581D01*
X111737038Y-131014349D01*
X111717632Y-131005170D01*
X111699219Y-130994134D01*
X111681976Y-130981346D01*
X111666070Y-130966930D01*
X111651654Y-130951024D01*
X111638866Y-130933781D01*
X111627830Y-130915368D01*
X111618651Y-130895962D01*
X111611419Y-130875750D01*
X111606203Y-130854926D01*
X111603053Y-130833691D01*
X111602000Y-130812250D01*
X111602000Y-130299750D01*
X111603053Y-130278309D01*
X111606203Y-130257074D01*
X111611419Y-130236250D01*
X111618651Y-130216038D01*
X111627830Y-130196632D01*
X111638866Y-130178219D01*
X111651654Y-130160976D01*
X111666070Y-130145070D01*
X111681976Y-130130654D01*
X111699219Y-130117866D01*
X111717632Y-130106830D01*
X111737038Y-130097651D01*
X111757250Y-130090419D01*
X111778074Y-130085203D01*
X111799309Y-130082053D01*
X111820750Y-130081000D01*
X112258250Y-130081000D01*
X112279691Y-130082053D01*
X112279691Y-130082053D01*
G37*
D12*
X112039500Y-130556000D03*
D10*
G36*
X110704691Y-130082053D02*
G01*
X110725926Y-130085203D01*
X110746750Y-130090419D01*
X110766962Y-130097651D01*
X110786368Y-130106830D01*
X110804781Y-130117866D01*
X110822024Y-130130654D01*
X110837930Y-130145070D01*
X110852346Y-130160976D01*
X110865134Y-130178219D01*
X110876170Y-130196632D01*
X110885349Y-130216038D01*
X110892581Y-130236250D01*
X110897797Y-130257074D01*
X110900947Y-130278309D01*
X110902000Y-130299750D01*
X110902000Y-130812250D01*
X110900947Y-130833691D01*
X110897797Y-130854926D01*
X110892581Y-130875750D01*
X110885349Y-130895962D01*
X110876170Y-130915368D01*
X110865134Y-130933781D01*
X110852346Y-130951024D01*
X110837930Y-130966930D01*
X110822024Y-130981346D01*
X110804781Y-130994134D01*
X110786368Y-131005170D01*
X110766962Y-131014349D01*
X110746750Y-131021581D01*
X110725926Y-131026797D01*
X110704691Y-131029947D01*
X110683250Y-131031000D01*
X110245750Y-131031000D01*
X110224309Y-131029947D01*
X110203074Y-131026797D01*
X110182250Y-131021581D01*
X110162038Y-131014349D01*
X110142632Y-131005170D01*
X110124219Y-130994134D01*
X110106976Y-130981346D01*
X110091070Y-130966930D01*
X110076654Y-130951024D01*
X110063866Y-130933781D01*
X110052830Y-130915368D01*
X110043651Y-130895962D01*
X110036419Y-130875750D01*
X110031203Y-130854926D01*
X110028053Y-130833691D01*
X110027000Y-130812250D01*
X110027000Y-130299750D01*
X110028053Y-130278309D01*
X110031203Y-130257074D01*
X110036419Y-130236250D01*
X110043651Y-130216038D01*
X110052830Y-130196632D01*
X110063866Y-130178219D01*
X110076654Y-130160976D01*
X110091070Y-130145070D01*
X110106976Y-130130654D01*
X110124219Y-130117866D01*
X110142632Y-130106830D01*
X110162038Y-130097651D01*
X110182250Y-130090419D01*
X110203074Y-130085203D01*
X110224309Y-130082053D01*
X110245750Y-130081000D01*
X110683250Y-130081000D01*
X110704691Y-130082053D01*
X110704691Y-130082053D01*
G37*
D12*
X110464500Y-130556000D03*
D10*
G36*
X114138142Y-124777174D02*
G01*
X114161803Y-124780684D01*
X114185007Y-124786496D01*
X114207529Y-124794554D01*
X114229153Y-124804782D01*
X114249670Y-124817079D01*
X114268883Y-124831329D01*
X114286607Y-124847393D01*
X114302671Y-124865117D01*
X114316921Y-124884330D01*
X114329218Y-124904847D01*
X114339446Y-124926471D01*
X114347504Y-124948993D01*
X114353316Y-124972197D01*
X114356826Y-124995858D01*
X114358000Y-125019750D01*
X114358000Y-125932250D01*
X114356826Y-125956142D01*
X114353316Y-125979803D01*
X114347504Y-126003007D01*
X114339446Y-126025529D01*
X114329218Y-126047153D01*
X114316921Y-126067670D01*
X114302671Y-126086883D01*
X114286607Y-126104607D01*
X114268883Y-126120671D01*
X114249670Y-126134921D01*
X114229153Y-126147218D01*
X114207529Y-126157446D01*
X114185007Y-126165504D01*
X114161803Y-126171316D01*
X114138142Y-126174826D01*
X114114250Y-126176000D01*
X113626750Y-126176000D01*
X113602858Y-126174826D01*
X113579197Y-126171316D01*
X113555993Y-126165504D01*
X113533471Y-126157446D01*
X113511847Y-126147218D01*
X113491330Y-126134921D01*
X113472117Y-126120671D01*
X113454393Y-126104607D01*
X113438329Y-126086883D01*
X113424079Y-126067670D01*
X113411782Y-126047153D01*
X113401554Y-126025529D01*
X113393496Y-126003007D01*
X113387684Y-125979803D01*
X113384174Y-125956142D01*
X113383000Y-125932250D01*
X113383000Y-125019750D01*
X113384174Y-124995858D01*
X113387684Y-124972197D01*
X113393496Y-124948993D01*
X113401554Y-124926471D01*
X113411782Y-124904847D01*
X113424079Y-124884330D01*
X113438329Y-124865117D01*
X113454393Y-124847393D01*
X113472117Y-124831329D01*
X113491330Y-124817079D01*
X113511847Y-124804782D01*
X113533471Y-124794554D01*
X113555993Y-124786496D01*
X113579197Y-124780684D01*
X113602858Y-124777174D01*
X113626750Y-124776000D01*
X114114250Y-124776000D01*
X114138142Y-124777174D01*
X114138142Y-124777174D01*
G37*
D13*
X113870500Y-125476000D03*
D10*
G36*
X116013142Y-124777174D02*
G01*
X116036803Y-124780684D01*
X116060007Y-124786496D01*
X116082529Y-124794554D01*
X116104153Y-124804782D01*
X116124670Y-124817079D01*
X116143883Y-124831329D01*
X116161607Y-124847393D01*
X116177671Y-124865117D01*
X116191921Y-124884330D01*
X116204218Y-124904847D01*
X116214446Y-124926471D01*
X116222504Y-124948993D01*
X116228316Y-124972197D01*
X116231826Y-124995858D01*
X116233000Y-125019750D01*
X116233000Y-125932250D01*
X116231826Y-125956142D01*
X116228316Y-125979803D01*
X116222504Y-126003007D01*
X116214446Y-126025529D01*
X116204218Y-126047153D01*
X116191921Y-126067670D01*
X116177671Y-126086883D01*
X116161607Y-126104607D01*
X116143883Y-126120671D01*
X116124670Y-126134921D01*
X116104153Y-126147218D01*
X116082529Y-126157446D01*
X116060007Y-126165504D01*
X116036803Y-126171316D01*
X116013142Y-126174826D01*
X115989250Y-126176000D01*
X115501750Y-126176000D01*
X115477858Y-126174826D01*
X115454197Y-126171316D01*
X115430993Y-126165504D01*
X115408471Y-126157446D01*
X115386847Y-126147218D01*
X115366330Y-126134921D01*
X115347117Y-126120671D01*
X115329393Y-126104607D01*
X115313329Y-126086883D01*
X115299079Y-126067670D01*
X115286782Y-126047153D01*
X115276554Y-126025529D01*
X115268496Y-126003007D01*
X115262684Y-125979803D01*
X115259174Y-125956142D01*
X115258000Y-125932250D01*
X115258000Y-125019750D01*
X115259174Y-124995858D01*
X115262684Y-124972197D01*
X115268496Y-124948993D01*
X115276554Y-124926471D01*
X115286782Y-124904847D01*
X115299079Y-124884330D01*
X115313329Y-124865117D01*
X115329393Y-124847393D01*
X115347117Y-124831329D01*
X115366330Y-124817079D01*
X115386847Y-124804782D01*
X115408471Y-124794554D01*
X115430993Y-124786496D01*
X115454197Y-124780684D01*
X115477858Y-124777174D01*
X115501750Y-124776000D01*
X115989250Y-124776000D01*
X116013142Y-124777174D01*
X116013142Y-124777174D01*
G37*
D13*
X115745500Y-125476000D03*
D10*
G36*
X114138142Y-127317174D02*
G01*
X114161803Y-127320684D01*
X114185007Y-127326496D01*
X114207529Y-127334554D01*
X114229153Y-127344782D01*
X114249670Y-127357079D01*
X114268883Y-127371329D01*
X114286607Y-127387393D01*
X114302671Y-127405117D01*
X114316921Y-127424330D01*
X114329218Y-127444847D01*
X114339446Y-127466471D01*
X114347504Y-127488993D01*
X114353316Y-127512197D01*
X114356826Y-127535858D01*
X114358000Y-127559750D01*
X114358000Y-128472250D01*
X114356826Y-128496142D01*
X114353316Y-128519803D01*
X114347504Y-128543007D01*
X114339446Y-128565529D01*
X114329218Y-128587153D01*
X114316921Y-128607670D01*
X114302671Y-128626883D01*
X114286607Y-128644607D01*
X114268883Y-128660671D01*
X114249670Y-128674921D01*
X114229153Y-128687218D01*
X114207529Y-128697446D01*
X114185007Y-128705504D01*
X114161803Y-128711316D01*
X114138142Y-128714826D01*
X114114250Y-128716000D01*
X113626750Y-128716000D01*
X113602858Y-128714826D01*
X113579197Y-128711316D01*
X113555993Y-128705504D01*
X113533471Y-128697446D01*
X113511847Y-128687218D01*
X113491330Y-128674921D01*
X113472117Y-128660671D01*
X113454393Y-128644607D01*
X113438329Y-128626883D01*
X113424079Y-128607670D01*
X113411782Y-128587153D01*
X113401554Y-128565529D01*
X113393496Y-128543007D01*
X113387684Y-128519803D01*
X113384174Y-128496142D01*
X113383000Y-128472250D01*
X113383000Y-127559750D01*
X113384174Y-127535858D01*
X113387684Y-127512197D01*
X113393496Y-127488993D01*
X113401554Y-127466471D01*
X113411782Y-127444847D01*
X113424079Y-127424330D01*
X113438329Y-127405117D01*
X113454393Y-127387393D01*
X113472117Y-127371329D01*
X113491330Y-127357079D01*
X113511847Y-127344782D01*
X113533471Y-127334554D01*
X113555993Y-127326496D01*
X113579197Y-127320684D01*
X113602858Y-127317174D01*
X113626750Y-127316000D01*
X114114250Y-127316000D01*
X114138142Y-127317174D01*
X114138142Y-127317174D01*
G37*
D13*
X113870500Y-128016000D03*
D10*
G36*
X116013142Y-127317174D02*
G01*
X116036803Y-127320684D01*
X116060007Y-127326496D01*
X116082529Y-127334554D01*
X116104153Y-127344782D01*
X116124670Y-127357079D01*
X116143883Y-127371329D01*
X116161607Y-127387393D01*
X116177671Y-127405117D01*
X116191921Y-127424330D01*
X116204218Y-127444847D01*
X116214446Y-127466471D01*
X116222504Y-127488993D01*
X116228316Y-127512197D01*
X116231826Y-127535858D01*
X116233000Y-127559750D01*
X116233000Y-128472250D01*
X116231826Y-128496142D01*
X116228316Y-128519803D01*
X116222504Y-128543007D01*
X116214446Y-128565529D01*
X116204218Y-128587153D01*
X116191921Y-128607670D01*
X116177671Y-128626883D01*
X116161607Y-128644607D01*
X116143883Y-128660671D01*
X116124670Y-128674921D01*
X116104153Y-128687218D01*
X116082529Y-128697446D01*
X116060007Y-128705504D01*
X116036803Y-128711316D01*
X116013142Y-128714826D01*
X115989250Y-128716000D01*
X115501750Y-128716000D01*
X115477858Y-128714826D01*
X115454197Y-128711316D01*
X115430993Y-128705504D01*
X115408471Y-128697446D01*
X115386847Y-128687218D01*
X115366330Y-128674921D01*
X115347117Y-128660671D01*
X115329393Y-128644607D01*
X115313329Y-128626883D01*
X115299079Y-128607670D01*
X115286782Y-128587153D01*
X115276554Y-128565529D01*
X115268496Y-128543007D01*
X115262684Y-128519803D01*
X115259174Y-128496142D01*
X115258000Y-128472250D01*
X115258000Y-127559750D01*
X115259174Y-127535858D01*
X115262684Y-127512197D01*
X115268496Y-127488993D01*
X115276554Y-127466471D01*
X115286782Y-127444847D01*
X115299079Y-127424330D01*
X115313329Y-127405117D01*
X115329393Y-127387393D01*
X115347117Y-127371329D01*
X115366330Y-127357079D01*
X115386847Y-127344782D01*
X115408471Y-127334554D01*
X115430993Y-127326496D01*
X115454197Y-127320684D01*
X115477858Y-127317174D01*
X115501750Y-127316000D01*
X115989250Y-127316000D01*
X116013142Y-127317174D01*
X116013142Y-127317174D01*
G37*
D13*
X115745500Y-128016000D03*
D10*
G36*
X114138142Y-122237174D02*
G01*
X114161803Y-122240684D01*
X114185007Y-122246496D01*
X114207529Y-122254554D01*
X114229153Y-122264782D01*
X114249670Y-122277079D01*
X114268883Y-122291329D01*
X114286607Y-122307393D01*
X114302671Y-122325117D01*
X114316921Y-122344330D01*
X114329218Y-122364847D01*
X114339446Y-122386471D01*
X114347504Y-122408993D01*
X114353316Y-122432197D01*
X114356826Y-122455858D01*
X114358000Y-122479750D01*
X114358000Y-123392250D01*
X114356826Y-123416142D01*
X114353316Y-123439803D01*
X114347504Y-123463007D01*
X114339446Y-123485529D01*
X114329218Y-123507153D01*
X114316921Y-123527670D01*
X114302671Y-123546883D01*
X114286607Y-123564607D01*
X114268883Y-123580671D01*
X114249670Y-123594921D01*
X114229153Y-123607218D01*
X114207529Y-123617446D01*
X114185007Y-123625504D01*
X114161803Y-123631316D01*
X114138142Y-123634826D01*
X114114250Y-123636000D01*
X113626750Y-123636000D01*
X113602858Y-123634826D01*
X113579197Y-123631316D01*
X113555993Y-123625504D01*
X113533471Y-123617446D01*
X113511847Y-123607218D01*
X113491330Y-123594921D01*
X113472117Y-123580671D01*
X113454393Y-123564607D01*
X113438329Y-123546883D01*
X113424079Y-123527670D01*
X113411782Y-123507153D01*
X113401554Y-123485529D01*
X113393496Y-123463007D01*
X113387684Y-123439803D01*
X113384174Y-123416142D01*
X113383000Y-123392250D01*
X113383000Y-122479750D01*
X113384174Y-122455858D01*
X113387684Y-122432197D01*
X113393496Y-122408993D01*
X113401554Y-122386471D01*
X113411782Y-122364847D01*
X113424079Y-122344330D01*
X113438329Y-122325117D01*
X113454393Y-122307393D01*
X113472117Y-122291329D01*
X113491330Y-122277079D01*
X113511847Y-122264782D01*
X113533471Y-122254554D01*
X113555993Y-122246496D01*
X113579197Y-122240684D01*
X113602858Y-122237174D01*
X113626750Y-122236000D01*
X114114250Y-122236000D01*
X114138142Y-122237174D01*
X114138142Y-122237174D01*
G37*
D13*
X113870500Y-122936000D03*
D10*
G36*
X116013142Y-122237174D02*
G01*
X116036803Y-122240684D01*
X116060007Y-122246496D01*
X116082529Y-122254554D01*
X116104153Y-122264782D01*
X116124670Y-122277079D01*
X116143883Y-122291329D01*
X116161607Y-122307393D01*
X116177671Y-122325117D01*
X116191921Y-122344330D01*
X116204218Y-122364847D01*
X116214446Y-122386471D01*
X116222504Y-122408993D01*
X116228316Y-122432197D01*
X116231826Y-122455858D01*
X116233000Y-122479750D01*
X116233000Y-123392250D01*
X116231826Y-123416142D01*
X116228316Y-123439803D01*
X116222504Y-123463007D01*
X116214446Y-123485529D01*
X116204218Y-123507153D01*
X116191921Y-123527670D01*
X116177671Y-123546883D01*
X116161607Y-123564607D01*
X116143883Y-123580671D01*
X116124670Y-123594921D01*
X116104153Y-123607218D01*
X116082529Y-123617446D01*
X116060007Y-123625504D01*
X116036803Y-123631316D01*
X116013142Y-123634826D01*
X115989250Y-123636000D01*
X115501750Y-123636000D01*
X115477858Y-123634826D01*
X115454197Y-123631316D01*
X115430993Y-123625504D01*
X115408471Y-123617446D01*
X115386847Y-123607218D01*
X115366330Y-123594921D01*
X115347117Y-123580671D01*
X115329393Y-123564607D01*
X115313329Y-123546883D01*
X115299079Y-123527670D01*
X115286782Y-123507153D01*
X115276554Y-123485529D01*
X115268496Y-123463007D01*
X115262684Y-123439803D01*
X115259174Y-123416142D01*
X115258000Y-123392250D01*
X115258000Y-122479750D01*
X115259174Y-122455858D01*
X115262684Y-122432197D01*
X115268496Y-122408993D01*
X115276554Y-122386471D01*
X115286782Y-122364847D01*
X115299079Y-122344330D01*
X115313329Y-122325117D01*
X115329393Y-122307393D01*
X115347117Y-122291329D01*
X115366330Y-122277079D01*
X115386847Y-122264782D01*
X115408471Y-122254554D01*
X115430993Y-122246496D01*
X115454197Y-122240684D01*
X115477858Y-122237174D01*
X115501750Y-122236000D01*
X115989250Y-122236000D01*
X116013142Y-122237174D01*
X116013142Y-122237174D01*
G37*
D13*
X115745500Y-122936000D03*
D10*
G36*
X114138142Y-129857174D02*
G01*
X114161803Y-129860684D01*
X114185007Y-129866496D01*
X114207529Y-129874554D01*
X114229153Y-129884782D01*
X114249670Y-129897079D01*
X114268883Y-129911329D01*
X114286607Y-129927393D01*
X114302671Y-129945117D01*
X114316921Y-129964330D01*
X114329218Y-129984847D01*
X114339446Y-130006471D01*
X114347504Y-130028993D01*
X114353316Y-130052197D01*
X114356826Y-130075858D01*
X114358000Y-130099750D01*
X114358000Y-131012250D01*
X114356826Y-131036142D01*
X114353316Y-131059803D01*
X114347504Y-131083007D01*
X114339446Y-131105529D01*
X114329218Y-131127153D01*
X114316921Y-131147670D01*
X114302671Y-131166883D01*
X114286607Y-131184607D01*
X114268883Y-131200671D01*
X114249670Y-131214921D01*
X114229153Y-131227218D01*
X114207529Y-131237446D01*
X114185007Y-131245504D01*
X114161803Y-131251316D01*
X114138142Y-131254826D01*
X114114250Y-131256000D01*
X113626750Y-131256000D01*
X113602858Y-131254826D01*
X113579197Y-131251316D01*
X113555993Y-131245504D01*
X113533471Y-131237446D01*
X113511847Y-131227218D01*
X113491330Y-131214921D01*
X113472117Y-131200671D01*
X113454393Y-131184607D01*
X113438329Y-131166883D01*
X113424079Y-131147670D01*
X113411782Y-131127153D01*
X113401554Y-131105529D01*
X113393496Y-131083007D01*
X113387684Y-131059803D01*
X113384174Y-131036142D01*
X113383000Y-131012250D01*
X113383000Y-130099750D01*
X113384174Y-130075858D01*
X113387684Y-130052197D01*
X113393496Y-130028993D01*
X113401554Y-130006471D01*
X113411782Y-129984847D01*
X113424079Y-129964330D01*
X113438329Y-129945117D01*
X113454393Y-129927393D01*
X113472117Y-129911329D01*
X113491330Y-129897079D01*
X113511847Y-129884782D01*
X113533471Y-129874554D01*
X113555993Y-129866496D01*
X113579197Y-129860684D01*
X113602858Y-129857174D01*
X113626750Y-129856000D01*
X114114250Y-129856000D01*
X114138142Y-129857174D01*
X114138142Y-129857174D01*
G37*
D13*
X113870500Y-130556000D03*
D10*
G36*
X116013142Y-129857174D02*
G01*
X116036803Y-129860684D01*
X116060007Y-129866496D01*
X116082529Y-129874554D01*
X116104153Y-129884782D01*
X116124670Y-129897079D01*
X116143883Y-129911329D01*
X116161607Y-129927393D01*
X116177671Y-129945117D01*
X116191921Y-129964330D01*
X116204218Y-129984847D01*
X116214446Y-130006471D01*
X116222504Y-130028993D01*
X116228316Y-130052197D01*
X116231826Y-130075858D01*
X116233000Y-130099750D01*
X116233000Y-131012250D01*
X116231826Y-131036142D01*
X116228316Y-131059803D01*
X116222504Y-131083007D01*
X116214446Y-131105529D01*
X116204218Y-131127153D01*
X116191921Y-131147670D01*
X116177671Y-131166883D01*
X116161607Y-131184607D01*
X116143883Y-131200671D01*
X116124670Y-131214921D01*
X116104153Y-131227218D01*
X116082529Y-131237446D01*
X116060007Y-131245504D01*
X116036803Y-131251316D01*
X116013142Y-131254826D01*
X115989250Y-131256000D01*
X115501750Y-131256000D01*
X115477858Y-131254826D01*
X115454197Y-131251316D01*
X115430993Y-131245504D01*
X115408471Y-131237446D01*
X115386847Y-131227218D01*
X115366330Y-131214921D01*
X115347117Y-131200671D01*
X115329393Y-131184607D01*
X115313329Y-131166883D01*
X115299079Y-131147670D01*
X115286782Y-131127153D01*
X115276554Y-131105529D01*
X115268496Y-131083007D01*
X115262684Y-131059803D01*
X115259174Y-131036142D01*
X115258000Y-131012250D01*
X115258000Y-130099750D01*
X115259174Y-130075858D01*
X115262684Y-130052197D01*
X115268496Y-130028993D01*
X115276554Y-130006471D01*
X115286782Y-129984847D01*
X115299079Y-129964330D01*
X115313329Y-129945117D01*
X115329393Y-129927393D01*
X115347117Y-129911329D01*
X115366330Y-129897079D01*
X115386847Y-129884782D01*
X115408471Y-129874554D01*
X115430993Y-129866496D01*
X115454197Y-129860684D01*
X115477858Y-129857174D01*
X115501750Y-129856000D01*
X115989250Y-129856000D01*
X116013142Y-129857174D01*
X116013142Y-129857174D01*
G37*
D13*
X115745500Y-130556000D03*
M02*
