G04 #@! TF.GenerationSoftware,KiCad,Pcbnew,(5.1.0)-1*
G04 #@! TF.CreationDate,2019-04-21T19:35:35+02:00*
G04 #@! TF.ProjectId,RM Board03,524d2042-6f61-4726-9430-332e6b696361,rev?*
G04 #@! TF.SameCoordinates,Original*
G04 #@! TF.FileFunction,Soldermask,Top*
G04 #@! TF.FilePolarity,Negative*
%FSLAX46Y46*%
G04 Gerber Fmt 4.6, Leading zero omitted, Abs format (unit mm)*
G04 Created by KiCad (PCBNEW (5.1.0)-1) date 2019-04-21 19:35:35*
%MOMM*%
%LPD*%
G04 APERTURE LIST*
%ADD10C,0.150000*%
G04 APERTURE END LIST*
D10*
X99314000Y-118872000D02*
X99314000Y-98806000D01*
X98806000Y-119634000D02*
X99314000Y-118872000D01*
X98806000Y-155702000D02*
X98806000Y-119634000D01*
X164846000Y-155702000D02*
X98806000Y-155702000D01*
X164846000Y-98806000D02*
X164846000Y-155702000D01*
X99314000Y-98806000D02*
X164846000Y-98806000D01*
G36*
X110305697Y-152019946D02*
G01*
X110382826Y-152027542D01*
X110580752Y-152087582D01*
X110580755Y-152087583D01*
X110763160Y-152185081D01*
X110923045Y-152316294D01*
X111054258Y-152476179D01*
X111151756Y-152658584D01*
X111151757Y-152658587D01*
X111211797Y-152856513D01*
X111232070Y-153062349D01*
X111211797Y-153268185D01*
X111151757Y-153466111D01*
X111151756Y-153466114D01*
X111054258Y-153648519D01*
X110923045Y-153808404D01*
X110763160Y-153939617D01*
X110580755Y-154037115D01*
X110580752Y-154037116D01*
X110382826Y-154097156D01*
X110305697Y-154104752D01*
X110228570Y-154112349D01*
X110125410Y-154112349D01*
X110048283Y-154104752D01*
X109971154Y-154097156D01*
X109773228Y-154037116D01*
X109773225Y-154037115D01*
X109590820Y-153939617D01*
X109430935Y-153808404D01*
X109299722Y-153648519D01*
X109202224Y-153466114D01*
X109202223Y-153466111D01*
X109142183Y-153268185D01*
X109121910Y-153062349D01*
X109142183Y-152856513D01*
X109202223Y-152658587D01*
X109202224Y-152658584D01*
X109299722Y-152476179D01*
X109430935Y-152316294D01*
X109590820Y-152185081D01*
X109773225Y-152087583D01*
X109773228Y-152087582D01*
X109971154Y-152027542D01*
X110048283Y-152019946D01*
X110125410Y-152012349D01*
X110228570Y-152012349D01*
X110305697Y-152019946D01*
X110305697Y-152019946D01*
G37*
G36*
X156025697Y-152019946D02*
G01*
X156102826Y-152027542D01*
X156300752Y-152087582D01*
X156300755Y-152087583D01*
X156483160Y-152185081D01*
X156643045Y-152316294D01*
X156774258Y-152476179D01*
X156871756Y-152658584D01*
X156871757Y-152658587D01*
X156931797Y-152856513D01*
X156952070Y-153062349D01*
X156931797Y-153268185D01*
X156871757Y-153466111D01*
X156871756Y-153466114D01*
X156774258Y-153648519D01*
X156643045Y-153808404D01*
X156483160Y-153939617D01*
X156300755Y-154037115D01*
X156300752Y-154037116D01*
X156102826Y-154097156D01*
X156025697Y-154104752D01*
X155948570Y-154112349D01*
X155845410Y-154112349D01*
X155768283Y-154104752D01*
X155691154Y-154097156D01*
X155493228Y-154037116D01*
X155493225Y-154037115D01*
X155310820Y-153939617D01*
X155150935Y-153808404D01*
X155019722Y-153648519D01*
X154922224Y-153466114D01*
X154922223Y-153466111D01*
X154862183Y-153268185D01*
X154841910Y-153062349D01*
X154862183Y-152856513D01*
X154922223Y-152658587D01*
X154922224Y-152658584D01*
X155019722Y-152476179D01*
X155150935Y-152316294D01*
X155310820Y-152185081D01*
X155493225Y-152087583D01*
X155493228Y-152087582D01*
X155691154Y-152027542D01*
X155768283Y-152019946D01*
X155845410Y-152012349D01*
X155948570Y-152012349D01*
X156025697Y-152019946D01*
X156025697Y-152019946D01*
G37*
G36*
X138245697Y-152019946D02*
G01*
X138322826Y-152027542D01*
X138520752Y-152087582D01*
X138520755Y-152087583D01*
X138703160Y-152185081D01*
X138863045Y-152316294D01*
X138994258Y-152476179D01*
X139091756Y-152658584D01*
X139091757Y-152658587D01*
X139151797Y-152856513D01*
X139172070Y-153062349D01*
X139151797Y-153268185D01*
X139091757Y-153466111D01*
X139091756Y-153466114D01*
X138994258Y-153648519D01*
X138863045Y-153808404D01*
X138703160Y-153939617D01*
X138520755Y-154037115D01*
X138520752Y-154037116D01*
X138322826Y-154097156D01*
X138245697Y-154104752D01*
X138168570Y-154112349D01*
X138065410Y-154112349D01*
X137988283Y-154104752D01*
X137911154Y-154097156D01*
X137713228Y-154037116D01*
X137713225Y-154037115D01*
X137530820Y-153939617D01*
X137370935Y-153808404D01*
X137239722Y-153648519D01*
X137142224Y-153466114D01*
X137142223Y-153466111D01*
X137082183Y-153268185D01*
X137061910Y-153062349D01*
X137082183Y-152856513D01*
X137142223Y-152658587D01*
X137142224Y-152658584D01*
X137239722Y-152476179D01*
X137370935Y-152316294D01*
X137530820Y-152185081D01*
X137713225Y-152087583D01*
X137713228Y-152087582D01*
X137911154Y-152027542D01*
X137988283Y-152019946D01*
X138065410Y-152012349D01*
X138168570Y-152012349D01*
X138245697Y-152019946D01*
X138245697Y-152019946D01*
G37*
G36*
X140785697Y-152019946D02*
G01*
X140862826Y-152027542D01*
X141060752Y-152087582D01*
X141060755Y-152087583D01*
X141243160Y-152185081D01*
X141403045Y-152316294D01*
X141534258Y-152476179D01*
X141631756Y-152658584D01*
X141631757Y-152658587D01*
X141691797Y-152856513D01*
X141712070Y-153062349D01*
X141691797Y-153268185D01*
X141631757Y-153466111D01*
X141631756Y-153466114D01*
X141534258Y-153648519D01*
X141403045Y-153808404D01*
X141243160Y-153939617D01*
X141060755Y-154037115D01*
X141060752Y-154037116D01*
X140862826Y-154097156D01*
X140785697Y-154104752D01*
X140708570Y-154112349D01*
X140605410Y-154112349D01*
X140528283Y-154104752D01*
X140451154Y-154097156D01*
X140253228Y-154037116D01*
X140253225Y-154037115D01*
X140070820Y-153939617D01*
X139910935Y-153808404D01*
X139779722Y-153648519D01*
X139682224Y-153466114D01*
X139682223Y-153466111D01*
X139622183Y-153268185D01*
X139601910Y-153062349D01*
X139622183Y-152856513D01*
X139682223Y-152658587D01*
X139682224Y-152658584D01*
X139779722Y-152476179D01*
X139910935Y-152316294D01*
X140070820Y-152185081D01*
X140253225Y-152087583D01*
X140253228Y-152087582D01*
X140451154Y-152027542D01*
X140528283Y-152019946D01*
X140605410Y-152012349D01*
X140708570Y-152012349D01*
X140785697Y-152019946D01*
X140785697Y-152019946D01*
G37*
G36*
X143325697Y-152019946D02*
G01*
X143402826Y-152027542D01*
X143600752Y-152087582D01*
X143600755Y-152087583D01*
X143783160Y-152185081D01*
X143943045Y-152316294D01*
X144074258Y-152476179D01*
X144171756Y-152658584D01*
X144171757Y-152658587D01*
X144231797Y-152856513D01*
X144252070Y-153062349D01*
X144231797Y-153268185D01*
X144171757Y-153466111D01*
X144171756Y-153466114D01*
X144074258Y-153648519D01*
X143943045Y-153808404D01*
X143783160Y-153939617D01*
X143600755Y-154037115D01*
X143600752Y-154037116D01*
X143402826Y-154097156D01*
X143325697Y-154104752D01*
X143248570Y-154112349D01*
X143145410Y-154112349D01*
X143068283Y-154104752D01*
X142991154Y-154097156D01*
X142793228Y-154037116D01*
X142793225Y-154037115D01*
X142610820Y-153939617D01*
X142450935Y-153808404D01*
X142319722Y-153648519D01*
X142222224Y-153466114D01*
X142222223Y-153466111D01*
X142162183Y-153268185D01*
X142141910Y-153062349D01*
X142162183Y-152856513D01*
X142222223Y-152658587D01*
X142222224Y-152658584D01*
X142319722Y-152476179D01*
X142450935Y-152316294D01*
X142610820Y-152185081D01*
X142793225Y-152087583D01*
X142793228Y-152087582D01*
X142991154Y-152027542D01*
X143068283Y-152019946D01*
X143145410Y-152012349D01*
X143248570Y-152012349D01*
X143325697Y-152019946D01*
X143325697Y-152019946D01*
G37*
G36*
X145865697Y-152019946D02*
G01*
X145942826Y-152027542D01*
X146140752Y-152087582D01*
X146140755Y-152087583D01*
X146323160Y-152185081D01*
X146483045Y-152316294D01*
X146614258Y-152476179D01*
X146711756Y-152658584D01*
X146711757Y-152658587D01*
X146771797Y-152856513D01*
X146792070Y-153062349D01*
X146771797Y-153268185D01*
X146711757Y-153466111D01*
X146711756Y-153466114D01*
X146614258Y-153648519D01*
X146483045Y-153808404D01*
X146323160Y-153939617D01*
X146140755Y-154037115D01*
X146140752Y-154037116D01*
X145942826Y-154097156D01*
X145865697Y-154104752D01*
X145788570Y-154112349D01*
X145685410Y-154112349D01*
X145608283Y-154104752D01*
X145531154Y-154097156D01*
X145333228Y-154037116D01*
X145333225Y-154037115D01*
X145150820Y-153939617D01*
X144990935Y-153808404D01*
X144859722Y-153648519D01*
X144762224Y-153466114D01*
X144762223Y-153466111D01*
X144702183Y-153268185D01*
X144681910Y-153062349D01*
X144702183Y-152856513D01*
X144762223Y-152658587D01*
X144762224Y-152658584D01*
X144859722Y-152476179D01*
X144990935Y-152316294D01*
X145150820Y-152185081D01*
X145333225Y-152087583D01*
X145333228Y-152087582D01*
X145531154Y-152027542D01*
X145608283Y-152019946D01*
X145685410Y-152012349D01*
X145788570Y-152012349D01*
X145865697Y-152019946D01*
X145865697Y-152019946D01*
G37*
G36*
X148405697Y-152019946D02*
G01*
X148482826Y-152027542D01*
X148680752Y-152087582D01*
X148680755Y-152087583D01*
X148863160Y-152185081D01*
X149023045Y-152316294D01*
X149154258Y-152476179D01*
X149251756Y-152658584D01*
X149251757Y-152658587D01*
X149311797Y-152856513D01*
X149332070Y-153062349D01*
X149311797Y-153268185D01*
X149251757Y-153466111D01*
X149251756Y-153466114D01*
X149154258Y-153648519D01*
X149023045Y-153808404D01*
X148863160Y-153939617D01*
X148680755Y-154037115D01*
X148680752Y-154037116D01*
X148482826Y-154097156D01*
X148405697Y-154104752D01*
X148328570Y-154112349D01*
X148225410Y-154112349D01*
X148148283Y-154104752D01*
X148071154Y-154097156D01*
X147873228Y-154037116D01*
X147873225Y-154037115D01*
X147690820Y-153939617D01*
X147530935Y-153808404D01*
X147399722Y-153648519D01*
X147302224Y-153466114D01*
X147302223Y-153466111D01*
X147242183Y-153268185D01*
X147221910Y-153062349D01*
X147242183Y-152856513D01*
X147302223Y-152658587D01*
X147302224Y-152658584D01*
X147399722Y-152476179D01*
X147530935Y-152316294D01*
X147690820Y-152185081D01*
X147873225Y-152087583D01*
X147873228Y-152087582D01*
X148071154Y-152027542D01*
X148148283Y-152019946D01*
X148225410Y-152012349D01*
X148328570Y-152012349D01*
X148405697Y-152019946D01*
X148405697Y-152019946D01*
G37*
G36*
X150945697Y-152019946D02*
G01*
X151022826Y-152027542D01*
X151220752Y-152087582D01*
X151220755Y-152087583D01*
X151403160Y-152185081D01*
X151563045Y-152316294D01*
X151694258Y-152476179D01*
X151791756Y-152658584D01*
X151791757Y-152658587D01*
X151851797Y-152856513D01*
X151872070Y-153062349D01*
X151851797Y-153268185D01*
X151791757Y-153466111D01*
X151791756Y-153466114D01*
X151694258Y-153648519D01*
X151563045Y-153808404D01*
X151403160Y-153939617D01*
X151220755Y-154037115D01*
X151220752Y-154037116D01*
X151022826Y-154097156D01*
X150945697Y-154104752D01*
X150868570Y-154112349D01*
X150765410Y-154112349D01*
X150688283Y-154104752D01*
X150611154Y-154097156D01*
X150413228Y-154037116D01*
X150413225Y-154037115D01*
X150230820Y-153939617D01*
X150070935Y-153808404D01*
X149939722Y-153648519D01*
X149842224Y-153466114D01*
X149842223Y-153466111D01*
X149782183Y-153268185D01*
X149761910Y-153062349D01*
X149782183Y-152856513D01*
X149842223Y-152658587D01*
X149842224Y-152658584D01*
X149939722Y-152476179D01*
X150070935Y-152316294D01*
X150230820Y-152185081D01*
X150413225Y-152087583D01*
X150413228Y-152087582D01*
X150611154Y-152027542D01*
X150688283Y-152019946D01*
X150765410Y-152012349D01*
X150868570Y-152012349D01*
X150945697Y-152019946D01*
X150945697Y-152019946D01*
G37*
G36*
X153485697Y-152019946D02*
G01*
X153562826Y-152027542D01*
X153760752Y-152087582D01*
X153760755Y-152087583D01*
X153943160Y-152185081D01*
X154103045Y-152316294D01*
X154234258Y-152476179D01*
X154331756Y-152658584D01*
X154331757Y-152658587D01*
X154391797Y-152856513D01*
X154412070Y-153062349D01*
X154391797Y-153268185D01*
X154331757Y-153466111D01*
X154331756Y-153466114D01*
X154234258Y-153648519D01*
X154103045Y-153808404D01*
X153943160Y-153939617D01*
X153760755Y-154037115D01*
X153760752Y-154037116D01*
X153562826Y-154097156D01*
X153485697Y-154104752D01*
X153408570Y-154112349D01*
X153305410Y-154112349D01*
X153228283Y-154104752D01*
X153151154Y-154097156D01*
X152953228Y-154037116D01*
X152953225Y-154037115D01*
X152770820Y-153939617D01*
X152610935Y-153808404D01*
X152479722Y-153648519D01*
X152382224Y-153466114D01*
X152382223Y-153466111D01*
X152322183Y-153268185D01*
X152301910Y-153062349D01*
X152322183Y-152856513D01*
X152382223Y-152658587D01*
X152382224Y-152658584D01*
X152479722Y-152476179D01*
X152610935Y-152316294D01*
X152770820Y-152185081D01*
X152953225Y-152087583D01*
X152953228Y-152087582D01*
X153151154Y-152027542D01*
X153228283Y-152019946D01*
X153305410Y-152012349D01*
X153408570Y-152012349D01*
X153485697Y-152019946D01*
X153485697Y-152019946D01*
G37*
G36*
X135705697Y-152019946D02*
G01*
X135782826Y-152027542D01*
X135980752Y-152087582D01*
X135980755Y-152087583D01*
X136163160Y-152185081D01*
X136323045Y-152316294D01*
X136454258Y-152476179D01*
X136551756Y-152658584D01*
X136551757Y-152658587D01*
X136611797Y-152856513D01*
X136632070Y-153062349D01*
X136611797Y-153268185D01*
X136551757Y-153466111D01*
X136551756Y-153466114D01*
X136454258Y-153648519D01*
X136323045Y-153808404D01*
X136163160Y-153939617D01*
X135980755Y-154037115D01*
X135980752Y-154037116D01*
X135782826Y-154097156D01*
X135705697Y-154104752D01*
X135628570Y-154112349D01*
X135525410Y-154112349D01*
X135448283Y-154104752D01*
X135371154Y-154097156D01*
X135173228Y-154037116D01*
X135173225Y-154037115D01*
X134990820Y-153939617D01*
X134830935Y-153808404D01*
X134699722Y-153648519D01*
X134602224Y-153466114D01*
X134602223Y-153466111D01*
X134542183Y-153268185D01*
X134521910Y-153062349D01*
X134542183Y-152856513D01*
X134602223Y-152658587D01*
X134602224Y-152658584D01*
X134699722Y-152476179D01*
X134830935Y-152316294D01*
X134990820Y-152185081D01*
X135173225Y-152087583D01*
X135173228Y-152087582D01*
X135371154Y-152027542D01*
X135448283Y-152019946D01*
X135525410Y-152012349D01*
X135628570Y-152012349D01*
X135705697Y-152019946D01*
X135705697Y-152019946D01*
G37*
G36*
X107765697Y-152019946D02*
G01*
X107842826Y-152027542D01*
X108040752Y-152087582D01*
X108040755Y-152087583D01*
X108223160Y-152185081D01*
X108383045Y-152316294D01*
X108514258Y-152476179D01*
X108611756Y-152658584D01*
X108611757Y-152658587D01*
X108671797Y-152856513D01*
X108692070Y-153062349D01*
X108671797Y-153268185D01*
X108611757Y-153466111D01*
X108611756Y-153466114D01*
X108514258Y-153648519D01*
X108383045Y-153808404D01*
X108223160Y-153939617D01*
X108040755Y-154037115D01*
X108040752Y-154037116D01*
X107842826Y-154097156D01*
X107765697Y-154104752D01*
X107688570Y-154112349D01*
X107585410Y-154112349D01*
X107508283Y-154104752D01*
X107431154Y-154097156D01*
X107233228Y-154037116D01*
X107233225Y-154037115D01*
X107050820Y-153939617D01*
X106890935Y-153808404D01*
X106759722Y-153648519D01*
X106662224Y-153466114D01*
X106662223Y-153466111D01*
X106602183Y-153268185D01*
X106581910Y-153062349D01*
X106602183Y-152856513D01*
X106662223Y-152658587D01*
X106662224Y-152658584D01*
X106759722Y-152476179D01*
X106890935Y-152316294D01*
X107050820Y-152185081D01*
X107233225Y-152087583D01*
X107233228Y-152087582D01*
X107431154Y-152027542D01*
X107508283Y-152019946D01*
X107585410Y-152012349D01*
X107688570Y-152012349D01*
X107765697Y-152019946D01*
X107765697Y-152019946D01*
G37*
G36*
X130625697Y-152019946D02*
G01*
X130702826Y-152027542D01*
X130900752Y-152087582D01*
X130900755Y-152087583D01*
X131083160Y-152185081D01*
X131243045Y-152316294D01*
X131374258Y-152476179D01*
X131471756Y-152658584D01*
X131471757Y-152658587D01*
X131531797Y-152856513D01*
X131552070Y-153062349D01*
X131531797Y-153268185D01*
X131471757Y-153466111D01*
X131471756Y-153466114D01*
X131374258Y-153648519D01*
X131243045Y-153808404D01*
X131083160Y-153939617D01*
X130900755Y-154037115D01*
X130900752Y-154037116D01*
X130702826Y-154097156D01*
X130625697Y-154104752D01*
X130548570Y-154112349D01*
X130445410Y-154112349D01*
X130368283Y-154104752D01*
X130291154Y-154097156D01*
X130093228Y-154037116D01*
X130093225Y-154037115D01*
X129910820Y-153939617D01*
X129750935Y-153808404D01*
X129619722Y-153648519D01*
X129522224Y-153466114D01*
X129522223Y-153466111D01*
X129462183Y-153268185D01*
X129441910Y-153062349D01*
X129462183Y-152856513D01*
X129522223Y-152658587D01*
X129522224Y-152658584D01*
X129619722Y-152476179D01*
X129750935Y-152316294D01*
X129910820Y-152185081D01*
X130093225Y-152087583D01*
X130093228Y-152087582D01*
X130291154Y-152027542D01*
X130368283Y-152019946D01*
X130445410Y-152012349D01*
X130548570Y-152012349D01*
X130625697Y-152019946D01*
X130625697Y-152019946D01*
G37*
G36*
X128085697Y-152019946D02*
G01*
X128162826Y-152027542D01*
X128360752Y-152087582D01*
X128360755Y-152087583D01*
X128543160Y-152185081D01*
X128703045Y-152316294D01*
X128834258Y-152476179D01*
X128931756Y-152658584D01*
X128931757Y-152658587D01*
X128991797Y-152856513D01*
X129012070Y-153062349D01*
X128991797Y-153268185D01*
X128931757Y-153466111D01*
X128931756Y-153466114D01*
X128834258Y-153648519D01*
X128703045Y-153808404D01*
X128543160Y-153939617D01*
X128360755Y-154037115D01*
X128360752Y-154037116D01*
X128162826Y-154097156D01*
X128085697Y-154104752D01*
X128008570Y-154112349D01*
X127905410Y-154112349D01*
X127828283Y-154104752D01*
X127751154Y-154097156D01*
X127553228Y-154037116D01*
X127553225Y-154037115D01*
X127370820Y-153939617D01*
X127210935Y-153808404D01*
X127079722Y-153648519D01*
X126982224Y-153466114D01*
X126982223Y-153466111D01*
X126922183Y-153268185D01*
X126901910Y-153062349D01*
X126922183Y-152856513D01*
X126982223Y-152658587D01*
X126982224Y-152658584D01*
X127079722Y-152476179D01*
X127210935Y-152316294D01*
X127370820Y-152185081D01*
X127553225Y-152087583D01*
X127553228Y-152087582D01*
X127751154Y-152027542D01*
X127828283Y-152019946D01*
X127905410Y-152012349D01*
X128008570Y-152012349D01*
X128085697Y-152019946D01*
X128085697Y-152019946D01*
G37*
G36*
X125545697Y-152019946D02*
G01*
X125622826Y-152027542D01*
X125820752Y-152087582D01*
X125820755Y-152087583D01*
X126003160Y-152185081D01*
X126163045Y-152316294D01*
X126294258Y-152476179D01*
X126391756Y-152658584D01*
X126391757Y-152658587D01*
X126451797Y-152856513D01*
X126472070Y-153062349D01*
X126451797Y-153268185D01*
X126391757Y-153466111D01*
X126391756Y-153466114D01*
X126294258Y-153648519D01*
X126163045Y-153808404D01*
X126003160Y-153939617D01*
X125820755Y-154037115D01*
X125820752Y-154037116D01*
X125622826Y-154097156D01*
X125545697Y-154104752D01*
X125468570Y-154112349D01*
X125365410Y-154112349D01*
X125288283Y-154104752D01*
X125211154Y-154097156D01*
X125013228Y-154037116D01*
X125013225Y-154037115D01*
X124830820Y-153939617D01*
X124670935Y-153808404D01*
X124539722Y-153648519D01*
X124442224Y-153466114D01*
X124442223Y-153466111D01*
X124382183Y-153268185D01*
X124361910Y-153062349D01*
X124382183Y-152856513D01*
X124442223Y-152658587D01*
X124442224Y-152658584D01*
X124539722Y-152476179D01*
X124670935Y-152316294D01*
X124830820Y-152185081D01*
X125013225Y-152087583D01*
X125013228Y-152087582D01*
X125211154Y-152027542D01*
X125288283Y-152019946D01*
X125365410Y-152012349D01*
X125468570Y-152012349D01*
X125545697Y-152019946D01*
X125545697Y-152019946D01*
G37*
G36*
X123005697Y-152019946D02*
G01*
X123082826Y-152027542D01*
X123280752Y-152087582D01*
X123280755Y-152087583D01*
X123463160Y-152185081D01*
X123623045Y-152316294D01*
X123754258Y-152476179D01*
X123851756Y-152658584D01*
X123851757Y-152658587D01*
X123911797Y-152856513D01*
X123932070Y-153062349D01*
X123911797Y-153268185D01*
X123851757Y-153466111D01*
X123851756Y-153466114D01*
X123754258Y-153648519D01*
X123623045Y-153808404D01*
X123463160Y-153939617D01*
X123280755Y-154037115D01*
X123280752Y-154037116D01*
X123082826Y-154097156D01*
X123005697Y-154104752D01*
X122928570Y-154112349D01*
X122825410Y-154112349D01*
X122748283Y-154104752D01*
X122671154Y-154097156D01*
X122473228Y-154037116D01*
X122473225Y-154037115D01*
X122290820Y-153939617D01*
X122130935Y-153808404D01*
X121999722Y-153648519D01*
X121902224Y-153466114D01*
X121902223Y-153466111D01*
X121842183Y-153268185D01*
X121821910Y-153062349D01*
X121842183Y-152856513D01*
X121902223Y-152658587D01*
X121902224Y-152658584D01*
X121999722Y-152476179D01*
X122130935Y-152316294D01*
X122290820Y-152185081D01*
X122473225Y-152087583D01*
X122473228Y-152087582D01*
X122671154Y-152027542D01*
X122748283Y-152019946D01*
X122825410Y-152012349D01*
X122928570Y-152012349D01*
X123005697Y-152019946D01*
X123005697Y-152019946D01*
G37*
G36*
X120465697Y-152019946D02*
G01*
X120542826Y-152027542D01*
X120740752Y-152087582D01*
X120740755Y-152087583D01*
X120923160Y-152185081D01*
X121083045Y-152316294D01*
X121214258Y-152476179D01*
X121311756Y-152658584D01*
X121311757Y-152658587D01*
X121371797Y-152856513D01*
X121392070Y-153062349D01*
X121371797Y-153268185D01*
X121311757Y-153466111D01*
X121311756Y-153466114D01*
X121214258Y-153648519D01*
X121083045Y-153808404D01*
X120923160Y-153939617D01*
X120740755Y-154037115D01*
X120740752Y-154037116D01*
X120542826Y-154097156D01*
X120465697Y-154104752D01*
X120388570Y-154112349D01*
X120285410Y-154112349D01*
X120208283Y-154104752D01*
X120131154Y-154097156D01*
X119933228Y-154037116D01*
X119933225Y-154037115D01*
X119750820Y-153939617D01*
X119590935Y-153808404D01*
X119459722Y-153648519D01*
X119362224Y-153466114D01*
X119362223Y-153466111D01*
X119302183Y-153268185D01*
X119281910Y-153062349D01*
X119302183Y-152856513D01*
X119362223Y-152658587D01*
X119362224Y-152658584D01*
X119459722Y-152476179D01*
X119590935Y-152316294D01*
X119750820Y-152185081D01*
X119933225Y-152087583D01*
X119933228Y-152087582D01*
X120131154Y-152027542D01*
X120208283Y-152019946D01*
X120285410Y-152012349D01*
X120388570Y-152012349D01*
X120465697Y-152019946D01*
X120465697Y-152019946D01*
G37*
G36*
X117925697Y-152019946D02*
G01*
X118002826Y-152027542D01*
X118200752Y-152087582D01*
X118200755Y-152087583D01*
X118383160Y-152185081D01*
X118543045Y-152316294D01*
X118674258Y-152476179D01*
X118771756Y-152658584D01*
X118771757Y-152658587D01*
X118831797Y-152856513D01*
X118852070Y-153062349D01*
X118831797Y-153268185D01*
X118771757Y-153466111D01*
X118771756Y-153466114D01*
X118674258Y-153648519D01*
X118543045Y-153808404D01*
X118383160Y-153939617D01*
X118200755Y-154037115D01*
X118200752Y-154037116D01*
X118002826Y-154097156D01*
X117925697Y-154104752D01*
X117848570Y-154112349D01*
X117745410Y-154112349D01*
X117668283Y-154104752D01*
X117591154Y-154097156D01*
X117393228Y-154037116D01*
X117393225Y-154037115D01*
X117210820Y-153939617D01*
X117050935Y-153808404D01*
X116919722Y-153648519D01*
X116822224Y-153466114D01*
X116822223Y-153466111D01*
X116762183Y-153268185D01*
X116741910Y-153062349D01*
X116762183Y-152856513D01*
X116822223Y-152658587D01*
X116822224Y-152658584D01*
X116919722Y-152476179D01*
X117050935Y-152316294D01*
X117210820Y-152185081D01*
X117393225Y-152087583D01*
X117393228Y-152087582D01*
X117591154Y-152027542D01*
X117668283Y-152019946D01*
X117745410Y-152012349D01*
X117848570Y-152012349D01*
X117925697Y-152019946D01*
X117925697Y-152019946D01*
G37*
G36*
X115385697Y-152019946D02*
G01*
X115462826Y-152027542D01*
X115660752Y-152087582D01*
X115660755Y-152087583D01*
X115843160Y-152185081D01*
X116003045Y-152316294D01*
X116134258Y-152476179D01*
X116231756Y-152658584D01*
X116231757Y-152658587D01*
X116291797Y-152856513D01*
X116312070Y-153062349D01*
X116291797Y-153268185D01*
X116231757Y-153466111D01*
X116231756Y-153466114D01*
X116134258Y-153648519D01*
X116003045Y-153808404D01*
X115843160Y-153939617D01*
X115660755Y-154037115D01*
X115660752Y-154037116D01*
X115462826Y-154097156D01*
X115385697Y-154104752D01*
X115308570Y-154112349D01*
X115205410Y-154112349D01*
X115128283Y-154104752D01*
X115051154Y-154097156D01*
X114853228Y-154037116D01*
X114853225Y-154037115D01*
X114670820Y-153939617D01*
X114510935Y-153808404D01*
X114379722Y-153648519D01*
X114282224Y-153466114D01*
X114282223Y-153466111D01*
X114222183Y-153268185D01*
X114201910Y-153062349D01*
X114222183Y-152856513D01*
X114282223Y-152658587D01*
X114282224Y-152658584D01*
X114379722Y-152476179D01*
X114510935Y-152316294D01*
X114670820Y-152185081D01*
X114853225Y-152087583D01*
X114853228Y-152087582D01*
X115051154Y-152027542D01*
X115128283Y-152019946D01*
X115205410Y-152012349D01*
X115308570Y-152012349D01*
X115385697Y-152019946D01*
X115385697Y-152019946D01*
G37*
G36*
X112845697Y-152019946D02*
G01*
X112922826Y-152027542D01*
X113120752Y-152087582D01*
X113120755Y-152087583D01*
X113303160Y-152185081D01*
X113463045Y-152316294D01*
X113594258Y-152476179D01*
X113691756Y-152658584D01*
X113691757Y-152658587D01*
X113751797Y-152856513D01*
X113772070Y-153062349D01*
X113751797Y-153268185D01*
X113691757Y-153466111D01*
X113691756Y-153466114D01*
X113594258Y-153648519D01*
X113463045Y-153808404D01*
X113303160Y-153939617D01*
X113120755Y-154037115D01*
X113120752Y-154037116D01*
X112922826Y-154097156D01*
X112845697Y-154104752D01*
X112768570Y-154112349D01*
X112665410Y-154112349D01*
X112588283Y-154104752D01*
X112511154Y-154097156D01*
X112313228Y-154037116D01*
X112313225Y-154037115D01*
X112130820Y-153939617D01*
X111970935Y-153808404D01*
X111839722Y-153648519D01*
X111742224Y-153466114D01*
X111742223Y-153466111D01*
X111682183Y-153268185D01*
X111661910Y-153062349D01*
X111682183Y-152856513D01*
X111742223Y-152658587D01*
X111742224Y-152658584D01*
X111839722Y-152476179D01*
X111970935Y-152316294D01*
X112130820Y-152185081D01*
X112313225Y-152087583D01*
X112313228Y-152087582D01*
X112511154Y-152027542D01*
X112588283Y-152019946D01*
X112665410Y-152012349D01*
X112768570Y-152012349D01*
X112845697Y-152019946D01*
X112845697Y-152019946D01*
G37*
G36*
X133165697Y-152019946D02*
G01*
X133242826Y-152027542D01*
X133440752Y-152087582D01*
X133440755Y-152087583D01*
X133623160Y-152185081D01*
X133783045Y-152316294D01*
X133914258Y-152476179D01*
X134011756Y-152658584D01*
X134011757Y-152658587D01*
X134071797Y-152856513D01*
X134092070Y-153062349D01*
X134071797Y-153268185D01*
X134011757Y-153466111D01*
X134011756Y-153466114D01*
X133914258Y-153648519D01*
X133783045Y-153808404D01*
X133623160Y-153939617D01*
X133440755Y-154037115D01*
X133440752Y-154037116D01*
X133242826Y-154097156D01*
X133165697Y-154104752D01*
X133088570Y-154112349D01*
X132985410Y-154112349D01*
X132908283Y-154104752D01*
X132831154Y-154097156D01*
X132633228Y-154037116D01*
X132633225Y-154037115D01*
X132450820Y-153939617D01*
X132290935Y-153808404D01*
X132159722Y-153648519D01*
X132062224Y-153466114D01*
X132062223Y-153466111D01*
X132002183Y-153268185D01*
X131981910Y-153062349D01*
X132002183Y-152856513D01*
X132062223Y-152658587D01*
X132062224Y-152658584D01*
X132159722Y-152476179D01*
X132290935Y-152316294D01*
X132450820Y-152185081D01*
X132633225Y-152087583D01*
X132633228Y-152087582D01*
X132831154Y-152027542D01*
X132908283Y-152019946D01*
X132985410Y-152012349D01*
X133088570Y-152012349D01*
X133165697Y-152019946D01*
X133165697Y-152019946D01*
G37*
G36*
X103069380Y-150272131D02*
G01*
X103219108Y-150301914D01*
X103335950Y-150350312D01*
X103501189Y-150418756D01*
X103501190Y-150418757D01*
X103755058Y-150588385D01*
X103970954Y-150804281D01*
X104084296Y-150973910D01*
X104140583Y-151058150D01*
X104209027Y-151223389D01*
X104257425Y-151340231D01*
X104316990Y-151639687D01*
X104316990Y-151945011D01*
X104269238Y-152185081D01*
X104257425Y-152244466D01*
X104140583Y-152526548D01*
X104140582Y-152526549D01*
X103970954Y-152780417D01*
X103755058Y-152996313D01*
X103656227Y-153062349D01*
X103501189Y-153165942D01*
X103335950Y-153234386D01*
X103219108Y-153282784D01*
X103069380Y-153312567D01*
X102919653Y-153342349D01*
X102614327Y-153342349D01*
X102464600Y-153312567D01*
X102314872Y-153282784D01*
X102198030Y-153234386D01*
X102032791Y-153165942D01*
X101877753Y-153062349D01*
X101778922Y-152996313D01*
X101563026Y-152780417D01*
X101393398Y-152526549D01*
X101393397Y-152526548D01*
X101276555Y-152244466D01*
X101264743Y-152185081D01*
X101216990Y-151945011D01*
X101216990Y-151639687D01*
X101276555Y-151340231D01*
X101324953Y-151223389D01*
X101393397Y-151058150D01*
X101449684Y-150973910D01*
X101563026Y-150804281D01*
X101778922Y-150588385D01*
X102032790Y-150418757D01*
X102032791Y-150418756D01*
X102198030Y-150350312D01*
X102314872Y-150301914D01*
X102464600Y-150272131D01*
X102614327Y-150242349D01*
X102919653Y-150242349D01*
X103069380Y-150272131D01*
X103069380Y-150272131D01*
G37*
G36*
X161069380Y-150272131D02*
G01*
X161219108Y-150301914D01*
X161335950Y-150350312D01*
X161501189Y-150418756D01*
X161501190Y-150418757D01*
X161755058Y-150588385D01*
X161970954Y-150804281D01*
X162084296Y-150973910D01*
X162140583Y-151058150D01*
X162209027Y-151223389D01*
X162257425Y-151340231D01*
X162316990Y-151639687D01*
X162316990Y-151945011D01*
X162269238Y-152185081D01*
X162257425Y-152244466D01*
X162140583Y-152526548D01*
X162140582Y-152526549D01*
X161970954Y-152780417D01*
X161755058Y-152996313D01*
X161656227Y-153062349D01*
X161501189Y-153165942D01*
X161335950Y-153234386D01*
X161219108Y-153282784D01*
X161069380Y-153312567D01*
X160919653Y-153342349D01*
X160614327Y-153342349D01*
X160464600Y-153312567D01*
X160314872Y-153282784D01*
X160198030Y-153234386D01*
X160032791Y-153165942D01*
X159877753Y-153062349D01*
X159778922Y-152996313D01*
X159563026Y-152780417D01*
X159393398Y-152526549D01*
X159393397Y-152526548D01*
X159276555Y-152244466D01*
X159264743Y-152185081D01*
X159216990Y-151945011D01*
X159216990Y-151639687D01*
X159276555Y-151340231D01*
X159324953Y-151223389D01*
X159393397Y-151058150D01*
X159449684Y-150973910D01*
X159563026Y-150804281D01*
X159778922Y-150588385D01*
X160032790Y-150418757D01*
X160032791Y-150418756D01*
X160198030Y-150350312D01*
X160314872Y-150301914D01*
X160464600Y-150272131D01*
X160614327Y-150242349D01*
X160919653Y-150242349D01*
X161069380Y-150272131D01*
X161069380Y-150272131D01*
G37*
G36*
X148405697Y-149479945D02*
G01*
X148482826Y-149487542D01*
X148680752Y-149547582D01*
X148680755Y-149547583D01*
X148863160Y-149645081D01*
X149023045Y-149776294D01*
X149154258Y-149936179D01*
X149251756Y-150118584D01*
X149251757Y-150118587D01*
X149311797Y-150316513D01*
X149332070Y-150522349D01*
X149311797Y-150728185D01*
X149288713Y-150804282D01*
X149251756Y-150926114D01*
X149154258Y-151108519D01*
X149023045Y-151268404D01*
X148863160Y-151399617D01*
X148680755Y-151497115D01*
X148680752Y-151497116D01*
X148482826Y-151557156D01*
X148405697Y-151564753D01*
X148328570Y-151572349D01*
X148225410Y-151572349D01*
X148148283Y-151564753D01*
X148071154Y-151557156D01*
X147873228Y-151497116D01*
X147873225Y-151497115D01*
X147690820Y-151399617D01*
X147530935Y-151268404D01*
X147399722Y-151108519D01*
X147302224Y-150926114D01*
X147265267Y-150804282D01*
X147242183Y-150728185D01*
X147221910Y-150522349D01*
X147242183Y-150316513D01*
X147302223Y-150118587D01*
X147302224Y-150118584D01*
X147399722Y-149936179D01*
X147530935Y-149776294D01*
X147690820Y-149645081D01*
X147873225Y-149547583D01*
X147873228Y-149547582D01*
X148071154Y-149487542D01*
X148148283Y-149479945D01*
X148225410Y-149472349D01*
X148328570Y-149472349D01*
X148405697Y-149479945D01*
X148405697Y-149479945D01*
G37*
G36*
X107765697Y-149479945D02*
G01*
X107842826Y-149487542D01*
X108040752Y-149547582D01*
X108040755Y-149547583D01*
X108223160Y-149645081D01*
X108383045Y-149776294D01*
X108514258Y-149936179D01*
X108611756Y-150118584D01*
X108611757Y-150118587D01*
X108671797Y-150316513D01*
X108692070Y-150522349D01*
X108671797Y-150728185D01*
X108648713Y-150804282D01*
X108611756Y-150926114D01*
X108514258Y-151108519D01*
X108383045Y-151268404D01*
X108223160Y-151399617D01*
X108040755Y-151497115D01*
X108040752Y-151497116D01*
X107842826Y-151557156D01*
X107765697Y-151564753D01*
X107688570Y-151572349D01*
X107585410Y-151572349D01*
X107508283Y-151564753D01*
X107431154Y-151557156D01*
X107233228Y-151497116D01*
X107233225Y-151497115D01*
X107050820Y-151399617D01*
X106890935Y-151268404D01*
X106759722Y-151108519D01*
X106662224Y-150926114D01*
X106625267Y-150804282D01*
X106602183Y-150728185D01*
X106581910Y-150522349D01*
X106602183Y-150316513D01*
X106662223Y-150118587D01*
X106662224Y-150118584D01*
X106759722Y-149936179D01*
X106890935Y-149776294D01*
X107050820Y-149645081D01*
X107233225Y-149547583D01*
X107233228Y-149547582D01*
X107431154Y-149487542D01*
X107508283Y-149479945D01*
X107585410Y-149472349D01*
X107688570Y-149472349D01*
X107765697Y-149479945D01*
X107765697Y-149479945D01*
G37*
G36*
X110305697Y-149479945D02*
G01*
X110382826Y-149487542D01*
X110580752Y-149547582D01*
X110580755Y-149547583D01*
X110763160Y-149645081D01*
X110923045Y-149776294D01*
X111054258Y-149936179D01*
X111151756Y-150118584D01*
X111151757Y-150118587D01*
X111211797Y-150316513D01*
X111232070Y-150522349D01*
X111211797Y-150728185D01*
X111188713Y-150804282D01*
X111151756Y-150926114D01*
X111054258Y-151108519D01*
X110923045Y-151268404D01*
X110763160Y-151399617D01*
X110580755Y-151497115D01*
X110580752Y-151497116D01*
X110382826Y-151557156D01*
X110305697Y-151564753D01*
X110228570Y-151572349D01*
X110125410Y-151572349D01*
X110048283Y-151564753D01*
X109971154Y-151557156D01*
X109773228Y-151497116D01*
X109773225Y-151497115D01*
X109590820Y-151399617D01*
X109430935Y-151268404D01*
X109299722Y-151108519D01*
X109202224Y-150926114D01*
X109165267Y-150804282D01*
X109142183Y-150728185D01*
X109121910Y-150522349D01*
X109142183Y-150316513D01*
X109202223Y-150118587D01*
X109202224Y-150118584D01*
X109299722Y-149936179D01*
X109430935Y-149776294D01*
X109590820Y-149645081D01*
X109773225Y-149547583D01*
X109773228Y-149547582D01*
X109971154Y-149487542D01*
X110048283Y-149479945D01*
X110125410Y-149472349D01*
X110228570Y-149472349D01*
X110305697Y-149479945D01*
X110305697Y-149479945D01*
G37*
G36*
X112845697Y-149479945D02*
G01*
X112922826Y-149487542D01*
X113120752Y-149547582D01*
X113120755Y-149547583D01*
X113303160Y-149645081D01*
X113463045Y-149776294D01*
X113594258Y-149936179D01*
X113691756Y-150118584D01*
X113691757Y-150118587D01*
X113751797Y-150316513D01*
X113772070Y-150522349D01*
X113751797Y-150728185D01*
X113728713Y-150804282D01*
X113691756Y-150926114D01*
X113594258Y-151108519D01*
X113463045Y-151268404D01*
X113303160Y-151399617D01*
X113120755Y-151497115D01*
X113120752Y-151497116D01*
X112922826Y-151557156D01*
X112845697Y-151564753D01*
X112768570Y-151572349D01*
X112665410Y-151572349D01*
X112588283Y-151564753D01*
X112511154Y-151557156D01*
X112313228Y-151497116D01*
X112313225Y-151497115D01*
X112130820Y-151399617D01*
X111970935Y-151268404D01*
X111839722Y-151108519D01*
X111742224Y-150926114D01*
X111705267Y-150804282D01*
X111682183Y-150728185D01*
X111661910Y-150522349D01*
X111682183Y-150316513D01*
X111742223Y-150118587D01*
X111742224Y-150118584D01*
X111839722Y-149936179D01*
X111970935Y-149776294D01*
X112130820Y-149645081D01*
X112313225Y-149547583D01*
X112313228Y-149547582D01*
X112511154Y-149487542D01*
X112588283Y-149479945D01*
X112665410Y-149472349D01*
X112768570Y-149472349D01*
X112845697Y-149479945D01*
X112845697Y-149479945D01*
G37*
G36*
X115385697Y-149479945D02*
G01*
X115462826Y-149487542D01*
X115660752Y-149547582D01*
X115660755Y-149547583D01*
X115843160Y-149645081D01*
X116003045Y-149776294D01*
X116134258Y-149936179D01*
X116231756Y-150118584D01*
X116231757Y-150118587D01*
X116291797Y-150316513D01*
X116312070Y-150522349D01*
X116291797Y-150728185D01*
X116268713Y-150804282D01*
X116231756Y-150926114D01*
X116134258Y-151108519D01*
X116003045Y-151268404D01*
X115843160Y-151399617D01*
X115660755Y-151497115D01*
X115660752Y-151497116D01*
X115462826Y-151557156D01*
X115385697Y-151564753D01*
X115308570Y-151572349D01*
X115205410Y-151572349D01*
X115128283Y-151564753D01*
X115051154Y-151557156D01*
X114853228Y-151497116D01*
X114853225Y-151497115D01*
X114670820Y-151399617D01*
X114510935Y-151268404D01*
X114379722Y-151108519D01*
X114282224Y-150926114D01*
X114245267Y-150804282D01*
X114222183Y-150728185D01*
X114201910Y-150522349D01*
X114222183Y-150316513D01*
X114282223Y-150118587D01*
X114282224Y-150118584D01*
X114379722Y-149936179D01*
X114510935Y-149776294D01*
X114670820Y-149645081D01*
X114853225Y-149547583D01*
X114853228Y-149547582D01*
X115051154Y-149487542D01*
X115128283Y-149479945D01*
X115205410Y-149472349D01*
X115308570Y-149472349D01*
X115385697Y-149479945D01*
X115385697Y-149479945D01*
G37*
G36*
X117925697Y-149479945D02*
G01*
X118002826Y-149487542D01*
X118200752Y-149547582D01*
X118200755Y-149547583D01*
X118383160Y-149645081D01*
X118543045Y-149776294D01*
X118674258Y-149936179D01*
X118771756Y-150118584D01*
X118771757Y-150118587D01*
X118831797Y-150316513D01*
X118852070Y-150522349D01*
X118831797Y-150728185D01*
X118808713Y-150804282D01*
X118771756Y-150926114D01*
X118674258Y-151108519D01*
X118543045Y-151268404D01*
X118383160Y-151399617D01*
X118200755Y-151497115D01*
X118200752Y-151497116D01*
X118002826Y-151557156D01*
X117925697Y-151564753D01*
X117848570Y-151572349D01*
X117745410Y-151572349D01*
X117668283Y-151564753D01*
X117591154Y-151557156D01*
X117393228Y-151497116D01*
X117393225Y-151497115D01*
X117210820Y-151399617D01*
X117050935Y-151268404D01*
X116919722Y-151108519D01*
X116822224Y-150926114D01*
X116785267Y-150804282D01*
X116762183Y-150728185D01*
X116741910Y-150522349D01*
X116762183Y-150316513D01*
X116822223Y-150118587D01*
X116822224Y-150118584D01*
X116919722Y-149936179D01*
X117050935Y-149776294D01*
X117210820Y-149645081D01*
X117393225Y-149547583D01*
X117393228Y-149547582D01*
X117591154Y-149487542D01*
X117668283Y-149479945D01*
X117745410Y-149472349D01*
X117848570Y-149472349D01*
X117925697Y-149479945D01*
X117925697Y-149479945D01*
G37*
G36*
X125545697Y-149479945D02*
G01*
X125622826Y-149487542D01*
X125820752Y-149547582D01*
X125820755Y-149547583D01*
X126003160Y-149645081D01*
X126163045Y-149776294D01*
X126294258Y-149936179D01*
X126391756Y-150118584D01*
X126391757Y-150118587D01*
X126451797Y-150316513D01*
X126472070Y-150522349D01*
X126451797Y-150728185D01*
X126428713Y-150804282D01*
X126391756Y-150926114D01*
X126294258Y-151108519D01*
X126163045Y-151268404D01*
X126003160Y-151399617D01*
X125820755Y-151497115D01*
X125820752Y-151497116D01*
X125622826Y-151557156D01*
X125545697Y-151564753D01*
X125468570Y-151572349D01*
X125365410Y-151572349D01*
X125288283Y-151564753D01*
X125211154Y-151557156D01*
X125013228Y-151497116D01*
X125013225Y-151497115D01*
X124830820Y-151399617D01*
X124670935Y-151268404D01*
X124539722Y-151108519D01*
X124442224Y-150926114D01*
X124405267Y-150804282D01*
X124382183Y-150728185D01*
X124361910Y-150522349D01*
X124382183Y-150316513D01*
X124442223Y-150118587D01*
X124442224Y-150118584D01*
X124539722Y-149936179D01*
X124670935Y-149776294D01*
X124830820Y-149645081D01*
X125013225Y-149547583D01*
X125013228Y-149547582D01*
X125211154Y-149487542D01*
X125288283Y-149479945D01*
X125365410Y-149472349D01*
X125468570Y-149472349D01*
X125545697Y-149479945D01*
X125545697Y-149479945D01*
G37*
G36*
X123005697Y-149479945D02*
G01*
X123082826Y-149487542D01*
X123280752Y-149547582D01*
X123280755Y-149547583D01*
X123463160Y-149645081D01*
X123623045Y-149776294D01*
X123754258Y-149936179D01*
X123851756Y-150118584D01*
X123851757Y-150118587D01*
X123911797Y-150316513D01*
X123932070Y-150522349D01*
X123911797Y-150728185D01*
X123888713Y-150804282D01*
X123851756Y-150926114D01*
X123754258Y-151108519D01*
X123623045Y-151268404D01*
X123463160Y-151399617D01*
X123280755Y-151497115D01*
X123280752Y-151497116D01*
X123082826Y-151557156D01*
X123005697Y-151564753D01*
X122928570Y-151572349D01*
X122825410Y-151572349D01*
X122748283Y-151564753D01*
X122671154Y-151557156D01*
X122473228Y-151497116D01*
X122473225Y-151497115D01*
X122290820Y-151399617D01*
X122130935Y-151268404D01*
X121999722Y-151108519D01*
X121902224Y-150926114D01*
X121865267Y-150804282D01*
X121842183Y-150728185D01*
X121821910Y-150522349D01*
X121842183Y-150316513D01*
X121902223Y-150118587D01*
X121902224Y-150118584D01*
X121999722Y-149936179D01*
X122130935Y-149776294D01*
X122290820Y-149645081D01*
X122473225Y-149547583D01*
X122473228Y-149547582D01*
X122671154Y-149487542D01*
X122748283Y-149479945D01*
X122825410Y-149472349D01*
X122928570Y-149472349D01*
X123005697Y-149479945D01*
X123005697Y-149479945D01*
G37*
G36*
X153485697Y-149479945D02*
G01*
X153562826Y-149487542D01*
X153760752Y-149547582D01*
X153760755Y-149547583D01*
X153943160Y-149645081D01*
X154103045Y-149776294D01*
X154234258Y-149936179D01*
X154331756Y-150118584D01*
X154331757Y-150118587D01*
X154391797Y-150316513D01*
X154412070Y-150522349D01*
X154391797Y-150728185D01*
X154368713Y-150804282D01*
X154331756Y-150926114D01*
X154234258Y-151108519D01*
X154103045Y-151268404D01*
X153943160Y-151399617D01*
X153760755Y-151497115D01*
X153760752Y-151497116D01*
X153562826Y-151557156D01*
X153485697Y-151564753D01*
X153408570Y-151572349D01*
X153305410Y-151572349D01*
X153228283Y-151564753D01*
X153151154Y-151557156D01*
X152953228Y-151497116D01*
X152953225Y-151497115D01*
X152770820Y-151399617D01*
X152610935Y-151268404D01*
X152479722Y-151108519D01*
X152382224Y-150926114D01*
X152345267Y-150804282D01*
X152322183Y-150728185D01*
X152301910Y-150522349D01*
X152322183Y-150316513D01*
X152382223Y-150118587D01*
X152382224Y-150118584D01*
X152479722Y-149936179D01*
X152610935Y-149776294D01*
X152770820Y-149645081D01*
X152953225Y-149547583D01*
X152953228Y-149547582D01*
X153151154Y-149487542D01*
X153228283Y-149479945D01*
X153305410Y-149472349D01*
X153408570Y-149472349D01*
X153485697Y-149479945D01*
X153485697Y-149479945D01*
G37*
G36*
X150945697Y-149479945D02*
G01*
X151022826Y-149487542D01*
X151220752Y-149547582D01*
X151220755Y-149547583D01*
X151403160Y-149645081D01*
X151563045Y-149776294D01*
X151694258Y-149936179D01*
X151791756Y-150118584D01*
X151791757Y-150118587D01*
X151851797Y-150316513D01*
X151872070Y-150522349D01*
X151851797Y-150728185D01*
X151828713Y-150804282D01*
X151791756Y-150926114D01*
X151694258Y-151108519D01*
X151563045Y-151268404D01*
X151403160Y-151399617D01*
X151220755Y-151497115D01*
X151220752Y-151497116D01*
X151022826Y-151557156D01*
X150945697Y-151564753D01*
X150868570Y-151572349D01*
X150765410Y-151572349D01*
X150688283Y-151564753D01*
X150611154Y-151557156D01*
X150413228Y-151497116D01*
X150413225Y-151497115D01*
X150230820Y-151399617D01*
X150070935Y-151268404D01*
X149939722Y-151108519D01*
X149842224Y-150926114D01*
X149805267Y-150804282D01*
X149782183Y-150728185D01*
X149761910Y-150522349D01*
X149782183Y-150316513D01*
X149842223Y-150118587D01*
X149842224Y-150118584D01*
X149939722Y-149936179D01*
X150070935Y-149776294D01*
X150230820Y-149645081D01*
X150413225Y-149547583D01*
X150413228Y-149547582D01*
X150611154Y-149487542D01*
X150688283Y-149479945D01*
X150765410Y-149472349D01*
X150868570Y-149472349D01*
X150945697Y-149479945D01*
X150945697Y-149479945D01*
G37*
G36*
X156946990Y-151572349D02*
G01*
X154846990Y-151572349D01*
X154846990Y-149472349D01*
X156946990Y-149472349D01*
X156946990Y-151572349D01*
X156946990Y-151572349D01*
G37*
G36*
X135705697Y-149479945D02*
G01*
X135782826Y-149487542D01*
X135980752Y-149547582D01*
X135980755Y-149547583D01*
X136163160Y-149645081D01*
X136323045Y-149776294D01*
X136454258Y-149936179D01*
X136551756Y-150118584D01*
X136551757Y-150118587D01*
X136611797Y-150316513D01*
X136632070Y-150522349D01*
X136611797Y-150728185D01*
X136588713Y-150804282D01*
X136551756Y-150926114D01*
X136454258Y-151108519D01*
X136323045Y-151268404D01*
X136163160Y-151399617D01*
X135980755Y-151497115D01*
X135980752Y-151497116D01*
X135782826Y-151557156D01*
X135705697Y-151564753D01*
X135628570Y-151572349D01*
X135525410Y-151572349D01*
X135448283Y-151564753D01*
X135371154Y-151557156D01*
X135173228Y-151497116D01*
X135173225Y-151497115D01*
X134990820Y-151399617D01*
X134830935Y-151268404D01*
X134699722Y-151108519D01*
X134602224Y-150926114D01*
X134565267Y-150804282D01*
X134542183Y-150728185D01*
X134521910Y-150522349D01*
X134542183Y-150316513D01*
X134602223Y-150118587D01*
X134602224Y-150118584D01*
X134699722Y-149936179D01*
X134830935Y-149776294D01*
X134990820Y-149645081D01*
X135173225Y-149547583D01*
X135173228Y-149547582D01*
X135371154Y-149487542D01*
X135448283Y-149479945D01*
X135525410Y-149472349D01*
X135628570Y-149472349D01*
X135705697Y-149479945D01*
X135705697Y-149479945D01*
G37*
G36*
X133165697Y-149479945D02*
G01*
X133242826Y-149487542D01*
X133440752Y-149547582D01*
X133440755Y-149547583D01*
X133623160Y-149645081D01*
X133783045Y-149776294D01*
X133914258Y-149936179D01*
X134011756Y-150118584D01*
X134011757Y-150118587D01*
X134071797Y-150316513D01*
X134092070Y-150522349D01*
X134071797Y-150728185D01*
X134048713Y-150804282D01*
X134011756Y-150926114D01*
X133914258Y-151108519D01*
X133783045Y-151268404D01*
X133623160Y-151399617D01*
X133440755Y-151497115D01*
X133440752Y-151497116D01*
X133242826Y-151557156D01*
X133165697Y-151564753D01*
X133088570Y-151572349D01*
X132985410Y-151572349D01*
X132908283Y-151564753D01*
X132831154Y-151557156D01*
X132633228Y-151497116D01*
X132633225Y-151497115D01*
X132450820Y-151399617D01*
X132290935Y-151268404D01*
X132159722Y-151108519D01*
X132062224Y-150926114D01*
X132025267Y-150804282D01*
X132002183Y-150728185D01*
X131981910Y-150522349D01*
X132002183Y-150316513D01*
X132062223Y-150118587D01*
X132062224Y-150118584D01*
X132159722Y-149936179D01*
X132290935Y-149776294D01*
X132450820Y-149645081D01*
X132633225Y-149547583D01*
X132633228Y-149547582D01*
X132831154Y-149487542D01*
X132908283Y-149479945D01*
X132985410Y-149472349D01*
X133088570Y-149472349D01*
X133165697Y-149479945D01*
X133165697Y-149479945D01*
G37*
G36*
X145865697Y-149479945D02*
G01*
X145942826Y-149487542D01*
X146140752Y-149547582D01*
X146140755Y-149547583D01*
X146323160Y-149645081D01*
X146483045Y-149776294D01*
X146614258Y-149936179D01*
X146711756Y-150118584D01*
X146711757Y-150118587D01*
X146771797Y-150316513D01*
X146792070Y-150522349D01*
X146771797Y-150728185D01*
X146748713Y-150804282D01*
X146711756Y-150926114D01*
X146614258Y-151108519D01*
X146483045Y-151268404D01*
X146323160Y-151399617D01*
X146140755Y-151497115D01*
X146140752Y-151497116D01*
X145942826Y-151557156D01*
X145865697Y-151564753D01*
X145788570Y-151572349D01*
X145685410Y-151572349D01*
X145608283Y-151564753D01*
X145531154Y-151557156D01*
X145333228Y-151497116D01*
X145333225Y-151497115D01*
X145150820Y-151399617D01*
X144990935Y-151268404D01*
X144859722Y-151108519D01*
X144762224Y-150926114D01*
X144725267Y-150804282D01*
X144702183Y-150728185D01*
X144681910Y-150522349D01*
X144702183Y-150316513D01*
X144762223Y-150118587D01*
X144762224Y-150118584D01*
X144859722Y-149936179D01*
X144990935Y-149776294D01*
X145150820Y-149645081D01*
X145333225Y-149547583D01*
X145333228Y-149547582D01*
X145531154Y-149487542D01*
X145608283Y-149479945D01*
X145685410Y-149472349D01*
X145788570Y-149472349D01*
X145865697Y-149479945D01*
X145865697Y-149479945D01*
G37*
G36*
X130625697Y-149479945D02*
G01*
X130702826Y-149487542D01*
X130900752Y-149547582D01*
X130900755Y-149547583D01*
X131083160Y-149645081D01*
X131243045Y-149776294D01*
X131374258Y-149936179D01*
X131471756Y-150118584D01*
X131471757Y-150118587D01*
X131531797Y-150316513D01*
X131552070Y-150522349D01*
X131531797Y-150728185D01*
X131508713Y-150804282D01*
X131471756Y-150926114D01*
X131374258Y-151108519D01*
X131243045Y-151268404D01*
X131083160Y-151399617D01*
X130900755Y-151497115D01*
X130900752Y-151497116D01*
X130702826Y-151557156D01*
X130625697Y-151564753D01*
X130548570Y-151572349D01*
X130445410Y-151572349D01*
X130368283Y-151564753D01*
X130291154Y-151557156D01*
X130093228Y-151497116D01*
X130093225Y-151497115D01*
X129910820Y-151399617D01*
X129750935Y-151268404D01*
X129619722Y-151108519D01*
X129522224Y-150926114D01*
X129485267Y-150804282D01*
X129462183Y-150728185D01*
X129441910Y-150522349D01*
X129462183Y-150316513D01*
X129522223Y-150118587D01*
X129522224Y-150118584D01*
X129619722Y-149936179D01*
X129750935Y-149776294D01*
X129910820Y-149645081D01*
X130093225Y-149547583D01*
X130093228Y-149547582D01*
X130291154Y-149487542D01*
X130368283Y-149479945D01*
X130445410Y-149472349D01*
X130548570Y-149472349D01*
X130625697Y-149479945D01*
X130625697Y-149479945D01*
G37*
G36*
X143325697Y-149479945D02*
G01*
X143402826Y-149487542D01*
X143600752Y-149547582D01*
X143600755Y-149547583D01*
X143783160Y-149645081D01*
X143943045Y-149776294D01*
X144074258Y-149936179D01*
X144171756Y-150118584D01*
X144171757Y-150118587D01*
X144231797Y-150316513D01*
X144252070Y-150522349D01*
X144231797Y-150728185D01*
X144208713Y-150804282D01*
X144171756Y-150926114D01*
X144074258Y-151108519D01*
X143943045Y-151268404D01*
X143783160Y-151399617D01*
X143600755Y-151497115D01*
X143600752Y-151497116D01*
X143402826Y-151557156D01*
X143325697Y-151564753D01*
X143248570Y-151572349D01*
X143145410Y-151572349D01*
X143068283Y-151564753D01*
X142991154Y-151557156D01*
X142793228Y-151497116D01*
X142793225Y-151497115D01*
X142610820Y-151399617D01*
X142450935Y-151268404D01*
X142319722Y-151108519D01*
X142222224Y-150926114D01*
X142185267Y-150804282D01*
X142162183Y-150728185D01*
X142141910Y-150522349D01*
X142162183Y-150316513D01*
X142222223Y-150118587D01*
X142222224Y-150118584D01*
X142319722Y-149936179D01*
X142450935Y-149776294D01*
X142610820Y-149645081D01*
X142793225Y-149547583D01*
X142793228Y-149547582D01*
X142991154Y-149487542D01*
X143068283Y-149479945D01*
X143145410Y-149472349D01*
X143248570Y-149472349D01*
X143325697Y-149479945D01*
X143325697Y-149479945D01*
G37*
G36*
X128085697Y-149479945D02*
G01*
X128162826Y-149487542D01*
X128360752Y-149547582D01*
X128360755Y-149547583D01*
X128543160Y-149645081D01*
X128703045Y-149776294D01*
X128834258Y-149936179D01*
X128931756Y-150118584D01*
X128931757Y-150118587D01*
X128991797Y-150316513D01*
X129012070Y-150522349D01*
X128991797Y-150728185D01*
X128968713Y-150804282D01*
X128931756Y-150926114D01*
X128834258Y-151108519D01*
X128703045Y-151268404D01*
X128543160Y-151399617D01*
X128360755Y-151497115D01*
X128360752Y-151497116D01*
X128162826Y-151557156D01*
X128085697Y-151564753D01*
X128008570Y-151572349D01*
X127905410Y-151572349D01*
X127828283Y-151564753D01*
X127751154Y-151557156D01*
X127553228Y-151497116D01*
X127553225Y-151497115D01*
X127370820Y-151399617D01*
X127210935Y-151268404D01*
X127079722Y-151108519D01*
X126982224Y-150926114D01*
X126945267Y-150804282D01*
X126922183Y-150728185D01*
X126901910Y-150522349D01*
X126922183Y-150316513D01*
X126982223Y-150118587D01*
X126982224Y-150118584D01*
X127079722Y-149936179D01*
X127210935Y-149776294D01*
X127370820Y-149645081D01*
X127553225Y-149547583D01*
X127553228Y-149547582D01*
X127751154Y-149487542D01*
X127828283Y-149479945D01*
X127905410Y-149472349D01*
X128008570Y-149472349D01*
X128085697Y-149479945D01*
X128085697Y-149479945D01*
G37*
G36*
X140785697Y-149479945D02*
G01*
X140862826Y-149487542D01*
X141060752Y-149547582D01*
X141060755Y-149547583D01*
X141243160Y-149645081D01*
X141403045Y-149776294D01*
X141534258Y-149936179D01*
X141631756Y-150118584D01*
X141631757Y-150118587D01*
X141691797Y-150316513D01*
X141712070Y-150522349D01*
X141691797Y-150728185D01*
X141668713Y-150804282D01*
X141631756Y-150926114D01*
X141534258Y-151108519D01*
X141403045Y-151268404D01*
X141243160Y-151399617D01*
X141060755Y-151497115D01*
X141060752Y-151497116D01*
X140862826Y-151557156D01*
X140785697Y-151564753D01*
X140708570Y-151572349D01*
X140605410Y-151572349D01*
X140528283Y-151564753D01*
X140451154Y-151557156D01*
X140253228Y-151497116D01*
X140253225Y-151497115D01*
X140070820Y-151399617D01*
X139910935Y-151268404D01*
X139779722Y-151108519D01*
X139682224Y-150926114D01*
X139645267Y-150804282D01*
X139622183Y-150728185D01*
X139601910Y-150522349D01*
X139622183Y-150316513D01*
X139682223Y-150118587D01*
X139682224Y-150118584D01*
X139779722Y-149936179D01*
X139910935Y-149776294D01*
X140070820Y-149645081D01*
X140253225Y-149547583D01*
X140253228Y-149547582D01*
X140451154Y-149487542D01*
X140528283Y-149479945D01*
X140605410Y-149472349D01*
X140708570Y-149472349D01*
X140785697Y-149479945D01*
X140785697Y-149479945D01*
G37*
G36*
X138245697Y-149479945D02*
G01*
X138322826Y-149487542D01*
X138520752Y-149547582D01*
X138520755Y-149547583D01*
X138703160Y-149645081D01*
X138863045Y-149776294D01*
X138994258Y-149936179D01*
X139091756Y-150118584D01*
X139091757Y-150118587D01*
X139151797Y-150316513D01*
X139172070Y-150522349D01*
X139151797Y-150728185D01*
X139128713Y-150804282D01*
X139091756Y-150926114D01*
X138994258Y-151108519D01*
X138863045Y-151268404D01*
X138703160Y-151399617D01*
X138520755Y-151497115D01*
X138520752Y-151497116D01*
X138322826Y-151557156D01*
X138245697Y-151564753D01*
X138168570Y-151572349D01*
X138065410Y-151572349D01*
X137988283Y-151564753D01*
X137911154Y-151557156D01*
X137713228Y-151497116D01*
X137713225Y-151497115D01*
X137530820Y-151399617D01*
X137370935Y-151268404D01*
X137239722Y-151108519D01*
X137142224Y-150926114D01*
X137105267Y-150804282D01*
X137082183Y-150728185D01*
X137061910Y-150522349D01*
X137082183Y-150316513D01*
X137142223Y-150118587D01*
X137142224Y-150118584D01*
X137239722Y-149936179D01*
X137370935Y-149776294D01*
X137530820Y-149645081D01*
X137713225Y-149547583D01*
X137713228Y-149547582D01*
X137911154Y-149487542D01*
X137988283Y-149479945D01*
X138065410Y-149472349D01*
X138168570Y-149472349D01*
X138245697Y-149479945D01*
X138245697Y-149479945D01*
G37*
G36*
X120465697Y-149479945D02*
G01*
X120542826Y-149487542D01*
X120740752Y-149547582D01*
X120740755Y-149547583D01*
X120923160Y-149645081D01*
X121083045Y-149776294D01*
X121214258Y-149936179D01*
X121311756Y-150118584D01*
X121311757Y-150118587D01*
X121371797Y-150316513D01*
X121392070Y-150522349D01*
X121371797Y-150728185D01*
X121348713Y-150804282D01*
X121311756Y-150926114D01*
X121214258Y-151108519D01*
X121083045Y-151268404D01*
X120923160Y-151399617D01*
X120740755Y-151497115D01*
X120740752Y-151497116D01*
X120542826Y-151557156D01*
X120465697Y-151564753D01*
X120388570Y-151572349D01*
X120285410Y-151572349D01*
X120208283Y-151564753D01*
X120131154Y-151557156D01*
X119933228Y-151497116D01*
X119933225Y-151497115D01*
X119750820Y-151399617D01*
X119590935Y-151268404D01*
X119459722Y-151108519D01*
X119362224Y-150926114D01*
X119325267Y-150804282D01*
X119302183Y-150728185D01*
X119281910Y-150522349D01*
X119302183Y-150316513D01*
X119362223Y-150118587D01*
X119362224Y-150118584D01*
X119459722Y-149936179D01*
X119590935Y-149776294D01*
X119750820Y-149645081D01*
X119933225Y-149547583D01*
X119933228Y-149547582D01*
X120131154Y-149487542D01*
X120208283Y-149479945D01*
X120285410Y-149472349D01*
X120388570Y-149472349D01*
X120465697Y-149479945D01*
X120465697Y-149479945D01*
G37*
G36*
X148686026Y-145658115D02*
G01*
X148904411Y-145748573D01*
X148904413Y-145748574D01*
X148924506Y-145762000D01*
X149100955Y-145879899D01*
X149268101Y-146047045D01*
X149399427Y-146243589D01*
X149489885Y-146461974D01*
X149536000Y-146693809D01*
X149536000Y-146930191D01*
X149489885Y-147162026D01*
X149399427Y-147380411D01*
X149399426Y-147380413D01*
X149268101Y-147576955D01*
X149100955Y-147744101D01*
X148904413Y-147875426D01*
X148904412Y-147875427D01*
X148904411Y-147875427D01*
X148686026Y-147965885D01*
X148454191Y-148012000D01*
X148217809Y-148012000D01*
X147985974Y-147965885D01*
X147767589Y-147875427D01*
X147767588Y-147875427D01*
X147767587Y-147875426D01*
X147571045Y-147744101D01*
X147403899Y-147576955D01*
X147272574Y-147380413D01*
X147272573Y-147380411D01*
X147182115Y-147162026D01*
X147136000Y-146930191D01*
X147136000Y-146693809D01*
X147182115Y-146461974D01*
X147272573Y-146243589D01*
X147403899Y-146047045D01*
X147571045Y-145879899D01*
X147747494Y-145762000D01*
X147767587Y-145748574D01*
X147767589Y-145748573D01*
X147985974Y-145658115D01*
X148217809Y-145612000D01*
X148454191Y-145612000D01*
X148686026Y-145658115D01*
X148686026Y-145658115D01*
G37*
G36*
X142186026Y-145658115D02*
G01*
X142404411Y-145748573D01*
X142404413Y-145748574D01*
X142424506Y-145762000D01*
X142600955Y-145879899D01*
X142768101Y-146047045D01*
X142899427Y-146243589D01*
X142989885Y-146461974D01*
X143036000Y-146693809D01*
X143036000Y-146930191D01*
X142989885Y-147162026D01*
X142899427Y-147380411D01*
X142899426Y-147380413D01*
X142768101Y-147576955D01*
X142600955Y-147744101D01*
X142404413Y-147875426D01*
X142404412Y-147875427D01*
X142404411Y-147875427D01*
X142186026Y-147965885D01*
X141954191Y-148012000D01*
X141717809Y-148012000D01*
X141485974Y-147965885D01*
X141267589Y-147875427D01*
X141267588Y-147875427D01*
X141267587Y-147875426D01*
X141071045Y-147744101D01*
X140903899Y-147576955D01*
X140772574Y-147380413D01*
X140772573Y-147380411D01*
X140682115Y-147162026D01*
X140636000Y-146930191D01*
X140636000Y-146693809D01*
X140682115Y-146461974D01*
X140772573Y-146243589D01*
X140903899Y-146047045D01*
X141071045Y-145879899D01*
X141247494Y-145762000D01*
X141267587Y-145748574D01*
X141267589Y-145748573D01*
X141485974Y-145658115D01*
X141717809Y-145612000D01*
X141954191Y-145612000D01*
X142186026Y-145658115D01*
X142186026Y-145658115D01*
G37*
G36*
X130590000Y-147862000D02*
G01*
X128490000Y-147862000D01*
X128490000Y-145762000D01*
X130590000Y-145762000D01*
X130590000Y-147862000D01*
X130590000Y-147862000D01*
G37*
G36*
X102142000Y-147862000D02*
G01*
X100042000Y-147862000D01*
X100042000Y-145762000D01*
X102142000Y-145762000D01*
X102142000Y-147862000D01*
X102142000Y-147862000D01*
G37*
G36*
X136686000Y-147862000D02*
G01*
X134586000Y-147862000D01*
X134586000Y-145762000D01*
X136686000Y-145762000D01*
X136686000Y-147862000D01*
X136686000Y-147862000D01*
G37*
G36*
X152942000Y-147862000D02*
G01*
X150842000Y-147862000D01*
X150842000Y-145762000D01*
X152942000Y-145762000D01*
X152942000Y-147862000D01*
X152942000Y-147862000D01*
G37*
G36*
X159038000Y-147862000D02*
G01*
X156938000Y-147862000D01*
X156938000Y-145762000D01*
X159038000Y-145762000D01*
X159038000Y-147862000D01*
X159038000Y-147862000D01*
G37*
G36*
X133638000Y-147862000D02*
G01*
X131538000Y-147862000D01*
X131538000Y-145762000D01*
X133638000Y-145762000D01*
X133638000Y-147862000D01*
X133638000Y-147862000D01*
G37*
G36*
X105190000Y-147862000D02*
G01*
X103090000Y-147862000D01*
X103090000Y-145762000D01*
X105190000Y-145762000D01*
X105190000Y-147862000D01*
X105190000Y-147862000D01*
G37*
G36*
X108238000Y-147862000D02*
G01*
X106138000Y-147862000D01*
X106138000Y-145762000D01*
X108238000Y-145762000D01*
X108238000Y-147862000D01*
X108238000Y-147862000D01*
G37*
G36*
X155990000Y-147862000D02*
G01*
X153890000Y-147862000D01*
X153890000Y-145762000D01*
X155990000Y-145762000D01*
X155990000Y-147862000D01*
X155990000Y-147862000D01*
G37*
G36*
X135764707Y-143229597D02*
G01*
X135841836Y-143237193D01*
X136039762Y-143297233D01*
X136039765Y-143297234D01*
X136222170Y-143394732D01*
X136382055Y-143525945D01*
X136513268Y-143685830D01*
X136610766Y-143868235D01*
X136610767Y-143868238D01*
X136670807Y-144066164D01*
X136691080Y-144272000D01*
X136670807Y-144477836D01*
X136610767Y-144675762D01*
X136610766Y-144675765D01*
X136513268Y-144858170D01*
X136382055Y-145018055D01*
X136222170Y-145149268D01*
X136039765Y-145246766D01*
X136039762Y-145246767D01*
X135841836Y-145306807D01*
X135764707Y-145314403D01*
X135687580Y-145322000D01*
X135584420Y-145322000D01*
X135507293Y-145314403D01*
X135430164Y-145306807D01*
X135232238Y-145246767D01*
X135232235Y-145246766D01*
X135049830Y-145149268D01*
X134889945Y-145018055D01*
X134758732Y-144858170D01*
X134661234Y-144675765D01*
X134661233Y-144675762D01*
X134601193Y-144477836D01*
X134580920Y-144272000D01*
X134601193Y-144066164D01*
X134661233Y-143868238D01*
X134661234Y-143868235D01*
X134758732Y-143685830D01*
X134889945Y-143525945D01*
X135049830Y-143394732D01*
X135232235Y-143297234D01*
X135232238Y-143297233D01*
X135430164Y-143237193D01*
X135507293Y-143229597D01*
X135584420Y-143222000D01*
X135687580Y-143222000D01*
X135764707Y-143229597D01*
X135764707Y-143229597D01*
G37*
G36*
X132716707Y-143229597D02*
G01*
X132793836Y-143237193D01*
X132991762Y-143297233D01*
X132991765Y-143297234D01*
X133174170Y-143394732D01*
X133334055Y-143525945D01*
X133465268Y-143685830D01*
X133562766Y-143868235D01*
X133562767Y-143868238D01*
X133622807Y-144066164D01*
X133643080Y-144272000D01*
X133622807Y-144477836D01*
X133562767Y-144675762D01*
X133562766Y-144675765D01*
X133465268Y-144858170D01*
X133334055Y-145018055D01*
X133174170Y-145149268D01*
X132991765Y-145246766D01*
X132991762Y-145246767D01*
X132793836Y-145306807D01*
X132716707Y-145314403D01*
X132639580Y-145322000D01*
X132536420Y-145322000D01*
X132459293Y-145314403D01*
X132382164Y-145306807D01*
X132184238Y-145246767D01*
X132184235Y-145246766D01*
X132001830Y-145149268D01*
X131841945Y-145018055D01*
X131710732Y-144858170D01*
X131613234Y-144675765D01*
X131613233Y-144675762D01*
X131553193Y-144477836D01*
X131532920Y-144272000D01*
X131553193Y-144066164D01*
X131613233Y-143868238D01*
X131613234Y-143868235D01*
X131710732Y-143685830D01*
X131841945Y-143525945D01*
X132001830Y-143394732D01*
X132184235Y-143297234D01*
X132184238Y-143297233D01*
X132382164Y-143237193D01*
X132459293Y-143229597D01*
X132536420Y-143222000D01*
X132639580Y-143222000D01*
X132716707Y-143229597D01*
X132716707Y-143229597D01*
G37*
G36*
X104268707Y-143229597D02*
G01*
X104345836Y-143237193D01*
X104543762Y-143297233D01*
X104543765Y-143297234D01*
X104726170Y-143394732D01*
X104886055Y-143525945D01*
X105017268Y-143685830D01*
X105114766Y-143868235D01*
X105114767Y-143868238D01*
X105174807Y-144066164D01*
X105195080Y-144272000D01*
X105174807Y-144477836D01*
X105114767Y-144675762D01*
X105114766Y-144675765D01*
X105017268Y-144858170D01*
X104886055Y-145018055D01*
X104726170Y-145149268D01*
X104543765Y-145246766D01*
X104543762Y-145246767D01*
X104345836Y-145306807D01*
X104268707Y-145314403D01*
X104191580Y-145322000D01*
X104088420Y-145322000D01*
X104011293Y-145314403D01*
X103934164Y-145306807D01*
X103736238Y-145246767D01*
X103736235Y-145246766D01*
X103553830Y-145149268D01*
X103393945Y-145018055D01*
X103262732Y-144858170D01*
X103165234Y-144675765D01*
X103165233Y-144675762D01*
X103105193Y-144477836D01*
X103084920Y-144272000D01*
X103105193Y-144066164D01*
X103165233Y-143868238D01*
X103165234Y-143868235D01*
X103262732Y-143685830D01*
X103393945Y-143525945D01*
X103553830Y-143394732D01*
X103736235Y-143297234D01*
X103736238Y-143297233D01*
X103934164Y-143237193D01*
X104011293Y-143229597D01*
X104088420Y-143222000D01*
X104191580Y-143222000D01*
X104268707Y-143229597D01*
X104268707Y-143229597D01*
G37*
G36*
X107316707Y-143229597D02*
G01*
X107393836Y-143237193D01*
X107591762Y-143297233D01*
X107591765Y-143297234D01*
X107774170Y-143394732D01*
X107934055Y-143525945D01*
X108065268Y-143685830D01*
X108162766Y-143868235D01*
X108162767Y-143868238D01*
X108222807Y-144066164D01*
X108243080Y-144272000D01*
X108222807Y-144477836D01*
X108162767Y-144675762D01*
X108162766Y-144675765D01*
X108065268Y-144858170D01*
X107934055Y-145018055D01*
X107774170Y-145149268D01*
X107591765Y-145246766D01*
X107591762Y-145246767D01*
X107393836Y-145306807D01*
X107316707Y-145314403D01*
X107239580Y-145322000D01*
X107136420Y-145322000D01*
X107059293Y-145314403D01*
X106982164Y-145306807D01*
X106784238Y-145246767D01*
X106784235Y-145246766D01*
X106601830Y-145149268D01*
X106441945Y-145018055D01*
X106310732Y-144858170D01*
X106213234Y-144675765D01*
X106213233Y-144675762D01*
X106153193Y-144477836D01*
X106132920Y-144272000D01*
X106153193Y-144066164D01*
X106213233Y-143868238D01*
X106213234Y-143868235D01*
X106310732Y-143685830D01*
X106441945Y-143525945D01*
X106601830Y-143394732D01*
X106784235Y-143297234D01*
X106784238Y-143297233D01*
X106982164Y-143237193D01*
X107059293Y-143229597D01*
X107136420Y-143222000D01*
X107239580Y-143222000D01*
X107316707Y-143229597D01*
X107316707Y-143229597D01*
G37*
G36*
X155068707Y-143229597D02*
G01*
X155145836Y-143237193D01*
X155343762Y-143297233D01*
X155343765Y-143297234D01*
X155526170Y-143394732D01*
X155686055Y-143525945D01*
X155817268Y-143685830D01*
X155914766Y-143868235D01*
X155914767Y-143868238D01*
X155974807Y-144066164D01*
X155995080Y-144272000D01*
X155974807Y-144477836D01*
X155914767Y-144675762D01*
X155914766Y-144675765D01*
X155817268Y-144858170D01*
X155686055Y-145018055D01*
X155526170Y-145149268D01*
X155343765Y-145246766D01*
X155343762Y-145246767D01*
X155145836Y-145306807D01*
X155068707Y-145314403D01*
X154991580Y-145322000D01*
X154888420Y-145322000D01*
X154811293Y-145314403D01*
X154734164Y-145306807D01*
X154536238Y-145246767D01*
X154536235Y-145246766D01*
X154353830Y-145149268D01*
X154193945Y-145018055D01*
X154062732Y-144858170D01*
X153965234Y-144675765D01*
X153965233Y-144675762D01*
X153905193Y-144477836D01*
X153884920Y-144272000D01*
X153905193Y-144066164D01*
X153965233Y-143868238D01*
X153965234Y-143868235D01*
X154062732Y-143685830D01*
X154193945Y-143525945D01*
X154353830Y-143394732D01*
X154536235Y-143297234D01*
X154536238Y-143297233D01*
X154734164Y-143237193D01*
X154811293Y-143229597D01*
X154888420Y-143222000D01*
X154991580Y-143222000D01*
X155068707Y-143229597D01*
X155068707Y-143229597D01*
G37*
G36*
X129668707Y-143229597D02*
G01*
X129745836Y-143237193D01*
X129943762Y-143297233D01*
X129943765Y-143297234D01*
X130126170Y-143394732D01*
X130286055Y-143525945D01*
X130417268Y-143685830D01*
X130514766Y-143868235D01*
X130514767Y-143868238D01*
X130574807Y-144066164D01*
X130595080Y-144272000D01*
X130574807Y-144477836D01*
X130514767Y-144675762D01*
X130514766Y-144675765D01*
X130417268Y-144858170D01*
X130286055Y-145018055D01*
X130126170Y-145149268D01*
X129943765Y-145246766D01*
X129943762Y-145246767D01*
X129745836Y-145306807D01*
X129668707Y-145314403D01*
X129591580Y-145322000D01*
X129488420Y-145322000D01*
X129411293Y-145314403D01*
X129334164Y-145306807D01*
X129136238Y-145246767D01*
X129136235Y-145246766D01*
X128953830Y-145149268D01*
X128793945Y-145018055D01*
X128662732Y-144858170D01*
X128565234Y-144675765D01*
X128565233Y-144675762D01*
X128505193Y-144477836D01*
X128484920Y-144272000D01*
X128505193Y-144066164D01*
X128565233Y-143868238D01*
X128565234Y-143868235D01*
X128662732Y-143685830D01*
X128793945Y-143525945D01*
X128953830Y-143394732D01*
X129136235Y-143297234D01*
X129136238Y-143297233D01*
X129334164Y-143237193D01*
X129411293Y-143229597D01*
X129488420Y-143222000D01*
X129591580Y-143222000D01*
X129668707Y-143229597D01*
X129668707Y-143229597D01*
G37*
G36*
X101220707Y-143229597D02*
G01*
X101297836Y-143237193D01*
X101495762Y-143297233D01*
X101495765Y-143297234D01*
X101678170Y-143394732D01*
X101838055Y-143525945D01*
X101969268Y-143685830D01*
X102066766Y-143868235D01*
X102066767Y-143868238D01*
X102126807Y-144066164D01*
X102147080Y-144272000D01*
X102126807Y-144477836D01*
X102066767Y-144675762D01*
X102066766Y-144675765D01*
X101969268Y-144858170D01*
X101838055Y-145018055D01*
X101678170Y-145149268D01*
X101495765Y-145246766D01*
X101495762Y-145246767D01*
X101297836Y-145306807D01*
X101220707Y-145314403D01*
X101143580Y-145322000D01*
X101040420Y-145322000D01*
X100963293Y-145314403D01*
X100886164Y-145306807D01*
X100688238Y-145246767D01*
X100688235Y-145246766D01*
X100505830Y-145149268D01*
X100345945Y-145018055D01*
X100214732Y-144858170D01*
X100117234Y-144675765D01*
X100117233Y-144675762D01*
X100057193Y-144477836D01*
X100036920Y-144272000D01*
X100057193Y-144066164D01*
X100117233Y-143868238D01*
X100117234Y-143868235D01*
X100214732Y-143685830D01*
X100345945Y-143525945D01*
X100505830Y-143394732D01*
X100688235Y-143297234D01*
X100688238Y-143297233D01*
X100886164Y-143237193D01*
X100963293Y-143229597D01*
X101040420Y-143222000D01*
X101143580Y-143222000D01*
X101220707Y-143229597D01*
X101220707Y-143229597D01*
G37*
G36*
X152020707Y-143229597D02*
G01*
X152097836Y-143237193D01*
X152295762Y-143297233D01*
X152295765Y-143297234D01*
X152478170Y-143394732D01*
X152638055Y-143525945D01*
X152769268Y-143685830D01*
X152866766Y-143868235D01*
X152866767Y-143868238D01*
X152926807Y-144066164D01*
X152947080Y-144272000D01*
X152926807Y-144477836D01*
X152866767Y-144675762D01*
X152866766Y-144675765D01*
X152769268Y-144858170D01*
X152638055Y-145018055D01*
X152478170Y-145149268D01*
X152295765Y-145246766D01*
X152295762Y-145246767D01*
X152097836Y-145306807D01*
X152020707Y-145314403D01*
X151943580Y-145322000D01*
X151840420Y-145322000D01*
X151763293Y-145314403D01*
X151686164Y-145306807D01*
X151488238Y-145246767D01*
X151488235Y-145246766D01*
X151305830Y-145149268D01*
X151145945Y-145018055D01*
X151014732Y-144858170D01*
X150917234Y-144675765D01*
X150917233Y-144675762D01*
X150857193Y-144477836D01*
X150836920Y-144272000D01*
X150857193Y-144066164D01*
X150917233Y-143868238D01*
X150917234Y-143868235D01*
X151014732Y-143685830D01*
X151145945Y-143525945D01*
X151305830Y-143394732D01*
X151488235Y-143297234D01*
X151488238Y-143297233D01*
X151686164Y-143237193D01*
X151763293Y-143229597D01*
X151840420Y-143222000D01*
X151943580Y-143222000D01*
X152020707Y-143229597D01*
X152020707Y-143229597D01*
G37*
G36*
X158116707Y-143229597D02*
G01*
X158193836Y-143237193D01*
X158391762Y-143297233D01*
X158391765Y-143297234D01*
X158574170Y-143394732D01*
X158734055Y-143525945D01*
X158865268Y-143685830D01*
X158962766Y-143868235D01*
X158962767Y-143868238D01*
X159022807Y-144066164D01*
X159043080Y-144272000D01*
X159022807Y-144477836D01*
X158962767Y-144675762D01*
X158962766Y-144675765D01*
X158865268Y-144858170D01*
X158734055Y-145018055D01*
X158574170Y-145149268D01*
X158391765Y-145246766D01*
X158391762Y-145246767D01*
X158193836Y-145306807D01*
X158116707Y-145314403D01*
X158039580Y-145322000D01*
X157936420Y-145322000D01*
X157859293Y-145314403D01*
X157782164Y-145306807D01*
X157584238Y-145246767D01*
X157584235Y-145246766D01*
X157401830Y-145149268D01*
X157241945Y-145018055D01*
X157110732Y-144858170D01*
X157013234Y-144675765D01*
X157013233Y-144675762D01*
X156953193Y-144477836D01*
X156932920Y-144272000D01*
X156953193Y-144066164D01*
X157013233Y-143868238D01*
X157013234Y-143868235D01*
X157110732Y-143685830D01*
X157241945Y-143525945D01*
X157401830Y-143394732D01*
X157584235Y-143297234D01*
X157584238Y-143297233D01*
X157782164Y-143237193D01*
X157859293Y-143229597D01*
X157936420Y-143222000D01*
X158039580Y-143222000D01*
X158116707Y-143229597D01*
X158116707Y-143229597D01*
G37*
G36*
X112302000Y-144814000D02*
G01*
X110202000Y-144814000D01*
X110202000Y-142714000D01*
X112302000Y-142714000D01*
X112302000Y-144814000D01*
X112302000Y-144814000D01*
G37*
G36*
X148686026Y-141158115D02*
G01*
X148904411Y-141248573D01*
X148904413Y-141248574D01*
X149023634Y-141328235D01*
X149100955Y-141379899D01*
X149268101Y-141547045D01*
X149399427Y-141743589D01*
X149489885Y-141961974D01*
X149536000Y-142193809D01*
X149536000Y-142430191D01*
X149489885Y-142662026D01*
X149446483Y-142766807D01*
X149399426Y-142880413D01*
X149268101Y-143076955D01*
X149100955Y-143244101D01*
X148904413Y-143375426D01*
X148904412Y-143375427D01*
X148904411Y-143375427D01*
X148686026Y-143465885D01*
X148454191Y-143512000D01*
X148217809Y-143512000D01*
X147985974Y-143465885D01*
X147767589Y-143375427D01*
X147767588Y-143375427D01*
X147767587Y-143375426D01*
X147571045Y-143244101D01*
X147403899Y-143076955D01*
X147272574Y-142880413D01*
X147225517Y-142766807D01*
X147182115Y-142662026D01*
X147136000Y-142430191D01*
X147136000Y-142193809D01*
X147182115Y-141961974D01*
X147272573Y-141743589D01*
X147403899Y-141547045D01*
X147571045Y-141379899D01*
X147648366Y-141328235D01*
X147767587Y-141248574D01*
X147767589Y-141248573D01*
X147985974Y-141158115D01*
X148217809Y-141112000D01*
X148454191Y-141112000D01*
X148686026Y-141158115D01*
X148686026Y-141158115D01*
G37*
G36*
X142186026Y-141158115D02*
G01*
X142404411Y-141248573D01*
X142404413Y-141248574D01*
X142523634Y-141328235D01*
X142600955Y-141379899D01*
X142768101Y-141547045D01*
X142899427Y-141743589D01*
X142989885Y-141961974D01*
X143036000Y-142193809D01*
X143036000Y-142430191D01*
X142989885Y-142662026D01*
X142946483Y-142766807D01*
X142899426Y-142880413D01*
X142768101Y-143076955D01*
X142600955Y-143244101D01*
X142404413Y-143375426D01*
X142404412Y-143375427D01*
X142404411Y-143375427D01*
X142186026Y-143465885D01*
X141954191Y-143512000D01*
X141717809Y-143512000D01*
X141485974Y-143465885D01*
X141267589Y-143375427D01*
X141267588Y-143375427D01*
X141267587Y-143375426D01*
X141071045Y-143244101D01*
X140903899Y-143076955D01*
X140772574Y-142880413D01*
X140725517Y-142766807D01*
X140682115Y-142662026D01*
X140636000Y-142430191D01*
X140636000Y-142193809D01*
X140682115Y-141961974D01*
X140772573Y-141743589D01*
X140903899Y-141547045D01*
X141071045Y-141379899D01*
X141148366Y-141328235D01*
X141267587Y-141248574D01*
X141267589Y-141248573D01*
X141485974Y-141158115D01*
X141717809Y-141112000D01*
X141954191Y-141112000D01*
X142186026Y-141158115D01*
X142186026Y-141158115D01*
G37*
G36*
X121446000Y-143290000D02*
G01*
X119346000Y-143290000D01*
X119346000Y-141190000D01*
X121446000Y-141190000D01*
X121446000Y-143290000D01*
X121446000Y-143290000D01*
G37*
G36*
X132716707Y-140689597D02*
G01*
X132793836Y-140697193D01*
X132991762Y-140757233D01*
X132991765Y-140757234D01*
X133174170Y-140854732D01*
X133334055Y-140985945D01*
X133465268Y-141145830D01*
X133562766Y-141328235D01*
X133562767Y-141328238D01*
X133622807Y-141526164D01*
X133643080Y-141732000D01*
X133622807Y-141937836D01*
X133562767Y-142135762D01*
X133562766Y-142135765D01*
X133465268Y-142318170D01*
X133334055Y-142478055D01*
X133174170Y-142609268D01*
X132991765Y-142706766D01*
X132991762Y-142706767D01*
X132793836Y-142766807D01*
X132716707Y-142774403D01*
X132639580Y-142782000D01*
X132536420Y-142782000D01*
X132459293Y-142774403D01*
X132382164Y-142766807D01*
X132184238Y-142706767D01*
X132184235Y-142706766D01*
X132001830Y-142609268D01*
X131841945Y-142478055D01*
X131710732Y-142318170D01*
X131613234Y-142135765D01*
X131613233Y-142135762D01*
X131553193Y-141937836D01*
X131532920Y-141732000D01*
X131553193Y-141526164D01*
X131613233Y-141328238D01*
X131613234Y-141328235D01*
X131710732Y-141145830D01*
X131841945Y-140985945D01*
X132001830Y-140854732D01*
X132184235Y-140757234D01*
X132184238Y-140757233D01*
X132382164Y-140697193D01*
X132459293Y-140689597D01*
X132536420Y-140682000D01*
X132639580Y-140682000D01*
X132716707Y-140689597D01*
X132716707Y-140689597D01*
G37*
G36*
X158116707Y-140689597D02*
G01*
X158193836Y-140697193D01*
X158391762Y-140757233D01*
X158391765Y-140757234D01*
X158574170Y-140854732D01*
X158734055Y-140985945D01*
X158865268Y-141145830D01*
X158962766Y-141328235D01*
X158962767Y-141328238D01*
X159022807Y-141526164D01*
X159043080Y-141732000D01*
X159022807Y-141937836D01*
X158962767Y-142135762D01*
X158962766Y-142135765D01*
X158865268Y-142318170D01*
X158734055Y-142478055D01*
X158574170Y-142609268D01*
X158391765Y-142706766D01*
X158391762Y-142706767D01*
X158193836Y-142766807D01*
X158116707Y-142774403D01*
X158039580Y-142782000D01*
X157936420Y-142782000D01*
X157859293Y-142774403D01*
X157782164Y-142766807D01*
X157584238Y-142706767D01*
X157584235Y-142706766D01*
X157401830Y-142609268D01*
X157241945Y-142478055D01*
X157110732Y-142318170D01*
X157013234Y-142135765D01*
X157013233Y-142135762D01*
X156953193Y-141937836D01*
X156932920Y-141732000D01*
X156953193Y-141526164D01*
X157013233Y-141328238D01*
X157013234Y-141328235D01*
X157110732Y-141145830D01*
X157241945Y-140985945D01*
X157401830Y-140854732D01*
X157584235Y-140757234D01*
X157584238Y-140757233D01*
X157782164Y-140697193D01*
X157859293Y-140689597D01*
X157936420Y-140682000D01*
X158039580Y-140682000D01*
X158116707Y-140689597D01*
X158116707Y-140689597D01*
G37*
G36*
X101220707Y-140689597D02*
G01*
X101297836Y-140697193D01*
X101495762Y-140757233D01*
X101495765Y-140757234D01*
X101678170Y-140854732D01*
X101838055Y-140985945D01*
X101969268Y-141145830D01*
X102066766Y-141328235D01*
X102066767Y-141328238D01*
X102126807Y-141526164D01*
X102147080Y-141732000D01*
X102126807Y-141937836D01*
X102066767Y-142135762D01*
X102066766Y-142135765D01*
X101969268Y-142318170D01*
X101838055Y-142478055D01*
X101678170Y-142609268D01*
X101495765Y-142706766D01*
X101495762Y-142706767D01*
X101297836Y-142766807D01*
X101220707Y-142774403D01*
X101143580Y-142782000D01*
X101040420Y-142782000D01*
X100963293Y-142774403D01*
X100886164Y-142766807D01*
X100688238Y-142706767D01*
X100688235Y-142706766D01*
X100505830Y-142609268D01*
X100345945Y-142478055D01*
X100214732Y-142318170D01*
X100117234Y-142135765D01*
X100117233Y-142135762D01*
X100057193Y-141937836D01*
X100036920Y-141732000D01*
X100057193Y-141526164D01*
X100117233Y-141328238D01*
X100117234Y-141328235D01*
X100214732Y-141145830D01*
X100345945Y-140985945D01*
X100505830Y-140854732D01*
X100688235Y-140757234D01*
X100688238Y-140757233D01*
X100886164Y-140697193D01*
X100963293Y-140689597D01*
X101040420Y-140682000D01*
X101143580Y-140682000D01*
X101220707Y-140689597D01*
X101220707Y-140689597D01*
G37*
G36*
X155068707Y-140689597D02*
G01*
X155145836Y-140697193D01*
X155343762Y-140757233D01*
X155343765Y-140757234D01*
X155526170Y-140854732D01*
X155686055Y-140985945D01*
X155817268Y-141145830D01*
X155914766Y-141328235D01*
X155914767Y-141328238D01*
X155974807Y-141526164D01*
X155995080Y-141732000D01*
X155974807Y-141937836D01*
X155914767Y-142135762D01*
X155914766Y-142135765D01*
X155817268Y-142318170D01*
X155686055Y-142478055D01*
X155526170Y-142609268D01*
X155343765Y-142706766D01*
X155343762Y-142706767D01*
X155145836Y-142766807D01*
X155068707Y-142774403D01*
X154991580Y-142782000D01*
X154888420Y-142782000D01*
X154811293Y-142774403D01*
X154734164Y-142766807D01*
X154536238Y-142706767D01*
X154536235Y-142706766D01*
X154353830Y-142609268D01*
X154193945Y-142478055D01*
X154062732Y-142318170D01*
X153965234Y-142135765D01*
X153965233Y-142135762D01*
X153905193Y-141937836D01*
X153884920Y-141732000D01*
X153905193Y-141526164D01*
X153965233Y-141328238D01*
X153965234Y-141328235D01*
X154062732Y-141145830D01*
X154193945Y-140985945D01*
X154353830Y-140854732D01*
X154536235Y-140757234D01*
X154536238Y-140757233D01*
X154734164Y-140697193D01*
X154811293Y-140689597D01*
X154888420Y-140682000D01*
X154991580Y-140682000D01*
X155068707Y-140689597D01*
X155068707Y-140689597D01*
G37*
G36*
X152020707Y-140689597D02*
G01*
X152097836Y-140697193D01*
X152295762Y-140757233D01*
X152295765Y-140757234D01*
X152478170Y-140854732D01*
X152638055Y-140985945D01*
X152769268Y-141145830D01*
X152866766Y-141328235D01*
X152866767Y-141328238D01*
X152926807Y-141526164D01*
X152947080Y-141732000D01*
X152926807Y-141937836D01*
X152866767Y-142135762D01*
X152866766Y-142135765D01*
X152769268Y-142318170D01*
X152638055Y-142478055D01*
X152478170Y-142609268D01*
X152295765Y-142706766D01*
X152295762Y-142706767D01*
X152097836Y-142766807D01*
X152020707Y-142774403D01*
X151943580Y-142782000D01*
X151840420Y-142782000D01*
X151763293Y-142774403D01*
X151686164Y-142766807D01*
X151488238Y-142706767D01*
X151488235Y-142706766D01*
X151305830Y-142609268D01*
X151145945Y-142478055D01*
X151014732Y-142318170D01*
X150917234Y-142135765D01*
X150917233Y-142135762D01*
X150857193Y-141937836D01*
X150836920Y-141732000D01*
X150857193Y-141526164D01*
X150917233Y-141328238D01*
X150917234Y-141328235D01*
X151014732Y-141145830D01*
X151145945Y-140985945D01*
X151305830Y-140854732D01*
X151488235Y-140757234D01*
X151488238Y-140757233D01*
X151686164Y-140697193D01*
X151763293Y-140689597D01*
X151840420Y-140682000D01*
X151943580Y-140682000D01*
X152020707Y-140689597D01*
X152020707Y-140689597D01*
G37*
G36*
X129668707Y-140689597D02*
G01*
X129745836Y-140697193D01*
X129943762Y-140757233D01*
X129943765Y-140757234D01*
X130126170Y-140854732D01*
X130286055Y-140985945D01*
X130417268Y-141145830D01*
X130514766Y-141328235D01*
X130514767Y-141328238D01*
X130574807Y-141526164D01*
X130595080Y-141732000D01*
X130574807Y-141937836D01*
X130514767Y-142135762D01*
X130514766Y-142135765D01*
X130417268Y-142318170D01*
X130286055Y-142478055D01*
X130126170Y-142609268D01*
X129943765Y-142706766D01*
X129943762Y-142706767D01*
X129745836Y-142766807D01*
X129668707Y-142774403D01*
X129591580Y-142782000D01*
X129488420Y-142782000D01*
X129411293Y-142774403D01*
X129334164Y-142766807D01*
X129136238Y-142706767D01*
X129136235Y-142706766D01*
X128953830Y-142609268D01*
X128793945Y-142478055D01*
X128662732Y-142318170D01*
X128565234Y-142135765D01*
X128565233Y-142135762D01*
X128505193Y-141937836D01*
X128484920Y-141732000D01*
X128505193Y-141526164D01*
X128565233Y-141328238D01*
X128565234Y-141328235D01*
X128662732Y-141145830D01*
X128793945Y-140985945D01*
X128953830Y-140854732D01*
X129136235Y-140757234D01*
X129136238Y-140757233D01*
X129334164Y-140697193D01*
X129411293Y-140689597D01*
X129488420Y-140682000D01*
X129591580Y-140682000D01*
X129668707Y-140689597D01*
X129668707Y-140689597D01*
G37*
G36*
X104268707Y-140689597D02*
G01*
X104345836Y-140697193D01*
X104543762Y-140757233D01*
X104543765Y-140757234D01*
X104726170Y-140854732D01*
X104886055Y-140985945D01*
X105017268Y-141145830D01*
X105114766Y-141328235D01*
X105114767Y-141328238D01*
X105174807Y-141526164D01*
X105195080Y-141732000D01*
X105174807Y-141937836D01*
X105114767Y-142135762D01*
X105114766Y-142135765D01*
X105017268Y-142318170D01*
X104886055Y-142478055D01*
X104726170Y-142609268D01*
X104543765Y-142706766D01*
X104543762Y-142706767D01*
X104345836Y-142766807D01*
X104268707Y-142774403D01*
X104191580Y-142782000D01*
X104088420Y-142782000D01*
X104011293Y-142774403D01*
X103934164Y-142766807D01*
X103736238Y-142706767D01*
X103736235Y-142706766D01*
X103553830Y-142609268D01*
X103393945Y-142478055D01*
X103262732Y-142318170D01*
X103165234Y-142135765D01*
X103165233Y-142135762D01*
X103105193Y-141937836D01*
X103084920Y-141732000D01*
X103105193Y-141526164D01*
X103165233Y-141328238D01*
X103165234Y-141328235D01*
X103262732Y-141145830D01*
X103393945Y-140985945D01*
X103553830Y-140854732D01*
X103736235Y-140757234D01*
X103736238Y-140757233D01*
X103934164Y-140697193D01*
X104011293Y-140689597D01*
X104088420Y-140682000D01*
X104191580Y-140682000D01*
X104268707Y-140689597D01*
X104268707Y-140689597D01*
G37*
G36*
X107316707Y-140689597D02*
G01*
X107393836Y-140697193D01*
X107591762Y-140757233D01*
X107591765Y-140757234D01*
X107774170Y-140854732D01*
X107934055Y-140985945D01*
X108065268Y-141145830D01*
X108162766Y-141328235D01*
X108162767Y-141328238D01*
X108222807Y-141526164D01*
X108243080Y-141732000D01*
X108222807Y-141937836D01*
X108162767Y-142135762D01*
X108162766Y-142135765D01*
X108065268Y-142318170D01*
X107934055Y-142478055D01*
X107774170Y-142609268D01*
X107591765Y-142706766D01*
X107591762Y-142706767D01*
X107393836Y-142766807D01*
X107316707Y-142774403D01*
X107239580Y-142782000D01*
X107136420Y-142782000D01*
X107059293Y-142774403D01*
X106982164Y-142766807D01*
X106784238Y-142706767D01*
X106784235Y-142706766D01*
X106601830Y-142609268D01*
X106441945Y-142478055D01*
X106310732Y-142318170D01*
X106213234Y-142135765D01*
X106213233Y-142135762D01*
X106153193Y-141937836D01*
X106132920Y-141732000D01*
X106153193Y-141526164D01*
X106213233Y-141328238D01*
X106213234Y-141328235D01*
X106310732Y-141145830D01*
X106441945Y-140985945D01*
X106601830Y-140854732D01*
X106784235Y-140757234D01*
X106784238Y-140757233D01*
X106982164Y-140697193D01*
X107059293Y-140689597D01*
X107136420Y-140682000D01*
X107239580Y-140682000D01*
X107316707Y-140689597D01*
X107316707Y-140689597D01*
G37*
G36*
X135764707Y-140689597D02*
G01*
X135841836Y-140697193D01*
X136039762Y-140757233D01*
X136039765Y-140757234D01*
X136222170Y-140854732D01*
X136382055Y-140985945D01*
X136513268Y-141145830D01*
X136610766Y-141328235D01*
X136610767Y-141328238D01*
X136670807Y-141526164D01*
X136691080Y-141732000D01*
X136670807Y-141937836D01*
X136610767Y-142135762D01*
X136610766Y-142135765D01*
X136513268Y-142318170D01*
X136382055Y-142478055D01*
X136222170Y-142609268D01*
X136039765Y-142706766D01*
X136039762Y-142706767D01*
X135841836Y-142766807D01*
X135764707Y-142774403D01*
X135687580Y-142782000D01*
X135584420Y-142782000D01*
X135507293Y-142774403D01*
X135430164Y-142766807D01*
X135232238Y-142706767D01*
X135232235Y-142706766D01*
X135049830Y-142609268D01*
X134889945Y-142478055D01*
X134758732Y-142318170D01*
X134661234Y-142135765D01*
X134661233Y-142135762D01*
X134601193Y-141937836D01*
X134580920Y-141732000D01*
X134601193Y-141526164D01*
X134661233Y-141328238D01*
X134661234Y-141328235D01*
X134758732Y-141145830D01*
X134889945Y-140985945D01*
X135049830Y-140854732D01*
X135232235Y-140757234D01*
X135232238Y-140757233D01*
X135430164Y-140697193D01*
X135507293Y-140689597D01*
X135584420Y-140682000D01*
X135687580Y-140682000D01*
X135764707Y-140689597D01*
X135764707Y-140689597D01*
G37*
G36*
X111380707Y-140181596D02*
G01*
X111457836Y-140189193D01*
X111655762Y-140249233D01*
X111655765Y-140249234D01*
X111838170Y-140346732D01*
X111998055Y-140477945D01*
X112129268Y-140637830D01*
X112226766Y-140820235D01*
X112226767Y-140820238D01*
X112286807Y-141018164D01*
X112307080Y-141224000D01*
X112286807Y-141429836D01*
X112251252Y-141547045D01*
X112226766Y-141627765D01*
X112129268Y-141810170D01*
X111998055Y-141970055D01*
X111838170Y-142101268D01*
X111655765Y-142198766D01*
X111655762Y-142198767D01*
X111457836Y-142258807D01*
X111380707Y-142266403D01*
X111303580Y-142274000D01*
X111200420Y-142274000D01*
X111123293Y-142266403D01*
X111046164Y-142258807D01*
X110848238Y-142198767D01*
X110848235Y-142198766D01*
X110665830Y-142101268D01*
X110505945Y-141970055D01*
X110374732Y-141810170D01*
X110277234Y-141627765D01*
X110252748Y-141547045D01*
X110217193Y-141429836D01*
X110196920Y-141224000D01*
X110217193Y-141018164D01*
X110277233Y-140820238D01*
X110277234Y-140820235D01*
X110374732Y-140637830D01*
X110505945Y-140477945D01*
X110665830Y-140346732D01*
X110848235Y-140249234D01*
X110848238Y-140249233D01*
X111046164Y-140189193D01*
X111123293Y-140181596D01*
X111200420Y-140174000D01*
X111303580Y-140174000D01*
X111380707Y-140181596D01*
X111380707Y-140181596D01*
G37*
G36*
X120524707Y-138657596D02*
G01*
X120601836Y-138665193D01*
X120799762Y-138725233D01*
X120799765Y-138725234D01*
X120982170Y-138822732D01*
X121142055Y-138953945D01*
X121273268Y-139113830D01*
X121370766Y-139296235D01*
X121370767Y-139296238D01*
X121430807Y-139494164D01*
X121451080Y-139700000D01*
X121430807Y-139905836D01*
X121370767Y-140103762D01*
X121370766Y-140103765D01*
X121273268Y-140286170D01*
X121142055Y-140446055D01*
X120982170Y-140577268D01*
X120799765Y-140674766D01*
X120799762Y-140674767D01*
X120601836Y-140734807D01*
X120524707Y-140742403D01*
X120447580Y-140750000D01*
X120344420Y-140750000D01*
X120267293Y-140742403D01*
X120190164Y-140734807D01*
X119992238Y-140674767D01*
X119992235Y-140674766D01*
X119809830Y-140577268D01*
X119649945Y-140446055D01*
X119518732Y-140286170D01*
X119421234Y-140103765D01*
X119421233Y-140103762D01*
X119361193Y-139905836D01*
X119340920Y-139700000D01*
X119361193Y-139494164D01*
X119421233Y-139296238D01*
X119421234Y-139296235D01*
X119518732Y-139113830D01*
X119649945Y-138953945D01*
X119809830Y-138822732D01*
X119992235Y-138725234D01*
X119992238Y-138725233D01*
X120190164Y-138665193D01*
X120267293Y-138657596D01*
X120344420Y-138650000D01*
X120447580Y-138650000D01*
X120524707Y-138657596D01*
X120524707Y-138657596D01*
G37*
G36*
X111380707Y-137641597D02*
G01*
X111457836Y-137649193D01*
X111655762Y-137709233D01*
X111655765Y-137709234D01*
X111838170Y-137806732D01*
X111998055Y-137937945D01*
X112129268Y-138097830D01*
X112226766Y-138280235D01*
X112226767Y-138280238D01*
X112286807Y-138478164D01*
X112307080Y-138684000D01*
X112286807Y-138889836D01*
X112226767Y-139087762D01*
X112226766Y-139087765D01*
X112129268Y-139270170D01*
X111998055Y-139430055D01*
X111838170Y-139561268D01*
X111655765Y-139658766D01*
X111655762Y-139658767D01*
X111457836Y-139718807D01*
X111380707Y-139726404D01*
X111303580Y-139734000D01*
X111200420Y-139734000D01*
X111123293Y-139726404D01*
X111046164Y-139718807D01*
X110848238Y-139658767D01*
X110848235Y-139658766D01*
X110665830Y-139561268D01*
X110505945Y-139430055D01*
X110374732Y-139270170D01*
X110277234Y-139087765D01*
X110277233Y-139087762D01*
X110217193Y-138889836D01*
X110196920Y-138684000D01*
X110217193Y-138478164D01*
X110277233Y-138280238D01*
X110277234Y-138280235D01*
X110374732Y-138097830D01*
X110505945Y-137937945D01*
X110665830Y-137806732D01*
X110848235Y-137709234D01*
X110848238Y-137709233D01*
X111046164Y-137649193D01*
X111123293Y-137641597D01*
X111200420Y-137634000D01*
X111303580Y-137634000D01*
X111380707Y-137641597D01*
X111380707Y-137641597D01*
G37*
G36*
X159640707Y-137133596D02*
G01*
X159717836Y-137141193D01*
X159915762Y-137201233D01*
X159915765Y-137201234D01*
X160098170Y-137298732D01*
X160258055Y-137429945D01*
X160389268Y-137589830D01*
X160486766Y-137772235D01*
X160486767Y-137772238D01*
X160546807Y-137970164D01*
X160567080Y-138176000D01*
X160546807Y-138381836D01*
X160486767Y-138579762D01*
X160486766Y-138579765D01*
X160389268Y-138762170D01*
X160258055Y-138922055D01*
X160098170Y-139053268D01*
X159915765Y-139150766D01*
X159915762Y-139150767D01*
X159717836Y-139210807D01*
X159640707Y-139218403D01*
X159563580Y-139226000D01*
X159460420Y-139226000D01*
X159383293Y-139218403D01*
X159306164Y-139210807D01*
X159108238Y-139150767D01*
X159108235Y-139150766D01*
X158925830Y-139053268D01*
X158765945Y-138922055D01*
X158634732Y-138762170D01*
X158537234Y-138579765D01*
X158537233Y-138579762D01*
X158477193Y-138381836D01*
X158456920Y-138176000D01*
X158477193Y-137970164D01*
X158537233Y-137772238D01*
X158537234Y-137772235D01*
X158634732Y-137589830D01*
X158765945Y-137429945D01*
X158925830Y-137298732D01*
X159108235Y-137201234D01*
X159108238Y-137201233D01*
X159306164Y-137141193D01*
X159383293Y-137133596D01*
X159460420Y-137126000D01*
X159563580Y-137126000D01*
X159640707Y-137133596D01*
X159640707Y-137133596D01*
G37*
G36*
X157100707Y-137133596D02*
G01*
X157177836Y-137141193D01*
X157375762Y-137201233D01*
X157375765Y-137201234D01*
X157558170Y-137298732D01*
X157718055Y-137429945D01*
X157849268Y-137589830D01*
X157946766Y-137772235D01*
X157946767Y-137772238D01*
X158006807Y-137970164D01*
X158027080Y-138176000D01*
X158006807Y-138381836D01*
X157946767Y-138579762D01*
X157946766Y-138579765D01*
X157849268Y-138762170D01*
X157718055Y-138922055D01*
X157558170Y-139053268D01*
X157375765Y-139150766D01*
X157375762Y-139150767D01*
X157177836Y-139210807D01*
X157100707Y-139218403D01*
X157023580Y-139226000D01*
X156920420Y-139226000D01*
X156843293Y-139218403D01*
X156766164Y-139210807D01*
X156568238Y-139150767D01*
X156568235Y-139150766D01*
X156385830Y-139053268D01*
X156225945Y-138922055D01*
X156094732Y-138762170D01*
X155997234Y-138579765D01*
X155997233Y-138579762D01*
X155937193Y-138381836D01*
X155916920Y-138176000D01*
X155937193Y-137970164D01*
X155997233Y-137772238D01*
X155997234Y-137772235D01*
X156094732Y-137589830D01*
X156225945Y-137429945D01*
X156385830Y-137298732D01*
X156568235Y-137201234D01*
X156568238Y-137201233D01*
X156766164Y-137141193D01*
X156843293Y-137133596D01*
X156920420Y-137126000D01*
X157023580Y-137126000D01*
X157100707Y-137133596D01*
X157100707Y-137133596D01*
G37*
G36*
X163102000Y-139226000D02*
G01*
X161002000Y-139226000D01*
X161002000Y-137126000D01*
X163102000Y-137126000D01*
X163102000Y-139226000D01*
X163102000Y-139226000D01*
G37*
G36*
X149988707Y-136625597D02*
G01*
X150065836Y-136633193D01*
X150263762Y-136693233D01*
X150263765Y-136693234D01*
X150446170Y-136790732D01*
X150606055Y-136921945D01*
X150737268Y-137081830D01*
X150834766Y-137264235D01*
X150834767Y-137264238D01*
X150894807Y-137462164D01*
X150915080Y-137668000D01*
X150894807Y-137873836D01*
X150834767Y-138071762D01*
X150834766Y-138071765D01*
X150737268Y-138254170D01*
X150606055Y-138414055D01*
X150446170Y-138545268D01*
X150263765Y-138642766D01*
X150263762Y-138642767D01*
X150065836Y-138702807D01*
X149988707Y-138710403D01*
X149911580Y-138718000D01*
X149808420Y-138718000D01*
X149731293Y-138710403D01*
X149654164Y-138702807D01*
X149456238Y-138642767D01*
X149456235Y-138642766D01*
X149273830Y-138545268D01*
X149113945Y-138414055D01*
X148982732Y-138254170D01*
X148885234Y-138071765D01*
X148885233Y-138071762D01*
X148825193Y-137873836D01*
X148804920Y-137668000D01*
X148825193Y-137462164D01*
X148885233Y-137264238D01*
X148885234Y-137264235D01*
X148982732Y-137081830D01*
X149113945Y-136921945D01*
X149273830Y-136790732D01*
X149456235Y-136693234D01*
X149456238Y-136693233D01*
X149654164Y-136633193D01*
X149731293Y-136625597D01*
X149808420Y-136618000D01*
X149911580Y-136618000D01*
X149988707Y-136625597D01*
X149988707Y-136625597D01*
G37*
G36*
X140750000Y-138718000D02*
G01*
X138650000Y-138718000D01*
X138650000Y-136618000D01*
X140750000Y-136618000D01*
X140750000Y-138718000D01*
X140750000Y-138718000D01*
G37*
G36*
X142368707Y-136625597D02*
G01*
X142445836Y-136633193D01*
X142643762Y-136693233D01*
X142643765Y-136693234D01*
X142826170Y-136790732D01*
X142986055Y-136921945D01*
X143117268Y-137081830D01*
X143214766Y-137264235D01*
X143214767Y-137264238D01*
X143274807Y-137462164D01*
X143295080Y-137668000D01*
X143274807Y-137873836D01*
X143214767Y-138071762D01*
X143214766Y-138071765D01*
X143117268Y-138254170D01*
X142986055Y-138414055D01*
X142826170Y-138545268D01*
X142643765Y-138642766D01*
X142643762Y-138642767D01*
X142445836Y-138702807D01*
X142368707Y-138710403D01*
X142291580Y-138718000D01*
X142188420Y-138718000D01*
X142111293Y-138710403D01*
X142034164Y-138702807D01*
X141836238Y-138642767D01*
X141836235Y-138642766D01*
X141653830Y-138545268D01*
X141493945Y-138414055D01*
X141362732Y-138254170D01*
X141265234Y-138071765D01*
X141265233Y-138071762D01*
X141205193Y-137873836D01*
X141184920Y-137668000D01*
X141205193Y-137462164D01*
X141265233Y-137264238D01*
X141265234Y-137264235D01*
X141362732Y-137081830D01*
X141493945Y-136921945D01*
X141653830Y-136790732D01*
X141836235Y-136693234D01*
X141836238Y-136693233D01*
X142034164Y-136633193D01*
X142111293Y-136625597D01*
X142188420Y-136618000D01*
X142291580Y-136618000D01*
X142368707Y-136625597D01*
X142368707Y-136625597D01*
G37*
G36*
X144908707Y-136625597D02*
G01*
X144985836Y-136633193D01*
X145183762Y-136693233D01*
X145183765Y-136693234D01*
X145366170Y-136790732D01*
X145526055Y-136921945D01*
X145657268Y-137081830D01*
X145754766Y-137264235D01*
X145754767Y-137264238D01*
X145814807Y-137462164D01*
X145835080Y-137668000D01*
X145814807Y-137873836D01*
X145754767Y-138071762D01*
X145754766Y-138071765D01*
X145657268Y-138254170D01*
X145526055Y-138414055D01*
X145366170Y-138545268D01*
X145183765Y-138642766D01*
X145183762Y-138642767D01*
X144985836Y-138702807D01*
X144908707Y-138710403D01*
X144831580Y-138718000D01*
X144728420Y-138718000D01*
X144651293Y-138710403D01*
X144574164Y-138702807D01*
X144376238Y-138642767D01*
X144376235Y-138642766D01*
X144193830Y-138545268D01*
X144033945Y-138414055D01*
X143902732Y-138254170D01*
X143805234Y-138071765D01*
X143805233Y-138071762D01*
X143745193Y-137873836D01*
X143724920Y-137668000D01*
X143745193Y-137462164D01*
X143805233Y-137264238D01*
X143805234Y-137264235D01*
X143902732Y-137081830D01*
X144033945Y-136921945D01*
X144193830Y-136790732D01*
X144376235Y-136693234D01*
X144376238Y-136693233D01*
X144574164Y-136633193D01*
X144651293Y-136625597D01*
X144728420Y-136618000D01*
X144831580Y-136618000D01*
X144908707Y-136625597D01*
X144908707Y-136625597D01*
G37*
G36*
X147448707Y-136625597D02*
G01*
X147525836Y-136633193D01*
X147723762Y-136693233D01*
X147723765Y-136693234D01*
X147906170Y-136790732D01*
X148066055Y-136921945D01*
X148197268Y-137081830D01*
X148294766Y-137264235D01*
X148294767Y-137264238D01*
X148354807Y-137462164D01*
X148375080Y-137668000D01*
X148354807Y-137873836D01*
X148294767Y-138071762D01*
X148294766Y-138071765D01*
X148197268Y-138254170D01*
X148066055Y-138414055D01*
X147906170Y-138545268D01*
X147723765Y-138642766D01*
X147723762Y-138642767D01*
X147525836Y-138702807D01*
X147448707Y-138710403D01*
X147371580Y-138718000D01*
X147268420Y-138718000D01*
X147191293Y-138710403D01*
X147114164Y-138702807D01*
X146916238Y-138642767D01*
X146916235Y-138642766D01*
X146733830Y-138545268D01*
X146573945Y-138414055D01*
X146442732Y-138254170D01*
X146345234Y-138071765D01*
X146345233Y-138071762D01*
X146285193Y-137873836D01*
X146264920Y-137668000D01*
X146285193Y-137462164D01*
X146345233Y-137264238D01*
X146345234Y-137264235D01*
X146442732Y-137081830D01*
X146573945Y-136921945D01*
X146733830Y-136790732D01*
X146916235Y-136693234D01*
X146916238Y-136693233D01*
X147114164Y-136633193D01*
X147191293Y-136625597D01*
X147268420Y-136618000D01*
X147371580Y-136618000D01*
X147448707Y-136625597D01*
X147448707Y-136625597D01*
G37*
G36*
X120524707Y-136117597D02*
G01*
X120601836Y-136125193D01*
X120799762Y-136185233D01*
X120799765Y-136185234D01*
X120982170Y-136282732D01*
X121142055Y-136413945D01*
X121273268Y-136573830D01*
X121370766Y-136756235D01*
X121370767Y-136756238D01*
X121430807Y-136954164D01*
X121451080Y-137160000D01*
X121430807Y-137365836D01*
X121370767Y-137563762D01*
X121370766Y-137563765D01*
X121273268Y-137746170D01*
X121142055Y-137906055D01*
X120982170Y-138037268D01*
X120799765Y-138134766D01*
X120799762Y-138134767D01*
X120601836Y-138194807D01*
X120524707Y-138202404D01*
X120447580Y-138210000D01*
X120344420Y-138210000D01*
X120267293Y-138202404D01*
X120190164Y-138194807D01*
X119992238Y-138134767D01*
X119992235Y-138134766D01*
X119809830Y-138037268D01*
X119649945Y-137906055D01*
X119518732Y-137746170D01*
X119421234Y-137563765D01*
X119421233Y-137563762D01*
X119361193Y-137365836D01*
X119340920Y-137160000D01*
X119361193Y-136954164D01*
X119421233Y-136756238D01*
X119421234Y-136756235D01*
X119518732Y-136573830D01*
X119649945Y-136413945D01*
X119809830Y-136282732D01*
X119992235Y-136185234D01*
X119992238Y-136185233D01*
X120190164Y-136125193D01*
X120267293Y-136117597D01*
X120344420Y-136110000D01*
X120447580Y-136110000D01*
X120524707Y-136117597D01*
X120524707Y-136117597D01*
G37*
G36*
X111380707Y-135101597D02*
G01*
X111457836Y-135109193D01*
X111655762Y-135169233D01*
X111655765Y-135169234D01*
X111838170Y-135266732D01*
X111998055Y-135397945D01*
X112129268Y-135557830D01*
X112226766Y-135740235D01*
X112226767Y-135740238D01*
X112286807Y-135938164D01*
X112307080Y-136144000D01*
X112286807Y-136349836D01*
X112226767Y-136547762D01*
X112226766Y-136547765D01*
X112129268Y-136730170D01*
X111998055Y-136890055D01*
X111838170Y-137021268D01*
X111655765Y-137118766D01*
X111655762Y-137118767D01*
X111457836Y-137178807D01*
X111380707Y-137186403D01*
X111303580Y-137194000D01*
X111200420Y-137194000D01*
X111123293Y-137186403D01*
X111046164Y-137178807D01*
X110848238Y-137118767D01*
X110848235Y-137118766D01*
X110665830Y-137021268D01*
X110505945Y-136890055D01*
X110374732Y-136730170D01*
X110277234Y-136547765D01*
X110277233Y-136547762D01*
X110217193Y-136349836D01*
X110196920Y-136144000D01*
X110217193Y-135938164D01*
X110277233Y-135740238D01*
X110277234Y-135740235D01*
X110374732Y-135557830D01*
X110505945Y-135397945D01*
X110665830Y-135266732D01*
X110848235Y-135169234D01*
X110848238Y-135169233D01*
X111046164Y-135109193D01*
X111123293Y-135101597D01*
X111200420Y-135094000D01*
X111303580Y-135094000D01*
X111380707Y-135101597D01*
X111380707Y-135101597D01*
G37*
G36*
X106196026Y-133466115D02*
G01*
X106396886Y-133549314D01*
X106414413Y-133556574D01*
X106425844Y-133564212D01*
X106610955Y-133687899D01*
X106778101Y-133855045D01*
X106909427Y-134051589D01*
X106999885Y-134269974D01*
X107046000Y-134501809D01*
X107046000Y-134738191D01*
X106999885Y-134970026D01*
X106948533Y-135094000D01*
X106909426Y-135188413D01*
X106778101Y-135384955D01*
X106610955Y-135552101D01*
X106414413Y-135683426D01*
X106414412Y-135683427D01*
X106414411Y-135683427D01*
X106196026Y-135773885D01*
X105964191Y-135820000D01*
X105727809Y-135820000D01*
X105495974Y-135773885D01*
X105277589Y-135683427D01*
X105277588Y-135683427D01*
X105277587Y-135683426D01*
X105081045Y-135552101D01*
X104913899Y-135384955D01*
X104782574Y-135188413D01*
X104743467Y-135094000D01*
X104692115Y-134970026D01*
X104646000Y-134738191D01*
X104646000Y-134501809D01*
X104692115Y-134269974D01*
X104782573Y-134051589D01*
X104913899Y-133855045D01*
X105081045Y-133687899D01*
X105266156Y-133564212D01*
X105277587Y-133556574D01*
X105295114Y-133549314D01*
X105495974Y-133466115D01*
X105727809Y-133420000D01*
X105964191Y-133420000D01*
X106196026Y-133466115D01*
X106196026Y-133466115D01*
G37*
G36*
X101696026Y-133466115D02*
G01*
X101896886Y-133549314D01*
X101914413Y-133556574D01*
X101925844Y-133564212D01*
X102110955Y-133687899D01*
X102278101Y-133855045D01*
X102409427Y-134051589D01*
X102499885Y-134269974D01*
X102546000Y-134501809D01*
X102546000Y-134738191D01*
X102499885Y-134970026D01*
X102448533Y-135094000D01*
X102409426Y-135188413D01*
X102278101Y-135384955D01*
X102110955Y-135552101D01*
X101914413Y-135683426D01*
X101914412Y-135683427D01*
X101914411Y-135683427D01*
X101696026Y-135773885D01*
X101464191Y-135820000D01*
X101227809Y-135820000D01*
X100995974Y-135773885D01*
X100777589Y-135683427D01*
X100777588Y-135683427D01*
X100777587Y-135683426D01*
X100581045Y-135552101D01*
X100413899Y-135384955D01*
X100282574Y-135188413D01*
X100243467Y-135094000D01*
X100192115Y-134970026D01*
X100146000Y-134738191D01*
X100146000Y-134501809D01*
X100192115Y-134269974D01*
X100282573Y-134051589D01*
X100413899Y-133855045D01*
X100581045Y-133687899D01*
X100766156Y-133564212D01*
X100777587Y-133556574D01*
X100795114Y-133549314D01*
X100995974Y-133466115D01*
X101227809Y-133420000D01*
X101464191Y-133420000D01*
X101696026Y-133466115D01*
X101696026Y-133466115D01*
G37*
G36*
X120524707Y-133577597D02*
G01*
X120601836Y-133585193D01*
X120799762Y-133645233D01*
X120799765Y-133645234D01*
X120982170Y-133742732D01*
X121142055Y-133873945D01*
X121273268Y-134033830D01*
X121370766Y-134216235D01*
X121370767Y-134216238D01*
X121430807Y-134414164D01*
X121451080Y-134620000D01*
X121430807Y-134825836D01*
X121387067Y-134970027D01*
X121370766Y-135023765D01*
X121273268Y-135206170D01*
X121142055Y-135366055D01*
X120982170Y-135497268D01*
X120799765Y-135594766D01*
X120799762Y-135594767D01*
X120601836Y-135654807D01*
X120524707Y-135662403D01*
X120447580Y-135670000D01*
X120344420Y-135670000D01*
X120267293Y-135662403D01*
X120190164Y-135654807D01*
X119992238Y-135594767D01*
X119992235Y-135594766D01*
X119809830Y-135497268D01*
X119649945Y-135366055D01*
X119518732Y-135206170D01*
X119421234Y-135023765D01*
X119404933Y-134970027D01*
X119361193Y-134825836D01*
X119340920Y-134620000D01*
X119361193Y-134414164D01*
X119421233Y-134216238D01*
X119421234Y-134216235D01*
X119518732Y-134033830D01*
X119649945Y-133873945D01*
X119809830Y-133742732D01*
X119992235Y-133645234D01*
X119992238Y-133645233D01*
X120190164Y-133585193D01*
X120267293Y-133577597D01*
X120344420Y-133570000D01*
X120447580Y-133570000D01*
X120524707Y-133577597D01*
X120524707Y-133577597D01*
G37*
G36*
X153544707Y-132053597D02*
G01*
X153621836Y-132061193D01*
X153819762Y-132121233D01*
X153819765Y-132121234D01*
X154002170Y-132218732D01*
X154162055Y-132349945D01*
X154293268Y-132509830D01*
X154390766Y-132692235D01*
X154390767Y-132692238D01*
X154450807Y-132890164D01*
X154471080Y-133096000D01*
X154450807Y-133301836D01*
X154400973Y-133466116D01*
X154390766Y-133499765D01*
X154293268Y-133682170D01*
X154162055Y-133842055D01*
X154002170Y-133973268D01*
X153819765Y-134070766D01*
X153819762Y-134070767D01*
X153621836Y-134130807D01*
X153544707Y-134138403D01*
X153467580Y-134146000D01*
X153364420Y-134146000D01*
X153287293Y-134138403D01*
X153210164Y-134130807D01*
X153012238Y-134070767D01*
X153012235Y-134070766D01*
X152829830Y-133973268D01*
X152669945Y-133842055D01*
X152538732Y-133682170D01*
X152441234Y-133499765D01*
X152431027Y-133466116D01*
X152381193Y-133301836D01*
X152360920Y-133096000D01*
X152381193Y-132890164D01*
X152441233Y-132692238D01*
X152441234Y-132692235D01*
X152538732Y-132509830D01*
X152669945Y-132349945D01*
X152829830Y-132218732D01*
X153012235Y-132121234D01*
X153012238Y-132121233D01*
X153210164Y-132061193D01*
X153287293Y-132053597D01*
X153364420Y-132046000D01*
X153467580Y-132046000D01*
X153544707Y-132053597D01*
X153544707Y-132053597D01*
G37*
G36*
X158654517Y-131592946D02*
G01*
X158696908Y-131605805D01*
X158735973Y-131626686D01*
X158770214Y-131654786D01*
X158798314Y-131689027D01*
X158819195Y-131728092D01*
X158832054Y-131770483D01*
X158837000Y-131820703D01*
X158837000Y-133355297D01*
X158832054Y-133405517D01*
X158819195Y-133447908D01*
X158798314Y-133486973D01*
X158770214Y-133521214D01*
X158735973Y-133549314D01*
X158696908Y-133570195D01*
X158654517Y-133583054D01*
X158604297Y-133588000D01*
X155344703Y-133588000D01*
X155294483Y-133583054D01*
X155252092Y-133570195D01*
X155213027Y-133549314D01*
X155178786Y-133521214D01*
X155150686Y-133486973D01*
X155129805Y-133447908D01*
X155116946Y-133405517D01*
X155112000Y-133355297D01*
X155112000Y-131820703D01*
X155116946Y-131770483D01*
X155129805Y-131728092D01*
X155150686Y-131689027D01*
X155178786Y-131654786D01*
X155213027Y-131626686D01*
X155252092Y-131605805D01*
X155294483Y-131592946D01*
X155344703Y-131588000D01*
X158604297Y-131588000D01*
X158654517Y-131592946D01*
X158654517Y-131592946D01*
G37*
G36*
X163729517Y-131592946D02*
G01*
X163771908Y-131605805D01*
X163810973Y-131626686D01*
X163845214Y-131654786D01*
X163873314Y-131689027D01*
X163894195Y-131728092D01*
X163907054Y-131770483D01*
X163912000Y-131820703D01*
X163912000Y-133355297D01*
X163907054Y-133405517D01*
X163894195Y-133447908D01*
X163873314Y-133486973D01*
X163845214Y-133521214D01*
X163810973Y-133549314D01*
X163771908Y-133570195D01*
X163729517Y-133583054D01*
X163679297Y-133588000D01*
X160419703Y-133588000D01*
X160369483Y-133583054D01*
X160327092Y-133570195D01*
X160288027Y-133549314D01*
X160253786Y-133521214D01*
X160225686Y-133486973D01*
X160204805Y-133447908D01*
X160191946Y-133405517D01*
X160187000Y-133355297D01*
X160187000Y-131820703D01*
X160191946Y-131770483D01*
X160204805Y-131728092D01*
X160225686Y-131689027D01*
X160253786Y-131654786D01*
X160288027Y-131626686D01*
X160327092Y-131605805D01*
X160369483Y-131592946D01*
X160419703Y-131588000D01*
X163679297Y-131588000D01*
X163729517Y-131592946D01*
X163729517Y-131592946D01*
G37*
G36*
X120524707Y-131037597D02*
G01*
X120601836Y-131045193D01*
X120799762Y-131105233D01*
X120799765Y-131105234D01*
X120982170Y-131202732D01*
X121142055Y-131333945D01*
X121273268Y-131493830D01*
X121370766Y-131676235D01*
X121370767Y-131676238D01*
X121430807Y-131874164D01*
X121451080Y-132080000D01*
X121430807Y-132285836D01*
X121370767Y-132483762D01*
X121370766Y-132483765D01*
X121273268Y-132666170D01*
X121142055Y-132826055D01*
X120982170Y-132957268D01*
X120799765Y-133054766D01*
X120799762Y-133054767D01*
X120601836Y-133114807D01*
X120524707Y-133122403D01*
X120447580Y-133130000D01*
X120344420Y-133130000D01*
X120267293Y-133122403D01*
X120190164Y-133114807D01*
X119992238Y-133054767D01*
X119992235Y-133054766D01*
X119809830Y-132957268D01*
X119649945Y-132826055D01*
X119518732Y-132666170D01*
X119421234Y-132483765D01*
X119421233Y-132483762D01*
X119361193Y-132285836D01*
X119340920Y-132080000D01*
X119361193Y-131874164D01*
X119421233Y-131676238D01*
X119421234Y-131676235D01*
X119518732Y-131493830D01*
X119649945Y-131333945D01*
X119809830Y-131202732D01*
X119992235Y-131105234D01*
X119992238Y-131105233D01*
X120190164Y-131045193D01*
X120267293Y-131037597D01*
X120344420Y-131030000D01*
X120447580Y-131030000D01*
X120524707Y-131037597D01*
X120524707Y-131037597D01*
G37*
G36*
X154466000Y-131606000D02*
G01*
X152366000Y-131606000D01*
X152366000Y-129506000D01*
X154466000Y-129506000D01*
X154466000Y-131606000D01*
X154466000Y-131606000D01*
G37*
G36*
X114331499Y-129661997D02*
G01*
X114384147Y-129677968D01*
X114432668Y-129703902D01*
X114475195Y-129738805D01*
X114510098Y-129781332D01*
X114536032Y-129829853D01*
X114552003Y-129882501D01*
X114558000Y-129943390D01*
X114558000Y-131168610D01*
X114552003Y-131229499D01*
X114536032Y-131282147D01*
X114510098Y-131330668D01*
X114475195Y-131373195D01*
X114432668Y-131408098D01*
X114384147Y-131434032D01*
X114331499Y-131450003D01*
X114270610Y-131456000D01*
X113470390Y-131456000D01*
X113409501Y-131450003D01*
X113356853Y-131434032D01*
X113308332Y-131408098D01*
X113265805Y-131373195D01*
X113230902Y-131330668D01*
X113204968Y-131282147D01*
X113188997Y-131229499D01*
X113183000Y-131168610D01*
X113183000Y-129943390D01*
X113188997Y-129882501D01*
X113204968Y-129829853D01*
X113230902Y-129781332D01*
X113265805Y-129738805D01*
X113308332Y-129703902D01*
X113356853Y-129677968D01*
X113409501Y-129661997D01*
X113470390Y-129656000D01*
X114270610Y-129656000D01*
X114331499Y-129661997D01*
X114331499Y-129661997D01*
G37*
G36*
X116206499Y-129661997D02*
G01*
X116259147Y-129677968D01*
X116307668Y-129703902D01*
X116350195Y-129738805D01*
X116385098Y-129781332D01*
X116411032Y-129829853D01*
X116427003Y-129882501D01*
X116433000Y-129943390D01*
X116433000Y-131168610D01*
X116427003Y-131229499D01*
X116411032Y-131282147D01*
X116385098Y-131330668D01*
X116350195Y-131373195D01*
X116307668Y-131408098D01*
X116259147Y-131434032D01*
X116206499Y-131450003D01*
X116145610Y-131456000D01*
X115345390Y-131456000D01*
X115284501Y-131450003D01*
X115231853Y-131434032D01*
X115183332Y-131408098D01*
X115140805Y-131373195D01*
X115105902Y-131330668D01*
X115079968Y-131282147D01*
X115063997Y-131229499D01*
X115058000Y-131168610D01*
X115058000Y-129943390D01*
X115063997Y-129882501D01*
X115079968Y-129829853D01*
X115105902Y-129781332D01*
X115140805Y-129738805D01*
X115183332Y-129703902D01*
X115231853Y-129677968D01*
X115284501Y-129661997D01*
X115345390Y-129656000D01*
X116145610Y-129656000D01*
X116206499Y-129661997D01*
X116206499Y-129661997D01*
G37*
G36*
X112470622Y-129886517D02*
G01*
X112518585Y-129901066D01*
X112562778Y-129924688D01*
X112601519Y-129956481D01*
X112633312Y-129995222D01*
X112656934Y-130039415D01*
X112671483Y-130087378D01*
X112677000Y-130143391D01*
X112677000Y-130968609D01*
X112671483Y-131024622D01*
X112656934Y-131072585D01*
X112633312Y-131116778D01*
X112601519Y-131155519D01*
X112562778Y-131187312D01*
X112518585Y-131210934D01*
X112470622Y-131225483D01*
X112414609Y-131231000D01*
X111664391Y-131231000D01*
X111608378Y-131225483D01*
X111560415Y-131210934D01*
X111516222Y-131187312D01*
X111477481Y-131155519D01*
X111445688Y-131116778D01*
X111422066Y-131072585D01*
X111407517Y-131024622D01*
X111402000Y-130968609D01*
X111402000Y-130143391D01*
X111407517Y-130087378D01*
X111422066Y-130039415D01*
X111445688Y-129995222D01*
X111477481Y-129956481D01*
X111516222Y-129924688D01*
X111560415Y-129901066D01*
X111608378Y-129886517D01*
X111664391Y-129881000D01*
X112414609Y-129881000D01*
X112470622Y-129886517D01*
X112470622Y-129886517D01*
G37*
G36*
X110895622Y-129886517D02*
G01*
X110943585Y-129901066D01*
X110987778Y-129924688D01*
X111026519Y-129956481D01*
X111058312Y-129995222D01*
X111081934Y-130039415D01*
X111096483Y-130087378D01*
X111102000Y-130143391D01*
X111102000Y-130968609D01*
X111096483Y-131024622D01*
X111081934Y-131072585D01*
X111058312Y-131116778D01*
X111026519Y-131155519D01*
X110987778Y-131187312D01*
X110943585Y-131210934D01*
X110895622Y-131225483D01*
X110839609Y-131231000D01*
X110089391Y-131231000D01*
X110033378Y-131225483D01*
X109985415Y-131210934D01*
X109941222Y-131187312D01*
X109902481Y-131155519D01*
X109870688Y-131116778D01*
X109847066Y-131072585D01*
X109832517Y-131024622D01*
X109827000Y-130968609D01*
X109827000Y-130143391D01*
X109832517Y-130087378D01*
X109847066Y-130039415D01*
X109870688Y-129995222D01*
X109902481Y-129956481D01*
X109941222Y-129924688D01*
X109985415Y-129901066D01*
X110033378Y-129886517D01*
X110089391Y-129881000D01*
X110839609Y-129881000D01*
X110895622Y-129886517D01*
X110895622Y-129886517D01*
G37*
G36*
X120524707Y-128497597D02*
G01*
X120601836Y-128505193D01*
X120799762Y-128565233D01*
X120799765Y-128565234D01*
X120982170Y-128662732D01*
X121142055Y-128793945D01*
X121273268Y-128953830D01*
X121370766Y-129136235D01*
X121370767Y-129136238D01*
X121430807Y-129334164D01*
X121451080Y-129540000D01*
X121430807Y-129745836D01*
X121376553Y-129924688D01*
X121370766Y-129943765D01*
X121273268Y-130126170D01*
X121142055Y-130286055D01*
X120982170Y-130417268D01*
X120799765Y-130514766D01*
X120799762Y-130514767D01*
X120601836Y-130574807D01*
X120524707Y-130582403D01*
X120447580Y-130590000D01*
X120344420Y-130590000D01*
X120267293Y-130582403D01*
X120190164Y-130574807D01*
X119992238Y-130514767D01*
X119992235Y-130514766D01*
X119809830Y-130417268D01*
X119649945Y-130286055D01*
X119518732Y-130126170D01*
X119421234Y-129943765D01*
X119415447Y-129924688D01*
X119361193Y-129745836D01*
X119340920Y-129540000D01*
X119361193Y-129334164D01*
X119421233Y-129136238D01*
X119421234Y-129136235D01*
X119518732Y-128953830D01*
X119649945Y-128793945D01*
X119809830Y-128662732D01*
X119992235Y-128565234D01*
X119992238Y-128565233D01*
X120190164Y-128505193D01*
X120267293Y-128497597D01*
X120344420Y-128490000D01*
X120447580Y-128490000D01*
X120524707Y-128497597D01*
X120524707Y-128497597D01*
G37*
G36*
X106196026Y-126966115D02*
G01*
X106414411Y-127056573D01*
X106414413Y-127056574D01*
X106610955Y-127187899D01*
X106778101Y-127355045D01*
X106906614Y-127547378D01*
X106909427Y-127551589D01*
X106999885Y-127769974D01*
X107046000Y-128001809D01*
X107046000Y-128238191D01*
X106999885Y-128470026D01*
X106910640Y-128685483D01*
X106909426Y-128688413D01*
X106778101Y-128884955D01*
X106610955Y-129052101D01*
X106414413Y-129183426D01*
X106414412Y-129183427D01*
X106414411Y-129183427D01*
X106196026Y-129273885D01*
X105964191Y-129320000D01*
X105727809Y-129320000D01*
X105495974Y-129273885D01*
X105277589Y-129183427D01*
X105277588Y-129183427D01*
X105277587Y-129183426D01*
X105081045Y-129052101D01*
X104913899Y-128884955D01*
X104782574Y-128688413D01*
X104781360Y-128685483D01*
X104692115Y-128470026D01*
X104646000Y-128238191D01*
X104646000Y-128001809D01*
X104692115Y-127769974D01*
X104782573Y-127551589D01*
X104785387Y-127547378D01*
X104913899Y-127355045D01*
X105081045Y-127187899D01*
X105277587Y-127056574D01*
X105277589Y-127056573D01*
X105495974Y-126966115D01*
X105727809Y-126920000D01*
X105964191Y-126920000D01*
X106196026Y-126966115D01*
X106196026Y-126966115D01*
G37*
G36*
X101696026Y-126966115D02*
G01*
X101914411Y-127056573D01*
X101914413Y-127056574D01*
X102110955Y-127187899D01*
X102278101Y-127355045D01*
X102406614Y-127547378D01*
X102409427Y-127551589D01*
X102499885Y-127769974D01*
X102546000Y-128001809D01*
X102546000Y-128238191D01*
X102499885Y-128470026D01*
X102410640Y-128685483D01*
X102409426Y-128688413D01*
X102278101Y-128884955D01*
X102110955Y-129052101D01*
X101914413Y-129183426D01*
X101914412Y-129183427D01*
X101914411Y-129183427D01*
X101696026Y-129273885D01*
X101464191Y-129320000D01*
X101227809Y-129320000D01*
X100995974Y-129273885D01*
X100777589Y-129183427D01*
X100777588Y-129183427D01*
X100777587Y-129183426D01*
X100581045Y-129052101D01*
X100413899Y-128884955D01*
X100282574Y-128688413D01*
X100281360Y-128685483D01*
X100192115Y-128470026D01*
X100146000Y-128238191D01*
X100146000Y-128001809D01*
X100192115Y-127769974D01*
X100282573Y-127551589D01*
X100285387Y-127547378D01*
X100413899Y-127355045D01*
X100581045Y-127187899D01*
X100777587Y-127056574D01*
X100777589Y-127056573D01*
X100995974Y-126966115D01*
X101227809Y-126920000D01*
X101464191Y-126920000D01*
X101696026Y-126966115D01*
X101696026Y-126966115D01*
G37*
G36*
X114331499Y-127121997D02*
G01*
X114384147Y-127137968D01*
X114432668Y-127163902D01*
X114475195Y-127198805D01*
X114510098Y-127241332D01*
X114536032Y-127289853D01*
X114552003Y-127342501D01*
X114558000Y-127403390D01*
X114558000Y-128628610D01*
X114552003Y-128689499D01*
X114536032Y-128742147D01*
X114510098Y-128790668D01*
X114475195Y-128833195D01*
X114432668Y-128868098D01*
X114384147Y-128894032D01*
X114331499Y-128910003D01*
X114270610Y-128916000D01*
X113470390Y-128916000D01*
X113409501Y-128910003D01*
X113356853Y-128894032D01*
X113308332Y-128868098D01*
X113265805Y-128833195D01*
X113230902Y-128790668D01*
X113204968Y-128742147D01*
X113188997Y-128689499D01*
X113183000Y-128628610D01*
X113183000Y-127403390D01*
X113188997Y-127342501D01*
X113204968Y-127289853D01*
X113230902Y-127241332D01*
X113265805Y-127198805D01*
X113308332Y-127163902D01*
X113356853Y-127137968D01*
X113409501Y-127121997D01*
X113470390Y-127116000D01*
X114270610Y-127116000D01*
X114331499Y-127121997D01*
X114331499Y-127121997D01*
G37*
G36*
X116206499Y-127121997D02*
G01*
X116259147Y-127137968D01*
X116307668Y-127163902D01*
X116350195Y-127198805D01*
X116385098Y-127241332D01*
X116411032Y-127289853D01*
X116427003Y-127342501D01*
X116433000Y-127403390D01*
X116433000Y-128628610D01*
X116427003Y-128689499D01*
X116411032Y-128742147D01*
X116385098Y-128790668D01*
X116350195Y-128833195D01*
X116307668Y-128868098D01*
X116259147Y-128894032D01*
X116206499Y-128910003D01*
X116145610Y-128916000D01*
X115345390Y-128916000D01*
X115284501Y-128910003D01*
X115231853Y-128894032D01*
X115183332Y-128868098D01*
X115140805Y-128833195D01*
X115105902Y-128790668D01*
X115079968Y-128742147D01*
X115063997Y-128689499D01*
X115058000Y-128628610D01*
X115058000Y-127403390D01*
X115063997Y-127342501D01*
X115079968Y-127289853D01*
X115105902Y-127241332D01*
X115140805Y-127198805D01*
X115183332Y-127163902D01*
X115231853Y-127137968D01*
X115284501Y-127121997D01*
X115345390Y-127116000D01*
X116145610Y-127116000D01*
X116206499Y-127121997D01*
X116206499Y-127121997D01*
G37*
G36*
X112470622Y-127346517D02*
G01*
X112518585Y-127361066D01*
X112562778Y-127384688D01*
X112601519Y-127416481D01*
X112633312Y-127455222D01*
X112656934Y-127499415D01*
X112671483Y-127547378D01*
X112677000Y-127603391D01*
X112677000Y-128428609D01*
X112671483Y-128484622D01*
X112656934Y-128532585D01*
X112633312Y-128576778D01*
X112601519Y-128615519D01*
X112562778Y-128647312D01*
X112518585Y-128670934D01*
X112470622Y-128685483D01*
X112414609Y-128691000D01*
X111664391Y-128691000D01*
X111608378Y-128685483D01*
X111560415Y-128670934D01*
X111516222Y-128647312D01*
X111477481Y-128615519D01*
X111445688Y-128576778D01*
X111422066Y-128532585D01*
X111407517Y-128484622D01*
X111402000Y-128428609D01*
X111402000Y-127603391D01*
X111407517Y-127547378D01*
X111422066Y-127499415D01*
X111445688Y-127455222D01*
X111477481Y-127416481D01*
X111516222Y-127384688D01*
X111560415Y-127361066D01*
X111608378Y-127346517D01*
X111664391Y-127341000D01*
X112414609Y-127341000D01*
X112470622Y-127346517D01*
X112470622Y-127346517D01*
G37*
G36*
X110895622Y-127346517D02*
G01*
X110943585Y-127361066D01*
X110987778Y-127384688D01*
X111026519Y-127416481D01*
X111058312Y-127455222D01*
X111081934Y-127499415D01*
X111096483Y-127547378D01*
X111102000Y-127603391D01*
X111102000Y-128428609D01*
X111096483Y-128484622D01*
X111081934Y-128532585D01*
X111058312Y-128576778D01*
X111026519Y-128615519D01*
X110987778Y-128647312D01*
X110943585Y-128670934D01*
X110895622Y-128685483D01*
X110839609Y-128691000D01*
X110089391Y-128691000D01*
X110033378Y-128685483D01*
X109985415Y-128670934D01*
X109941222Y-128647312D01*
X109902481Y-128615519D01*
X109870688Y-128576778D01*
X109847066Y-128532585D01*
X109832517Y-128484622D01*
X109827000Y-128428609D01*
X109827000Y-127603391D01*
X109832517Y-127547378D01*
X109847066Y-127499415D01*
X109870688Y-127455222D01*
X109902481Y-127416481D01*
X109941222Y-127384688D01*
X109985415Y-127361066D01*
X110033378Y-127346517D01*
X110089391Y-127341000D01*
X110839609Y-127341000D01*
X110895622Y-127346517D01*
X110895622Y-127346517D01*
G37*
G36*
X114331499Y-124581997D02*
G01*
X114384147Y-124597968D01*
X114432668Y-124623902D01*
X114475195Y-124658805D01*
X114510098Y-124701332D01*
X114536032Y-124749853D01*
X114552003Y-124802501D01*
X114558000Y-124863390D01*
X114558000Y-126088610D01*
X114552003Y-126149499D01*
X114536032Y-126202147D01*
X114510098Y-126250668D01*
X114475195Y-126293195D01*
X114432668Y-126328098D01*
X114384147Y-126354032D01*
X114331499Y-126370003D01*
X114270610Y-126376000D01*
X113470390Y-126376000D01*
X113409501Y-126370003D01*
X113356853Y-126354032D01*
X113308332Y-126328098D01*
X113265805Y-126293195D01*
X113230902Y-126250668D01*
X113204968Y-126202147D01*
X113188997Y-126149499D01*
X113183000Y-126088610D01*
X113183000Y-124863390D01*
X113188997Y-124802501D01*
X113204968Y-124749853D01*
X113230902Y-124701332D01*
X113265805Y-124658805D01*
X113308332Y-124623902D01*
X113356853Y-124597968D01*
X113409501Y-124581997D01*
X113470390Y-124576000D01*
X114270610Y-124576000D01*
X114331499Y-124581997D01*
X114331499Y-124581997D01*
G37*
G36*
X116206499Y-124581997D02*
G01*
X116259147Y-124597968D01*
X116307668Y-124623902D01*
X116350195Y-124658805D01*
X116385098Y-124701332D01*
X116411032Y-124749853D01*
X116427003Y-124802501D01*
X116433000Y-124863390D01*
X116433000Y-126088610D01*
X116427003Y-126149499D01*
X116411032Y-126202147D01*
X116385098Y-126250668D01*
X116350195Y-126293195D01*
X116307668Y-126328098D01*
X116259147Y-126354032D01*
X116206499Y-126370003D01*
X116145610Y-126376000D01*
X115345390Y-126376000D01*
X115284501Y-126370003D01*
X115231853Y-126354032D01*
X115183332Y-126328098D01*
X115140805Y-126293195D01*
X115105902Y-126250668D01*
X115079968Y-126202147D01*
X115063997Y-126149499D01*
X115058000Y-126088610D01*
X115058000Y-124863390D01*
X115063997Y-124802501D01*
X115079968Y-124749853D01*
X115105902Y-124701332D01*
X115140805Y-124658805D01*
X115183332Y-124623902D01*
X115231853Y-124597968D01*
X115284501Y-124581997D01*
X115345390Y-124576000D01*
X116145610Y-124576000D01*
X116206499Y-124581997D01*
X116206499Y-124581997D01*
G37*
G36*
X110895622Y-124806517D02*
G01*
X110943585Y-124821066D01*
X110987778Y-124844688D01*
X111026519Y-124876481D01*
X111058312Y-124915222D01*
X111081934Y-124959415D01*
X111096483Y-125007378D01*
X111102000Y-125063391D01*
X111102000Y-125888609D01*
X111096483Y-125944622D01*
X111081934Y-125992585D01*
X111058312Y-126036778D01*
X111026519Y-126075519D01*
X110987778Y-126107312D01*
X110943585Y-126130934D01*
X110895622Y-126145483D01*
X110839609Y-126151000D01*
X110089391Y-126151000D01*
X110033378Y-126145483D01*
X109985415Y-126130934D01*
X109941222Y-126107312D01*
X109902481Y-126075519D01*
X109870688Y-126036778D01*
X109847066Y-125992585D01*
X109832517Y-125944622D01*
X109827000Y-125888609D01*
X109827000Y-125063391D01*
X109832517Y-125007378D01*
X109847066Y-124959415D01*
X109870688Y-124915222D01*
X109902481Y-124876481D01*
X109941222Y-124844688D01*
X109985415Y-124821066D01*
X110033378Y-124806517D01*
X110089391Y-124801000D01*
X110839609Y-124801000D01*
X110895622Y-124806517D01*
X110895622Y-124806517D01*
G37*
G36*
X112470622Y-124806517D02*
G01*
X112518585Y-124821066D01*
X112562778Y-124844688D01*
X112601519Y-124876481D01*
X112633312Y-124915222D01*
X112656934Y-124959415D01*
X112671483Y-125007378D01*
X112677000Y-125063391D01*
X112677000Y-125888609D01*
X112671483Y-125944622D01*
X112656934Y-125992585D01*
X112633312Y-126036778D01*
X112601519Y-126075519D01*
X112562778Y-126107312D01*
X112518585Y-126130934D01*
X112470622Y-126145483D01*
X112414609Y-126151000D01*
X111664391Y-126151000D01*
X111608378Y-126145483D01*
X111560415Y-126130934D01*
X111516222Y-126107312D01*
X111477481Y-126075519D01*
X111445688Y-126036778D01*
X111422066Y-125992585D01*
X111407517Y-125944622D01*
X111402000Y-125888609D01*
X111402000Y-125063391D01*
X111407517Y-125007378D01*
X111422066Y-124959415D01*
X111445688Y-124915222D01*
X111477481Y-124876481D01*
X111516222Y-124844688D01*
X111560415Y-124821066D01*
X111608378Y-124806517D01*
X111664391Y-124801000D01*
X112414609Y-124801000D01*
X112470622Y-124806517D01*
X112470622Y-124806517D01*
G37*
G36*
X158174232Y-121499746D02*
G01*
X158263770Y-121526907D01*
X158353309Y-121554068D01*
X158441523Y-121601220D01*
X158518345Y-121642282D01*
X158518347Y-121642283D01*
X158518346Y-121642283D01*
X158663002Y-121760998D01*
X158781717Y-121905654D01*
X158869932Y-122070691D01*
X158869932Y-122070692D01*
X158924254Y-122249768D01*
X158938000Y-122389335D01*
X158938000Y-123482665D01*
X158927337Y-123590934D01*
X158924254Y-123622231D01*
X158869932Y-123801309D01*
X158851389Y-123836000D01*
X158781719Y-123966344D01*
X158781717Y-123966346D01*
X158663002Y-124111002D01*
X158563290Y-124192832D01*
X158518345Y-124229718D01*
X158440831Y-124271150D01*
X158353310Y-124317931D01*
X158353307Y-124317932D01*
X158174231Y-124372254D01*
X157988000Y-124390596D01*
X157801768Y-124372254D01*
X157712230Y-124345093D01*
X157622691Y-124317932D01*
X157534477Y-124270780D01*
X157457655Y-124229718D01*
X157444684Y-124219073D01*
X157312998Y-124111002D01*
X157210413Y-123986000D01*
X157194282Y-123966345D01*
X157152850Y-123888831D01*
X157106069Y-123801310D01*
X157099019Y-123778068D01*
X157051746Y-123622231D01*
X157038000Y-123482664D01*
X157038000Y-122389334D01*
X157051746Y-122249771D01*
X157091474Y-122118805D01*
X157106069Y-122070692D01*
X157194283Y-121905655D01*
X157204928Y-121892684D01*
X157312999Y-121760998D01*
X157457655Y-121642283D01*
X157457654Y-121642283D01*
X157457656Y-121642282D01*
X157534478Y-121601220D01*
X157622692Y-121554068D01*
X157712231Y-121526907D01*
X157801769Y-121499746D01*
X157988000Y-121481404D01*
X158174232Y-121499746D01*
X158174232Y-121499746D01*
G37*
G36*
X155634232Y-121499746D02*
G01*
X155723770Y-121526907D01*
X155813309Y-121554068D01*
X155901523Y-121601220D01*
X155978345Y-121642282D01*
X155978347Y-121642283D01*
X155978346Y-121642283D01*
X156123002Y-121760998D01*
X156241717Y-121905654D01*
X156329932Y-122070691D01*
X156329932Y-122070692D01*
X156384254Y-122249768D01*
X156398000Y-122389335D01*
X156398000Y-123482665D01*
X156387337Y-123590934D01*
X156384254Y-123622231D01*
X156329932Y-123801309D01*
X156311389Y-123836000D01*
X156241719Y-123966344D01*
X156241717Y-123966346D01*
X156123002Y-124111002D01*
X156023290Y-124192832D01*
X155978345Y-124229718D01*
X155900831Y-124271150D01*
X155813310Y-124317931D01*
X155813307Y-124317932D01*
X155634231Y-124372254D01*
X155448000Y-124390596D01*
X155261768Y-124372254D01*
X155172230Y-124345093D01*
X155082691Y-124317932D01*
X154994477Y-124270780D01*
X154917655Y-124229718D01*
X154904684Y-124219073D01*
X154772998Y-124111002D01*
X154670413Y-123986000D01*
X154654282Y-123966345D01*
X154612850Y-123888831D01*
X154566069Y-123801310D01*
X154559019Y-123778068D01*
X154511746Y-123622231D01*
X154498000Y-123482664D01*
X154498000Y-122389334D01*
X154511746Y-122249771D01*
X154551474Y-122118805D01*
X154566069Y-122070692D01*
X154654283Y-121905655D01*
X154664928Y-121892684D01*
X154772999Y-121760998D01*
X154917655Y-121642283D01*
X154917654Y-121642283D01*
X154917656Y-121642282D01*
X154994478Y-121601220D01*
X155082692Y-121554068D01*
X155172231Y-121526907D01*
X155261769Y-121499746D01*
X155448000Y-121481404D01*
X155634232Y-121499746D01*
X155634232Y-121499746D01*
G37*
G36*
X161478000Y-124386000D02*
G01*
X159578000Y-124386000D01*
X159578000Y-121486000D01*
X161478000Y-121486000D01*
X161478000Y-124386000D01*
X161478000Y-124386000D01*
G37*
G36*
X108746000Y-123986000D02*
G01*
X106646000Y-123986000D01*
X106646000Y-121886000D01*
X108746000Y-121886000D01*
X108746000Y-123986000D01*
X108746000Y-123986000D01*
G37*
G36*
X116206499Y-122041997D02*
G01*
X116259147Y-122057968D01*
X116307668Y-122083902D01*
X116350195Y-122118805D01*
X116385098Y-122161332D01*
X116411032Y-122209853D01*
X116427003Y-122262501D01*
X116433000Y-122323390D01*
X116433000Y-123548610D01*
X116427003Y-123609499D01*
X116411032Y-123662147D01*
X116385098Y-123710668D01*
X116350195Y-123753195D01*
X116307668Y-123788098D01*
X116259147Y-123814032D01*
X116206499Y-123830003D01*
X116145610Y-123836000D01*
X115345390Y-123836000D01*
X115284501Y-123830003D01*
X115231853Y-123814032D01*
X115183332Y-123788098D01*
X115140805Y-123753195D01*
X115105902Y-123710668D01*
X115079968Y-123662147D01*
X115063997Y-123609499D01*
X115058000Y-123548610D01*
X115058000Y-122323390D01*
X115063997Y-122262501D01*
X115079968Y-122209853D01*
X115105902Y-122161332D01*
X115140805Y-122118805D01*
X115183332Y-122083902D01*
X115231853Y-122057968D01*
X115284501Y-122041997D01*
X115345390Y-122036000D01*
X116145610Y-122036000D01*
X116206499Y-122041997D01*
X116206499Y-122041997D01*
G37*
G36*
X114331499Y-122041997D02*
G01*
X114384147Y-122057968D01*
X114432668Y-122083902D01*
X114475195Y-122118805D01*
X114510098Y-122161332D01*
X114536032Y-122209853D01*
X114552003Y-122262501D01*
X114558000Y-122323390D01*
X114558000Y-123548610D01*
X114552003Y-123609499D01*
X114536032Y-123662147D01*
X114510098Y-123710668D01*
X114475195Y-123753195D01*
X114432668Y-123788098D01*
X114384147Y-123814032D01*
X114331499Y-123830003D01*
X114270610Y-123836000D01*
X113470390Y-123836000D01*
X113409501Y-123830003D01*
X113356853Y-123814032D01*
X113308332Y-123788098D01*
X113265805Y-123753195D01*
X113230902Y-123710668D01*
X113204968Y-123662147D01*
X113188997Y-123609499D01*
X113183000Y-123548610D01*
X113183000Y-122323390D01*
X113188997Y-122262501D01*
X113204968Y-122209853D01*
X113230902Y-122161332D01*
X113265805Y-122118805D01*
X113308332Y-122083902D01*
X113356853Y-122057968D01*
X113409501Y-122041997D01*
X113470390Y-122036000D01*
X114270610Y-122036000D01*
X114331499Y-122041997D01*
X114331499Y-122041997D01*
G37*
G36*
X110895622Y-122266517D02*
G01*
X110943585Y-122281066D01*
X110987778Y-122304688D01*
X111026519Y-122336481D01*
X111058312Y-122375222D01*
X111081934Y-122419415D01*
X111096483Y-122467378D01*
X111102000Y-122523391D01*
X111102000Y-123348609D01*
X111096483Y-123404622D01*
X111081934Y-123452585D01*
X111058312Y-123496778D01*
X111026519Y-123535519D01*
X110987778Y-123567312D01*
X110943585Y-123590934D01*
X110895622Y-123605483D01*
X110839609Y-123611000D01*
X110089391Y-123611000D01*
X110033378Y-123605483D01*
X109985415Y-123590934D01*
X109941222Y-123567312D01*
X109902481Y-123535519D01*
X109870688Y-123496778D01*
X109847066Y-123452585D01*
X109832517Y-123404622D01*
X109827000Y-123348609D01*
X109827000Y-122523391D01*
X109832517Y-122467378D01*
X109847066Y-122419415D01*
X109870688Y-122375222D01*
X109902481Y-122336481D01*
X109941222Y-122304688D01*
X109985415Y-122281066D01*
X110033378Y-122266517D01*
X110089391Y-122261000D01*
X110839609Y-122261000D01*
X110895622Y-122266517D01*
X110895622Y-122266517D01*
G37*
G36*
X112470622Y-122266517D02*
G01*
X112518585Y-122281066D01*
X112562778Y-122304688D01*
X112601519Y-122336481D01*
X112633312Y-122375222D01*
X112656934Y-122419415D01*
X112671483Y-122467378D01*
X112677000Y-122523391D01*
X112677000Y-123348609D01*
X112671483Y-123404622D01*
X112656934Y-123452585D01*
X112633312Y-123496778D01*
X112601519Y-123535519D01*
X112562778Y-123567312D01*
X112518585Y-123590934D01*
X112470622Y-123605483D01*
X112414609Y-123611000D01*
X111664391Y-123611000D01*
X111608378Y-123605483D01*
X111560415Y-123590934D01*
X111516222Y-123567312D01*
X111477481Y-123535519D01*
X111445688Y-123496778D01*
X111422066Y-123452585D01*
X111407517Y-123404622D01*
X111402000Y-123348609D01*
X111402000Y-122523391D01*
X111407517Y-122467378D01*
X111422066Y-122419415D01*
X111445688Y-122375222D01*
X111477481Y-122336481D01*
X111516222Y-122304688D01*
X111560415Y-122281066D01*
X111608378Y-122266517D01*
X111664391Y-122261000D01*
X112414609Y-122261000D01*
X112470622Y-122266517D01*
X112470622Y-122266517D01*
G37*
G36*
X102650000Y-122462000D02*
G01*
X100550000Y-122462000D01*
X100550000Y-120362000D01*
X102650000Y-120362000D01*
X102650000Y-122462000D01*
X102650000Y-122462000D01*
G37*
G36*
X148843617Y-119882979D02*
G01*
X148969196Y-119907958D01*
X149136486Y-119977252D01*
X149172666Y-119992238D01*
X149205781Y-120005955D01*
X149418702Y-120148224D01*
X149599776Y-120329298D01*
X149742045Y-120542219D01*
X149742046Y-120542221D01*
X149840042Y-120778805D01*
X149890000Y-121029960D01*
X149890000Y-121286040D01*
X149840042Y-121537195D01*
X149747340Y-121760999D01*
X149742045Y-121773781D01*
X149599776Y-121986702D01*
X149418702Y-122167776D01*
X149205781Y-122310045D01*
X149205780Y-122310046D01*
X149205779Y-122310046D01*
X149141959Y-122336481D01*
X148969196Y-122408042D01*
X148718040Y-122458000D01*
X148461960Y-122458000D01*
X148210804Y-122408042D01*
X148038041Y-122336481D01*
X147974221Y-122310046D01*
X147974220Y-122310046D01*
X147974219Y-122310045D01*
X147761298Y-122167776D01*
X147580224Y-121986702D01*
X147437955Y-121773781D01*
X147432661Y-121760999D01*
X147339958Y-121537195D01*
X147290000Y-121286040D01*
X147290000Y-121029960D01*
X147339958Y-120778805D01*
X147437954Y-120542221D01*
X147437955Y-120542219D01*
X147580224Y-120329298D01*
X147761298Y-120148224D01*
X147974219Y-120005955D01*
X148007335Y-119992238D01*
X148043514Y-119977252D01*
X148210804Y-119907958D01*
X148336383Y-119882979D01*
X148461960Y-119858000D01*
X148718040Y-119858000D01*
X148843617Y-119882979D01*
X148843617Y-119882979D01*
G37*
G36*
X107824707Y-119353596D02*
G01*
X107901836Y-119361193D01*
X108099762Y-119421233D01*
X108099765Y-119421234D01*
X108282170Y-119518732D01*
X108442055Y-119649945D01*
X108573268Y-119809830D01*
X108670766Y-119992235D01*
X108670767Y-119992238D01*
X108730807Y-120190164D01*
X108751080Y-120396000D01*
X108730807Y-120601836D01*
X108677124Y-120778805D01*
X108670766Y-120799765D01*
X108573268Y-120982170D01*
X108442055Y-121142055D01*
X108282170Y-121273268D01*
X108099765Y-121370766D01*
X108099762Y-121370767D01*
X107901836Y-121430807D01*
X107824707Y-121438403D01*
X107747580Y-121446000D01*
X107644420Y-121446000D01*
X107567293Y-121438403D01*
X107490164Y-121430807D01*
X107292238Y-121370767D01*
X107292235Y-121370766D01*
X107109830Y-121273268D01*
X106949945Y-121142055D01*
X106818732Y-120982170D01*
X106721234Y-120799765D01*
X106714876Y-120778805D01*
X106661193Y-120601836D01*
X106640920Y-120396000D01*
X106661193Y-120190164D01*
X106721233Y-119992238D01*
X106721234Y-119992235D01*
X106818732Y-119809830D01*
X106949945Y-119649945D01*
X107109830Y-119518732D01*
X107292235Y-119421234D01*
X107292238Y-119421233D01*
X107490164Y-119361193D01*
X107567293Y-119353596D01*
X107644420Y-119346000D01*
X107747580Y-119346000D01*
X107824707Y-119353596D01*
X107824707Y-119353596D01*
G37*
G36*
X101728707Y-117829596D02*
G01*
X101805836Y-117837193D01*
X102003762Y-117897233D01*
X102003765Y-117897234D01*
X102186170Y-117994732D01*
X102346055Y-118125945D01*
X102477268Y-118285830D01*
X102574766Y-118468235D01*
X102574767Y-118468238D01*
X102634807Y-118666164D01*
X102655080Y-118872000D01*
X102634807Y-119077836D01*
X102574767Y-119275762D01*
X102574766Y-119275765D01*
X102477268Y-119458170D01*
X102346055Y-119618055D01*
X102186170Y-119749268D01*
X102003765Y-119846766D01*
X102003762Y-119846767D01*
X101805836Y-119906807D01*
X101728707Y-119914403D01*
X101651580Y-119922000D01*
X101548420Y-119922000D01*
X101471293Y-119914403D01*
X101394164Y-119906807D01*
X101196238Y-119846767D01*
X101196235Y-119846766D01*
X101013830Y-119749268D01*
X100853945Y-119618055D01*
X100722732Y-119458170D01*
X100625234Y-119275765D01*
X100625233Y-119275762D01*
X100565193Y-119077836D01*
X100544920Y-118872000D01*
X100565193Y-118666164D01*
X100625233Y-118468238D01*
X100625234Y-118468235D01*
X100722732Y-118285830D01*
X100853945Y-118125945D01*
X101013830Y-117994732D01*
X101196235Y-117897234D01*
X101196238Y-117897233D01*
X101394164Y-117837193D01*
X101471293Y-117829596D01*
X101548420Y-117822000D01*
X101651580Y-117822000D01*
X101728707Y-117829596D01*
X101728707Y-117829596D01*
G37*
G36*
X107824707Y-116813597D02*
G01*
X107901836Y-116821193D01*
X108099762Y-116881233D01*
X108099765Y-116881234D01*
X108282170Y-116978732D01*
X108442055Y-117109945D01*
X108573268Y-117269830D01*
X108670766Y-117452235D01*
X108670767Y-117452238D01*
X108730807Y-117650164D01*
X108751080Y-117856000D01*
X108730807Y-118061836D01*
X108670767Y-118259762D01*
X108670766Y-118259765D01*
X108573268Y-118442170D01*
X108442055Y-118602055D01*
X108282170Y-118733268D01*
X108099765Y-118830766D01*
X108099762Y-118830767D01*
X107901836Y-118890807D01*
X107824707Y-118898403D01*
X107747580Y-118906000D01*
X107644420Y-118906000D01*
X107567293Y-118898403D01*
X107490164Y-118890807D01*
X107292238Y-118830767D01*
X107292235Y-118830766D01*
X107109830Y-118733268D01*
X106949945Y-118602055D01*
X106818732Y-118442170D01*
X106721234Y-118259765D01*
X106721233Y-118259762D01*
X106661193Y-118061836D01*
X106640920Y-117856000D01*
X106661193Y-117650164D01*
X106721233Y-117452238D01*
X106721234Y-117452235D01*
X106818732Y-117269830D01*
X106949945Y-117109945D01*
X107109830Y-116978732D01*
X107292235Y-116881234D01*
X107292238Y-116881233D01*
X107490164Y-116821193D01*
X107567293Y-116813597D01*
X107644420Y-116806000D01*
X107747580Y-116806000D01*
X107824707Y-116813597D01*
X107824707Y-116813597D01*
G37*
G36*
X158654517Y-115844946D02*
G01*
X158696908Y-115857805D01*
X158735973Y-115878686D01*
X158770214Y-115906786D01*
X158798314Y-115941027D01*
X158819195Y-115980092D01*
X158832054Y-116022483D01*
X158837000Y-116072703D01*
X158837000Y-117607297D01*
X158832054Y-117657517D01*
X158819195Y-117699908D01*
X158798314Y-117738973D01*
X158770214Y-117773214D01*
X158735973Y-117801314D01*
X158696908Y-117822195D01*
X158654517Y-117835054D01*
X158604297Y-117840000D01*
X155344703Y-117840000D01*
X155294483Y-117835054D01*
X155252092Y-117822195D01*
X155213027Y-117801314D01*
X155178786Y-117773214D01*
X155150686Y-117738973D01*
X155129805Y-117699908D01*
X155116946Y-117657517D01*
X155112000Y-117607297D01*
X155112000Y-116072703D01*
X155116946Y-116022483D01*
X155129805Y-115980092D01*
X155150686Y-115941027D01*
X155178786Y-115906786D01*
X155213027Y-115878686D01*
X155252092Y-115857805D01*
X155294483Y-115844946D01*
X155344703Y-115840000D01*
X158604297Y-115840000D01*
X158654517Y-115844946D01*
X158654517Y-115844946D01*
G37*
G36*
X163729517Y-115844946D02*
G01*
X163771908Y-115857805D01*
X163810973Y-115878686D01*
X163845214Y-115906786D01*
X163873314Y-115941027D01*
X163894195Y-115980092D01*
X163907054Y-116022483D01*
X163912000Y-116072703D01*
X163912000Y-117607297D01*
X163907054Y-117657517D01*
X163894195Y-117699908D01*
X163873314Y-117738973D01*
X163845214Y-117773214D01*
X163810973Y-117801314D01*
X163771908Y-117822195D01*
X163729517Y-117835054D01*
X163679297Y-117840000D01*
X160419703Y-117840000D01*
X160369483Y-117835054D01*
X160327092Y-117822195D01*
X160288027Y-117801314D01*
X160253786Y-117773214D01*
X160225686Y-117738973D01*
X160204805Y-117699908D01*
X160191946Y-117657517D01*
X160187000Y-117607297D01*
X160187000Y-116072703D01*
X160191946Y-116022483D01*
X160204805Y-115980092D01*
X160225686Y-115941027D01*
X160253786Y-115906786D01*
X160288027Y-115878686D01*
X160327092Y-115857805D01*
X160369483Y-115844946D01*
X160419703Y-115840000D01*
X163679297Y-115840000D01*
X163729517Y-115844946D01*
X163729517Y-115844946D01*
G37*
G36*
X101728707Y-115289597D02*
G01*
X101805836Y-115297193D01*
X102003762Y-115357233D01*
X102003765Y-115357234D01*
X102186170Y-115454732D01*
X102346055Y-115585945D01*
X102477268Y-115745830D01*
X102574766Y-115928235D01*
X102574767Y-115928238D01*
X102634807Y-116126164D01*
X102655080Y-116332000D01*
X102634807Y-116537836D01*
X102587502Y-116693779D01*
X102574766Y-116735765D01*
X102477268Y-116918170D01*
X102346055Y-117078055D01*
X102186170Y-117209268D01*
X102003765Y-117306766D01*
X102003762Y-117306767D01*
X101805836Y-117366807D01*
X101728707Y-117374403D01*
X101651580Y-117382000D01*
X101548420Y-117382000D01*
X101471293Y-117374403D01*
X101394164Y-117366807D01*
X101196238Y-117306767D01*
X101196235Y-117306766D01*
X101013830Y-117209268D01*
X100853945Y-117078055D01*
X100722732Y-116918170D01*
X100625234Y-116735765D01*
X100612498Y-116693779D01*
X100565193Y-116537836D01*
X100544920Y-116332000D01*
X100565193Y-116126164D01*
X100625233Y-115928238D01*
X100625234Y-115928235D01*
X100722732Y-115745830D01*
X100853945Y-115585945D01*
X101013830Y-115454732D01*
X101196235Y-115357234D01*
X101196238Y-115357233D01*
X101394164Y-115297193D01*
X101471293Y-115289597D01*
X101548420Y-115282000D01*
X101651580Y-115282000D01*
X101728707Y-115289597D01*
X101728707Y-115289597D01*
G37*
G36*
X141349196Y-114827958D02*
G01*
X141516486Y-114897252D01*
X141552666Y-114912238D01*
X141585781Y-114925955D01*
X141798702Y-115068224D01*
X141979776Y-115249298D01*
X142122045Y-115462219D01*
X142173295Y-115585946D01*
X142220042Y-115698805D01*
X142265679Y-115928235D01*
X142270000Y-115949961D01*
X142270000Y-116206039D01*
X142220042Y-116457196D01*
X142122045Y-116693781D01*
X141979776Y-116906702D01*
X141798702Y-117087776D01*
X141585781Y-117230045D01*
X141349196Y-117328042D01*
X141098040Y-117378000D01*
X140841960Y-117378000D01*
X140590804Y-117328042D01*
X140354219Y-117230045D01*
X140141298Y-117087776D01*
X139960224Y-116906702D01*
X139817955Y-116693781D01*
X139719958Y-116457196D01*
X139670000Y-116206039D01*
X139670000Y-115949961D01*
X139674322Y-115928235D01*
X139719958Y-115698805D01*
X139766706Y-115585946D01*
X139817955Y-115462219D01*
X139960224Y-115249298D01*
X140141298Y-115068224D01*
X140354219Y-114925955D01*
X140387335Y-114912238D01*
X140423514Y-114897252D01*
X140590804Y-114827958D01*
X140841960Y-114778000D01*
X141098040Y-114778000D01*
X141349196Y-114827958D01*
X141349196Y-114827958D01*
G37*
G36*
X107824707Y-114273596D02*
G01*
X107901836Y-114281193D01*
X108099762Y-114341233D01*
X108099765Y-114341234D01*
X108282170Y-114438732D01*
X108442055Y-114569945D01*
X108573268Y-114729830D01*
X108670766Y-114912235D01*
X108670767Y-114912238D01*
X108730807Y-115110164D01*
X108751080Y-115316000D01*
X108730807Y-115521836D01*
X108677124Y-115698805D01*
X108670766Y-115719765D01*
X108573268Y-115902170D01*
X108442055Y-116062055D01*
X108282170Y-116193268D01*
X108099765Y-116290766D01*
X108099762Y-116290767D01*
X107901836Y-116350807D01*
X107824707Y-116358404D01*
X107747580Y-116366000D01*
X107644420Y-116366000D01*
X107567293Y-116358404D01*
X107490164Y-116350807D01*
X107292238Y-116290767D01*
X107292235Y-116290766D01*
X107109830Y-116193268D01*
X106949945Y-116062055D01*
X106818732Y-115902170D01*
X106721234Y-115719765D01*
X106714876Y-115698805D01*
X106661193Y-115521836D01*
X106640920Y-115316000D01*
X106661193Y-115110164D01*
X106721233Y-114912238D01*
X106721234Y-114912235D01*
X106818732Y-114729830D01*
X106949945Y-114569945D01*
X107109830Y-114438732D01*
X107292235Y-114341234D01*
X107292238Y-114341233D01*
X107490164Y-114281193D01*
X107567293Y-114273596D01*
X107644420Y-114266000D01*
X107747580Y-114266000D01*
X107824707Y-114273596D01*
X107824707Y-114273596D01*
G37*
G36*
X123699707Y-114146596D02*
G01*
X123776836Y-114154193D01*
X123974762Y-114214233D01*
X123974765Y-114214234D01*
X124157170Y-114311732D01*
X124317055Y-114442945D01*
X124448268Y-114602830D01*
X124545766Y-114785235D01*
X124545767Y-114785238D01*
X124605807Y-114983164D01*
X124626080Y-115189000D01*
X124605807Y-115394836D01*
X124545767Y-115592762D01*
X124545766Y-115592765D01*
X124448268Y-115775170D01*
X124317055Y-115935055D01*
X124157170Y-116066268D01*
X123974765Y-116163766D01*
X123974762Y-116163767D01*
X123776836Y-116223807D01*
X123699707Y-116231404D01*
X123622580Y-116239000D01*
X123519420Y-116239000D01*
X123442293Y-116231404D01*
X123365164Y-116223807D01*
X123167238Y-116163767D01*
X123167235Y-116163766D01*
X122984830Y-116066268D01*
X122824945Y-115935055D01*
X122693732Y-115775170D01*
X122596234Y-115592765D01*
X122596233Y-115592762D01*
X122536193Y-115394836D01*
X122515920Y-115189000D01*
X122536193Y-114983164D01*
X122596233Y-114785238D01*
X122596234Y-114785235D01*
X122693732Y-114602830D01*
X122824945Y-114442945D01*
X122984830Y-114311732D01*
X123167235Y-114214234D01*
X123167238Y-114214233D01*
X123365164Y-114154193D01*
X123442293Y-114146596D01*
X123519420Y-114139000D01*
X123622580Y-114139000D01*
X123699707Y-114146596D01*
X123699707Y-114146596D01*
G37*
G36*
X120651707Y-114146596D02*
G01*
X120728836Y-114154193D01*
X120926762Y-114214233D01*
X120926765Y-114214234D01*
X121109170Y-114311732D01*
X121269055Y-114442945D01*
X121400268Y-114602830D01*
X121497766Y-114785235D01*
X121497767Y-114785238D01*
X121557807Y-114983164D01*
X121578080Y-115189000D01*
X121557807Y-115394836D01*
X121497767Y-115592762D01*
X121497766Y-115592765D01*
X121400268Y-115775170D01*
X121269055Y-115935055D01*
X121109170Y-116066268D01*
X120926765Y-116163766D01*
X120926762Y-116163767D01*
X120728836Y-116223807D01*
X120651707Y-116231404D01*
X120574580Y-116239000D01*
X120471420Y-116239000D01*
X120394293Y-116231404D01*
X120317164Y-116223807D01*
X120119238Y-116163767D01*
X120119235Y-116163766D01*
X119936830Y-116066268D01*
X119776945Y-115935055D01*
X119645732Y-115775170D01*
X119548234Y-115592765D01*
X119548233Y-115592762D01*
X119488193Y-115394836D01*
X119467920Y-115189000D01*
X119488193Y-114983164D01*
X119548233Y-114785238D01*
X119548234Y-114785235D01*
X119645732Y-114602830D01*
X119776945Y-114442945D01*
X119936830Y-114311732D01*
X120119235Y-114214234D01*
X120119238Y-114214233D01*
X120317164Y-114154193D01*
X120394293Y-114146596D01*
X120471420Y-114139000D01*
X120574580Y-114139000D01*
X120651707Y-114146596D01*
X120651707Y-114146596D01*
G37*
G36*
X116333707Y-114146596D02*
G01*
X116410836Y-114154193D01*
X116608762Y-114214233D01*
X116608765Y-114214234D01*
X116791170Y-114311732D01*
X116951055Y-114442945D01*
X117082268Y-114602830D01*
X117179766Y-114785235D01*
X117179767Y-114785238D01*
X117239807Y-114983164D01*
X117260080Y-115189000D01*
X117239807Y-115394836D01*
X117179767Y-115592762D01*
X117179766Y-115592765D01*
X117082268Y-115775170D01*
X116951055Y-115935055D01*
X116791170Y-116066268D01*
X116608765Y-116163766D01*
X116608762Y-116163767D01*
X116410836Y-116223807D01*
X116333707Y-116231404D01*
X116256580Y-116239000D01*
X116153420Y-116239000D01*
X116076293Y-116231404D01*
X115999164Y-116223807D01*
X115801238Y-116163767D01*
X115801235Y-116163766D01*
X115618830Y-116066268D01*
X115458945Y-115935055D01*
X115327732Y-115775170D01*
X115230234Y-115592765D01*
X115230233Y-115592762D01*
X115170193Y-115394836D01*
X115149920Y-115189000D01*
X115170193Y-114983164D01*
X115230233Y-114785238D01*
X115230234Y-114785235D01*
X115327732Y-114602830D01*
X115458945Y-114442945D01*
X115618830Y-114311732D01*
X115801235Y-114214234D01*
X115801238Y-114214233D01*
X115999164Y-114154193D01*
X116076293Y-114146596D01*
X116153420Y-114139000D01*
X116256580Y-114139000D01*
X116333707Y-114146596D01*
X116333707Y-114146596D01*
G37*
G36*
X113285707Y-114146596D02*
G01*
X113362836Y-114154193D01*
X113560762Y-114214233D01*
X113560765Y-114214234D01*
X113743170Y-114311732D01*
X113903055Y-114442945D01*
X114034268Y-114602830D01*
X114131766Y-114785235D01*
X114131767Y-114785238D01*
X114191807Y-114983164D01*
X114212080Y-115189000D01*
X114191807Y-115394836D01*
X114131767Y-115592762D01*
X114131766Y-115592765D01*
X114034268Y-115775170D01*
X113903055Y-115935055D01*
X113743170Y-116066268D01*
X113560765Y-116163766D01*
X113560762Y-116163767D01*
X113362836Y-116223807D01*
X113285707Y-116231404D01*
X113208580Y-116239000D01*
X113105420Y-116239000D01*
X113028293Y-116231404D01*
X112951164Y-116223807D01*
X112753238Y-116163767D01*
X112753235Y-116163766D01*
X112570830Y-116066268D01*
X112410945Y-115935055D01*
X112279732Y-115775170D01*
X112182234Y-115592765D01*
X112182233Y-115592762D01*
X112122193Y-115394836D01*
X112101920Y-115189000D01*
X112122193Y-114983164D01*
X112182233Y-114785238D01*
X112182234Y-114785235D01*
X112279732Y-114602830D01*
X112410945Y-114442945D01*
X112570830Y-114311732D01*
X112753235Y-114214234D01*
X112753238Y-114214233D01*
X112951164Y-114154193D01*
X113028293Y-114146596D01*
X113105420Y-114139000D01*
X113208580Y-114139000D01*
X113285707Y-114146596D01*
X113285707Y-114146596D01*
G37*
G36*
X101728707Y-112749596D02*
G01*
X101805836Y-112757193D01*
X102003762Y-112817233D01*
X102003765Y-112817234D01*
X102186170Y-112914732D01*
X102346055Y-113045945D01*
X102477268Y-113205830D01*
X102574766Y-113388235D01*
X102574767Y-113388238D01*
X102634807Y-113586164D01*
X102655080Y-113792000D01*
X102634807Y-113997836D01*
X102587377Y-114154193D01*
X102574766Y-114195765D01*
X102477268Y-114378170D01*
X102346055Y-114538055D01*
X102186170Y-114669268D01*
X102003765Y-114766766D01*
X102003762Y-114766767D01*
X101805836Y-114826807D01*
X101728707Y-114834404D01*
X101651580Y-114842000D01*
X101548420Y-114842000D01*
X101471293Y-114834404D01*
X101394164Y-114826807D01*
X101196238Y-114766767D01*
X101196235Y-114766766D01*
X101013830Y-114669268D01*
X100853945Y-114538055D01*
X100722732Y-114378170D01*
X100625234Y-114195765D01*
X100612623Y-114154193D01*
X100565193Y-113997836D01*
X100544920Y-113792000D01*
X100565193Y-113586164D01*
X100625233Y-113388238D01*
X100625234Y-113388235D01*
X100722732Y-113205830D01*
X100853945Y-113045945D01*
X101013830Y-112914732D01*
X101196235Y-112817234D01*
X101196238Y-112817233D01*
X101394164Y-112757193D01*
X101471293Y-112749596D01*
X101548420Y-112742000D01*
X101651580Y-112742000D01*
X101728707Y-112749596D01*
X101728707Y-112749596D01*
G37*
G36*
X107824707Y-111733596D02*
G01*
X107901836Y-111741193D01*
X108099762Y-111801233D01*
X108099765Y-111801234D01*
X108282170Y-111898732D01*
X108442055Y-112029945D01*
X108573268Y-112189830D01*
X108670766Y-112372235D01*
X108670767Y-112372238D01*
X108730807Y-112570164D01*
X108751080Y-112776000D01*
X108730807Y-112981836D01*
X108709291Y-113052765D01*
X108670766Y-113179765D01*
X108573268Y-113362170D01*
X108442055Y-113522055D01*
X108282170Y-113653268D01*
X108099765Y-113750766D01*
X108099762Y-113750767D01*
X107901836Y-113810807D01*
X107824707Y-113818404D01*
X107747580Y-113826000D01*
X107644420Y-113826000D01*
X107567293Y-113818404D01*
X107490164Y-113810807D01*
X107292238Y-113750767D01*
X107292235Y-113750766D01*
X107109830Y-113653268D01*
X106949945Y-113522055D01*
X106818732Y-113362170D01*
X106721234Y-113179765D01*
X106682709Y-113052765D01*
X106661193Y-112981836D01*
X106640920Y-112776000D01*
X106661193Y-112570164D01*
X106721233Y-112372238D01*
X106721234Y-112372235D01*
X106818732Y-112189830D01*
X106949945Y-112029945D01*
X107109830Y-111898732D01*
X107292235Y-111801234D01*
X107292238Y-111801233D01*
X107490164Y-111741193D01*
X107567293Y-111733596D01*
X107644420Y-111726000D01*
X107747580Y-111726000D01*
X107824707Y-111733596D01*
X107824707Y-111733596D01*
G37*
G36*
X113285707Y-111606596D02*
G01*
X113362836Y-111614193D01*
X113560762Y-111674233D01*
X113560765Y-111674234D01*
X113743170Y-111771732D01*
X113903055Y-111902945D01*
X114034268Y-112062830D01*
X114131766Y-112245235D01*
X114131767Y-112245238D01*
X114191807Y-112443164D01*
X114212080Y-112649000D01*
X114191807Y-112854836D01*
X114131767Y-113052762D01*
X114131766Y-113052765D01*
X114034268Y-113235170D01*
X113903055Y-113395055D01*
X113743170Y-113526268D01*
X113560765Y-113623766D01*
X113560762Y-113623767D01*
X113362836Y-113683807D01*
X113285707Y-113691403D01*
X113208580Y-113699000D01*
X113105420Y-113699000D01*
X113028293Y-113691403D01*
X112951164Y-113683807D01*
X112753238Y-113623767D01*
X112753235Y-113623766D01*
X112570830Y-113526268D01*
X112410945Y-113395055D01*
X112279732Y-113235170D01*
X112182234Y-113052765D01*
X112182233Y-113052762D01*
X112122193Y-112854836D01*
X112101920Y-112649000D01*
X112122193Y-112443164D01*
X112182233Y-112245238D01*
X112182234Y-112245235D01*
X112279732Y-112062830D01*
X112410945Y-111902945D01*
X112570830Y-111771732D01*
X112753235Y-111674234D01*
X112753238Y-111674233D01*
X112951164Y-111614193D01*
X113028293Y-111606596D01*
X113105420Y-111599000D01*
X113208580Y-111599000D01*
X113285707Y-111606596D01*
X113285707Y-111606596D01*
G37*
G36*
X120651707Y-111606596D02*
G01*
X120728836Y-111614193D01*
X120926762Y-111674233D01*
X120926765Y-111674234D01*
X121109170Y-111771732D01*
X121269055Y-111902945D01*
X121400268Y-112062830D01*
X121497766Y-112245235D01*
X121497767Y-112245238D01*
X121557807Y-112443164D01*
X121578080Y-112649000D01*
X121557807Y-112854836D01*
X121497767Y-113052762D01*
X121497766Y-113052765D01*
X121400268Y-113235170D01*
X121269055Y-113395055D01*
X121109170Y-113526268D01*
X120926765Y-113623766D01*
X120926762Y-113623767D01*
X120728836Y-113683807D01*
X120651707Y-113691403D01*
X120574580Y-113699000D01*
X120471420Y-113699000D01*
X120394293Y-113691403D01*
X120317164Y-113683807D01*
X120119238Y-113623767D01*
X120119235Y-113623766D01*
X119936830Y-113526268D01*
X119776945Y-113395055D01*
X119645732Y-113235170D01*
X119548234Y-113052765D01*
X119548233Y-113052762D01*
X119488193Y-112854836D01*
X119467920Y-112649000D01*
X119488193Y-112443164D01*
X119548233Y-112245238D01*
X119548234Y-112245235D01*
X119645732Y-112062830D01*
X119776945Y-111902945D01*
X119936830Y-111771732D01*
X120119235Y-111674234D01*
X120119238Y-111674233D01*
X120317164Y-111614193D01*
X120394293Y-111606596D01*
X120471420Y-111599000D01*
X120574580Y-111599000D01*
X120651707Y-111606596D01*
X120651707Y-111606596D01*
G37*
G36*
X116333707Y-111606596D02*
G01*
X116410836Y-111614193D01*
X116608762Y-111674233D01*
X116608765Y-111674234D01*
X116791170Y-111771732D01*
X116951055Y-111902945D01*
X117082268Y-112062830D01*
X117179766Y-112245235D01*
X117179767Y-112245238D01*
X117239807Y-112443164D01*
X117260080Y-112649000D01*
X117239807Y-112854836D01*
X117179767Y-113052762D01*
X117179766Y-113052765D01*
X117082268Y-113235170D01*
X116951055Y-113395055D01*
X116791170Y-113526268D01*
X116608765Y-113623766D01*
X116608762Y-113623767D01*
X116410836Y-113683807D01*
X116333707Y-113691403D01*
X116256580Y-113699000D01*
X116153420Y-113699000D01*
X116076293Y-113691403D01*
X115999164Y-113683807D01*
X115801238Y-113623767D01*
X115801235Y-113623766D01*
X115618830Y-113526268D01*
X115458945Y-113395055D01*
X115327732Y-113235170D01*
X115230234Y-113052765D01*
X115230233Y-113052762D01*
X115170193Y-112854836D01*
X115149920Y-112649000D01*
X115170193Y-112443164D01*
X115230233Y-112245238D01*
X115230234Y-112245235D01*
X115327732Y-112062830D01*
X115458945Y-111902945D01*
X115618830Y-111771732D01*
X115801235Y-111674234D01*
X115801238Y-111674233D01*
X115999164Y-111614193D01*
X116076293Y-111606596D01*
X116153420Y-111599000D01*
X116256580Y-111599000D01*
X116333707Y-111606596D01*
X116333707Y-111606596D01*
G37*
G36*
X123699707Y-111606596D02*
G01*
X123776836Y-111614193D01*
X123974762Y-111674233D01*
X123974765Y-111674234D01*
X124157170Y-111771732D01*
X124317055Y-111902945D01*
X124448268Y-112062830D01*
X124545766Y-112245235D01*
X124545767Y-112245238D01*
X124605807Y-112443164D01*
X124626080Y-112649000D01*
X124605807Y-112854836D01*
X124545767Y-113052762D01*
X124545766Y-113052765D01*
X124448268Y-113235170D01*
X124317055Y-113395055D01*
X124157170Y-113526268D01*
X123974765Y-113623766D01*
X123974762Y-113623767D01*
X123776836Y-113683807D01*
X123699707Y-113691403D01*
X123622580Y-113699000D01*
X123519420Y-113699000D01*
X123442293Y-113691403D01*
X123365164Y-113683807D01*
X123167238Y-113623767D01*
X123167235Y-113623766D01*
X122984830Y-113526268D01*
X122824945Y-113395055D01*
X122693732Y-113235170D01*
X122596234Y-113052765D01*
X122596233Y-113052762D01*
X122536193Y-112854836D01*
X122515920Y-112649000D01*
X122536193Y-112443164D01*
X122596233Y-112245238D01*
X122596234Y-112245235D01*
X122693732Y-112062830D01*
X122824945Y-111902945D01*
X122984830Y-111771732D01*
X123167235Y-111674234D01*
X123167238Y-111674233D01*
X123365164Y-111614193D01*
X123442293Y-111606596D01*
X123519420Y-111599000D01*
X123622580Y-111599000D01*
X123699707Y-111606596D01*
X123699707Y-111606596D01*
G37*
G36*
X163102000Y-112302000D02*
G01*
X161002000Y-112302000D01*
X161002000Y-110202000D01*
X163102000Y-110202000D01*
X163102000Y-112302000D01*
X163102000Y-112302000D01*
G37*
G36*
X159640707Y-110209596D02*
G01*
X159717836Y-110217193D01*
X159915762Y-110277233D01*
X159915765Y-110277234D01*
X160098170Y-110374732D01*
X160258055Y-110505945D01*
X160389268Y-110665830D01*
X160486766Y-110848235D01*
X160486767Y-110848238D01*
X160546807Y-111046164D01*
X160567080Y-111252000D01*
X160546807Y-111457836D01*
X160499377Y-111614193D01*
X160486766Y-111655765D01*
X160389268Y-111838170D01*
X160258055Y-111998055D01*
X160098170Y-112129268D01*
X159915765Y-112226766D01*
X159915762Y-112226767D01*
X159717836Y-112286807D01*
X159640707Y-112294404D01*
X159563580Y-112302000D01*
X159460420Y-112302000D01*
X159383293Y-112294404D01*
X159306164Y-112286807D01*
X159108238Y-112226767D01*
X159108235Y-112226766D01*
X158925830Y-112129268D01*
X158765945Y-111998055D01*
X158634732Y-111838170D01*
X158537234Y-111655765D01*
X158524623Y-111614193D01*
X158477193Y-111457836D01*
X158456920Y-111252000D01*
X158477193Y-111046164D01*
X158537233Y-110848238D01*
X158537234Y-110848235D01*
X158634732Y-110665830D01*
X158765945Y-110505945D01*
X158925830Y-110374732D01*
X159108235Y-110277234D01*
X159108238Y-110277233D01*
X159306164Y-110217193D01*
X159383293Y-110209596D01*
X159460420Y-110202000D01*
X159563580Y-110202000D01*
X159640707Y-110209596D01*
X159640707Y-110209596D01*
G37*
G36*
X157100707Y-110209596D02*
G01*
X157177836Y-110217193D01*
X157375762Y-110277233D01*
X157375765Y-110277234D01*
X157558170Y-110374732D01*
X157718055Y-110505945D01*
X157849268Y-110665830D01*
X157946766Y-110848235D01*
X157946767Y-110848238D01*
X158006807Y-111046164D01*
X158027080Y-111252000D01*
X158006807Y-111457836D01*
X157959377Y-111614193D01*
X157946766Y-111655765D01*
X157849268Y-111838170D01*
X157718055Y-111998055D01*
X157558170Y-112129268D01*
X157375765Y-112226766D01*
X157375762Y-112226767D01*
X157177836Y-112286807D01*
X157100707Y-112294404D01*
X157023580Y-112302000D01*
X156920420Y-112302000D01*
X156843293Y-112294404D01*
X156766164Y-112286807D01*
X156568238Y-112226767D01*
X156568235Y-112226766D01*
X156385830Y-112129268D01*
X156225945Y-111998055D01*
X156094732Y-111838170D01*
X155997234Y-111655765D01*
X155984623Y-111614193D01*
X155937193Y-111457836D01*
X155916920Y-111252000D01*
X155937193Y-111046164D01*
X155997233Y-110848238D01*
X155997234Y-110848235D01*
X156094732Y-110665830D01*
X156225945Y-110505945D01*
X156385830Y-110374732D01*
X156568235Y-110277234D01*
X156568238Y-110277233D01*
X156766164Y-110217193D01*
X156843293Y-110209596D01*
X156920420Y-110202000D01*
X157023580Y-110202000D01*
X157100707Y-110209596D01*
X157100707Y-110209596D01*
G37*
G36*
X117255000Y-111159000D02*
G01*
X115155000Y-111159000D01*
X115155000Y-109059000D01*
X117255000Y-109059000D01*
X117255000Y-111159000D01*
X117255000Y-111159000D01*
G37*
G36*
X121573000Y-111159000D02*
G01*
X119473000Y-111159000D01*
X119473000Y-109059000D01*
X121573000Y-109059000D01*
X121573000Y-111159000D01*
X121573000Y-111159000D01*
G37*
G36*
X124621000Y-111159000D02*
G01*
X122521000Y-111159000D01*
X122521000Y-109059000D01*
X124621000Y-109059000D01*
X124621000Y-111159000D01*
X124621000Y-111159000D01*
G37*
G36*
X114207000Y-111159000D02*
G01*
X112107000Y-111159000D01*
X112107000Y-109059000D01*
X114207000Y-109059000D01*
X114207000Y-111159000D01*
X114207000Y-111159000D01*
G37*
G36*
X163102000Y-108746000D02*
G01*
X161002000Y-108746000D01*
X161002000Y-106646000D01*
X163102000Y-106646000D01*
X163102000Y-108746000D01*
X163102000Y-108746000D01*
G37*
G36*
X159640707Y-106653597D02*
G01*
X159717836Y-106661193D01*
X159915762Y-106721233D01*
X159915765Y-106721234D01*
X160098170Y-106818732D01*
X160258055Y-106949945D01*
X160389268Y-107109830D01*
X160486766Y-107292235D01*
X160486767Y-107292238D01*
X160546807Y-107490164D01*
X160567080Y-107696000D01*
X160546807Y-107901836D01*
X160486767Y-108099762D01*
X160486766Y-108099765D01*
X160389268Y-108282170D01*
X160258055Y-108442055D01*
X160098170Y-108573268D01*
X159915765Y-108670766D01*
X159915762Y-108670767D01*
X159717836Y-108730807D01*
X159640707Y-108738404D01*
X159563580Y-108746000D01*
X159460420Y-108746000D01*
X159383293Y-108738404D01*
X159306164Y-108730807D01*
X159108238Y-108670767D01*
X159108235Y-108670766D01*
X158925830Y-108573268D01*
X158765945Y-108442055D01*
X158634732Y-108282170D01*
X158537234Y-108099765D01*
X158537233Y-108099762D01*
X158477193Y-107901836D01*
X158456920Y-107696000D01*
X158477193Y-107490164D01*
X158537233Y-107292238D01*
X158537234Y-107292235D01*
X158634732Y-107109830D01*
X158765945Y-106949945D01*
X158925830Y-106818732D01*
X159108235Y-106721234D01*
X159108238Y-106721233D01*
X159306164Y-106661193D01*
X159383293Y-106653597D01*
X159460420Y-106646000D01*
X159563580Y-106646000D01*
X159640707Y-106653597D01*
X159640707Y-106653597D01*
G37*
G36*
X141392000Y-107864000D02*
G01*
X136992000Y-107864000D01*
X136992000Y-103464000D01*
X141392000Y-103464000D01*
X141392000Y-107864000D01*
X141392000Y-107864000D01*
G37*
G36*
X146121884Y-103996313D02*
G01*
X146287872Y-104029330D01*
X146597252Y-104157479D01*
X146875687Y-104343523D01*
X147112477Y-104580313D01*
X147298521Y-104858748D01*
X147426670Y-105168128D01*
X147492000Y-105496565D01*
X147492000Y-105831435D01*
X147426670Y-106159872D01*
X147298521Y-106469252D01*
X147112477Y-106747687D01*
X146875687Y-106984477D01*
X146597252Y-107170521D01*
X146287872Y-107298670D01*
X146123653Y-107331335D01*
X145959437Y-107364000D01*
X145624563Y-107364000D01*
X145460347Y-107331335D01*
X145296128Y-107298670D01*
X144986748Y-107170521D01*
X144708313Y-106984477D01*
X144471523Y-106747687D01*
X144285479Y-106469252D01*
X144157330Y-106159872D01*
X144092000Y-105831435D01*
X144092000Y-105496565D01*
X144157330Y-105168128D01*
X144285479Y-104858748D01*
X144471523Y-104580313D01*
X144708313Y-104343523D01*
X144986748Y-104157479D01*
X145296128Y-104029330D01*
X145462116Y-103996313D01*
X145624563Y-103964000D01*
X145959437Y-103964000D01*
X146121884Y-103996313D01*
X146121884Y-103996313D01*
G37*
G36*
X132921884Y-103996313D02*
G01*
X133087872Y-104029330D01*
X133397252Y-104157479D01*
X133675687Y-104343523D01*
X133912477Y-104580313D01*
X134098521Y-104858748D01*
X134226670Y-105168128D01*
X134292000Y-105496565D01*
X134292000Y-105831435D01*
X134226670Y-106159872D01*
X134098521Y-106469252D01*
X133912477Y-106747687D01*
X133675687Y-106984477D01*
X133397252Y-107170521D01*
X133087872Y-107298670D01*
X132923653Y-107331335D01*
X132759437Y-107364000D01*
X132424563Y-107364000D01*
X132260347Y-107331335D01*
X132096128Y-107298670D01*
X131786748Y-107170521D01*
X131508313Y-106984477D01*
X131271523Y-106747687D01*
X131085479Y-106469252D01*
X130957330Y-106159872D01*
X130892000Y-105831435D01*
X130892000Y-105496565D01*
X130957330Y-105168128D01*
X131085479Y-104858748D01*
X131271523Y-104580313D01*
X131508313Y-104343523D01*
X131786748Y-104157479D01*
X132096128Y-104029330D01*
X132262116Y-103996313D01*
X132424563Y-103964000D01*
X132759437Y-103964000D01*
X132921884Y-103996313D01*
X132921884Y-103996313D01*
G37*
G36*
X107824707Y-105129596D02*
G01*
X107901836Y-105137193D01*
X108099762Y-105197233D01*
X108099765Y-105197234D01*
X108282170Y-105294732D01*
X108442055Y-105425945D01*
X108573268Y-105585830D01*
X108670766Y-105768235D01*
X108670767Y-105768238D01*
X108730807Y-105966164D01*
X108751080Y-106172000D01*
X108730807Y-106377836D01*
X108703077Y-106469250D01*
X108670766Y-106575765D01*
X108573268Y-106758170D01*
X108442055Y-106918055D01*
X108282170Y-107049268D01*
X108099765Y-107146766D01*
X108099762Y-107146767D01*
X107901836Y-107206807D01*
X107824707Y-107214404D01*
X107747580Y-107222000D01*
X107644420Y-107222000D01*
X107567293Y-107214404D01*
X107490164Y-107206807D01*
X107292238Y-107146767D01*
X107292235Y-107146766D01*
X107109830Y-107049268D01*
X106949945Y-106918055D01*
X106818732Y-106758170D01*
X106721234Y-106575765D01*
X106688923Y-106469250D01*
X106661193Y-106377836D01*
X106640920Y-106172000D01*
X106661193Y-105966164D01*
X106721233Y-105768238D01*
X106721234Y-105768235D01*
X106818732Y-105585830D01*
X106949945Y-105425945D01*
X107109830Y-105294732D01*
X107292235Y-105197234D01*
X107292238Y-105197233D01*
X107490164Y-105137193D01*
X107567293Y-105129597D01*
X107644420Y-105122000D01*
X107747580Y-105122000D01*
X107824707Y-105129596D01*
X107824707Y-105129596D01*
G37*
G36*
X155068707Y-105129596D02*
G01*
X155145836Y-105137193D01*
X155343762Y-105197233D01*
X155343765Y-105197234D01*
X155526170Y-105294732D01*
X155686055Y-105425945D01*
X155817268Y-105585830D01*
X155914766Y-105768235D01*
X155914767Y-105768238D01*
X155974807Y-105966164D01*
X155995080Y-106172000D01*
X155974807Y-106377836D01*
X155947077Y-106469250D01*
X155914766Y-106575765D01*
X155817268Y-106758170D01*
X155686055Y-106918055D01*
X155526170Y-107049268D01*
X155343765Y-107146766D01*
X155343762Y-107146767D01*
X155145836Y-107206807D01*
X155068707Y-107214404D01*
X154991580Y-107222000D01*
X154888420Y-107222000D01*
X154811293Y-107214404D01*
X154734164Y-107206807D01*
X154536238Y-107146767D01*
X154536235Y-107146766D01*
X154353830Y-107049268D01*
X154193945Y-106918055D01*
X154062732Y-106758170D01*
X153965234Y-106575765D01*
X153932923Y-106469250D01*
X153905193Y-106377836D01*
X153884920Y-106172000D01*
X153905193Y-105966164D01*
X153965233Y-105768238D01*
X153965234Y-105768235D01*
X154062732Y-105585830D01*
X154193945Y-105425945D01*
X154353830Y-105294732D01*
X154536235Y-105197234D01*
X154536238Y-105197233D01*
X154734164Y-105137193D01*
X154811293Y-105129597D01*
X154888420Y-105122000D01*
X154991580Y-105122000D01*
X155068707Y-105129596D01*
X155068707Y-105129596D01*
G37*
G36*
X152020707Y-105129596D02*
G01*
X152097836Y-105137193D01*
X152295762Y-105197233D01*
X152295765Y-105197234D01*
X152478170Y-105294732D01*
X152638055Y-105425945D01*
X152769268Y-105585830D01*
X152866766Y-105768235D01*
X152866767Y-105768238D01*
X152926807Y-105966164D01*
X152947080Y-106172000D01*
X152926807Y-106377836D01*
X152899077Y-106469250D01*
X152866766Y-106575765D01*
X152769268Y-106758170D01*
X152638055Y-106918055D01*
X152478170Y-107049268D01*
X152295765Y-107146766D01*
X152295762Y-107146767D01*
X152097836Y-107206807D01*
X152020707Y-107214404D01*
X151943580Y-107222000D01*
X151840420Y-107222000D01*
X151763293Y-107214404D01*
X151686164Y-107206807D01*
X151488238Y-107146767D01*
X151488235Y-107146766D01*
X151305830Y-107049268D01*
X151145945Y-106918055D01*
X151014732Y-106758170D01*
X150917234Y-106575765D01*
X150884923Y-106469250D01*
X150857193Y-106377836D01*
X150836920Y-106172000D01*
X150857193Y-105966164D01*
X150917233Y-105768238D01*
X150917234Y-105768235D01*
X151014732Y-105585830D01*
X151145945Y-105425945D01*
X151305830Y-105294732D01*
X151488235Y-105197234D01*
X151488238Y-105197233D01*
X151686164Y-105137193D01*
X151763293Y-105129597D01*
X151840420Y-105122000D01*
X151943580Y-105122000D01*
X152020707Y-105129596D01*
X152020707Y-105129596D01*
G37*
G36*
X148972707Y-105129596D02*
G01*
X149049836Y-105137193D01*
X149247762Y-105197233D01*
X149247765Y-105197234D01*
X149430170Y-105294732D01*
X149590055Y-105425945D01*
X149721268Y-105585830D01*
X149818766Y-105768235D01*
X149818767Y-105768238D01*
X149878807Y-105966164D01*
X149899080Y-106172000D01*
X149878807Y-106377836D01*
X149851077Y-106469250D01*
X149818766Y-106575765D01*
X149721268Y-106758170D01*
X149590055Y-106918055D01*
X149430170Y-107049268D01*
X149247765Y-107146766D01*
X149247762Y-107146767D01*
X149049836Y-107206807D01*
X148972707Y-107214404D01*
X148895580Y-107222000D01*
X148792420Y-107222000D01*
X148715293Y-107214404D01*
X148638164Y-107206807D01*
X148440238Y-107146767D01*
X148440235Y-107146766D01*
X148257830Y-107049268D01*
X148097945Y-106918055D01*
X147966732Y-106758170D01*
X147869234Y-106575765D01*
X147836923Y-106469250D01*
X147809193Y-106377836D01*
X147788920Y-106172000D01*
X147809193Y-105966164D01*
X147869233Y-105768238D01*
X147869234Y-105768235D01*
X147966732Y-105585830D01*
X148097945Y-105425945D01*
X148257830Y-105294732D01*
X148440235Y-105197234D01*
X148440238Y-105197233D01*
X148638164Y-105137193D01*
X148715293Y-105129597D01*
X148792420Y-105122000D01*
X148895580Y-105122000D01*
X148972707Y-105129596D01*
X148972707Y-105129596D01*
G37*
G36*
X124588707Y-105129596D02*
G01*
X124665836Y-105137193D01*
X124863762Y-105197233D01*
X124863765Y-105197234D01*
X125046170Y-105294732D01*
X125206055Y-105425945D01*
X125337268Y-105585830D01*
X125434766Y-105768235D01*
X125434767Y-105768238D01*
X125494807Y-105966164D01*
X125515080Y-106172000D01*
X125494807Y-106377836D01*
X125467077Y-106469250D01*
X125434766Y-106575765D01*
X125337268Y-106758170D01*
X125206055Y-106918055D01*
X125046170Y-107049268D01*
X124863765Y-107146766D01*
X124863762Y-107146767D01*
X124665836Y-107206807D01*
X124588707Y-107214404D01*
X124511580Y-107222000D01*
X124408420Y-107222000D01*
X124331293Y-107214404D01*
X124254164Y-107206807D01*
X124056238Y-107146767D01*
X124056235Y-107146766D01*
X123873830Y-107049268D01*
X123713945Y-106918055D01*
X123582732Y-106758170D01*
X123485234Y-106575765D01*
X123452923Y-106469250D01*
X123425193Y-106377836D01*
X123404920Y-106172000D01*
X123425193Y-105966164D01*
X123485233Y-105768238D01*
X123485234Y-105768235D01*
X123582732Y-105585830D01*
X123713945Y-105425945D01*
X123873830Y-105294732D01*
X124056235Y-105197234D01*
X124056238Y-105197233D01*
X124254164Y-105137193D01*
X124331293Y-105129597D01*
X124408420Y-105122000D01*
X124511580Y-105122000D01*
X124588707Y-105129596D01*
X124588707Y-105129596D01*
G37*
G36*
X110872707Y-105129596D02*
G01*
X110949836Y-105137193D01*
X111147762Y-105197233D01*
X111147765Y-105197234D01*
X111330170Y-105294732D01*
X111490055Y-105425945D01*
X111621268Y-105585830D01*
X111718766Y-105768235D01*
X111718767Y-105768238D01*
X111778807Y-105966164D01*
X111799080Y-106172000D01*
X111778807Y-106377836D01*
X111751077Y-106469250D01*
X111718766Y-106575765D01*
X111621268Y-106758170D01*
X111490055Y-106918055D01*
X111330170Y-107049268D01*
X111147765Y-107146766D01*
X111147762Y-107146767D01*
X110949836Y-107206807D01*
X110872707Y-107214404D01*
X110795580Y-107222000D01*
X110692420Y-107222000D01*
X110615293Y-107214404D01*
X110538164Y-107206807D01*
X110340238Y-107146767D01*
X110340235Y-107146766D01*
X110157830Y-107049268D01*
X109997945Y-106918055D01*
X109866732Y-106758170D01*
X109769234Y-106575765D01*
X109736923Y-106469250D01*
X109709193Y-106377836D01*
X109688920Y-106172000D01*
X109709193Y-105966164D01*
X109769233Y-105768238D01*
X109769234Y-105768235D01*
X109866732Y-105585830D01*
X109997945Y-105425945D01*
X110157830Y-105294732D01*
X110340235Y-105197234D01*
X110340238Y-105197233D01*
X110538164Y-105137193D01*
X110615293Y-105129597D01*
X110692420Y-105122000D01*
X110795580Y-105122000D01*
X110872707Y-105129596D01*
X110872707Y-105129596D01*
G37*
G36*
X121540707Y-105129596D02*
G01*
X121617836Y-105137193D01*
X121815762Y-105197233D01*
X121815765Y-105197234D01*
X121998170Y-105294732D01*
X122158055Y-105425945D01*
X122289268Y-105585830D01*
X122386766Y-105768235D01*
X122386767Y-105768238D01*
X122446807Y-105966164D01*
X122467080Y-106172000D01*
X122446807Y-106377836D01*
X122419077Y-106469250D01*
X122386766Y-106575765D01*
X122289268Y-106758170D01*
X122158055Y-106918055D01*
X121998170Y-107049268D01*
X121815765Y-107146766D01*
X121815762Y-107146767D01*
X121617836Y-107206807D01*
X121540707Y-107214404D01*
X121463580Y-107222000D01*
X121360420Y-107222000D01*
X121283293Y-107214404D01*
X121206164Y-107206807D01*
X121008238Y-107146767D01*
X121008235Y-107146766D01*
X120825830Y-107049268D01*
X120665945Y-106918055D01*
X120534732Y-106758170D01*
X120437234Y-106575765D01*
X120404923Y-106469250D01*
X120377193Y-106377836D01*
X120356920Y-106172000D01*
X120377193Y-105966164D01*
X120437233Y-105768238D01*
X120437234Y-105768235D01*
X120534732Y-105585830D01*
X120665945Y-105425945D01*
X120825830Y-105294732D01*
X121008235Y-105197234D01*
X121008238Y-105197233D01*
X121206164Y-105137193D01*
X121283293Y-105129597D01*
X121360420Y-105122000D01*
X121463580Y-105122000D01*
X121540707Y-105129596D01*
X121540707Y-105129596D01*
G37*
G36*
X113920707Y-105129596D02*
G01*
X113997836Y-105137193D01*
X114195762Y-105197233D01*
X114195765Y-105197234D01*
X114378170Y-105294732D01*
X114538055Y-105425945D01*
X114669268Y-105585830D01*
X114766766Y-105768235D01*
X114766767Y-105768238D01*
X114826807Y-105966164D01*
X114847080Y-106172000D01*
X114826807Y-106377836D01*
X114799077Y-106469250D01*
X114766766Y-106575765D01*
X114669268Y-106758170D01*
X114538055Y-106918055D01*
X114378170Y-107049268D01*
X114195765Y-107146766D01*
X114195762Y-107146767D01*
X113997836Y-107206807D01*
X113920707Y-107214404D01*
X113843580Y-107222000D01*
X113740420Y-107222000D01*
X113663293Y-107214404D01*
X113586164Y-107206807D01*
X113388238Y-107146767D01*
X113388235Y-107146766D01*
X113205830Y-107049268D01*
X113045945Y-106918055D01*
X112914732Y-106758170D01*
X112817234Y-106575765D01*
X112784923Y-106469250D01*
X112757193Y-106377836D01*
X112736920Y-106172000D01*
X112757193Y-105966164D01*
X112817233Y-105768238D01*
X112817234Y-105768235D01*
X112914732Y-105585830D01*
X113045945Y-105425945D01*
X113205830Y-105294732D01*
X113388235Y-105197234D01*
X113388238Y-105197233D01*
X113586164Y-105137193D01*
X113663293Y-105129597D01*
X113740420Y-105122000D01*
X113843580Y-105122000D01*
X113920707Y-105129596D01*
X113920707Y-105129596D01*
G37*
G36*
X127636707Y-105129596D02*
G01*
X127713836Y-105137193D01*
X127911762Y-105197233D01*
X127911765Y-105197234D01*
X128094170Y-105294732D01*
X128254055Y-105425945D01*
X128385268Y-105585830D01*
X128482766Y-105768235D01*
X128482767Y-105768238D01*
X128542807Y-105966164D01*
X128563080Y-106172000D01*
X128542807Y-106377836D01*
X128515077Y-106469250D01*
X128482766Y-106575765D01*
X128385268Y-106758170D01*
X128254055Y-106918055D01*
X128094170Y-107049268D01*
X127911765Y-107146766D01*
X127911762Y-107146767D01*
X127713836Y-107206807D01*
X127636707Y-107214404D01*
X127559580Y-107222000D01*
X127456420Y-107222000D01*
X127379293Y-107214404D01*
X127302164Y-107206807D01*
X127104238Y-107146767D01*
X127104235Y-107146766D01*
X126921830Y-107049268D01*
X126761945Y-106918055D01*
X126630732Y-106758170D01*
X126533234Y-106575765D01*
X126500923Y-106469250D01*
X126473193Y-106377836D01*
X126452920Y-106172000D01*
X126473193Y-105966164D01*
X126533233Y-105768238D01*
X126533234Y-105768235D01*
X126630732Y-105585830D01*
X126761945Y-105425945D01*
X126921830Y-105294732D01*
X127104235Y-105197234D01*
X127104238Y-105197233D01*
X127302164Y-105137193D01*
X127379293Y-105129597D01*
X127456420Y-105122000D01*
X127559580Y-105122000D01*
X127636707Y-105129596D01*
X127636707Y-105129596D01*
G37*
G36*
X127636707Y-102589596D02*
G01*
X127713836Y-102597193D01*
X127853920Y-102639687D01*
X127911765Y-102657234D01*
X128094170Y-102754732D01*
X128254055Y-102885945D01*
X128385268Y-103045830D01*
X128482766Y-103228235D01*
X128482767Y-103228238D01*
X128542807Y-103426164D01*
X128563080Y-103632000D01*
X128542807Y-103837836D01*
X128484718Y-104029330D01*
X128482766Y-104035765D01*
X128385268Y-104218170D01*
X128254055Y-104378055D01*
X128094170Y-104509268D01*
X127911765Y-104606766D01*
X127911762Y-104606767D01*
X127713836Y-104666807D01*
X127636707Y-104674404D01*
X127559580Y-104682000D01*
X127456420Y-104682000D01*
X127379293Y-104674404D01*
X127302164Y-104666807D01*
X127104238Y-104606767D01*
X127104235Y-104606766D01*
X126921830Y-104509268D01*
X126761945Y-104378055D01*
X126630732Y-104218170D01*
X126533234Y-104035765D01*
X126531282Y-104029330D01*
X126473193Y-103837836D01*
X126452920Y-103632000D01*
X126473193Y-103426164D01*
X126533233Y-103228238D01*
X126533234Y-103228235D01*
X126630732Y-103045830D01*
X126761945Y-102885945D01*
X126921830Y-102754732D01*
X127104235Y-102657234D01*
X127162080Y-102639687D01*
X127302164Y-102597193D01*
X127379293Y-102589596D01*
X127456420Y-102582000D01*
X127559580Y-102582000D01*
X127636707Y-102589596D01*
X127636707Y-102589596D01*
G37*
G36*
X152020707Y-102589596D02*
G01*
X152097836Y-102597193D01*
X152237920Y-102639687D01*
X152295765Y-102657234D01*
X152478170Y-102754732D01*
X152638055Y-102885945D01*
X152769268Y-103045830D01*
X152866766Y-103228235D01*
X152866767Y-103228238D01*
X152926807Y-103426164D01*
X152947080Y-103632000D01*
X152926807Y-103837836D01*
X152868718Y-104029330D01*
X152866766Y-104035765D01*
X152769268Y-104218170D01*
X152638055Y-104378055D01*
X152478170Y-104509268D01*
X152295765Y-104606766D01*
X152295762Y-104606767D01*
X152097836Y-104666807D01*
X152020707Y-104674404D01*
X151943580Y-104682000D01*
X151840420Y-104682000D01*
X151763293Y-104674404D01*
X151686164Y-104666807D01*
X151488238Y-104606767D01*
X151488235Y-104606766D01*
X151305830Y-104509268D01*
X151145945Y-104378055D01*
X151014732Y-104218170D01*
X150917234Y-104035765D01*
X150915282Y-104029330D01*
X150857193Y-103837836D01*
X150836920Y-103632000D01*
X150857193Y-103426164D01*
X150917233Y-103228238D01*
X150917234Y-103228235D01*
X151014732Y-103045830D01*
X151145945Y-102885945D01*
X151305830Y-102754732D01*
X151488235Y-102657234D01*
X151546080Y-102639687D01*
X151686164Y-102597193D01*
X151763293Y-102589596D01*
X151840420Y-102582000D01*
X151943580Y-102582000D01*
X152020707Y-102589596D01*
X152020707Y-102589596D01*
G37*
G36*
X124588707Y-102589596D02*
G01*
X124665836Y-102597193D01*
X124805920Y-102639687D01*
X124863765Y-102657234D01*
X125046170Y-102754732D01*
X125206055Y-102885945D01*
X125337268Y-103045830D01*
X125434766Y-103228235D01*
X125434767Y-103228238D01*
X125494807Y-103426164D01*
X125515080Y-103632000D01*
X125494807Y-103837836D01*
X125436718Y-104029330D01*
X125434766Y-104035765D01*
X125337268Y-104218170D01*
X125206055Y-104378055D01*
X125046170Y-104509268D01*
X124863765Y-104606766D01*
X124863762Y-104606767D01*
X124665836Y-104666807D01*
X124588707Y-104674404D01*
X124511580Y-104682000D01*
X124408420Y-104682000D01*
X124331293Y-104674404D01*
X124254164Y-104666807D01*
X124056238Y-104606767D01*
X124056235Y-104606766D01*
X123873830Y-104509268D01*
X123713945Y-104378055D01*
X123582732Y-104218170D01*
X123485234Y-104035765D01*
X123483282Y-104029330D01*
X123425193Y-103837836D01*
X123404920Y-103632000D01*
X123425193Y-103426164D01*
X123485233Y-103228238D01*
X123485234Y-103228235D01*
X123582732Y-103045830D01*
X123713945Y-102885945D01*
X123873830Y-102754732D01*
X124056235Y-102657234D01*
X124114080Y-102639687D01*
X124254164Y-102597193D01*
X124331293Y-102589596D01*
X124408420Y-102582000D01*
X124511580Y-102582000D01*
X124588707Y-102589596D01*
X124588707Y-102589596D01*
G37*
G36*
X107824707Y-102589596D02*
G01*
X107901836Y-102597193D01*
X108041920Y-102639687D01*
X108099765Y-102657234D01*
X108282170Y-102754732D01*
X108442055Y-102885945D01*
X108573268Y-103045830D01*
X108670766Y-103228235D01*
X108670767Y-103228238D01*
X108730807Y-103426164D01*
X108751080Y-103632000D01*
X108730807Y-103837836D01*
X108672718Y-104029330D01*
X108670766Y-104035765D01*
X108573268Y-104218170D01*
X108442055Y-104378055D01*
X108282170Y-104509268D01*
X108099765Y-104606766D01*
X108099762Y-104606767D01*
X107901836Y-104666807D01*
X107824707Y-104674404D01*
X107747580Y-104682000D01*
X107644420Y-104682000D01*
X107567293Y-104674404D01*
X107490164Y-104666807D01*
X107292238Y-104606767D01*
X107292235Y-104606766D01*
X107109830Y-104509268D01*
X106949945Y-104378055D01*
X106818732Y-104218170D01*
X106721234Y-104035765D01*
X106719282Y-104029330D01*
X106661193Y-103837836D01*
X106640920Y-103632000D01*
X106661193Y-103426164D01*
X106721233Y-103228238D01*
X106721234Y-103228235D01*
X106818732Y-103045830D01*
X106949945Y-102885945D01*
X107109830Y-102754732D01*
X107292235Y-102657234D01*
X107350080Y-102639687D01*
X107490164Y-102597193D01*
X107567293Y-102589596D01*
X107644420Y-102582000D01*
X107747580Y-102582000D01*
X107824707Y-102589596D01*
X107824707Y-102589596D01*
G37*
G36*
X148972707Y-102589596D02*
G01*
X149049836Y-102597193D01*
X149189920Y-102639687D01*
X149247765Y-102657234D01*
X149430170Y-102754732D01*
X149590055Y-102885945D01*
X149721268Y-103045830D01*
X149818766Y-103228235D01*
X149818767Y-103228238D01*
X149878807Y-103426164D01*
X149899080Y-103632000D01*
X149878807Y-103837836D01*
X149820718Y-104029330D01*
X149818766Y-104035765D01*
X149721268Y-104218170D01*
X149590055Y-104378055D01*
X149430170Y-104509268D01*
X149247765Y-104606766D01*
X149247762Y-104606767D01*
X149049836Y-104666807D01*
X148972707Y-104674404D01*
X148895580Y-104682000D01*
X148792420Y-104682000D01*
X148715293Y-104674404D01*
X148638164Y-104666807D01*
X148440238Y-104606767D01*
X148440235Y-104606766D01*
X148257830Y-104509268D01*
X148097945Y-104378055D01*
X147966732Y-104218170D01*
X147869234Y-104035765D01*
X147867282Y-104029330D01*
X147809193Y-103837836D01*
X147788920Y-103632000D01*
X147809193Y-103426164D01*
X147869233Y-103228238D01*
X147869234Y-103228235D01*
X147966732Y-103045830D01*
X148097945Y-102885945D01*
X148257830Y-102754732D01*
X148440235Y-102657234D01*
X148498080Y-102639687D01*
X148638164Y-102597193D01*
X148715293Y-102589596D01*
X148792420Y-102582000D01*
X148895580Y-102582000D01*
X148972707Y-102589596D01*
X148972707Y-102589596D01*
G37*
G36*
X110872707Y-102589596D02*
G01*
X110949836Y-102597193D01*
X111089920Y-102639687D01*
X111147765Y-102657234D01*
X111330170Y-102754732D01*
X111490055Y-102885945D01*
X111621268Y-103045830D01*
X111718766Y-103228235D01*
X111718767Y-103228238D01*
X111778807Y-103426164D01*
X111799080Y-103632000D01*
X111778807Y-103837836D01*
X111720718Y-104029330D01*
X111718766Y-104035765D01*
X111621268Y-104218170D01*
X111490055Y-104378055D01*
X111330170Y-104509268D01*
X111147765Y-104606766D01*
X111147762Y-104606767D01*
X110949836Y-104666807D01*
X110872707Y-104674404D01*
X110795580Y-104682000D01*
X110692420Y-104682000D01*
X110615293Y-104674404D01*
X110538164Y-104666807D01*
X110340238Y-104606767D01*
X110340235Y-104606766D01*
X110157830Y-104509268D01*
X109997945Y-104378055D01*
X109866732Y-104218170D01*
X109769234Y-104035765D01*
X109767282Y-104029330D01*
X109709193Y-103837836D01*
X109688920Y-103632000D01*
X109709193Y-103426164D01*
X109769233Y-103228238D01*
X109769234Y-103228235D01*
X109866732Y-103045830D01*
X109997945Y-102885945D01*
X110157830Y-102754732D01*
X110340235Y-102657234D01*
X110398080Y-102639687D01*
X110538164Y-102597193D01*
X110615293Y-102589596D01*
X110692420Y-102582000D01*
X110795580Y-102582000D01*
X110872707Y-102589596D01*
X110872707Y-102589596D01*
G37*
G36*
X113920707Y-102589596D02*
G01*
X113997836Y-102597193D01*
X114137920Y-102639687D01*
X114195765Y-102657234D01*
X114378170Y-102754732D01*
X114538055Y-102885945D01*
X114669268Y-103045830D01*
X114766766Y-103228235D01*
X114766767Y-103228238D01*
X114826807Y-103426164D01*
X114847080Y-103632000D01*
X114826807Y-103837836D01*
X114768718Y-104029330D01*
X114766766Y-104035765D01*
X114669268Y-104218170D01*
X114538055Y-104378055D01*
X114378170Y-104509268D01*
X114195765Y-104606766D01*
X114195762Y-104606767D01*
X113997836Y-104666807D01*
X113920707Y-104674404D01*
X113843580Y-104682000D01*
X113740420Y-104682000D01*
X113663293Y-104674404D01*
X113586164Y-104666807D01*
X113388238Y-104606767D01*
X113388235Y-104606766D01*
X113205830Y-104509268D01*
X113045945Y-104378055D01*
X112914732Y-104218170D01*
X112817234Y-104035765D01*
X112815282Y-104029330D01*
X112757193Y-103837836D01*
X112736920Y-103632000D01*
X112757193Y-103426164D01*
X112817233Y-103228238D01*
X112817234Y-103228235D01*
X112914732Y-103045830D01*
X113045945Y-102885945D01*
X113205830Y-102754732D01*
X113388235Y-102657234D01*
X113446080Y-102639687D01*
X113586164Y-102597193D01*
X113663293Y-102589596D01*
X113740420Y-102582000D01*
X113843580Y-102582000D01*
X113920707Y-102589596D01*
X113920707Y-102589596D01*
G37*
G36*
X121540707Y-102589596D02*
G01*
X121617836Y-102597193D01*
X121757920Y-102639687D01*
X121815765Y-102657234D01*
X121998170Y-102754732D01*
X122158055Y-102885945D01*
X122289268Y-103045830D01*
X122386766Y-103228235D01*
X122386767Y-103228238D01*
X122446807Y-103426164D01*
X122467080Y-103632000D01*
X122446807Y-103837836D01*
X122388718Y-104029330D01*
X122386766Y-104035765D01*
X122289268Y-104218170D01*
X122158055Y-104378055D01*
X121998170Y-104509268D01*
X121815765Y-104606766D01*
X121815762Y-104606767D01*
X121617836Y-104666807D01*
X121540707Y-104674404D01*
X121463580Y-104682000D01*
X121360420Y-104682000D01*
X121283293Y-104674404D01*
X121206164Y-104666807D01*
X121008238Y-104606767D01*
X121008235Y-104606766D01*
X120825830Y-104509268D01*
X120665945Y-104378055D01*
X120534732Y-104218170D01*
X120437234Y-104035765D01*
X120435282Y-104029330D01*
X120377193Y-103837836D01*
X120356920Y-103632000D01*
X120377193Y-103426164D01*
X120437233Y-103228238D01*
X120437234Y-103228235D01*
X120534732Y-103045830D01*
X120665945Y-102885945D01*
X120825830Y-102754732D01*
X121008235Y-102657234D01*
X121066080Y-102639687D01*
X121206164Y-102597193D01*
X121283293Y-102589596D01*
X121360420Y-102582000D01*
X121463580Y-102582000D01*
X121540707Y-102589596D01*
X121540707Y-102589596D01*
G37*
G36*
X155068707Y-102589596D02*
G01*
X155145836Y-102597193D01*
X155285920Y-102639687D01*
X155343765Y-102657234D01*
X155526170Y-102754732D01*
X155686055Y-102885945D01*
X155817268Y-103045830D01*
X155914766Y-103228235D01*
X155914767Y-103228238D01*
X155974807Y-103426164D01*
X155995080Y-103632000D01*
X155974807Y-103837836D01*
X155916718Y-104029330D01*
X155914766Y-104035765D01*
X155817268Y-104218170D01*
X155686055Y-104378055D01*
X155526170Y-104509268D01*
X155343765Y-104606766D01*
X155343762Y-104606767D01*
X155145836Y-104666807D01*
X155068707Y-104674404D01*
X154991580Y-104682000D01*
X154888420Y-104682000D01*
X154811293Y-104674404D01*
X154734164Y-104666807D01*
X154536238Y-104606767D01*
X154536235Y-104606766D01*
X154353830Y-104509268D01*
X154193945Y-104378055D01*
X154062732Y-104218170D01*
X153965234Y-104035765D01*
X153963282Y-104029330D01*
X153905193Y-103837836D01*
X153884920Y-103632000D01*
X153905193Y-103426164D01*
X153965233Y-103228238D01*
X153965234Y-103228235D01*
X154062732Y-103045830D01*
X154193945Y-102885945D01*
X154353830Y-102754732D01*
X154536235Y-102657234D01*
X154594080Y-102639687D01*
X154734164Y-102597193D01*
X154811293Y-102589596D01*
X154888420Y-102582000D01*
X154991580Y-102582000D01*
X155068707Y-102589596D01*
X155068707Y-102589596D01*
G37*
G36*
X103069380Y-101272131D02*
G01*
X103219108Y-101301914D01*
X103335950Y-101350312D01*
X103501189Y-101418756D01*
X103501190Y-101418757D01*
X103755058Y-101588385D01*
X103970954Y-101804281D01*
X104084296Y-101973910D01*
X104140583Y-102058150D01*
X104257425Y-102340232D01*
X104316990Y-102639686D01*
X104316990Y-102945012D01*
X104257425Y-103244466D01*
X104140583Y-103526548D01*
X104140582Y-103526549D01*
X103970954Y-103780417D01*
X103755058Y-103996313D01*
X103585429Y-104109655D01*
X103501189Y-104165942D01*
X103335950Y-104234386D01*
X103219108Y-104282784D01*
X103069380Y-104312566D01*
X102919653Y-104342349D01*
X102614327Y-104342349D01*
X102464600Y-104312566D01*
X102314872Y-104282784D01*
X102198030Y-104234386D01*
X102032791Y-104165942D01*
X101948551Y-104109655D01*
X101778922Y-103996313D01*
X101563026Y-103780417D01*
X101393398Y-103526549D01*
X101393397Y-103526548D01*
X101276555Y-103244466D01*
X101216990Y-102945012D01*
X101216990Y-102639686D01*
X101276555Y-102340232D01*
X101393397Y-102058150D01*
X101449684Y-101973910D01*
X101563026Y-101804281D01*
X101778922Y-101588385D01*
X102032790Y-101418757D01*
X102032791Y-101418756D01*
X102198030Y-101350312D01*
X102314872Y-101301914D01*
X102464600Y-101272131D01*
X102614327Y-101242349D01*
X102919653Y-101242349D01*
X103069380Y-101272131D01*
X103069380Y-101272131D01*
G37*
G36*
X161069380Y-101272131D02*
G01*
X161219108Y-101301914D01*
X161335950Y-101350312D01*
X161501189Y-101418756D01*
X161501190Y-101418757D01*
X161755058Y-101588385D01*
X161970954Y-101804281D01*
X162084296Y-101973910D01*
X162140583Y-102058150D01*
X162257425Y-102340232D01*
X162316990Y-102639686D01*
X162316990Y-102945012D01*
X162257425Y-103244466D01*
X162140583Y-103526548D01*
X162140582Y-103526549D01*
X161970954Y-103780417D01*
X161755058Y-103996313D01*
X161585429Y-104109655D01*
X161501189Y-104165942D01*
X161335950Y-104234386D01*
X161219108Y-104282784D01*
X161069380Y-104312566D01*
X160919653Y-104342349D01*
X160614327Y-104342349D01*
X160464600Y-104312566D01*
X160314872Y-104282784D01*
X160198030Y-104234386D01*
X160032791Y-104165942D01*
X159948551Y-104109655D01*
X159778922Y-103996313D01*
X159563026Y-103780417D01*
X159393398Y-103526549D01*
X159393397Y-103526548D01*
X159276555Y-103244466D01*
X159216990Y-102945012D01*
X159216990Y-102639686D01*
X159276555Y-102340232D01*
X159393397Y-102058150D01*
X159449684Y-101973910D01*
X159563026Y-101804281D01*
X159778922Y-101588385D01*
X160032790Y-101418757D01*
X160032791Y-101418756D01*
X160198030Y-101350312D01*
X160314872Y-101301914D01*
X160464600Y-101272131D01*
X160614327Y-101242349D01*
X160919653Y-101242349D01*
X161069380Y-101272131D01*
X161069380Y-101272131D01*
G37*
G36*
X122462000Y-102142000D02*
G01*
X120362000Y-102142000D01*
X120362000Y-100042000D01*
X122462000Y-100042000D01*
X122462000Y-102142000D01*
X122462000Y-102142000D01*
G37*
G36*
X149894000Y-102142000D02*
G01*
X147794000Y-102142000D01*
X147794000Y-100042000D01*
X149894000Y-100042000D01*
X149894000Y-102142000D01*
X149894000Y-102142000D01*
G37*
G36*
X111794000Y-102142000D02*
G01*
X109694000Y-102142000D01*
X109694000Y-100042000D01*
X111794000Y-100042000D01*
X111794000Y-102142000D01*
X111794000Y-102142000D01*
G37*
G36*
X155990000Y-102142000D02*
G01*
X153890000Y-102142000D01*
X153890000Y-100042000D01*
X155990000Y-100042000D01*
X155990000Y-102142000D01*
X155990000Y-102142000D01*
G37*
G36*
X108746000Y-102142000D02*
G01*
X106646000Y-102142000D01*
X106646000Y-100042000D01*
X108746000Y-100042000D01*
X108746000Y-102142000D01*
X108746000Y-102142000D01*
G37*
G36*
X152942000Y-102142000D02*
G01*
X150842000Y-102142000D01*
X150842000Y-100042000D01*
X152942000Y-100042000D01*
X152942000Y-102142000D01*
X152942000Y-102142000D01*
G37*
G36*
X114842000Y-102142000D02*
G01*
X112742000Y-102142000D01*
X112742000Y-100042000D01*
X114842000Y-100042000D01*
X114842000Y-102142000D01*
X114842000Y-102142000D01*
G37*
G36*
X125510000Y-102142000D02*
G01*
X123410000Y-102142000D01*
X123410000Y-100042000D01*
X125510000Y-100042000D01*
X125510000Y-102142000D01*
X125510000Y-102142000D01*
G37*
G36*
X128558000Y-102142000D02*
G01*
X126458000Y-102142000D01*
X126458000Y-100042000D01*
X128558000Y-100042000D01*
X128558000Y-102142000D01*
X128558000Y-102142000D01*
G37*
M02*
