G04 #@! TF.GenerationSoftware,KiCad,Pcbnew,(5.1.0)-1*
G04 #@! TF.CreationDate,2019-04-21T19:35:35+02:00*
G04 #@! TF.ProjectId,RM Board03,524d2042-6f61-4726-9430-332e6b696361,rev?*
G04 #@! TF.SameCoordinates,Original*
G04 #@! TF.FileFunction,Legend,Bot*
G04 #@! TF.FilePolarity,Positive*
%FSLAX46Y46*%
G04 Gerber Fmt 4.6, Leading zero omitted, Abs format (unit mm)*
G04 Created by KiCad (PCBNEW (5.1.0)-1) date 2019-04-21 19:35:35*
%MOMM*%
%LPD*%
G04 APERTURE LIST*
%ADD10C,0.150000*%
%ADD11C,0.120000*%
G04 APERTURE END LIST*
D10*
X99314000Y-118872000D02*
X99314000Y-98806000D01*
X98806000Y-119634000D02*
X99314000Y-118872000D01*
X98806000Y-155702000D02*
X98806000Y-119634000D01*
X164846000Y-155702000D02*
X98806000Y-155702000D01*
X164846000Y-98806000D02*
X164846000Y-155702000D01*
X99314000Y-98806000D02*
X164846000Y-98806000D01*
D11*
X103286779Y-132590000D02*
X102961221Y-132590000D01*
X103286779Y-131570000D02*
X102961221Y-131570000D01*
X143762000Y-141386779D02*
X143762000Y-141061221D01*
X144782000Y-141386779D02*
X144782000Y-141061221D01*
X122684000Y-122265221D02*
X122684000Y-122590779D01*
X121664000Y-122265221D02*
X121664000Y-122590779D01*
X156292733Y-127252000D02*
X156635267Y-127252000D01*
X156292733Y-128272000D02*
X156635267Y-128272000D01*
X127853221Y-135126000D02*
X128178779Y-135126000D01*
X127853221Y-136146000D02*
X128178779Y-136146000D01*
X156292733Y-125220000D02*
X156635267Y-125220000D01*
X156292733Y-126240000D02*
X156635267Y-126240000D01*
X141730000Y-129448779D02*
X141730000Y-129123221D01*
X142750000Y-129448779D02*
X142750000Y-129123221D01*
X129711267Y-137924000D02*
X129368733Y-137924000D01*
X129711267Y-136904000D02*
X129368733Y-136904000D01*
X101437221Y-124966000D02*
X101762779Y-124966000D01*
X101437221Y-125986000D02*
X101762779Y-125986000D01*
X146560000Y-141086721D02*
X146560000Y-141412279D01*
X145540000Y-141086721D02*
X145540000Y-141412279D01*
X137190000Y-122332000D02*
X138530000Y-122332000D01*
X137190000Y-121382000D02*
X137190000Y-122332000D01*
X136240000Y-121382000D02*
X137190000Y-121382000D01*
X126970000Y-121382000D02*
X126970000Y-122332000D01*
X127920000Y-121382000D02*
X126970000Y-121382000D01*
X137190000Y-131602000D02*
X137190000Y-130652000D01*
X136240000Y-131602000D02*
X137190000Y-131602000D01*
X126970000Y-131602000D02*
X126970000Y-130652000D01*
X127920000Y-131602000D02*
X126970000Y-131602000D01*
X136624279Y-117413500D02*
X136298721Y-117413500D01*
X136624279Y-116393500D02*
X136298721Y-116393500D01*
X153672000Y-110327221D02*
X153672000Y-110652779D01*
X152652000Y-110327221D02*
X152652000Y-110652779D01*
X150620000Y-110652779D02*
X150620000Y-110327221D01*
X151640000Y-110652779D02*
X151640000Y-110327221D01*
X136632767Y-114365500D02*
X136290233Y-114365500D01*
X136632767Y-113345500D02*
X136290233Y-113345500D01*
X143258000Y-106263221D02*
X143258000Y-106588779D01*
X142238000Y-106263221D02*
X142238000Y-106588779D01*
X144363221Y-122426000D02*
X144688779Y-122426000D01*
X144363221Y-123446000D02*
X144688779Y-123446000D01*
X144363221Y-124966000D02*
X144688779Y-124966000D01*
X144363221Y-125986000D02*
X144688779Y-125986000D01*
X142353000Y-124881000D02*
X142353000Y-123531000D01*
X140603000Y-124881000D02*
X140603000Y-123531000D01*
X104019238Y-131011904D02*
X104476380Y-131011904D01*
X104247809Y-131011904D02*
X104247809Y-130211904D01*
X104324000Y-130326190D01*
X104400190Y-130402380D01*
X104476380Y-130440476D01*
X103524000Y-130211904D02*
X103447809Y-130211904D01*
X103371619Y-130250000D01*
X103333523Y-130288095D01*
X103295428Y-130364285D01*
X103257333Y-130516666D01*
X103257333Y-130707142D01*
X103295428Y-130859523D01*
X103333523Y-130935714D01*
X103371619Y-130973809D01*
X103447809Y-131011904D01*
X103524000Y-131011904D01*
X103600190Y-130973809D01*
X103638285Y-130935714D01*
X103676380Y-130859523D01*
X103714476Y-130707142D01*
X103714476Y-130516666D01*
X103676380Y-130364285D01*
X103638285Y-130288095D01*
X103600190Y-130250000D01*
X103524000Y-130211904D01*
X102762095Y-130211904D02*
X102685904Y-130211904D01*
X102609714Y-130250000D01*
X102571619Y-130288095D01*
X102533523Y-130364285D01*
X102495428Y-130516666D01*
X102495428Y-130707142D01*
X102533523Y-130859523D01*
X102571619Y-130935714D01*
X102609714Y-130973809D01*
X102685904Y-131011904D01*
X102762095Y-131011904D01*
X102838285Y-130973809D01*
X102876380Y-130935714D01*
X102914476Y-130859523D01*
X102952571Y-130707142D01*
X102952571Y-130516666D01*
X102914476Y-130364285D01*
X102876380Y-130288095D01*
X102838285Y-130250000D01*
X102762095Y-130211904D01*
X102152571Y-130478571D02*
X102152571Y-131011904D01*
X102152571Y-130554761D02*
X102114476Y-130516666D01*
X102038285Y-130478571D01*
X101924000Y-130478571D01*
X101847809Y-130516666D01*
X101809714Y-130592857D01*
X101809714Y-131011904D01*
X142881238Y-140823904D02*
X143338380Y-140823904D01*
X143109809Y-140823904D02*
X143109809Y-140023904D01*
X143186000Y-140138190D01*
X143262190Y-140214380D01*
X143338380Y-140252476D01*
X142386000Y-140023904D02*
X142309809Y-140023904D01*
X142233619Y-140062000D01*
X142195523Y-140100095D01*
X142157428Y-140176285D01*
X142119333Y-140328666D01*
X142119333Y-140519142D01*
X142157428Y-140671523D01*
X142195523Y-140747714D01*
X142233619Y-140785809D01*
X142309809Y-140823904D01*
X142386000Y-140823904D01*
X142462190Y-140785809D01*
X142500285Y-140747714D01*
X142538380Y-140671523D01*
X142576476Y-140519142D01*
X142576476Y-140328666D01*
X142538380Y-140176285D01*
X142500285Y-140100095D01*
X142462190Y-140062000D01*
X142386000Y-140023904D01*
X141624095Y-140023904D02*
X141547904Y-140023904D01*
X141471714Y-140062000D01*
X141433619Y-140100095D01*
X141395523Y-140176285D01*
X141357428Y-140328666D01*
X141357428Y-140519142D01*
X141395523Y-140671523D01*
X141433619Y-140747714D01*
X141471714Y-140785809D01*
X141547904Y-140823904D01*
X141624095Y-140823904D01*
X141700285Y-140785809D01*
X141738380Y-140747714D01*
X141776476Y-140671523D01*
X141814571Y-140519142D01*
X141814571Y-140328666D01*
X141776476Y-140176285D01*
X141738380Y-140100095D01*
X141700285Y-140062000D01*
X141624095Y-140023904D01*
X141014571Y-140290571D02*
X141014571Y-140823904D01*
X141014571Y-140366761D02*
X140976476Y-140328666D01*
X140900285Y-140290571D01*
X140786000Y-140290571D01*
X140709809Y-140328666D01*
X140671714Y-140404857D01*
X140671714Y-140823904D01*
X122815238Y-120757904D02*
X123272380Y-120757904D01*
X123043809Y-120757904D02*
X123043809Y-119957904D01*
X123120000Y-120072190D01*
X123196190Y-120148380D01*
X123272380Y-120186476D01*
X122320000Y-119957904D02*
X122243809Y-119957904D01*
X122167619Y-119996000D01*
X122129523Y-120034095D01*
X122091428Y-120110285D01*
X122053333Y-120262666D01*
X122053333Y-120453142D01*
X122091428Y-120605523D01*
X122129523Y-120681714D01*
X122167619Y-120719809D01*
X122243809Y-120757904D01*
X122320000Y-120757904D01*
X122396190Y-120719809D01*
X122434285Y-120681714D01*
X122472380Y-120605523D01*
X122510476Y-120453142D01*
X122510476Y-120262666D01*
X122472380Y-120110285D01*
X122434285Y-120034095D01*
X122396190Y-119996000D01*
X122320000Y-119957904D01*
X121558095Y-119957904D02*
X121481904Y-119957904D01*
X121405714Y-119996000D01*
X121367619Y-120034095D01*
X121329523Y-120110285D01*
X121291428Y-120262666D01*
X121291428Y-120453142D01*
X121329523Y-120605523D01*
X121367619Y-120681714D01*
X121405714Y-120719809D01*
X121481904Y-120757904D01*
X121558095Y-120757904D01*
X121634285Y-120719809D01*
X121672380Y-120681714D01*
X121710476Y-120605523D01*
X121748571Y-120453142D01*
X121748571Y-120262666D01*
X121710476Y-120110285D01*
X121672380Y-120034095D01*
X121634285Y-119996000D01*
X121558095Y-119957904D01*
X120948571Y-120224571D02*
X120948571Y-120757904D01*
X120948571Y-120300761D02*
X120910476Y-120262666D01*
X120834285Y-120224571D01*
X120720000Y-120224571D01*
X120643809Y-120262666D01*
X120605714Y-120338857D01*
X120605714Y-120757904D01*
X157530666Y-129553904D02*
X157987809Y-129553904D01*
X157759238Y-129553904D02*
X157759238Y-128753904D01*
X157835428Y-128868190D01*
X157911619Y-128944380D01*
X157987809Y-128982476D01*
X157035428Y-128753904D02*
X156959238Y-128753904D01*
X156883047Y-128792000D01*
X156844952Y-128830095D01*
X156806857Y-128906285D01*
X156768761Y-129058666D01*
X156768761Y-129249142D01*
X156806857Y-129401523D01*
X156844952Y-129477714D01*
X156883047Y-129515809D01*
X156959238Y-129553904D01*
X157035428Y-129553904D01*
X157111619Y-129515809D01*
X157149714Y-129477714D01*
X157187809Y-129401523D01*
X157225904Y-129249142D01*
X157225904Y-129058666D01*
X157187809Y-128906285D01*
X157149714Y-128830095D01*
X157111619Y-128792000D01*
X157035428Y-128753904D01*
X156425904Y-129020571D02*
X156425904Y-129820571D01*
X156044952Y-129439619D02*
X156006857Y-129515809D01*
X155930666Y-129553904D01*
X156425904Y-129439619D02*
X156387809Y-129515809D01*
X156311619Y-129553904D01*
X156159238Y-129553904D01*
X156083047Y-129515809D01*
X156044952Y-129439619D01*
X156044952Y-129020571D01*
X155587809Y-129249142D02*
X154978285Y-129249142D01*
X155283047Y-129553904D02*
X155283047Y-128944380D01*
X128911238Y-134727904D02*
X129368380Y-134727904D01*
X129139809Y-134727904D02*
X129139809Y-133927904D01*
X129216000Y-134042190D01*
X129292190Y-134118380D01*
X129368380Y-134156476D01*
X128416000Y-133927904D02*
X128339809Y-133927904D01*
X128263619Y-133966000D01*
X128225523Y-134004095D01*
X128187428Y-134080285D01*
X128149333Y-134232666D01*
X128149333Y-134423142D01*
X128187428Y-134575523D01*
X128225523Y-134651714D01*
X128263619Y-134689809D01*
X128339809Y-134727904D01*
X128416000Y-134727904D01*
X128492190Y-134689809D01*
X128530285Y-134651714D01*
X128568380Y-134575523D01*
X128606476Y-134423142D01*
X128606476Y-134232666D01*
X128568380Y-134080285D01*
X128530285Y-134004095D01*
X128492190Y-133966000D01*
X128416000Y-133927904D01*
X127654095Y-133927904D02*
X127577904Y-133927904D01*
X127501714Y-133966000D01*
X127463619Y-134004095D01*
X127425523Y-134080285D01*
X127387428Y-134232666D01*
X127387428Y-134423142D01*
X127425523Y-134575523D01*
X127463619Y-134651714D01*
X127501714Y-134689809D01*
X127577904Y-134727904D01*
X127654095Y-134727904D01*
X127730285Y-134689809D01*
X127768380Y-134651714D01*
X127806476Y-134575523D01*
X127844571Y-134423142D01*
X127844571Y-134232666D01*
X127806476Y-134080285D01*
X127768380Y-134004095D01*
X127730285Y-133966000D01*
X127654095Y-133927904D01*
X127044571Y-134194571D02*
X127044571Y-134727904D01*
X127044571Y-134270761D02*
X127006476Y-134232666D01*
X126930285Y-134194571D01*
X126816000Y-134194571D01*
X126739809Y-134232666D01*
X126701714Y-134308857D01*
X126701714Y-134727904D01*
X160661238Y-126091904D02*
X161118380Y-126091904D01*
X160889809Y-126091904D02*
X160889809Y-125291904D01*
X160966000Y-125406190D01*
X161042190Y-125482380D01*
X161118380Y-125520476D01*
X160166000Y-125291904D02*
X160089809Y-125291904D01*
X160013619Y-125330000D01*
X159975523Y-125368095D01*
X159937428Y-125444285D01*
X159899333Y-125596666D01*
X159899333Y-125787142D01*
X159937428Y-125939523D01*
X159975523Y-126015714D01*
X160013619Y-126053809D01*
X160089809Y-126091904D01*
X160166000Y-126091904D01*
X160242190Y-126053809D01*
X160280285Y-126015714D01*
X160318380Y-125939523D01*
X160356476Y-125787142D01*
X160356476Y-125596666D01*
X160318380Y-125444285D01*
X160280285Y-125368095D01*
X160242190Y-125330000D01*
X160166000Y-125291904D01*
X159404095Y-125291904D02*
X159327904Y-125291904D01*
X159251714Y-125330000D01*
X159213619Y-125368095D01*
X159175523Y-125444285D01*
X159137428Y-125596666D01*
X159137428Y-125787142D01*
X159175523Y-125939523D01*
X159213619Y-126015714D01*
X159251714Y-126053809D01*
X159327904Y-126091904D01*
X159404095Y-126091904D01*
X159480285Y-126053809D01*
X159518380Y-126015714D01*
X159556476Y-125939523D01*
X159594571Y-125787142D01*
X159594571Y-125596666D01*
X159556476Y-125444285D01*
X159518380Y-125368095D01*
X159480285Y-125330000D01*
X159404095Y-125291904D01*
X158794571Y-125558571D02*
X158794571Y-126091904D01*
X158794571Y-125634761D02*
X158756476Y-125596666D01*
X158680285Y-125558571D01*
X158566000Y-125558571D01*
X158489809Y-125596666D01*
X158451714Y-125672857D01*
X158451714Y-126091904D01*
X143135238Y-131933904D02*
X143592380Y-131933904D01*
X143363809Y-131933904D02*
X143363809Y-131133904D01*
X143440000Y-131248190D01*
X143516190Y-131324380D01*
X143592380Y-131362476D01*
X142640000Y-131133904D02*
X142563809Y-131133904D01*
X142487619Y-131172000D01*
X142449523Y-131210095D01*
X142411428Y-131286285D01*
X142373333Y-131438666D01*
X142373333Y-131629142D01*
X142411428Y-131781523D01*
X142449523Y-131857714D01*
X142487619Y-131895809D01*
X142563809Y-131933904D01*
X142640000Y-131933904D01*
X142716190Y-131895809D01*
X142754285Y-131857714D01*
X142792380Y-131781523D01*
X142830476Y-131629142D01*
X142830476Y-131438666D01*
X142792380Y-131286285D01*
X142754285Y-131210095D01*
X142716190Y-131172000D01*
X142640000Y-131133904D01*
X141878095Y-131133904D02*
X141801904Y-131133904D01*
X141725714Y-131172000D01*
X141687619Y-131210095D01*
X141649523Y-131286285D01*
X141611428Y-131438666D01*
X141611428Y-131629142D01*
X141649523Y-131781523D01*
X141687619Y-131857714D01*
X141725714Y-131895809D01*
X141801904Y-131933904D01*
X141878095Y-131933904D01*
X141954285Y-131895809D01*
X141992380Y-131857714D01*
X142030476Y-131781523D01*
X142068571Y-131629142D01*
X142068571Y-131438666D01*
X142030476Y-131286285D01*
X141992380Y-131210095D01*
X141954285Y-131172000D01*
X141878095Y-131133904D01*
X141268571Y-131400571D02*
X141268571Y-131933904D01*
X141268571Y-131476761D02*
X141230476Y-131438666D01*
X141154285Y-131400571D01*
X141040000Y-131400571D01*
X140963809Y-131438666D01*
X140925714Y-131514857D01*
X140925714Y-131933904D01*
X132486190Y-138741142D02*
X131876666Y-138741142D01*
X132181428Y-139045904D02*
X132181428Y-138436380D01*
X131533809Y-138322095D02*
X131495714Y-138284000D01*
X131419523Y-138245904D01*
X131229047Y-138245904D01*
X131152857Y-138284000D01*
X131114761Y-138322095D01*
X131076666Y-138398285D01*
X131076666Y-138474476D01*
X131114761Y-138588761D01*
X131571904Y-139045904D01*
X131076666Y-139045904D01*
X130733809Y-138969714D02*
X130695714Y-139007809D01*
X130733809Y-139045904D01*
X130771904Y-139007809D01*
X130733809Y-138969714D01*
X130733809Y-139045904D01*
X130390952Y-138322095D02*
X130352857Y-138284000D01*
X130276666Y-138245904D01*
X130086190Y-138245904D01*
X130010000Y-138284000D01*
X129971904Y-138322095D01*
X129933809Y-138398285D01*
X129933809Y-138474476D01*
X129971904Y-138588761D01*
X130429047Y-139045904D01*
X129933809Y-139045904D01*
X129590952Y-138512571D02*
X129590952Y-139312571D01*
X129210000Y-138931619D02*
X129171904Y-139007809D01*
X129095714Y-139045904D01*
X129590952Y-138931619D02*
X129552857Y-139007809D01*
X129476666Y-139045904D01*
X129324285Y-139045904D01*
X129248095Y-139007809D01*
X129210000Y-138931619D01*
X129210000Y-138512571D01*
X102076190Y-124567904D02*
X102533333Y-124567904D01*
X102304761Y-124567904D02*
X102304761Y-123767904D01*
X102380952Y-123882190D01*
X102457142Y-123958380D01*
X102533333Y-123996476D01*
X101580952Y-123767904D02*
X101504761Y-123767904D01*
X101428571Y-123806000D01*
X101390476Y-123844095D01*
X101352380Y-123920285D01*
X101314285Y-124072666D01*
X101314285Y-124263142D01*
X101352380Y-124415523D01*
X101390476Y-124491714D01*
X101428571Y-124529809D01*
X101504761Y-124567904D01*
X101580952Y-124567904D01*
X101657142Y-124529809D01*
X101695238Y-124491714D01*
X101733333Y-124415523D01*
X101771428Y-124263142D01*
X101771428Y-124072666D01*
X101733333Y-123920285D01*
X101695238Y-123844095D01*
X101657142Y-123806000D01*
X101580952Y-123767904D01*
X100971428Y-124567904D02*
X100971428Y-123767904D01*
X100895238Y-124263142D02*
X100666666Y-124567904D01*
X100666666Y-124034571D02*
X100971428Y-124339333D01*
X148558190Y-140569904D02*
X149015333Y-140569904D01*
X148786761Y-140569904D02*
X148786761Y-139769904D01*
X148862952Y-139884190D01*
X148939142Y-139960380D01*
X149015333Y-139998476D01*
X148062952Y-139769904D02*
X147986761Y-139769904D01*
X147910571Y-139808000D01*
X147872476Y-139846095D01*
X147834380Y-139922285D01*
X147796285Y-140074666D01*
X147796285Y-140265142D01*
X147834380Y-140417523D01*
X147872476Y-140493714D01*
X147910571Y-140531809D01*
X147986761Y-140569904D01*
X148062952Y-140569904D01*
X148139142Y-140531809D01*
X148177238Y-140493714D01*
X148215333Y-140417523D01*
X148253428Y-140265142D01*
X148253428Y-140074666D01*
X148215333Y-139922285D01*
X148177238Y-139846095D01*
X148139142Y-139808000D01*
X148062952Y-139769904D01*
X147453428Y-140569904D02*
X147453428Y-139769904D01*
X147377238Y-140265142D02*
X147148666Y-140569904D01*
X147148666Y-140036571D02*
X147453428Y-140341333D01*
D10*
X132841904Y-118744380D02*
X132841904Y-119553904D01*
X132794285Y-119649142D01*
X132746666Y-119696761D01*
X132651428Y-119744380D01*
X132460952Y-119744380D01*
X132365714Y-119696761D01*
X132318095Y-119649142D01*
X132270476Y-119553904D01*
X132270476Y-118744380D01*
X131841904Y-118839619D02*
X131794285Y-118792000D01*
X131699047Y-118744380D01*
X131460952Y-118744380D01*
X131365714Y-118792000D01*
X131318095Y-118839619D01*
X131270476Y-118934857D01*
X131270476Y-119030095D01*
X131318095Y-119172952D01*
X131889523Y-119744380D01*
X131270476Y-119744380D01*
D11*
X137356738Y-115835404D02*
X137813880Y-115835404D01*
X137585309Y-115835404D02*
X137585309Y-115035404D01*
X137661500Y-115149690D01*
X137737690Y-115225880D01*
X137813880Y-115263976D01*
X136861500Y-115035404D02*
X136785309Y-115035404D01*
X136709119Y-115073500D01*
X136671023Y-115111595D01*
X136632928Y-115187785D01*
X136594833Y-115340166D01*
X136594833Y-115530642D01*
X136632928Y-115683023D01*
X136671023Y-115759214D01*
X136709119Y-115797309D01*
X136785309Y-115835404D01*
X136861500Y-115835404D01*
X136937690Y-115797309D01*
X136975785Y-115759214D01*
X137013880Y-115683023D01*
X137051976Y-115530642D01*
X137051976Y-115340166D01*
X137013880Y-115187785D01*
X136975785Y-115111595D01*
X136937690Y-115073500D01*
X136861500Y-115035404D01*
X136099595Y-115035404D02*
X136023404Y-115035404D01*
X135947214Y-115073500D01*
X135909119Y-115111595D01*
X135871023Y-115187785D01*
X135832928Y-115340166D01*
X135832928Y-115530642D01*
X135871023Y-115683023D01*
X135909119Y-115759214D01*
X135947214Y-115797309D01*
X136023404Y-115835404D01*
X136099595Y-115835404D01*
X136175785Y-115797309D01*
X136213880Y-115759214D01*
X136251976Y-115683023D01*
X136290071Y-115530642D01*
X136290071Y-115340166D01*
X136251976Y-115187785D01*
X136213880Y-115111595D01*
X136175785Y-115073500D01*
X136099595Y-115035404D01*
X135490071Y-115302071D02*
X135490071Y-115835404D01*
X135490071Y-115378261D02*
X135451976Y-115340166D01*
X135375785Y-115302071D01*
X135261500Y-115302071D01*
X135185309Y-115340166D01*
X135147214Y-115416357D01*
X135147214Y-115835404D01*
X155028761Y-108819904D02*
X155295428Y-108438952D01*
X155485904Y-108819904D02*
X155485904Y-108019904D01*
X155181142Y-108019904D01*
X155104952Y-108058000D01*
X155066857Y-108096095D01*
X155028761Y-108172285D01*
X155028761Y-108286571D01*
X155066857Y-108362761D01*
X155104952Y-108400857D01*
X155181142Y-108438952D01*
X155485904Y-108438952D01*
X154343047Y-108819904D02*
X154343047Y-108019904D01*
X154343047Y-108781809D02*
X154419238Y-108819904D01*
X154571619Y-108819904D01*
X154647809Y-108781809D01*
X154685904Y-108743714D01*
X154724000Y-108667523D01*
X154724000Y-108438952D01*
X154685904Y-108362761D01*
X154647809Y-108324666D01*
X154571619Y-108286571D01*
X154419238Y-108286571D01*
X154343047Y-108324666D01*
X153962095Y-108819904D02*
X153962095Y-108286571D01*
X153962095Y-108019904D02*
X154000190Y-108058000D01*
X153962095Y-108096095D01*
X153924000Y-108058000D01*
X153962095Y-108019904D01*
X153962095Y-108096095D01*
X153657333Y-108286571D02*
X153466857Y-108819904D01*
X153276380Y-108286571D01*
X152971619Y-108515142D02*
X152362095Y-108515142D01*
X152666857Y-108819904D02*
X152666857Y-108210380D01*
X151472761Y-108756404D02*
X151739428Y-108375452D01*
X151929904Y-108756404D02*
X151929904Y-107956404D01*
X151625142Y-107956404D01*
X151548952Y-107994500D01*
X151510857Y-108032595D01*
X151472761Y-108108785D01*
X151472761Y-108223071D01*
X151510857Y-108299261D01*
X151548952Y-108337357D01*
X151625142Y-108375452D01*
X151929904Y-108375452D01*
X150787047Y-108756404D02*
X150787047Y-107956404D01*
X150787047Y-108718309D02*
X150863238Y-108756404D01*
X151015619Y-108756404D01*
X151091809Y-108718309D01*
X151129904Y-108680214D01*
X151168000Y-108604023D01*
X151168000Y-108375452D01*
X151129904Y-108299261D01*
X151091809Y-108261166D01*
X151015619Y-108223071D01*
X150863238Y-108223071D01*
X150787047Y-108261166D01*
X150406095Y-108756404D02*
X150406095Y-108223071D01*
X150406095Y-107956404D02*
X150444190Y-107994500D01*
X150406095Y-108032595D01*
X150368000Y-107994500D01*
X150406095Y-107956404D01*
X150406095Y-108032595D01*
X150101333Y-108223071D02*
X149910857Y-108756404D01*
X149720380Y-108223071D01*
X149415619Y-108451642D02*
X148806095Y-108451642D01*
X138137690Y-112482642D02*
X137528166Y-112482642D01*
X137832928Y-112787404D02*
X137832928Y-112177880D01*
X136804357Y-112254071D02*
X136804357Y-112787404D01*
X136994833Y-111949309D02*
X137185309Y-112520738D01*
X136690071Y-112520738D01*
X136385309Y-112711214D02*
X136347214Y-112749309D01*
X136385309Y-112787404D01*
X136423404Y-112749309D01*
X136385309Y-112711214D01*
X136385309Y-112787404D01*
X136080547Y-111987404D02*
X135547214Y-111987404D01*
X135890071Y-112787404D01*
X135242452Y-112254071D02*
X135242452Y-113054071D01*
X134861500Y-112673119D02*
X134823404Y-112749309D01*
X134747214Y-112787404D01*
X135242452Y-112673119D02*
X135204357Y-112749309D01*
X135128166Y-112787404D01*
X134975785Y-112787404D01*
X134899595Y-112749309D01*
X134861500Y-112673119D01*
X134861500Y-112254071D01*
X143643238Y-104438404D02*
X144100380Y-104438404D01*
X143871809Y-104438404D02*
X143871809Y-103638404D01*
X143948000Y-103752690D01*
X144024190Y-103828880D01*
X144100380Y-103866976D01*
X143148000Y-103638404D02*
X143071809Y-103638404D01*
X142995619Y-103676500D01*
X142957523Y-103714595D01*
X142919428Y-103790785D01*
X142881333Y-103943166D01*
X142881333Y-104133642D01*
X142919428Y-104286023D01*
X142957523Y-104362214D01*
X142995619Y-104400309D01*
X143071809Y-104438404D01*
X143148000Y-104438404D01*
X143224190Y-104400309D01*
X143262285Y-104362214D01*
X143300380Y-104286023D01*
X143338476Y-104133642D01*
X143338476Y-103943166D01*
X143300380Y-103790785D01*
X143262285Y-103714595D01*
X143224190Y-103676500D01*
X143148000Y-103638404D01*
X142386095Y-103638404D02*
X142309904Y-103638404D01*
X142233714Y-103676500D01*
X142195619Y-103714595D01*
X142157523Y-103790785D01*
X142119428Y-103943166D01*
X142119428Y-104133642D01*
X142157523Y-104286023D01*
X142195619Y-104362214D01*
X142233714Y-104400309D01*
X142309904Y-104438404D01*
X142386095Y-104438404D01*
X142462285Y-104400309D01*
X142500380Y-104362214D01*
X142538476Y-104286023D01*
X142576571Y-104133642D01*
X142576571Y-103943166D01*
X142538476Y-103790785D01*
X142500380Y-103714595D01*
X142462285Y-103676500D01*
X142386095Y-103638404D01*
X141776571Y-103905071D02*
X141776571Y-104438404D01*
X141776571Y-103981261D02*
X141738476Y-103943166D01*
X141662285Y-103905071D01*
X141548000Y-103905071D01*
X141471809Y-103943166D01*
X141433714Y-104019357D01*
X141433714Y-104438404D01*
X145497428Y-121050095D02*
X145459333Y-121012000D01*
X145383142Y-120973904D01*
X145192666Y-120973904D01*
X145116476Y-121012000D01*
X145078380Y-121050095D01*
X145040285Y-121126285D01*
X145040285Y-121202476D01*
X145078380Y-121316761D01*
X145535523Y-121773904D01*
X145040285Y-121773904D01*
X144545047Y-120973904D02*
X144468857Y-120973904D01*
X144392666Y-121012000D01*
X144354571Y-121050095D01*
X144316476Y-121126285D01*
X144278380Y-121278666D01*
X144278380Y-121469142D01*
X144316476Y-121621523D01*
X144354571Y-121697714D01*
X144392666Y-121735809D01*
X144468857Y-121773904D01*
X144545047Y-121773904D01*
X144621238Y-121735809D01*
X144659333Y-121697714D01*
X144697428Y-121621523D01*
X144735523Y-121469142D01*
X144735523Y-121278666D01*
X144697428Y-121126285D01*
X144659333Y-121050095D01*
X144621238Y-121012000D01*
X144545047Y-120973904D01*
X143935523Y-121240571D02*
X143935523Y-122040571D01*
X143935523Y-121278666D02*
X143859333Y-121240571D01*
X143706952Y-121240571D01*
X143630761Y-121278666D01*
X143592666Y-121316761D01*
X143554571Y-121392952D01*
X143554571Y-121621523D01*
X143592666Y-121697714D01*
X143630761Y-121735809D01*
X143706952Y-121773904D01*
X143859333Y-121773904D01*
X143935523Y-121735809D01*
X145497428Y-126544095D02*
X145459333Y-126506000D01*
X145383142Y-126467904D01*
X145192666Y-126467904D01*
X145116476Y-126506000D01*
X145078380Y-126544095D01*
X145040285Y-126620285D01*
X145040285Y-126696476D01*
X145078380Y-126810761D01*
X145535523Y-127267904D01*
X145040285Y-127267904D01*
X144545047Y-126467904D02*
X144468857Y-126467904D01*
X144392666Y-126506000D01*
X144354571Y-126544095D01*
X144316476Y-126620285D01*
X144278380Y-126772666D01*
X144278380Y-126963142D01*
X144316476Y-127115523D01*
X144354571Y-127191714D01*
X144392666Y-127229809D01*
X144468857Y-127267904D01*
X144545047Y-127267904D01*
X144621238Y-127229809D01*
X144659333Y-127191714D01*
X144697428Y-127115523D01*
X144735523Y-126963142D01*
X144735523Y-126772666D01*
X144697428Y-126620285D01*
X144659333Y-126544095D01*
X144621238Y-126506000D01*
X144545047Y-126467904D01*
X143935523Y-126734571D02*
X143935523Y-127534571D01*
X143935523Y-126772666D02*
X143859333Y-126734571D01*
X143706952Y-126734571D01*
X143630761Y-126772666D01*
X143592666Y-126810761D01*
X143554571Y-126886952D01*
X143554571Y-127115523D01*
X143592666Y-127191714D01*
X143630761Y-127229809D01*
X143706952Y-127267904D01*
X143859333Y-127267904D01*
X143935523Y-127229809D01*
X141878000Y-121850095D02*
X141954190Y-121812000D01*
X142030380Y-121735809D01*
X142144666Y-121621523D01*
X142220857Y-121583428D01*
X142297047Y-121583428D01*
X142258952Y-121773904D02*
X142335142Y-121735809D01*
X142411333Y-121659619D01*
X142449428Y-121507238D01*
X142449428Y-121240571D01*
X142411333Y-121088190D01*
X142335142Y-121012000D01*
X142258952Y-120973904D01*
X142106571Y-120973904D01*
X142030380Y-121012000D01*
X141954190Y-121088190D01*
X141916095Y-121240571D01*
X141916095Y-121507238D01*
X141954190Y-121659619D01*
X142030380Y-121735809D01*
X142106571Y-121773904D01*
X142258952Y-121773904D01*
X141649428Y-121240571D02*
X141230380Y-121240571D01*
X141649428Y-121773904D01*
X141230380Y-121773904D01*
X140506571Y-121773904D02*
X140963714Y-121773904D01*
X140735142Y-121773904D02*
X140735142Y-120973904D01*
X140811333Y-121088190D01*
X140887523Y-121164380D01*
X140963714Y-121202476D01*
M02*
