M48
; DRILL file {KiCad (5.1.0)-1} date 21/04/2019 19:35:43
; FORMAT={-:-/ absolute / inch / decimal}
; #@! TF.CreationDate,2019-04-21T19:35:43+02:00
; #@! TF.GenerationSoftware,Kicad,Pcbnew,(5.1.0)-1
; #@! TF.FileFunction,Plated,1,4,PTH
FMAT,2
INCH
T1C0.0157
T2C0.0394
T3C0.0433
T4C0.0748
%
G90
G05
T1
X4.09Y-4.92
X4.16Y-4.94
X4.2131Y-4.9784
X4.35Y-4.775
X4.35Y-5.2
X4.515Y-4.7351
X4.57Y-4.7575
X4.64Y-5.11
X4.6671Y-4.7528
X4.6902Y-4.9898
X4.75Y-4.79
X4.75Y-4.85
X4.7789Y-4.9694
X4.94Y-5.39
X4.9975Y-5.795
X5.0Y-5.3975
X5.03Y-4.26
X5.053Y-4.6456
X5.06Y-5.47
X5.0923Y-4.6477
X5.11Y-5.11
X5.1171Y-4.9022
X5.1175Y-4.9599
X5.14Y-5.36
X5.1501Y-5.0611
X5.1563Y-5.3206
X5.1565Y-4.9117
X5.175Y-4.325
X5.19Y-5.0531
X5.2013Y-5.3537
X5.2267Y-4.8742
X5.2627Y-5.017
X5.27Y-5.31
X5.2725Y-4.8775
X5.29Y-5.4296
X5.3003Y-4.849
X5.3132Y-5.3124
X5.34Y-4.5425
X5.3404Y-5.0701
X5.4075Y-4.545
X5.4675Y-5.2625
X5.58Y-4.29
X5.68Y-5.06
X5.68Y-5.12
X5.72Y-4.89
X5.74Y-5.79
X5.89Y-4.32
T2
X5.86Y-3.98
X5.86Y-4.08
X5.86Y-4.18
X4.865Y-4.335
X4.865Y-4.435
X4.865Y-4.535
X4.24Y-3.98
X4.24Y-4.08
X4.24Y-4.18
X4.36Y-3.98
X4.36Y-4.08
X4.36Y-4.18
X4.24Y-4.44
X4.24Y-4.54
X4.24Y-4.64
X4.24Y-4.74
X4.24Y-4.84
X5.22Y-5.58
X5.22Y-5.68
X5.22Y-5.78
X3.98Y-5.58
X3.98Y-5.68
X3.98Y-5.78
X4.74Y-5.1
X4.74Y-5.2
X4.74Y-5.3
X4.74Y-5.4
X4.74Y-5.5
X4.74Y-5.6
X6.12Y-4.84
X6.22Y-4.84
X6.32Y-4.84
X4.38Y-5.36
X4.38Y-5.46
X4.38Y-5.56
X4.38Y-5.66
X4.22Y-5.58
X4.22Y-5.68
X4.22Y-5.78
X5.98Y-5.58
X5.98Y-5.68
X5.98Y-5.78
X5.02Y-3.98
X5.02Y-4.08
X5.02Y-4.18
X6.18Y-5.44
X6.28Y-5.44
X6.38Y-5.44
X4.575Y-4.335
X4.575Y-4.435
X4.575Y-4.535
X5.1Y-5.58
X5.1Y-5.68
X5.1Y-5.78
X4.745Y-4.335
X4.745Y-4.435
X4.745Y-4.535
X6.18Y-4.38
X6.28Y-4.38
X6.38Y-4.38
X6.22Y-5.58
X6.22Y-5.68
X6.22Y-5.78
X4.2377Y-5.9261
X4.2377Y-6.0261
X4.3377Y-5.9261
X4.3377Y-6.0261
X4.4377Y-5.9261
X4.4377Y-6.0261
X4.5377Y-5.9261
X4.5377Y-6.0261
X4.6377Y-5.9261
X4.6377Y-6.0261
X4.7377Y-5.9261
X4.7377Y-6.0261
X4.8377Y-5.9261
X4.8377Y-6.0261
X4.9377Y-5.9261
X4.9377Y-6.0261
X5.0377Y-5.9261
X5.0377Y-6.0261
X5.1377Y-5.9261
X5.1377Y-6.0261
X5.2377Y-5.9261
X5.2377Y-6.0261
X5.3377Y-5.9261
X5.3377Y-6.0261
X5.4377Y-5.9261
X5.4377Y-6.0261
X5.5377Y-5.9261
X5.5377Y-6.0261
X5.6377Y-5.9261
X5.6377Y-6.0261
X5.7377Y-5.9261
X5.7377Y-6.0261
X5.8377Y-5.9261
X5.8377Y-6.0261
X5.9377Y-5.9261
X5.9377Y-6.0261
X6.0377Y-5.9261
X6.0377Y-6.0261
X6.1377Y-5.9261
X6.1377Y-6.0261
X4.1Y-5.58
X4.1Y-5.68
X4.1Y-5.78
X6.04Y-5.14
X6.04Y-5.24
X5.34Y-5.58
X5.34Y-5.68
X5.34Y-5.78
X4.455Y-4.335
X4.455Y-4.435
X4.455Y-4.535
X4.48Y-3.98
X4.48Y-4.08
X4.48Y-4.18
X4.9Y-3.98
X4.9Y-4.08
X4.9Y-4.18
X4.78Y-3.98
X4.78Y-4.08
X4.78Y-4.18
X6.1Y-3.98
X6.1Y-4.08
X6.1Y-4.18
X6.28Y-4.24
X6.38Y-4.24
X4.0Y-4.48
X4.0Y-4.58
X4.0Y-4.68
X4.0Y-4.78
X6.1Y-5.58
X6.1Y-5.68
X6.1Y-5.78
X5.5Y-5.42
X5.6Y-5.42
X5.7Y-5.42
X5.8Y-5.42
X5.9Y-5.42
X5.98Y-3.98
X5.98Y-4.08
X5.98Y-4.18
T3
X5.5841Y-5.6028
X5.5841Y-5.78
X5.84Y-5.6028
X5.84Y-5.78
X3.99Y-5.0441
X3.99Y-5.3
X4.1672Y-5.0441
X4.1672Y-5.3
T4
X5.2202Y-4.16
X5.7398Y-4.16
T0
M30
